<?xml version="1.0" encoding="utf-8"?>
<!-- Generator: Adobe Illustrator 23.1.1, SVG Export Plug-In . SVG Version: 6.00 Build 0)  -->
<svg version="1.1" id="Calque_1" xmlns="http://www.w3.org/2000/svg" xmlns:xlink="http://www.w3.org/1999/xlink" x="0px" y="0px"
	 viewBox="0 0 458.4 458.4" style="enable-background:new 0 0 458.4 458.4;" xml:space="preserve">
<style type="text/css">
	.st0{fill:#10FF92;}
</style>
<g>
	<path class="st0" d="M383.95,67.36c-13.89-12.93-32.57-19.52-55.49-19.52c-22.98,0-41.66,6.59-55.55,19.58
		c-15.81,15.17-23.87,36.35-23.87,62.85v101.09h-88.87v18.52v9.92v19.79v48.63c0,13.38-2.62,22.27-8,27.26
		c-4.99,4.61-12.54,6.78-23.1,6.78c-10.05,0-17.66-2.3-22.53-6.78c-5.76-5.31-8.51-14.27-8.51-27.26V130.27
		c0-12.99,2.75-21.89,8.45-27.2c4.93-4.54,12.54-6.85,22.59-6.85c10.43,0,18.18,2.3,23.1,6.85c5.38,4.99,8,13.89,8,27.2v61.21h48.32
		v-61.21c0-26.5-8-47.68-23.87-62.91c-13.89-12.93-32.57-19.52-55.55-19.52c-22.27,0-41.02,6.59-55.55,19.65
		c-15.81,15.74-23.81,36.93-23.81,62.78v197.94c0,25.92,8,47.1,23.94,62.97c14.4,12.86,33.15,19.46,55.42,19.46
		c22.98,0,41.66-6.59,55.61-19.58c15.81-15.17,23.81-36.35,23.81-62.85v-48.63h40.55v48.63c0,26.5,8.06,47.68,23.87,62.91
		c13.89,12.93,32.57,19.52,55.55,19.52c22.91,0,41.6-6.59,55.55-19.58c15.81-15.17,23.87-36.35,23.87-62.85V130.27
		C407.88,103.77,399.82,82.59,383.95,67.36z M359.5,328.21c0,13.38-2.82,22.34-8.58,27.33c-4.48,4.48-11.9,6.72-22.46,6.72
		c-10.11,0-17.73-2.3-22.59-6.78c-5.7-5.31-8.51-14.27-8.51-27.26V130.27c0-12.99,2.82-21.89,8.51-27.2
		c4.93-4.54,12.48-6.85,22.59-6.85c10.56,0,17.98,2.24,22.65,6.91c5.57,4.86,8.38,13.76,8.38,27.13V328.21z"/>
</g>
</svg>
