<?xml version="1.0" encoding="utf-8"?>
<!-- Generator: Adobe Illustrator 23.1.1, SVG Export Plug-In . SVG Version: 6.00 Build 0)  -->
<svg version="1.1" id="Calque_1" xmlns="http://www.w3.org/2000/svg" xmlns:xlink="http://www.w3.org/1999/xlink" x="0px" y="0px"
	 viewBox="0 0 283.46 283.46" style="enable-background:new 0 0 283.46 283.46;" xml:space="preserve">
<style type="text/css">
	.st0{fill:#00032E;}
	.st1{clip-path:url(#SVGID_2_);}
	.st2{fill:#FFFFFF;}
	.st3{clip-path:url(#SVGID_2_);fill:#FFFFFF;}
</style>
<g>
	<defs>
		<rect id="SVGID_1_" x="62.58" y="31.4" width="155.12" height="223.6"/>
	</defs>
	<clipPath id="SVGID_2_">
		<use xlink:href="#SVGID_1_"  style="overflow:visible;"/>
	</clipPath>
	<g class="st1">
		<path class="st2" d="M101.36,38.35c-2.12-1.88-4.53-3.91-7.53-3.91c-3.09,0-5.6,2.12-5.6,5.31c0,1.83,0.34,3.47,5.02,6.32
			L96,47.75c6.37,3.91,8.11,5.74,8.11,9.79c0,6.22-4.15,9.94-10.23,9.94c-4.49,0-7.82-2.17-10.52-5.64l2.8-2.22
			c1.69,2.7,4.39,4.82,7.72,4.82c3.62,0,6.61-2.7,6.61-6.42c0-2.8-0.19-3.76-6.32-7.43l-3.14-1.88c-3.43-2.03-6.42-4.39-6.42-8.73
			c0-5.45,4.15-8.59,9.36-8.59c3.62,0,6.95,1.93,9.55,4.34L101.36,38.35z"/>
		<path class="st2" d="M134.36,35.11h-9.89v31.7h-3.62v-31.7h-9.7v-3.04h23.21V35.11z"/>
		<path class="st2" d="M157.48,32.07h4l-8.88,20.07v14.67h-3.62V52.14l-8.88-20.07h4l6.71,15.73L157.48,32.07z"/>
		<path class="st2" d="M174.75,32.07l5.89,13.46l5.89-13.46h4.2l-8.2,17.22l8.44,17.51h-4.2l-6.13-13.9l-6.13,13.9h-4.15l8.49-17.56
			l-8.25-17.18H174.75z"/>
	</g>
	<path class="st3" d="M71.4,195.79c0.68,0.38,16.73,9.25,37.09,9.25c9.75,0,18.14-2.72,27.02-5.6l0.58-0.19
		c9.38-3.05,19.15-6.17,30.91-5.92c22.73,0.47,42.68,10.69,43.51,11.12l0.01,0.01l1.89,1.01c3.38-8.7,5.3-18.13,5.3-28.03
		c0-42.84-34.73-77.56-77.56-77.56s-77.56,34.72-77.56,77.56c0,4.86,0.51,9.6,1.36,14.21L71.4,195.79z"/>
	<path class="st3" d="M166.03,233.03c0.32,0,0.64,0,0.96,0.01c8.42,0.17,16.44,1.68,23.27,3.54c3.12-2.65,6.02-5.55,8.69-8.66
		c-7.53-2.88-19.55-6.58-32.11-6.83c-10.67-0.3-19.75,2.74-28.58,5.61c-9.25,3.01-18.78,6.09-29.78,6.09
		c-10.33,0-19.52-2.01-26.59-4.25c5.49,6.25,11.95,11.59,19.17,15.82c2.4,0.25,4.87,0.39,7.42,0.39c9.77,0,18.16-2.73,27.05-5.61
		C144.35,236.27,154.32,233.03,166.03,233.03"/>
	<path class="st3" d="M166.84,201.23c-10.55-0.24-19.73,2.74-28.6,5.62c-9.23,3-18.76,6.09-29.76,6.09
		c-22.86,0-40.24-9.85-40.96-10.27l-0.81-0.45c1.71,5.05,3.92,9.86,6.58,14.38c4.85,2.36,18.67,8.28,35.2,8.28
		c9.76,0,18.15-2.73,27.03-5.61c9.6-3.12,19.38-6.37,31.48-6.1c15.25,0.31,29.22,5.01,37.03,8.2c1.91-2.77,3.61-5.68,5.14-8.69
		l-2.34-1.25C206.65,211.35,187.48,201.65,166.84,201.23"/>
	<path class="st3" d="M166.84,240.94c-10.49-0.27-19.58,2.7-28.4,5.55l-0.32,0.11c-6.34,2.06-12.87,4.1-19.91,5.2
		c6.96,2.05,14.31,3.2,21.93,3.2c15.39,0,29.7-4.54,41.77-12.28C177.18,241.74,172.07,241.05,166.84,240.94"/>
</g>
</svg>
