<?xml version="1.0" encoding="utf-8"?>
<!-- Generator: Adobe Illustrator 23.1.1, SVG Export Plug-In . SVG Version: 6.00 Build 0)  -->
<svg version="1.1" id="Calque_1" xmlns="http://www.w3.org/2000/svg" xmlns:xlink="http://www.w3.org/1999/xlink" x="0px" y="0px"
	 viewBox="0 0 1366 489" style="enable-background:new 0 0 1366 489;" xml:space="preserve">
<style type="text/css">
	.st0{fill:#190142;}
	.st1{fill:none;}
	.st2{font-family:'AvenirNextLTPro-Bold';}
	.st3{font-size:20px;}
</style>
<g>
	<circle class="st0" cx="81" cy="63" r="9"/>
	<circle class="st1" cx="81" cy="93" r="9"/>
	<circle class="st1" cx="81" cy="123" r="9"/>
	<circle class="st1" cx="111" cy="63" r="9"/>
	<circle class="st1" cx="111" cy="93" r="9"/>
	<circle class="st1" cx="111" cy="123" r="9"/>
</g>
<g>
	<circle class="st0" cx="171" cy="63" r="9"/>
	<circle class="st0" cx="171" cy="93" r="9"/>
	<circle class="st1" cx="171" cy="123" r="9"/>
	<circle class="st1" cx="201" cy="63" r="9"/>
	<circle class="st1" cx="201" cy="93" r="9"/>
	<circle class="st1" cx="201" cy="123" r="9"/>
</g>
<g>
	<circle class="st0" cx="261" cy="63" r="9"/>
	<circle class="st1" cx="261" cy="93" r="9"/>
	<circle class="st1" cx="261" cy="123" r="9"/>
	<circle class="st0" cx="291" cy="63" r="9"/>
	<circle class="st1" cx="291" cy="93" r="9"/>
	<circle class="st1" cx="291" cy="123" r="9"/>
</g>
<g>
	<circle class="st0" cx="351" cy="63" r="9"/>
	<circle class="st1" cx="351" cy="93" r="9"/>
	<circle class="st1" cx="351" cy="123" r="9"/>
	<circle class="st0" cx="381" cy="63" r="9"/>
	<circle class="st0" cx="381" cy="93" r="9"/>
	<circle class="st1" cx="381" cy="123" r="9"/>
</g>
<g>
	<circle class="st0" cx="441" cy="63" r="9"/>
	<circle class="st1" cx="441" cy="93" r="9"/>
	<circle class="st1" cx="441" cy="123" r="9"/>
	<circle class="st1" cx="471" cy="63" r="9"/>
	<circle class="st0" cx="471" cy="93" r="9"/>
	<circle class="st1" cx="471" cy="123" r="9"/>
</g>
<g>
	<circle class="st0" cx="531" cy="63" r="9"/>
	<circle class="st0" cx="531" cy="93" r="9"/>
	<circle class="st1" cx="531" cy="123" r="9"/>
	<circle class="st0" cx="561" cy="63" r="9"/>
	<circle class="st1" cx="561" cy="93" r="9"/>
	<circle class="st1" cx="561" cy="123" r="9"/>
</g>
<g>
	<circle class="st0" cx="621" cy="63" r="9"/>
	<circle class="st0" cx="621" cy="93" r="9"/>
	<circle class="st1" cx="621" cy="123" r="9"/>
	<circle class="st0" cx="651" cy="63" r="9"/>
	<circle class="st0" cx="651" cy="93" r="9"/>
	<circle class="st1" cx="651" cy="123" r="9"/>
</g>
<g>
	<circle class="st0" cx="711" cy="63" r="9"/>
	<circle class="st0" cx="711" cy="93" r="9"/>
	<circle class="st1" cx="711" cy="123" r="9"/>
	<circle class="st1" cx="741" cy="63" r="9"/>
	<circle class="st0" cx="741" cy="93" r="9"/>
	<circle class="st1" cx="741" cy="123" r="9"/>
</g>
<g>
	<circle class="st1" cx="801" cy="63" r="9"/>
	<circle class="st0" cx="801" cy="93" r="9"/>
	<circle class="st1" cx="801" cy="123" r="9"/>
	<circle class="st0" cx="831" cy="63" r="9"/>
	<circle class="st1" cx="831" cy="93" r="9"/>
	<circle class="st1" cx="831" cy="123" r="9"/>
</g>
<g>
	<circle class="st1" cx="891" cy="63" r="9"/>
	<circle class="st0" cx="891" cy="93" r="9"/>
	<circle class="st1" cx="891" cy="123" r="9"/>
	<circle class="st0" cx="921" cy="63" r="9"/>
	<circle class="st0" cx="921" cy="93" r="9"/>
	<circle class="st1" cx="921" cy="123" r="9"/>
</g>
<g>
	<circle class="st0" cx="981" cy="63" r="9"/>
	<circle class="st1" cx="981" cy="93" r="9"/>
	<circle class="st0" cx="981" cy="123" r="9"/>
	<circle class="st1" cx="1011" cy="63" r="9"/>
	<circle class="st1" cx="1011" cy="93" r="9"/>
	<circle class="st1" cx="1011" cy="123" r="9"/>
</g>
<g>
	<circle class="st0" cx="1071" cy="63" r="9"/>
	<circle class="st0" cx="1071" cy="93" r="9"/>
	<circle class="st0" cx="1071" cy="123" r="9"/>
	<circle class="st1" cx="1101" cy="63" r="9"/>
	<circle class="st1" cx="1101" cy="93" r="9"/>
	<circle class="st1" cx="1101" cy="123" r="9"/>
</g>
<g>
	<circle class="st0" cx="1161" cy="63" r="9"/>
	<circle class="st1" cx="1161" cy="93" r="9"/>
	<circle class="st0" cx="1161" cy="123" r="9"/>
	<circle class="st0" cx="1191" cy="63" r="9"/>
	<circle class="st1" cx="1191" cy="93" r="9"/>
	<circle class="st1" cx="1191" cy="123" r="9"/>
</g>
<g>
	<circle class="st0" cx="1251" cy="63" r="9"/>
	<circle class="st1" cx="1251" cy="93" r="9"/>
	<circle class="st0" cx="1251" cy="123" r="9"/>
	<circle class="st0" cx="1281" cy="63" r="9"/>
	<circle class="st0" cx="1281" cy="93" r="9"/>
	<circle class="st1" cx="1281" cy="123" r="9"/>
</g>
<g>
	<circle class="st0" cx="171" cy="273" r="9"/>
	<circle class="st1" cx="171" cy="303" r="9"/>
	<circle class="st0" cx="171" cy="333" r="9"/>
	<circle class="st1" cx="201" cy="273" r="9"/>
	<circle class="st0" cx="201" cy="303" r="9"/>
	<circle class="st1" cx="201" cy="333" r="9"/>
</g>
<g>
	<circle class="st0" cx="261" cy="273" r="9"/>
	<circle class="st0" cx="261" cy="303" r="9"/>
	<circle class="st0" cx="261" cy="333" r="9"/>
	<circle class="st0" cx="291" cy="273" r="9"/>
	<circle class="st1" cx="291" cy="303" r="9"/>
	<circle class="st1" cx="291" cy="333" r="9"/>
</g>
<g>
	<circle class="st0" cx="351" cy="273" r="9"/>
	<circle class="st0" cx="351" cy="303" r="9"/>
	<circle class="st0" cx="351" cy="333" r="9"/>
	<circle class="st0" cx="381" cy="273" r="9"/>
	<circle class="st0" cx="381" cy="303" r="9"/>
	<circle class="st1" cx="381" cy="333" r="9"/>
</g>
<g>
	<circle class="st0" cx="441" cy="273" r="9"/>
	<circle class="st0" cx="441" cy="303" r="9"/>
	<circle class="st0" cx="441" cy="333" r="9"/>
	<circle class="st1" cx="471" cy="273" r="9"/>
	<circle class="st0" cx="471" cy="303" r="9"/>
	<circle class="st1" cx="471" cy="333" r="9"/>
</g>
<g>
	<circle class="st1" cx="531" cy="273" r="9"/>
	<circle class="st0" cx="531" cy="303" r="9"/>
	<circle class="st0" cx="531" cy="333" r="9"/>
	<circle class="st0" cx="561" cy="273" r="9"/>
	<circle class="st1" cx="561" cy="303" r="9"/>
	<circle class="st1" cx="561" cy="333" r="9"/>
</g>
<g>
	<circle class="st1" cx="621" cy="273" r="9"/>
	<circle class="st0" cx="621" cy="303" r="9"/>
	<circle class="st0" cx="621" cy="333" r="9"/>
	<circle class="st0" cx="651" cy="273" r="9"/>
	<circle class="st0" cx="651" cy="303" r="9"/>
	<circle class="st1" cx="651" cy="333" r="9"/>
</g>
<g>
	<circle class="st0" cx="711" cy="273" r="9"/>
	<circle class="st1" cx="711" cy="303" r="9"/>
	<circle class="st0" cx="711" cy="333" r="9"/>
	<circle class="st1" cx="741" cy="273" r="9"/>
	<circle class="st1" cx="741" cy="303" r="9"/>
	<circle class="st0" cx="741" cy="333" r="9"/>
</g>
<g>
	<circle class="st0" cx="801" cy="273" r="9"/>
	<circle class="st0" cx="801" cy="303" r="9"/>
	<circle class="st0" cx="801" cy="333" r="9"/>
	<circle class="st1" cx="831" cy="273" r="9"/>
	<circle class="st1" cx="831" cy="303" r="9"/>
	<circle class="st0" cx="831" cy="333" r="9"/>
</g>
<g>
	<circle class="st1" cx="891" cy="273" r="9"/>
	<circle class="st0" cx="891" cy="303" r="9"/>
	<circle class="st1" cx="891" cy="333" r="9"/>
	<circle class="st0" cx="921" cy="273" r="9"/>
	<circle class="st0" cx="921" cy="303" r="9"/>
	<circle class="st0" cx="921" cy="333" r="9"/>
</g>
<g>
	<circle class="st0" cx="981" cy="273" r="9"/>
	<circle class="st1" cx="981" cy="303" r="9"/>
	<circle class="st0" cx="981" cy="333" r="9"/>
	<circle class="st0" cx="1011" cy="273" r="9"/>
	<circle class="st1" cx="1011" cy="303" r="9"/>
	<circle class="st0" cx="1011" cy="333" r="9"/>
</g>
<g>
	<circle class="st0" cx="1071" cy="273" r="9"/>
	<circle class="st1" cx="1071" cy="303" r="9"/>
	<circle class="st0" cx="1071" cy="333" r="9"/>
	<circle class="st0" cx="1101" cy="273" r="9"/>
	<circle class="st0" cx="1101" cy="303" r="9"/>
	<circle class="st0" cx="1101" cy="333" r="9"/>
</g>
<g>
	<circle class="st0" cx="1161" cy="273" r="9"/>
	<circle class="st1" cx="1161" cy="303" r="9"/>
	<circle class="st0" cx="1161" cy="333" r="9"/>
	<circle class="st1" cx="1191" cy="273" r="9"/>
	<circle class="st0" cx="1191" cy="303" r="9"/>
	<circle class="st0" cx="1191" cy="333" r="9"/>
</g>
<rect x="84" y="165" class="st1" width="24" height="21"/>
<text transform="matrix(1 0 0 1 88.71 180.1201)" class="st0 st2 st3">A</text>
<rect x="174" y="165" class="st1" width="24" height="21"/>
<text transform="matrix(1 0 0 1 179.3501 180.1201)" class="st0 st2 st3">B</text>
<rect x="264" y="165" class="st1" width="24" height="21"/>
<text transform="matrix(1 0 0 1 269.04 180.1201)" class="st0 st2 st3">C</text>
<rect x="354" y="165" class="st1" width="24" height="21"/>
<text transform="matrix(1 0 0 1 358.2603 180.1201)" class="st0 st2 st3">D</text>
<rect x="444" y="165" class="st1" width="24" height="21"/>
<text transform="matrix(1 0 0 1 449.9302 180.1201)" class="st0 st2 st3">E</text>
<rect x="534" y="165" class="st1" width="24" height="21"/>
<text transform="matrix(1 0 0 1 540.2402 180.1201)" class="st0 st2 st3">F</text>
<rect x="624" y="165" class="st1" width="24" height="21"/>
<text transform="matrix(1 0 0 1 628.3101 180.1201)" class="st0 st2 st3">G</text>
<rect x="714" y="165" class="st1" width="24" height="21"/>
<text transform="matrix(1 0 0 1 718.3599 180.1201)" class="st0 st2 st3">H</text>
<rect x="804" y="165" class="st1" width="24" height="21"/>
<text transform="matrix(1 0 0 1 812.8203 180.1201)" class="st0 st2 st3">I</text>
<rect x="894" y="165" class="st1" width="24" height="21"/>
<text transform="matrix(1 0 0 1 900.71 180.1201)" class="st0 st2 st3">J</text>
<rect x="984" y="165" class="st1" width="24" height="21"/>
<text transform="matrix(1 0 0 1 988.8901 180.1201)" class="st0 st2 st3">K</text>
<rect x="1074" y="165" class="st1" width="24" height="21"/>
<text transform="matrix(1 0 0 1 1080.7402 180.1201)" class="st0 st2 st3">L</text>
<rect x="1164" y="165" class="st1" width="24" height="21"/>
<text transform="matrix(1 0 0 1 1166.4502 180.1201)" class="st0 st2 st3">M</text>
<rect x="1164" y="396" class="st1" width="24" height="21"/>
<text transform="matrix(1 0 0 1 1169.6499 411.1201)" class="st0 st2 st3">Z</text>
<rect x="1254" y="165" class="st1" width="24" height="21"/>
<text transform="matrix(1 0 0 1 1258.1001 180.1201)" class="st0 st2 st3">N</text>
<rect x="174" y="393" class="st1" width="24" height="21"/>
<text transform="matrix(1 0 0 1 177.4902 408.1201)" class="st0 st2 st3">O</text>
<rect x="264" y="393" class="st1" width="24" height="21"/>
<text transform="matrix(1 0 0 1 269.6001 408.1201)" class="st0 st2 st3">P</text>
<rect x="354" y="393" class="st1" width="24" height="21"/>
<text transform="matrix(1 0 0 1 357.4302 408.1201)" class="st0 st2 st3">Q</text>
<rect x="444" y="393" class="st1" width="24" height="21"/>
<text transform="matrix(1 0 0 1 449.3701 408.1201)" class="st0 st2 st3">R</text>
<rect x="534" y="393" class="st1" width="24" height="21"/>
<text transform="matrix(1 0 0 1 540.0903 408.1201)" class="st0 st2 st3">S</text>
<rect x="624" y="393" class="st1" width="24" height="21"/>
<text transform="matrix(1 0 0 1 630.1899 408.1201)" class="st0 st2 st3">T</text>
<rect x="714" y="393" class="st1" width="24" height="21"/>
<text transform="matrix(1 0 0 1 718.6201 408.1201)" class="st0 st2 st3">U</text>
<rect x="804" y="393" class="st1" width="24" height="21"/>
<text transform="matrix(1 0 0 1 809.1802 408.1201)" class="st0 st2 st3">V</text>
<rect x="894" y="393" class="st1" width="24" height="21"/>
<text transform="matrix(1 0 0 1 895.75 408.1201)" class="st0 st2 st3">W</text>
<rect x="984" y="393" class="st1" width="24" height="21"/>
<text transform="matrix(1 0 0 1 988.9702 408.1201)" class="st0 st2 st3">X</text>
<rect x="1074" y="393" class="st1" width="24" height="21"/>
<text transform="matrix(1 0 0 1 1079.3101 408.1201)" class="st0 st2 st3">Y</text>
</svg>
