<?xml version="1.0" encoding="utf-8"?>
<!-- Generator: Adobe Illustrator 23.1.1, SVG Export Plug-In . SVG Version: 6.00 Build 0)  -->
<svg version="1.1" id="Calque_1" xmlns="http://www.w3.org/2000/svg" xmlns:xlink="http://www.w3.org/1999/xlink" x="0px" y="0px"
	 viewBox="0 0 681.07 675.49" style="enable-background:new 0 0 681.07 675.49;" xml:space="preserve">
<style type="text/css">
	.st0{fill:#ED1C24;}
	.st1{fill:#FFFFFF;}
	.st2{fill:#E6E7E8;}
	.st3{fill:#808080;}
	.st4{fill:#FFDE17;}
	.st5{fill:#A73D78;}
	.st6{fill:#FED241;}
	.st7{fill:#87CDF2;}
</style>
<g>
	<path class="st0" d="M149.85,413.04c-10.42,5.57-23.66,11.16-38.98,14.47c-16,3.46-26.82,2.79-33.9-1.15l-1.18-0.71l-13.35-7.95
		c0.88,0.49,1.81,0.93,2.8,1.3c1.57,0.62,3.28,1.09,5.16,1.43c6.54,1.24,15.05,0.79,25.96-1.57c11.07-2.39,21.05-5.98,29.68-9.89
		c7.7-3.48,14.29-7.21,19.62-10.59c0.68,7.46,2.02,11.53,4.17,14.62c0.01,0.01,0.01,0.01,0.01,0.02
		C149.83,413.02,149.84,413.03,149.85,413.04z"/>
	<path class="st0" d="M434.92,414.42l-0.52-0.34c0.07,0.04,0.15,0.08,0.26,0.12C434.74,414.27,434.83,414.35,434.92,414.42z"/>
	<path class="st0" d="M522.19,414.69c-9.49,4.35-22.97,9.41-35.33,12.07c-17.36,3.77-28.63,2.97-35.59-1.57l-12.6-8.3
		c0.63,0.32,1.3,0.61,2,0.87c1.59,0.63,3.37,1.1,5.32,1.43c6.58,1.13,15.21,0.59,26.36-1.81c11.11-2.41,20.98-5.85,29.43-9.56
		c0.06-0.03,0.12-0.05,0.18-0.08c5.52-2.43,10.44-4.96,14.66-7.4c0.38,3.39,1.13,6.46,2.3,9.15c0.26,0.58,0.51,1.13,0.81,1.66
		c0.24,0.46,0.51,0.9,0.81,1.33c0.33,0.53,0.7,1.05,1.09,1.53C521.81,414.24,522,414.47,522.19,414.69z"/>
	<path class="st0" d="M326.94,403.52c-3.97,2.55-8.69,5.6-12.29,7.68c-10.35,5.99-22.47,10.98-34.2,14.9
		c-9.93,3.33-23.38,5.98-33.02,0.32l-14.59-8.67c1.03,0.59,2.09,1.1,3.18,1.53c1.81,0.71,3.73,1.18,5.69,1.46h0.02
		c1.48,0.21,2.98,0.32,4.52,0.34c0.02,0,0.02,0,0.04,0c0.58,0.02,1.17,0,1.75-0.03c0.02,0,0.02,0,0.04,0
		c6.21-0.21,12.56-1.79,17.88-3.58c1.88-0.64,3.78-1.29,5.68-2c0.38-0.12,0.73-0.26,1.1-0.4h0.02c6.89-2.51,13.78-5.41,20.22-8.65
		c2.47-1.23,4.86-2.53,7.17-3.86c0.07-0.04,0.14-0.08,0.21-0.12c0.07-0.04,0.14-0.09,0.21-0.13c0.07-0.04,0.14-0.08,0.21-0.12
		c4.49-2.64,10.5-6.46,14.61-9.23c0.01-0.01,0.03-0.02,0.05-0.04c0.01,0,0.01-0.01,0.02-0.01c1.73-1.18,7.64-5.72,8.14-6.12
		c0,0,0.01-0.01,0.01-0.01c0,0,0,0,0-0.01h0.01h0.01c0,0.01,0,0.01,0,0.01c0,0.02,0.01,0.03,0.01,0.04
		c0.01,0.04,0.01,0.08,0.02,0.12l0.02,0.13C324.27,390.36,326.99,403.48,326.94,403.52z"/>
	<path class="st0" d="M390.01,387.19c-3.75,3.13-7.31,4.41-9.34,4.32c-6.02-0.29-10.57-51.93-12.4-76.86
		c-0.6-7.95-0.92-13.18-0.92-13.18l14.52,8.68C381.97,311.59,385.08,362.61,390.01,387.19z"/>
	<path class="st0" d="M333.78,420.74l0.25,0.15l-0.26-0.15C333.77,420.74,333.78,420.74,333.78,420.74z"/>
	<path class="st0" d="M445.13,315.72v1.13c-0.01,0.03-0.02,0.07-0.03,0.1c-5.24,17.13-14.39,47.49-16.48,56.29
		c-0.07,0.37-0.15,0.73-0.23,1.1c-0.07,0.37-0.15,0.74-0.21,1.11c-0.02,0.09-0.03,0.18-0.05,0.27c-0.03,0.15-0.05,0.31-0.09,0.46
		c-0.07,0.43-0.15,0.87-0.22,1.29c-0.01,0.04-0.01,0.08-0.02,0.12c-0.08,0.13-0.16,0.26-0.24,0.39
		c-5.25,8.31-13.67,19.34-27.18,29.19c-37.23,27.14-48.51,24.23-52,22.28l-0.33-0.2l-14.02-8.37c0.4,0.21,1.62,0.6,1.62,0.6
		c1.7,0.45,4.32,0.64,8.14-0.13c0.05-0.01,0.1-0.02,0.16-0.03c0.11-0.02,0.22-0.05,0.33-0.07c0.13-0.02,0.26-0.05,0.38-0.08
		c0.13-0.03,0.26-0.06,0.4-0.09c0.2-0.05,0.41-0.1,0.62-0.15c6.5-1.58,16-5.22,29.71-14.2c0.1-0.06,0.19-0.12,0.29-0.18
		c3.96-2.56,8.23-5.53,12.8-8.96c1.56-1.16,3.05-2.37,4.5-3.6c19.57-16.63,29.4-38.83,34.44-63.39c0.16-0.79,0.32-1.59,0.48-2.39
		c0.18-0.93,0.35-1.87,0.51-2.81c1.9-11.03,2.28-20.76,1.84-27.6c0-0.01,0-0.01,0-0.01c-0.1-1.52-0.23-2.89-0.4-4.11
		c-0.02-0.15-0.04-0.31-0.07-0.46c-0.07-0.48-0.15-0.93-0.23-1.34c-0.01-0.06-0.02-0.12-0.03-0.18c-0.01-0.04-0.02-0.07-0.02-0.12
		c-0.07-0.32-0.18-0.85-0.29-1.22c-0.02-0.04-0.02-0.08-0.04-0.11c-0.01-0.01-0.01-0.02-0.01-0.02c-0.01-0.02-0.01-0.02-0.01-0.04
		c-0.01-0.02-0.01-0.03-0.02-0.04c0.05,0.03,3.66,2.2,7.26,4.37c3.6,2.17,7.21,4.32,7.28,4.32c0,0.09,0.78,3.75,0.98,6.13v0.02
		C444.78,307.43,445.12,313.14,445.13,315.72z"/>
	<path class="st0" d="M615.21,277.04c0,9.5-7.04,17.61-17.02,20.92c-0.22,0.09-2.61,0.76-3.62,0.96c-2.03,0.41-4.17,0.63-6.34,0.63
		c-5.61,0-10.82-1.43-15.14-3.87l-14.52-8.63l0.02-0.02c1.04,0.59,2.1,1.13,3.24,1.6l0.05,0.02c1.37,0.55,2.8,1.01,4.28,1.37
		c2.39,0.58,4.92,0.88,7.53,0.88c2.8,0,5.5-0.35,8.04-1.01c0.84-0.23,1.66-0.47,2.47-0.76c3.22-1.14,6.12-2.79,8.57-4.82
		c4.88-4.07,7.9-9.71,7.9-15.92c0-2.61-0.53-5.12-1.52-7.44c-0.07-0.2-0.16-0.38-0.24-0.55c-0.2-0.46-0.42-0.88-0.66-1.31
		c-0.24-0.46-0.51-0.92-0.8-1.36c-0.07-0.11-0.15-0.21-0.22-0.32c-0.29-0.44-0.6-0.87-0.93-1.28c-0.18-0.24-0.37-0.47-0.57-0.7
		c-0.88-1.05-1.88-2.04-2.96-2.94l-0.02-0.01c-0.91-0.76-1.86-1.45-2.91-2.1l13.64,8.14C610.56,262.55,615.21,269.34,615.21,277.04z
		"/>
	<path class="st0" d="M181.71,236.81l-14.53-8.54l-6.87,15.8c-17.23,40.3-60.03,144.96-46.81,160.77c0.04,0.04,0.07,0.08,0.1,0.12
		c0.04,0.04,0.08,0.09,0.12,0.13c0.05,0.05,0.1,0.11,0.15,0.16c0.04,0.04,0.07,0.07,0.11,0.1c0.04,0.03,0.07,0.07,0.1,0.1
		c0.04,0.03,0.07,0.07,0.11,0.1c0.04,0.03,0.07,0.06,0.12,0.09l0.11,0.09c0.04,0.02,0.08,0.05,0.12,0.09
		c0.04,0.02,0.08,0.05,0.12,0.08c1.86,1.27,5.9,0.32,10.86-1.76C124.56,364.79,181.71,236.81,181.71,236.81z"/>
	<path class="st0" d="M240.28,309.58c-3.8,12.14-7.48,24.3-11.06,36.48c-1.07,3.63-2.14,7.26-3.19,10.9
		c-4.03,13.93-7.86,27.92-10.9,42.02c-0.22,1.01-0.38,2.03-0.48,3.05c-1.96,0.99-3.8,1.69-6.18,1.57c-3.62-0.18-6.23-1.48-7.48-4.32
		c-1.26-2.84-1.02-5.98-0.38-8.95c3.86-17.78,8.92-35.38,14.1-52.92l11.06-36.47L240.28,309.58z"/>
	<path class="st0" d="M318.25,309.58l-14.48-8.64c-0.02,0.03-8.96,29.28-11.08,36.47c-5.16,17.54-10.24,35.14-14.1,52.92
		c-0.05,0.27-0.11,0.54-0.16,0.81c-0.02,0.08-0.03,0.16-0.05,0.25c-0.04,0.24-0.08,0.48-0.12,0.71c-0.01,0.11-0.03,0.23-0.04,0.34
		c-0.02,0.11-0.03,0.22-0.04,0.33c-0.04,0.32-0.06,0.63-0.08,0.95c0,0.01,0,0.01-0.01,0.02c-0.05,0.9-0.03,1.81,0.09,2.7
		c0.01,0.1,0.03,0.2,0.04,0.29c0.04,0.24,0.09,0.48,0.14,0.72c0.01,0.05,0.02,0.09,0.04,0.14c0.02,0.1,0.05,0.2,0.07,0.29
		c0.02,0.1,0.05,0.19,0.09,0.29c0.12,0.37,0.25,0.75,0.42,1.12c0.29,0.65,0.66,1.23,1.08,1.72c0,0.01,0,0.01,0.01,0.01
		c0.01,0.01,0.02,0.02,0.04,0.04c1.42,1.64,3.6,2.42,6.35,2.55c0.16,0.01,0.33,0.01,0.49,0.01c0.23,0,0.45-0.01,0.66-0.02
		c1.59-0.1,2.97-0.57,4.36-1.23c0.05-0.02,0.1-0.05,0.15-0.07c0.01,0,0.01,0,0.01,0c0.17-0.09,0.34-0.16,0.51-0.25
		c0.13-1.04,9.39-38.43,14.57-55.97c2.85-9.69,5.76-19.34,8.74-28.99v-0.01c0.76-2.49,1.53-4.99,2.32-7.48H318.25z"/>
	<path class="st0" d="M557.82,236.92c0,0-3.77,8.44-9.36,21.66c0,0.01,0,0.01-0.01,0.03c0,0.01,0,0.01-0.02,0.03
		c-0.27,0.64-0.55,1.31-0.82,1.98v0.01c-0.84,2.03-1.74,4.13-2.67,6.34v0.02c0,0.01,0,0.01-0.02,0.03
		c-16.78,40.29-43.93,109.88-43.25,137.12c-0.43,0.18-0.85,0.35-1.26,0.51c-4.38,1.72-7.91,2.41-9.62,1.25
		c-16.61-11.35,27.95-120.44,45.65-161.82l6.84-15.8C543.29,228.27,557.82,236.92,557.82,236.92z"/>
	<path class="st0" d="M229.48,415.08c-8.58,4.3-17.91,7.98-27.02,11.03c-9.95,3.33-23.4,5.98-33.04,0.32l-0.07-0.04l-14.51-8.63
		v-0.02c1.03,0.61,2.09,1.12,3.18,1.54c1.81,0.71,3.73,1.18,5.71,1.46h0.02c8.06,1.18,17.04-0.89,24.21-3.28
		c9.12-3.05,18.46-6.74,27.04-11.04c2.47-1.23,4.86-2.51,7.17-3.86c0.49-0.29,1.03-0.59,1.55-0.92c0.55,3.8,1.59,7.2,3.24,10
		C227.65,412.92,228.51,414.08,229.48,415.08z"/>
	<path class="st0" d="M611.29,309.7c-3.82,12.14-7.44,24.18-11.02,36.36c-5.16,17.54-10.24,35.14-14.09,52.92
		c-0.22,1.01-0.38,2.03-0.48,3.05c-1.96,0.99-3.8,1.69-6.18,1.57c-3.62-0.18-6.21-1.48-7.48-4.32c-0.64-1.47-0.89-3.02-0.89-4.58
		c0-0.27,0.01-0.54,0.02-0.82c0.01-0.27,0.03-0.55,0.06-0.82c0.02-0.27,0.06-0.55,0.1-0.82c0.04-0.27,0.08-0.54,0.13-0.82
		c0.06-0.37,0.13-0.73,0.21-1.09c0.6-2.78,1.23-5.55,1.89-8.32c0.32-1.39,0.66-2.77,1-4.16c0.34-1.38,0.69-2.76,1.04-4.14
		c1.54-6.07,3.2-12.13,4.91-18.18c0.34-1.19,0.67-2.38,1.01-3.57c1.39-4.85,2.81-9.7,4.23-14.54l11.07-36.46h0.01L611.29,309.7z"/>
	<path class="st0" d="M634.64,392.65c-3.05,2.45-8.92,7.06-11.68,8.95c-4.28,2.94-10.71,6.97-15.25,9.61
		c-10.35,5.99-22.47,10.98-34.19,14.9c-9.91,3.31-23.29,5.96-32.92,0.4l-0.2-0.12l-14.12-8.44c0.93,0.54,1.92,0.99,2.93,1.37
		c1.77,0.69,3.64,1.14,5.55,1.42h0.02c8.08,1.18,17.06-0.87,24.23-3.28c9.1-3.05,18.44-6.73,27.02-11.04
		c2.47-1.23,4.88-2.51,7.18-3.86c2.17-1.26,4.72-2.95,7.24-4.69l0.01-0.01c2.75-1.89,5.47-3.85,7.66-5.43
		c2.31-1.65,9.17-6.43,11.42-8.01c0.09-0.05,0.16-0.11,0.23-0.16c0.2-0.14,0.35-0.25,0.43-0.31c0.03-0.02,0.05-0.03,0.06-0.04h0.01
		v-0.01L634.64,392.65z"/>
</g>
<path class="st1" d="M430.25,297.79c-0.1-1.52-0.23-2.89-0.4-4.11C430.08,295.22,430.19,296.46,430.25,297.79z"/>
<g>
	<path class="st4" d="M429.43,318.06c-0.28,2.45-0.63,4.91-1.04,7.34c-0.16,0.94-0.32,1.87-0.49,2.81c-0.15,0.8-0.31,1.59-0.48,2.39
		c-5.04,24.56-14.87,46.76-34.44,63.39c-1.45,1.23-2.94,2.44-4.5,3.6c-4.57,3.43-8.84,6.4-12.8,8.96c-0.1,0.06-0.19,0.12-0.29,0.18
		c-13.85,8.92-23.94,12.85-30.32,14.35c-0.27,0.06-0.52,0.12-0.78,0.17c-0.11,0.02-0.22,0.05-0.33,0.07
		c-0.05,0.01-0.11,0.02-0.16,0.03c-3.83,0.77-6.44,0.58-8.14,0.13c0,0-1.22-0.38-1.62-0.6l-0.25-0.15l-0.12-0.07
		c-2.67-1.64-5.1-10.24-6.73-17.14c0.05-0.05-2.67-13.17-3.28-16.46l-0.02-0.13c-0.01-0.04-0.02-0.08-0.02-0.12
		c0-0.01-0.01-0.02-0.01-0.04c0,0,0,0,0-0.01h-0.01h-0.01c0,0.01,0,0.01,0,0.01c-0.01,0-0.01,0.01-0.01,0.01
		c-0.51,0.4-6.41,4.94-8.14,6.12c-0.01,0.01-0.01,0.01-0.02,0.01c-0.02,0.01-0.04,0.02-0.05,0.04c-4.11,2.77-10.13,6.6-14.61,9.23
		c-0.07,0.04-0.14,0.09-0.21,0.12c-0.07,0.04-0.15,0.09-0.21,0.13c-0.07,0.04-0.15,0.08-0.21,0.12c-2.31,1.33-4.7,2.62-7.17,3.86
		c-6.44,3.23-13.33,6.13-20.22,8.65h-0.02c-0.37,0.13-0.71,0.27-1.1,0.4c-1.9,0.7-3.8,1.36-5.68,2c-5.32,1.79-11.67,3.37-17.88,3.58
		c-0.02,0-0.02,0-0.04,0c-0.59,0.03-1.17,0.05-1.75,0.03c-0.02,0-0.02,0-0.04,0c-1.54-0.01-3.04-0.12-4.52-0.34h-0.02
		c-1.96-0.27-3.88-0.74-5.69-1.46c-1.09-0.43-2.15-0.93-3.18-1.53c0-0.02-0.02-0.02-0.02-0.02c-1.25-0.74-2.36-1.63-3.34-2.66
		c-0.97-1-1.83-2.16-2.54-3.43c-1.65-2.81-2.69-6.21-3.24-10c-0.52,0.32-1.06,0.63-1.55,0.92c-2.31,1.34-4.7,2.62-7.17,3.86
		c-8.58,4.3-17.92,8-27.04,11.04c-7.17,2.39-16.14,4.46-24.21,3.28h-0.02c-1.98-0.27-3.89-0.74-5.71-1.46
		c-1.09-0.43-2.15-0.93-3.18-1.54c-2.03-1.2-3.66-2.8-4.99-4.69c-0.01-0.01-0.01-0.02-0.02-0.02c-0.01-0.01-0.01-0.01-0.01-0.02
		c-2.15-3.09-3.49-7.16-4.17-14.62c-5.32,3.38-11.92,7.11-19.62,10.59c-8.63,3.92-18.61,7.5-29.68,9.89
		c-10.91,2.36-19.42,2.81-25.96,1.57c-1.88-0.34-3.58-0.81-5.16-1.43c-0.98-0.37-1.92-0.81-2.8-1.3l-0.04-0.01
		c-9.52-5.32-12.25-16.6-11.66-31.69c1.21-31.93,40.95-132.47,40.95-132.47l75.48-25.27l-6.87,15.8
		c-17.23,40.3-60.03,144.96-46.81,160.77c0.04,0.04,0.07,0.08,0.1,0.12c0.04,0.04,0.08,0.09,0.12,0.13c0.05,0.05,0.1,0.11,0.15,0.16
		c0.04,0.04,0.07,0.07,0.11,0.1c0.04,0.03,0.07,0.07,0.1,0.1c0.04,0.03,0.07,0.07,0.11,0.1c0.04,0.03,0.07,0.06,0.12,0.09l0.11,0.09
		c0.04,0.02,0.08,0.05,0.12,0.09c0.04,0.02,0.08,0.05,0.12,0.08c1.86,1.27,5.9,0.32,10.86-1.76c6.03-2.53,17.35-9.1,19.87-10.72
		c-0.05-1.65-0.07-3.05-0.04-3.94c1.81-29.22,19.58-68.62,19.58-68.62l60.84-19.92l-11.06,36.47c-5.18,17.54-10.24,35.14-14.1,52.92
		c-0.63,2.98-0.87,6.12,0.38,8.95c1.25,2.84,3.86,4.13,7.48,4.32c2.38,0.12,4.22-0.58,6.18-1.57c0.31-0.15,0.64-0.34,0.97-0.51
		c2.63-1.4,5.17-2.92,7.64-4.51c-0.57-11.63,2.39-25.97,6.18-39.06c5.78-20.01,13.49-37.1,13.49-37.1l60.85-19.92
		c-0.02,0.03-8.96,29.28-11.08,36.47c-5.16,17.54-10.24,35.14-14.1,52.92c-0.05,0.27-0.11,0.54-0.16,0.81
		c-0.02,0.08-0.03,0.16-0.05,0.25c-0.04,0.24-0.08,0.48-0.12,0.71c-0.01,0.11-0.03,0.23-0.04,0.34c-0.02,0.11-0.03,0.22-0.04,0.33
		c-0.04,0.32-0.06,0.63-0.08,0.95c0,0.01,0,0.01-0.01,0.02c-0.05,0.9-0.03,1.81,0.09,2.7c0.01,0.1,0.03,0.2,0.04,0.29
		c0.04,0.24,0.09,0.48,0.14,0.72c0.01,0.05,0.02,0.09,0.04,0.14c0.02,0.1,0.05,0.2,0.07,0.29c0.02,0.1,0.05,0.19,0.09,0.29
		c0.12,0.37,0.25,0.75,0.42,1.12c0.29,0.65,0.66,1.23,1.08,1.72c0,0.01,0,0.01,0.01,0.01c0.01,0.01,0.02,0.02,0.04,0.04
		c1.42,1.64,3.6,2.42,6.35,2.55c0.16,0.01,0.33,0.01,0.49,0.01c0.22,0.01,0.44-0.01,0.66-0.02c1.59-0.09,2.97-0.57,4.36-1.23
		c0.05-0.02,0.1-0.05,0.15-0.07c0.01,0,0.01,0,0.01,0c0.17-0.09,0.34-0.16,0.51-0.25c0.31-0.15,0.63-0.34,0.96-0.51
		c5.21-2.79,10.11-5.91,14.91-9.16c4.79-3.25,9.48-6.63,14.29-9.94c-2.64-15.77-5.67-40.55-4.06-64.75l48.61-16.2
		c0,0,0.31,5.23,0.92,13.18c1.83,24.93,6.38,76.57,12.4,76.86c2.03,0.09,5.58-1.19,9.34-4.32c31.07-25.87,35.81-59.26,39.12-97.05
		c0.01,0.01,0.01,0.02,0.02,0.04c0,0.01,0.01,0.02,0.01,0.04c0,0.01,0,0.01,0.01,0.02c0.01,0.03,0.02,0.07,0.04,0.11
		c0.11,0.37,0.22,0.9,0.29,1.22c0.03,0.18,0.05,0.31,0.05,0.31c0.09,0.48,0.16,0.92,0.23,1.34c0.02,0.16,0.05,0.31,0.07,0.46
		c0.17,1.21,0.31,2.59,0.4,4.11c0,0.01,0,0.01,0,0.01c0.04,1,0.06,2.05,0.09,3.31C430.44,306.77,430.07,312.44,429.43,318.06z"/>
	<path class="st4" d="M600.67,268.39c0,6.21-3.02,11.85-7.9,15.92c-2.45,2.03-5.36,3.68-8.57,4.82c-0.8,0.29-1.63,0.53-2.47,0.76
		c-2.54,0.66-5.25,1.01-8.04,1.01c-2.61,0-5.14-0.31-7.53-0.88c-1.48-0.37-2.91-0.82-4.28-1.37l-0.05-0.02
		c-1.13-0.47-2.19-1.01-3.24-1.6h-0.02c-7.15-4.04-11.85-10.89-11.85-18.64c0-1.05,0.09-2.07,0.26-3.1
		c0.02-0.01,0.02-0.01,0.02-0.03v-0.03c0.26-1.52,0.69-3,1.28-4.41c0.6-1.37,1.33-2.68,2.21-3.92c0.02-0.01,0.02-0.01,0.02-0.03
		c0.02-0.02,0.02-0.02,0.02-0.03c4.72-6.56,13.33-10.95,23.16-10.95c5.67,0,10.93,1.45,15.27,3.95l0.9,0.52
		c1.04,0.66,1.99,1.34,2.91,2.1l0.02,0.01c1.08,0.9,2.08,1.89,2.96,2.94c0.2,0.23,0.38,0.46,0.57,0.7c0.33,0.41,0.64,0.84,0.93,1.28
		c0.07,0.11,0.15,0.21,0.22,0.32c0.29,0.44,0.57,0.9,0.8,1.36c0.24,0.43,0.46,0.85,0.66,1.31c0.07,0.17,0.16,0.35,0.24,0.55
		C600.14,263.27,600.67,265.78,600.67,268.39z"/>
	<path class="st4" d="M620.27,383.92L620.27,383.92L620.27,383.92c-0.02,0.02-0.04,0.03-0.07,0.05c-0.08,0.05-0.23,0.16-0.43,0.31
		c-0.07,0.05-0.14,0.1-0.23,0.16c-2.25,1.58-9.11,6.36-11.42,8.01c-2.19,1.57-4.91,3.53-7.66,5.43l-0.01,0.01
		c-2.64,1.78-5.16,3.42-7.24,4.69c-2.3,1.34-4.72,2.62-7.18,3.86c-8.58,4.32-17.92,8-27.02,11.04c-7.17,2.41-16.14,4.46-24.23,3.28
		h-0.02c-1.92-0.27-3.78-0.73-5.55-1.42c-1.01-0.38-2-0.84-2.93-1.37l-0.2-0.12c-0.05-0.01-0.13-0.06-0.18-0.09
		c-1.4-0.84-2.64-1.86-3.7-3.05c-0.2-0.22-0.38-0.45-0.57-0.67c-0.4-0.48-0.76-0.99-1.09-1.53c-0.29-0.43-0.57-0.87-0.81-1.33
		c-0.29-0.53-0.55-1.08-0.81-1.66c-1.17-2.69-1.92-5.76-2.3-9.15c-4.22,2.44-9.14,4.97-14.66,7.4c-0.06,0.02-0.12,0.05-0.18,0.08
		c-8.44,3.7-18.32,7.15-29.43,9.56c-11.15,2.4-19.78,2.94-26.36,1.81c-1.95-0.34-3.73-0.81-5.32-1.43c-0.7-0.26-1.36-0.55-2-0.87
		l-3.75-2.47c-0.09-0.07-0.18-0.15-0.26-0.23c-6.41-5.63-8.29-15.35-7.79-28.19c0.02-0.57,0.05-1.15,0.11-1.74
		c0.13-1.69,0.41-4.07,0.82-6.61h0.01c0-0.02,0-0.03,0.01-0.05c0.01-0.04,0.01-0.08,0.02-0.12c0.07-0.43,0.15-0.86,0.22-1.29
		c0.03-0.15,0.05-0.31,0.09-0.46c0.02-0.09,0.03-0.18,0.05-0.27c0.07-0.37,0.14-0.74,0.21-1.11c0.07-0.37,0.15-0.73,0.23-1.1
		c2.09-8.8,11.24-39.15,16.48-56.29c0.01-0.04,0.02-0.07,0.03-0.1c2.05-6.71,3.5-11.38,3.67-11.87v-0.02
		c9.73-27.91,19.03-51.42,19.03-51.42l75.43-25.25l-6.84,15.8c-17.7,41.38-62.27,150.47-45.65,161.82c1.71,1.16,5.24,0.47,9.62-1.25
		c0.42-0.16,0.84-0.33,1.26-0.51c3.29-1.37,13.34-6.82,14.66-7.6c-0.04-0.81-0.05-1.62-0.05-2.45
		c-0.02-29.48,19.73-73.23,19.73-73.23l60.32-19.73l0.27-0.09l0.23-0.08l-11.07,36.46c-1.42,4.85-2.84,9.69-4.23,14.54
		c-0.34,1.19-0.68,2.38-1.01,3.57c-1.71,6.05-3.36,12.11-4.91,18.18c-0.35,1.38-0.7,2.76-1.04,4.14c-0.34,1.39-0.68,2.77-1,4.16
		c-0.66,2.77-1.29,5.54-1.89,8.32c-0.08,0.36-0.15,0.72-0.21,1.09c-0.05,0.27-0.09,0.54-0.13,0.82c-0.04,0.27-0.07,0.55-0.1,0.82
		c-0.03,0.27-0.05,0.55-0.06,0.82c-0.02,0.27-0.02,0.55-0.02,0.82c0,1.56,0.24,3.11,0.89,4.58c1.26,2.84,3.86,4.13,7.48,4.32
		c2.38,0.12,4.22-0.58,6.18-1.57c0.31-0.15,0.64-0.34,0.97-0.51c10.93-5.85,20.47-12.84,30.64-20.02L620.27,383.92z"/>
</g>
</svg>
