<svg id="Calque_1" data-name="Calque 1" xmlns="http://www.w3.org/2000/svg" viewBox="0 0 1125 2436"><defs><style>.cls-1{fill:#ffae00;stroke:#fff;stroke-width:0.25px;}.cls-1,.cls-4{stroke-miterlimit:10;}.cls-2{font-size:51.6px;font-family:Early-GameBoy, Early GameBoy;}.cls-2,.cls-3{fill:#e02229;}.cls-4,.cls-6{fill:none;}.cls-4{stroke:#e02229;stroke-width:8.57px;}.cls-5{fill:#6a5c46;}.cls-7{fill:#fff;}.cls-8{fill:#00b2ae;}.cls-9{fill:#ffcc97;}.cls-10{fill:#2db17e;}.cls-11{fill:#ffb777;}.cls-12{fill:#303030;}.cls-13{fill:#f1f1f1;}.cls-14{fill:#4c4c4c;}</style></defs><title>Plan de travail 5</title><rect class="cls-1" x="0.45" y="0.32" width="1124.36" height="2435.01"/><text class="cls-2" transform="translate(238.45 492.26)">INSTRUCTIONS</text><path class="cls-3" d="M119,1631.53v-28.6H107.54v-5.72h34.32v5.72H130.42v28.6Z"/><path class="cls-3" d="M153.3,1625.81v-28.6H159v28.6Zm5.73,5.72v-5.72h11.44v-5.72h5.72v-22.88h11.44v28.6h-5.72v5.72Z"/><path class="cls-3" d="M222,1631.53v-34.32h28.6v5.72h5.72v22.88h-5.72v5.72Zm17.16-5.72v-22.88H227.68v22.88Z"/><path class="cls-3" d="M273.44,1631.53v-5.72h5.72v-22.88h-5.72v-5.72h22.89v5.72h-5.72v22.88h5.72v5.72Z"/><path class="cls-3" d="M319.21,1631.53v-5.72h11.44v-11.44H319.21v-5.72h-5.72v-5.72h5.72v-5.72h22.88v5.72H324.93v5.72h17.16v5.72h5.72v11.44h-5.72v5.72Zm-5.72-5.72v-5.72h5.72v5.72Z"/><path class="cls-3" d="M359.26,1631.53v-34.32h28.6v5.72h5.72v11.44h-5.72v5.72H370.7v11.44Zm22.88-17.16v-11.44H370.7v11.44Z"/><path class="cls-3" d="M410.74,1631.53v-5.72H405v-22.88h5.72v-5.72h22.89v5.72h5.72v22.88h-5.72v5.72Zm17.17-5.72v-22.88H416.47v22.88Z"/><path class="cls-3" d="M456.51,1631.53v-5.72H468v-11.44H456.51v-5.72h-5.72v-5.72h5.72v-5.72H479.4v5.72H462.23v5.72H479.4v5.72h5.72v11.44H479.4v5.72Zm-5.72-5.72v-5.72h5.72v5.72Z"/><path class="cls-3" d="M496.56,1631.53v-34.32h34.32v5.72H508v5.72h17.16v5.72H508v11.44h22.88v5.72Z"/><path class="cls-3" d="M548.05,1631.53v-5.72h11.44v-11.44H548.05v-5.72h-5.73v-5.72h5.73v-5.72h22.88v5.72H553.77v5.72h17.16v5.72h5.72v11.44h-5.72v5.72Zm-5.73-5.72v-5.72h5.73v5.72Z"/><path class="cls-3" d="M611,1631.53v-34.32h28.6v5.72h5.72v22.88h-5.72v5.72Zm17.16-5.72v-22.88H616.7v22.88Z"/><path class="cls-3" d="M656.74,1631.53v-34.32h34.33v5.72H668.18v5.72h17.17v5.72H668.18v11.44h22.89v5.72Z"/><path class="cls-3" d="M725.39,1631.53v-5.72h17.17v-11.44H731.11v-5.72h11.45v-5.72H725.39v-5.72H754v5.72h5.72v5.72H754v5.72h5.72v11.44H754v5.72Z"/><path class="cls-3" d="M794,1620.09v-22.88h5.72v22.88Zm5.72,5.72v-5.72h5.72v5.72Zm5.72,5.72v-5.72h5.73v-5.72h5.72v-22.88h11.44v22.88h-5.72v5.72h-5.72v5.72Z"/><path class="cls-3" d="M845.53,1631.53v-5.72h5.72v-22.88h-5.72v-5.72h22.88v5.72h-5.72v22.88h5.72v5.72Z"/><path class="cls-3" d="M885.58,1631.53v-34.32H919.9v5.72H897v5.72h17.16v5.72H897v11.44H919.9v5.72Z"/><path class="cls-3" d="M937.06,1631.53v-5.72h11.45v-11.44H937.06v-5.72h-5.72v-5.72h5.72v-5.72H960v5.72H942.79v5.72H960v5.72h5.72v11.44H960v5.72Zm-5.72-5.72v-5.72h5.72v5.72Z"/><path class="cls-3" d="M107.54,1686.45v-34.32h28.6v5.72h5.72v11.44h-5.72V1675H119v11.44Zm22.88-17.16v-11.44H119v11.44Z"/><path class="cls-3" d="M153.3,1686.45v-28.6H159v11.44h11.44v-11.44H159v-5.72h22.88v5.72h5.72v28.6H170.47V1675H159v11.44Z"/><path class="cls-3" d="M199.07,1686.45v-34.32h28.61v5.72h5.72v11.44h-5.72V1675H222v5.72h-5.73V1675h-5.72v11.44ZM222,1669.29v-11.44H210.51v11.44Zm0,17.16v-5.72H233.4v5.72Z"/><path class="cls-3" d="M267.72,1686.45v-34.32h5.72v5.72h5.72v5.72h5.72v5.72h5.73v-17.16h11.44v34.32H290.61v-5.72h-5.73V1675h-5.72v-5.72h-5.72v17.16Z"/><path class="cls-3" d="M319.21,1686.45v-5.72h5.72v-22.88h-5.72v-5.72h22.88v5.72h-5.72v22.88h5.72v5.72Z"/><path class="cls-3" d="M359.26,1675v-22.88H365V1675Zm5.72,5.72V1675h5.72v5.72Zm5.72,5.72v-5.72h5.72V1675h5.72v-22.88h11.44V1675h-5.72v5.72h-5.72v5.72Z"/><path class="cls-3" d="M405,1686.45v-34.32h34.33v5.72H416.47v5.72h17.16v5.72H416.47v11.44h22.88v5.72Z"/><path class="cls-3" d="M450.79,1686.45v-28.6h5.72v11.44H468v-11.44H456.51v-5.72H479.4v5.72h5.72v28.6H468V1675H456.51v11.44Z"/><path class="cls-3" d="M496.56,1680.73v-28.6h5.72v28.6Zm5.72,5.72v-5.72h11.44V1675h5.72v-22.88h11.44v28.6h-5.72v5.72Z"/><path class="cls-3" d="M542.32,1686.45V1675h11.45v11.44Z"/><path class="cls-3" d="M616.7,1686.45v-5.72h11.44v-11.44H616.7v-5.72H611v-5.72h5.72v-5.72h22.88v5.72H622.42v5.72h17.16v5.72h5.72v11.44h-5.72v5.72Zm-5.72-5.72V1675h5.72v5.72Z"/><path class="cls-3" d="M662.46,1686.45v-5.72h5.72v-22.88h-5.72v-5.72h22.89v5.72h-5.72v22.88h5.72v5.72Z"/><path class="cls-3" d="M736.83,1686.45v-28.6H725.39v-5.72h34.33v5.72H748.28v28.6Z"/><path class="cls-3" d="M771.16,1680.73v-28.6h5.72v28.6Zm5.72,5.72v-5.72h11.44V1675H794v-22.88h11.44v28.6h-5.72v5.72Z"/><path class="cls-3" d="M107.54,1741.38v-34.33h28.6v5.72h5.72v11.44h-5.72v5.72h-5.72v5.72H124.7v-5.72H119v11.45Zm22.88-17.17v-11.44H119v11.44Zm0,17.17v-5.73h11.44v5.73Z"/><path class="cls-3" d="M153.3,1741.38v-28.61H159v11.44h11.44v-11.44H159v-5.72h22.88v5.72h5.72v28.61H170.47v-11.45H159v11.45Z"/><path class="cls-3" d="M210.51,1741.38v-28.61H199.07v-5.72H233.4v5.72H222v28.61Z"/><path class="cls-3" d="M244.84,1741.38v-34.33h34.32v5.72H256.28v5.72h17.16v5.72H256.28v11.44h22.88v5.73Z"/><path class="cls-3" d="M296.33,1741.38v-5.73h11.44v-11.44H296.33v-5.72h-5.72v-5.72h5.72v-5.72h22.88v5.72H302.05v5.72h17.16v5.72h5.72v11.44h-5.72v5.73Zm-5.72-5.73v-5.72h5.72v5.72Z"/><path class="cls-3" d="M370.7,1741.38v-28.61H359.26v-5.72h34.32v5.72H382.14v28.61Z"/><path class="cls-3" d="M405,1741.38v-34.33h28.61v5.72h5.72v11.44h-5.72v5.72h-5.72v5.72h-5.72v-5.72h-5.72v11.45Zm22.89-17.17v-11.44H416.47v11.44Zm0,17.17v-5.73h11.44v5.73Z"/><path class="cls-3" d="M456.51,1741.38v-5.73h-5.72v-22.88h5.72v-5.72H479.4v5.72h5.72v22.88H479.4v5.73Zm17.16-5.73v-22.88H462.23v22.88Z"/><path class="cls-3" d="M502.28,1741.38v-5.73H508v-22.88h-5.72v-5.72h22.88v5.72h-5.72v22.88h5.72v5.73Z"/><path class="cls-3" d="M548.05,1741.38v-5.73h11.44v-11.44H548.05v-5.72h-5.73v-5.72h5.73v-5.72h22.88v5.72H553.77v5.72h17.16v5.72h5.72v11.44h-5.72v5.73Zm-5.73-5.73v-5.72h5.73v5.72Z"/><path class="cls-3" d="M611,1741.38v-34.33H645.3v5.72H622.42v11.44h17.16v5.72H622.42v11.45Z"/><path class="cls-3" d="M662.46,1741.38v-5.73h-5.72v-22.88h5.72v-5.72h22.89v5.72h5.72v22.88h-5.72v5.73Zm17.17-5.73v-22.88H668.18v22.88Z"/><path class="cls-3" d="M708.23,1741.38v-5.73H714v-22.88h-5.72v-5.72h22.88v5.72h-5.72v22.88h5.72v5.73Z"/><path class="cls-3" d="M754,1741.38v-5.73h11.44v-11.44H754v-5.72h-5.72v-5.72H754v-5.72h22.88v5.72H759.72v5.72h17.16v5.72h5.72v11.44h-5.72v5.73Zm-5.72-5.73v-5.72H754v5.72Z"/><path class="cls-3" d="M828.37,1741.38v-28.61H816.93v-5.72h34.32v5.72H839.81v28.61Z"/><path class="cls-3" d="M868.41,1741.38v-5.73h-5.72v-22.88h5.72v-5.72H891.3v5.72H897v22.88H891.3v5.73Zm17.17-5.73v-22.88H874.14v22.88Z"/><path class="cls-3" d="M908.46,1741.38v-34.33h5.72v5.72h5.72v5.72h5.72v5.72h5.72v-17.16h11.45v34.33H931.34v-5.73h-5.72v-5.72H919.9v-5.72h-5.72v17.17Z"/><path class="cls-3" d="M119,1796.3v-28.61H107.54V1762h34.32v5.72H130.42v28.61Z"/><path class="cls-3" d="M159,1796.3v-5.73h5.72v-22.88H159V1762h22.88v5.72h-5.72v22.88h5.72v5.73Z"/><path class="cls-3" d="M199.07,1796.3V1762h28.61v5.72h5.72v11.44h-5.72v5.72H222v5.72h-5.73v-5.72h-5.72v11.45ZM222,1779.13v-11.44H210.51v11.44Zm0,17.17v-5.73H233.4v5.73Z"/><path class="cls-3" d="M256.28,1796.3v-5.73h-5.72v-11.44H262v17.17Zm-5.72,5.72v-5.72h5.72V1802Z"/><path class="cls-3" d="M313.49,1796.3V1762h11.44v28.6h22.88v5.73Z"/><path class="cls-3" d="M359.26,1796.3v-28.61H365v11.44h11.44v-11.44H365V1762h22.88v5.72h5.72v28.61H376.42v-11.45H365v11.45Z"/><path class="cls-3" d="M427.91,1796.3V1762h28.6v5.72h5.72v11.44h-5.72v5.72H439.35v11.45Zm22.88-17.17v-11.44H439.35v11.44Z"/><path class="cls-3" d="M473.67,1796.3v-28.61h5.72v11.44h11.45v-11.44H479.39V1762h22.89v5.72H508v28.61H490.84v-11.45H479.39v11.45Z"/><path class="cls-3" d="M519.44,1796.3V1762h28.61v5.72h5.72v11.44h-5.72v5.72h-5.73v5.72H536.6v-5.72h-5.72v11.45Zm22.88-17.17v-11.44H530.88v11.44Zm0,17.17v-5.73h11.45v5.73Z"/><path class="cls-3" d="M576.65,1796.3v-28.61H565.21V1762h34.32v5.72H588.09v28.61Z"/><path class="cls-3" d="M616.7,1796.3v-5.73h5.72v-22.88H616.7V1762h22.88v5.72h-5.72v22.88h5.72v5.73Z"/><path class="cls-3" d="M656.74,1796.3V1762h34.33v5.72H668.18v5.72h17.17v5.72H668.18v11.44h22.89v5.73Z"/><path class="cls-3" d="M725.39,1796.3V1762h34.33v5.72H736.83v5.72H754v5.72H736.83v11.44h22.89v5.73Z"/><path class="cls-3" d="M776.88,1796.3v-5.73h11.44v-11.44H776.88v-5.72h-5.72v-5.72h5.72V1762h22.88v5.72H782.6v5.72h17.16v5.72h5.72v11.44h-5.72v5.73Zm-5.72-5.73v-5.72h5.72v5.72Z"/><path class="cls-3" d="M828.37,1796.3v-28.61H816.93V1762h34.32v5.72H839.81v28.61Z"/><path class="cls-3" d="M107.54,1851.22v-34.33h34.32v5.72H119v11.44h17.16v5.72H119v11.45Z"/><path class="cls-3" d="M159,1851.22v-5.72h5.72v-22.89H159v-5.72h22.88v5.72h-5.72v22.89h5.72v5.72Z"/><path class="cls-3" d="M199.07,1851.22v-34.33h5.72v5.72h5.72v5.72h5.72v5.72H222v-17.16H233.4v34.33H222v-5.72h-5.73v-5.73h-5.72v-5.72h-5.72v17.17Z"/><path class="cls-3" d="M250.56,1851.22v-5.72h5.72v-22.89h-5.72v-5.72h22.88v5.72h-5.72v22.89h5.72v5.72Z"/><path class="cls-3" d="M290.61,1851.22v-34.33h34.32v5.72H302.05v5.72h17.16v5.72H302.05v11.45h22.88v5.72Z"/><path class="cls-3" d="M336.37,1851.22v-11.45h11.44v11.45Z"/><path class="cls-3" d="M405,1851.22v-28.61h5.72v11.44h11.45v-11.44H410.74v-5.72h22.89v5.72h5.72v28.61H422.19v-11.45H410.74v11.45Z"/><path class="cls-3" d="M462.23,1851.22v-28.61H450.79v-5.72h34.33v5.72H473.67v28.61Z"/><path class="cls-3" d="M508,1851.22v-28.61H496.56v-5.72h34.32v5.72H519.44v28.61Z"/><path class="cls-3" d="M542.32,1851.22v-34.33h34.33v5.72H553.77v5.72h17.16v5.72H553.77v11.45h22.88v5.72Z"/><path class="cls-3" d="M588.09,1851.22v-34.33h5.72v5.72h5.72v5.72h5.72v5.72H611v-17.16h11.44v34.33H611v-5.72h-5.73v-5.73h-5.72v-5.72h-5.72v17.17Z"/><path class="cls-3" d="M645.3,1851.22v-28.61H633.86v-5.72h34.32v5.72H656.74v28.61Z"/><path class="cls-3" d="M685.35,1851.22v-5.72h5.72v-22.89h-5.72v-5.72h22.88v5.72h-5.72v22.89h5.72v5.72Z"/><path class="cls-3" d="M731.11,1851.22v-5.72h-5.72v-22.89h5.72v-5.72H754v5.72h5.72v22.89H754v5.72Zm17.17-5.72v-22.89H736.83v22.89Z"/><path class="cls-3" d="M771.16,1851.22v-34.33h5.72v5.72h5.72v5.72h5.72v5.72H794v-17.16h11.45v34.33H794v-5.72h-5.72v-5.73H782.6v-5.72h-5.72v17.17Z"/><path class="cls-3" d="M113.26,1906.14v-5.72h-5.72v-22.89h5.72v-5.72h22.88v5.72h5.72v5.72H130.42v-5.72H119v22.89h11.44v-5.73h11.44v5.73h-5.72v5.72Z"/><path class="cls-3" d="M153.3,1906.14v-34.33h34.33v5.72H164.75v5.72h17.16V1889H164.75v11.45h22.88v5.72Z"/><path class="cls-3" d="M199.07,1906.14v-34.33h28.61v5.72h5.72V1889h-5.72v5.72H222v5.73h-5.73v-5.73h-5.72v11.45ZM222,1889v-11.44H210.51V1889Zm0,17.17v-5.72H233.4v5.72Z"/><path class="cls-3" d="M256.28,1906.14v-28.61H244.84v-5.72h34.32v5.72H267.72v28.61Z"/><path class="cls-3" d="M290.61,1906.14v-28.61h5.72V1889h11.44v-11.44H296.33v-5.72h22.88v5.72h5.72v28.61H307.77v-11.45H296.33v11.45Z"/><path class="cls-3" d="M342.09,1906.14v-5.72h5.72v-22.89h-5.72v-5.72H365v5.72h-5.72v22.89H365v5.72Z"/><path class="cls-3" d="M382.14,1906.14v-34.33h5.72v5.72h5.72v5.72h5.72V1889H405v-17.16h11.45v34.33H405v-5.72H399.3v-5.73h-5.72V1889h-5.72v17.17Z"/><path class="cls-3" d="M427.91,1906.14v-34.33h34.32v5.72H439.35v5.72h17.16V1889H439.35v11.45h22.88v5.72Z"/><path class="cls-3" d="M496.56,1906.14v-34.33h28.6v5.72h5.72V1889h-5.72v5.72H508v11.45ZM519.44,1889v-11.44H508V1889Z"/><path class="cls-3" d="M542.32,1906.14v-34.33h34.33v5.72H553.77v5.72h17.16V1889H553.77v11.45h22.88v5.72Z"/><path class="cls-3" d="M599.53,1906.14v-28.61H588.09v-5.72h34.33v5.72H611v28.61Z"/><path class="cls-3" d="M639.58,1906.14v-5.72h5.72v-22.89h-5.72v-5.72h22.88v5.72h-5.72v22.89h5.72v5.72Z"/><path class="cls-3" d="M691.07,1906.14v-28.61H679.63v-5.72H714v5.72H702.51v28.61Z"/><path class="cls-3" d="M725.39,1906.14v-34.33h34.33v5.72H736.83v5.72H754V1889H736.83v11.45h22.89v5.72Z"/><path class="cls-3" d="M107.54,1961.06v-34.33h28.6v5.72h5.72v11.44h-5.72v5.72H119v11.45Zm22.88-17.17v-11.44H119v11.44Z"/><path class="cls-3" d="M153.3,1961.06v-34.33h34.33v5.72H164.75v5.72h17.16v5.72H164.75v11.45h22.88v5.72Z"/><path class="cls-3" d="M199.07,1961.06v-34.33h28.61v5.72h5.72v11.44h-5.72v5.72H222v5.73h-5.73v-5.73h-5.72v11.45ZM222,1943.89v-11.44H210.51v11.44Zm0,17.17v-5.72H233.4v5.72Z"/><path class="cls-3" d="M244.84,1961.06v-34.33h28.6v5.72h5.72v11.44h-5.72v5.72h-5.72v5.73H262v-5.73h-5.72v11.45Zm22.88-17.17v-11.44H256.28v11.44Zm0,17.17v-5.72h11.44v5.72Z"/><path class="cls-3" d="M290.61,1955.34v-28.61h5.72v28.61Zm5.72,5.72v-5.72h11.44v-5.73h5.72v-22.88h11.44v28.61h-5.72v5.72Z"/><path class="cls-3" d="M342.09,1961.06v-5.72h-5.72v-22.89h5.72v-5.72H365v5.72h5.72v5.72H359.26v-5.72H347.81v22.89h11.45v-5.73H370.7v5.73H365v5.72Z"/><path class="cls-3" d="M382.14,1961.06v-34.33h5.72v11.44H405v-11.44h11.45v34.33H405v-17.17H387.86v17.17Z"/><path class="cls-3" d="M427.91,1961.06v-34.33h34.32v5.72H439.35v5.72h17.16v5.72H439.35v11.45h22.88v5.72Z"/><path class="cls-3" d="M496.56,1961.06v-34.33h28.6v5.72h5.72v11.44h-5.72v5.72H508v11.45Zm22.88-17.17v-11.44H508v11.44Z"/><path class="cls-3" d="M542.32,1961.06v-34.33h34.33v5.72H553.77v5.72h17.16v5.72H553.77v11.45h22.88v5.72Z"/><path class="cls-3" d="M588.09,1955.34v-28.61h5.72v28.61Zm5.72,5.72v-5.72h11.44v-5.73H611v-22.88h11.44v28.61H616.7v5.72Z"/><path class="cls-3" d="M633.86,1949.61v-22.88h5.72v22.88Zm5.72,5.73v-5.73h5.72v5.73Zm5.72,5.72v-5.72H651v-5.73h5.72v-22.88h11.44v22.88h-5.72v5.73h-5.72v5.72Z"/><path class="cls-3" d="M679.63,1961.06v-34.33H714v5.72H691.07v5.72h17.16v5.72H691.07v11.45H714v5.72Z"/><path class="cls-3" d="M725.39,1961.06v-34.33h5.72v5.72h5.72v5.72h5.73v5.72h5.72v-17.16h11.44v34.33H748.28v-5.72h-5.72v-5.73h-5.73v-5.72h-5.72v17.17Z"/><path class="cls-3" d="M782.6,1961.06v-28.61H771.16v-5.72h34.33v5.72H794v28.61Z"/><path class="cls-3" d="M851.25,1961.06v-28.61H839.81v-5.72h34.33v5.72H862.69v28.61Z"/><path class="cls-3" d="M885.58,1961.06v-34.33H919.9v5.72H897v5.72h17.16v5.72H897v11.45H919.9v5.72Z"/><path class="cls-3" d="M107.54,2016v-34.33h34.32v5.72H119v11.44h17.16v5.73H119V2016Z"/><path class="cls-3" d="M153.3,2016v-28.61H159v11.44h11.44v-11.44H159v-5.72h22.88v5.72h5.72V2016H170.47v-11.44H159V2016Z"/><path class="cls-3" d="M204.79,2016v-5.72h5.72v-22.89h-5.72v-5.72h22.89v5.72H222v22.89h5.72V2016Z"/><path class="cls-3" d="M244.84,2016v-34.33h28.6v5.72h5.72v11.44h-5.72v5.73h-5.72v5.72H262v-5.72h-5.72V2016Zm22.88-17.17v-11.44H256.28v11.44Zm0,17.17v-5.72h11.44V2016Z"/><path class="cls-3" d="M290.61,2016v-34.33h34.32v5.72H302.05v5.72h17.16v5.72H302.05v11.45h22.88V2016Z"/><path class="cls-3" d="M365,2016v-5.72h-5.72v-22.89H365v-5.72h22.88v5.72h5.72v5.72H382.14v-5.72H370.7v22.89h11.44v-5.72h-5.72v-5.73h17.16V2016Z"/><path class="cls-3" d="M405,2016v-28.61h5.72v11.44h11.45v-11.44H410.74v-5.72h22.89v5.72h5.72V2016H422.19v-11.44H410.74V2016Z"/><path class="cls-3" d="M456.51,2016v-5.72h-5.72v-22.89h5.72v-5.72H479.4v5.72h5.72v5.72H473.67v-5.72H462.23v22.89h11.44v-5.72H468v-5.73h17.17V2016Z"/><path class="cls-3" d="M496.56,2016v-34.33h5.72v5.72H508v5.72h5.72v5.72h5.72v-17.16h11.44V2016H519.44v-5.72h-5.72v-5.72H508v-5.73h-5.72V2016Z"/><path class="cls-3" d="M542.32,2016v-34.33h34.33v5.72H553.77v5.72h17.16v5.72H553.77v11.45h22.88V2016Z"/><path class="cls-3" d="M588.09,2016v-34.33H616.7v5.72h5.72v11.44H616.7v5.73H611v5.72h-5.73v-5.72h-5.72V2016ZM611,1998.81v-11.44H599.53v11.44Zm0,17.17v-5.72h11.44V2016Z"/><path class="cls-3" d="M656.74,2016v-34.33h28.61v5.72h5.72v22.89h-5.72V2016Zm17.16-5.72v-22.89H662.46v22.89Z"/><path class="cls-3" d="M702.51,2016v-34.33h34.32v5.72H714v5.72h17.16v5.72H714v11.45h22.88V2016Z"/><path class="cls-3" d="M754,2016v-5.72h11.44v-11.45H754v-5.72h-5.72v-5.72H754v-5.72h22.88v5.72H759.72v5.72h17.16v5.72h5.72v11.45h-5.72V2016Zm-5.72-5.72v-5.72H754v5.72Z"/><path class="cls-3" d="M816.93,2004.54v-22.89h5.72v22.89Zm5.72,5.72v-5.72h5.72v5.72Zm5.72,5.72v-5.72h5.72v-5.72h5.72v-22.89h11.44v22.89h-5.72v5.72h-5.72V2016Z"/><path class="cls-3" d="M868.41,2016v-5.72h5.73v-22.89h-5.73v-5.72H891.3v5.72h-5.72v22.89h5.72V2016Z"/><path class="cls-3" d="M908.46,2016v-34.33h34.33v5.72H919.9v5.72h17.17v5.72H919.9v11.45h22.89V2016Z"/><path class="cls-3" d="M960,2016v-5.72h11.44v-11.45H960v-5.72h-5.72v-5.72H960v-5.72h22.88v5.72H965.67v5.72h17.16v5.72h5.72v11.45h-5.72V2016Zm-5.72-5.72v-5.72H960v5.72Z"/><path class="cls-3" d="M113.26,2070.9v-5.72H124.7v-11.45H113.26V2048h-5.72v-5.72h5.72v-5.72h22.88v5.72H119V2048h17.16v5.72h5.72v11.45h-5.72v5.72Zm-5.72-5.72v-5.72h5.72v5.72Z"/><path class="cls-3" d="M153.3,2065.18v-28.61H159v28.61Zm5.73,5.72v-5.72h11.44v-5.72h5.72v-22.89h11.44v28.61h-5.72v5.72Z"/><path class="cls-3" d="M199.07,2070.9v-34.33h28.61v5.72h5.72v11.44h-5.72v5.73H210.51v11.44ZM222,2053.73v-11.44H210.51v11.44Z"/><path class="cls-3" d="M244.84,2070.9v-34.33h28.6v5.72h5.72v11.44h-5.72v5.73H256.28v11.44Zm22.88-17.17v-11.44H256.28v11.44Z"/><path class="cls-3" d="M290.61,2070.9v-34.33h11.44v28.61h22.88v5.72Z"/><path class="cls-3" d="M336.37,2070.9v-34.33H370.7v5.72H347.81V2048H365v5.72H347.81v11.45H370.7v5.72Z"/><path class="cls-3" d="M382.14,2070.9v-34.33h5.72v5.72h5.72V2048h5.72v-5.72H405v-5.72h11.45v34.33H405v-17.17H399.3v5.73h-5.72v-5.73h-5.72v17.17Z"/><path class="cls-3" d="M427.91,2070.9v-34.33h34.32v5.72H439.35V2048h17.16v5.72H439.35v11.45h22.88v5.72Z"/><path class="cls-3" d="M473.67,2070.9v-34.33h5.73v5.72h5.72V2048h5.72v5.72h5.72v-17.16H508v34.33H496.56v-5.72h-5.72v-5.72h-5.72v-5.73H479.4v17.17Z"/><path class="cls-3" d="M530.88,2070.9v-28.61H519.44v-5.72h34.33v5.72H542.32v28.61Z"/><path class="cls-3" d="M565.21,2070.9v-28.61h5.72v11.44h11.44v-11.44H570.93v-5.72h22.88v5.72h5.72v28.61H582.37v-11.44H570.93v11.44Z"/><path class="cls-3" d="M616.7,2070.9v-5.72h5.72v-22.89H616.7v-5.72h22.88v5.72h-5.72v22.89h5.72v5.72Z"/><path class="cls-3" d="M656.74,2070.9v-34.33h28.61v5.72h5.72v11.44h-5.72v5.73h-5.72v5.72h-5.72v-5.72h-5.73v11.44Zm22.89-17.17v-11.44H668.18v11.44Zm0,17.17v-5.72h11.44v5.72Z"/><path class="cls-3" d="M702.51,2070.9v-34.33h34.32v5.72H714V2048h17.16v5.72H714v11.45h22.88v5.72Z"/><path class="cls-3" d="M754,2070.9v-5.72h11.44v-11.45H754V2048h-5.72v-5.72H754v-5.72h22.88v5.72H759.72V2048h17.16v5.72h5.72v11.45h-5.72v5.72Zm-5.72-5.72v-5.72H754v5.72Z"/><path class="cls-3" d="M828.37,2059.46v-22.89h17.16v22.89Zm0,11.44v-5.72h17.16v5.72Z"/><circle class="cls-3" cx="374.62" cy="2276.69" r="18.07"/><circle class="cls-3" cx="703.32" cy="2276.69" r="18.07"/><circle class="cls-3" cx="538.5" cy="2276.69" r="18.07"/><circle class="cls-4" cx="703.32" cy="2276.67" r="36.23"/><polygon class="cls-5" points="896.44 1099.81 862.87 1020.19 866.51 869.25 643.18 733.02 576.36 769.47 511.38 729.84 281.74 855.13 278.69 981.43 199.65 1118.34 330.45 1344.89 449.92 1344.89 562.58 1413.62 792.23 1288.32 793.5 1235.77 896.44 1099.81"/><path class="cls-3" d="M457.64,197.5a54.65,54.65,0,0,0,8.05,9c.87-1.81,1.78-3.58,2.75-5.33A44.41,44.41,0,0,1,457.64,197.5Zm15.84-26.07a54.21,54.21,0,0,0,4.17,16.19q2.53-3.12,5.36-6A44,44,0,0,1,473.48,171.43Zm27.08-13.63a54.59,54.59,0,0,0-3.25,11.84q2.51-1.71,5.12-3.24A43.8,43.8,0,0,1,500.56,157.8Zm100.59,12.09a52.24,52.24,0,0,0-15.58-32.32,44.92,44.92,0,0,1,.5,23.93A92.35,92.35,0,0,1,601.15,169.89Zm-52.81-42.66h-.29a123.2,123.2,0,0,0-13.52.75h0a120,120,0,0,0-23.25,5c.7,1,1.37,2.08,2,3.17a45.61,45.61,0,0,1,6.1,22.52A92.09,92.09,0,0,1,549,153.76h1.19c.47,0,.93,0,1.39,0A92,92,0,0,1,576.71,158a54.15,54.15,0,0,0-14.57-29.94A125.49,125.49,0,0,0,548.34,127.23Z"/><path class="cls-6" d="M615.43,219.51l.45.84Z"/><path class="cls-6" d="M612.72,215c.11.17.23.34.34.52C613,215.38,612.83,215.21,612.72,215Z"/><path class="cls-6" d="M614.25,217.48l.42.71Z"/><path class="cls-6" d="M617.72,224c.1.19.19.39.28.58C617.91,224.38,617.82,224.18,617.72,224Z"/><path class="cls-6" d="M618.92,226.65c.11.26.22.54.33.81C619.14,227.19,619,226.91,618.92,226.65Z"/><path class="cls-6" d="M623.88,244.18c0,.15,0,.3.07.45C623.93,244.48,623.9,244.33,623.88,244.18Z"/><path class="cls-6" d="M621.49,233.73l.18.55Z"/><path class="cls-6" d="M586.07,161.5a46.27,46.27,0,0,1-11.15,20.38A55.71,55.71,0,0,0,576.71,158,92.77,92.77,0,0,1,586.07,161.5Z"/><path class="cls-6" d="M608.41,209.13l.43.54Z"/><path class="cls-6" d="M624.73,298.61V255.16c0-.77,0-1.53-.05-2.29,0-.29,0-.58,0-.87,0-.54-.06-1.09-.1-1.63l-.06-.94c0-.55-.1-1.08-.16-1.63a2.46,2.46,0,0,1,0-.28c0-.09,0-.18,0-.27s0-.2,0-.3c-.09-.77-.19-1.55-.3-2.32,0-.15-.05-.3-.07-.45-.1-.67-.21-1.33-.33-2-.06-.29-.11-.58-.17-.88-.1-.5-.2-1-.31-1.5a2,2,0,0,1,0-.24c-.06-.23-.11-.47-.16-.7-.12-.5-.24-1-.37-1.5,0-.1,0-.2-.07-.3s-.09-.37-.14-.55c-.2-.75-.4-1.49-.62-2.23,0-.18-.12-.37-.17-.55-.18-.57-.36-1.14-.55-1.71l-.27-.78s0-.07,0-.11c-.16-.46-.32-.92-.49-1.38l-.35-.9a.49.49,0,0,0,0-.11c-.16-.43-.33-.86-.51-1.28s-.21-.54-.33-.82c-.3-.69-.6-1.38-.91-2.07-.1-.19-.2-.39-.29-.59s-.34-.71-.52-1.06l-.21-.47-.43-.83c-.21-.4-.42-.81-.64-1.2a.25.25,0,0,0,0-.07l-.45-.84-.76-1.32-.42-.71c-.39-.65-.79-1.29-1.19-1.92-.11-.18-.23-.34-.35-.52l-.47-.72-.14-.19L612,214l-.19-.29h0l-.08-.1-.5-.72-.88-1.22-.52-.7c-.33-.44-.67-.87-1-1.3l-.43-.54-.37-.45c-.36-.45-.73-.89-1.11-1.33l-.32-.37c-.41-.47-.82-.92-1.24-1.38l-.52-.57c-.37-.39-.75-.79-1.14-1.18l-.52-.53c-.44-.45-.89-.88-1.34-1.31l-.35-.32c-.22-.22-.45-.42-.67-.63l-.2-.19-.25-.22-.24-.22-.4-.36-.24-.21-1.56-1.33c-.16-.13-.33-.25-.49-.39s-.47-.39-.71-.57a54.34,54.34,0,0,0,4.41-27.68,92.24,92.24,0,0,1,23.58,128.72Z"/><path class="cls-6" d="M624.72,255.16c0,.06,0,.13,0,.19v43.26h0V255.35C624.73,255.29,624.72,255.22,624.72,255.16Z"/><path class="cls-6" d="M604.85,205l.52.56Z"/><path class="cls-6" d="M609.85,211l.52.7Z"/><path class="cls-6" d="M611.25,212.9l.51.71Z"/><path class="cls-6" d="M485.92,201.06a42.55,42.55,0,0,1-17.48.1,92,92,0,0,1,9.21-13.54A53.66,53.66,0,0,0,485.92,201.06Z"/><path class="cls-6" d="M466.54,254.55a30,30,0,0,0,18.87,27.84c.49-.49,1-.95,1.53-1.4V314.1a92.31,92.31,0,0,1-21.25-107.61,53.79,53.79,0,0,0,21.25,11.73v7.93A30,30,0,0,0,466.54,254.55Z"/><path class="cls-6" d="M497.77,189.06A42.47,42.47,0,0,1,483,181.62a91.66,91.66,0,0,1,14.3-12A53.85,53.85,0,0,0,497.77,189.06Z"/><path class="cls-6" d="M519.38,158.64a44,44,0,0,1-7.09,24.27h0l0,0a43,43,0,0,1-9.81-16.53A91.94,91.94,0,0,1,519.38,158.64Z"/><path class="cls-6" d="M568.53,225.76V336.08l-.41.1V225.93Z"/><path class="cls-6" d="M624.48,249.42c0,.32,0,.63.07,1C624.53,250.05,624.51,249.74,624.48,249.42Z"/><path class="cls-6" d="M624.34,247.81c0-.19,0-.38-.05-.56v0Z"/><path class="cls-6" d="M623.07,239.8c0-.08,0-.16,0-.24h0A2,2,0,0,1,623.07,239.8Z"/><path class="cls-6" d="M624.64,252c0,.29,0,.58,0,.87C624.67,252.58,624.66,252.29,624.64,252Z"/><path class="cls-6" d="M621,232l-.27-.78h0Z"/><path class="cls-6" d="M622.43,237.07c0-.19-.09-.38-.14-.56.05.18.09.37.14.56Z"/><path class="cls-6" d="M623.38,241.3c.06.3.12.59.17.89C623.5,241.89,623.44,241.6,623.38,241.3Z"/><path class="cls-6" d="M601.51,201.68l.34.33Z"/><path class="cls-6" d="M603.19,203.32l.52.53Z"/><path class="cls-3" d="M668.43,247.62a120.13,120.13,0,0,1-43.7,92.8c-2.05,1.7-4.16,3.32-6.32,4.88q-1.78,1.27-3.61,2.5a120.68,120.68,0,0,1-14.56,8.32c-1.38.67-2.78,1.3-4.2,1.92q-2.73,1.18-5.53,2.25-3.6,1.35-7.32,2.49-3,.92-6.07,1.66-2.57.65-5.18,1.19h0l-.39.08a121.29,121.29,0,0,1-23.5,2.29,120.4,120.4,0,0,1-36.77-235c.7,1,1.37,2.08,2,3.17a45.61,45.61,0,0,1,6.1,22.52,91.94,91.94,0,0,0-16.95,7.76,43.8,43.8,0,0,1-1.87-8.6,54.59,54.59,0,0,0-3.25,11.84,91.66,91.66,0,0,0-14.3,12,44,44,0,0,1-9.53-10.19,54.21,54.21,0,0,0,4.17,16.19,92,92,0,0,0-9.21,13.54,44.41,44.41,0,0,1-10.8-3.66,54.65,54.65,0,0,0,8.05,9A92.22,92.22,0,0,0,549,338.15a93,93,0,0,0,19.08-2l.41-.1a91.13,91.13,0,0,0,9-2.44h1a.75.75,0,0,0,.73-.58,90,90,0,0,0,8.8-3.58q2.48-1.16,4.86-2.45c1.12-.61,2.23-1.25,3.32-1.9,1.24-.74,2.47-1.51,3.67-2.31a90.11,90.11,0,0,0,7.87-5.85.74.74,0,0,0,.61-.51c1.16-1,2.28-2,3.39-3l1.53-1.48c1.91-1.85,3.74-3.8,5.49-5.82.71-.82,1.41-1.65,2.08-2.5q2-2.46,3.8-5.06a92.24,92.24,0,0,0-23.58-128.72,52.24,52.24,0,0,0-15.58-32.32,44.92,44.92,0,0,1,.5,23.93,92.77,92.77,0,0,0-9.36-3.51,54.15,54.15,0,0,0-14.57-29.94A120.4,120.4,0,0,1,668.43,247.62Z"/><path class="cls-7" d="M498.14,190.71a34.83,34.83,0,0,0-7,8.85,39.72,39.72,0,0,1-5.26,1.5,53.66,53.66,0,0,1-8.27-13.44,54.21,54.21,0,0,1-4.17-16.19A44,44,0,0,0,483,181.62a42.47,42.47,0,0,0,14.76,7.44C497.88,189.61,498,190.16,498.14,190.71Z"/><path class="cls-7" d="M577.27,165.88a55.14,55.14,0,0,1-2.35,16c-1,1-2,2-3,2.93a72,72,0,0,0-11.11-2.41,73.32,73.32,0,0,0-10.1-.7h-.13a54.07,54.07,0,0,0,.45-24.87c.25-1,.46-2,.63-3a46.61,46.61,0,0,0,.68-7.9,45.66,45.66,0,0,0-4-18.67,44.84,44.84,0,0,0-8.77-13,51.68,51.68,0,0,1,22.57,13.78A54.15,54.15,0,0,1,576.71,158,55.41,55.41,0,0,1,577.27,165.88Z"/><path class="cls-7" d="M489,204.4a34.26,34.26,0,0,0-2.05,11.72v2.1a53.79,53.79,0,0,1-21.25-11.73,54.65,54.65,0,0,1-8.05-9,44.41,44.41,0,0,0,10.8,3.66,42.55,42.55,0,0,0,17.48-.1C486.9,202.22,487.92,203.34,489,204.4Z"/><path class="cls-7" d="M551,156.83a44.76,44.76,0,0,1-16.08,24.87H521.36a34.35,34.35,0,0,0-9.07,1.21,44,44,0,0,0,7.09-24.27,45.61,45.61,0,0,0-6.1-22.52c-.63-1.09-1.3-2.15-2-3.17A45.15,45.15,0,0,0,486.49,115a52.94,52.94,0,0,1,48,13h0a55.65,55.65,0,0,1,15.7,25.79h0C550.52,154.79,550.77,155.81,551,156.83Z"/><path class="cls-7" d="M534.91,181.7h15.63a54.07,54.07,0,0,0,.45-24.87A44.76,44.76,0,0,1,534.91,181.7Z"/><path class="cls-7" d="M485.92,201.06c1,1.16,2,2.28,3.07,3.34a34,34,0,0,1,2.19-4.84A39.72,39.72,0,0,1,485.92,201.06Z"/><path class="cls-7" d="M596.74,197.57l-.68-.53-.56-.43-1.42-1.05-.52-.37,0,0q-.91-.65-1.86-1.26l-.17-.12-.41-.26-1.38-.88-.85-.51c-.39-.24-.79-.47-1.19-.7l-.88-.49-1.28-.7-.79-.42c-.69-.35-1.39-.7-2.09-1a33.38,33.38,0,0,0-3,2.46l-.31.3-.27.26-.43.42-.31.31c-.39.39-.75.78-1.11,1.19-.23.26-.46.53-.68.8s-.45.53-.66.81l-.64.84c-.22.31-.44.61-.65.92s-.36.52-.53.79l-.15.24c-.22.34-.43.69-.64,1-.1.16-.19.33-.28.5a2.48,2.48,0,0,0-.18.31c-.08.16-.17.31-.25.46l-.18.35c-.06.12-.12.23-.17.35s-.13.25-.19.38l-.26.53a.77.77,0,0,0-.07.16q-.25.53-.48,1.08v0q-.27.64-.51,1.32c-.14.36-.27.72-.39,1.09a0,0,0,0,0,0,0l-.07.21c0,.1-.06.21-.1.31a.14.14,0,0,1,0,.07l-.12.43-.12.42s0,0,0,0l-.06.21a.24.24,0,0,1,0,.08h0q-.11.34-.18.69t-.18.78c0,.18-.09.37-.13.56s-.08.38-.11.57-.08.42-.11.63-.09.51-.12.76l0,.18c0,.12,0,.23,0,.34a2.21,2.21,0,0,0,0,.35.43.43,0,0,1,0,0c0,.31-.08.63-.1,1,0,.13,0,.26,0,.39v.09c0,.08,0,.17,0,.26s0,.15,0,.24a2,2,0,0,0,0,.25.78.78,0,0,0,0,.16c0,.59,0,1.18,0,1.79v9.22l-.41.17v-9.39a34.33,34.33,0,0,1,14.07-27.76,71.36,71.36,0,0,0-8.46-3.38c.43-1.16.83-2.33,1.19-3.52a46.27,46.27,0,0,0,11.15-20.38,44.92,44.92,0,0,0-.5-23.93,52.24,52.24,0,0,1,15.58,32.32A54.34,54.34,0,0,1,596.74,197.57Z"/><path class="cls-7" d="M591.49,193.77l-.42-.26.41.26Z"/><path class="cls-7" d="M584.7,189.82c.27.13.53.27.79.41C585.23,190.09,585,190,584.7,189.82Z"/><path class="cls-7" d="M586.77,190.92l.88.5Z"/><path class="cls-7" d="M593.56,195.19l.52.37Z"/><path class="cls-7" d="M595.5,196.61l.56.43Z"/><path class="cls-7" d="M582.61,188.78a35.19,35.19,0,0,0-3,2.46,35.19,35.19,0,0,1,3-2.46Z"/><path class="cls-7" d="M588.84,192.12l.84.51Z"/><path class="cls-7" d="M512.24,182.93a34.12,34.12,0,0,0-12.71,6.58c-.59-.13-1.18-.29-1.76-.45a53.85,53.85,0,0,1-.46-19.42,54.59,54.59,0,0,1,3.25-11.84,43.8,43.8,0,0,0,1.87,8.6A43,43,0,0,0,512.24,182.93Z"/><path class="cls-7" d="M574.92,181.88c-1,1-2,2-3,2.93.62.19,1.24.38,1.85.59C574.16,184.24,574.56,183.07,574.92,181.88Z"/><path class="cls-7" d="M497.77,189.06c.11.55.24,1.1.37,1.65.45-.41.92-.82,1.39-1.2C498.94,189.38,498.35,189.22,497.77,189.06Z"/><polygon class="cls-8" points="512.28 182.91 512.24 182.93 512.25 182.96 512.28 182.91"/><path class="cls-8" d="M568.12,225.93V336.18a93,93,0,0,1-19.08,2,91.85,91.85,0,0,1-62.1-24V281c.23-.21.47-.42.71-.61a30,30,0,0,1,30-4.55c.71-.7,1.38-1.44,2-2.21A29.84,29.84,0,0,0,526.45,256c0-.47,0-.94,0-1.42a30,30,0,0,0-39.54-28.4v-7.93a51.59,51.59,0,0,0,27.62.23l1,.2a50.74,50.74,0,0,0,23.4,10.72,9.17,9.17,0,1,0,15.28.33h0A53,53,0,0,0,568.12,225.93Z"/><path class="cls-8" d="M499.53,195.49c-.54-1.56-1-3.16-1.39-4.78a34.83,34.83,0,0,0-7,8.85,42,42,0,0,0,6.8-3.13C498.51,196.13,499,195.82,499.53,195.49Z"/><path class="cls-8" d="M571.88,184.81a72,72,0,0,0-11.11-2.41,73.32,73.32,0,0,0-10.1-.7h-.13a52.49,52.49,0,0,1-6,14.19A44.37,44.37,0,0,0,571.88,184.81Z"/><path class="cls-8" d="M514.56,218.45l1,.2-.42-.35Z"/><path class="cls-8" d="M512.26,183a41.13,41.13,0,0,0,7.54,6.23,42.47,42.47,0,0,0,15.11-7.48H521.36a34.35,34.35,0,0,0-9.07,1.21h0Z"/><path class="cls-8" d="M486.94,216.12v2.1a51.59,51.59,0,0,0,27.62.23,51.35,51.35,0,0,1-25.57-14A34.26,34.26,0,0,0,486.94,216.12Z"/><path class="cls-8" d="M523.25,191.19a42.09,42.09,0,0,0,21.31,4.7,52.49,52.49,0,0,0,6-14.19H534.91a42.47,42.47,0,0,1-15.11,7.48Q521.46,190.26,523.25,191.19Z"/><path class="cls-8" d="M499.53,195.49c-.51.33-1,.64-1.55.94a42,42,0,0,1-6.8,3.13A34,34,0,0,0,489,204.4a51.35,51.35,0,0,0,25.57,14l.55-.15A51.27,51.27,0,0,1,499.53,195.49Z"/><path class="cls-8" d="M512.26,183l0,0a34.12,34.12,0,0,0-12.71,6.58,41.62,41.62,0,0,0,6.45,1A42,42,0,0,0,512.26,183Z"/><path class="cls-8" d="M525.24,219.58a50.91,50.91,0,0,1-9.71-.93,50.74,50.74,0,0,0,23.4,10.72h0a9.14,9.14,0,0,1,15.28.33h0a53,53,0,0,0,13.9-3.77v-9.39a34.33,34.33,0,0,1,14.07-27.76,71.36,71.36,0,0,0-8.46-3.38C566.17,205.41,547.3,219.58,525.24,219.58Z"/><path class="cls-8" d="M506,190.47a41.62,41.62,0,0,1-6.45-1c-.47.38-.94.79-1.39,1.2.39,1.62.85,3.22,1.39,4.78A40.92,40.92,0,0,0,506,190.47Z"/><path class="cls-8" d="M526.5,213.49a51.06,51.06,0,0,1-11.39,4.81l.42.35a50.91,50.91,0,0,0,9.71.93c22.06,0,40.93-14.17,48.49-34.18-.61-.21-1.23-.4-1.85-.59a44.37,44.37,0,0,1-27.32,11.08A50.49,50.49,0,0,1,526.5,213.49Z"/><path class="cls-8" d="M509,190.58a41.84,41.84,0,0,0,10.79-1.4,41.13,41.13,0,0,1-7.54-6.23,42,42,0,0,1-6.28,7.52C507,190.55,508,190.58,509,190.58Z"/><path class="cls-8" d="M506,190.47a40.92,40.92,0,0,1-6.45,5,51.27,51.27,0,0,0,15.58,22.81,51.06,51.06,0,0,0,11.39-4.81,50.49,50.49,0,0,0,18.06-17.6,42.09,42.09,0,0,1-21.31-4.7q-1.79-.93-3.45-2a41.84,41.84,0,0,1-10.79,1.4C508,190.58,507,190.55,506,190.47Z"/><path class="cls-9" d="M466.54,254.55a30,30,0,0,0,18.87,27.84c.49-.49,1-.95,1.53-1.41V226.15A30,30,0,0,0,466.54,254.55Z"/><path class="cls-9" d="M487.65,280.38a30,30,0,0,1,36.72-25c.7.17,1.4.36,2.08.58,0-.47,0-.94,0-1.42a30,30,0,0,0-39.55-28.4V281Z"/><path class="cls-10" d="M487.65,280.38a29.78,29.78,0,0,1,3.54-10.51,29.78,29.78,0,0,0-3.54,10.51,30,30,0,0,1,30-4.55h0a30,30,0,0,0-30,4.55Z"/><path class="cls-10" d="M526.45,256a29.81,29.81,0,0,1-6.82,17.65A29.81,29.81,0,0,0,526.45,256c-.68-.22-1.38-.41-2.08-.58C525.07,255.56,525.77,255.75,526.45,256Z"/><path class="cls-11" d="M517.61,275.83c.71-.7,1.38-1.44,2-2.21-.64.77-1.31,1.51-2,2.21Z"/><path class="cls-11" d="M517.33,254.55a29.75,29.75,0,0,1,7,.84,30,30,0,0,0-33.18,14.48A30,30,0,0,1,517.33,254.55Z"/><path class="cls-11" d="M524.37,255.39a30,30,0,0,0-36.72,25,30,30,0,0,1,30-4.55c.71-.7,1.38-1.44,2-2.21A29.81,29.81,0,0,0,526.45,256C525.77,255.75,525.07,255.56,524.37,255.39Z"/><path class="cls-12" d="M538.93,229.37a9.17,9.17,0,1,0,15.28.33A50.89,50.89,0,0,1,538.93,229.37Z"/><path class="cls-12" d="M546.47,225.41a9.15,9.15,0,0,0-7.54,4,50.89,50.89,0,0,0,15.28.33A9.12,9.12,0,0,0,546.47,225.41Z"/><path class="cls-13" d="M614.67,218.19l.76,1.32Z"/><path class="cls-13" d="M603.71,203.85c.39.39.76.79,1.14,1.19C604.47,204.64,604.1,204.24,603.71,203.85Z"/><path class="cls-13" d="M601.85,202c.45.43.9.86,1.34,1.31C602.75,202.87,602.3,202.44,601.85,202Z"/><path class="cls-13" d="M608.84,209.67c.34.43.68.86,1,1.3C609.52,210.53,609.18,210.1,608.84,209.67Z"/><path class="cls-13" d="M624.68,252.87c0-.29,0-.58,0-.87,0-.54-.06-1.09-.1-1.63l-.06-.94c0-.55-.1-1.08-.16-1.63a2.46,2.46,0,0,1,0-.28l0-.25a.76.76,0,0,1-.74.62H612.59a.77.77,0,0,1-.76-.77v-1a.77.77,0,0,1,.76-.77h10.95a.76.76,0,0,1,.54.22c0-.32-.08-.65-.13-1,0-.15-.05-.3-.07-.45-.1-.67-.21-1.33-.33-2-.06-.29-.11-.58-.17-.88-.1-.5-.2-1-.31-1.5,0-.08,0-.16-.05-.24H612.59a.76.76,0,0,1-.76-.76v-1a.77.77,0,0,1,.76-.77h9.84c0-.18-.09-.37-.14-.55-.2-.75-.4-1.49-.62-2.23,0-.18-.12-.37-.17-.55-.18-.57-.36-1.14-.55-1.71l-.27-.78h-8.09a.76.76,0,0,1-.76-.77v-1a.76.76,0,0,1,.76-.77h7.17c-.16-.43-.33-.86-.51-1.28s-.21-.54-.33-.82c-.3-.69-.6-1.38-.91-2.07-.1-.19-.2-.39-.29-.59s-.34-.71-.52-1.06h-4.61a.77.77,0,0,1-.76-.78v-.95a.76.76,0,0,1,.76-.77h3.33a.25.25,0,0,0,0-.07l-.45-.84-.76-1.32-.42-.71c-.39-.65-.79-1.29-1.19-1.92-.11-.18-.23-.34-.35-.52s-.21-.33-.33-.49a.76.76,0,0,1-.55-.73v-.11l-.08-.1-.5-.72-.88-1.22-.52-.7c-.33-.44-.67-.87-1-1.3l-.43-.54-.37-.45a.66.66,0,0,1-.32.08H596.78A.77.77,0,0,1,596,208v-1a.77.77,0,0,1,.77-.77H606l-.59-.66-.52-.57c-.37-.39-.75-.79-1.14-1.18l-.52-.53c-.44-.45-.89-.88-1.34-1.31l-.35-.32c-.22-.22-.45-.42-.67-.63l-.2-.19-.25-.22-.24-.22h-3.36a.76.76,0,0,1-.77-.77v-.48c-.26.53-.53,1.06-.8,1.58-.54,1-1.11,2-1.7,3v.05a.77.77,0,0,1-.45.69,55.32,55.32,0,0,1-4.23,5.91h3.91a.77.77,0,0,1,.77.77v1a.77.77,0,0,1-.77.77h-6.1a54.5,54.5,0,0,1-12.5,10h4.44a.76.76,0,0,1,.77.77v.95a.76.76,0,0,1-.77.77h-9.3l-.75.35v5.48h10.05a.77.77,0,0,1,.77.77v1a.76.76,0,0,1-.77.76H568.53v5.83h10.05a.77.77,0,0,1,.77.77v1a.78.78,0,0,1-.77.78H568.53v5.82h10.05a.76.76,0,0,1,.77.77v1a.77.77,0,0,1-.77.77H568.53v5.82h10.05a.77.77,0,0,1,.77.77v1a.76.76,0,0,1-.77.77H568.53v5.83h10.05a.77.77,0,0,1,.77.77v1a.77.77,0,0,1-.77.77H568.53v5.83h10.05a.76.76,0,0,1,.77.77v.95a.76.76,0,0,1-.77.77H568.53v5.83h10.05a.77.77,0,0,1,.77.77v1a.77.77,0,0,1-.77.77H568.53v5.83h10.05a.77.77,0,0,1,.77.76v1a.77.77,0,0,1-.77.77H568.53v5.83h10.05a.76.76,0,0,1,.77.77v.95a.76.76,0,0,1-.77.77H568.53v5.83h10.05a.76.76,0,0,1,.77.77v.95a.76.76,0,0,1-.77.77H568.53v5.83h10.05a.77.77,0,0,1,.77.77v1a.77.77,0,0,1-.77.76H568.53v5.83h10.05a.76.76,0,0,1,.77.77v1a.77.77,0,0,1-.77.77H568.53v5.82h10.05a.77.77,0,0,1,.77.78v.95a.58.58,0,0,1,0,.19,90,90,0,0,0,8.8-3.58h-6.32a.77.77,0,0,1-.77-.77v-1a.77.77,0,0,1,.77-.77h11a.59.59,0,0,1,.23,0c1.12-.61,2.23-1.25,3.32-1.9a.74.74,0,0,1-.28-.58v-1a.76.76,0,0,1,.77-.77H600a90.11,90.11,0,0,0,7.87-5.85l-.11,0H596.78a.77.77,0,0,1-.77-.76v-1a.77.77,0,0,1,.77-.77h10.94a.78.78,0,0,1,.77.77v1a.68.68,0,0,1,0,.23c1.16-1,2.28-2,3.39-3v-.71a.77.77,0,0,1,.76-.77h.77c1.91-1.85,3.74-3.8,5.49-5.82h-6.26a.76.76,0,0,1-.76-.77v-1a.76.76,0,0,1,.76-.77h8.34q2-2.46,3.8-5.06V255.16C624.72,254.39,624.71,253.63,624.68,252.87Zm-31.17,67.51a.77.77,0,0,1-.77.77h-11a.76.76,0,0,1-.77-.77v-.95a.76.76,0,0,1,.77-.77h11a.77.77,0,0,1,.77.77Zm0-8.32a.78.78,0,0,1-.77.77h-11a.77.77,0,0,1-.77-.77v-1a.77.77,0,0,1,.77-.77h11a.78.78,0,0,1,.77.77Zm0-8.32a.78.78,0,0,1-.77.77h-11a.77.77,0,0,1-.77-.77v-1a.77.77,0,0,1,.77-.77h11a.78.78,0,0,1,.77.77Zm0-8.33a.77.77,0,0,1-.77.76h-11a.76.76,0,0,1-.77-.76v-1a.77.77,0,0,1,.77-.77h11a.78.78,0,0,1,.77.77Zm0-8.33a.77.77,0,0,1-.77.77h-11a.76.76,0,0,1-.77-.77v-.95a.76.76,0,0,1,.77-.77h11a.77.77,0,0,1,.77.77Zm0-8.32a.78.78,0,0,1-.77.77h-11a.77.77,0,0,1-.77-.77v-1a.77.77,0,0,1,.77-.77h11a.78.78,0,0,1,.77.77Zm0-8.33a.77.77,0,0,1-.77.77h-11a.76.76,0,0,1-.77-.77v-1a.77.77,0,0,1,.77-.77h11a.78.78,0,0,1,.77.77Zm0-8.32a.78.78,0,0,1-.77.77h-11a.77.77,0,0,1-.77-.77v-1a.76.76,0,0,1,.77-.77h11a.77.77,0,0,1,.77.77Zm0-8.33a.78.78,0,0,1-.77.77h-11a.77.77,0,0,1-.77-.77v-1a.77.77,0,0,1,.77-.77h11a.78.78,0,0,1,.77.77Zm0-8.33a.77.77,0,0,1-.77.77h-11a.76.76,0,0,1-.77-.77v-.95a.76.76,0,0,1,.77-.77h11a.77.77,0,0,1,.77.77Zm0-8.32a.78.78,0,0,1-.77.77h-11a.77.77,0,0,1-.77-.77v-1a.77.77,0,0,1,.77-.77h11a.78.78,0,0,1,.77.77Zm0-8.32a.78.78,0,0,1-.77.77h-11a.78.78,0,0,1-.77-.77v-1a.76.76,0,0,1,.77-.76h11a.77.77,0,0,1,.77.76Zm0-8.33a.78.78,0,0,1-.77.77h-11a.77.77,0,0,1-.77-.77v-1a.77.77,0,0,1,.77-.77h11a.78.78,0,0,1,.77.77Zm15,87.41a.77.77,0,0,1-.77.77H596.78a.76.76,0,0,1-.77-.77v-.95a.76.76,0,0,1,.77-.77h10.94a.77.77,0,0,1,.77.77Zm0-8.32a.77.77,0,0,1-.77.77H596.78a.76.76,0,0,1-.77-.77v-.95a.76.76,0,0,1,.77-.77h10.94a.77.77,0,0,1,.77.77Zm0-8.32a.78.78,0,0,1-.77.77H596.78a.77.77,0,0,1-.77-.77v-1a.77.77,0,0,1,.77-.76h10.94a.77.77,0,0,1,.77.76Zm0-8.33a.78.78,0,0,1-.77.77H596.78a.77.77,0,0,1-.77-.77v-1a.77.77,0,0,1,.77-.77h10.94a.78.78,0,0,1,.77.77Zm0-8.33a.77.77,0,0,1-.77.77H596.78a.76.76,0,0,1-.77-.77v-.95a.76.76,0,0,1,.77-.77h10.94a.77.77,0,0,1,.77.77Zm0-8.32a.78.78,0,0,1-.77.77H596.78a.77.77,0,0,1-.77-.77v-1a.77.77,0,0,1,.77-.77h10.94a.78.78,0,0,1,.77.77Zm0-8.33a.77.77,0,0,1-.77.77H596.78a.76.76,0,0,1-.77-.77v-1a.77.77,0,0,1,.77-.77h10.94a.78.78,0,0,1,.77.77Zm0-8.32a.78.78,0,0,1-.77.77H596.78a.77.77,0,0,1-.77-.77v-1a.76.76,0,0,1,.77-.77h10.94a.77.77,0,0,1,.77.77Zm0-8.33a.79.79,0,0,1-.77.78H596.78a.78.78,0,0,1-.77-.78v-1a.77.77,0,0,1,.77-.77h10.94a.78.78,0,0,1,.77.77Zm0-8.32a.77.77,0,0,1-.77.76H596.78A.76.76,0,0,1,596,233v-1a.77.77,0,0,1,.77-.77h10.94a.78.78,0,0,1,.77.77Zm0-8.33a.77.77,0,0,1-.77.77H596.78a.76.76,0,0,1-.77-.77v-.95a.76.76,0,0,1,.77-.77h10.94a.77.77,0,0,1,.77.77Zm0-8.32a.78.78,0,0,1-.77.77H596.78a.77.77,0,0,1-.77-.77v-1a.77.77,0,0,1,.77-.77h10.94a.78.78,0,0,1,.77.77Zm15.82,80.75a.79.79,0,0,1-.77.78H612.59a.78.78,0,0,1-.76-.78v-1a.76.76,0,0,1,.76-.76h10.95a.77.77,0,0,1,.77.76Zm0-8.32a.78.78,0,0,1-.77.77H612.59a.77.77,0,0,1-.76-.77v-1a.77.77,0,0,1,.76-.77h10.95a.78.78,0,0,1,.77.77Zm0-8.33a.77.77,0,0,1-.77.77H612.59a.76.76,0,0,1-.76-.77v-.95a.76.76,0,0,1,.76-.77h10.95a.77.77,0,0,1,.77.77Zm0-8.32a.78.78,0,0,1-.77.77H612.59a.77.77,0,0,1-.76-.77v-1a.77.77,0,0,1,.76-.77h10.95a.78.78,0,0,1,.77.77Zm0-8.33a.78.78,0,0,1-.77.77H612.59a.77.77,0,0,1-.76-.77v-1a.77.77,0,0,1,.76-.77h10.95a.78.78,0,0,1,.77.77Zm0-8.33a.77.77,0,0,1-.77.77H612.59a.76.76,0,0,1-.76-.77v-.95a.76.76,0,0,1,.76-.77h10.95a.77.77,0,0,1,.77.77Z"/><path class="cls-13" d="M621.67,234.28c.22.74.42,1.48.62,2.23C622.09,235.76,621.89,235,621.67,234.28Z"/><path class="cls-13" d="M610.37,211.67c.3.41.59.81.88,1.23C611,212.48,610.67,212.08,610.37,211.67Z"/><path class="cls-13" d="M618,224.57c.32.69.62,1.38.92,2.08C618.62,226,618.32,225.26,618,224.57Z"/><path class="cls-13" d="M597.93,198.54q.8.65,1.56,1.32Q598.73,199.19,597.93,198.54Z"/><path class="cls-13" d="M613.06,215.56c.41.63.8,1.27,1.19,1.92C613.86,216.83,613.47,216.19,613.06,215.56Z"/><path class="cls-13" d="M620.15,229.76c.17.45.33.91.49,1.37C620.48,230.67,620.32,230.21,620.15,229.76Z"/><path class="cls-13" d="M624.25,247c-.09-.77-.19-1.55-.3-2.32,0,.33.08.66.13,1S624.2,246.5,624.25,247Z"/><path class="cls-13" d="M621,232c.19.56.37,1.14.54,1.71C621.32,233.16,621.14,232.58,621,232Z"/><path class="cls-13" d="M617.72,224c-.24-.52-.48-1-.74-1.54l.22.46C617.38,223.27,617.55,223.63,617.72,224Z"/><path class="cls-13" d="M597.19,197.94l.26.2-.71-.57h0Z"/><path class="cls-13" d="M597.19,197.94l-.45-.36-.19.4a.85.85,0,0,1,.22,0Z"/><path class="cls-13" d="M619.81,228.85c-.18-.47-.37-.93-.56-1.39.18.42.35.85.51,1.28Z"/><path class="cls-13" d="M616.56,221.63c-.22-.43-.45-.86-.68-1.28a.16.16,0,0,1,0,.07C616.14,220.82,616.35,221.22,616.56,221.63Z"/><path class="cls-13" d="M606.61,207c-.41-.46-.82-.93-1.24-1.38l.6.66Z"/><path class="cls-13" d="M608.41,209.13c-.48-.6-1-1.2-1.48-1.78.38.44.75.89,1.11,1.33Z"/><path class="cls-13" d="M601.51,201.68c-.58-.54-1.17-1.08-1.77-1.61.13.12.26.25.4.36Z"/><path class="cls-13" d="M624.55,250.37c0,.54.07,1.08.09,1.63C624.62,251.45,624.59,250.91,624.55,250.37Z"/><polygon class="cls-13" points="568.53 331.14 568.53 325.32 568.53 322.82 568.53 316.99 568.53 314.49 568.53 308.67 568.53 306.17 568.53 300.34 568.53 297.84 568.53 292.01 568.53 289.52 568.53 283.69 568.53 281.19 568.53 275.36 568.53 272.87 568.53 267.04 568.53 264.54 568.53 258.71 568.53 256.22 568.53 250.39 568.53 247.89 568.53 242.06 568.53 239.56 568.53 233.74 568.53 231.24 568.53 225.75 568.53 225.75 568.53 336.08 568.53 336.08 568.53 333.64 568.53 331.14"/><path class="cls-13" d="M622.5,237.36c.13.5.25,1,.37,1.5C622.75,238.36,622.63,237.86,622.5,237.36Z"/><path class="cls-13" d="M624.34,247.81c0,.53.1,1.07.14,1.61C624.44,248.88,624.39,248.34,624.34,247.81Z"/><path class="cls-13" d="M624.68,252.87c0,.76,0,1.52,0,2.29C624.72,254.39,624.71,253.63,624.68,252.87Z"/><path class="cls-13" d="M623.07,239.8c.11.5.21,1,.31,1.5C623.28,240.8,623.18,240.3,623.07,239.8Z"/><path class="cls-13" d="M623.55,242.19c.12.66.23,1.32.33,2C623.78,243.51,623.67,242.85,623.55,242.19Z"/><path class="cls-13" d="M612.38,214.55l.34.49-1-1.43.06.1C612,214,612.2,214.27,612.38,214.55Z"/><path class="cls-13" d="M568.53,225.41v-8.87q0-1,.06-1.95a34.84,34.84,0,0,1,.83-5.83c.2-.84.42-1.68.67-2.5a34.82,34.82,0,0,1,2.44-5.83q.69-1.27,1.47-2.49a34.59,34.59,0,0,1,4.77-5.87l.54-.53.31-.3a34.31,34.31,0,0,0-11.09,25.3v9.22h0Z"/><path class="cls-13" d="M582.61,188.78h0c.7.33,1.4.68,2.09,1C584,189.46,583.31,189.11,582.61,188.78Z"/><path class="cls-13" d="M594.08,195.56l1.42,1.05Z"/><path class="cls-13" d="M568.53,225.75c.25-.1.5-.23.75-.34h-.75Z"/><path class="cls-13" d="M578.77,192.07a34.59,34.59,0,0,0-4.77,5.87h4.58a.76.76,0,0,1,.77.77v.95a.76.76,0,0,1-.77.77h-6.05a34.82,34.82,0,0,0-2.44,5.83h8.49a.77.77,0,0,1,.77.77v1a.77.77,0,0,1-.77.77h-9.16a34.84,34.84,0,0,0-.83,5.83h10a.76.76,0,0,1,.77.77v1a.77.77,0,0,1-.77.77H568.53v5.82h5.61a54.19,54.19,0,0,0,12.5-10h-4.85a.76.76,0,0,1-.77-.77v-1a.76.76,0,0,1,.77-.76h7a57.42,57.42,0,0,0,4.23-5.91.72.72,0,0,1-.32.08h-11a.77.77,0,0,1-.77-.77v-1a.77.77,0,0,1,.77-.77h11a.78.78,0,0,1,.77.77v.91c.59-1,1.16-2,1.7-3,.27-.52.54-1,.79-1.58v-.47a.77.77,0,0,1,.55-.73l.19-.4-.68-.54-.56-.43-1.42-1.05-.52-.37,0,0v.35a.77.77,0,0,1-.77.77h-11a.76.76,0,0,1-.77-.77v-1a.77.77,0,0,1,.77-.77h9.69l-.41-.26-1.39-.88-.84-.51-1.19-.7-.88-.5-1.28-.69c-.26-.14-.52-.28-.79-.41-.69-.36-1.39-.71-2.09-1a35.19,35.19,0,0,0-3,2.46l-.31.3A.74.74,0,0,1,578.77,192.07Z"/><path class="cls-13" d="M589.68,192.63l1.39.88Z"/><path class="cls-13" d="M585.49,190.23l1.28.69Z"/><path class="cls-13" d="M593.56,195.19c-.63-.45-1.27-.88-1.91-1.31.63.42,1.24.84,1.86,1.27Z"/><path class="cls-13" d="M596.74,197.57l-.68-.53.68.54Z"/><path class="cls-13" d="M587.65,191.42l1.19.7C588.45,191.88,588.05,191.65,587.65,191.42Z"/><rect class="cls-14" x="596" y="222.91" width="12.49" height="2.5" rx="0.77"/><rect class="cls-14" x="596" y="231.24" width="12.49" height="2.5" rx="0.77"/><rect class="cls-14" x="596" y="239.56" width="12.49" height="2.5" rx="0.77"/><path class="cls-14" d="M597.45,198.14l.48.4Z"/><path class="cls-14" d="M599.49,199.86l.25.21Z"/><path class="cls-14" d="M596.77,197.94a.85.85,0,0,0-.22,0c-.18.4-.36.8-.55,1.2v.48a.77.77,0,0,0,.77.77h3.37c-.14-.11-.27-.24-.4-.36l-.25-.21q-.76-.68-1.56-1.32l-.48-.4-.26-.2Z"/><path class="cls-14" d="M596,198.71v.47c.19-.4.37-.8.55-1.2A.77.77,0,0,0,596,198.71Z"/><path class="cls-14" d="M606.61,207l.32.37Z"/><path class="cls-14" d="M596.77,206.26a.78.78,0,0,0-.77.77v1a.78.78,0,0,0,.77.77h11a.69.69,0,0,0,.32-.08c-.36-.44-.73-.89-1.11-1.33l-.32-.37-.64-.72Z"/><rect class="cls-14" x="596" y="214.59" width="12.49" height="2.5" rx="0.77"/><rect class="cls-14" x="596" y="247.89" width="12.49" height="2.5" rx="0.77"/><rect class="cls-14" x="596" y="256.22" width="12.49" height="2.5" rx="0.77"/><rect class="cls-14" x="596" y="264.54" width="12.49" height="2.5" rx="0.77"/><rect class="cls-14" x="596" y="272.87" width="12.49" height="2.5" rx="0.77"/><rect class="cls-14" x="596" y="281.19" width="12.49" height="2.5" rx="0.77"/><rect class="cls-14" x="596" y="289.52" width="12.49" height="2.5" rx="0.77"/><rect class="cls-14" x="596" y="297.84" width="12.49" height="2.5" rx="0.77"/><rect class="cls-14" x="596" y="306.17" width="12.49" height="2.5" rx="0.77"/><path class="cls-14" d="M608.44,316.46a.74.74,0,0,1-.61.51Z"/><path class="cls-14" d="M608.49,316.22v-1a.77.77,0,0,0-.77-.77h-11a.78.78,0,0,0-.77.77v1a.77.77,0,0,0,.77.77h11l.11,0,.61-.51A.69.69,0,0,0,608.49,316.22Z"/><path class="cls-14" d="M600,322.82c-1.2.8-2.43,1.57-3.67,2.31a.74.74,0,0,1-.28-.58v-1a.76.76,0,0,1,.77-.77Z"/><path class="cls-14" d="M619.81,228.85c.11.3.23.6.34.91C620,229.45,619.92,229.15,619.81,228.85Z"/><path class="cls-14" d="M620.68,231.24a.49.49,0,0,0,0-.11l0,.11Z"/><path class="cls-14" d="M612.59,228.74a.78.78,0,0,0-.77.77v1a.78.78,0,0,0,.77.77h8.09l0-.11c-.16-.46-.32-.92-.49-1.37s-.23-.61-.34-.91l0-.11Z"/><path class="cls-14" d="M622.5,237.36a2.46,2.46,0,0,0-.07-.29h0A2.46,2.46,0,0,1,622.5,237.36Z"/><path class="cls-14" d="M623,239.56c-.06-.23-.11-.47-.16-.7l.15.7Z"/><path class="cls-14" d="M612.59,237.07a.77.77,0,0,0-.77.77v.95a.77.77,0,0,0,.77.77H623l-.15-.7c-.12-.5-.24-1-.37-1.5a2.46,2.46,0,0,0-.07-.29Z"/><path class="cls-14" d="M624.29,247.25c0-.1,0-.2,0-.3l0,.32Z"/><path class="cls-14" d="M623.54,245.39H612.59a.78.78,0,0,0-.77.77v1a.78.78,0,0,0,.77.77h10.95a.76.76,0,0,0,.74-.62l0-.32c0-.45-.11-.89-.17-1.34A.8.8,0,0,0,623.54,245.39Z"/><path class="cls-14" d="M611.82,213.82a.77.77,0,0,0,.56.73c-.18-.28-.37-.56-.56-.84Z"/><path class="cls-14" d="M616.56,221.63l.42.82Z"/><path class="cls-14" d="M612.59,220.42a.77.77,0,0,0-.77.77v.95a.77.77,0,0,0,.77.77h4.61l-.22-.46-.42-.82c-.21-.41-.42-.81-.64-1.21Z"/><rect class="cls-14" x="611.82" y="253.72" width="12.49" height="2.5" rx="0.77"/><rect class="cls-14" x="611.82" y="262.04" width="12.49" height="2.5" rx="0.77"/><rect class="cls-14" x="611.82" y="270.37" width="12.49" height="2.5" rx="0.77"/><rect class="cls-14" x="611.82" y="278.69" width="12.49" height="2.5" rx="0.77"/><rect class="cls-14" x="611.82" y="287.02" width="12.49" height="2.5" rx="0.77"/><rect class="cls-14" x="611.82" y="295.35" width="12.49" height="2.5" rx="0.77"/><path class="cls-14" d="M620.93,303.67c-.67.85-1.37,1.68-2.08,2.5h-6.26a.76.76,0,0,1-.76-.77v-1a.76.76,0,0,1,.76-.77Z"/><path class="cls-14" d="M613.36,312l-1.53,1.48v-.71a.77.77,0,0,1,.76-.77Z"/><rect class="cls-14" x="581.02" y="218.75" width="12.49" height="2.5" rx="0.77"/><rect class="cls-14" x="581.02" y="227.08" width="12.49" height="2.5" rx="0.77"/><rect class="cls-14" x="581.02" y="235.4" width="12.49" height="2.5" rx="0.77"/><path class="cls-14" d="M591.65,193.88l-.16-.11h0Z"/><path class="cls-14" d="M581.79,193.77a.77.77,0,0,0-.77.77v1a.76.76,0,0,0,.77.77h11a.77.77,0,0,0,.77-.77v-.35c-.62-.43-1.23-.85-1.86-1.27l-.17-.11Z"/><path class="cls-14" d="M593.51,203.83v-.05l-.45.74A.77.77,0,0,0,593.51,203.83Z"/><path class="cls-14" d="M592.74,202.1h-11a.77.77,0,0,0-.77.77v1a.77.77,0,0,0,.77.77h11a.72.72,0,0,0,.32-.08l.45-.74v-.91A.78.78,0,0,0,592.74,202.1Z"/><path class="cls-14" d="M592.74,212.92a.77.77,0,0,0,.77-.77v-1a.77.77,0,0,0-.77-.76h-3.91c-.71.85-1.44,1.69-2.19,2.49Z"/><path class="cls-14" d="M581,211.19v1a.76.76,0,0,0,.77.77h4.85c.75-.8,1.48-1.64,2.19-2.49h-7A.76.76,0,0,0,581,211.19Z"/><rect class="cls-14" x="581.02" y="243.73" width="12.49" height="2.5" rx="0.77"/><rect class="cls-14" x="581.02" y="252.05" width="12.49" height="2.5" rx="0.77"/><rect class="cls-14" x="581.02" y="260.38" width="12.49" height="2.5" rx="0.77"/><rect class="cls-14" x="581.02" y="268.7" width="12.49" height="2.5" rx="0.77"/><rect class="cls-14" x="581.02" y="277.03" width="12.49" height="2.5" rx="0.77"/><rect class="cls-14" x="581.02" y="285.35" width="12.49" height="2.5" rx="0.77"/><rect class="cls-14" x="581.02" y="293.68" width="12.49" height="2.5" rx="0.77"/><rect class="cls-14" x="581.02" y="302.01" width="12.49" height="2.5" rx="0.77"/><rect class="cls-14" x="581.02" y="310.33" width="12.49" height="2.5" rx="0.77"/><rect class="cls-14" x="581.02" y="318.66" width="12.49" height="2.5" rx="0.77"/><path class="cls-14" d="M579.35,208v-1a.77.77,0,0,0-.77-.77h-8.49c-.25.82-.47,1.66-.67,2.5h9.16A.77.77,0,0,0,579.35,208Z"/><path class="cls-14" d="M579.35,216.32v-1a.76.76,0,0,0-.77-.77h-10q-.06,1-.06,1.95v.55h10.05A.77.77,0,0,0,579.35,216.32Z"/><path class="cls-14" d="M578.58,225.41a.77.77,0,0,0,.77-.77v-1a.77.77,0,0,0-.77-.77h-4.44a53.06,53.06,0,0,1-4.86,2.5Z"/><path class="cls-14" d="M568.53,225.41h.75a53.06,53.06,0,0,0,4.86-2.5h-5.61Z"/><path class="cls-14" d="M579.31,191.54l-.54.53A.74.74,0,0,0,579.31,191.54Z"/><path class="cls-14" d="M579.35,199.66v-.95a.76.76,0,0,0-.77-.77H574q-.78,1.22-1.47,2.49h6.05A.76.76,0,0,0,579.35,199.66Z"/><path class="cls-14" d="M578.58,233.74a.77.77,0,0,0,.77-.77v-1a.77.77,0,0,0-.77-.77H568.53v2.5Z"/><path class="cls-14" d="M578.58,242.06a.76.76,0,0,0,.77-.77v-1a.77.77,0,0,0-.77-.77H568.53v2.5Z"/><path class="cls-14" d="M578.58,250.39a.77.77,0,0,0,.77-.77v-1a.77.77,0,0,0-.77-.77H568.53v2.5Z"/><path class="cls-14" d="M578.58,258.71a.76.76,0,0,0,.77-.77V257a.76.76,0,0,0-.77-.77H568.53v2.49Z"/><path class="cls-14" d="M578.58,267a.77.77,0,0,0,.77-.77v-1a.77.77,0,0,0-.77-.77H568.53V267Z"/><path class="cls-14" d="M578.58,275.36a.76.76,0,0,0,.77-.77v-.95a.76.76,0,0,0-.77-.77H568.53v2.49Z"/><path class="cls-14" d="M578.58,283.69a.77.77,0,0,0,.77-.77v-1a.77.77,0,0,0-.77-.77H568.53v2.5Z"/><path class="cls-14" d="M578.58,292a.77.77,0,0,0,.77-.77v-1a.76.76,0,0,0-.77-.77H568.53V292Z"/><path class="cls-14" d="M578.58,300.34a.77.77,0,0,0,.77-.77v-1a.77.77,0,0,0-.77-.77H568.53v2.5Z"/><path class="cls-14" d="M578.58,308.67a.77.77,0,0,0,.77-.77v-1a.76.76,0,0,0-.77-.77H568.53v2.5Z"/><path class="cls-14" d="M578.58,317a.76.76,0,0,0,.77-.77v-1a.77.77,0,0,0-.77-.77H568.53V317Z"/><path class="cls-14" d="M578.58,325.32a.77.77,0,0,0,.77-.77v-1a.77.77,0,0,0-.77-.77H568.53v2.5Z"/></svg>