<svg id="Calque_1" data-name="Calque 1" xmlns="http://www.w3.org/2000/svg" viewBox="0 0 1125 2436"><defs><style>.cls-1,.cls-3{fill:#ffae00;}.cls-1{stroke:#fff;stroke-width:0.25px;}.cls-1,.cls-13{stroke-miterlimit:10;}.cls-2{fill:#e02229;}.cls-13,.cls-4{fill:none;}.cls-5{fill:#fff;}.cls-6{fill:#00b2ae;}.cls-7{fill:#ffcc97;}.cls-8{fill:#2db17e;}.cls-9{fill:#ffb777;}.cls-10{fill:#303030;}.cls-11{fill:#f1f1f1;}.cls-12{fill:#4c4c4c;}.cls-13{stroke:#e02229;stroke-width:8.19px;}</style></defs><title>Plan de travail 1 copie</title><rect class="cls-1" x="-2.08" y="-0.03" width="1124.36" height="2435.01"/><rect class="cls-2" x="133.72" y="442.41" width="864.28" height="158.27" rx="31.75"/><path class="cls-3" d="M447.93,540.17V534h12.42V521.55H447.93v-6.21h-6.2v-6.2h6.2v-6.21h24.83v6.21H454.14v6.2h18.62v6.21H479V534h-6.21v6.21Zm-6.2-6.21v-6.2h6.2V534Z"/><path class="cls-3" d="M497.59,540.17V534h-6.21V509.14h6.21v-6.21h24.82v6.21h6.21v6.2H516.21v-6.2H503.79V534h12.42v-6.2h12.41V534h-6.21v6.21Z"/><path class="cls-3" d="M547.24,540.17V534H541V509.14h6.21v-6.21h24.83v6.21h6.2V534h-6.2v6.21ZM565.86,534V509.14H553.45V534Z"/><path class="cls-3" d="M590.69,540.17V502.93h31v6.21h6.21v12.41h-6.21v6.21h-6.21V534h-6.2v-6.2H603.1v12.41Zm24.82-18.62V509.14H603.1v12.41Zm0,18.62V534h12.42v6.21Z"/><path class="cls-3" d="M640.34,540.17V502.93h37.24v6.21H652.75v6.2h18.62v6.21H652.75V534h24.83v6.21Z"/><rect class="cls-2" x="126.78" y="819.06" width="871.44" height="62.73"/><rect class="cls-2" x="126.78" y="961.37" width="871.44" height="62.73"/><rect class="cls-2" x="126.78" y="1103.69" width="871.44" height="62.73"/><rect class="cls-2" x="126.78" y="1246" width="871.44" height="62.73"/><rect class="cls-2" x="126.78" y="1388.32" width="871.44" height="62.73"/><rect class="cls-2" x="126.78" y="1530.63" width="871.44" height="62.73"/><rect class="cls-2" x="126.78" y="1672.95" width="871.44" height="62.73"/><rect class="cls-2" x="126.78" y="1815.27" width="871.44" height="62.73"/><rect class="cls-2" x="126.78" y="1943.63" width="871.44" height="62.73"/><rect class="cls-2" x="126.78" y="2085.95" width="871.44" height="62.73"/><rect class="cls-2" x="126.78" y="2228.27" width="871.44" height="62.73"/><path class="cls-2" d="M143.52,794.82V789h-5.86V765.54h5.86v-5.86H167v5.86h5.85v5.86H161.09v-5.86H149.38V789h11.71v-5.86H172.8V789H167v5.85Z"/><path class="cls-2" d="M186.39,794.82V759.68h5.86V771.4h17.57V759.68h11.71v35.14H209.82V777.25H192.25v17.57Z"/><path class="cls-2" d="M235.12,794.82V765.54H241v11.71h11.72V765.54H241v-5.86H264.4v5.86h5.86v29.28H252.69V783.11H241v11.71Z"/><path class="cls-2" d="M283.85,794.82V759.68h29.28v5.86H319v11.71h-5.86v5.86h-5.86V789h-5.85v-5.86h-5.86v11.71Zm23.42-17.57V765.54H295.56v11.71Zm0,17.57V789H319v5.85Z"/><path class="cls-2" d="M332.58,794.82V759.68h11.71V789h23.43v5.85Z"/><path class="cls-2" d="M381.3,794.82V759.68h35.15v5.86H393v5.86h17.57v5.85H393V789h23.43v5.85Z"/><path class="cls-2" d="M435.89,794.82V789H447.6V777.25H435.89V771.4H430v-5.86h5.86v-5.86h23.43v5.86H441.75v5.86h17.57v5.85h5.85V789h-5.85v5.85ZM430,789v-5.86h5.86V789Z"/><path class="cls-3" d="M137.66,866.57V831.43h11.72v29.28H172.8v5.86Z"/><path class="cls-3" d="M192.25,866.57v-5.86h-5.86V837.29h5.86v-5.86h23.42v5.86h5.86v23.42h-5.86v5.86Zm17.57-5.86V837.29H198.1v23.42Z"/><path class="cls-3" d="M235.12,860.71V831.43H241v29.28Zm5.85,5.86v-5.86h11.72v-5.85h5.86V831.43h11.71v29.28H264.4v5.86Z"/><path class="cls-3" d="M289.7,866.57v-5.86h5.86V837.29H289.7v-5.86h23.43v5.86h-5.86v23.42h5.86v5.86Z"/><path class="cls-3" d="M338.43,866.57v-5.86h11.72V849H338.43v-5.86h-5.85v-5.85h5.85v-5.86h23.43v5.86H344.29v5.85h17.57V849h5.86v11.71h-5.86v5.86Zm-5.85-5.86v-5.85h5.85v5.85Z"/><path class="cls-3" d="M381.3,866.57V831.43h35.15v5.86H393v5.85h17.57V849H393v11.71h23.43v5.86Z"/><path class="cls-2" d="M143.52,938.32v-5.86h-5.86V909h5.86v-5.86H167V909h5.85v5.86H161.09V909H149.38v23.43h11.71V926.6H172.8v5.86H167v5.86Z"/><path class="cls-2" d="M186.39,938.32V903.17H198.1v29.29h23.43v5.86Z"/><path class="cls-2" d="M235.12,938.32V909H241v11.71h11.72V909H241v-5.86H264.4V909h5.86v29.29H252.69V926.6H241v11.72Z"/><path class="cls-2" d="M283.85,938.32V903.17h29.28V909H319v11.71h-5.86v5.86h-5.86v5.86h-5.85V926.6h-5.86v11.72Zm23.42-17.58V909H295.56v11.71Zm0,17.58v-5.86H319v5.86Z"/><path class="cls-2" d="M332.58,938.32V909h5.85v11.71h11.72V909H338.43v-5.86h23.43V909h5.86v29.29H350.15V926.6H338.43v11.72Z"/><path class="cls-3" d="M137.66,1010.06V974.92h5.86v5.86h5.86v5.85h5.85v-5.85h5.86v-5.86H172.8v35.14H161.09V992.49h-5.86v5.86h-5.85v-5.86h-5.86v17.57Z"/><path class="cls-3" d="M186.39,1010.06V974.92h35.14v5.86H198.1v5.85h17.57v5.86H198.1v11.71h23.43v5.86Z"/><path class="cls-3" d="M235.12,1010.06V974.92h11.71v29.28h23.43v5.86Z"/><path class="cls-3" d="M283.85,1010.06V980.78h5.85v11.71h11.72V980.78H289.7v-5.86h23.43v5.86H319v29.28H301.42V998.35H289.7v11.71Z"/><path class="cls-3" d="M332.58,1010.06V974.92h5.85v5.86h5.86v5.85h5.86v5.86H356V974.92h11.72v35.14H356v-5.86h-5.85v-5.85h-5.86v-5.86h-5.86v17.57Z"/><path class="cls-3" d="M387.16,1010.06v-5.86H393V980.78h-5.86v-5.86h23.43v5.86h-5.86v23.42h5.86v5.86Z"/><path class="cls-3" d="M430,1010.06V980.78h5.86v11.71H447.6V980.78H435.89v-5.86h23.43v5.86h5.85v29.28H447.6V998.35H435.89v11.71Z"/><path class="cls-2" d="M137.66,1081.81v-29.29h5.86v11.72h11.71v-11.72H143.52v-5.85H167v5.85h5.85v29.29H155.23v-11.72H143.52v11.72Z"/><path class="cls-2" d="M186.39,1081.81v-35.14h5.86v5.85h5.85v5.86H204v5.86h5.86v-17.57h11.71v35.14H209.82V1076H204v-5.86H198.1v-5.85h-5.85v17.57Z"/><path class="cls-2" d="M241,1081.81V1076h-5.85v-23.43H241v-5.85H264.4v5.85h5.86v5.86H258.55v-5.86H246.83V1076h11.72v-5.86h-5.86v-5.85h17.57v17.57Z"/><path class="cls-2" d="M283.85,1081.81v-35.14H319v5.85H295.56v5.86h17.57v5.86H295.56V1076H319v5.86Z"/><path class="cls-2" d="M332.58,1081.81v-35.14h11.71V1076h23.43v5.86Z"/><path class="cls-2" d="M381.3,1081.81v-35.14h35.15v5.85H393v5.86h17.57v5.86H393V1076h23.43v5.86Z"/><path class="cls-3" d="M137.66,1153.55v-29.28h5.86V1136h11.71v-11.71H143.52v-5.86H167v5.86h5.85v29.28H155.23v-11.71H143.52v11.71Z"/><path class="cls-3" d="M186.39,1153.55v-35.14H198.1v29.29h23.43v5.85Z"/><path class="cls-3" d="M235.12,1153.55v-35.14h35.14v5.86H246.83v5.86H264.4V1136H246.83v11.72h23.43v5.85Z"/><path class="cls-3" d="M283.85,1153.55v-11.71h5.85V1136h5.86v-5.85h5.86v-5.86h5.85v-5.86H319v5.86h-5.86v5.86h-5.86v11.71H295.56v5.86H289.7v5.85Zm0-29.28v-5.86h5.85v5.86Zm5.85,5.86v-5.86h5.86v5.86Zm17.57,17.57v-5.86h5.86v5.86Zm5.86,5.85v-5.85H319v5.85Z"/><path class="cls-2" d="M137.66,1225.3v-35.14h5.86V1196h5.86v5.86h5.85V1196h5.86v-5.85H172.8v35.14H161.09v-17.57h-5.86v5.85h-5.85v-5.85h-5.86v17.57Z"/><path class="cls-2" d="M186.39,1225.3V1196h5.86v11.72H204V1196H192.25v-5.85h23.42V1196h5.86v29.29H204v-11.72H192.25v11.72Z"/><path class="cls-2" d="M235.12,1225.3v-11.72H241v-5.85h5.86v-5.86h5.86V1196h5.86v-5.85h11.71V1196H264.4v5.86h-5.85v11.71H246.83v5.86H241v5.86Zm0-29.29v-5.85H241V1196Zm5.85,5.86V1196h5.86v5.86Zm17.58,17.57v-5.86h5.85v5.86Zm5.85,5.86v-5.86h5.86v5.86Z"/><path class="cls-2" d="M289.7,1225.3v-5.86h5.86V1196H289.7v-5.85h23.43V1196h-5.86v23.43h5.86v5.86Z"/><path class="cls-2" d="M332.58,1225.3v-35.14h5.85V1196h5.86v5.86h5.86V1196H356v-5.85h11.72v35.14H356v-17.57h-5.85v5.85h-5.86v-5.85h-5.86v17.57Z"/><path class="cls-2" d="M381.3,1225.3v-35.14h35.15V1196H393v5.86h17.57v5.86H393v11.71h23.43v5.86Z"/><path class="cls-3" d="M143.52,1297v-5.85h-5.86v-23.43h5.86v-5.86H167v5.86h5.85v5.86H161.09v-5.86H149.38v23.43h11.71v-5.86H172.8v5.86H167V1297Z"/><path class="cls-3" d="M186.39,1297V1261.9h5.86v11.72h17.57V1261.9h11.71V1297H209.82v-17.57H192.25V1297Z"/><path class="cls-3" d="M235.12,1297v-29.28H241v11.71h11.72v-11.71H241v-5.86H264.4v5.86h5.86V1297H252.69v-11.71H241V1297Z"/><path class="cls-3" d="M283.85,1297V1261.9h29.28v5.86H319v11.71h-5.86v5.86h-5.86v5.86h-5.85v-5.86h-5.86V1297Zm23.42-17.57v-11.71H295.56v11.71Zm0,17.57v-5.85H319V1297Z"/><path class="cls-3" d="M332.58,1297V1261.9h11.71v29.29h23.43V1297Z"/><path class="cls-3" d="M381.3,1297V1261.9h35.15v5.86H393v5.86h17.57v5.85H393v11.72h23.43V1297Z"/><path class="cls-3" d="M435.89,1297v-5.85H447.6v-11.72H435.89v-5.85H430v-5.86h5.86v-5.86h23.43v5.86H441.75v5.86h17.57v5.85h5.85v11.72h-5.85V1297Zm-5.86-5.85v-5.86h5.86v5.86Z"/><path class="cls-2" d="M137.66,1368.79v-35.14h11.72v29.28H172.8v5.86Z"/><path class="cls-2" d="M192.25,1368.79v-5.86h-5.86v-23.42h5.86v-5.86h23.42v5.86h5.86v23.42h-5.86v5.86Zm17.57-5.86v-23.42H198.1v23.42Z"/><path class="cls-2" d="M235.12,1362.93v-29.28H241v29.28Zm5.85,5.86v-5.86h11.72v-5.85h5.86v-23.43h11.71v29.28H264.4v5.86Z"/><path class="cls-2" d="M289.7,1368.79v-5.86h5.86v-23.42H289.7v-5.86h23.43v5.86h-5.86v23.42h5.86v5.86Z"/><path class="cls-2" d="M338.43,1368.79v-5.86h11.72v-11.71H338.43v-5.86h-5.85v-5.85h5.85v-5.86h23.43v5.86H344.29v5.85h17.57v5.86h5.86v11.71h-5.86v5.86Zm-5.85-5.86v-5.85h5.85v5.85Z"/><path class="cls-2" d="M381.3,1368.79v-35.14h35.15v5.86H393v5.85h17.57v5.86H393v11.71h23.43v5.86Z"/><path class="cls-3" d="M137.66,1440.53v-35.14H167v5.86h5.85v23.43H167v5.85Zm17.57-5.85v-23.43H143.52v23.43Z"/><path class="cls-3" d="M186.39,1440.53v-29.28h5.86V1423H204v-11.71H192.25v-5.86h23.42v5.86h5.86v29.28H204v-11.71H192.25v11.71Z"/><path class="cls-3" d="M235.12,1428.82v-23.43H241v23.43Zm5.85,5.86v-5.86h5.86v5.86Zm5.86,5.85v-5.85h5.86v-5.86h5.86v-23.43h11.71v23.43H264.4v5.86h-5.85v5.85Z"/><path class="cls-3" d="M289.7,1440.53v-5.85h5.86v-23.43H289.7v-5.86h23.43v5.86h-5.86v23.43h5.86v5.85Z"/><path class="cls-3" d="M332.58,1440.53v-35.14h29.28v5.86h5.86v23.43h-5.86v5.85Zm17.57-5.85v-23.43H338.43v23.43Z"/><path class="cls-2" d="M143.52,1512.28v-5.86h11.71v-11.71H143.52v-5.86h-5.86V1483h5.86v-5.86H167V1483H149.38v5.85H167v5.86h5.85v11.71H167v5.86Zm-5.86-5.86v-5.85h5.86v5.85Z"/><path class="cls-2" d="M186.39,1506.42v-29.28h5.86v29.28Zm5.86,5.86v-5.86H204v-5.85h5.86v-23.43h11.71v29.28h-5.86v5.86Z"/><path class="cls-2" d="M235.12,1512.28v-11.71H241v-5.86h5.86v-5.86h5.86V1483H235.12v-5.86h35.14v11.71H264.4v5.86h-5.85v5.86h-5.86v5.85h17.57v5.86Z"/><path class="cls-2" d="M289.7,1512.28v-5.86h5.86V1483H289.7v-5.86h23.43V1483h-5.86v23.42h5.86v5.86Z"/><path class="cls-2" d="M332.58,1512.28v-35.14h35.14V1483H344.29v5.85h17.57v5.86H344.29v11.71h23.43v5.86Z"/><path class="cls-3" d="M143.52,1584v-5.86h-5.86v-23.43h5.86v-5.85H167v5.85h5.85v5.86H161.09v-5.86H149.38v23.43h11.71v-5.86H172.8v5.86H167V1584Z"/><path class="cls-3" d="M186.39,1584v-35.14H198.1v29.28h23.43V1584Z"/><path class="cls-3" d="M235.12,1584v-29.29H241v11.72h11.72v-11.72H241v-5.85H264.4v5.85h5.86V1584H252.69v-11.72H241V1584Z"/><path class="cls-3" d="M283.85,1584v-35.14h29.28v5.85H319v11.72h-5.86v5.85h-5.86v5.86h-5.85v-5.86h-5.86V1584Zm23.42-17.57v-11.72H295.56v11.72Zm0,17.57v-5.86H319V1584Z"/><path class="cls-3" d="M332.58,1584v-29.29h5.85v11.72h11.72v-11.72H338.43v-5.85h23.43v5.85h5.86V1584H350.15v-11.72H338.43V1584Z"/><path class="cls-2" d="M143.52,1655.77v-5.86h-5.86v-23.42h5.86v-5.86H167v5.86h5.85v5.85H161.09v-5.85H149.38v23.42h11.71v-5.85H172.8v5.85H167v5.86Z"/><path class="cls-2" d="M192.25,1655.77v-5.86h-5.86v-23.42h5.86v-5.86h23.42v5.86h5.86v23.42h-5.86v5.86Zm17.57-5.86v-23.42H198.1v23.42Z"/><path class="cls-2" d="M235.12,1655.77v-35.14H264.4v5.86h5.86v11.71H264.4v5.86h-5.85v5.85h-5.86v-5.85h-5.86v11.71Zm23.43-17.57v-11.71H246.83v11.71Zm0,17.57v-5.86h11.71v5.86Z"/><path class="cls-2" d="M283.85,1655.77v-29.28h5.85v11.71h11.72v-11.71H289.7v-5.86h23.43v5.86H319v29.28H301.42v-11.71H289.7v11.71Z"/><path class="cls-2" d="M332.58,1655.77v-35.14h11.71v29.28h23.43v5.86Z"/><path class="cls-2" d="M387.16,1655.77v-5.86H393v-23.42h-5.86v-5.86h23.43v5.86h-5.86v23.42h5.86v5.86Z"/><path class="cls-2" d="M430,1655.77v-35.14h35.14v5.86H441.75v5.85h17.57v5.86H441.75v11.71h23.42v5.86Z"/><path class="cls-3" d="M137.66,1727.52v-35.14h5.86v5.85h5.86v5.86h5.85v-5.86h5.86v-5.85H172.8v35.14H161.09V1710h-5.86v5.85h-5.85V1710h-5.86v17.57Z"/><path class="cls-3" d="M186.39,1727.52v-29.29h5.86V1710H204v-11.72H192.25v-5.85h23.42v5.85h5.86v29.29H204V1715.8H192.25v11.72Z"/><path class="cls-3" d="M235.12,1727.52V1715.8H241V1710h5.86v-5.86h5.86v-5.86h5.86v-5.85h11.71v5.85H264.4v5.86h-5.85v11.71H246.83v5.86H241v5.86Zm0-29.29v-5.85H241v5.85Zm5.85,5.86v-5.86h5.86v5.86Zm17.58,17.57v-5.86h5.85v5.86Zm5.85,5.86v-5.86h5.86v5.86Z"/><path class="cls-3" d="M289.7,1727.52v-5.86h5.86v-23.43H289.7v-5.85h23.43v5.85h-5.86v23.43h5.86v5.86Z"/><path class="cls-3" d="M332.58,1727.52v-35.14h5.85v5.85h5.86v5.86h5.86v-5.86H356v-5.85h11.72v35.14H356V1710h-5.85v5.85h-5.86V1710h-5.86v17.57Z"/><path class="cls-3" d="M381.3,1727.52v-35.14h35.15v5.85H393v5.86h17.57V1710H393v11.71h23.43v5.86Z"/><path class="cls-2" d="M737.84,794.82V789h5.86V771.4h-5.86v-5.86h5.86v-5.86h11.71V789h5.86v5.85Z"/><path class="cls-2" d="M786.57,794.82V789h-5.86V765.54h5.86v-5.86H810v5.86h5.86V789H810v5.85ZM804.14,789V765.54H792.42V789Z"/><path class="cls-2" d="M860.6,794.82V783.11h5.85v-5.86h5.86V771.4h5.86v-5.86H854.74v-5.86h35.14V771.4H884v5.85h-5.85v17.57Z"/><path class="cls-2" d="M909.33,794.82V783.11h5.85v-5.86H921V771.4h5.86v-5.86H903.47v-5.86h35.14V771.4h-5.86v5.85H926.9v17.57Z"/><path class="cls-2" d="M958.05,794.82V789H952.2V765.54h5.85v-5.86h23.43v5.86h5.86V789h-5.86v5.85ZM975.62,789V765.54H963.91V789Z"/><path class="cls-3" d="M780.71,849V837.29h5.86V849Zm5.86,17.57v-5.86h11.71v-5.85H786.57V849h11.71V837.29H786.57v-5.86H810v5.86h5.86v23.42H810v5.86Z"/><path class="cls-3" d="M860.6,866.57v-5.86h-5.86V837.29h5.86v-5.86H884v5.86h5.86v23.42H884v5.86Zm17.57-5.86V837.29H866.45v23.42Z"/><path class="cls-3" d="M903.47,843.14v-5.85h5.86v5.85Zm0,17.57V849h5.86v11.71Zm5.86,5.86v-5.86H921V849H909.33v-5.86H921v-5.85H909.33v-5.86h23.42v5.86h5.86v5.85h-5.86V849h5.86v11.71h-5.86v5.86Z"/><path class="cls-3" d="M958.05,866.57v-5.86h11.72V849H952.2V831.43h29.28v5.86H963.91v5.85h17.57V849h5.86v11.71h-5.86v5.86Zm-5.85-5.86v-5.85h5.85v5.85Z"/><path class="cls-2" d="M780.71,920.74V909h5.86v11.71Zm5.86,17.58v-5.86h11.71V926.6H786.57v-5.86h11.71V909H786.57v-5.86H810V909h5.86v23.43H810v5.86Z"/><path class="cls-2" d="M860.6,938.32v-5.86h-5.86V909h5.86v-5.86H884V909h5.86v23.43H884v5.86Zm17.57-5.86V909H866.45v23.43Z"/><path class="cls-2" d="M909.33,938.32v-5.86h-5.86V909h5.86v-5.86h23.42V909h5.86v23.43h-5.86v5.86Zm17.57-5.86V909H915.18v23.43Z"/><path class="cls-2" d="M958.05,938.32v-5.86H952.2V909h5.85v-5.86h23.43V909h5.86v23.43h-5.86v5.86Zm17.57-5.86V909H963.91v23.43Z"/><path class="cls-3" d="M780.71,986.63v-5.85h5.86v5.85Zm0,17.57V992.49h5.86v11.71Zm5.86,5.86v-5.86h11.71V992.49H786.57v-5.86h11.71v-5.85H786.57v-5.86H810v5.86h5.86v5.85H810v5.86h5.86v11.71H810v5.86Z"/><path class="cls-3" d="M854.74,992.49V980.78h5.86v11.71Zm5.86,17.57v-5.86h11.71v-5.85H860.6v-5.86h11.71V980.78H860.6v-5.86H884v5.86h5.86v23.42H884v5.86Z"/><path class="cls-3" d="M921,1010.06v-5.86H903.47V980.78h5.86v-5.86h23.42v23.43h5.86v5.85h-5.86v5.86Zm0-11.71V980.78h-5.86v5.85h-5.85v11.72Z"/><path class="cls-3" d="M958.05,1010.06v-5.86H952.2V980.78h5.85v-5.86h23.43v5.86h5.86v23.42h-5.86v5.86Zm17.57-5.86V980.78H963.91v23.42Z"/><path class="cls-2" d="M780.71,1058.38v-5.86h5.86v5.86Zm0,17.57v-11.71h5.86V1076Zm5.86,5.86V1076h11.71v-11.71H786.57v-5.86h11.71v-5.86H786.57v-5.85H810v5.85h5.86v5.86H810v5.86h5.86V1076H810v5.86Z"/><path class="cls-2" d="M854.74,1081.81V1076h17.57v-11.71H860.6v-5.86h11.71v-5.86H854.74v-5.85H884v5.85h5.86v5.86H884v5.86h5.86V1076H884v5.86Z"/><path class="cls-2" d="M903.47,1064.24v-11.72h5.86v11.72Zm5.86,17.57V1076H921v-5.86H909.33v-5.85H921v-11.72H909.33v-5.85h23.42v5.85h5.86V1076h-5.86v5.86Z"/><path class="cls-2" d="M958.05,1081.81V1076H952.2v-23.43h5.85v-5.85h23.43v5.85h5.86V1076h-5.86v5.86Zm17.57-5.86v-23.43H963.91V1076Z"/><path class="cls-3" d="M786.57,1153.55v-11.71h5.85V1136h5.86v-5.85h5.86v-5.86H780.71v-5.86h35.14v11.72H810V1136h-5.85v17.57Z"/><path class="cls-3" d="M860.6,1153.55v-5.85h11.71V1136H854.74v-17.57H884v5.86H866.45v5.86H884V1136h5.86v11.72H884v5.85Zm-5.86-5.85v-5.86h5.86v5.86Z"/><path class="cls-3" d="M909.33,1153.55v-5.85h-5.86v-23.43h5.86v-5.86h23.42v5.86h5.86v23.43h-5.86v5.85Zm17.57-5.85v-23.43H915.18v23.43Z"/><path class="cls-3" d="M958.05,1153.55v-5.85H952.2v-23.43h5.85v-5.86h23.43v5.86h5.86v23.43h-5.86v5.85Zm17.57-5.85v-23.43H963.91v23.43Z"/><path class="cls-2" d="M786.57,1225.3v-11.72h5.85v-5.85h5.86v-5.86h5.86V1196H780.71v-5.85h35.14v11.71H810v5.86h-5.85v17.57Z"/><path class="cls-2" d="M860.6,1225.3v-5.86h5.85v-17.57H860.6V1196h5.85v-5.85h11.72v29.28H884v5.86Z"/><path class="cls-2" d="M909.33,1225.3v-11.72h5.85v-5.85H921v-5.86h5.86V1196H903.47v-5.85h35.14v11.71h-5.86v5.86H926.9v17.57Z"/><path class="cls-2" d="M958.05,1225.3v-5.86H952.2V1196h5.85v-5.85h23.43V1196h5.86v23.43h-5.86v5.86Zm17.57-5.86V1196H963.91v23.43Z"/><path class="cls-3" d="M798.28,1297v-5.85H780.71v-23.43h5.86v-5.86H810v23.43h5.86v5.86H810V1297Zm0-11.71v-17.57h-5.86v5.86h-5.85v11.71Z"/><path class="cls-3" d="M854.74,1273.62v-5.86h5.86v5.86Zm0,17.57v-11.72h5.86v11.72Zm5.86,5.85v-5.85h11.71v-11.72H860.6v-5.85h11.71v-5.86H860.6v-5.86H884v5.86h5.86v5.86H884v5.85h5.86v11.72H884V1297Z"/><path class="cls-3" d="M909.33,1297v-11.71h5.85v-5.86H921v-5.85h5.86v-5.86H903.47v-5.86h35.14v11.72h-5.86v5.85H926.9V1297Z"/><path class="cls-3" d="M958.05,1297v-5.85H952.2v-23.43h5.85v-5.86h23.43v5.86h5.86v23.43h-5.86V1297Zm17.57-5.85v-23.43H963.91v23.43Z"/><path class="cls-2" d="M780.71,1368.79v-11.71h5.86v-5.86h11.71v-11.71H786.57v-5.86H810v5.86h5.86v11.71H810v5.86H798.28v5.85h17.57v5.86Zm0-23.43v-5.85h5.86v5.85Z"/><path class="cls-2" d="M860.6,1368.79v-5.86h-5.86v-23.42h5.86v-5.86H884v5.86H866.45v5.85H884v5.86h5.86v11.71H884v5.86Zm17.57-5.86v-11.71H866.45v11.71Z"/><path class="cls-2" d="M903.47,1345.36v-5.85h5.86v5.85Zm0,17.57v-11.71h5.86v11.71Zm5.86,5.86v-5.86H921v-11.71H909.33v-5.86H921v-5.85H909.33v-5.86h23.42v5.86h5.86v5.85h-5.86v5.86h5.86v11.71h-5.86v5.86Z"/><path class="cls-2" d="M958.05,1368.79v-5.86H952.2v-23.42h5.85v-5.86h23.43v5.86h5.86v23.42h-5.86v5.86Zm17.57-5.86v-23.42H963.91v23.42Z"/><path class="cls-3" d="M780.71,1440.53v-11.71h5.86V1423h11.71v-11.71H786.57v-5.86H810v5.86h5.86V1423H810v5.86H798.28v5.86h17.57v5.85Zm0-23.42v-5.86h5.86v5.86Z"/><path class="cls-3" d="M854.74,1440.53v-11.71h5.86V1423h11.71v-11.71H860.6v-5.86H884v5.86h5.86V1423H884v5.86H872.31v5.86h17.57v5.85Zm0-23.42v-5.86h5.86v5.86Z"/><path class="cls-3" d="M909.33,1440.53v-5.85h-5.86v-23.43h5.86v-5.86h23.42v5.86H915.18v5.86h17.57V1423h5.86v11.72h-5.86v5.85Zm17.57-5.85V1423H915.18v11.72Z"/><path class="cls-3" d="M958.05,1440.53v-5.85h11.72V1423H952.2v-17.57h29.28v5.86H963.91v5.86h17.57V1423h5.86v11.72h-5.86v5.85Zm-5.85-5.85v-5.86h5.85v5.86Z"/><path class="cls-2" d="M786.57,1512.28v-5.86h5.85v-17.57h-5.85V1483h5.85v-5.86h11.72v29.28H810v5.86Z"/><path class="cls-2" d="M854.74,1488.85V1483h5.86v5.85Zm0,17.57v-11.71h5.86v11.71Zm5.86,5.86v-5.86h11.71v-11.71H860.6v-5.86h11.71V1483H860.6v-5.86H884V1483h5.86v5.85H884v5.86h5.86v11.71H884v5.86Z"/><path class="cls-2" d="M903.47,1512.28v-11.71h5.86v-5.86H921V1483H909.33v-5.86h23.42V1483h5.86v11.71h-5.86v5.86H921v5.85h17.57v5.86Zm0-23.43V1483h5.86v5.85Z"/><path class="cls-2" d="M958.05,1512.28v-5.86H952.2V1483h5.85v-5.86h23.43V1483h5.86v23.42h-5.86v5.86Zm17.57-5.86V1483H963.91v23.42Z"/><path class="cls-3" d="M860.6,1584v-5.86h-5.86v-23.43h5.86v-5.85H884v5.85H866.45v5.86H884v5.86h5.85v11.71H884V1584Zm17.57-5.86v-11.71H866.45v11.71Z"/><path class="cls-3" d="M903.47,1566.46v-11.72h5.86v11.72Zm5.86,17.57v-5.86H921v-5.86H909.33v-5.85H921v-11.72H909.33v-5.85h23.42v5.85h5.86v23.43h-5.86V1584Z"/><path class="cls-3" d="M958.05,1584v-5.86H952.2v-23.43h5.85v-5.85h23.43v5.85h5.86v23.43h-5.86V1584Zm17.57-5.86v-23.43H963.91v23.43Z"/><path class="cls-2" d="M872.31,1655.77v-5.86H854.74v-23.42h5.86v-5.86H884v23.43h5.85v5.85H884v5.86Zm0-11.71v-17.57h-5.86v5.85H860.6v11.72Z"/><path class="cls-2" d="M903.47,1655.77v-5.86H921V1638.2H909.33v-5.86H921v-5.85H903.47v-5.86h29.28v5.86h5.86v5.85h-5.86v5.86h5.86v11.71h-5.86v5.86Z"/><path class="cls-2" d="M958.05,1655.77v-5.86H952.2v-23.42h5.85v-5.86h23.43v5.86h5.86v23.42h-5.86v5.86Zm17.57-5.86v-23.42H963.91v23.42Z"/><path class="cls-3" d="M854.74,1727.52V1715.8h5.86V1710h11.71v-11.72H860.6v-5.85H884v5.85h5.85V1710H884v5.85H872.31v5.86h17.57v5.86Zm0-23.43v-5.86h5.86v5.86Z"/><path class="cls-3" d="M909.33,1727.52v-5.86h5.85v-17.57h-5.85v-5.86h5.85v-5.85H926.9v29.28h5.85v5.86Z"/><path class="cls-3" d="M958.05,1727.52v-5.86H952.2v-23.43h5.85v-5.85h23.43v5.85h5.86v23.43h-5.86v5.86Zm17.57-5.86v-23.43H963.91v23.43Z"/><path class="cls-2" d="M475.45,197.5a54.71,54.71,0,0,0,8.06,9c.86-1.81,1.78-3.58,2.75-5.33A44.48,44.48,0,0,1,475.45,197.5Zm15.85-26.07a54.5,54.5,0,0,0,4.16,16.19q2.55-3.12,5.37-6A43.8,43.8,0,0,1,491.3,171.43Zm27.08-13.63a54.62,54.62,0,0,0-3.26,11.84q2.5-1.71,5.13-3.24A43.8,43.8,0,0,1,518.38,157.8ZM619,169.89a52.25,52.25,0,0,0-15.59-32.32,45,45,0,0,1,.51,23.93A92.77,92.77,0,0,1,619,169.89Zm-52.81-42.66h-.3a123,123,0,0,0-13.51.75h0a120,120,0,0,0-23.24,5c.7,1,1.36,2.08,2,3.17a45.5,45.5,0,0,1,6.1,22.52,92.15,92.15,0,0,1,29.67-4.88h1.19l1.39,0A92,92,0,0,1,594.53,158,54.15,54.15,0,0,0,580,128.05,125.78,125.78,0,0,0,566.16,127.23Z"/><path class="cls-4" d="M633.24,219.51c.16.28.31.56.46.84C633.55,220.07,633.4,219.79,633.24,219.51Z"/><path class="cls-4" d="M630.53,215c.12.17.23.34.34.52C630.76,215.38,630.65,215.21,630.53,215Z"/><path class="cls-4" d="M632.07,217.48l.41.71Z"/><path class="cls-4" d="M635.54,224l.28.58Z"/><path class="cls-4" d="M636.73,226.65c.12.26.23.54.34.81C637,227.19,636.85,226.91,636.73,226.65Z"/><path class="cls-4" d="M641.7,244.18c0,.15,0,.3.07.45C641.74,244.48,641.72,244.33,641.7,244.18Z"/><path class="cls-4" d="M639.31,233.73c.06.19.12.37.17.55C639.43,234.1,639.37,233.92,639.31,233.73Z"/><path class="cls-4" d="M603.89,161.5a45.72,45.72,0,0,1-3.8,10,46.38,46.38,0,0,1-7.35,10.37,55.48,55.48,0,0,0,2.35-16,56.91,56.91,0,0,0-.56-7.89A93.68,93.68,0,0,1,603.89,161.5Z"/><path class="cls-4" d="M626.23,209.13l.42.54Z"/><path class="cls-4" d="M642.54,298.61V255.16c0-.77,0-1.53,0-2.29,0-.29,0-.58,0-.87,0-.54-.06-1.09-.09-1.63,0-.32,0-.63-.07-.94,0-.55-.1-1.08-.15-1.63l0-.28a2.45,2.45,0,0,0,0-.27c0-.1,0-.2,0-.3-.08-.77-.18-1.55-.29-2.32,0-.15,0-.3-.08-.45-.1-.67-.2-1.33-.32-2-.06-.29-.11-.58-.17-.88-.1-.5-.2-1-.31-1.5,0-.08,0-.16,0-.24-.05-.23-.1-.47-.16-.7-.11-.5-.23-1-.36-1.5,0-.1-.05-.2-.07-.3s-.1-.37-.14-.55c-.2-.75-.41-1.49-.63-2.23-.05-.18-.12-.37-.17-.55-.18-.57-.36-1.14-.55-1.71-.08-.26-.18-.52-.26-.78a.49.49,0,0,1,0-.11c-.16-.46-.32-.92-.49-1.38-.12-.29-.23-.6-.35-.9,0,0,0-.07,0-.11l-.51-1.28-.34-.82c-.29-.69-.6-1.38-.91-2.07-.09-.19-.19-.39-.28-.59s-.34-.71-.52-1.06c-.07-.16-.15-.32-.22-.47l-.42-.83c-.22-.4-.43-.81-.65-1.2a.21.21,0,0,0,0-.07l-.46-.84c-.24-.44-.5-.88-.75-1.32l-.42-.71c-.39-.65-.79-1.29-1.19-1.92-.12-.18-.24-.34-.35-.52l-.47-.72-.14-.19-.08-.12-.2-.29h0a.61.61,0,0,1-.07-.1l-.5-.72-.88-1.22-.53-.7c-.33-.44-.67-.87-1-1.3l-.43-.54-.37-.45c-.36-.45-.74-.89-1.11-1.33l-.32-.37c-.41-.47-.82-.92-1.24-1.38l-.53-.57-1.13-1.18-.52-.53c-.45-.45-.89-.88-1.34-1.31l-.35-.32c-.22-.22-.45-.42-.68-.63-.06-.07-.13-.13-.19-.19l-.25-.22-.25-.22-.39-.36-.25-.21c-.52-.45-1-.89-1.56-1.33-.16-.13-.32-.25-.48-.39s-.47-.39-.71-.57A54.45,54.45,0,0,0,619,169.89a92.22,92.22,0,0,1,23.57,128.72Z"/><path class="cls-4" d="M642.54,255.16v43.45h0V255.16Z"/><path class="cls-4" d="M622.66,205c.18.18.35.37.53.56C623,205.41,622.84,205.22,622.66,205Z"/><path class="cls-4" d="M627.66,211l.53.7Z"/><path class="cls-4" d="M629.07,212.9c.17.23.34.47.5.71C629.41,213.37,629.24,213.13,629.07,212.9Z"/><path class="cls-4" d="M503.74,201.06a42.55,42.55,0,0,1-17.48.1,92.7,92.7,0,0,1,9.2-13.54A53.7,53.7,0,0,0,503.74,201.06Z"/><path class="cls-4" d="M484.36,254.55a30,30,0,0,0,18.86,27.84c.49-.49,1-.95,1.53-1.4V314.1a92.28,92.28,0,0,1-21.24-107.61,53.68,53.68,0,0,0,21.24,11.73v7.93A30,30,0,0,0,484.36,254.55Z"/><path class="cls-4" d="M515.59,189.06a42.39,42.39,0,0,1-14.76-7.44,91.58,91.58,0,0,1,14.29-12A53.85,53.85,0,0,0,515.59,189.06Z"/><path class="cls-4" d="M537.19,158.64a44,44,0,0,1-7.09,24.27h0l-.05,0a42.86,42.86,0,0,1-9.8-16.53A91.55,91.55,0,0,1,537.19,158.64Z"/><path class="cls-4" d="M586.34,225.76V336.08l-.41.1V225.93Z"/><path class="cls-4" d="M642.3,249.42c0,.32.05.63.07,1C642.35,250.05,642.33,249.74,642.3,249.42Z"/><path class="cls-4" d="M642.15,247.81c0-.19,0-.38,0-.56v0C642.12,247.45,642.13,247.63,642.15,247.81Z"/><path class="cls-4" d="M640.89,239.8c0-.08,0-.16,0-.24h0A2,2,0,0,0,640.89,239.8Z"/><path class="cls-4" d="M642.46,252c0,.29,0,.58,0,.87C642.49,252.58,642.47,252.29,642.46,252Z"/><path class="cls-4" d="M638.76,232c-.08-.26-.17-.52-.26-.78h0C638.58,231.5,638.68,231.76,638.76,232Z"/><path class="cls-4" d="M640.25,237.07c0-.19-.1-.38-.14-.56,0,.18.09.37.14.56Z"/><path class="cls-4" d="M641.2,241.3c0,.3.11.59.16.89C641.31,241.89,641.25,241.6,641.2,241.3Z"/><path class="cls-4" d="M619.32,201.68l.34.33Z"/><path class="cls-4" d="M621,203.32c.18.17.36.35.53.53C621.36,203.67,621.18,203.49,621,203.32Z"/><path class="cls-2" d="M686.24,247.62a120.13,120.13,0,0,1-43.7,92.8c-2,1.7-4.16,3.32-6.32,4.88q-1.79,1.27-3.61,2.5a120.55,120.55,0,0,1-14.55,8.32c-1.39.67-2.79,1.3-4.2,1.92-1.82.79-3.67,1.54-5.53,2.25q-3.62,1.35-7.32,2.49-3,.92-6.07,1.66c-1.72.43-3.44.83-5.18,1.19h0l-.38.08A121.32,121.32,0,0,1,565.86,368,120.4,120.4,0,0,1,529.1,133c.7,1,1.36,2.08,2,3.17a45.5,45.5,0,0,1,6.1,22.52,91.55,91.55,0,0,0-16.94,7.76,43.8,43.8,0,0,1-1.87-8.6,54.62,54.62,0,0,0-3.26,11.84,91.58,91.58,0,0,0-14.29,12,43.8,43.8,0,0,1-9.53-10.19,54.5,54.5,0,0,0,4.16,16.19,92.7,92.7,0,0,0-9.2,13.54,44.48,44.48,0,0,1-10.81-3.66,54.71,54.71,0,0,0,8.06,9A92.28,92.28,0,0,0,585.93,336.18l.41-.1a90.59,90.59,0,0,0,9-2.44h1a.76.76,0,0,0,.73-.58,88.85,88.85,0,0,0,8.79-3.58q2.48-1.16,4.86-2.45c1.13-.61,2.23-1.25,3.33-1.9s2.46-1.51,3.67-2.31a91.65,91.65,0,0,0,7.87-5.85.76.76,0,0,0,.61-.51q1.72-1.45,3.38-3l1.54-1.48c1.91-1.85,3.74-3.8,5.49-5.82.71-.82,1.4-1.65,2.08-2.5q2-2.46,3.79-5.06A92.22,92.22,0,0,0,619,169.89a52.25,52.25,0,0,0-15.59-32.32,45,45,0,0,1,.51,23.93,93.68,93.68,0,0,0-9.36-3.51A54.15,54.15,0,0,0,580,128.05,120.4,120.4,0,0,1,686.24,247.62Z"/><path class="cls-5" d="M516,190.71a34.65,34.65,0,0,0-7,8.85,40,40,0,0,1-5.25,1.5,53.7,53.7,0,0,1-8.28-13.44,54.5,54.5,0,0,1-4.16-16.19,43.8,43.8,0,0,0,9.53,10.19,42.39,42.39,0,0,0,14.76,7.44C515.7,189.61,515.82,190.16,516,190.71Z"/><path class="cls-5" d="M595.09,165.88a55.48,55.48,0,0,1-2.35,16c-1,1-2,2-3,2.93a71.72,71.72,0,0,0-11.11-2.41,73.11,73.11,0,0,0-10.1-.7h-.12a54.2,54.2,0,0,0,.45-24.87c.24-1,.45-2,.63-3a46.62,46.62,0,0,0,.67-7.9,45.65,45.65,0,0,0-4-18.67,44.68,44.68,0,0,0-8.78-13A51.65,51.65,0,0,1,580,128.05,54.15,54.15,0,0,1,594.53,158,56.91,56.91,0,0,1,595.09,165.88Z"/><path class="cls-5" d="M506.8,204.4a34.5,34.5,0,0,0-2.05,11.72v2.1a53.68,53.68,0,0,1-21.24-11.73,54.71,54.71,0,0,1-8.06-9,44.48,44.48,0,0,0,10.81,3.66,42.55,42.55,0,0,0,17.48-.1C504.71,202.22,505.74,203.34,506.8,204.4Z"/><path class="cls-5" d="M568.81,156.83a44.87,44.87,0,0,1-16.08,24.87H539.18a34.48,34.48,0,0,0-9.08,1.21,44,44,0,0,0,7.09-24.27,45.5,45.5,0,0,0-6.1-22.52c-.63-1.09-1.29-2.15-2-3.17A45.14,45.14,0,0,0,504.3,115a52.93,52.93,0,0,1,48,13h0a55,55,0,0,1,10.35,13A54.38,54.38,0,0,1,568,153.77h0C568.34,154.79,568.59,155.81,568.81,156.83Z"/><path class="cls-5" d="M552.73,181.7h15.63a54.2,54.2,0,0,0,.45-24.87A44.87,44.87,0,0,1,552.73,181.7Z"/><path class="cls-5" d="M503.74,201.06c1,1.16,2,2.28,3.06,3.34a35.14,35.14,0,0,1,2.19-4.84A40,40,0,0,1,503.74,201.06Z"/><path class="cls-5" d="M614.56,197.57l-.68-.53c-.19-.14-.38-.28-.56-.43l-1.43-1.05-.52-.37,0,0q-.92-.65-1.86-1.26l-.16-.12-.41-.26-1.39-.88-.85-.51-1.18-.7-.89-.49-1.27-.7-.8-.42c-.69-.35-1.38-.7-2.09-1a33.25,33.25,0,0,0-3,2.46l-.31.3-.27.26-.44.42-.31.31c-.38.39-.75.78-1.1,1.19-.24.26-.46.53-.69.8s-.44.53-.65.81-.44.56-.64.84-.45.61-.66.92-.35.52-.52.79c-.05.08-.11.16-.15.24-.22.34-.44.69-.64,1-.1.16-.19.33-.29.5l-.18.31c-.07.16-.16.31-.24.46l-.18.35-.18.35c-.07.12-.12.25-.18.38s-.18.35-.26.53a.8.8,0,0,0-.08.16c-.16.35-.32.71-.47,1.08l0,0q-.27.64-.51,1.32c-.13.36-.26.72-.38,1.09l0,0L588,206c0,.1-.07.21-.1.31a.64.64,0,0,1,0,.07c0,.14-.09.28-.13.43l-.12.42s0,0,0,0l-.06.21s0,.06,0,.08h0l-.18.69c-.06.26-.12.52-.17.78s-.09.37-.13.56-.08.38-.11.57l-.12.63-.12.76a1.1,1.1,0,0,0,0,.18c0,.12,0,.23-.05.34s0,.24,0,.35v0c-.05.31-.08.63-.1,1a2.58,2.58,0,0,0,0,.39v.09a2.11,2.11,0,0,0,0,.26,1.66,1.66,0,0,0,0,.24,2,2,0,0,0,0,.25s0,.1,0,.16c0,.59,0,1.18,0,1.79v9.22l-.41.17v-9.39A34.34,34.34,0,0,1,600,188.78a71.51,71.51,0,0,0-8.47-3.38c.44-1.16.84-2.33,1.2-3.52a46.38,46.38,0,0,0,7.35-10.37,45.72,45.72,0,0,0,3.8-10,45,45,0,0,0-.51-23.93A52.25,52.25,0,0,1,619,169.89,54.45,54.45,0,0,1,614.56,197.57Z"/><path class="cls-5" d="M609.3,193.77l-.41-.26.41.26Z"/><path class="cls-5" d="M602.52,189.82l.79.41Z"/><path class="cls-5" d="M604.58,190.92l.89.5Z"/><path class="cls-5" d="M611.37,195.19l.52.37Z"/><path class="cls-5" d="M613.32,196.61l.56.43Z"/><path class="cls-5" d="M600.42,188.78a35,35,0,0,0-3,2.46,35,35,0,0,1,3-2.46Z"/><path class="cls-5" d="M606.66,192.12l.84.51Z"/><path class="cls-5" d="M530.05,182.93a34.08,34.08,0,0,0-12.7,6.58c-.59-.13-1.18-.29-1.76-.45a53.85,53.85,0,0,1-.47-19.42,54.62,54.62,0,0,1,3.26-11.84,43.8,43.8,0,0,0,1.87,8.6A42.86,42.86,0,0,0,530.05,182.93Z"/><path class="cls-5" d="M592.74,181.88c-1,1-2,2-3,2.93.63.19,1.24.38,1.85.59C592,184.24,592.38,183.07,592.74,181.88Z"/><path class="cls-5" d="M515.59,189.06c.11.55.23,1.1.37,1.65.45-.41.91-.82,1.39-1.2C516.76,189.38,516.17,189.22,515.59,189.06Z"/><polygon class="cls-6" points="530.1 182.91 530.05 182.93 530.07 182.96 530.1 182.91"/><path class="cls-6" d="M585.93,225.93V336.18a92.83,92.83,0,0,1-19.07,2,91.9,91.9,0,0,1-62.11-24V281l.71-.61a30,30,0,0,1,30-4.55c.71-.7,1.38-1.44,2-2.21A29.9,29.9,0,0,0,544.27,256c0-.47,0-.94,0-1.42a30,30,0,0,0-39.55-28.4v-7.93a51.62,51.62,0,0,0,27.63.23l1,.2a50.86,50.86,0,0,0,23.41,10.72,9.16,9.16,0,1,0,15.28.33h0A53,53,0,0,0,585.93,225.93Z"/><path class="cls-6" d="M517.34,195.49c-.53-1.56-1-3.16-1.38-4.78a34.65,34.65,0,0,0-7,8.85,42.09,42.09,0,0,0,6.81-3.13C516.32,196.13,516.84,195.82,517.34,195.49Z"/><path class="cls-6" d="M589.69,184.81a71.72,71.72,0,0,0-11.11-2.41,73.11,73.11,0,0,0-10.1-.7h-.12a52.49,52.49,0,0,1-6,14.19A44.34,44.34,0,0,0,589.69,184.81Z"/><path class="cls-6" d="M532.38,218.45l1,.2-.42-.35Z"/><path class="cls-6" d="M530.07,183a41.54,41.54,0,0,0,7.55,6.23,42.55,42.55,0,0,0,15.11-7.48H539.18a34.48,34.48,0,0,0-9.08,1.21h0Z"/><path class="cls-6" d="M504.75,216.12v2.1a51.62,51.62,0,0,0,27.63.23,51.38,51.38,0,0,1-25.58-14A34.5,34.5,0,0,0,504.75,216.12Z"/><path class="cls-6" d="M541.06,191.19a42.1,42.1,0,0,0,21.32,4.7,52.49,52.49,0,0,0,6-14.19H552.73a42.55,42.55,0,0,1-15.11,7.48C538.73,189.9,539.87,190.57,541.06,191.19Z"/><path class="cls-6" d="M517.34,195.49c-.5.33-1,.64-1.54.94a42.09,42.09,0,0,1-6.81,3.13,35.14,35.14,0,0,0-2.19,4.84,51.38,51.38,0,0,0,25.58,14l.54-.15A51.43,51.43,0,0,1,517.34,195.49Z"/><path class="cls-6" d="M530.07,183l0,0a34.08,34.08,0,0,0-12.7,6.58,41.44,41.44,0,0,0,6.45,1A41.53,41.53,0,0,0,530.07,183Z"/><path class="cls-6" d="M543.05,219.58a51.07,51.07,0,0,1-9.71-.93,50.86,50.86,0,0,0,23.41,10.72h0a9.14,9.14,0,0,1,15.28.33h0a53,53,0,0,0,13.89-3.77v-9.39A34.34,34.34,0,0,1,600,188.78a71.51,71.51,0,0,0-8.47-3.38C584,205.41,565.12,219.58,543.05,219.58Z"/><path class="cls-6" d="M523.8,190.47a41.44,41.44,0,0,1-6.45-1c-.48.38-.94.79-1.39,1.2.38,1.62.85,3.22,1.38,4.78A41,41,0,0,0,523.8,190.47Z"/><path class="cls-6" d="M544.32,213.49a51.14,51.14,0,0,1-11.4,4.81l.42.35a51.07,51.07,0,0,0,9.71.93c22.07,0,40.93-14.17,48.49-34.18-.61-.21-1.22-.4-1.85-.59a44.34,44.34,0,0,1-27.31,11.08A50.65,50.65,0,0,1,544.32,213.49Z"/><path class="cls-6" d="M526.82,190.58a41.86,41.86,0,0,0,10.8-1.4,41.54,41.54,0,0,1-7.55-6.23,41.53,41.53,0,0,1-6.27,7.52C524.8,190.55,525.81,190.58,526.82,190.58Z"/><path class="cls-6" d="M523.8,190.47a41,41,0,0,1-6.46,5,51.43,51.43,0,0,0,15.58,22.81,50.76,50.76,0,0,0,29.46-22.41,42.1,42.1,0,0,1-21.32-4.7c-1.19-.62-2.33-1.29-3.44-2a41.86,41.86,0,0,1-10.8,1.4C525.81,190.58,524.8,190.55,523.8,190.47Z"/><path class="cls-7" d="M484.36,254.55a30,30,0,0,0,18.86,27.84c.49-.49,1-.95,1.53-1.41V226.15A30,30,0,0,0,484.36,254.55Z"/><path class="cls-7" d="M505.46,280.38a30,30,0,0,1,36.73-25c.7.17,1.39.36,2.08.58,0-.47,0-.94,0-1.42a30,30,0,0,0-39.55-28.4V281Z"/><path class="cls-8" d="M505.46,280.38A30,30,0,0,1,509,269.87a30,30,0,0,0-3.55,10.51,30,30,0,0,1,30-4.55h0a30,30,0,0,0-30,4.55Z"/><path class="cls-8" d="M544.27,256a29.88,29.88,0,0,1-6.83,17.65A29.88,29.88,0,0,0,544.27,256c-.69-.22-1.38-.41-2.08-.58C542.89,255.56,543.58,255.75,544.27,256Z"/><path class="cls-9" d="M535.43,275.83a28,28,0,0,0,2-2.21,28,28,0,0,1-2,2.21Z"/><path class="cls-9" d="M535.14,254.55a29.78,29.78,0,0,1,7.05.84A30,30,0,0,0,509,269.87,29.94,29.94,0,0,1,535.14,254.55Z"/><path class="cls-9" d="M542.19,255.39a30,30,0,0,0-36.73,25,30,30,0,0,1,30-4.55,28,28,0,0,0,2-2.21A29.88,29.88,0,0,0,544.27,256C543.58,255.75,542.89,255.56,542.19,255.39Z"/><path class="cls-10" d="M556.75,229.37a9.16,9.16,0,1,0,15.28.33A50.88,50.88,0,0,1,556.75,229.37Z"/><path class="cls-10" d="M564.28,225.41a9.14,9.14,0,0,0-7.53,4,50.88,50.88,0,0,0,15.28.33A9.13,9.13,0,0,0,564.28,225.41Z"/><path class="cls-11" d="M632.48,218.19c.26.44.51.88.76,1.32C633,219.07,632.74,218.63,632.48,218.19Z"/><path class="cls-11" d="M621.53,203.85c.38.39.76.79,1.13,1.19C622.29,204.64,621.91,204.24,621.53,203.85Z"/><path class="cls-11" d="M619.66,202c.46.43.9.86,1.34,1.31C620.56,202.87,620.12,202.44,619.66,202Z"/><path class="cls-11" d="M626.65,209.67c.35.43.68.86,1,1.3C627.33,210.53,627,210.1,626.65,209.67Z"/><path class="cls-11" d="M642.5,252.87c0-.29,0-.58,0-.87,0-.54-.06-1.09-.09-1.63,0-.32,0-.63-.07-.94,0-.55-.1-1.08-.15-1.63l0-.28c0-.08,0-.17,0-.25a.77.77,0,0,1-.75.62H630.41a.78.78,0,0,1-.77-.77v-1a.78.78,0,0,1,.77-.77h10.94a.74.74,0,0,1,.54.22l-.12-1c0-.15,0-.3-.08-.45-.1-.67-.2-1.33-.32-2-.06-.29-.11-.58-.17-.88-.1-.5-.2-1-.31-1.5,0-.08,0-.16,0-.24H630.41a.77.77,0,0,1-.77-.76v-1a.78.78,0,0,1,.77-.77h9.84c0-.18-.1-.37-.14-.55-.2-.75-.41-1.49-.63-2.23-.05-.18-.12-.37-.17-.55-.18-.57-.36-1.14-.55-1.71-.08-.26-.18-.52-.26-.78h-8.09a.77.77,0,0,1-.77-.77v-1a.77.77,0,0,1,.77-.77h7.17l-.51-1.28-.34-.82c-.29-.69-.6-1.38-.91-2.07-.09-.19-.19-.39-.28-.59s-.34-.71-.52-1.06h-4.61a.78.78,0,0,1-.77-.78v-.95a.77.77,0,0,1,.77-.77h3.32a.21.21,0,0,0,0-.07l-.46-.84c-.24-.44-.5-.88-.75-1.32l-.42-.71c-.39-.65-.79-1.29-1.19-1.92-.12-.18-.24-.34-.35-.52l-.33-.49a.77.77,0,0,1-.56-.73v-.11a.61.61,0,0,1-.07-.1l-.5-.72-.88-1.22-.53-.7c-.33-.44-.67-.87-1-1.3l-.43-.54-.37-.45a.69.69,0,0,1-.32.08H614.59a.78.78,0,0,1-.77-.77v-1a.78.78,0,0,1,.77-.77h9.19l-.59-.66-.53-.57-1.13-1.18-.52-.53c-.45-.45-.89-.88-1.34-1.31l-.35-.32c-.22-.22-.45-.42-.68-.63-.06-.07-.13-.13-.19-.19l-.25-.22-.25-.22h-3.36a.77.77,0,0,1-.77-.77v-.48c-.26.53-.52,1.06-.79,1.58-.54,1-1.12,2-1.71,3v.05a.77.77,0,0,1-.44.69,56.77,56.77,0,0,1-4.23,5.91h3.9a.76.76,0,0,1,.77.77v1a.76.76,0,0,1-.77.77h-6.09a54.55,54.55,0,0,1-12.51,10h4.45a.77.77,0,0,1,.77.77v.95a.77.77,0,0,1-.77.77h-9.31l-.75.35v5.48H596.4a.78.78,0,0,1,.77.77v1a.77.77,0,0,1-.77.76H586.34v5.83H596.4a.78.78,0,0,1,.77.77v1a.79.79,0,0,1-.77.78H586.34v5.82H596.4a.77.77,0,0,1,.77.77v1a.78.78,0,0,1-.77.77H586.34v5.82H596.4a.78.78,0,0,1,.77.77v1a.77.77,0,0,1-.77.77H586.34v5.83H596.4a.78.78,0,0,1,.77.77v1a.78.78,0,0,1-.77.77H586.34v5.83H596.4a.77.77,0,0,1,.77.77v.95a.77.77,0,0,1-.77.77H586.34v5.83H596.4a.78.78,0,0,1,.77.77v1a.78.78,0,0,1-.77.77H586.34v5.83H596.4a.77.77,0,0,1,.77.76v1a.78.78,0,0,1-.77.77H586.34v5.83H596.4a.77.77,0,0,1,.77.77v.95a.77.77,0,0,1-.77.77H586.34v5.83H596.4a.77.77,0,0,1,.77.77v.95a.77.77,0,0,1-.77.77H586.34v5.83H596.4a.78.78,0,0,1,.77.77v1a.77.77,0,0,1-.77.76H586.34v5.83H596.4a.77.77,0,0,1,.77.77v1a.78.78,0,0,1-.77.77H586.34v5.82H596.4a.78.78,0,0,1,.77.78v.95a.58.58,0,0,1,0,.19,88.85,88.85,0,0,0,8.79-3.58H599.6a.78.78,0,0,1-.77-.77v-1a.78.78,0,0,1,.77-.77h10.95a.56.56,0,0,1,.23,0c1.13-.61,2.23-1.25,3.33-1.9a.75.75,0,0,1-.29-.58v-1a.77.77,0,0,1,.77-.77h3.19a91.65,91.65,0,0,0,7.87-5.85l-.11,0H614.59a.77.77,0,0,1-.77-.76v-1a.78.78,0,0,1,.77-.77h10.95a.78.78,0,0,1,.77.77v1a.68.68,0,0,1,0,.23q1.72-1.45,3.38-3v-.71a.78.78,0,0,1,.77-.77h.77c1.91-1.85,3.74-3.8,5.49-5.82h-6.26a.77.77,0,0,1-.77-.77v-1a.77.77,0,0,1,.77-.77h8.34q2-2.46,3.79-5.06V255.16C642.54,254.39,642.52,253.63,642.5,252.87Zm-31.18,67.51a.76.76,0,0,1-.77.77H599.6a.77.77,0,0,1-.77-.77v-.95a.77.77,0,0,1,.77-.77h10.95a.76.76,0,0,1,.77.77Zm0-8.32a.77.77,0,0,1-.77.77H599.6a.78.78,0,0,1-.77-.77v-1a.78.78,0,0,1,.77-.77h10.95a.77.77,0,0,1,.77.77Zm0-8.32a.77.77,0,0,1-.77.77H599.6a.78.78,0,0,1-.77-.77v-1a.78.78,0,0,1,.77-.77h10.95a.77.77,0,0,1,.77.77Zm0-8.33a.76.76,0,0,1-.77.76H599.6a.77.77,0,0,1-.77-.76v-1a.78.78,0,0,1,.77-.77h10.95a.77.77,0,0,1,.77.77Zm0-8.33a.76.76,0,0,1-.77.77H599.6a.77.77,0,0,1-.77-.77v-.95a.77.77,0,0,1,.77-.77h10.95a.76.76,0,0,1,.77.77Zm0-8.32a.77.77,0,0,1-.77.77H599.6a.78.78,0,0,1-.77-.77v-1a.78.78,0,0,1,.77-.77h10.95a.77.77,0,0,1,.77.77Zm0-8.33a.76.76,0,0,1-.77.77H599.6a.77.77,0,0,1-.77-.77v-1a.78.78,0,0,1,.77-.77h10.95a.77.77,0,0,1,.77.77Zm0-8.32a.77.77,0,0,1-.77.77H599.6a.78.78,0,0,1-.77-.77v-1a.77.77,0,0,1,.77-.77h10.95a.76.76,0,0,1,.77.77Zm0-8.33a.77.77,0,0,1-.77.77H599.6a.78.78,0,0,1-.77-.77v-1a.78.78,0,0,1,.77-.77h10.95a.77.77,0,0,1,.77.77Zm0-8.33a.76.76,0,0,1-.77.77H599.6a.77.77,0,0,1-.77-.77v-.95a.77.77,0,0,1,.77-.77h10.95a.76.76,0,0,1,.77.77Zm0-8.32a.77.77,0,0,1-.77.77H599.6a.78.78,0,0,1-.77-.77v-1a.78.78,0,0,1,.77-.77h10.95a.77.77,0,0,1,.77.77Zm0-8.32a.78.78,0,0,1-.77.77H599.6a.78.78,0,0,1-.77-.77v-1a.77.77,0,0,1,.77-.76h10.95a.76.76,0,0,1,.77.76Zm0-8.33a.77.77,0,0,1-.77.77H599.6a.78.78,0,0,1-.77-.77v-1a.78.78,0,0,1,.77-.77h10.95a.77.77,0,0,1,.77.77Zm15,87.41a.77.77,0,0,1-.77.77H614.59a.77.77,0,0,1-.77-.77v-.95a.77.77,0,0,1,.77-.77h10.95a.77.77,0,0,1,.77.77Zm0-8.32a.77.77,0,0,1-.77.77H614.59a.77.77,0,0,1-.77-.77v-.95a.77.77,0,0,1,.77-.77h10.95a.77.77,0,0,1,.77.77Zm0-8.32a.78.78,0,0,1-.77.77H614.59a.78.78,0,0,1-.77-.77v-1a.77.77,0,0,1,.77-.76h10.95a.77.77,0,0,1,.77.76Zm0-8.33a.78.78,0,0,1-.77.77H614.59a.78.78,0,0,1-.77-.77v-1a.78.78,0,0,1,.77-.77h10.95a.78.78,0,0,1,.77.77Zm0-8.33a.77.77,0,0,1-.77.77H614.59a.77.77,0,0,1-.77-.77v-.95a.77.77,0,0,1,.77-.77h10.95a.77.77,0,0,1,.77.77Zm0-8.32a.78.78,0,0,1-.77.77H614.59a.78.78,0,0,1-.77-.77v-1a.78.78,0,0,1,.77-.77h10.95a.78.78,0,0,1,.77.77Zm0-8.33a.77.77,0,0,1-.77.77H614.59a.77.77,0,0,1-.77-.77v-1a.78.78,0,0,1,.77-.77h10.95a.78.78,0,0,1,.77.77Zm0-8.32a.78.78,0,0,1-.77.77H614.59a.78.78,0,0,1-.77-.77v-1a.77.77,0,0,1,.77-.77h10.95a.77.77,0,0,1,.77.77Zm0-8.33a.79.79,0,0,1-.77.78H614.59a.79.79,0,0,1-.77-.78v-1a.78.78,0,0,1,.77-.77h10.95a.78.78,0,0,1,.77.77Zm0-8.32a.77.77,0,0,1-.77.76H614.59a.77.77,0,0,1-.77-.76v-1a.78.78,0,0,1,.77-.77h10.95a.78.78,0,0,1,.77.77Zm0-8.33a.77.77,0,0,1-.77.77H614.59a.77.77,0,0,1-.77-.77v-.95a.77.77,0,0,1,.77-.77h10.95a.77.77,0,0,1,.77.77Zm0-8.32a.78.78,0,0,1-.77.77H614.59a.78.78,0,0,1-.77-.77v-1a.78.78,0,0,1,.77-.77h10.95a.78.78,0,0,1,.77.77Zm15.81,80.75a.78.78,0,0,1-.77.78H630.41a.79.79,0,0,1-.77-.78v-1a.77.77,0,0,1,.77-.76h10.94a.76.76,0,0,1,.77.76Zm0-8.32a.77.77,0,0,1-.77.77H630.41a.78.78,0,0,1-.77-.77v-1a.78.78,0,0,1,.77-.77h10.94a.77.77,0,0,1,.77.77Zm0-8.33a.76.76,0,0,1-.77.77H630.41a.77.77,0,0,1-.77-.77v-.95a.77.77,0,0,1,.77-.77h10.94a.76.76,0,0,1,.77.77Zm0-8.32a.77.77,0,0,1-.77.77H630.41a.78.78,0,0,1-.77-.77v-1a.78.78,0,0,1,.77-.77h10.94a.77.77,0,0,1,.77.77Zm0-8.33a.77.77,0,0,1-.77.77H630.41a.78.78,0,0,1-.77-.77v-1a.78.78,0,0,1,.77-.77h10.94a.77.77,0,0,1,.77.77Zm0-8.33a.76.76,0,0,1-.77.77H630.41a.77.77,0,0,1-.77-.77v-.95a.77.77,0,0,1,.77-.77h10.94a.76.76,0,0,1,.77.77Z"/><path class="cls-11" d="M639.48,234.28c.22.74.43,1.48.63,2.23C639.91,235.76,639.7,235,639.48,234.28Z"/><path class="cls-11" d="M628.19,211.67c.3.41.59.81.88,1.23C628.78,212.48,628.49,212.08,628.19,211.67Z"/><path class="cls-11" d="M635.82,224.57c.32.69.62,1.38.91,2.08C636.44,226,636.14,225.26,635.82,224.57Z"/><path class="cls-11" d="M615.75,198.54q.79.65,1.56,1.32Q616.54,199.19,615.75,198.54Z"/><path class="cls-11" d="M630.87,215.56q.61.94,1.2,1.92Q631.48,216.51,630.87,215.56Z"/><path class="cls-11" d="M638,229.76c.16.45.33.91.49,1.37C638.3,230.67,638.13,230.21,638,229.76Z"/><path class="cls-11" d="M642.06,247c-.08-.77-.18-1.55-.29-2.32l.12,1C642,246.06,642,246.5,642.06,247Z"/><path class="cls-11" d="M638.76,232c.19.56.37,1.14.55,1.71C639.13,233.16,639,232.58,638.76,232Z"/><path class="cls-11" d="M635.54,224c-.24-.52-.49-1-.74-1.54.07.16.15.31.22.46C635.2,223.27,635.37,223.63,635.54,224Z"/><path class="cls-11" d="M615,197.94l.26.2-.71-.57h0Z"/><path class="cls-11" d="M615,197.94l-.46-.36-.18.4a.78.78,0,0,1,.22,0Z"/><path class="cls-11" d="M637.62,228.85c-.18-.47-.36-.93-.55-1.39l.51,1.28S637.61,228.81,637.62,228.85Z"/><path class="cls-11" d="M634.37,221.63c-.22-.43-.44-.86-.67-1.28l0,.07Z"/><path class="cls-11" d="M624.42,207c-.4-.46-.81-.93-1.23-1.38l.59.66Z"/><path class="cls-11" d="M626.23,209.13c-.49-.6-1-1.2-1.48-1.78.38.44.74.89,1.11,1.33Z"/><path class="cls-11" d="M619.32,201.68l-1.76-1.61.39.36Z"/><path class="cls-11" d="M642.37,250.37c0,.54.06,1.08.09,1.63C642.43,251.45,642.41,250.91,642.37,250.37Z"/><polygon class="cls-11" points="586.35 331.14 586.35 325.32 586.35 322.82 586.35 316.99 586.35 314.49 586.35 308.67 586.35 306.17 586.35 300.34 586.35 297.84 586.35 292.01 586.35 289.52 586.35 283.69 586.35 281.19 586.35 275.36 586.35 272.87 586.35 267.04 586.35 264.54 586.35 258.71 586.35 256.22 586.35 250.39 586.35 247.89 586.35 242.06 586.35 239.56 586.35 233.74 586.35 231.24 586.35 225.75 586.34 225.75 586.34 336.08 586.35 336.08 586.35 333.64 586.35 331.14"/><path class="cls-11" d="M640.32,237.36c.12.5.25,1,.36,1.5C640.57,238.36,640.44,237.86,640.32,237.36Z"/><path class="cls-11" d="M642.15,247.81c.06.53.11,1.07.15,1.61C642.26,248.88,642.21,248.34,642.15,247.81Z"/><path class="cls-11" d="M642.5,252.87c0,.76,0,1.52,0,2.29C642.54,254.39,642.52,253.63,642.5,252.87Z"/><path class="cls-11" d="M640.89,239.8c.11.5.21,1,.31,1.5C641.1,240.8,641,240.3,640.89,239.8Z"/><path class="cls-11" d="M641.36,242.19c.12.66.23,1.32.34,2C641.59,243.51,641.48,242.85,641.36,242.19Z"/><path class="cls-11" d="M630.2,214.55l.33.49c-.31-.48-.63-1-1-1.43l.07.1Z"/><path class="cls-11" d="M586.35,225.41v-8.87c0-.66,0-1.31,0-1.95a34.85,34.85,0,0,1,.84-5.83c.2-.84.41-1.68.67-2.5a34,34,0,0,1,2.44-5.83c.45-.85.95-1.68,1.47-2.49a34.53,34.53,0,0,1,4.76-5.87c.19-.18.36-.36.55-.53l.31-.3a34.31,34.31,0,0,0-11.1,25.3v9.22h0Z"/><path class="cls-11" d="M600.42,188.78h0c.71.33,1.4.68,2.1,1C601.82,189.46,601.13,189.11,600.42,188.78Z"/><path class="cls-11" d="M611.89,195.56l1.43,1.05Z"/><path class="cls-11" d="M586.35,225.75c.25-.1.49-.23.74-.34h-.74Z"/><path class="cls-11" d="M596.58,192.07a34.53,34.53,0,0,0-4.76,5.87h4.58a.77.77,0,0,1,.77.77v.95a.77.77,0,0,1-.77.77h-6a34,34,0,0,0-2.44,5.83h8.49a.78.78,0,0,1,.77.77v1a.78.78,0,0,1-.77.77h-9.16a34.85,34.85,0,0,0-.84,5.83h10a.77.77,0,0,1,.77.77v1a.78.78,0,0,1-.77.77h-10v5.82H592a54.19,54.19,0,0,0,12.5-10H599.6a.77.77,0,0,1-.77-.77v-1a.77.77,0,0,1,.77-.76h7a57.5,57.5,0,0,0,4.24-5.91.73.73,0,0,1-.33.08H599.6a.78.78,0,0,1-.77-.77v-1a.78.78,0,0,1,.77-.77h10.95a.77.77,0,0,1,.77.77v.91c.59-1,1.17-2,1.71-3,.27-.52.54-1,.79-1.58v-.47a.76.76,0,0,1,.55-.73l.18-.4-.67-.54-.56-.43-1.43-1.05-.52-.37,0,0v.35a.76.76,0,0,1-.77.77H599.6a.77.77,0,0,1-.77-.77v-1a.78.78,0,0,1,.77-.77h9.7l-.41-.26-1.39-.88-.84-.51-1.19-.7-.89-.5-1.27-.69-.79-.41c-.7-.36-1.39-.71-2.1-1a35,35,0,0,0-3,2.46l-.31.3A.76.76,0,0,1,596.58,192.07Z"/><path class="cls-11" d="M607.5,192.63l1.39.88Z"/><path class="cls-11" d="M603.31,190.23l1.27.69Z"/><path class="cls-11" d="M611.37,195.19c-.63-.45-1.26-.88-1.9-1.31.62.42,1.24.84,1.85,1.27Z"/><path class="cls-11" d="M614.56,197.57l-.68-.53.67.54Z"/><path class="cls-11" d="M605.47,191.42l1.19.7Z"/><rect class="cls-12" x="613.82" y="222.91" width="12.49" height="2.5" rx="0.77"/><rect class="cls-12" x="613.82" y="231.24" width="12.49" height="2.5" rx="0.77"/><rect class="cls-12" x="613.82" y="239.56" width="12.49" height="2.5" rx="0.77"/><path class="cls-12" d="M615.27,198.14l.48.4Z"/><path class="cls-12" d="M617.31,199.86l.25.21Z"/><path class="cls-12" d="M614.59,197.94a.78.78,0,0,0-.22,0c-.18.4-.36.8-.55,1.2v.48a.77.77,0,0,0,.77.77H618l-.39-.36-.25-.21q-.76-.68-1.56-1.32l-.48-.4-.26-.2Z"/><path class="cls-12" d="M613.82,198.71v.47c.19-.4.37-.8.55-1.2A.76.76,0,0,0,613.82,198.71Z"/><path class="cls-12" d="M624.42,207l.33.37Z"/><path class="cls-12" d="M614.59,206.26a.78.78,0,0,0-.77.77v1a.78.78,0,0,0,.77.77h10.95a.72.72,0,0,0,.32-.08c-.37-.44-.73-.89-1.11-1.33l-.33-.37-.64-.72Z"/><rect class="cls-12" x="613.82" y="214.59" width="12.49" height="2.5" rx="0.77"/><rect class="cls-12" x="613.82" y="247.89" width="12.49" height="2.5" rx="0.77"/><rect class="cls-12" x="613.82" y="256.22" width="12.49" height="2.5" rx="0.77"/><rect class="cls-12" x="613.82" y="264.54" width="12.49" height="2.5" rx="0.77"/><rect class="cls-12" x="613.82" y="272.87" width="12.49" height="2.5" rx="0.77"/><rect class="cls-12" x="613.82" y="281.19" width="12.49" height="2.5" rx="0.77"/><rect class="cls-12" x="613.82" y="289.52" width="12.49" height="2.5" rx="0.77"/><rect class="cls-12" x="613.82" y="297.84" width="12.49" height="2.5" rx="0.77"/><rect class="cls-12" x="613.82" y="306.17" width="12.49" height="2.5" rx="0.77"/><path class="cls-12" d="M626.26,316.46a.76.76,0,0,1-.61.51Z"/><path class="cls-12" d="M626.31,316.22v-1a.78.78,0,0,0-.77-.77H614.59a.78.78,0,0,0-.77.77v1a.77.77,0,0,0,.77.77h10.95l.11,0,.61-.51A.69.69,0,0,0,626.31,316.22Z"/><path class="cls-12" d="M617.78,322.82c-1.21.8-2.43,1.57-3.67,2.31a.75.75,0,0,1-.29-.58v-1a.77.77,0,0,1,.77-.77Z"/><path class="cls-12" d="M637.62,228.85c.12.3.23.6.35.91C637.85,229.45,637.74,229.15,637.62,228.85Z"/><path class="cls-12" d="M638.5,231.24a.49.49,0,0,1,0-.11l0,.11Z"/><path class="cls-12" d="M630.41,228.74a.77.77,0,0,0-.77.77v1a.77.77,0,0,0,.77.77h8.09l0-.11c-.16-.46-.33-.92-.49-1.37s-.23-.61-.35-.91c0,0,0-.07,0-.11Z"/><path class="cls-12" d="M640.32,237.36c0-.1-.05-.2-.07-.29h0C640.27,237.16,640.3,237.26,640.32,237.36Z"/><path class="cls-12" d="M640.84,239.56c-.05-.23-.1-.47-.16-.7.06.23.11.47.16.7Z"/><path class="cls-12" d="M630.41,237.07a.76.76,0,0,0-.77.77v.95a.76.76,0,0,0,.77.77h10.43c-.05-.23-.1-.47-.16-.7-.11-.5-.24-1-.36-1.5,0-.1-.05-.2-.07-.29Z"/><path class="cls-12" d="M642.1,247.25c0-.1,0-.2,0-.3,0,.11,0,.21,0,.32Z"/><path class="cls-12" d="M641.36,245.39h-11a.77.77,0,0,0-.77.77v1a.77.77,0,0,0,.77.77h11a.76.76,0,0,0,.74-.62c0-.11,0-.21,0-.32,0-.45-.11-.89-.17-1.34A.77.77,0,0,0,641.36,245.39Z"/><path class="cls-12" d="M629.64,213.82a.77.77,0,0,0,.56.73l-.56-.84Z"/><path class="cls-12" d="M634.37,221.63c.15.27.29.55.43.82C634.66,222.18,634.52,221.9,634.37,221.63Z"/><path class="cls-12" d="M630.41,220.42a.76.76,0,0,0-.77.77v.95a.76.76,0,0,0,.77.77H635c-.07-.15-.15-.3-.22-.46s-.28-.55-.43-.82l-.63-1.21Z"/><rect class="cls-12" x="629.64" y="253.72" width="12.49" height="2.5" rx="0.77"/><rect class="cls-12" x="629.64" y="262.04" width="12.49" height="2.5" rx="0.77"/><rect class="cls-12" x="629.64" y="270.37" width="12.49" height="2.5" rx="0.77"/><rect class="cls-12" x="629.64" y="278.69" width="12.49" height="2.5" rx="0.77"/><rect class="cls-12" x="629.64" y="287.02" width="12.49" height="2.5" rx="0.77"/><rect class="cls-12" x="629.64" y="295.35" width="12.49" height="2.5" rx="0.77"/><path class="cls-12" d="M638.75,303.67c-.68.85-1.37,1.68-2.08,2.5h-6.26a.77.77,0,0,1-.77-.77v-1a.77.77,0,0,1,.77-.77Z"/><path class="cls-12" d="M631.18,312l-1.54,1.48v-.71a.78.78,0,0,1,.77-.77Z"/><rect class="cls-12" x="598.83" y="218.75" width="12.49" height="2.5" rx="0.77"/><rect class="cls-12" x="598.83" y="227.08" width="12.49" height="2.5" rx="0.77"/><rect class="cls-12" x="598.83" y="235.4" width="12.49" height="2.5" rx="0.77"/><path class="cls-12" d="M609.47,193.88l-.17-.11h0Z"/><path class="cls-12" d="M599.6,193.77a.78.78,0,0,0-.77.77v1a.77.77,0,0,0,.77.77h10.95a.76.76,0,0,0,.77-.77v-.35c-.61-.43-1.23-.85-1.85-1.27l-.17-.11Z"/><path class="cls-12" d="M611.32,203.83v-.05c-.15.25-.29.5-.44.74A.77.77,0,0,0,611.32,203.83Z"/><path class="cls-12" d="M610.55,202.1H599.6a.78.78,0,0,0-.77.77v1a.78.78,0,0,0,.77.77h10.95a.73.73,0,0,0,.33-.08c.15-.24.29-.49.44-.74v-.91A.77.77,0,0,0,610.55,202.1Z"/><path class="cls-12" d="M610.55,212.92a.76.76,0,0,0,.77-.77v-1a.76.76,0,0,0-.77-.76h-3.91c-.7.85-1.43,1.69-2.18,2.49Z"/><path class="cls-12" d="M598.83,211.19v1a.77.77,0,0,0,.77.77h4.86c.75-.8,1.48-1.64,2.18-2.49h-7A.77.77,0,0,0,598.83,211.19Z"/><rect class="cls-12" x="598.83" y="243.73" width="12.49" height="2.5" rx="0.77"/><rect class="cls-12" x="598.83" y="252.05" width="12.49" height="2.5" rx="0.77"/><rect class="cls-12" x="598.83" y="260.38" width="12.49" height="2.5" rx="0.77"/><rect class="cls-12" x="598.83" y="268.7" width="12.49" height="2.5" rx="0.77"/><rect class="cls-12" x="598.83" y="277.03" width="12.49" height="2.5" rx="0.77"/><rect class="cls-12" x="598.83" y="285.35" width="12.49" height="2.5" rx="0.77"/><rect class="cls-12" x="598.83" y="293.68" width="12.49" height="2.5" rx="0.77"/><rect class="cls-12" x="598.83" y="302.01" width="12.49" height="2.5" rx="0.77"/><rect class="cls-12" x="598.83" y="310.33" width="12.49" height="2.5" rx="0.77"/><rect class="cls-12" x="598.83" y="318.66" width="12.49" height="2.5" rx="0.77"/><path class="cls-12" d="M597.17,208v-1a.78.78,0,0,0-.77-.77h-8.49c-.26.82-.47,1.66-.67,2.5h9.16A.78.78,0,0,0,597.17,208Z"/><path class="cls-12" d="M597.17,216.32v-1a.77.77,0,0,0-.77-.77h-10c0,.64,0,1.29,0,1.95v.55h10A.78.78,0,0,0,597.17,216.32Z"/><path class="cls-12" d="M596.4,225.41a.78.78,0,0,0,.77-.77v-1a.78.78,0,0,0-.77-.77H592a53.23,53.23,0,0,1-4.87,2.5Z"/><path class="cls-12" d="M586.35,225.41h.74a53.23,53.23,0,0,0,4.87-2.5h-5.61Z"/><path class="cls-12" d="M597.13,191.54c-.19.17-.36.35-.55.53A.76.76,0,0,0,597.13,191.54Z"/><path class="cls-12" d="M597.17,199.66v-.95a.77.77,0,0,0-.77-.77h-4.58c-.52.81-1,1.64-1.47,2.49h6A.77.77,0,0,0,597.17,199.66Z"/><path class="cls-12" d="M596.4,233.74a.78.78,0,0,0,.77-.77v-1a.78.78,0,0,0-.77-.77h-10v2.5Z"/><path class="cls-12" d="M596.4,242.06a.77.77,0,0,0,.77-.77v-1a.78.78,0,0,0-.77-.77h-10v2.5Z"/><path class="cls-12" d="M596.4,250.39a.78.78,0,0,0,.77-.77v-1a.78.78,0,0,0-.77-.77h-10v2.5Z"/><path class="cls-12" d="M596.4,258.71a.77.77,0,0,0,.77-.77V257a.77.77,0,0,0-.77-.77h-10v2.49Z"/><path class="cls-12" d="M596.4,267a.78.78,0,0,0,.77-.77v-1a.78.78,0,0,0-.77-.77h-10V267Z"/><path class="cls-12" d="M596.4,275.36a.77.77,0,0,0,.77-.77v-.95a.77.77,0,0,0-.77-.77h-10v2.49Z"/><path class="cls-12" d="M596.4,283.69a.78.78,0,0,0,.77-.77v-1a.78.78,0,0,0-.77-.77h-10v2.5Z"/><path class="cls-12" d="M596.4,292a.78.78,0,0,0,.77-.77v-1a.77.77,0,0,0-.77-.77h-10V292Z"/><path class="cls-12" d="M596.4,300.34a.78.78,0,0,0,.77-.77v-1a.78.78,0,0,0-.77-.77h-10v2.5Z"/><path class="cls-12" d="M596.4,308.67a.78.78,0,0,0,.77-.77v-1a.77.77,0,0,0-.77-.77h-10v2.5Z"/><path class="cls-12" d="M596.4,317a.77.77,0,0,0,.77-.77v-1a.78.78,0,0,0-.77-.77h-10V317Z"/><path class="cls-12" d="M596.4,325.32a.78.78,0,0,0,.77-.77v-1a.78.78,0,0,0-.77-.77h-10v2.5Z"/><line class="cls-13" x1="987" y1="73" x2="1048" y2="134"/><line class="cls-13" x1="1048" y1="73" x2="987" y2="134"/></svg>