<svg id="Calque_1" data-name="Calque 1" xmlns="http://www.w3.org/2000/svg" xmlns:xlink="http://www.w3.org/1999/xlink" viewBox="0 0 1125 2436"><defs><style>.cls-1{fill:none;}.cls-2,.cls-26,.cls-4{fill:#ffae00;}.cls-2,.cls-26{stroke:#fff;stroke-miterlimit:10;}.cls-2{stroke-width:0.25px;}.cls-3{fill:#e02229;}.cls-5{fill:#fff;}.cls-6{fill:#00b2ae;}.cls-7{fill:#ffcc97;}.cls-8{fill:#2db17e;}.cls-9{fill:#ffb777;}.cls-10{fill:#303030;}.cls-11{fill:#f1f1f1;}.cls-12{fill:#4c4c4c;}.cls-13{fill:#6a5c46;}.cls-14{fill:#894f00;}.cls-15{fill:#a96600;}.cls-16{fill:#fbca85;}.cls-17{clip-path:url(#clip-path);}.cls-18{fill:#e39c10;}.cls-19{clip-path:url(#clip-path-2);}.cls-20{fill:#ffce5c;}.cls-21{fill:#e8b350;}.cls-22{fill:#84170e;}.cls-23{fill:#ff9c45;}.cls-24{fill:#a00e0e;}.cls-25{fill:#680202;}.cls-26{stroke-width:0.25px;}</style><clipPath id="clip-path"><rect class="cls-1" x="-1145" width="1125" height="2435"/></clipPath><clipPath id="clip-path-2"><rect class="cls-1" x="0.45" y="0.32" width="1124.36" height="2435.01"/></clipPath></defs><title>Plan de travail 5 copie</title><rect class="cls-2" x="0.45" y="0.32" width="1124.36" height="2435.01"/><rect class="cls-3" x="744.03" y="134.92" width="304.13" height="74.52" rx="22.3"/><path class="cls-4" d="M916.37,199V191.7h7.34v-22h-7.34v-7.34h7.34V155h14.68V191.7h7.33V199Z"/><path class="cls-4" d="M975.07,199V191.7h14.68V177h-22V155h36.68v7.34h-22v7.34h22V177h7.34V191.7h-7.34V199Zm-7.33-7.34v-7.34h7.33v7.34Z"/><path class="cls-3" d="M514.49,142.55A37.37,37.37,0,0,0,520,148.7c.59-1.24,1.22-2.45,1.88-3.65A30.25,30.25,0,0,1,514.49,142.55Zm10.84-17.84a37.42,37.42,0,0,0,2.85,11.08c1.16-1.42,2.39-2.79,3.67-4.1A30.29,30.29,0,0,1,525.33,124.71Zm18.53-9.32a36.73,36.73,0,0,0-2.23,8.1q1.71-1.17,3.51-2.22A29.22,29.22,0,0,1,543.86,115.39Zm68.81,8.28A35.78,35.78,0,0,0,602,101.55a30.82,30.82,0,0,1,.34,16.38A62.94,62.94,0,0,1,612.67,123.67ZM576.54,94.48h-.2a82.79,82.79,0,0,0-9.24.52h0a82,82,0,0,0-15.9,3.39c.48.7.93,1.42,1.36,2.17A31.17,31.17,0,0,1,556.73,116,63,63,0,0,1,577,112.63h.82l.94,0A62.79,62.79,0,0,1,596,115.52,37,37,0,0,0,586,95,84,84,0,0,0,576.54,94.48Z"/><path class="cls-1" d="M622.43,157.61c.11.19.21.38.31.57C622.64,158,622.54,157.8,622.43,157.61Z"/><path class="cls-1" d="M620.58,154.55c.07.12.15.23.23.35C620.73,154.78,620.65,154.67,620.58,154.55Z"/><path class="cls-1" d="M621.63,156.22l.28.48C621.82,156.54,621.73,156.38,621.63,156.22Z"/><path class="cls-1" d="M624,160.67c.07.13.13.26.19.4C624.13,160.93,624.07,160.8,624,160.67Z"/><path class="cls-1" d="M624.82,162.49c.08.18.15.37.23.55C625,162.86,624.9,162.67,624.82,162.49Z"/><path class="cls-1" d="M628.21,174.48c0,.11,0,.21,0,.31C628.25,174.69,628.23,174.59,628.21,174.48Z"/><path class="cls-1" d="M626.58,167.33l.12.38Z"/><path class="cls-1" d="M602.35,117.93a31.63,31.63,0,0,1-7.63,13.93,37.55,37.55,0,0,0,1.61-10.94,38.46,38.46,0,0,0-.38-5.4A61.42,61.42,0,0,1,602.35,117.93Z"/><path class="cls-1" d="M617.63,150.5l.29.37Z"/><path class="cls-1" d="M628.79,211.71V182q0-.78,0-1.56c0-.2,0-.4,0-.6,0-.37,0-.74-.07-1.11,0-.22,0-.44,0-.65,0-.37-.07-.74-.1-1.11a1.23,1.23,0,0,1,0-.19,1.23,1.23,0,0,0,0-.19c0-.07,0-.13,0-.2q-.09-.8-.21-1.59c0-.1,0-.2,0-.31-.07-.46-.14-.91-.22-1.36l-.12-.61c-.07-.34-.13-.69-.21-1l0-.16c0-.16-.07-.32-.11-.48-.08-.34-.16-.69-.25-1,0-.06,0-.13,0-.2l-.09-.38c-.14-.51-.28-1-.43-1.52l-.12-.37c-.12-.4-.24-.79-.37-1.18-.06-.18-.13-.35-.18-.53l0-.07c-.11-.32-.22-.63-.34-.95s-.15-.41-.23-.62l0-.07c-.11-.29-.23-.59-.35-.88s-.15-.37-.23-.55c-.2-.48-.41-1-.62-1.42-.07-.14-.14-.27-.2-.4s-.23-.49-.35-.73l-.15-.32c-.1-.19-.2-.38-.29-.57l-.44-.82,0,0-.31-.57c-.17-.31-.34-.6-.52-.9s-.19-.33-.28-.49c-.27-.44-.54-.88-.82-1.32-.08-.12-.16-.23-.23-.35l-.33-.49-.09-.14-.06-.08-.13-.2h0l-.05-.07-.34-.49c-.2-.28-.4-.56-.61-.83s-.24-.33-.35-.49l-.69-.88-.3-.38-.25-.3c-.25-.31-.5-.61-.76-.91-.07-.09-.15-.17-.22-.25-.28-.32-.56-.64-.85-.95-.11-.13-.24-.26-.36-.39s-.51-.54-.77-.8l-.36-.37c-.3-.31-.61-.6-.92-.89-.07-.08-.15-.15-.23-.23l-.46-.43a.86.86,0,0,1-.14-.13,1.14,1.14,0,0,1-.17-.15l-.17-.14-.27-.25-.17-.14-1.06-.91-.33-.27-.49-.39a37.16,37.16,0,0,0,3-18.93,63.06,63.06,0,0,1,16.12,88Z"/><path class="cls-1" d="M628.79,182v29.72h0V182Z"/><path class="cls-1" d="M615.19,147.7l.36.39Z"/><path class="cls-1" d="M618.62,151.76l.35.48Z"/><path class="cls-1" d="M619.58,153.08l.34.49Z"/><path class="cls-1" d="M533.84,145a29.21,29.21,0,0,1-12,.06,64.26,64.26,0,0,1,6.3-9.26A36.8,36.8,0,0,0,533.84,145Z"/><path class="cls-1" d="M520.58,181.57a20.52,20.52,0,0,0,12.91,19.05c.33-.33.69-.65,1-1v22.65A63.13,63.13,0,0,1,520,148.7a36.8,36.8,0,0,0,14.54,8v5.43A20.51,20.51,0,0,0,520.58,181.57Z"/><path class="cls-1" d="M542,136.77a28.88,28.88,0,0,1-10.1-5.08,63,63,0,0,1,9.78-8.2A36.75,36.75,0,0,0,542,136.77Z"/><path class="cls-1" d="M556.73,116a30.13,30.13,0,0,1-4.85,16.6h0a29.28,29.28,0,0,1-6.7-11.31A62.39,62.39,0,0,1,556.73,116Z"/><path class="cls-1" d="M590.35,161.88v75.47l-.28.06V162Z"/><path class="cls-1" d="M628.63,178.07c0,.21,0,.43,0,.64C628.66,178.5,628.64,178.28,628.63,178.07Z"/><path class="cls-1" d="M628.53,177c0-.12,0-.25,0-.38h0C628.5,176.72,628.51,176.84,628.53,177Z"/><path class="cls-1" d="M627.66,171.48l0-.16h0Z"/><path class="cls-1" d="M628.74,179.83c0,.2,0,.4,0,.6C628.76,180.23,628.75,180,628.74,179.83Z"/><path class="cls-1" d="M626.21,166.16l-.18-.53h0C626.09,165.81,626.15,166,626.21,166.16Z"/><path class="cls-1" d="M627.22,169.62l-.09-.39.09.39Z"/><path class="cls-1" d="M627.87,172.51l.12.61Z"/><path class="cls-1" d="M612.91,145.41l.23.22Z"/><path class="cls-1" d="M614.06,146.53l.36.36Z"/><path class="cls-3" d="M658.69,176.83a82.2,82.2,0,0,1-29.9,63.49q-2.1,1.74-4.32,3.33c-.81.59-1.63,1.15-2.47,1.71a82.08,82.08,0,0,1-10,5.7c-.95.46-1.91.89-2.88,1.31-1.24.54-2.51,1.06-3.78,1.54q-2.48.93-5,1.7c-1.37.42-2.75.8-4.15,1.14-1.18.29-2.36.57-3.54.81h0l-.26.05A82.37,82.37,0,0,1,551.19,98.39c.48.7.93,1.42,1.36,2.17A31.17,31.17,0,0,1,556.73,116a62.39,62.39,0,0,0-11.59,5.3,29.22,29.22,0,0,1-1.28-5.88,36.73,36.73,0,0,0-2.23,8.1,63,63,0,0,0-9.78,8.2,30.29,30.29,0,0,1-6.52-7,37.42,37.42,0,0,0,2.85,11.08,64.26,64.26,0,0,0-6.3,9.26,30.25,30.25,0,0,1-7.39-2.5A37.37,37.37,0,0,0,520,148.7a63.1,63.1,0,0,0,70.07,88.71l.28-.06a61.32,61.32,0,0,0,6.19-1.67h.69a.52.52,0,0,0,.5-.4,59.54,59.54,0,0,0,6-2.45c1.13-.53,2.24-1.08,3.33-1.67.77-.42,1.52-.86,2.27-1.3s1.69-1,2.51-1.58a62.22,62.22,0,0,0,5.39-4,.49.49,0,0,0,.41-.35c.79-.66,1.56-1.34,2.32-2l1-1q2-1.91,3.75-4c.49-.57,1-1.13,1.43-1.71.9-1.12,1.77-2.28,2.59-3.47a63.06,63.06,0,0,0-16.12-88A35.78,35.78,0,0,0,602,101.55a30.82,30.82,0,0,1,.34,16.38,61.42,61.42,0,0,0-6.4-2.41A37,37,0,0,0,586,95,82.36,82.36,0,0,1,658.69,176.83Z"/><path class="cls-5" d="M542.2,137.91a23.54,23.54,0,0,0-4.76,6.05,27.69,27.69,0,0,1-3.6,1,36.8,36.8,0,0,1-5.66-9.2,37.42,37.42,0,0,1-2.85-11.08,30.29,30.29,0,0,0,6.52,7,28.88,28.88,0,0,0,10.1,5.08C542,137.16,542.11,137.53,542.2,137.91Z"/><path class="cls-5" d="M596.33,120.92a37.55,37.55,0,0,1-1.61,10.94,28.13,28.13,0,0,1-2.08,2,49.15,49.15,0,0,0-7.6-1.65,50.75,50.75,0,0,0-6.91-.48H578a36.85,36.85,0,0,0,.31-17c.17-.68.32-1.37.43-2.07a31.42,31.42,0,0,0-2.24-18.18,30.58,30.58,0,0,0-6-8.87A35.35,35.35,0,0,1,586,95a37,37,0,0,1,10,20.48A38.46,38.46,0,0,1,596.33,120.92Z"/><path class="cls-5" d="M535.94,147.27a23.39,23.39,0,0,0-1.4,8v1.43a36.8,36.8,0,0,1-14.54-8,37.37,37.37,0,0,1-5.51-6.15,30.25,30.25,0,0,0,7.39,2.5,29.21,29.21,0,0,0,12-.06Q534.85,146.18,535.94,147.27Z"/><path class="cls-5" d="M578.35,114.73a30.66,30.66,0,0,1-11,17h-9.27a23.54,23.54,0,0,0-6.2.83,30.13,30.13,0,0,0,4.85-16.6,31.17,31.17,0,0,0-4.18-15.41c-.43-.75-.88-1.47-1.36-2.17a30.91,30.91,0,0,0-17-12.26A36.18,36.18,0,0,1,567.09,95h0a38,38,0,0,1,10.73,17.64h0C578,113.33,578.2,114,578.35,114.73Z"/><path class="cls-5" d="M567.35,131.74H578a36.85,36.85,0,0,0,.31-17A30.66,30.66,0,0,1,567.35,131.74Z"/><path class="cls-5" d="M533.84,145q1,1.19,2.1,2.28a23.47,23.47,0,0,1,1.5-3.31A27.69,27.69,0,0,1,533.84,145Z"/><path class="cls-5" d="M609.65,142.6a5.32,5.32,0,0,0-.47-.36l-.38-.3-1-.72-.36-.25,0,0c-.42-.29-.84-.58-1.27-.86l-.12-.08-.28-.18c-.31-.2-.63-.41-.95-.6s-.38-.24-.58-.35l-.81-.48-.6-.34-.87-.47-.55-.29-1.43-.71a25.39,25.39,0,0,0-2,1.69l-.21.2-.19.18-.29.29-.22.21-.76.81c-.15.19-.31.37-.46.55s-.31.37-.45.56l-.44.57-.45.63-.36.54-.1.16-.44.72-.19.33a1.64,1.64,0,0,0-.12.22c-.06.11-.12.21-.17.32l-.12.23c0,.08-.08.16-.13.24l-.12.26-.18.37,0,.1-.33.74s0,0,0,0c-.12.29-.24.59-.34.9s-.19.49-.27.75a0,0,0,0,1,0,0s0,.09,0,.14,0,.14-.07.21a.43.43,0,0,1,0,.05c0,.1-.06.19-.09.29l-.08.29v0c0,.05,0,.1,0,.14s0,0,0,.06h0a4.05,4.05,0,0,0-.12.47c0,.18-.09.36-.12.53s-.06.26-.09.39-.06.26-.08.39,0,.29-.08.43,0,.35-.08.52,0,.08,0,.12a2,2,0,0,1,0,.24,1.94,1.94,0,0,0,0,.24v0c0,.21,0,.43-.07.65a2.45,2.45,0,0,0,0,.27v.06c0,.05,0,.11,0,.17s0,.11,0,.17a.91.91,0,0,0,0,.17s0,.07,0,.11c0,.4,0,.81,0,1.22v6.31l-.28.12v-6.43a23.52,23.52,0,0,1,9.63-19,51,51,0,0,0-5.79-2.31c.3-.79.57-1.59.81-2.41a31.63,31.63,0,0,0,7.63-13.93,30.82,30.82,0,0,0-.34-16.38,35.78,35.78,0,0,1,10.66,22.12A37.16,37.16,0,0,1,609.65,142.6Z"/><path class="cls-5" d="M606.05,140l-.28-.18.28.18Z"/><path class="cls-5" d="M601.41,137.29l.54.29Z"/><path class="cls-5" d="M602.83,138.05l.6.34Z"/><path class="cls-5" d="M607.47,141l.36.25Z"/><path class="cls-5" d="M608.8,141.94l.38.3Z"/><path class="cls-5" d="M600,136.58a25.39,25.39,0,0,0-2,1.69,25.39,25.39,0,0,1,2-1.69Z"/><path class="cls-5" d="M604.24,138.87l.58.35Z"/><path class="cls-5" d="M551.84,132.58a23.56,23.56,0,0,0-8.69,4.5c-.4-.09-.8-.19-1.2-.31a37.19,37.19,0,0,1,1.91-21.38,30.08,30.08,0,0,0,8,17.19Z"/><path class="cls-5" d="M594.72,131.86a28.13,28.13,0,0,1-2.08,2l1.27.4C594.21,133.48,594.48,132.68,594.72,131.86Z"/><path class="cls-5" d="M542,136.77c.07.39.16.76.25,1.14.31-.29.63-.56.95-.83C542.75,137,542.35,136.89,542,136.77Z"/><polygon class="cls-6" points="551.87 132.57 551.84 132.58 551.86 132.6 551.87 132.57"/><path class="cls-6" d="M590.07,162v75.41a63.1,63.1,0,0,1-55.53-15.1V199.66l.48-.41a20.48,20.48,0,0,1,20.5-3.12,17.89,17.89,0,0,0,1.38-1.51,20.35,20.35,0,0,0,4.66-12.07c0-.33,0-.65,0-1a20.51,20.51,0,0,0-27.05-19.42v-5.43a35.21,35.21,0,0,0,18.89.16l.66.13a34.31,34.31,0,0,0,6,4,34.71,34.71,0,0,0,10,3.39,6.26,6.26,0,1,0,11.42,3.56,6.24,6.24,0,0,0-1-3.34h0A35.94,35.94,0,0,0,590.07,162Z"/><path class="cls-6" d="M543.15,141.17a32.93,32.93,0,0,1-.95-3.26,23.54,23.54,0,0,0-4.76,6.05,28.21,28.21,0,0,0,4.65-2.15C542.45,141.61,542.8,141.4,543.15,141.17Z"/><path class="cls-6" d="M592.64,133.87a49.15,49.15,0,0,0-7.6-1.65,50.75,50.75,0,0,0-6.91-.48H578a35.93,35.93,0,0,1-4.08,9.71A30.33,30.33,0,0,0,592.64,133.87Z"/><path class="cls-6" d="M553.43,156.88l.66.13-.28-.23Z"/><path class="cls-6" d="M551.86,132.6a28.14,28.14,0,0,0,5.16,4.26,29.18,29.18,0,0,0,10.33-5.12h-9.27a23.54,23.54,0,0,0-6.2.83h0Z"/><path class="cls-6" d="M534.54,155.29v1.43a35.21,35.21,0,0,0,18.89.16,35.09,35.09,0,0,1-17.49-9.61A23.39,23.39,0,0,0,534.54,155.29Z"/><path class="cls-6" d="M559.37,138.23A28.8,28.8,0,0,0,574,141.45a35.93,35.93,0,0,0,4.08-9.71H567.35A29.18,29.18,0,0,1,557,136.86C557.78,137.35,558.56,137.81,559.37,138.23Z"/><path class="cls-6" d="M543.15,141.17c-.35.23-.7.44-1.06.64a28.21,28.21,0,0,1-4.65,2.15,23.47,23.47,0,0,0-1.5,3.31,35.09,35.09,0,0,0,17.49,9.61l.38-.1A35,35,0,0,1,543.15,141.17Z"/><path class="cls-6" d="M551.86,132.6l0,0a23.56,23.56,0,0,0-8.69,4.5,28.09,28.09,0,0,0,4.41.66A28.41,28.41,0,0,0,551.86,132.6Z"/><path class="cls-6" d="M560.73,157.65a33.9,33.9,0,0,1-6.64-.64,34.31,34.31,0,0,0,6,4,34.71,34.71,0,0,0,10,3.39h0a6.26,6.26,0,0,1,10.46.22h0a35.94,35.94,0,0,0,9.51-2.57v-6.43a23.52,23.52,0,0,1,9.63-19,51,51,0,0,0-5.79-2.31A35.66,35.66,0,0,1,560.73,157.65Z"/><path class="cls-6" d="M547.56,137.74a28.09,28.09,0,0,1-4.41-.66c-.32.27-.64.54-.95.83a32.93,32.93,0,0,0,.95,3.26A28.11,28.11,0,0,0,547.56,137.74Z"/><path class="cls-6" d="M561.6,153.49a34.93,34.93,0,0,1-7.79,3.29l.28.23a33.9,33.9,0,0,0,6.64.64,35.66,35.66,0,0,0,33.18-23.38l-1.27-.4A30.33,30.33,0,0,1,574,141.45,34.57,34.57,0,0,1,561.6,153.49Z"/><path class="cls-6" d="M549.63,137.82a28.63,28.63,0,0,0,7.39-1,28.14,28.14,0,0,1-5.16-4.26,28.41,28.41,0,0,1-4.3,5.14C548.25,137.79,548.94,137.82,549.63,137.82Z"/><path class="cls-6" d="M547.56,137.74a28.11,28.11,0,0,1-4.41,3.43,35,35,0,0,0,10.66,15.61,34.93,34.93,0,0,0,7.79-3.29,34.57,34.57,0,0,0,12.36-12,28.8,28.8,0,0,1-14.59-3.22c-.81-.42-1.59-.88-2.35-1.37a28.63,28.63,0,0,1-7.39,1C548.94,137.82,548.25,137.79,547.56,137.74Z"/><path class="cls-7" d="M520.58,181.58a20.52,20.52,0,0,0,12.91,19c.34-.34.69-.65,1-1V162.15A20.5,20.5,0,0,0,520.58,181.58Z"/><path class="cls-7" d="M535,199.25a20.52,20.52,0,0,1,25.12-17.1c.48.12,1,.25,1.43.4,0-.33,0-.65,0-1a20.5,20.5,0,0,0-20.5-20.51,20.26,20.26,0,0,0-6.55,1.08v37.51Z"/><path class="cls-8" d="M535,199.25a20.46,20.46,0,0,1,2.42-7.19,20.46,20.46,0,0,0-2.42,7.19,20.43,20.43,0,0,1,20.5-3.11h0a20.43,20.43,0,0,0-20.5,3.11Z"/><path class="cls-8" d="M561.57,182.55a20.49,20.49,0,0,1-4.67,12.07,20.49,20.49,0,0,0,4.67-12.07c-.47-.15-1-.28-1.43-.4C560.62,182.27,561.1,182.4,561.57,182.55Z"/><path class="cls-9" d="M555.52,196.14c.49-.49.94-1,1.38-1.52-.44.53-.89,1-1.38,1.52Z"/><path class="cls-9" d="M555.33,181.58a20.56,20.56,0,0,1,4.81.57,20.52,20.52,0,0,0-22.7,9.91A20.49,20.49,0,0,1,555.33,181.58Z"/><path class="cls-9" d="M560.14,182.15A20.51,20.51,0,0,0,535,199.25a20.43,20.43,0,0,1,20.5-3.11c.49-.49.94-1,1.38-1.52a20.49,20.49,0,0,0,4.67-12.07C561.1,182.4,560.62,182.27,560.14,182.15Z"/><path class="cls-10" d="M570.1,164.35a6.26,6.26,0,1,0,11.42,3.56,6.24,6.24,0,0,0-1-3.34A34.65,34.65,0,0,1,570.1,164.35Z"/><path class="cls-10" d="M575.26,161.64a6.28,6.28,0,0,0-5.16,2.71,34.65,34.65,0,0,0,10.46.22A6.28,6.28,0,0,0,575.26,161.64Z"/><path class="cls-11" d="M621.91,156.7c.18.3.35.61.52.91C622.26,157.31,622.09,157,621.91,156.7Z"/><path class="cls-11" d="M614.42,146.89l.77.81Z"/><path class="cls-11" d="M613.14,145.63l.92.9Z"/><path class="cls-11" d="M617.92,150.87l.7.89Z"/><path class="cls-11" d="M628.76,180.43c0-.2,0-.4,0-.6,0-.37,0-.74-.07-1.11,0-.22,0-.44,0-.65,0-.37-.07-.74-.1-1.11a1.23,1.23,0,0,1,0-.19,1.1,1.1,0,0,1,0-.18.53.53,0,0,1-.51.43h-7.49a.52.52,0,0,1-.52-.53v-.65a.52.52,0,0,1,.52-.53H628a.54.54,0,0,1,.37.15l-.09-.67c0-.1,0-.2,0-.31-.07-.46-.14-.91-.22-1.36l-.12-.61c-.07-.34-.13-.69-.21-1l0-.16h-7.14a.52.52,0,0,1-.52-.52v-.66a.52.52,0,0,1,.52-.53h6.73l-.09-.38c-.14-.51-.28-1-.43-1.52l-.12-.37c-.12-.4-.24-.79-.37-1.18-.06-.18-.13-.35-.18-.53h-5.54a.52.52,0,0,1-.52-.53v-.65a.52.52,0,0,1,.52-.53h4.91c-.11-.29-.23-.59-.35-.88s-.15-.37-.23-.55c-.2-.48-.41-1-.62-1.42-.07-.14-.14-.27-.2-.4s-.23-.49-.35-.73h-3.16a.52.52,0,0,1-.52-.53v-.66a.52.52,0,0,1,.52-.52h2.28l0,0-.31-.57c-.17-.31-.34-.6-.52-.9s-.19-.33-.28-.49c-.27-.44-.54-.88-.82-1.32-.08-.12-.16-.23-.23-.35l-.23-.34a.52.52,0,0,1-.38-.5v-.07l-.05-.07-.34-.49c-.2-.28-.4-.56-.61-.83s-.24-.33-.35-.49l-.69-.88-.3-.38-.25-.3a.54.54,0,0,1-.22.05h-7.49a.52.52,0,0,1-.52-.52v-.66a.52.52,0,0,1,.52-.53H616l-.41-.45c-.11-.13-.24-.26-.36-.39s-.51-.54-.77-.8l-.36-.37c-.3-.31-.61-.6-.92-.89-.07-.08-.15-.15-.23-.23l-.46-.43a.86.86,0,0,1-.14-.13,1.14,1.14,0,0,1-.17-.15l-.17-.14h-2.3a.52.52,0,0,1-.52-.53v-.33c-.18.36-.36.72-.55,1.08-.37.71-.76,1.39-1.16,2.07v0a.52.52,0,0,1-.31.47,37.27,37.27,0,0,1-2.89,4h2.67a.53.53,0,0,1,.53.53v.65a.53.53,0,0,1-.53.53h-4.17a37.45,37.45,0,0,1-8.55,6.84h3a.52.52,0,0,1,.52.52v.66a.52.52,0,0,1-.52.52h-6.37l-.51.24v3.75h6.88a.52.52,0,0,1,.52.53v.65a.52.52,0,0,1-.52.53h-6.88v4h6.88a.52.52,0,0,1,.52.53v.65a.53.53,0,0,1-.52.54h-6.88v4h6.88a.52.52,0,0,1,.52.53v.65a.52.52,0,0,1-.52.53h-6.88v4h6.88a.52.52,0,0,1,.52.53v.66a.52.52,0,0,1-.52.52h-6.88v4h6.88a.52.52,0,0,1,.52.53v.65a.52.52,0,0,1-.52.53h-6.88v4h6.88a.52.52,0,0,1,.52.52v.66a.52.52,0,0,1-.52.52h-6.88v4h6.88a.52.52,0,0,1,.52.53V201a.52.52,0,0,1-.52.53h-6.88v4h6.88a.52.52,0,0,1,.52.53v.66a.52.52,0,0,1-.52.52h-6.88v4h6.88a.52.52,0,0,1,.52.53v.65a.52.52,0,0,1-.52.53h-6.88v4h6.88a.52.52,0,0,1,.52.52v.66a.52.52,0,0,1-.52.52h-6.88v4h6.88a.52.52,0,0,1,.52.53v.66a.52.52,0,0,1-.52.52h-6.88v4h6.88a.52.52,0,0,1,.52.52v.66a.52.52,0,0,1-.52.53h-6.88v4h6.88a.52.52,0,0,1,.52.53v.65a.51.51,0,0,1,0,.13,59.54,59.54,0,0,0,6-2.45h-4.32a.53.53,0,0,1-.53-.53v-.65a.52.52,0,0,1,.53-.52h7.49a.41.41,0,0,1,.16,0c.77-.42,1.52-.86,2.27-1.3a.51.51,0,0,1-.19-.4v-.66a.52.52,0,0,1,.52-.52h2.18a62.22,62.22,0,0,0,5.39-4l-.08,0h-7.49a.52.52,0,0,1-.52-.52v-.66a.52.52,0,0,1,.52-.53h7.49a.53.53,0,0,1,.53.53v.66a.42.42,0,0,1,0,.15c.79-.66,1.56-1.34,2.32-2v-.48a.52.52,0,0,1,.52-.53H621q2-1.91,3.75-4h-4.28a.52.52,0,0,1-.52-.53v-.66a.52.52,0,0,1,.52-.52h5.71c.9-1.12,1.77-2.28,2.59-3.47V182Q628.79,181.21,628.76,180.43Zm-21.32,46.18a.53.53,0,0,1-.53.53h-7.49a.53.53,0,0,1-.53-.53V226a.53.53,0,0,1,.53-.53h7.49a.53.53,0,0,1,.53.53Zm0-5.69a.52.52,0,0,1-.53.52h-7.49a.52.52,0,0,1-.53-.52v-.66a.53.53,0,0,1,.53-.53h7.49a.53.53,0,0,1,.53.53Zm0-5.7a.53.53,0,0,1-.53.53h-7.49a.53.53,0,0,1-.53-.53v-.66a.52.52,0,0,1,.53-.52h7.49a.52.52,0,0,1,.53.52Zm0-5.7a.53.53,0,0,1-.53.53h-7.49a.53.53,0,0,1-.53-.53v-.65a.53.53,0,0,1,.53-.53h7.49a.53.53,0,0,1,.53.53Zm0-5.69a.53.53,0,0,1-.53.53h-7.49a.53.53,0,0,1-.53-.53v-.65a.53.53,0,0,1,.53-.53h7.49a.53.53,0,0,1,.53.53Zm0-5.69a.52.52,0,0,1-.53.52h-7.49a.52.52,0,0,1-.53-.52v-.66a.53.53,0,0,1,.53-.53h7.49a.53.53,0,0,1,.53.53Zm0-5.7a.53.53,0,0,1-.53.53h-7.49a.53.53,0,0,1-.53-.53v-.66a.52.52,0,0,1,.53-.52h7.49a.52.52,0,0,1,.53.52Zm0-5.69a.53.53,0,0,1-.53.52h-7.49a.53.53,0,0,1-.53-.52v-.66a.53.53,0,0,1,.53-.53h7.49a.53.53,0,0,1,.53.53Zm0-5.7a.52.52,0,0,1-.53.52h-7.49a.52.52,0,0,1-.53-.52v-.66a.52.52,0,0,1,.53-.52h7.49a.52.52,0,0,1,.53.52Zm0-5.7a.53.53,0,0,1-.53.53h-7.49a.53.53,0,0,1-.53-.53v-.65a.53.53,0,0,1,.53-.53h7.49a.53.53,0,0,1,.53.53Zm0-5.69a.53.53,0,0,1-.53.53h-7.49a.53.53,0,0,1-.53-.53V169a.53.53,0,0,1,.53-.52h7.49a.53.53,0,0,1,.53.52Zm0-5.69a.53.53,0,0,1-.53.52h-7.49a.53.53,0,0,1-.53-.52v-.66a.53.53,0,0,1,.53-.53h7.49a.53.53,0,0,1,.53.53Zm0-5.7a.52.52,0,0,1-.53.52h-7.49a.52.52,0,0,1-.53-.52v-.66a.52.52,0,0,1,.53-.52h7.49a.52.52,0,0,1,.53.52Zm10.25,59.8a.52.52,0,0,1-.53.52h-7.49a.52.52,0,0,1-.52-.52v-.66a.52.52,0,0,1,.52-.52h7.49a.52.52,0,0,1,.53.52Zm0-5.7a.53.53,0,0,1-.53.53h-7.49a.52.52,0,0,1-.52-.53v-.65a.52.52,0,0,1,.52-.53h7.49a.53.53,0,0,1,.53.53Zm0-5.69a.52.52,0,0,1-.53.52h-7.49a.52.52,0,0,1-.52-.52V206a.52.52,0,0,1,.52-.53h7.49a.53.53,0,0,1,.53.53Zm0-5.7a.53.53,0,0,1-.53.53h-7.49a.52.52,0,0,1-.52-.53v-.65a.52.52,0,0,1,.52-.53h7.49a.53.53,0,0,1,.53.53Zm0-5.69a.52.52,0,0,1-.53.52h-7.49a.52.52,0,0,1-.52-.52v-.66a.52.52,0,0,1,.52-.52h7.49a.52.52,0,0,1,.53.52Zm0-5.7a.53.53,0,0,1-.53.53h-7.49a.52.52,0,0,1-.52-.53v-.65a.52.52,0,0,1,.52-.53h7.49a.53.53,0,0,1,.53.53Zm0-5.69a.52.52,0,0,1-.53.52h-7.49a.52.52,0,0,1-.52-.52v-.66a.52.52,0,0,1,.52-.53h7.49a.53.53,0,0,1,.53.53Zm0-5.7a.53.53,0,0,1-.53.53h-7.49a.52.52,0,0,1-.52-.53v-.65a.52.52,0,0,1,.52-.53h7.49a.53.53,0,0,1,.53.53Zm0-5.7a.54.54,0,0,1-.53.54h-7.49a.53.53,0,0,1-.52-.54v-.65a.52.52,0,0,1,.52-.53h7.49a.53.53,0,0,1,.53.53Zm0-5.69a.53.53,0,0,1-.53.53h-7.49a.52.52,0,0,1-.52-.53v-.65a.52.52,0,0,1,.52-.53h7.49a.53.53,0,0,1,.53.53Zm0-5.69a.52.52,0,0,1-.53.52h-7.49a.52.52,0,0,1-.52-.52v-.66a.52.52,0,0,1,.52-.52h7.49a.52.52,0,0,1,.53.52Zm0-5.7a.53.53,0,0,1-.53.53h-7.49a.52.52,0,0,1-.52-.53v-.66a.52.52,0,0,1,.52-.52h7.49a.53.53,0,0,1,.53.52Zm10.82,55.24a.53.53,0,0,1-.53.53h-7.49a.52.52,0,0,1-.52-.53V210a.52.52,0,0,1,.52-.53H628a.53.53,0,0,1,.53.53Zm0-5.69a.52.52,0,0,1-.53.52h-7.49A.52.52,0,0,1,620,205v-.66a.52.52,0,0,1,.52-.52H628a.52.52,0,0,1,.53.52Zm0-5.7a.53.53,0,0,1-.53.53h-7.49a.52.52,0,0,1-.52-.53v-.65a.52.52,0,0,1,.52-.53H628a.53.53,0,0,1,.53.53Zm0-5.69a.53.53,0,0,1-.53.53h-7.49a.52.52,0,0,1-.52-.53v-.66a.52.52,0,0,1,.52-.52H628a.53.53,0,0,1,.53.52Zm0-5.69a.53.53,0,0,1-.53.52h-7.49a.52.52,0,0,1-.52-.52v-.66a.52.52,0,0,1,.52-.53H628a.53.53,0,0,1,.53.53Zm0-5.7a.52.52,0,0,1-.53.52h-7.49a.52.52,0,0,1-.52-.52v-.66a.52.52,0,0,1,.52-.52H628a.52.52,0,0,1,.53.52Z"/><path class="cls-11" d="M626.7,167.71c.15.51.29,1,.43,1.52C627,168.72,626.85,168.22,626.7,167.71Z"/><path class="cls-11" d="M619,152.24l.61.84Z"/><path class="cls-11" d="M624.19,161.07c.22.47.43.94.63,1.42C624.62,162,624.41,161.54,624.19,161.07Z"/><path class="cls-11" d="M610.47,143.26l1.06.9Z"/><path class="cls-11" d="M620.81,154.9c.28.44.55.88.82,1.32C621.36,155.78,621.09,155.34,620.81,154.9Z"/><path class="cls-11" d="M625.66,164.62c.12.31.23.62.34.94C625.89,165.24,625.78,164.93,625.66,164.62Z"/><path class="cls-11" d="M628.47,176.38q-.09-.8-.21-1.59l.09.67Z"/><path class="cls-11" d="M626.21,166.16c.13.39.25.78.37,1.17C626.46,166.94,626.34,166.55,626.21,166.16Z"/><path class="cls-11" d="M624,160.67c-.16-.35-.33-.7-.5-1l.15.31C623.77,160.18,623.89,160.42,624,160.67Z"/><path class="cls-11" d="M610,142.85l.17.14-.48-.39h0Z"/><path class="cls-11" d="M610,142.85l-.31-.25c0,.1-.09.19-.13.28l.15,0Z"/><path class="cls-11" d="M625.43,164l-.38-1c.12.29.23.59.35.88Z"/><path class="cls-11" d="M623.21,159.05l-.47-.87,0,0Z"/><path class="cls-11" d="M616.4,149c-.28-.32-.56-.64-.85-.95l.41.45Z"/><path class="cls-11" d="M617.63,150.5c-.33-.41-.67-.81-1-1.21.26.3.51.6.76.91Z"/><path class="cls-11" d="M612.91,145.41c-.4-.37-.8-.74-1.21-1.1l.27.25Z"/><path class="cls-11" d="M628.67,178.71c0,.38.05.75.07,1.12C628.72,179.46,628.7,179.09,628.67,178.71Z"/><polygon class="cls-11" points="590.35 233.97 590.35 229.99 590.35 228.28 590.35 224.29 590.35 222.58 590.35 218.59 590.35 216.89 590.35 212.9 590.35 211.19 590.35 207.2 590.35 205.5 590.35 201.51 590.35 199.8 590.35 195.81 590.35 194.11 590.35 190.12 590.35 188.41 590.35 184.42 590.35 182.72 590.35 178.73 590.35 177.02 590.35 173.03 590.35 171.32 590.35 167.34 590.35 165.63 590.35 161.88 590.35 161.88 590.35 237.35 590.35 237.35 590.35 235.68 590.35 233.97"/><path class="cls-11" d="M627.27,169.81c.09.35.17.69.25,1C627.44,170.5,627.36,170.16,627.27,169.81Z"/><path class="cls-11" d="M628.53,177c0,.37.07.74.1,1.11C628.6,177.7,628.56,177.33,628.53,177Z"/><path class="cls-11" d="M628.76,180.43q0,.78,0,1.56Q628.79,181.21,628.76,180.43Z"/><path class="cls-11" d="M627.66,171.48c.08.34.15.69.21,1C627.81,172.17,627.74,171.82,627.66,171.48Z"/><path class="cls-11" d="M628,173.12c.08.45.15.91.22,1.36C628.14,174,628.07,173.57,628,173.12Z"/><path class="cls-11" d="M620.35,154.21l.23.34-.66-1,.05.07Z"/><path class="cls-11" d="M590.35,161.64v-6.07c0-.45,0-.89,0-1.33a23.82,23.82,0,0,1,.57-4c.14-.57.28-1.15.46-1.71a22.91,22.91,0,0,1,1.67-4c.31-.59.65-1.16,1-1.71a23.28,23.28,0,0,1,3.25-4l.38-.37.21-.2a23.45,23.45,0,0,0-7.59,17.3v6.31h0Z"/><path class="cls-11" d="M600,136.58h0l1.43.71Z"/><path class="cls-11" d="M607.83,141.22l1,.72Z"/><path class="cls-11" d="M590.35,161.88l.51-.24h-.51Z"/><path class="cls-11" d="M597.35,138.84a23.28,23.28,0,0,0-3.25,4h3.13a.52.52,0,0,1,.52.53V144a.52.52,0,0,1-.52.53h-4.14a22.91,22.91,0,0,0-1.67,4h5.81a.52.52,0,0,1,.52.53v.66a.52.52,0,0,1-.52.52H591a23.82,23.82,0,0,0-.57,4h6.84a.52.52,0,0,1,.52.53v.65a.52.52,0,0,1-.52.53h-6.88v4h3.84a37.13,37.13,0,0,0,8.55-6.83h-3.32a.53.53,0,0,1-.53-.53v-.65a.53.53,0,0,1,.53-.53h4.82a37.27,37.27,0,0,0,2.89-4,.54.54,0,0,1-.22.05h-7.49a.52.52,0,0,1-.53-.52v-.66a.52.52,0,0,1,.53-.52h7.49a.52.52,0,0,1,.53.52v.63c.4-.68.79-1.36,1.16-2.07.19-.36.37-.72.55-1.08v-.32a.53.53,0,0,1,.37-.5c0-.09.09-.18.13-.28l-.47-.36-.38-.3-1-.72-.36-.25,0,0v.24a.53.53,0,0,1-.53.53h-7.49a.53.53,0,0,1-.53-.53v-.65a.53.53,0,0,1,.53-.53h6.63l-.28-.18-.95-.6-.58-.35-.81-.48-.6-.34c-.29-.16-.58-.32-.88-.47l-.54-.29-1.43-.71a25.39,25.39,0,0,0-2,1.69l-.21.2A.53.53,0,0,1,597.35,138.84Z"/><path class="cls-11" d="M604.82,139.22l.95.6Z"/><path class="cls-11" d="M602,137.58c.3.15.59.31.88.47C602.54,137.89,602.25,137.73,602,137.58Z"/><path class="cls-11" d="M607.47,141c-.43-.31-.86-.6-1.3-.9l1.27.87Z"/><path class="cls-11" d="M609.65,142.6c-.15-.13-.31-.24-.47-.36l.47.36Z"/><path class="cls-11" d="M603.43,138.39l.81.48Z"/><rect class="cls-12" x="609.15" y="159.93" width="8.54" height="1.71" rx="0.53"/><rect class="cls-12" x="609.15" y="165.63" width="8.54" height="1.71" rx="0.53"/><rect class="cls-12" x="609.15" y="171.32" width="8.54" height="1.71" rx="0.53"/><path class="cls-12" d="M610.13,143l.34.27Z"/><path class="cls-12" d="M611.53,144.16l.17.15Z"/><path class="cls-12" d="M609.67,142.85l-.15,0c-.12.27-.24.55-.37.82V144a.52.52,0,0,0,.52.53H612l-.27-.25-.17-.15-1.06-.9-.34-.27-.17-.14Z"/><path class="cls-12" d="M609.15,143.38v.32c.13-.27.25-.55.37-.82A.53.53,0,0,0,609.15,143.38Z"/><path class="cls-12" d="M616.4,149c.07.08.15.16.22.25C616.55,149.2,616.47,149.12,616.4,149Z"/><path class="cls-12" d="M609.67,148.54a.52.52,0,0,0-.52.53v.66a.52.52,0,0,0,.52.52h7.49a.54.54,0,0,0,.22-.05c-.25-.31-.5-.61-.76-.91-.07-.09-.15-.17-.22-.25l-.44-.5Z"/><rect class="cls-12" x="609.15" y="154.24" width="8.54" height="1.71" rx="0.53"/><rect class="cls-12" x="609.15" y="177.02" width="8.54" height="1.71" rx="0.53"/><rect class="cls-12" x="609.15" y="182.72" width="8.54" height="1.71" rx="0.53"/><rect class="cls-12" x="609.15" y="188.41" width="8.54" height="1.71" rx="0.53"/><rect class="cls-12" x="609.15" y="194.11" width="8.54" height="1.71" rx="0.53"/><rect class="cls-12" x="609.15" y="199.8" width="8.54" height="1.71" rx="0.53"/><rect class="cls-12" x="609.15" y="205.5" width="8.54" height="1.71" rx="0.53"/><rect class="cls-12" x="609.15" y="211.19" width="8.54" height="1.71" rx="0.53"/><rect class="cls-12" x="609.15" y="216.89" width="8.54" height="1.71" rx="0.53"/><path class="cls-12" d="M617.65,223.92a.49.49,0,0,1-.41.35Z"/><path class="cls-12" d="M617.69,223.76v-.65a.53.53,0,0,0-.53-.53h-7.49a.52.52,0,0,0-.52.53v.65a.52.52,0,0,0,.52.53h7.56l.43-.36A.76.76,0,0,0,617.69,223.76Z"/><path class="cls-12" d="M611.85,228.28c-.82.54-1.66,1.07-2.51,1.58a.51.51,0,0,1-.19-.4v-.66a.52.52,0,0,1,.52-.52Z"/><path class="cls-12" d="M625.43,164l.23.63Z"/><path class="cls-12" d="M626,165.63l0-.07,0,.07Z"/><path class="cls-12" d="M620.49,163.92a.52.52,0,0,0-.52.53v.65a.52.52,0,0,0,.52.53H626l0-.07c-.11-.32-.22-.63-.34-.94l-.23-.63,0-.07Z"/><path class="cls-12" d="M627.27,169.81a1.33,1.33,0,0,0,0-.19h0A1.33,1.33,0,0,1,627.27,169.81Z"/><path class="cls-12" d="M627.63,171.32c0-.16-.07-.32-.11-.48,0,.16.07.32.11.48Z"/><path class="cls-12" d="M620.49,169.62a.52.52,0,0,0-.52.52v.66a.52.52,0,0,0,.52.52h7.14c0-.16-.07-.32-.11-.48-.08-.34-.16-.68-.25-1a1.33,1.33,0,0,0,0-.19Z"/><path class="cls-12" d="M628.49,176.58a1.36,1.36,0,0,1,0-.2,1.49,1.49,0,0,0,0,.21Z"/><path class="cls-12" d="M628,175.31h-7.49a.52.52,0,0,0-.52.53v.65a.52.52,0,0,0,.52.53H628a.52.52,0,0,0,.51-.43,1.49,1.49,0,0,1,0-.21l-.12-.92A.56.56,0,0,0,628,175.31Z"/><path class="cls-12" d="M620,153.71a.52.52,0,0,0,.38.5l-.38-.57Z"/><path class="cls-12" d="M623.21,159.05c.09.19.19.38.29.57C623.4,159.43,623.3,159.24,623.21,159.05Z"/><path class="cls-12" d="M620.49,158.23a.52.52,0,0,0-.52.52v.66a.52.52,0,0,0,.52.52h3.16l-.15-.31c-.1-.19-.2-.38-.29-.57l-.44-.82Z"/><rect class="cls-12" x="619.97" y="181.01" width="8.54" height="1.71" rx="0.53"/><rect class="cls-12" x="619.97" y="186.7" width="8.54" height="1.71" rx="0.53"/><rect class="cls-12" x="619.97" y="192.4" width="8.54" height="1.71" rx="0.53"/><rect class="cls-12" x="619.97" y="198.09" width="8.54" height="1.71" rx="0.53"/><rect class="cls-12" x="619.97" y="203.79" width="8.54" height="1.71" rx="0.53"/><rect class="cls-12" x="619.97" y="209.48" width="8.54" height="1.71" rx="0.53"/><path class="cls-12" d="M626.2,215.18c-.47.58-.94,1.14-1.43,1.71h-4.28a.52.52,0,0,1-.52-.53v-.66a.52.52,0,0,1,.52-.52Z"/><path class="cls-12" d="M621,220.87l-1,1v-.48a.52.52,0,0,1,.52-.53Z"/><rect class="cls-12" x="598.89" y="157.09" width="8.54" height="1.71" rx="0.53"/><rect class="cls-12" x="598.89" y="162.78" width="8.54" height="1.71" rx="0.53"/><rect class="cls-12" x="598.89" y="168.48" width="8.54" height="1.71" rx="0.53"/><path class="cls-12" d="M606.17,140.07l-.12-.07h0Z"/><path class="cls-12" d="M599.42,140a.53.53,0,0,0-.53.53v.65a.53.53,0,0,0,.53.53h7.49a.53.53,0,0,0,.53-.53v-.24l-1.27-.87-.12-.07Z"/><path class="cls-12" d="M607.44,146.88v0l-.31.5A.52.52,0,0,0,607.44,146.88Z"/><path class="cls-12" d="M606.91,145.7h-7.49a.52.52,0,0,0-.53.52v.66a.52.52,0,0,0,.53.52h7.49a.54.54,0,0,0,.22-.05l.31-.5v-.63A.52.52,0,0,0,606.91,145.7Z"/><path class="cls-12" d="M606.91,153.1a.53.53,0,0,0,.53-.53v-.65a.53.53,0,0,0-.53-.53h-2.67q-.74.88-1.5,1.71Z"/><path class="cls-12" d="M598.89,151.92v.65a.53.53,0,0,0,.53.53h3.32q.76-.82,1.5-1.71h-4.82A.53.53,0,0,0,598.89,151.92Z"/><rect class="cls-12" x="598.89" y="174.17" width="8.54" height="1.71" rx="0.53"/><rect class="cls-12" x="598.89" y="179.87" width="8.54" height="1.71" rx="0.53"/><rect class="cls-12" x="598.89" y="185.56" width="8.54" height="1.71" rx="0.53"/><rect class="cls-12" x="598.89" y="191.26" width="8.54" height="1.71" rx="0.53"/><rect class="cls-12" x="598.89" y="196.95" width="8.54" height="1.71" rx="0.53"/><rect class="cls-12" x="598.89" y="202.65" width="8.54" height="1.71" rx="0.53"/><rect class="cls-12" x="598.89" y="208.34" width="8.54" height="1.71" rx="0.53"/><rect class="cls-12" x="598.89" y="214.04" width="8.54" height="1.71" rx="0.53"/><rect class="cls-12" x="598.89" y="219.73" width="8.54" height="1.71" rx="0.53"/><rect class="cls-12" x="598.89" y="225.43" width="8.54" height="1.71" rx="0.53"/><path class="cls-12" d="M597.75,149.73v-.66a.52.52,0,0,0-.52-.53h-5.81c-.18.56-.32,1.14-.46,1.71h6.27A.52.52,0,0,0,597.75,149.73Z"/><path class="cls-12" d="M597.75,155.42v-.65a.52.52,0,0,0-.52-.53h-6.84c0,.44,0,.88,0,1.33V156h6.88A.52.52,0,0,0,597.75,155.42Z"/><path class="cls-12" d="M597.23,161.64a.52.52,0,0,0,.52-.52v-.66a.52.52,0,0,0-.52-.53h-3a34.84,34.84,0,0,1-3.33,1.71Z"/><path class="cls-12" d="M590.35,161.64h.51a34.84,34.84,0,0,0,3.33-1.71h-3.84Z"/><path class="cls-12" d="M597.73,138.47l-.38.37A.53.53,0,0,0,597.73,138.47Z"/><path class="cls-12" d="M597.75,144v-.65a.52.52,0,0,0-.52-.53H594.1c-.36.55-.7,1.12-1,1.71h4.14A.52.52,0,0,0,597.75,144Z"/><path class="cls-12" d="M597.23,167.34a.52.52,0,0,0,.52-.53v-.65a.52.52,0,0,0-.52-.53h-6.88v1.71Z"/><path class="cls-12" d="M597.23,173a.52.52,0,0,0,.52-.52v-.66a.52.52,0,0,0-.52-.53h-6.88V173Z"/><path class="cls-12" d="M597.23,178.73a.52.52,0,0,0,.52-.53v-.65a.52.52,0,0,0-.52-.53h-6.88v1.71Z"/><path class="cls-12" d="M597.23,184.42a.52.52,0,0,0,.52-.52v-.66a.52.52,0,0,0-.52-.52h-6.88v1.7Z"/><path class="cls-12" d="M597.23,190.12a.52.52,0,0,0,.52-.53v-.65a.52.52,0,0,0-.52-.53h-6.88v1.71Z"/><path class="cls-12" d="M597.23,195.81a.52.52,0,0,0,.52-.52v-.66a.52.52,0,0,0-.52-.52h-6.88v1.7Z"/><path class="cls-12" d="M597.23,201.51a.52.52,0,0,0,.52-.53v-.65a.52.52,0,0,0-.52-.53h-6.88v1.71Z"/><path class="cls-12" d="M597.23,207.2a.52.52,0,0,0,.52-.52V206a.52.52,0,0,0-.52-.52h-6.88v1.7Z"/><path class="cls-12" d="M597.23,212.9a.52.52,0,0,0,.52-.53v-.65a.52.52,0,0,0-.52-.53h-6.88v1.71Z"/><path class="cls-12" d="M597.23,218.59a.52.52,0,0,0,.52-.52v-.66a.52.52,0,0,0-.52-.52h-6.88v1.7Z"/><path class="cls-12" d="M597.23,224.29a.52.52,0,0,0,.52-.53v-.65a.52.52,0,0,0-.52-.53h-6.88v1.71Z"/><path class="cls-12" d="M597.23,230a.52.52,0,0,0,.52-.53v-.66a.52.52,0,0,0-.52-.52h-6.88V230Z"/><path class="cls-3" d="M99.62,194.12v-7.33H92.28V157.44h7.34V150.1H129v7.34h7.34v29.35H129v7.33Zm22-7.33V157.44H107v29.35Z"/><path class="cls-3" d="M158.32,194.12v-7.33H151V157.44h7.34V150.1h29.35v7.34H195v29.35h-7.34v7.33Zm22-7.33V157.44H165.66v29.35Z"/><path class="cls-3" d="M217,172.11V157.44H231.7v14.67Zm0,22V179.45H231.7v14.67Z"/><path class="cls-3" d="M297.73,194.12V179.45h7.34v-7.34h14.68V157.44H305.07V150.1h29.35v7.34h7.34v14.67h-7.34v7.34H319.75v7.34h22v7.33Zm0-29.35v-7.33h7.34v7.33Z"/><path class="cls-3" d="M356.43,194.12V179.45h7.34v-7.34h14.68V157.44H363.77V150.1h29.35v7.34h7.34v14.67h-7.34v7.34H378.45v7.34h22v7.33Zm0-29.35v-7.33h7.34v7.33Z"/><polygon class="cls-13" points="851.1 2323.69 847.58 2315.34 847.96 2299.5 824.53 2285.21 817.52 2289.04 810.7 2284.88 786.61 2298.02 786.29 2311.27 778 2325.64 791.72 2349.4 804.25 2349.4 816.08 2356.61 840.17 2343.47 840.3 2337.95 851.1 2323.69"/><path class="cls-3" d="M884.51,2343.94v-14.09h7v-7h7.05v-7.05h7v-7.05h7.05v-7h14.1v7h-7v7.05h-7v14.1H898.61v7.05h-7.05v7Zm0-35.24v-7h7v7Zm7,7.05v-7.05h7.05v7.05Zm21.14,21.15v-7.05h7v7.05Zm7,7v-7h7v7Z"/><path class="cls-3" d="M947.94,2343.94v-7h-7v-28.2h7v-7h28.2v7h7.05v28.2h-7.05v7Zm21.15-7v-28.2H955v28.2Z"/><path class="cls-3" d="M997.28,2343.94v-7h21.15v-14.1h-14.1v-7.05h14.1v-7.05H997.28v-7h35.24v7h7v7.05h-7v7.05h7v14.1h-7v7Z"/><polygon class="cls-14" points="570.67 2082.84 540.57 2102.97 427.42 1984.58 457.52 1964.46 570.67 2082.84"/><ellipse class="cls-15" cx="442.63" cy="1974.7" rx="18.18" ry="8.11" transform="translate(-960.11 516.04) rotate(-31.25)"/><polygon class="cls-14" points="540.91 2092.61 571.01 2112.73 692.79 1985.31 662.69 1965.19 540.91 2092.61"/><rect class="cls-14" x="540.45" y="2076.16" width="38.53" height="172.84" transform="translate(1119.44 4325.15) rotate(180)"/><ellipse class="cls-15" cx="677.58" cy="1975.43" rx="8.11" ry="18.18" transform="translate(-1362.78 1530.03) rotate(-58.75)"/><path class="cls-16" d="M462.22,1976.52a41.25,41.25,0,0,1,1.55,7l-.35-2.61a76.69,76.69,0,0,1-.39,20l.35-2.6a146.19,146.19,0,0,1-10.31,36.72l1-2.34c-1.3,3.07-2.7,6.1-4.24,9.06s-3.4,5.87-5.05,8.84a113.31,113.31,0,0,0-10.28,26.19,253.12,253.12,0,0,0-5,25.62c-1.39,8.86-2.78,17.76-3.28,26.72a88.25,88.25,0,0,0,2.19,26.47A62,62,0,0,0,441,2180.09c10.25,12.38,25.21,20,40,25.64s30.46,9.36,46,12.41c16.95,3.33,34.53,5.72,51.82,4.12a94.18,94.18,0,0,0,25.23-5.41,78.07,78.07,0,0,0,24.27-14.63,97,97,0,0,0,16.52-19.84,144.86,144.86,0,0,0,11.87-22.52,151.42,151.42,0,0,0,12.53-53.52,139.48,139.48,0,0,0-1-25.1c-.63-4.94-1.38-9.86-2.45-14.72-.88-4-2-7.89-3.13-11.82a63.47,63.47,0,0,1-1.71-8.64l.35,2.6c-1.3-9.85-1.14-19.86-.77-29.77.38-10.12,1.13-20.22,1.53-30.33.19-4.88.3-9.77.08-14.65a10.33,10.33,0,0,0-2.87-6.92,9.79,9.79,0,0,0-13.85,0,9.85,9.85,0,0,0-2.87,6.92c.62,13.39-.77,26.85-1.4,40.21-.67,14.33-1.18,29.15,2,43.25.9,4,2.24,7.88,3.19,11.86q1.64,6.83,2.57,13.77l-.35-2.6a142.46,142.46,0,0,1,0,37.53l.35-2.6a146.64,146.64,0,0,1-10.12,37l1-2.34a133.52,133.52,0,0,1-16.91,29.62l1.53-2a77.18,77.18,0,0,1-13.58,13.75l2-1.53a65.5,65.5,0,0,1-14.33,8.32l2.34-1a81.63,81.63,0,0,1-20.6,5.41l2.6-.35c-12.5,1.63-25.18,1-37.63-.71l2.6.35c-9.14-1.24-18.19-3-27.18-5.08-8.54-1.95-17-4.1-25.38-6.77-4.64-1.49-9.23-3.15-13.72-5l2.34,1a96.88,96.88,0,0,1-21.53-12.19l2,1.53a60,60,0,0,1-10.64-10.55l1.53,2a51.1,51.1,0,0,1-6.37-10.94l1,2.34a59,59,0,0,1-3.92-14.82l.35,2.61c-1.3-10.1-.47-20.31.88-30.35l-.35,2.6c2.35-17.27,4.9-35,11.65-51.23l-1,2.34a89.6,89.6,0,0,1,5.35-10.69c1.44-2.42,2.87-4.82,4.16-7.32a157.19,157.19,0,0,0,8.12-19c4.6-12.87,7.78-26.54,8.35-40.23a60.38,60.38,0,0,0-2.32-20.76,10.3,10.3,0,0,0-4.5-5.85,10,10,0,0,0-7.54-1c-4.88,1.58-8.52,6.82-6.84,12Z"/><g class="cls-17"><polygon class="cls-18" points="-61.5 1027.05 -374.18 746.78 -235.22 371.26 185.85 757.14 -61.5 1027.05"/><polygon class="cls-18" points="-61.5 1506.21 -374.18 1225.94 -235.22 850.42 185.85 1236.31 -61.5 1506.21"/><polygon class="cls-18" points="-48 1980.26 -367.11 1707.35 -236.93 1328.69 193 1704.67 -48 1980.26"/></g><g class="cls-19"><polygon class="cls-18" points="551.03 959.57 110.81 753.45 241.77 374.75 671.34 751.78 551.03 959.57"/><polygon class="cls-18" points="870.58 959.57 430.36 753.45 561.32 374.75 990.89 751.78 870.58 959.57"/><polygon class="cls-20" points="371.06 751.61 103.83 751.61 103.83 514.08 237.44 425 371.06 514.08 371.06 751.61"/><path class="cls-21" d="M236,662.53c-32.93,0-62.88-25.16-66.45-57.4a69,69,0,0,0-.36,6.93,66.81,66.81,0,0,0,133.62,0,69,69,0,0,0-.36-6.93C298.84,637.37,268.89,662.53,236,662.53Z"/><path class="cls-13" d="M236,662.53c32.93,0,62.88-25.16,66.45-57.4,0-36.13-31.89-62.85-66.45-62.85S169.51,569,169.51,605.13C173.08,637.37,203,662.53,236,662.53Z"/><path class="cls-21" d="M120.53,572.1,255.26,441.33l-17.82-43.05L103.83,528.92V565A9.85,9.85,0,0,0,120.53,572.1Z"/><rect class="cls-3" x="59.33" y="443.05" width="222.9" height="38.09" rx="10" transform="translate(618.3 668.09) rotate(135)"/><rect class="cls-3" x="191.46" y="443.05" width="222.9" height="38.09" rx="10" transform="translate(190.35 1003.04) rotate(-135)"/><polygon class="cls-20" points="706.57 751.61 439.35 751.61 439.35 514.08 572.96 425 706.57 514.08 706.57 751.61"/><path class="cls-21" d="M571.47,662.53c-32.93,0-62.88-25.16-66.45-57.4a69,69,0,0,0-.35,6.93,66.81,66.81,0,1,0,133.25-6.93C634.36,637.37,604.41,662.53,571.47,662.53Z"/><path class="cls-13" d="M571.47,662.53c32.94,0,62.89-25.16,66.45-57.4,0-36.13-31.89-62.85-66.45-62.85S505,569,505,605.13C508.59,637.37,538.54,662.53,571.47,662.53Z"/><path class="cls-21" d="M456.05,572.1,590.77,441.33,573,398.28,439.35,528.92V565A9.85,9.85,0,0,0,456.05,572.1Z"/><rect class="cls-3" x="394.85" y="443.05" width="222.9" height="38.09" rx="10" transform="translate(1191.06 430.84) rotate(135)"/><rect class="cls-3" x="526.98" y="443.05" width="222.9" height="38.09" rx="10" transform="translate(763.11 1240.28) rotate(-135)"/><polygon class="cls-18" points="1087.77 1032.08 774.86 751.61 913.92 375.81 1335.3 761.98 1087.77 1032.08"/><polygon class="cls-20" points="1042.08 751.61 774.86 751.61 774.86 514.08 908.47 425 1042.08 514.08 1042.08 751.61"/><path class="cls-21" d="M907,662.53c-32.94,0-62.88-25.16-66.45-57.4a66.8,66.8,0,1,0,133.25,6.93,69,69,0,0,0-.35-6.93C969.87,637.37,939.92,662.53,907,662.53Z"/><path class="cls-13" d="M907,662.53c32.93,0,62.88-25.16,66.45-57.4,0-36.13-31.89-62.85-66.45-62.85S840.54,569,840.54,605.13C844.11,637.37,874.05,662.53,907,662.53Z"/><path class="cls-21" d="M791.56,572.1,926.29,441.33l-17.82-43.05L774.86,528.92V565A9.85,9.85,0,0,0,791.56,572.1Z"/><rect class="cls-3" x="730.36" y="443.05" width="222.9" height="38.09" rx="10" transform="translate(1763.81 193.6) rotate(135)"/><rect class="cls-3" x="862.49" y="443.05" width="222.9" height="38.09" rx="10" transform="translate(1335.87 1477.53) rotate(-135)"/><polygon class="cls-18" points="427.83 1501.87 108.02 1229.29 237.66 850.14 668.54 1225.67 427.83 1501.87"/><polygon class="cls-18" points="763.34 1501.87 443.53 1229.29 573.17 850.14 1004.06 1225.67 763.34 1501.87"/><polygon class="cls-20" points="371.06 1231.13 103.83 1231.13 103.83 993.59 237.44 904.52 371.06 993.59 371.06 1231.13"/><path class="cls-21" d="M236,1142.05c-32.93,0-62.88-25.17-66.45-57.4a69,69,0,0,0-.36,6.93,66.81,66.81,0,0,0,133.62,0,69,69,0,0,0-.36-6.93C298.84,1116.88,268.89,1142.05,236,1142.05Z"/><path class="cls-13" d="M236,1142.05c32.93,0,62.88-25.17,66.45-57.4,0-36.13-31.89-62.85-66.45-62.85s-66.45,26.72-66.45,62.85C173.08,1116.88,203,1142.05,236,1142.05Z"/><path class="cls-21" d="M120.53,1051.61,255.26,920.85,237.44,877.8,103.83,1008.44v36.11A9.84,9.84,0,0,0,120.53,1051.61Z"/><rect class="cls-3" x="59.33" y="922.57" width="222.9" height="38.09" rx="10" transform="translate(957.37 1486.67) rotate(135)"/><rect class="cls-3" x="191.46" y="922.57" width="222.9" height="38.09" rx="10" transform="translate(-148.72 1821.63) rotate(-135)"/><polygon class="cls-20" points="706.57 1231.13 439.35 1231.13 439.35 993.59 572.96 904.52 706.57 993.59 706.57 1231.13"/><path class="cls-13" d="M571.47,1142.05c32.94,0,62.89-25.17,66.45-57.4,0-36.13-31.89-62.85-66.45-62.85S505,1048.52,505,1084.65C508.59,1116.88,538.54,1142.05,571.47,1142.05Z"/><path class="cls-21" d="M456.05,1051.61,590.77,920.85,573,877.8,439.35,1008.44v36.11A9.84,9.84,0,0,0,456.05,1051.61Z"/><rect class="cls-3" x="394.85" y="922.57" width="222.9" height="38.09" rx="10" transform="translate(1530.13 1249.43) rotate(135)"/><rect class="cls-3" x="526.98" y="922.57" width="222.9" height="38.09" rx="10" transform="translate(424.04 2058.87) rotate(-135)"/><polygon class="cls-18" points="1087.77 1511.6 774.86 1231.13 913.92 855.33 1335.3 1241.5 1087.77 1511.6"/><polygon class="cls-20" points="1042.08 1231.13 774.86 1231.13 774.86 993.59 908.47 904.52 1042.08 993.59 1042.08 1231.13"/><path class="cls-21" d="M907,1142.05c-32.94,0-62.88-25.17-66.45-57.4a66.8,66.8,0,1,0,133.25,6.93,69,69,0,0,0-.35-6.93C969.87,1116.88,939.92,1142.05,907,1142.05Z"/><path class="cls-13" d="M907,1142.05c32.93,0,62.88-25.17,66.45-57.4,0-36.13-31.89-62.85-66.45-62.85s-66.45,26.72-66.45,62.85C844.11,1116.88,874.05,1142.05,907,1142.05Z"/><path class="cls-21" d="M791.56,1051.61,926.29,920.85,908.47,877.8,774.86,1008.44v36.11A9.84,9.84,0,0,0,791.56,1051.61Z"/><rect class="cls-3" x="730.36" y="922.57" width="222.9" height="38.09" rx="10" transform="translate(2102.89 1012.19) rotate(135)"/><rect class="cls-3" x="862.49" y="922.57" width="222.9" height="38.09" rx="10" transform="translate(996.8 2296.12) rotate(-135)"/><polygon class="cls-18" points="431.73 1986 112.39 1712.89 242.66 1333.95 672.91 1710.21 431.73 1986"/><polygon class="cls-18" points="767.25 1986 447.9 1712.89 578.18 1333.95 1008.43 1710.21 767.25 1986"/><path class="cls-18" d="M912.21,1334,902,1363.64l-11,32.07-20.1,58.42-20.45,59.47-4.53,13.2-10.65,31a31.49,31.49,0,0,0,5.34,3.61v0q0,1-.06,1.95v.82c-.12,1.17-.21,2.34-.26,3.52a1.13,1.13,0,0,0,.24.08v-1.58c0-.55,0-1.1.06-1.64,0,.16,0,.32.07.46.13,1.15.3,2.3.53,3.41l.05.22s0,.07,0,.1,0,.08,0,.11,0,.21.07.33a5.94,5.94,0,0,0,.14.71c0,.08,0,.17,0,.26.08.32.14.66.23,1s.08.37.12.56q.15.63.33,1.26a.61.61,0,0,0,0,.13.25.25,0,0,1,0,.13q.3,1.07.63,2.13c.18.52.36,1.05.53,1.57.12.3.21.61.33.92.22.61.45,1.24.71,1.85.11.33.26.67.38,1s.23.58.36.86a2.25,2.25,0,0,0,.11.22l.2.44q.12.28.27.6c.1.22.21.45.32.67.18.39.37.78.57,1.15.1.18.18.35.27.53s.29.57.45.86c.28.53.57,1,.86,1.56,0,0,0,0,0,.07a.11.11,0,0,0,.05.09c.24.42.48.84.74,1.26l0,0v0a.24.24,0,0,0,.06.09,2.48,2.48,0,0,0,.18.31c.06.1.13.18.19.27.18.31.37.6.57.89l.87,1.31a1.58,1.58,0,0,0,.13.18s0,0,0,.08c.15.19.28.4.42.59s.38.54.57.79c.77,1,1.56,2.1,2.4,3.1a.19.19,0,0,0,.07.08c.11.15.24.28.35.42.6.7,1.2,1.38,1.81,2.05.24.28.52.55.78.83.53.56,1.06,1.11,1.61,1.64.27.29.56.57.84.84.6.57,1.19,1.12,1.81,1.65.24.21.46.43.71.64.85.75,1.72,1.46,2.61,2.15.15.13.31.23.45.34.75.58,1.52,1.14,2.29,1.69.31.21.62.42.92.65l2,1.27,1,.63c.7.42,1.39.84,2.1,1.23.29.18.58.34.87.5,1,.55,2,1.07,3,1.57l.38.17a9.2,9.2,0,0,0,.86.39c.29.15.56.27.86.4h0l1,.45,1,.42c.72.31,1.46.58,2.21.85.37.15.75.28,1.13.41.75.27,1.53.51,2.3.76l1,.3c1.1.33,2.22.62,3.33.87a1.25,1.25,0,0,0,.26.07c.58.13,1.18.24,1.77.35l0,0,1.33.25c.35.07.72.12,1.1.18l2.37.36,1.21.13c.81.09,1.61.16,2.44.22l1.08.08c1.16,0,2.34.1,3.51.1a66.79,66.79,0,0,0,26.55-5.57c1.84-.79,3.65-1.68,5.41-2.61.87-.47,1.74-1,2.6-1.49,1.71-1,3.37-2.14,5-3.31.81-.59,1.62-1.19,2.39-1.8a73.1,73.1,0,0,0,6.65-6c.7-.71,1.36-1.44,2-2.18a63.3,63.3,0,0,0,15.85-34.81v.38c.16,1.71.29,3.44.34,5.18,0,.42,0,.86,0,1.28,0,.58,0,1.16,0,1.74a67.87,67.87,0,0,1-12.66,37.86c-.51.73-1,1.42-1.58,2.12-.66.85-1.34,1.68-2,2.5-.37.44-.76.87-1.16,1.31h0a66.23,66.23,0,0,1-87.7,9.78l.11-.09a.67.67,0,0,1-.11-.07,66.65,66.65,0,0,1-28.47-54.69c0-1.15,0-2.28.1-3.41-.73-.19-1.44-.43-2.15-.68a37.19,37.19,0,0,1-5.26-2.29l-6,17.56,0,0-4.16,12.12-40,116.23-.77,2.24L1101.27,1986l241.18-275.8Z"/><polygon class="cls-20" points="371.06 1710.64 103.83 1710.64 103.83 1473.11 237.44 1384.04 371.06 1473.11 371.06 1710.64"/><path class="cls-21" d="M236,1621.57c-32.93,0-62.88-25.17-66.45-57.4a68.64,68.64,0,0,0-.36,6.92,66.81,66.81,0,0,0,133.62,0,68.64,68.64,0,0,0-.36-6.92C298.84,1596.4,268.89,1621.57,236,1621.57Z"/><path class="cls-13" d="M236,1621.57c32.93,0,62.88-25.17,66.45-57.4,0-36.13-31.89-62.85-66.45-62.85s-66.45,26.72-66.45,62.85C173.08,1596.4,203,1621.57,236,1621.57Z"/><path class="cls-21" d="M120.53,1531.13l134.73-130.76-17.82-43.06L103.83,1488v36.11A9.84,9.84,0,0,0,120.53,1531.13Z"/><rect class="cls-3" x="59.33" y="1402.09" width="222.9" height="38.09" rx="10" transform="translate(1296.44 2305.26) rotate(135)"/><rect class="cls-3" x="191.46" y="1402.09" width="222.9" height="38.09" rx="10" transform="translate(-487.79 2640.22) rotate(-135)"/><polygon class="cls-20" points="706.57 1710.64 439.35 1710.64 439.35 1473.11 572.96 1384.04 706.57 1473.11 706.57 1710.64"/><path class="cls-21" d="M571.47,1621.57c-32.93,0-62.88-25.17-66.45-57.4a68.65,68.65,0,0,0-.35,6.92,66.81,66.81,0,1,0,133.61,0,65.82,65.82,0,0,0-.36-6.92C634.36,1596.4,604.41,1621.57,571.47,1621.57Z"/><path class="cls-13" d="M571.47,1621.57c32.94,0,62.89-25.17,66.45-57.4,0-36.13-31.89-62.85-66.45-62.85S505,1528,505,1564.17C508.59,1596.4,538.54,1621.57,571.47,1621.57Z"/><path class="cls-21" d="M456.05,1531.13l134.72-130.76L573,1357.31,439.35,1488v36.11A9.84,9.84,0,0,0,456.05,1531.13Z"/><rect class="cls-3" x="394.85" y="1402.09" width="222.9" height="38.09" rx="10" transform="translate(1869.2 2068.02) rotate(135)"/><rect class="cls-3" x="526.98" y="1402.09" width="222.9" height="38.09" rx="10" transform="translate(84.97 2877.46) rotate(-135)"/><path class="cls-20" d="M923.73,1394.21,908.48,1384,891,1395.71l-68.4,45.59-.07.06-47.65,31.75v237.53h267.21V1473.11Zm37.39,216c-.51.73-1,1.42-1.58,2.12-.66.85-1.34,1.68-2,2.5-.37.44-.76.87-1.16,1.31h0a66.23,66.23,0,0,1-87.7,9.78l.11-.09a.67.67,0,0,1-.11-.07,66.65,66.65,0,0,1-28.47-54.69c0-1.15.25-5.13.25-5.13,0-.55.06-1.25.11-1.8,0,.17.08.7.11.84.13,1.15.3,2.3.53,3.41l.05.22s0,.07,0,.1,0,.08,0,.11,0,.21.07.33a5.94,5.94,0,0,0,.14.71c0,.08,0,.17,0,.26.08.32.14.66.23,1s.08.37.12.56q.15.63.33,1.26a.61.61,0,0,0,0,.13.25.25,0,0,1,0,.13q.3,1.07.63,2.13c.18.52.36,1.05.53,1.57.12.3.21.61.33.92.22.61.45,1.24.71,1.85.11.33.26.67.38,1s.23.58.36.86a2.25,2.25,0,0,0,.11.22l.2.44q.12.28.27.6c.1.22.21.45.32.67.18.39.37.78.57,1.15.1.18.18.35.27.53s.29.57.45.86c.28.53.57,1,.86,1.56,0,0,0,0,0,.07a.11.11,0,0,0,.05.09c.24.42.48.84.74,1.26l0,0v0a.24.24,0,0,0,.06.09,2.48,2.48,0,0,0,.18.31c.06.1.13.18.19.27.18.31.37.6.57.89l.87,1.31a1.58,1.58,0,0,0,.13.18s0,0,0,.08c.15.19.28.4.42.59s.38.54.57.79c.77,1,1.56,2.1,2.4,3.1a.19.19,0,0,0,.07.08c.11.15.24.28.35.42.6.7,1.2,1.38,1.81,2.05.24.28.52.55.78.83.53.56,1.06,1.11,1.61,1.64.27.29.56.57.84.84.6.57,1.19,1.12,1.81,1.65.24.21.46.43.71.64.85.75,1.72,1.46,2.61,2.15.15.13.31.23.45.34.75.58,1.52,1.14,2.29,1.69.31.21.62.42.92.65l2,1.27,1,.63c.7.42,1.39.84,2.1,1.23.29.18.58.34.87.5,1,.55,2,1.07,3,1.57l.38.17a9.2,9.2,0,0,0,.86.39c.29.15.56.27.86.4h0l1,.45,1,.42c.72.31,1.46.58,2.21.85.37.15.75.28,1.13.41.75.27,1.53.51,2.3.76l1,.3c1.1.33,2.22.62,3.33.87a1.25,1.25,0,0,0,.26.07c.58.13,1.18.24,1.77.35l0,0,1.33.25c.35.07.72.12,1.1.18l2.37.36,1.21.13c.81.09,1.61.16,2.44.22l1.08.08c1.16,0,2.34.1,3.51.1a66.79,66.79,0,0,0,26.55-5.57c1.84-.79,3.65-1.68,5.41-2.61.87-.47,1.74-1,2.6-1.49,1.71-1,3.37-2.14,5-3.31.81-.59,1.62-1.19,2.39-1.8a73.1,73.1,0,0,0,6.65-6c.7-.71,1.36-1.44,2-2.18a63.3,63.3,0,0,0,15.85-34.81v.38c.16,1.71.29,3.44.34,5.18,0,.42,0,.86,0,1.28,0,.58,0,1.16,0,1.74A67.87,67.87,0,0,1,961.12,1610.22Z"/><path class="cls-22" d="M973.79,1570.62c0,.58,0,1.16,0,1.74a67.87,67.87,0,0,1-12.66,37.86c-.51.73-1,1.42-1.58,2.12-.66.85-1.34,1.68-2,2.5-.37.44-.76.87-1.16,1.31h0a66.23,66.23,0,0,1-87.7,9.78l.11-.09a.67.67,0,0,1-.11-.07c4.55-3.9,9-7,11.22-10h0l1,.45,1,.42c.72.31,1.46.58,2.21.85.37.15.75.28,1.13.41.75.27,1.53.51,2.3.76l1,.3c1.1.33,2.22.62,3.33.87a1.25,1.25,0,0,0,.26.07c.58.13,1.18.24,1.77.35l0,0,1.33.25c.35.07.72.12,1.1.18l2.37.36,1.21.13c.81.09,1.61.16,2.44.22l1.08.08c1.16,0,2.34.1,3.51.1a66.79,66.79,0,0,0,26.55-5.57c1.84-.79,3.65-1.68,5.41-2.61.87-.47,1.74-1,2.6-1.49,1.71-1,3.37-2.14,5-3.31.81-.59,1.62-1.19,2.39-1.8a73.1,73.1,0,0,0,6.65-6c.7-.71,1.36-1.44,2-2.18a63.3,63.3,0,0,0,15.85-34.81v.38c.16,1.71.29,3.44.34,5.18C973.79,1569.76,973.79,1570.2,973.79,1570.62Z"/><path class="cls-21" d="M791.56,1531.13l134.73-130.76-17.82-43.06L774.86,1488v36.11A9.84,9.84,0,0,0,791.56,1531.13Z"/><rect class="cls-3" x="730.36" y="1402.09" width="222.9" height="38.09" rx="10" transform="translate(2441.96 1830.77) rotate(135)"/><rect class="cls-3" x="862.49" y="1402.09" width="222.9" height="38.09" rx="10" transform="translate(657.73 3114.7) rotate(-135)"/><path class="cls-1" d="M620.55,1053.26c.12.2.23.41.34.62C620.78,1053.67,620.67,1053.46,620.55,1053.26Z"/><path class="cls-1" d="M618.51,1049.89l.26.39Z"/><path class="cls-1" d="M619.67,1051.73l.31.53Z"/><path class="cls-1" d="M622.28,1056.62l.21.44Z"/><path class="cls-1" d="M623.18,1058.62c.08.2.16.41.25.61C623.34,1059,623.26,1058.82,623.18,1058.62Z"/><path class="cls-1" d="M626.91,1071.81c0,.12,0,.23.05.34C627,1072,626.93,1071.93,626.91,1071.81Z"/><path class="cls-1" d="M625.12,1064c0,.14.08.28.13.42C625.2,1064.23,625.16,1064.09,625.12,1064Z"/><path class="cls-1" d="M598.47,1009.61a34.36,34.36,0,0,1-2.86,7.53,34.72,34.72,0,0,1-5.53,7.8,41.47,41.47,0,0,0,1.76-12,43,43,0,0,0-.41-5.94A70.66,70.66,0,0,1,598.47,1009.61Z"/><path class="cls-1" d="M615.27,1045.44c.11.14.22.27.32.41C615.49,1045.71,615.38,1045.58,615.27,1045.44Z"/><path class="cls-1" d="M627.55,1112.76v-32.69c0-.58,0-1.15,0-1.72,0-.22,0-.44,0-.66,0-.4,0-.81-.07-1.22,0-.24,0-.48,0-.71l-.12-1.22c0-.07,0-.14,0-.21s0-.14,0-.21l0-.22c-.07-.59-.14-1.17-.23-1.75,0-.11,0-.22-.05-.34-.08-.5-.16-1-.25-1.5,0-.22-.08-.44-.13-.66-.07-.38-.15-.76-.23-1.14l0-.17-.12-.53c-.09-.38-.18-.76-.28-1.13,0-.07,0-.15,0-.22l-.1-.42c-.15-.56-.31-1.12-.47-1.67,0-.14-.09-.28-.13-.42-.14-.43-.27-.86-.42-1.29-.06-.19-.13-.39-.2-.58l0-.08c-.12-.35-.24-.7-.37-1s-.17-.45-.26-.68l0-.08c-.12-.33-.25-.65-.38-1s-.16-.41-.25-.61q-.33-.78-.69-1.56l-.21-.44-.39-.81-.17-.34c-.1-.21-.21-.42-.32-.63l-.48-.91,0,0-.34-.62c-.18-.34-.38-.67-.57-1l-.31-.53-.9-1.45-.26-.39-.35-.54-.11-.15-.06-.09-.15-.22h0l-.05-.08c-.12-.18-.25-.36-.38-.53l-.66-.92-.4-.53-.75-1-.33-.41-.27-.33-.84-1-.24-.27-.93-1c-.13-.15-.27-.29-.4-.43-.28-.3-.56-.6-.85-.89l-.4-.4c-.33-.33-.66-.66-1-1l-.26-.25-.51-.47-.15-.14-.19-.17-.18-.16-.3-.27-.18-.16-1.18-1-.36-.29-.54-.44a40.79,40.79,0,0,0,3.32-20.81,69.36,69.36,0,0,1,17.74,96.83Z"/><path class="cls-1" d="M627.54,1080.07s0,.1,0,.14v32.55h0v-32.55S627.54,1080.12,627.54,1080.07Z"/><path class="cls-1" d="M612.59,1042.36c.13.14.27.28.39.42C612.86,1042.64,612.72,1042.5,612.59,1042.36Z"/><path class="cls-1" d="M616.35,1046.83c.14.17.27.35.4.53C616.62,1047.18,616.49,1047,616.35,1046.83Z"/><path class="cls-1" d="M617.41,1048.28c.13.17.25.35.38.53C617.66,1048.63,617.54,1048.45,617.41,1048.28Z"/><path class="cls-1" d="M523.13,1039.37a32.07,32.07,0,0,1-13.16.08,70,70,0,0,1,6.93-10.19A40.37,40.37,0,0,0,523.13,1039.37Z"/><path class="cls-1" d="M508.55,1079.61a22.54,22.54,0,0,0,14.19,20.94c.37-.36.76-.71,1.15-1v24.91a69.4,69.4,0,0,1-16-81,40.4,40.4,0,0,0,16,8.82v6A22.54,22.54,0,0,0,508.55,1079.61Z"/><path class="cls-1" d="M532,1030.34a31.76,31.76,0,0,1-11.1-5.59,69.36,69.36,0,0,1,10.75-9A40.46,40.46,0,0,0,532,1030.34Z"/><path class="cls-1" d="M548.29,1007.46a33.16,33.16,0,0,1-5.33,18.26h0a32.21,32.21,0,0,1-7.37-12.43A68.42,68.42,0,0,1,548.29,1007.46Z"/><path class="cls-1" d="M585.27,1058v83l-.31.07v-82.93Z"/><path class="cls-1" d="M627.36,1075.76l.06.71Z"/><path class="cls-1" d="M627.25,1074.54c0-.14,0-.28,0-.42h0C627.23,1074.27,627.24,1074.4,627.25,1074.54Z"/><path class="cls-1" d="M626.3,1068.51l0-.17h0A1,1,0,0,1,626.3,1068.51Z"/><path class="cls-1" d="M627.48,1077.69c0,.22,0,.44,0,.66C627.51,1078.13,627.49,1077.91,627.48,1077.69Z"/><path class="cls-1" d="M624.7,1062.66c-.06-.2-.13-.39-.2-.58h0C624.57,1062.27,624.64,1062.46,624.7,1062.66Z"/><path class="cls-1" d="M625.82,1066.46c0-.14-.07-.28-.11-.42,0,.14.07.28.11.42Z"/><path class="cls-1" d="M626.53,1069.65c.05.22.09.44.13.66C626.62,1070.09,626.58,1069.87,626.53,1069.65Z"/><path class="cls-1" d="M610.08,1039.84l.26.25Z"/><path class="cls-1" d="M611.34,1041.07l.4.4Z"/><path class="cls-5" d="M602.54,1033.89l-.31-.2.31.2Z"/><path class="cls-5" d="M597.43,1030.91l.6.32Z"/><path class="cls-5" d="M599,1031.75l.67.37Z"/><path class="cls-5" d="M604.1,1035l.39.29Z"/><path class="cls-5" d="M605.56,1036l.42.32Z"/><path class="cls-5" d="M595.86,1030.13a28.57,28.57,0,0,0-2.24,1.85,28.57,28.57,0,0,1,2.24-1.85Z"/><path class="cls-5" d="M600.55,1032.65l.63.38Z"/><path class="cls-5" d="M514.07,1017.83A41.36,41.36,0,0,0,517.2,1030a40.43,40.43,0,0,0,6.18,10l-.25.06,0,.05a32.16,32.16,0,0,1-12.89,0,33.5,33.5,0,0,1-8.13-2.76,41.41,41.41,0,0,0,6.06,6.77,40.44,40.44,0,0,0,16,8.82v-1.57a25.75,25.75,0,0,1,1.54-8.82l-.21-.23a25.79,25.79,0,0,1,1.49-3.3l.36-.11a26.33,26.33,0,0,1,5.24-6.66c-.1-.41-.19-.83-.28-1.25a31.76,31.76,0,0,1-11.1-5.59A33.33,33.33,0,0,1,514.07,1017.83Z"/><path class="cls-5" d="M610.12,1016.68a39.3,39.3,0,0,0-11.73-24.32,34.19,34.19,0,0,1-2.48,25.53,34.41,34.41,0,0,1-5.53,7.8s0,.1,0,.14l0,0a.52.52,0,0,1,.06-.16,41.91,41.91,0,0,0,1.35-18,40.71,40.71,0,0,0-11-22.52,38.81,38.81,0,0,0-17-10.37,33.76,33.76,0,0,1,6.6,9.75,34.34,34.34,0,0,1,3,14,35.1,35.1,0,0,1-.5,5.94q-.2,1.15-.48,2.28a40.81,40.81,0,0,1,.9,7.1,40.93,40.93,0,0,0-.9-7.1h0c-.16-.77-.35-1.54-.57-2.3h0A41.81,41.81,0,0,0,560,985.15h0a39.8,39.8,0,0,0-36.14-9.75,34,34,0,0,1,18.65,13.48c.53.77,1,1.57,1.5,2.39a34.25,34.25,0,0,1,4.59,16.94,33.16,33.16,0,0,1-5.33,18.26,25.57,25.57,0,0,1,6.82-.91h22a56.07,56.07,0,0,1,7.6.52c2,.28,5.79.89,8.78,1.51a1,1,0,0,0-.15.14l1.19.38c0,.07,0,.15-.07.23a55.81,55.81,0,0,1,6.36,2.54l-.25.2.2.1c.13-.09.24-.2.37-.3.53.25,1.05.52,1.57.78l.6.32,1,.52.66.37.89.53c.22.12.43.25.64.38s.7.44,1,.67l.31.19.13.08c.47.31.94.63,1.4,1l0,0,.38.29,1.08.79.42.32.51.39A40.89,40.89,0,0,0,610.12,1016.68Z"/><path class="cls-5" d="M534.44,1007.58a41.66,41.66,0,0,0-2.45,8.9,40.91,40.91,0,0,0,.35,14.61c.44.13.89.24,1.33.34a25.81,25.81,0,0,1,9.56-5,32.24,32.24,0,0,1-7.38-12.43A33.61,33.61,0,0,1,534.44,1007.58Z"/><path class="cls-5" d="M532,1030.34c.08.42.18.84.28,1.25.34-.31.69-.62,1-.91C532.92,1030.58,532.48,1030.47,532,1030.34Z"/><polygon class="cls-6" points="542.96 1025.72 542.92 1025.73 542.93 1025.75 542.96 1025.72"/><path class="cls-6" d="M544.67,1052.45c.24.06.48.11.73.15l-.32-.26Z"/><path class="cls-6" d="M589.51,1027.59c-.46-.16-.92-.3-1.39-.44a55,55,0,0,0-8.36-1.82,56,56,0,0,0-7.6-.52h-22a25.7,25.7,0,0,0-6.83.91h0l0,0,0,0a25.77,25.77,0,0,0-9.55,5c-.36.29-.71.6-1.05.91a25.81,25.81,0,0,0-8.43,19.12v7.54A22.55,22.55,0,0,1,554,1079.61c0,.36,0,.71,0,1.07a22.5,22.5,0,0,1-5.13,13.28c-.48.58-1,1.13-1.52,1.66a22.55,22.55,0,0,0-22.54,3.43l-.54.45v24.91a69.13,69.13,0,0,0,46.72,18.1,69.93,69.93,0,0,0,14.35-1.49v-90a25.85,25.85,0,0,1,10.59-20.88A56,56,0,0,0,589.51,1027.59ZM545,1052.45l.41-.11.32.26C545.48,1052.56,545.24,1052.51,545,1052.45Zm24,19a6.89,6.89,0,1,1,5.82-10.55h0a6.88,6.88,0,0,1-5.82,10.56Z"/><path class="cls-23" d="M531.09,1057.07a22.27,22.27,0,0,0-7.2,1.18,22.54,22.54,0,0,0-1.15,42.3c.37-.36.75-.71,1.15-1l.53-.46a22.55,22.55,0,0,1,27.63-18.8c.53.13,1.05.28,1.56.44,0-.35,0-.71,0-1.07A22.54,22.54,0,0,0,531.09,1057.07Z"/><path class="cls-8" d="M524.42,1099a22.53,22.53,0,0,1,2.67-7.9,22.53,22.53,0,0,0-2.67,7.9,22.59,22.59,0,0,1,22.55-3.42h0a22.59,22.59,0,0,0-22.55,3.42Z"/><path class="cls-8" d="M553.61,1080.68a22.38,22.38,0,0,1-5.13,13.28,22.38,22.38,0,0,0,5.13-13.28c-.51-.16-1-.31-1.56-.44C552.58,1080.37,553.1,1080.52,553.61,1080.68Z"/><path class="cls-9" d="M547,1095.62a21.71,21.71,0,0,0,1.51-1.66,21.71,21.71,0,0,1-1.51,1.66Z"/><path class="cls-9" d="M546.75,1079.61a22.55,22.55,0,0,1,5.3.63,22.54,22.54,0,0,0-25,10.9A22.51,22.51,0,0,1,546.75,1079.61Z"/><path class="cls-9" d="M552.05,1080.24a22.58,22.58,0,0,0-27.63,18.8,22.59,22.59,0,0,1,22.55-3.42,21.71,21.71,0,0,0,1.51-1.66,22.38,22.38,0,0,0,5.13-13.28C553.1,1080.52,552.58,1080.37,552.05,1080.24Z"/><path class="cls-10" d="M563,1060.67a6.89,6.89,0,1,0,12.56,3.91,6.82,6.82,0,0,0-1.06-3.66A38.27,38.27,0,0,1,563,1060.67Z"/><path class="cls-10" d="M568.67,1057.69a6.89,6.89,0,0,0-5.67,3,38.27,38.27,0,0,0,11.5.25A6.87,6.87,0,0,0,568.67,1057.69Z"/><path class="cls-11" d="M620,1052.26l.57,1Z"/><path class="cls-11" d="M611.74,1041.47l.85.89Z"/><path class="cls-11" d="M610.34,1040.09c.34.32.67.65,1,1C611,1040.74,610.68,1040.41,610.34,1040.09Z"/><path class="cls-11" d="M615.59,1045.85c.26.32.51.65.76,1C616.1,1046.5,615.85,1046.17,615.59,1045.85Z"/><path class="cls-11" d="M627.51,1078.35c0-.22,0-.44,0-.66,0-.4,0-.81-.07-1.22,0-.24,0-.48,0-.71l-.12-1.22c0-.07,0-.14,0-.21a1.36,1.36,0,0,0,0-.2.57.57,0,0,1-.56.47h-8.23a.58.58,0,0,1-.58-.58v-.72a.57.57,0,0,1,.58-.57h8.23a.56.56,0,0,1,.41.16c0-.24-.06-.49-.1-.74s0-.22-.05-.34c-.08-.5-.16-1-.25-1.5,0-.22-.08-.44-.13-.66-.07-.38-.15-.76-.23-1.14a1,1,0,0,0,0-.17h-7.84a.58.58,0,0,1-.58-.58V1067a.58.58,0,0,1,.58-.58h7.4l-.1-.42c-.15-.56-.31-1.12-.47-1.67,0-.14-.09-.28-.13-.42-.14-.43-.27-.86-.42-1.29-.06-.19-.13-.39-.2-.58h-6.08a.58.58,0,0,1-.58-.58v-.73a.58.58,0,0,1,.58-.57h5.39c-.12-.33-.25-.65-.38-1s-.16-.41-.25-.61q-.33-.78-.69-1.56l-.21-.44-.39-.81h-3.47a.58.58,0,0,1-.58-.58v-.72a.58.58,0,0,1,.58-.58h2.5l0,0-.34-.62c-.18-.34-.38-.67-.57-1l-.31-.53-.9-1.45-.26-.39c-.08-.12-.16-.25-.25-.37a.58.58,0,0,1-.42-.55v-.08l-.05-.08c-.12-.18-.25-.36-.38-.53l-.66-.92-.4-.53-.75-1-.33-.41-.27-.33a.71.71,0,0,1-.25.06h-8.23a.59.59,0,0,1-.58-.58v-.73a.58.58,0,0,1,.58-.57h6.91c-.14-.17-.29-.34-.44-.5s-.27-.29-.4-.43c-.28-.3-.56-.6-.85-.89l-.4-.4c-.33-.33-.66-.66-1-1l-.26-.25-.51-.47-.15-.14-.19-.17-.18-.16h-2.53a.58.58,0,0,1-.58-.58V1038c-.19.4-.39.79-.6,1.19-.4.78-.84,1.53-1.28,2.27v0a.58.58,0,0,1-.33.52,41.55,41.55,0,0,1-3.19,4.45h2.94a.58.58,0,0,1,.58.58v.72a.58.58,0,0,1-.58.58H598.9a40.66,40.66,0,0,1-9.41,7.51h3.34a.58.58,0,0,1,.58.58v.72a.58.58,0,0,1-.58.58h-7l-.56.26v4.13h7.56a.58.58,0,0,1,.58.58v.71a.58.58,0,0,1-.58.58h-7.56v4.39h7.56a.58.58,0,0,1,.58.58v.72a.58.58,0,0,1-.58.58h-7.56v4.38h7.56a.58.58,0,0,1,.58.58v.72a.58.58,0,0,1-.58.58h-7.56v4.38h7.56a.59.59,0,0,1,.58.58v.73a.58.58,0,0,1-.58.57h-7.56v4.39h7.56a.58.58,0,0,1,.58.58v.72a.58.58,0,0,1-.58.58h-7.56v4.38h7.56a.58.58,0,0,1,.58.58v.72a.58.58,0,0,1-.58.58h-7.56v4.38h7.56a.58.58,0,0,1,.58.58v.73a.59.59,0,0,1-.58.58h-7.56v4.38h7.56a.58.58,0,0,1,.58.58v.72a.58.58,0,0,1-.58.58h-7.56v4.38h7.56a.58.58,0,0,1,.58.58v.72a.58.58,0,0,1-.58.58h-7.56v4.39h7.56a.58.58,0,0,1,.58.57v.72a.58.58,0,0,1-.58.58h-7.56v4.39h7.56a.58.58,0,0,1,.58.58v.72a.59.59,0,0,1-.58.58h-7.56V1131h7.56a.58.58,0,0,1,.58.58v.72a.58.58,0,0,1-.58.58h-7.56v4.38h7.56a.59.59,0,0,1,.58.59v.71a.32.32,0,0,1,0,.14A66,66,0,0,0,600,1136h-4.76a.58.58,0,0,1-.58-.58v-.72a.58.58,0,0,1,.58-.58h8.24a.53.53,0,0,1,.18,0c.84-.46,1.67-.94,2.5-1.43a.56.56,0,0,1-.22-.44v-.72a.58.58,0,0,1,.58-.58h2.39a67.38,67.38,0,0,0,5.93-4.4l-.09,0h-8.23a.59.59,0,0,1-.58-.58v-.72a.58.58,0,0,1,.58-.58h8.23a.58.58,0,0,1,.58.58v.72a.57.57,0,0,1,0,.18c.86-.73,1.71-1.49,2.54-2.26v-.52a.58.58,0,0,1,.58-.58H619c1.44-1.4,2.81-2.87,4.13-4.38h-4.71a.58.58,0,0,1-.58-.58v-.73a.58.58,0,0,1,.58-.58h6.27q1.5-1.85,2.86-3.8v-32.69C627.54,1079.49,627.53,1078.92,627.51,1078.35Zm-23.45,50.79a.58.58,0,0,1-.58.58h-8.24a.58.58,0,0,1-.58-.58v-.72a.58.58,0,0,1,.58-.58h8.24a.58.58,0,0,1,.58.58Zm0-6.26a.58.58,0,0,1-.58.58h-8.24a.58.58,0,0,1-.58-.58v-.73a.59.59,0,0,1,.58-.58h8.24a.59.59,0,0,1,.58.58Zm0-6.27a.58.58,0,0,1-.58.58h-8.24a.58.58,0,0,1-.58-.58v-.72a.58.58,0,0,1,.58-.58h8.24a.58.58,0,0,1,.58.58Zm0-6.26a.58.58,0,0,1-.58.58h-8.24a.58.58,0,0,1-.58-.58v-.72a.58.58,0,0,1,.58-.58h8.24a.58.58,0,0,1,.58.58Zm0-6.26a.58.58,0,0,1-.58.57h-8.24a.58.58,0,0,1-.58-.57v-.72a.58.58,0,0,1,.58-.58h8.24a.58.58,0,0,1,.58.58Zm0-6.27a.58.58,0,0,1-.58.58h-8.24a.58.58,0,0,1-.58-.58v-.72a.59.59,0,0,1,.58-.58h8.24a.59.59,0,0,1,.58.58Zm0-6.26a.58.58,0,0,1-.58.58h-8.24a.58.58,0,0,1-.58-.58v-.72a.58.58,0,0,1,.58-.58h8.24a.58.58,0,0,1,.58.58Zm0-6.26a.59.59,0,0,1-.58.58h-8.24a.59.59,0,0,1-.58-.58v-.72a.58.58,0,0,1,.58-.58h8.24a.58.58,0,0,1,.58.58Zm0-6.27a.58.58,0,0,1-.58.58h-8.24a.58.58,0,0,1-.58-.58v-.72a.58.58,0,0,1,.58-.58h8.24a.58.58,0,0,1,.58.58Zm0-6.26a.58.58,0,0,1-.58.58h-8.24a.58.58,0,0,1-.58-.58v-.72a.58.58,0,0,1,.58-.58h8.24a.58.58,0,0,1,.58.58Zm0-6.26a.58.58,0,0,1-.58.58h-8.24a.58.58,0,0,1-.58-.58v-.73a.58.58,0,0,1,.58-.57h8.24a.58.58,0,0,1,.58.57Zm0-6.26a.58.58,0,0,1-.58.57h-8.24a.58.58,0,0,1-.58-.57v-.73a.58.58,0,0,1,.58-.58h8.24a.58.58,0,0,1,.58.58Zm0-6.27a.58.58,0,0,1-.58.58h-8.24a.58.58,0,0,1-.58-.58v-.72a.58.58,0,0,1,.58-.58h8.24a.58.58,0,0,1,.58.58Zm11.27,65.76a.58.58,0,0,1-.58.58h-8.23a.58.58,0,0,1-.58-.58V1119a.58.58,0,0,1,.58-.57h8.23a.58.58,0,0,1,.58.57Zm0-6.26a.58.58,0,0,1-.58.58h-8.23a.58.58,0,0,1-.58-.58v-.72a.58.58,0,0,1,.58-.58h8.23a.58.58,0,0,1,.58.58Zm0-6.26a.58.58,0,0,1-.58.58h-8.23a.58.58,0,0,1-.58-.58v-.72a.58.58,0,0,1,.58-.58h8.23a.58.58,0,0,1,.58.58Zm0-6.26a.59.59,0,0,1-.58.58h-8.23a.59.59,0,0,1-.58-.58v-.73a.58.58,0,0,1,.58-.58h8.23a.58.58,0,0,1,.58.58Zm0-6.27a.58.58,0,0,1-.58.58h-8.23a.58.58,0,0,1-.58-.58V1094a.58.58,0,0,1,.58-.58h8.23a.58.58,0,0,1,.58.58Zm0-6.26a.58.58,0,0,1-.58.58h-8.23a.58.58,0,0,1-.58-.58v-.72a.58.58,0,0,1,.58-.58h8.23a.58.58,0,0,1,.58.58Zm0-6.26a.58.58,0,0,1-.58.57h-8.23a.58.58,0,0,1-.58-.57v-.73a.59.59,0,0,1,.58-.58h8.23a.59.59,0,0,1,.58.58Zm0-6.27a.58.58,0,0,1-.58.58h-8.23a.58.58,0,0,1-.58-.58v-.72a.58.58,0,0,1,.58-.58h8.23a.58.58,0,0,1,.58.58Zm0-6.26a.58.58,0,0,1-.58.58h-8.23a.58.58,0,0,1-.58-.58v-.72a.58.58,0,0,1,.58-.58h8.23a.58.58,0,0,1,.58.58Zm0-6.27a.58.58,0,0,1-.58.58h-8.23a.58.58,0,0,1-.58-.58v-.71a.58.58,0,0,1,.58-.58h8.23a.58.58,0,0,1,.58.58Zm0-6.26a.58.58,0,0,1-.58.58h-8.23a.58.58,0,0,1-.58-.58v-.72a.58.58,0,0,1,.58-.58h8.23a.58.58,0,0,1,.58.58Zm0-6.26a.58.58,0,0,1-.58.58h-8.23a.58.58,0,0,1-.58-.58v-.72a.58.58,0,0,1,.58-.58h8.23a.58.58,0,0,1,.58.58Zm11.9,60.75a.58.58,0,0,1-.58.58h-8.23a.58.58,0,0,1-.58-.58v-.72a.58.58,0,0,1,.58-.58h8.23a.58.58,0,0,1,.58.58Zm0-6.26a.58.58,0,0,1-.58.58h-8.23a.58.58,0,0,1-.58-.58v-.72a.58.58,0,0,1,.58-.58h8.23a.58.58,0,0,1,.58.58Zm0-6.26a.57.57,0,0,1-.58.57h-8.23a.57.57,0,0,1-.58-.57v-.72a.58.58,0,0,1,.58-.58h8.23a.58.58,0,0,1,.58.58Zm0-6.27a.58.58,0,0,1-.58.58h-8.23a.58.58,0,0,1-.58-.58v-.72a.59.59,0,0,1,.58-.58h8.23a.59.59,0,0,1,.58.58Zm0-6.26a.58.58,0,0,1-.58.58h-8.23a.58.58,0,0,1-.58-.58v-.72a.58.58,0,0,1,.58-.58h8.23a.58.58,0,0,1,.58.58Zm0-6.27a.58.58,0,0,1-.58.58h-8.23a.58.58,0,0,1-.58-.58v-.71a.58.58,0,0,1,.58-.58h8.23a.58.58,0,0,1,.58.58Z"/><path class="cls-11" d="M625.25,1064.37c.16.55.32,1.11.46,1.67C625.57,1065.48,625.41,1064.92,625.25,1064.37Z"/><path class="cls-11" d="M616.75,1047.36l.66.92Z"/><path class="cls-11" d="M622.49,1057.06q.36.78.69,1.56Q622.85,1057.84,622.49,1057.06Z"/><path class="cls-11" d="M607.39,1037.47c.4.33.79.66,1.17,1C608.18,1038.13,607.79,1037.8,607.39,1037.47Z"/><path class="cls-11" d="M618.77,1050.28c.31.48.6,1,.9,1.45C619.37,1051.24,619.08,1050.76,618.77,1050.28Z"/><path class="cls-11" d="M624.1,1061c.13.34.25.69.37,1C624.35,1061.65,624.23,1061.3,624.1,1061Z"/><path class="cls-11" d="M627.19,1073.9c-.07-.59-.14-1.17-.23-1.75,0,.25.07.49.1.74S627.15,1073.56,627.19,1073.9Z"/><path class="cls-11" d="M624.7,1062.66c.15.43.28.86.42,1.29C625,1063.52,624.85,1063.09,624.7,1062.66Z"/><path class="cls-11" d="M622.28,1056.62c-.18-.39-.37-.77-.56-1.15l.17.34Z"/><path class="cls-11" d="M606.83,1037l.2.16-.54-.44h0Z"/><path class="cls-11" d="M606.83,1037l-.34-.27c0,.1-.09.21-.14.31a.53.53,0,0,1,.17,0Z"/><path class="cls-11" d="M623.85,1060.28l-.42-1c.13.32.26.64.38,1Z"/><path class="cls-11" d="M621.4,1054.84q-.24-.48-.51-1l0,0Z"/><path class="cls-11" d="M613.92,1043.83l-.94-1c.16.17.3.34.45.51Z"/><path class="cls-11" d="M615.27,1045.44c-.36-.45-.73-.9-1.11-1.34l.84,1Z"/><path class="cls-11" d="M610.08,1039.84l-1.33-1.21.3.27Z"/><path class="cls-11" d="M627.42,1076.47c0,.4.05.81.06,1.22C627.47,1077.28,627.44,1076.87,627.42,1076.47Z"/><polygon class="cls-11" points="585.27 1137.23 585.27 1132.85 585.27 1130.97 585.27 1126.59 585.27 1124.71 585.27 1120.32 585.27 1118.44 585.27 1114.06 585.27 1112.18 585.27 1107.8 585.27 1105.92 585.27 1101.53 585.27 1099.65 585.27 1095.27 585.27 1093.39 585.27 1089.01 585.27 1087.13 585.27 1082.74 585.27 1080.87 585.27 1076.48 585.27 1074.6 585.27 1070.22 585.27 1068.34 585.27 1063.95 585.27 1062.08 585.27 1057.95 585.27 1057.95 585.27 1140.95 585.27 1140.95 585.27 1139.11 585.27 1137.23"/><path class="cls-11" d="M625.87,1066.68c.1.37.19.75.28,1.13C626.06,1067.43,626,1067.05,625.87,1066.68Z"/><path class="cls-11" d="M627.25,1074.54c0,.4.08.81.11,1.22C627.33,1075.35,627.29,1074.94,627.25,1074.54Z"/><path class="cls-11" d="M627.51,1078.35c0,.57,0,1.14,0,1.72C627.54,1079.49,627.53,1078.92,627.51,1078.35Z"/><path class="cls-11" d="M626.3,1068.51c.08.38.16.76.23,1.14C626.46,1069.27,626.38,1068.89,626.3,1068.51Z"/><path class="cls-11" d="M626.66,1070.31c.09.5.17,1,.25,1.5C626.83,1071.31,626.75,1070.81,626.66,1070.31Z"/><path class="cls-11" d="M618.26,1049.52l.25.37-.72-1.08.05.08Z"/><path class="cls-11" d="M585.27,1057.69V1051c0-.5,0-1,0-1.47a26.26,26.26,0,0,1,.63-4.38c.15-.64.31-1.27.51-1.88a24.94,24.94,0,0,1,1.83-4.39c.34-.64.72-1.27,1.11-1.88a25.77,25.77,0,0,1,3.58-4.41l.41-.4.24-.23a25.79,25.79,0,0,0-8.35,19V1058h0Z"/><path class="cls-11" d="M595.86,1030.13h0c.53.25,1,.52,1.57.78C596.91,1030.65,596.39,1030.38,595.86,1030.13Z"/><path class="cls-11" d="M604.49,1035.24c.36.26.72.52,1.07.79C605.21,1035.76,604.85,1035.5,604.49,1035.24Z"/><path class="cls-11" d="M585.27,1058l.56-.26h-.56Z"/><path class="cls-11" d="M593,1032.61a25.77,25.77,0,0,0-3.58,4.41h3.44a.58.58,0,0,1,.58.58v.72a.58.58,0,0,1-.58.58h-4.55a24.94,24.94,0,0,0-1.83,4.39h6.38a.58.58,0,0,1,.58.58v.72a.59.59,0,0,1-.58.58h-6.89a26.26,26.26,0,0,0-.63,4.38h7.52a.58.58,0,0,1,.58.58v.72a.58.58,0,0,1-.58.58h-7.56v4.38h4.22a40.66,40.66,0,0,0,9.41-7.51h-3.66a.58.58,0,0,1-.57-.58V1047a.58.58,0,0,1,.57-.58h5.3a42,42,0,0,0,3.18-4.44.6.6,0,0,1-.24,0h-8.24a.58.58,0,0,1-.57-.58v-.72a.59.59,0,0,1,.57-.58h8.24a.59.59,0,0,1,.58.58v.69c.45-.74.88-1.49,1.28-2.27.21-.4.41-.79.6-1.19v-.36a.57.57,0,0,1,.41-.54c0-.1.1-.21.14-.31l-.51-.4-.42-.32c-.35-.27-.71-.53-1.07-.79l-.39-.29,0,0v.26a.58.58,0,0,1-.58.58h-8.24a.58.58,0,0,1-.57-.58v-.72a.58.58,0,0,1,.57-.58h7.3l-.31-.2-1.05-.66-.63-.38-.89-.53-.67-.37-1-.52-.6-.32c-.52-.26-1-.53-1.57-.78a28.57,28.57,0,0,0-2.24,1.85l-.24.23A.56.56,0,0,1,593,1032.61Z"/><path class="cls-11" d="M601.18,1033l1.05.66Z"/><path class="cls-11" d="M598,1031.23l1,.52Z"/><path class="cls-11" d="M604.1,1035c-.47-.33-1-.66-1.44-1,.47.31.94.63,1.4,1Z"/><path class="cls-11" d="M606.49,1036.74l-.51-.39.51.4Z"/><path class="cls-11" d="M599.66,1032.12l.89.53Z"/><rect class="cls-12" x="605.94" y="1055.81" width="9.39" height="1.88" rx="0.58"/><rect class="cls-12" x="605.94" y="1062.08" width="9.39" height="1.88" rx="0.58"/><rect class="cls-12" x="605.94" y="1068.34" width="9.39" height="1.88" rx="0.58"/><path class="cls-12" d="M607,1037.18l.36.29Z"/><path class="cls-12" d="M608.56,1038.47l.19.16Z"/><path class="cls-12" d="M606.52,1037a.53.53,0,0,0-.17,0c-.13.3-.27.6-.41.9v.36a.58.58,0,0,0,.58.58h2.53l-.3-.27-.19-.16c-.38-.34-.77-.67-1.17-1l-.36-.29-.2-.16Z"/><path class="cls-12" d="M605.94,1037.6v.36c.14-.3.28-.6.41-.9A.57.57,0,0,0,605.94,1037.6Z"/><path class="cls-12" d="M613.92,1043.83l.24.27Z"/><path class="cls-12" d="M606.52,1043.29a.58.58,0,0,0-.58.58v.72a.59.59,0,0,0,.58.58h8.23a.71.71,0,0,0,.25-.06l-.84-1-.24-.27-.49-.54Z"/><rect class="cls-12" x="605.94" y="1049.55" width="9.39" height="1.88" rx="0.58"/><rect class="cls-12" x="605.94" y="1074.6" width="9.39" height="1.88" rx="0.58"/><rect class="cls-12" x="605.94" y="1080.87" width="9.39" height="1.88" rx="0.58"/><rect class="cls-12" x="605.94" y="1087.13" width="9.39" height="1.88" rx="0.58"/><rect class="cls-12" x="605.94" y="1093.39" width="9.39" height="1.88" rx="0.58"/><rect class="cls-12" x="605.94" y="1099.66" width="9.39" height="1.88" rx="0.58"/><rect class="cls-12" x="605.94" y="1105.92" width="9.39" height="1.88" rx="0.58"/><rect class="cls-12" x="605.94" y="1112.18" width="9.39" height="1.88" rx="0.58"/><rect class="cls-12" x="605.94" y="1118.44" width="9.39" height="1.88" rx="0.58"/><path class="cls-12" d="M615.3,1126.19a.58.58,0,0,1-.46.38Z"/><path class="cls-12" d="M615.33,1126v-.72a.58.58,0,0,0-.58-.58h-8.23a.58.58,0,0,0-.58.58v.72a.58.58,0,0,0,.58.58h8.23l.09,0,.46-.39A.47.47,0,0,0,615.33,1126Z"/><path class="cls-12" d="M608.91,1131c-.9.6-1.82,1.18-2.75,1.74a.56.56,0,0,1-.22-.44v-.72a.58.58,0,0,1,.58-.58Z"/><path class="cls-12" d="M623.85,1060.28c.08.22.17.45.25.68C624,1060.73,623.93,1060.5,623.85,1060.28Z"/><path class="cls-12" d="M624.5,1062.08l0-.08,0,.08Z"/><path class="cls-12" d="M618.42,1060.2a.58.58,0,0,0-.58.58v.72a.58.58,0,0,0,.58.58h6.08l0-.08c-.12-.35-.24-.7-.37-1s-.17-.46-.25-.68l0-.08Z"/><path class="cls-12" d="M625.87,1066.68a1.74,1.74,0,0,0,0-.22h0A1.74,1.74,0,0,1,625.87,1066.68Z"/><path class="cls-12" d="M626.27,1068.34l-.12-.53c0,.17.08.35.11.53Z"/><path class="cls-12" d="M618.42,1066.46a.58.58,0,0,0-.58.58v.72a.58.58,0,0,0,.58.58h7.84c0-.18-.07-.36-.11-.53-.09-.38-.18-.76-.28-1.13a1.74,1.74,0,0,0,0-.22Z"/><path class="cls-12" d="M627.21,1074.12a1.5,1.5,0,0,0,0-.22c0,.07,0,.15,0,.23Z"/><path class="cls-12" d="M626.65,1072.72h-8.23a.58.58,0,0,0-.58.58v.72a.58.58,0,0,0,.58.58h8.23a.57.57,0,0,0,.56-.47c0-.08,0-.16,0-.23,0-.34-.09-.68-.13-1A.61.61,0,0,0,626.65,1072.72Z"/><path class="cls-12" d="M617.84,1049a.58.58,0,0,0,.42.55l-.42-.63Z"/><path class="cls-12" d="M621.4,1054.84c.11.21.22.42.32.63C621.62,1055.26,621.51,1055.05,621.4,1054.84Z"/><path class="cls-12" d="M618.42,1053.93a.58.58,0,0,0-.58.58v.72a.58.58,0,0,0,.58.58h3.47l-.17-.34c-.1-.21-.21-.42-.32-.63l-.48-.91Z"/><rect class="cls-12" x="617.84" y="1078.99" width="9.39" height="1.88" rx="0.58"/><rect class="cls-12" x="617.84" y="1085.25" width="9.39" height="1.88" rx="0.58"/><rect class="cls-12" x="617.84" y="1091.51" width="9.39" height="1.88" rx="0.58"/><rect class="cls-12" x="617.84" y="1097.78" width="9.39" height="1.88" rx="0.58"/><rect class="cls-12" x="617.84" y="1104.04" width="9.39" height="1.88" rx="0.58"/><rect class="cls-12" x="617.84" y="1110.3" width="9.39" height="1.88" rx="0.58"/><path class="cls-12" d="M624.69,1116.56q-.77,1-1.56,1.89h-4.71a.58.58,0,0,1-.58-.58v-.73a.58.58,0,0,1,.58-.58Z"/><path class="cls-12" d="M619,1122.83l-1.16,1.1v-.52a.58.58,0,0,1,.58-.58Z"/><rect class="cls-12" x="594.67" y="1052.68" width="9.39" height="1.88" rx="0.58"/><rect class="cls-12" x="594.67" y="1058.94" width="9.39" height="1.88" rx="0.58"/><rect class="cls-12" x="594.67" y="1065.21" width="9.39" height="1.88" rx="0.58"/><path class="cls-12" d="M602.66,1034l-.12-.08h0Z"/><path class="cls-12" d="M595.24,1033.89a.58.58,0,0,0-.57.58v.72a.58.58,0,0,0,.57.58h8.24a.58.58,0,0,0,.58-.58v-.26c-.46-.33-.93-.65-1.4-1l-.12-.08Z"/><path class="cls-12" d="M604.06,1041.45v0l-.34.56A.59.59,0,0,0,604.06,1041.45Z"/><path class="cls-12" d="M603.48,1040.15h-8.24a.59.59,0,0,0-.57.58v.72a.58.58,0,0,0,.57.58h8.24a.6.6,0,0,0,.24,0l.34-.56v-.69A.59.59,0,0,0,603.48,1040.15Z"/><path class="cls-12" d="M603.48,1048.3a.58.58,0,0,0,.58-.58V1047a.58.58,0,0,0-.58-.58h-2.94c-.53.64-1.08,1.27-1.64,1.88Z"/><path class="cls-12" d="M594.67,1047v.72a.58.58,0,0,0,.57.58h3.66c.56-.61,1.11-1.24,1.64-1.88h-5.3A.58.58,0,0,0,594.67,1047Z"/><rect class="cls-12" x="594.67" y="1071.47" width="9.39" height="1.88" rx="0.58"/><rect class="cls-12" x="594.67" y="1077.73" width="9.39" height="1.88" rx="0.58"/><rect class="cls-12" x="594.67" y="1084" width="9.39" height="1.88" rx="0.58"/><rect class="cls-12" x="594.67" y="1090.26" width="9.39" height="1.88" rx="0.58"/><rect class="cls-12" x="594.67" y="1096.52" width="9.39" height="1.88" rx="0.58"/><rect class="cls-12" x="594.67" y="1102.79" width="9.39" height="1.88" rx="0.58"/><rect class="cls-12" x="594.67" y="1109.05" width="9.39" height="1.88" rx="0.58"/><rect class="cls-12" x="594.67" y="1115.31" width="9.39" height="1.88" rx="0.58"/><rect class="cls-12" x="594.67" y="1121.58" width="9.39" height="1.88" rx="0.58"/><rect class="cls-12" x="594.67" y="1127.84" width="9.39" height="1.88" rx="0.58"/><path class="cls-12" d="M593.41,1044.59v-.72a.58.58,0,0,0-.58-.58h-6.38c-.2.61-.36,1.24-.51,1.88h6.89A.59.59,0,0,0,593.41,1044.59Z"/><path class="cls-12" d="M593.41,1050.85v-.72a.58.58,0,0,0-.58-.58h-7.52c0,.49,0,1,0,1.47v.41h7.56A.58.58,0,0,0,593.41,1050.85Z"/><path class="cls-12" d="M592.83,1057.69a.58.58,0,0,0,.58-.58v-.72a.58.58,0,0,0-.58-.58h-3.34a39.48,39.48,0,0,1-3.66,1.88Z"/><path class="cls-12" d="M585.27,1057.69h.56a39.48,39.48,0,0,0,3.66-1.88h-4.22Z"/><path class="cls-12" d="M593.38,1032.21l-.41.4A.56.56,0,0,0,593.38,1032.21Z"/><path class="cls-12" d="M593.41,1038.32v-.72a.58.58,0,0,0-.58-.58h-3.44c-.39.61-.77,1.24-1.11,1.88h4.55A.58.58,0,0,0,593.41,1038.32Z"/><path class="cls-12" d="M592.83,1064a.58.58,0,0,0,.58-.57v-.73a.58.58,0,0,0-.58-.57h-7.56V1064Z"/><path class="cls-12" d="M592.83,1070.22a.58.58,0,0,0,.58-.58v-.72a.58.58,0,0,0-.58-.58h-7.56v1.88Z"/><path class="cls-12" d="M592.83,1076.48a.58.58,0,0,0,.58-.58v-.72a.58.58,0,0,0-.58-.58h-7.56v1.88Z"/><path class="cls-12" d="M592.83,1082.74a.58.58,0,0,0,.58-.57v-.73a.58.58,0,0,0-.58-.57h-7.56v1.87Z"/><path class="cls-12" d="M592.83,1089a.58.58,0,0,0,.58-.58v-.72a.58.58,0,0,0-.58-.58h-7.56V1089Z"/><path class="cls-12" d="M592.83,1095.27a.58.58,0,0,0,.58-.58V1094a.58.58,0,0,0-.58-.58h-7.56v1.88Z"/><path class="cls-12" d="M592.83,1101.53a.58.58,0,0,0,.58-.57v-.73a.58.58,0,0,0-.58-.57h-7.56v1.87Z"/><path class="cls-12" d="M592.83,1107.8a.58.58,0,0,0,.58-.58v-.72a.58.58,0,0,0-.58-.58h-7.56v1.88Z"/><path class="cls-12" d="M592.83,1114.06a.58.58,0,0,0,.58-.58v-.72a.58.58,0,0,0-.58-.58h-7.56v1.88Z"/><path class="cls-12" d="M592.83,1120.32a.58.58,0,0,0,.58-.58V1119a.59.59,0,0,0-.58-.58h-7.56v1.88Z"/><path class="cls-12" d="M592.83,1126.59a.58.58,0,0,0,.58-.58v-.72a.58.58,0,0,0-.58-.58h-7.56v1.88Z"/><path class="cls-12" d="M592.83,1132.85a.58.58,0,0,0,.58-.58v-.72a.58.58,0,0,0-.58-.58h-7.56v1.88Z"/><path class="cls-21" d="M571.47,1142.05c-32.93,0-62.88-25.17-66.45-57.4a69,69,0,0,0-.35,6.93,66.81,66.81,0,1,0,133.25-6.93C634.36,1116.88,604.41,1142.05,571.47,1142.05Z"/><path class="cls-1" d="M934,1488.55a33.86,33.86,0,0,1-2.86,7.53,34.37,34.37,0,0,1-5.52,7.8,42.07,42.07,0,0,0,1.34-18A69.75,69.75,0,0,1,934,1488.55Z"/><path class="cls-1" d="M867.54,1509.28a31.84,31.84,0,0,1-11.1-5.59,69.34,69.34,0,0,1,10.76-9A40.69,40.69,0,0,0,867.54,1509.28Z"/><path class="cls-1" d="M883.8,1486.4a33.16,33.16,0,0,1-5.33,18.26h0a32.24,32.24,0,0,1-7.38-12.43A68.8,68.8,0,0,1,883.8,1486.4Z"/><polygon class="cls-6" points="878.46 1504.66 878.43 1504.67 878.44 1504.69 878.46 1504.66"/><path class="cls-24" d="M891.07,1485.91a36.59,36.59,0,0,1-8.1,19.8,68.58,68.58,0,0,1,24-4.39c23.89,0,46.51,12.78,58.19,32.61,0,0-6.28-18.64,1.56-24.65s6.93-11.53,0-11.06-15.68,1.84-24.91.92-10.62-18.46-7.86-27.69-12.45,1.85-17.52,5.54-13.84,4.15-17.07-5.07-6-21.23-8.31-13.85S892.92,1465.46,891.07,1485.91Z"/><path class="cls-24" d="M833.85,1509.28c.91,8.44,16.72,21.8,16.72,21.8h0a65.25,65.25,0,0,1,14.95-15.8,42,42,0,0,0-6.29-.45C844.28,1515.79,832.81,1499.65,833.85,1509.28Z"/><path class="cls-5" d="M826.09,1554.07v0c0,.85-.06,1.69-.09,2.56v1.08c-.14,1.52-.27,3.07-.33,4.61-1-.25-1.89-.57-2.82-.88A53.68,53.68,0,0,1,805,1550.89a54.67,54.67,0,0,1-8-8.89,43.92,43.92,0,0,0,10.67,3.62,44.8,44.8,0,0,0,8,.83c1.08,1,2.18,2,3.32,2.88A40.9,40.9,0,0,0,826.09,1554.07Z"/><path class="cls-24" d="M840.57,1563.31c0,.29,0,.56,0,.85v-.82S840.57,1563.33,840.57,1563.31Z"/><path class="cls-24" d="M840.52,1567.76a1.13,1.13,0,0,1-.24-.08c.05-1.18.14-2.35.26-3.52,0,.12,0,.25,0,.36v0c0,.54-.06,1.09-.06,1.64Z"/><path class="cls-24" d="M843.1,1590.66a34.57,34.57,0,0,0-15.25,2.15,37.57,37.57,0,0,1-5.18,1.6c-12.35,3-27.18,1.23-27.58-1.6s23.11-5.89,31.74-10.52l0,0a7,7,0,0,0,2.86-2.39c1.26-2.35,7.1-10.1,10.83-15.72.71.25-1,3.33-.26,3.52-.07,1.13-.1,2.26-.1,3.41A66.58,66.58,0,0,0,843.1,1590.66Z"/><path class="cls-24" d="M844.84,1580.64c.15.36.31.73.47,1.08a2.25,2.25,0,0,1-.11-.22C845.07,1581.22,845,1580.93,844.84,1580.64Z"/><path class="cls-24" d="M849.17,1589.08c.13.2.24.39.37.58-.06-.09-.13-.17-.19-.27A2.48,2.48,0,0,1,849.17,1589.08Z"/><path class="cls-5" d="M840.94,1561.57a22,22,0,0,0-.36,3v0c0,.54-.06,1.09-.06,1.64v1.58a1.13,1.13,0,0,1-.24-.08c.05-1.18.14-2.35.26-3.52v-.82q0-1,.06-1.95C840.71,1561.45,840.83,1561.5,840.94,1561.57Z"/><path class="cls-5" d="M1009.11,1668.29c5.15-.14,10.19-2.48,14.54-5A40.52,40.52,0,0,0,1036,1652a38.61,38.61,0,0,0,6.12-13.33,34,34,0,0,1-20.5,10.48c-.92.12-1.86.21-2.81.25a34.35,34.35,0,0,1-17.17-3.61,33.28,33.28,0,0,1-13.84-13.06c.16.28-.66,2-.74,2.35a15.1,15.1,0,0,0-.35,3.42,23.73,23.73,0,0,0,1.13,7.14c2.7,8.71,9,21.73,19.39,22.61A17.59,17.59,0,0,0,1009.11,1668.29Z"/><path class="cls-5" d="M818.07,1634.19a28.88,28.88,0,0,0,1.64,13.16,22.56,22.56,0,0,0,6.62,10.15,17.34,17.34,0,0,0,9.06,4c-3.4-4.17-5.23-10.46-4.83-18.08,0-.86.12-1.74.22-2.64a50.3,50.3,0,0,1,5.21-16.91,48,48,0,0,1,11.77-15.06c-.23.19-1.42-.35-1.65-.38a8.56,8.56,0,0,0-2.5.16,18.19,18.19,0,0,0-5.5,2.09c-6.91,3.82-17.55,11.7-19.72,21.72C818.26,1633,818.15,1633.58,818.07,1634.19Z"/><path class="cls-1" d="M843.75,1577.83l-.33-.93Z"/><path class="cls-1" d="M841.33,1569.16c-.07-.32-.13-.65-.19-1C841.2,1568.51,841.26,1568.84,841.33,1569.16Z"/><path class="cls-1" d="M973.1,1557.88c0,.19,0,.38,0,.57C973.13,1558.26,973.12,1558.07,973.1,1557.88Z"/><path class="cls-24" d="M996.27,1580.35c-6,2.44-11.91,8.33-16.84,15.49-1,1.52-2,3.07-3,4.68v0c-5.65,9.57-9.46,20.45-9.7,28.37-.45,15.58.47,46.95-13.38,37.72s-24-26.29-42-25.37-40.61,22.61-52.15,23.06-10.65-.92-2.77-22.59c2.45-6.78,7.37-11.8,12.2-16a.67.67,0,0,0,.11.07l-.11.09a66.23,66.23,0,0,0,87.7-9.78h0c.4-.44.79-.87,1.16-1.31.69-.82,1.37-1.65,2-2.5.54-.7,1.07-1.39,1.58-2.12a66.2,66.2,0,0,0,12.66-37.86c0-.58,0-1.16,0-1.74,0-.42,0-.86,0-1.28,0-1.74-.18-3.47-.34-5.18v-.48c0-.92,0-1.82-.1-2.71s-.11-1.7-.19-2.52c0-.19,0-.39,0-.56a55.76,55.76,0,0,0-1-6c2.93,5.73,6.63,11,10.75,12.28,10.15,3.26,16.6,1.36,22.61,0S1011,1574.35,996.27,1580.35Z"/><path class="cls-13" d="M973.15,1558.45c.08.83.15,1.67.2,2.51C973.3,1560.12,973.23,1559.28,973.15,1558.45Z"/><path class="cls-13" d="M973.44,1563.68v.1a63.3,63.3,0,0,1-15.85,34.81c-.66.74-1.32,1.47-2,2.18a73.1,73.1,0,0,1-6.65,6c-.77.61-1.58,1.21-2.39,1.8-1.61,1.17-3.27,2.28-5,3.31-.86.52-1.73,1-2.6,1.49-1.76.93-3.57,1.82-5.41,2.61a66.79,66.79,0,0,1-26.55,5.57c-1.17,0-2.35,0-3.51-.1l-1.08-.08c-.83-.06-1.63-.13-2.44-.22l-1.21-.13-2.37-.36c-.38-.06-.75-.11-1.1-.18s-.91-.19-1.36-.29-1.19-.22-1.77-.35a1.25,1.25,0,0,1-.26-.07c-1.11-.25-2.23-.54-3.33-.87l-1-.3c-.77-.25-1.55-.49-2.3-.76-.38-.13-.76-.26-1.13-.41-.75-.27-1.49-.54-2.21-.85l-1-.42-1-.45-.87-.39a9.2,9.2,0,0,1-.86-.39l-.38-.17c-1-.5-2-1-3-1.57-.29-.16-.58-.32-.87-.5-.71-.39-1.4-.81-2.1-1.23l-1-.63-2-1.27c-.3-.23-.61-.44-.92-.65-.77-.55-1.54-1.11-2.29-1.69-.14-.11-.3-.21-.45-.34-.89-.69-1.76-1.4-2.61-2.15-.25-.21-.47-.43-.71-.64-.62-.53-1.21-1.08-1.81-1.65-.28-.27-.57-.55-.84-.84-.55-.53-1.08-1.08-1.61-1.64-.26-.28-.54-.55-.78-.83-.61-.67-1.21-1.35-1.81-2.05-.11-.14-.24-.27-.35-.42a.19.19,0,0,1-.07-.08c-.84-1-1.63-2-2.4-3.1-.19-.25-.37-.53-.57-.79s-.27-.4-.42-.59c0,0,0,0,0-.08a1.58,1.58,0,0,1-.13-.18l-.87-1.31c-.2-.29-.39-.58-.57-.89-.06-.09-.13-.17-.19-.27a2.48,2.48,0,0,1-.18-.31.24.24,0,0,1-.06-.09v0l0,0c-.26-.42-.5-.84-.74-1.26a.11.11,0,0,1-.05-.09s0,0,0-.07c-.29-.51-.58-1-.86-1.56-.16-.29-.3-.58-.45-.86s-.17-.35-.27-.53c-.2-.37-.39-.76-.57-1.15-.11-.22-.22-.45-.32-.67s-.19-.41-.27-.6l-.2-.44a2.25,2.25,0,0,1-.11-.22c-.13-.28-.24-.57-.36-.86s-.27-.64-.38-1c-.26-.61-.49-1.24-.71-1.85-.12-.31-.21-.62-.33-.92-.17-.52-.35-1.05-.53-1.57q-.33-1.07-.63-2.13a.25.25,0,0,0,0-.13.61.61,0,0,1,0-.13q-.18-.63-.33-1.26c0-.19-.09-.37-.12-.56s-.15-.66-.23-1c0-.09,0-.18,0-.26a2.38,2.38,0,0,1-.06-.37.43.43,0,0,1,0-.21.61.61,0,0,1,0-.13c0-.12,0-.21-.07-.33s0-.08,0-.11,0-.06,0-.1l-.05-.22a1.81,1.81,0,0,1,0-.23c-.2-1-.37-2.11-.5-3.18,0-.14,0-.3-.07-.46v0c0-.11,0-.24,0-.36v-.82q0-1,.06-1.95v0a59.26,59.26,0,0,1,10-30.29c.5-.76,1-1.5,1.57-2.24s1-1.31,1.48-2l.75-.92c.38-.46.77-.93,1.17-1.38s1-1.09,1.44-1.6l.15-.15c.11-.13.24-.27.37-.4.53-.57,1.08-1.11,1.64-1.66s1.12-1.07,1.68-1.58l0,0a.19.19,0,0,0,.07-.06c.05,0,.08-.08.13-.1.27-.26.56-.5.84-.74.58-.52,1.16-1,1.77-1.5s1-.78,1.44-1.15l.42-.32a68.46,68.46,0,0,1,17.48-9.59c.46-.16.93-.34,1.42-.5l1.43-.48c1-.32,1.94-.61,2.92-.89,1.44-.4,2.91-.76,4.38-1.06.61-.13,1.21-.25,1.82-.36.42-.08.84-.14,1.26-.21s1-.16,1.52-.22,1-.15,1.53-.2l1.53-.16c1-.1,2-.16,3-.21.45,0,.92-.05,1.39-.05l1.83,0c.55,0,1.1,0,1.67,0l1.19,0,1.89.12h.34l.16,0,1.13.1c.1,0,.21,0,.31,0,.84.08,1.66.18,2.48.29s1.86.27,2.78.45a2.17,2.17,0,0,1,.35.07,9.3,9.3,0,0,1,.92.16l.7.14.45.1c.6.13,1.21.26,1.81.42.37.08.74.18,1.09.27l.73.2c.5.13,1,.27,1.5.43l.39.12c.5.14,1,.3,1.5.46l.43.15,1.81.63.42.16,1.78.71c.67.27,1.35.55,2,.86,1.34.58,2.65,1.21,3.93,1.88.61.33,1.22.65,1.82,1l.08,0s.05,0,.07,0l.32.18c.5.28,1,.57,1.48.87s1.25.75,1.84,1.15,1.16.76,1.75,1.16l.77.53c.5.36,1,.71,1.47,1.09a2.18,2.18,0,0,1,.31.22l1.09.87c1.08.86,2.13,1.75,3.15,2.65l1,.94c.31.27.6.54.89.83l.05,0L956,1522c.5.52,1,1,1.47,1.57a1.42,1.42,0,0,1,.24.26c.41.43.79.9,1.18,1.35l1.48,1.81c.38.48.75,1,1.12,1.45l1.32,1.88c.42.58.81,1.17,1.2,1.79s.69,1.11,1,1.67l.06.09h0l0,0h0l7,18a55.76,55.76,0,0,1,1,6c0,.17,0,.37,0,.56.08.82.16,1.66.19,2.52S973.42,1562.76,973.44,1563.68Z"/><path class="cls-13" d="M973.1,1557.88a58.6,58.6,0,0,0-1-6h0Q972.76,1554.82,973.1,1557.88Z"/><path class="cls-21" d="M879.87,1615.74c-2.2,3-6.67,6.14-11.22,10a66.65,66.65,0,0,1-28.47-54.69c0-1.15,0-2.28.1-3.41a1.13,1.13,0,0,0,.24.08v-1.58c0-.55,0-1.1.06-1.64,0,.16,0,.32.07.46.14,1.29.35,2.59.61,3.84.07.44.16.86.26,1.3s.14.66.23,1,.08.37.12.56q.15.63.33,1.26a.61.61,0,0,0,0,.13.25.25,0,0,1,0,.13q.3,1.07.63,2.13c.26.83.55,1.66.86,2.49.22.61.45,1.24.71,1.85.11.33.26.67.38,1s.23.58.36.86a2.25,2.25,0,0,0,.11.22l.2.44q.12.28.27.6c.1.22.21.45.32.67.18.39.37.78.57,1.15.1.18.18.35.27.53s.29.57.45.86c.28.53.57,1,.86,1.56,0,0,0,0,0,.07a.11.11,0,0,0,.05.09c.24.42.48.84.74,1.26l0,0v0a.24.24,0,0,0,.06.09,2.48,2.48,0,0,0,.18.31c.06.1.13.18.19.27.18.31.37.6.57.89l.87,1.31a1.58,1.58,0,0,0,.13.18s0,0,0,.08c.15.19.28.4.42.59s.38.54.57.79c.77,1,1.56,2.1,2.4,3.1a.19.19,0,0,0,.07.08c.11.15.24.28.35.42.6.7,1.2,1.38,1.81,2.05.24.28.52.55.78.83.53.56,1.06,1.11,1.61,1.64.27.29.56.57.84.84.6.57,1.19,1.12,1.81,1.65.24.21.46.43.71.64.85.75,1.72,1.46,2.61,2.15.15.13.31.23.45.34.75.58,1.52,1.14,2.29,1.69.31.21.62.42.92.65l2,1.27,1,.63c.7.42,1.39.84,2.1,1.23.29.18.58.34.87.5,1,.55,2,1.07,3,1.57l.38.17a9.2,9.2,0,0,0,.86.39C879.3,1615.49,879.57,1615.61,879.87,1615.74Z"/><path class="cls-21" d="M840.58,1564.52v0c0,.54-.06,1.09-.06,1.64v1.58a1.13,1.13,0,0,1-.24-.08c.05-1.18.14-2.35.26-3.52C840.55,1564.28,840.57,1564.41,840.58,1564.52Z"/><path class="cls-21" d="M841.25,1568.73s0,.08,0,.11c-.26-1.25-.47-2.55-.61-3.84.13,1.07.3,2.13.5,3.18a3.54,3.54,0,0,0,.08.45S841.25,1568.7,841.25,1568.73Z"/><path class="cls-21" d="M841.47,1569.88c0,.08,0,.17,0,.26-.1-.44-.19-.86-.26-1.3,0,.12,0,.21.07.33a.61.61,0,0,0,0,.13.43.43,0,0,0,0,.21A2.38,2.38,0,0,0,841.47,1569.88Z"/><path class="cls-25" d="M973.78,1569.34c0-1.74-.18-3.47-.34-5.18v-.38C973.63,1565.6,973.75,1567.46,973.78,1569.34Z"/><path class="cls-21" d="M879.88,1615.73h0c-.3-.13-.57-.25-.86-.4Z"/><path class="cls-21" d="M895.28,1620.5l-1.33-.25,0,0C894.37,1620.31,894.83,1620.42,895.28,1620.5Z"/><path class="cls-5" d="M982.25,1542.67s-17.17-12.89-5.64-18.78,32.82-1.24,41.66-3.77C1036.09,1515,982.25,1542.67,982.25,1542.67Z"/></g><rect class="cls-3" x="-20" y="2279.41" width="302" height="215.59" rx="31.75"/><path class="cls-26" d="M40.32,2375.25v-38.69h6.45V2343h6.45v6.45h6.45V2343h6.45v-6.45H79v38.69H66.12v-19.34H59.67v6.45H53.22v-6.45H46.77v19.34Z"/><path class="cls-26" d="M91.92,2375.25v-38.69h38.7V2343h-25.8v6.45h19.35v6.45H104.82v12.9h25.8v6.44Z"/><path class="cls-26" d="M143.52,2375.25v-38.69H150V2343h6.45v6.45h6.45v6.45h6.45v-19.35h12.9v38.69h-12.9v-6.44h-6.45v-6.45h-6.45v-6.45H150v19.34Z"/><path class="cls-26" d="M195.12,2368.81v-32.25h6.45v32.25Zm6.45,6.44v-6.44h12.9v-6.45h6.45v-25.8h12.9v32.25h-6.45v6.44Z"/></svg>