<svg id="Calque_1" data-name="Calque 1" xmlns="http://www.w3.org/2000/svg" xmlns:xlink="http://www.w3.org/1999/xlink" viewBox="0 0 1125 2436"><defs><style>.cls-1,.cls-23{fill:none;}.cls-2,.cls-27,.cls-4{fill:#ffae00;}.cls-2,.cls-27{stroke:#fff;}.cls-2,.cls-23,.cls-27{stroke-miterlimit:10;}.cls-2{stroke-width:0.25px;}.cls-3{fill:#e02229;}.cls-5{fill:#fff;}.cls-6{fill:#00b2ae;}.cls-7{fill:#ffcc97;}.cls-8{fill:#2db17e;}.cls-9{fill:#ffb777;}.cls-10{fill:#303030;}.cls-11{fill:#f1f1f1;}.cls-12{fill:#4c4c4c;}.cls-13{clip-path:url(#clip-path);}.cls-14{fill:#e39c10;}.cls-15{fill:#6a5c46;}.cls-16{clip-path:url(#clip-path-2);}.cls-17{fill:#ffce5c;}.cls-18{fill:#e8b350;}.cls-19{fill:#ff9c45;}.cls-20{fill:#00aa9d;}.cls-21{fill:#ffe1f1;}.cls-22{fill:#752994;}.cls-23{stroke:#e02229;stroke-linecap:square;stroke-width:11.29px;}.cls-24{fill:#894f00;}.cls-25{fill:#a96600;}.cls-26{fill:#fbca85;}.cls-27{stroke-width:0.25px;}</style><clipPath id="clip-path"><rect class="cls-1" x="-1147" width="1124" height="2435"/></clipPath><clipPath id="clip-path-2"><rect class="cls-1" width="1125" height="2435"/></clipPath></defs><title>Plan de travail 4 copie</title><rect class="cls-2" x="0.32" y="-0.03" width="1124.36" height="2435.01"/><rect class="cls-3" x="737.03" y="134.17" width="304.13" height="74.52" rx="22.3"/><path class="cls-4" d="M968.07,198.28V191h-7.33V161.6h7.33v-7.34h29.35v7.34h7.34V191h-7.34v7.33Zm22-7.33V161.6H975.41V191Z"/><path class="cls-3" d="M507.49,141.8A37.78,37.78,0,0,0,513,148c.59-1.24,1.22-2.46,1.88-3.65A30.68,30.68,0,0,1,507.49,141.8ZM518.33,124A37.42,37.42,0,0,0,521.18,135c1.16-1.42,2.39-2.79,3.67-4.11A30,30,0,0,1,518.33,124Zm18.53-9.32a37.7,37.7,0,0,0-2.23,8.1q1.71-1.17,3.51-2.22A29.22,29.22,0,0,1,536.86,114.64Zm68.81,8.27A35.78,35.78,0,0,0,595,100.8a30.78,30.78,0,0,1,.34,16.37A63.69,63.69,0,0,1,605.67,122.91ZM569.54,93.73h-.2a82.8,82.8,0,0,0-9.24.51h0a82,82,0,0,0-15.9,3.4c.48.7.93,1.42,1.36,2.17a31.16,31.16,0,0,1,4.18,15.4A63,63,0,0,1,570,111.88h.82c.31,0,.63,0,.94,0A62.41,62.41,0,0,1,589,114.77a37,37,0,0,0-10-20.48A84,84,0,0,0,569.54,93.73Z"/><path class="cls-1" d="M615.43,156.86c.11.18.21.38.31.57C615.64,157.23,615.54,157,615.43,156.86Z"/><path class="cls-1" d="M613.58,153.8c.08.11.16.23.23.35C613.74,154,613.66,153.91,613.58,153.8Z"/><path class="cls-1" d="M614.63,155.47c.1.16.19.32.28.48C614.82,155.79,614.73,155.63,614.63,155.47Z"/><path class="cls-1" d="M617,159.91c.07.14.13.27.19.41C617.13,160.18,617.07,160.05,617,159.91Z"/><path class="cls-1" d="M617.82,161.73l.23.56Z"/><path class="cls-1" d="M621.21,173.73c0,.1,0,.21,0,.31C621.25,173.94,621.23,173.83,621.21,173.73Z"/><path class="cls-1" d="M619.58,166.58l.12.38Z"/><path class="cls-1" d="M595.35,117.17a30.89,30.89,0,0,1-2.6,6.85,31.61,31.61,0,0,1-5,7.09,37.6,37.6,0,0,0,1.61-10.94,38.35,38.35,0,0,0-.38-5.4A63.71,63.71,0,0,1,595.35,117.17Z"/><path class="cls-1" d="M610.63,149.75l.3.37Z"/><path class="cls-1" d="M621.79,211V181.24c0-.53,0-1.05,0-1.57,0-.2,0-.39,0-.59l-.06-1.12c0-.22,0-.43,0-.64,0-.37-.07-.74-.1-1.11a1.37,1.37,0,0,1,0-.19,1.11,1.11,0,0,0,0-.19c0-.07,0-.14,0-.2q-.09-.81-.21-1.59a2.87,2.87,0,0,0,0-.31c-.07-.46-.14-.91-.22-1.37l-.12-.6c-.07-.34-.13-.69-.21-1l0-.16c0-.16-.07-.32-.11-.48-.08-.34-.16-.69-.25-1a1.94,1.94,0,0,0,0-.2l-.09-.38c-.14-.51-.28-1-.43-1.52,0-.13-.08-.25-.12-.38-.12-.39-.24-.78-.37-1.17-.06-.18-.13-.36-.18-.53l0-.08c-.11-.31-.22-.63-.34-.94s-.15-.41-.23-.62l0-.07c-.11-.3-.23-.59-.35-.88l-.23-.56c-.2-.47-.41-.95-.62-1.41l-.2-.41c-.11-.24-.23-.48-.35-.73l-.15-.31c-.1-.2-.2-.38-.29-.57s-.29-.56-.44-.83a.08.08,0,0,1,0,0l-.32-.57c-.17-.31-.34-.61-.52-.91l-.28-.48c-.27-.45-.54-.89-.82-1.32-.07-.12-.16-.23-.23-.35l-.33-.5-.09-.13-.06-.08-.13-.2h0l-.05-.07c-.11-.17-.23-.33-.34-.49l-.61-.84-.35-.48-.69-.89-.3-.37-.25-.3c-.25-.31-.5-.62-.76-.92-.07-.08-.15-.16-.22-.25-.28-.32-.56-.63-.85-.94-.11-.14-.24-.26-.35-.39l-.78-.81c-.12-.12-.24-.25-.36-.36-.3-.31-.61-.6-.92-.9l-.23-.22-.46-.43-.14-.13-.17-.15-.17-.15-.27-.24-.17-.15-1.06-.91-.33-.26-.49-.4a37.14,37.14,0,0,0,3-18.93A63.07,63.07,0,0,1,621.79,211Z"/><path class="cls-1" d="M621.79,181.24V211h0V181.24Z"/><path class="cls-1" d="M608.2,147c.11.13.23.26.35.38C608.43,147.21,608.31,147.08,608.2,147Z"/><path class="cls-1" d="M611.62,151l.35.48Z"/><path class="cls-1" d="M612.58,152.33c.11.16.23.32.34.49C612.81,152.65,612.69,152.49,612.58,152.33Z"/><path class="cls-1" d="M526.84,144.23a29.21,29.21,0,0,1-12,.07,63.71,63.71,0,0,1,6.3-9.26A36.74,36.74,0,0,0,526.84,144.23Z"/><path class="cls-1" d="M513.59,180.82a20.49,20.49,0,0,0,12.9,19c.33-.33.69-.65,1-1v22.65A63.13,63.13,0,0,1,513,148a36.8,36.8,0,0,0,14.54,8v5.43A20.49,20.49,0,0,0,513.59,180.82Z"/><path class="cls-1" d="M535,136a28.91,28.91,0,0,1-10.1-5.09,63.48,63.48,0,0,1,9.78-8.19A36.76,36.76,0,0,0,535,136Z"/><path class="cls-1" d="M549.73,115.21a30.16,30.16,0,0,1-4.85,16.61h0a29.42,29.42,0,0,1-6.7-11.31A62.43,62.43,0,0,1,549.73,115.21Z"/><path class="cls-1" d="M583.35,161.12V236.6l-.28.06V161.25Z"/><path class="cls-1" d="M621.63,177.32c0,.21,0,.43,0,.64C621.66,177.75,621.65,177.53,621.63,177.32Z"/><path class="cls-1" d="M621.53,176.21c0-.13,0-.26,0-.38h0C621.5,176,621.51,176.09,621.53,176.21Z"/><path class="cls-1" d="M620.66,170.73l0-.16h0Z"/><path class="cls-1" d="M621.74,179.08c0,.2,0,.4,0,.6C621.76,179.48,621.75,179.28,621.74,179.08Z"/><path class="cls-1" d="M619.21,165.41l-.18-.53h0Z"/><path class="cls-1" d="M620.23,168.86c0-.13-.07-.25-.1-.38l.09.38Z"/><path class="cls-1" d="M620.87,171.76l.12.61Z"/><path class="cls-1" d="M605.91,144.66l.23.22Z"/><path class="cls-1" d="M607.06,145.77l.36.37Z"/><path class="cls-3" d="M651.69,176.08a82.17,82.17,0,0,1-29.9,63.48c-1.4,1.17-2.84,2.27-4.32,3.34-.81.58-1.63,1.15-2.47,1.71a82,82,0,0,1-10,5.69c-.95.46-1.91.89-2.88,1.31-1.24.55-2.5,1.06-3.78,1.54q-2.48.93-5,1.71c-1.37.42-2.75.79-4.15,1.14q-1.77.44-3.54.81h0l-.26.05A82.37,82.37,0,0,1,544.19,97.64c.48.7.93,1.42,1.36,2.17a31.16,31.16,0,0,1,4.18,15.4,62.43,62.43,0,0,0-11.59,5.31,29.22,29.22,0,0,1-1.28-5.88,37.7,37.7,0,0,0-2.23,8.1,63.48,63.48,0,0,0-9.78,8.19,30,30,0,0,1-6.52-7A37.42,37.42,0,0,0,521.18,135a63.71,63.71,0,0,0-6.3,9.26,30.68,30.68,0,0,1-7.39-2.5A37.78,37.78,0,0,0,513,148,63.08,63.08,0,0,0,570,238a63.77,63.77,0,0,0,13.05-1.35l.28-.06c2.1-.46,4.17-1,6.19-1.67h.69a.53.53,0,0,0,.5-.4,62,62,0,0,0,6-2.45q1.69-.79,3.33-1.68c.77-.41,1.52-.85,2.27-1.29s1.69-1,2.51-1.59a62.11,62.11,0,0,0,5.39-4,.5.5,0,0,0,.41-.35c.79-.66,1.57-1.35,2.32-2l1-1c1.31-1.27,2.56-2.61,3.75-4,.49-.56,1-1.13,1.43-1.71.9-1.12,1.77-2.27,2.59-3.46a63.07,63.07,0,0,0-16.12-88.05A35.78,35.78,0,0,0,595,100.8a30.78,30.78,0,0,1,.34,16.37,63.71,63.71,0,0,0-6.4-2.4,37,37,0,0,0-10-20.48A82.36,82.36,0,0,1,651.69,176.08Z"/><path class="cls-5" d="M535.2,137.15a23.59,23.59,0,0,0-4.76,6.06,29.31,29.31,0,0,1-3.6,1,36.74,36.74,0,0,1-5.66-9.19A37.42,37.42,0,0,1,518.33,124a30,30,0,0,0,6.52,7A28.91,28.91,0,0,0,535,136C535,136.4,535.11,136.78,535.2,137.15Z"/><path class="cls-5" d="M589.33,120.17a37.6,37.6,0,0,1-1.61,10.94c-.66.7-1.36,1.38-2.08,2A50.95,50.95,0,0,0,571.13,131H571a36.89,36.89,0,0,0,.31-17c.17-.68.32-1.37.43-2.06a31.42,31.42,0,0,0-2.24-18.18,30.45,30.45,0,0,0-6-8.87A35.35,35.35,0,0,1,579,94.29a37,37,0,0,1,10,20.48A38.35,38.35,0,0,1,589.33,120.17Z"/><path class="cls-5" d="M528.94,146.52a23.39,23.39,0,0,0-1.4,8V156A36.8,36.8,0,0,1,513,148a37.78,37.78,0,0,1-5.51-6.15,30.68,30.68,0,0,0,7.39,2.5,29.21,29.21,0,0,0,12-.07C527.51,145,528.21,145.79,528.94,146.52Z"/><path class="cls-5" d="M571.35,114a30.65,30.65,0,0,1-11,17h-9.26a23.15,23.15,0,0,0-6.21.83,30.16,30.16,0,0,0,4.85-16.61,31.16,31.16,0,0,0-4.18-15.4c-.43-.75-.88-1.47-1.36-2.17a30.86,30.86,0,0,0-17-12.26,36.2,36.2,0,0,1,32.86,8.86h0a38,38,0,0,1,7.08,8.92,37.64,37.64,0,0,1,3.65,8.72h0C571,112.58,571.2,113.28,571.35,114Z"/><path class="cls-5" d="M560.35,131H571a36.89,36.89,0,0,0,.31-17A30.65,30.65,0,0,1,560.35,131Z"/><path class="cls-5" d="M526.84,144.23c.67.8,1.37,1.56,2.1,2.29a22.48,22.48,0,0,1,1.5-3.31A29.31,29.31,0,0,1,526.84,144.23Z"/><path class="cls-5" d="M602.65,141.84l-.47-.36-.38-.29-1-.72-.36-.26,0,0c-.42-.29-.84-.59-1.27-.87l-.12-.07-.28-.18c-.31-.2-.63-.41-.95-.6s-.38-.24-.58-.35-.54-.33-.81-.48l-.6-.34-.87-.48-.55-.28-1.43-.71a23.32,23.32,0,0,0-2,1.68l-.21.21-.19.18-.29.28c-.08.07-.15.15-.22.22-.26.27-.51.53-.75.81l-.47.54c-.16.19-.31.37-.45.56s-.3.38-.44.58l-.45.63c-.12.17-.24.35-.35.53a1.63,1.63,0,0,0-.11.17c-.15.23-.29.47-.43.72a3.62,3.62,0,0,0-.2.33,1.19,1.19,0,0,0-.12.22l-.17.31L586,144c0,.08-.08.16-.13.24l-.12.26-.18.36a.54.54,0,0,0,0,.11l-.33.74v0c-.13.29-.25.59-.35.89s-.19.5-.27.75a0,0,0,0,1,0,0s0,.09,0,.14l-.07.21s0,0,0,.05-.06.19-.09.29l-.08.29v0s0,.09,0,.14a.13.13,0,0,0,0,.06h0c0,.16-.09.31-.12.47a5,5,0,0,0-.12.53c0,.13-.06.26-.09.38s-.05.27-.08.4,0,.28-.07.43-.06.34-.09.52a.49.49,0,0,0,0,.12c0,.08,0,.16,0,.23a2.32,2.32,0,0,0,0,.24s0,0,0,0c0,.21,0,.43-.07.64a2.65,2.65,0,0,0,0,.27V153c0,.05,0,.11,0,.17s0,.11,0,.17a.86.86,0,0,0,0,.16s0,.08,0,.11q0,.61,0,1.23v6.3l-.28.13v-6.43a23.49,23.49,0,0,1,9.63-19,51,51,0,0,0-5.79-2.31c.3-.79.57-1.6.81-2.41a31.61,31.61,0,0,0,5-7.09A31.17,31.17,0,0,0,595,100.8a35.78,35.78,0,0,1,10.66,22.11A37.14,37.14,0,0,1,602.65,141.84Z"/><path class="cls-5" d="M599.06,139.25l-.29-.18.28.18Z"/><path class="cls-5" d="M594.41,136.54l.54.29Z"/><path class="cls-5" d="M595.83,137.3l.6.34Z"/><path class="cls-5" d="M600.47,140.21l.36.26Z"/><path class="cls-5" d="M601.8,141.19l.38.29Z"/><path class="cls-5" d="M593,135.83a25.27,25.27,0,0,0-2,1.68,25.27,25.27,0,0,1,2-1.68Z"/><path class="cls-5" d="M597.24,138.12l.58.34Z"/><path class="cls-5" d="M544.84,131.83a23.41,23.41,0,0,0-8.69,4.5c-.4-.09-.8-.2-1.2-.31a36.76,36.76,0,0,1-.32-13.28,37.7,37.7,0,0,1,2.23-8.1,30.08,30.08,0,0,0,8,17.19Z"/><path class="cls-5" d="M587.72,131.11c-.66.7-1.36,1.38-2.08,2,.43.12.85.26,1.27.4C587.21,132.73,587.48,131.92,587.72,131.11Z"/><path class="cls-5" d="M535,136c.07.38.16.76.25,1.13.31-.28.63-.56.95-.82C535.75,136.24,535.35,136.13,535,136Z"/><polygon class="cls-6" points="544.87 131.82 544.84 131.83 544.86 131.85 544.87 131.82"/><path class="cls-6" d="M583.07,161.25v75.41A63.77,63.77,0,0,1,570,238a62.83,62.83,0,0,1-42.48-16.45V198.91l.48-.42a20.5,20.5,0,0,1,20.5-3.11,17.89,17.89,0,0,0,1.38-1.51,20.46,20.46,0,0,0,4.67-12.08c0-.32,0-.64,0-1a20.49,20.49,0,0,0-27.05-19.42V156a35.12,35.12,0,0,0,18.89.15l.66.14a34.26,34.26,0,0,0,6,3.94,34.73,34.73,0,0,0,10,3.4,6.26,6.26,0,1,0,10.46.22h0A36.32,36.32,0,0,0,583.07,161.25Z"/><path class="cls-6" d="M536.15,140.42a33.12,33.12,0,0,1-.95-3.27,23.59,23.59,0,0,0-4.76,6.06,29.05,29.05,0,0,0,4.65-2.15C535.45,140.86,535.8,140.64,536.15,140.42Z"/><path class="cls-6" d="M585.64,133.12A50.95,50.95,0,0,0,571.13,131H571A35.93,35.93,0,0,1,567,140.7,30.45,30.45,0,0,0,585.64,133.12Z"/><path class="cls-6" d="M546.43,156.12l.66.14c-.09-.08-.19-.15-.28-.24Z"/><path class="cls-6" d="M544.86,131.85a28.55,28.55,0,0,0,5.16,4.26A29.18,29.18,0,0,0,560.35,131h-9.26a23.15,23.15,0,0,0-6.21.83h0Z"/><path class="cls-6" d="M527.54,154.54V156a35.12,35.12,0,0,0,18.89.15,35.11,35.11,0,0,1-17.49-9.6A23.39,23.39,0,0,0,527.54,154.54Z"/><path class="cls-6" d="M552.37,137.48A28.8,28.8,0,0,0,567,140.7,35.93,35.93,0,0,0,571,131H560.35A29.18,29.18,0,0,1,550,136.11C550.78,136.6,551.56,137.05,552.37,137.48Z"/><path class="cls-6" d="M536.15,140.42c-.35.22-.7.44-1.06.64a29.05,29.05,0,0,1-4.65,2.15,22.48,22.48,0,0,0-1.5,3.31,35.11,35.11,0,0,0,17.49,9.6l.38-.1A34.93,34.93,0,0,1,536.15,140.42Z"/><path class="cls-6" d="M544.86,131.85l0,0a23.41,23.41,0,0,0-8.69,4.5,29.31,29.31,0,0,0,4.41.66A28.41,28.41,0,0,0,544.86,131.85Z"/><path class="cls-6" d="M553.74,156.9a34.71,34.71,0,0,1-6.65-.64,34.26,34.26,0,0,0,6,3.94,34.73,34.73,0,0,0,10,3.4h0a6.26,6.26,0,0,1,10.46.22h0a36.32,36.32,0,0,0,9.51-2.57v-6.43a23.49,23.49,0,0,1,9.63-19,51,51,0,0,0-5.79-2.31A35.67,35.67,0,0,1,553.74,156.9Z"/><path class="cls-6" d="M540.56,137a29.31,29.31,0,0,1-4.41-.66c-.32.26-.64.54-.95.82a33.12,33.12,0,0,0,.95,3.27A27.66,27.66,0,0,0,540.56,137Z"/><path class="cls-6" d="M554.6,152.74a34.89,34.89,0,0,1-7.79,3.28c.09.09.19.16.28.24a34.71,34.71,0,0,0,6.65.64,35.67,35.67,0,0,0,33.17-23.38c-.42-.14-.84-.28-1.27-.4A30.45,30.45,0,0,1,567,140.7,34.65,34.65,0,0,1,554.6,152.74Z"/><path class="cls-6" d="M542.63,137.06a29.07,29.07,0,0,0,7.39-.95,28.55,28.55,0,0,1-5.16-4.26,28.41,28.41,0,0,1-4.3,5.14C541.25,137,541.94,137.06,542.63,137.06Z"/><path class="cls-6" d="M540.56,137a27.66,27.66,0,0,1-4.41,3.43A34.93,34.93,0,0,0,546.81,156,34.66,34.66,0,0,0,567,140.7a28.8,28.8,0,0,1-14.59-3.22c-.81-.43-1.59-.88-2.35-1.37a29.07,29.07,0,0,1-7.39.95C541.94,137.06,541.25,137,540.56,137Z"/><path class="cls-7" d="M513.59,180.82a20.49,20.49,0,0,0,12.9,19q.51-.5,1-1V161.4A20.49,20.49,0,0,0,513.59,180.82Z"/><path class="cls-7" d="M528,198.49a20.54,20.54,0,0,1,20.31-17.67,20,20,0,0,1,4.81.58c.48.11,1,.24,1.43.39,0-.32,0-.64,0-1a20.49,20.49,0,0,0-27.05-19.42v37.5Z"/><path class="cls-8" d="M528,198.49a20.34,20.34,0,0,1,2.43-7.19,20.34,20.34,0,0,0-2.43,7.19,20.5,20.5,0,0,1,20.5-3.11h0a20.5,20.5,0,0,0-20.5,3.11Z"/><path class="cls-8" d="M554.57,181.79a20.46,20.46,0,0,1-4.67,12.08,20.46,20.46,0,0,0,4.67-12.08c-.47-.15-1-.28-1.43-.39C553.62,181.51,554.1,181.64,554.57,181.79Z"/><path class="cls-9" d="M548.52,195.38c.49-.48.94-1,1.38-1.51-.44.52-.89,1-1.38,1.51Z"/><path class="cls-9" d="M548.33,180.82a20,20,0,0,1,4.81.58,20,20,0,0,0-4.81-.58,20.48,20.48,0,0,0-17.88,10.48A20.48,20.48,0,0,1,548.33,180.82Z"/><path class="cls-9" d="M553.14,181.4a20,20,0,0,0-4.81-.58A20.54,20.54,0,0,0,528,198.49a20.5,20.5,0,0,1,20.5-3.11c.49-.48.94-1,1.38-1.51a20.46,20.46,0,0,0,4.67-12.08C554.1,181.64,553.62,181.51,553.14,181.4Z"/><path class="cls-10" d="M563.1,163.6a6.26,6.26,0,1,0,10.46.22A34.65,34.65,0,0,1,563.1,163.6Z"/><path class="cls-10" d="M568.26,160.89a6.25,6.25,0,0,0-5.16,2.71,34.65,34.65,0,0,0,10.46.22A6.26,6.26,0,0,0,568.26,160.89Z"/><path class="cls-11" d="M614.91,156c.18.3.35.6.52.91C615.26,156.55,615.09,156.25,614.91,156Z"/><path class="cls-11" d="M607.42,146.14l.78.81Z"/><path class="cls-11" d="M606.14,144.88l.92.89Z"/><path class="cls-11" d="M610.93,150.12l.69.89Z"/><path class="cls-11" d="M621.76,179.67c0-.2,0-.39,0-.59l-.06-1.12c0-.22,0-.43,0-.64,0-.37-.07-.74-.1-1.11a1.37,1.37,0,0,1,0-.19,1.1,1.1,0,0,1,0-.18.52.52,0,0,1-.51.43h-7.49a.52.52,0,0,1-.52-.53v-.65a.52.52,0,0,1,.52-.53H621a.5.5,0,0,1,.37.15l-.09-.67a2.87,2.87,0,0,0,0-.31c-.07-.46-.14-.91-.22-1.37l-.12-.6c-.07-.34-.13-.69-.21-1l0-.16h-7.14A.52.52,0,0,1,613,170v-.65a.52.52,0,0,1,.52-.53h6.73l-.09-.38c-.14-.51-.28-1-.43-1.52,0-.13-.08-.25-.12-.38-.12-.39-.24-.78-.37-1.17-.06-.18-.13-.36-.18-.53h-5.54a.52.52,0,0,1-.52-.53v-.66a.52.52,0,0,1,.52-.52h4.91c-.11-.3-.23-.59-.35-.88l-.23-.56c-.2-.47-.41-.95-.62-1.41l-.2-.41c-.11-.24-.23-.48-.35-.73h-3.16a.52.52,0,0,1-.52-.53V158a.52.52,0,0,1,.52-.53h2.28a.08.08,0,0,1,0,0l-.32-.57c-.17-.31-.34-.61-.52-.91l-.28-.48c-.27-.45-.54-.89-.82-1.32-.07-.12-.16-.23-.23-.35l-.23-.34a.52.52,0,0,1-.38-.5v-.07l-.05-.07c-.11-.17-.23-.33-.34-.49l-.61-.84-.35-.48-.69-.89-.3-.37-.25-.3a.54.54,0,0,1-.22.05h-7.49a.52.52,0,0,1-.52-.53v-.65a.52.52,0,0,1,.52-.53H609l-.41-.45c-.11-.14-.24-.26-.35-.39l-.78-.81c-.12-.12-.24-.25-.36-.36-.3-.31-.61-.6-.92-.9l-.23-.22-.46-.43-.14-.13-.17-.15-.17-.15h-2.3a.52.52,0,0,1-.52-.52v-.34c-.18.37-.36.73-.55,1.09-.36.71-.76,1.39-1.16,2.06v0a.54.54,0,0,1-.31.48,38.28,38.28,0,0,1-2.89,4h2.67a.53.53,0,0,1,.53.53v.65a.53.53,0,0,1-.53.53h-4.17a37.13,37.13,0,0,1-8.55,6.83h3a.52.52,0,0,1,.52.53v.65a.52.52,0,0,1-.52.53h-6.37l-.51.23v3.76h6.88a.52.52,0,0,1,.52.52v.66a.52.52,0,0,1-.52.52h-6.88v4h6.88a.52.52,0,0,1,.52.53v.65a.52.52,0,0,1-.52.53h-6.88v4h6.88a.52.52,0,0,1,.52.52v.66a.52.52,0,0,1-.52.53h-6.88v4h6.88a.52.52,0,0,1,.52.53v.65a.52.52,0,0,1-.52.53h-6.88v4h6.88a.52.52,0,0,1,.52.52v.66a.52.52,0,0,1-.52.52h-6.88v4h6.88a.52.52,0,0,1,.52.53v.65a.52.52,0,0,1-.52.53h-6.88v4h6.88a.52.52,0,0,1,.52.52v.66a.52.52,0,0,1-.52.53h-6.88v4h6.88a.52.52,0,0,1,.52.53v.66a.52.52,0,0,1-.52.52h-6.88v4h6.88a.52.52,0,0,1,.52.53v.65a.52.52,0,0,1-.52.53h-6.88v4h6.88a.52.52,0,0,1,.52.53v.65a.52.52,0,0,1-.52.53h-6.88v4h6.88a.52.52,0,0,1,.52.52V223a.52.52,0,0,1-.52.53h-6.88v4h6.88a.52.52,0,0,1,.52.53v.66a.52.52,0,0,1-.52.52h-6.88v4h6.88a.52.52,0,0,1,.52.53v.65a.51.51,0,0,1,0,.13,62,62,0,0,0,6-2.45h-4.32a.53.53,0,0,1-.53-.53v-.65a.53.53,0,0,1,.53-.53h7.49a.76.76,0,0,1,.16,0c.77-.41,1.52-.85,2.27-1.29a.51.51,0,0,1-.19-.4v-.66a.52.52,0,0,1,.52-.53h2.18a62.11,62.11,0,0,0,5.39-4l-.08,0h-7.49a.52.52,0,0,1-.52-.53v-.66a.52.52,0,0,1,.52-.52h7.49a.52.52,0,0,1,.53.52V223a.42.42,0,0,1,0,.16c.79-.66,1.57-1.35,2.32-2v-.48a.52.52,0,0,1,.52-.52H614c1.31-1.27,2.56-2.61,3.75-4h-4.28a.52.52,0,0,1-.52-.52V215a.52.52,0,0,1,.52-.53h5.71c.9-1.12,1.77-2.27,2.59-3.46V181.24C621.79,180.71,621.78,180.19,621.76,179.67Zm-21.32,46.19a.52.52,0,0,1-.53.52h-7.49a.52.52,0,0,1-.53-.52v-.66a.52.52,0,0,1,.53-.52h7.49a.52.52,0,0,1,.53.52Zm0-5.7a.53.53,0,0,1-.53.53h-7.49a.53.53,0,0,1-.53-.53v-.65a.53.53,0,0,1,.53-.53h7.49a.53.53,0,0,1,.53.53Zm0-5.69a.53.53,0,0,1-.53.53h-7.49a.53.53,0,0,1-.53-.53v-.66a.53.53,0,0,1,.53-.53h7.49a.53.53,0,0,1,.53.53Zm0-5.7a.53.53,0,0,1-.53.53h-7.49a.53.53,0,0,1-.53-.53v-.65a.53.53,0,0,1,.53-.53h7.49a.53.53,0,0,1,.53.53Zm0-5.69a.52.52,0,0,1-.53.52h-7.49a.52.52,0,0,1-.53-.52v-.66a.52.52,0,0,1,.53-.52h7.49a.52.52,0,0,1,.53.52Zm0-5.7a.53.53,0,0,1-.53.53h-7.49a.53.53,0,0,1-.53-.53v-.65a.53.53,0,0,1,.53-.53h7.49a.53.53,0,0,1,.53.53Zm0-5.69a.52.52,0,0,1-.53.52h-7.49a.52.52,0,0,1-.53-.52V191a.53.53,0,0,1,.53-.53h7.49a.53.53,0,0,1,.53.53Zm0-5.7a.53.53,0,0,1-.53.53h-7.49a.53.53,0,0,1-.53-.53v-.65a.53.53,0,0,1,.53-.53h7.49a.53.53,0,0,1,.53.53Zm0-5.7a.53.53,0,0,1-.53.53h-7.49a.53.53,0,0,1-.53-.53v-.65a.53.53,0,0,1,.53-.53h7.49a.53.53,0,0,1,.53.53Zm0-5.69a.53.53,0,0,1-.53.53h-7.49a.53.53,0,0,1-.53-.53V174a.53.53,0,0,1,.53-.53h7.49a.53.53,0,0,1,.53.53Zm0-5.69a.52.52,0,0,1-.53.52h-7.49a.52.52,0,0,1-.53-.52v-.66a.53.53,0,0,1,.53-.53h7.49a.53.53,0,0,1,.53.53Zm0-5.7a.53.53,0,0,1-.53.53h-7.49a.53.53,0,0,1-.53-.53v-.66a.52.52,0,0,1,.53-.52h7.49a.52.52,0,0,1,.53.52Zm0-5.7a.53.53,0,0,1-.53.53h-7.49a.53.53,0,0,1-.53-.53v-.65a.53.53,0,0,1,.53-.53h7.49a.53.53,0,0,1,.53.53Zm10.25,59.8a.53.53,0,0,1-.53.53h-7.49a.52.52,0,0,1-.52-.53v-.65a.52.52,0,0,1,.52-.53h7.49a.53.53,0,0,1,.53.53Zm0-5.69a.53.53,0,0,1-.53.53h-7.49a.52.52,0,0,1-.52-.53V211a.52.52,0,0,1,.52-.53h7.49a.53.53,0,0,1,.53.53Zm0-5.69a.52.52,0,0,1-.53.52h-7.49a.52.52,0,0,1-.52-.52v-.66a.52.52,0,0,1,.52-.53h7.49a.53.53,0,0,1,.53.53Zm0-5.7a.53.53,0,0,1-.53.53h-7.49a.52.52,0,0,1-.52-.53v-.66a.52.52,0,0,1,.52-.52h7.49a.52.52,0,0,1,.53.52Zm0-5.7a.53.53,0,0,1-.53.53h-7.49a.52.52,0,0,1-.52-.53v-.65a.52.52,0,0,1,.52-.53h7.49a.53.53,0,0,1,.53.53Zm0-5.69a.52.52,0,0,1-.53.52h-7.49a.52.52,0,0,1-.52-.52v-.66a.52.52,0,0,1,.52-.52h7.49a.52.52,0,0,1,.53.52Zm0-5.7a.53.53,0,0,1-.53.53h-7.49a.52.52,0,0,1-.52-.53v-.65a.52.52,0,0,1,.52-.53h7.49a.53.53,0,0,1,.53.53Zm0-5.69a.53.53,0,0,1-.53.53h-7.49a.52.52,0,0,1-.52-.53v-.66a.52.52,0,0,1,.52-.52h7.49a.52.52,0,0,1,.53.52Zm0-5.7a.53.53,0,0,1-.53.53h-7.49a.52.52,0,0,1-.52-.53v-.65a.52.52,0,0,1,.52-.53h7.49a.53.53,0,0,1,.53.53Zm0-5.69a.52.52,0,0,1-.53.52h-7.49a.52.52,0,0,1-.52-.52v-.66a.52.52,0,0,1,.52-.52h7.49a.52.52,0,0,1,.53.52Zm0-5.7a.53.53,0,0,1-.53.53h-7.49a.52.52,0,0,1-.52-.53v-.65a.52.52,0,0,1,.52-.53h7.49a.53.53,0,0,1,.53.53Zm0-5.69a.52.52,0,0,1-.53.52h-7.49a.52.52,0,0,1-.52-.52V154a.52.52,0,0,1,.52-.53h7.49a.53.53,0,0,1,.53.53Zm10.82,55.24a.53.53,0,0,1-.53.53h-7.49a.52.52,0,0,1-.52-.53v-.65a.52.52,0,0,1,.52-.53H621a.53.53,0,0,1,.53.53Zm0-5.7a.53.53,0,0,1-.53.53h-7.49a.52.52,0,0,1-.52-.53v-.65a.52.52,0,0,1,.52-.53H621a.53.53,0,0,1,.53.53Zm0-5.69a.53.53,0,0,1-.53.53h-7.49a.52.52,0,0,1-.52-.53v-.65a.52.52,0,0,1,.52-.53H621a.53.53,0,0,1,.53.53Zm0-5.69a.52.52,0,0,1-.53.52h-7.49a.52.52,0,0,1-.52-.52v-.66a.52.52,0,0,1,.52-.53H621a.53.53,0,0,1,.53.53Zm0-5.7a.53.53,0,0,1-.53.53h-7.49a.52.52,0,0,1-.52-.53v-.66a.52.52,0,0,1,.52-.52H621a.52.52,0,0,1,.53.52Zm0-5.7a.53.53,0,0,1-.53.53h-7.49a.52.52,0,0,1-.52-.53v-.65a.52.52,0,0,1,.52-.53H621a.53.53,0,0,1,.53.53Z"/><path class="cls-11" d="M619.7,167c.15.5.29,1,.43,1.52C620,168,619.85,167.46,619.7,167Z"/><path class="cls-11" d="M612,151.49l.61.84Z"/><path class="cls-11" d="M617.19,160.32c.22.46.43.94.63,1.41C617.62,161.26,617.41,160.78,617.19,160.32Z"/><path class="cls-11" d="M603.47,142.51c.36.29.71.59,1.06.9C604.18,143.1,603.83,142.8,603.47,142.51Z"/><path class="cls-11" d="M613.81,154.15c.28.43.55.87.82,1.32C614.36,155,614.09,154.58,613.81,154.15Z"/><path class="cls-11" d="M618.66,163.86c.12.31.23.63.34.94C618.89,164.49,618.78,164.17,618.66,163.86Z"/><path class="cls-11" d="M621.47,175.62c-.06-.53-.13-1.06-.21-1.58,0,.22.06.45.09.67Z"/><path class="cls-11" d="M619.21,165.41c.13.39.25.78.37,1.17C619.46,166.19,619.34,165.8,619.21,165.41Z"/><path class="cls-11" d="M617,159.91c-.16-.35-.33-.7-.5-1l.15.31C616.77,159.42,616.89,159.67,617,159.91Z"/><path class="cls-11" d="M603,142.1l.18.14-.49-.4h0Z"/><path class="cls-11" d="M603,142.1l-.31-.25c0,.09-.09.18-.13.28l.15,0Z"/><path class="cls-11" d="M618.43,163.24c-.13-.32-.25-.64-.38-1,.12.29.23.58.35.88Z"/><path class="cls-11" d="M616.21,158.3l-.47-.87,0,0Z"/><path class="cls-11" d="M609.4,148.28l-.85-.95.41.46Z"/><path class="cls-11" d="M610.63,149.75c-.33-.41-.67-.82-1-1.22.26.3.51.61.76.92Z"/><path class="cls-11" d="M605.91,144.66c-.4-.38-.8-.74-1.21-1.1l.27.24Z"/><path class="cls-11" d="M621.68,178l.06,1.12Z"/><polygon class="cls-11" points="583.35 233.22 583.35 229.23 583.35 227.52 583.35 223.54 583.35 221.83 583.35 217.84 583.35 216.13 583.35 212.15 583.35 210.44 583.35 206.45 583.35 204.74 583.35 200.76 583.35 199.05 583.35 195.06 583.35 193.35 583.35 189.37 583.35 187.66 583.35 183.67 583.35 181.96 583.35 177.97 583.35 176.27 583.35 172.28 583.35 170.57 583.35 166.59 583.35 164.88 583.35 161.12 583.35 161.13 583.35 236.6 583.35 236.6 583.35 234.93 583.35 233.22"/><path class="cls-11" d="M620.27,169.06c.09.34.17.68.25,1C620.44,169.74,620.36,169.4,620.27,169.06Z"/><path class="cls-11" d="M621.53,176.21c0,.37.07.74.1,1.11C621.6,177,621.56,176.58,621.53,176.21Z"/><path class="cls-11" d="M621.76,179.68q0,.76,0,1.56Q621.79,180.45,621.76,179.68Z"/><path class="cls-11" d="M620.66,170.73c.08.34.15.69.21,1C620.81,171.42,620.74,171.07,620.66,170.73Z"/><path class="cls-11" d="M621,172.37c.08.45.15.9.22,1.36C621.14,173.27,621.07,172.82,621,172.37Z"/><path class="cls-11" d="M613.35,153.46l.23.34-.66-1,.05.06Z"/><path class="cls-11" d="M583.35,160.89v-6.07c0-.45,0-.89,0-1.33a23.68,23.68,0,0,1,.57-4c.14-.58.29-1.15.46-1.71a23.34,23.34,0,0,1,1.67-4c.31-.58.65-1.15,1-1.7a23.35,23.35,0,0,1,3.25-4l.38-.36.21-.21a23.45,23.45,0,0,0-7.59,17.31v6.3h0Z"/><path class="cls-11" d="M593,135.83h0l1.43.71Z"/><path class="cls-11" d="M600.83,140.47l1,.72Z"/><path class="cls-11" d="M583.35,161.12l.51-.23h-.51Z"/><path class="cls-11" d="M590.35,138.08a23.35,23.35,0,0,0-3.25,4h3.13a.52.52,0,0,1,.53.52v.66a.52.52,0,0,1-.53.52h-4.14a23.34,23.34,0,0,0-1.67,4h5.81a.53.53,0,0,1,.53.53V149a.53.53,0,0,1-.53.53H584a23.68,23.68,0,0,0-.57,4h6.84a.52.52,0,0,1,.53.52v.66a.52.52,0,0,1-.53.52h-6.88v4h3.84a36.92,36.92,0,0,0,8.55-6.83h-3.32a.53.53,0,0,1-.53-.53v-.66a.52.52,0,0,1,.53-.52h4.82a39.34,39.34,0,0,0,2.89-4,.54.54,0,0,1-.22.05h-7.49a.53.53,0,0,1-.53-.53v-.65a.53.53,0,0,1,.53-.53h7.49a.53.53,0,0,1,.53.53v.62c.4-.67.8-1.35,1.16-2.06.19-.36.37-.72.55-1.09v-.32a.52.52,0,0,1,.37-.49c0-.1.09-.19.13-.28l-.47-.37-.38-.29-1-.72-.36-.26,0,0v.24a.53.53,0,0,1-.53.53h-7.49a.53.53,0,0,1-.53-.53v-.66a.52.52,0,0,1,.53-.52h6.63l-.28-.18c-.31-.21-.63-.41-.95-.61l-.58-.34-.81-.48-.6-.34c-.29-.16-.58-.32-.88-.47l-.54-.29-1.43-.71a25.27,25.27,0,0,0-2,1.68l-.21.21A.5.5,0,0,1,590.35,138.08Z"/><path class="cls-11" d="M597.82,138.46c.32.2.64.4.95.61C598.46,138.86,598.14,138.66,597.82,138.46Z"/><path class="cls-11" d="M595,136.83c.3.15.59.31.88.47C595.54,137.14,595.25,137,595,136.83Z"/><path class="cls-11" d="M600.47,140.21c-.43-.3-.86-.6-1.3-.89.43.28.85.57,1.27.87Z"/><path class="cls-11" d="M602.65,141.84l-.47-.36.47.37Z"/><path class="cls-11" d="M596.43,137.64l.81.48Z"/><rect class="cls-12" x="602.15" y="159.18" width="8.54" height="1.71" rx="0.53"/><rect class="cls-12" x="602.15" y="164.88" width="8.54" height="1.71" rx="0.53"/><rect class="cls-12" x="602.15" y="170.57" width="8.54" height="1.71" rx="0.53"/><path class="cls-12" d="M603.14,142.24l.33.27Z"/><path class="cls-12" d="M604.53,143.41l.17.15Z"/><path class="cls-12" d="M602.67,142.1l-.15,0c-.12.27-.24.54-.37.81v.34a.52.52,0,0,0,.52.52H605l-.27-.24-.17-.15c-.35-.31-.7-.61-1.06-.9l-.33-.27-.18-.14Z"/><path class="cls-12" d="M602.15,142.62v.32c.13-.27.25-.54.37-.81A.52.52,0,0,0,602.15,142.62Z"/><path class="cls-12" d="M609.4,148.28c.07.09.15.17.22.25C609.55,148.45,609.47,148.37,609.4,148.28Z"/><path class="cls-12" d="M602.67,147.79a.52.52,0,0,0-.52.53V149a.52.52,0,0,0,.52.53h7.49a.54.54,0,0,0,.22-.05c-.25-.31-.5-.62-.76-.92-.07-.08-.15-.16-.22-.25l-.44-.49Z"/><rect class="cls-12" x="602.15" y="153.49" width="8.54" height="1.71" rx="0.53"/><rect class="cls-12" x="602.15" y="176.27" width="8.54" height="1.71" rx="0.53"/><rect class="cls-12" x="602.15" y="181.96" width="8.54" height="1.71" rx="0.53"/><rect class="cls-12" x="602.15" y="187.66" width="8.54" height="1.71" rx="0.53"/><rect class="cls-12" x="602.15" y="193.35" width="8.54" height="1.71" rx="0.53"/><rect class="cls-12" x="602.15" y="199.05" width="8.54" height="1.71" rx="0.53"/><rect class="cls-12" x="602.15" y="204.74" width="8.54" height="1.71" rx="0.53"/><rect class="cls-12" x="602.15" y="210.44" width="8.54" height="1.71" rx="0.53"/><rect class="cls-12" x="602.15" y="216.13" width="8.54" height="1.71" rx="0.53"/><path class="cls-12" d="M610.65,223.17a.5.5,0,0,1-.41.35Z"/><path class="cls-12" d="M610.69,223v-.66a.52.52,0,0,0-.53-.52h-7.49a.52.52,0,0,0-.52.52V223a.52.52,0,0,0,.52.53h7.49l.08,0,.42-.35A.76.76,0,0,0,610.69,223Z"/><path class="cls-12" d="M604.85,227.52c-.82.55-1.66,1.08-2.51,1.59a.51.51,0,0,1-.19-.4v-.66a.52.52,0,0,1,.52-.53Z"/><path class="cls-12" d="M618.43,163.24c.08.21.16.41.23.62C618.59,163.65,618.51,163.45,618.43,163.24Z"/><path class="cls-12" d="M619,164.88l0-.08,0,.08Z"/><path class="cls-12" d="M613.49,163.17a.52.52,0,0,0-.52.52v.66a.52.52,0,0,0,.52.53H619l0-.08c-.11-.31-.22-.63-.34-.94s-.15-.41-.23-.62l0-.07Z"/><path class="cls-12" d="M620.27,169.06c0-.06,0-.13,0-.2h0A1.94,1.94,0,0,1,620.27,169.06Z"/><path class="cls-12" d="M620.63,170.57c0-.16-.07-.32-.11-.48,0,.16.07.32.11.48Z"/><path class="cls-12" d="M613.49,168.86a.52.52,0,0,0-.52.53V170a.52.52,0,0,0,.52.53h7.14c0-.16-.07-.32-.11-.48-.08-.35-.16-.69-.25-1a1.94,1.94,0,0,0,0-.2Z"/><path class="cls-12" d="M621.49,175.83a1.49,1.49,0,0,1,0-.21,1.5,1.5,0,0,0,0,.22Z"/><path class="cls-12" d="M621,174.56h-7.49a.52.52,0,0,0-.52.52v.66a.52.52,0,0,0,.52.53H621a.52.52,0,0,0,.51-.43,1.5,1.5,0,0,1,0-.22l-.12-.91A.54.54,0,0,0,621,174.56Z"/><path class="cls-12" d="M613,153a.52.52,0,0,0,.38.5l-.38-.58Z"/><path class="cls-12" d="M616.21,158.3c.09.19.19.38.29.57C616.4,158.68,616.3,158.49,616.21,158.3Z"/><path class="cls-12" d="M613.49,157.47a.52.52,0,0,0-.52.53v.65a.52.52,0,0,0,.52.53h3.16l-.15-.31c-.1-.19-.2-.38-.29-.57l-.44-.83Z"/><rect class="cls-12" x="612.97" y="180.25" width="8.54" height="1.71" rx="0.53"/><rect class="cls-12" x="612.97" y="185.95" width="8.54" height="1.71" rx="0.53"/><rect class="cls-12" x="612.97" y="191.64" width="8.54" height="1.71" rx="0.53"/><rect class="cls-12" x="612.97" y="197.34" width="8.54" height="1.71" rx="0.53"/><rect class="cls-12" x="612.97" y="203.03" width="8.54" height="1.71" rx="0.53"/><rect class="cls-12" x="612.97" y="208.73" width="8.54" height="1.71" rx="0.53"/><path class="cls-12" d="M619.2,214.42c-.46.58-.94,1.15-1.43,1.71h-4.28a.52.52,0,0,1-.52-.52V215a.52.52,0,0,1,.52-.53Z"/><path class="cls-12" d="M614,220.12l-1,1v-.48a.52.52,0,0,1,.52-.52Z"/><rect class="cls-12" x="591.89" y="156.33" width="8.54" height="1.71" rx="0.53"/><rect class="cls-12" x="591.89" y="162.03" width="8.54" height="1.71" rx="0.53"/><rect class="cls-12" x="591.89" y="167.72" width="8.54" height="1.71" rx="0.53"/><path class="cls-12" d="M599.17,139.32l-.11-.07h0Z"/><path class="cls-12" d="M592.42,139.25a.52.52,0,0,0-.53.52v.66a.53.53,0,0,0,.53.53h7.49a.53.53,0,0,0,.53-.53v-.24c-.42-.3-.84-.59-1.27-.87l-.12-.07Z"/><path class="cls-12" d="M600.44,146.12v0l-.31.51A.54.54,0,0,0,600.44,146.12Z"/><path class="cls-12" d="M599.91,144.94h-7.49a.53.53,0,0,0-.53.53v.65a.53.53,0,0,0,.53.53h7.49a.54.54,0,0,0,.22-.05l.31-.51v-.62A.53.53,0,0,0,599.91,144.94Z"/><path class="cls-12" d="M599.91,152.35a.53.53,0,0,0,.53-.53v-.66a.52.52,0,0,0-.53-.52h-2.67c-.49.59-1,1.15-1.5,1.71Z"/><path class="cls-12" d="M591.89,151.16v.66a.53.53,0,0,0,.53.53h3.32c.51-.56,1-1.12,1.5-1.71h-4.82A.52.52,0,0,0,591.89,151.16Z"/><rect class="cls-12" x="591.89" y="173.42" width="8.54" height="1.71" rx="0.53"/><rect class="cls-12" x="591.89" y="179.11" width="8.54" height="1.71" rx="0.53"/><rect class="cls-12" x="591.89" y="184.81" width="8.54" height="1.71" rx="0.53"/><rect class="cls-12" x="591.89" y="190.5" width="8.54" height="1.71" rx="0.53"/><rect class="cls-12" x="591.89" y="196.2" width="8.54" height="1.71" rx="0.53"/><rect class="cls-12" x="591.89" y="201.89" width="8.54" height="1.71" rx="0.53"/><rect class="cls-12" x="591.89" y="207.59" width="8.54" height="1.71" rx="0.53"/><rect class="cls-12" x="591.89" y="213.29" width="8.54" height="1.71" rx="0.53"/><rect class="cls-12" x="591.89" y="218.98" width="8.54" height="1.71" rx="0.53"/><rect class="cls-12" x="591.89" y="224.68" width="8.54" height="1.71" rx="0.53"/><path class="cls-12" d="M590.76,149v-.65a.53.53,0,0,0-.53-.53h-5.81c-.17.56-.32,1.13-.46,1.71h6.27A.53.53,0,0,0,590.76,149Z"/><path class="cls-12" d="M590.76,154.67V154a.52.52,0,0,0-.53-.52h-6.84c0,.44,0,.88,0,1.33v.37h6.88A.52.52,0,0,0,590.76,154.67Z"/><path class="cls-12" d="M590.23,160.89a.53.53,0,0,0,.53-.53v-.65a.53.53,0,0,0-.53-.53h-3a34.84,34.84,0,0,1-3.33,1.71Z"/><path class="cls-12" d="M583.35,160.89h.51a34.84,34.84,0,0,0,3.33-1.71h-3.84Z"/><path class="cls-12" d="M590.73,137.72l-.38.36A.5.5,0,0,0,590.73,137.72Z"/><path class="cls-12" d="M590.76,143.28v-.66a.52.52,0,0,0-.53-.52H587.1c-.36.55-.7,1.12-1,1.7h4.14A.52.52,0,0,0,590.76,143.28Z"/><path class="cls-12" d="M590.23,166.58a.52.52,0,0,0,.53-.52v-.66a.52.52,0,0,0-.53-.52h-6.88v1.7Z"/><path class="cls-12" d="M590.23,172.28a.53.53,0,0,0,.53-.53v-.65a.53.53,0,0,0-.53-.53h-6.88v1.71Z"/><path class="cls-12" d="M590.23,178a.52.52,0,0,0,.53-.52v-.66a.52.52,0,0,0-.53-.52h-6.88V178Z"/><path class="cls-12" d="M590.23,183.67a.53.53,0,0,0,.53-.53v-.65a.53.53,0,0,0-.53-.53h-6.88v1.71Z"/><path class="cls-12" d="M590.23,189.37a.53.53,0,0,0,.53-.53v-.66a.52.52,0,0,0-.53-.52h-6.88v1.71Z"/><path class="cls-12" d="M590.23,195.06a.53.53,0,0,0,.53-.53v-.65a.53.53,0,0,0-.53-.53h-6.88v1.71Z"/><path class="cls-12" d="M590.23,200.76a.53.53,0,0,0,.53-.53v-.66a.52.52,0,0,0-.53-.52h-6.88v1.71Z"/><path class="cls-12" d="M590.23,206.45a.53.53,0,0,0,.53-.53v-.65a.53.53,0,0,0-.53-.53h-6.88v1.71Z"/><path class="cls-12" d="M590.23,212.15a.53.53,0,0,0,.53-.53V211a.52.52,0,0,0-.53-.52h-6.88v1.71Z"/><path class="cls-12" d="M590.23,217.84a.53.53,0,0,0,.53-.53v-.65a.53.53,0,0,0-.53-.53h-6.88v1.71Z"/><path class="cls-12" d="M590.23,223.54a.53.53,0,0,0,.53-.53v-.66a.52.52,0,0,0-.53-.52h-6.88v1.71Z"/><path class="cls-12" d="M590.23,229.23a.53.53,0,0,0,.53-.52v-.66a.53.53,0,0,0-.53-.53h-6.88v1.71Z"/><path class="cls-3" d="M92.62,193.37V186H85.28V156.68h7.34v-7.34H122v7.34h7.34V186H122v7.34Zm22-7.34V156.68H100V186Z"/><path class="cls-3" d="M151.32,193.37V186H144V156.68h7.34v-7.34h29.35v7.34H188V186h-7.34v7.34Zm22-7.34V156.68H158.66V186Z"/><path class="cls-3" d="M210,171.36V156.68H224.7v14.68Zm0,22V178.69H224.7v14.68Z"/><path class="cls-3" d="M290.73,193.37V178.69h7.34v-7.33h14.68V156.68H298.07v-7.34h29.35v7.34h7.34v14.68h-7.34v7.33H312.75V186h22v7.34Zm0-29.35v-7.34h7.34V164Z"/><path class="cls-3" d="M356.77,193.37V186h-7.33V156.68h7.33v-7.34h29.35v7.34h-22V164h22v7.34h7.34V186h-7.34v7.34Zm22-7.34V171.36H364.11V186Z"/><g class="cls-13"><polygon class="cls-14" points="-76.25 1035.79 -389.96 754.6 -250.54 377.84 171.91 765 -76.25 1035.79"/><polygon class="cls-14" points="-76.25 1494.38 -389.96 1213.19 -250.54 836.43 171.91 1223.59 -76.25 1494.38"/><polygon class="cls-14" points="-62.71 1970 -382.87 1696.19 -252.26 1316.28 179.09 1693.5 -62.71 1970"/></g><polygon class="cls-15" points="851.1 2323.69 847.58 2315.34 847.96 2299.5 824.53 2285.21 817.52 2289.04 810.7 2284.88 786.61 2298.02 786.29 2311.27 778 2325.64 791.72 2349.4 804.25 2349.4 816.08 2356.61 840.17 2343.47 840.3 2337.95 851.1 2323.69"/><path class="cls-3" d="M884.51,2343.94v-14.09h7v-7h7.05v-7.05h7v-7.05h7.05v-7h14.1v7h-7v7.05h-7v14.1H898.61v7.05h-7.05v7Zm0-35.24v-7h7v7Zm7,7.05v-7.05h7.05v7.05Zm21.14,21.15v-7.05h7v7.05Zm7,7v-7h7v7Z"/><path class="cls-3" d="M947.94,2343.94v-7h-7v-28.2h7v-7h28.2v7h7.05v28.2h-7.05v7Zm21.15-7v-28.2H955v28.2Z"/><path class="cls-3" d="M997.28,2343.94v-7h21.15v-14.1h-14.1v-7.05h14.1v-7.05H997.28v-7h35.24v7h7v7.05h-7v7.05h7v14.1h-7v7Z"/><g class="cls-16"><polygon class="cls-14" points="531.03 954.59 91.13 748.62 222 370.2 651.25 746.95 531.03 954.59"/><polygon class="cls-14" points="850.34 954.59 410.45 748.62 541.31 370.2 970.57 746.95 850.34 954.59"/><polygon class="cls-17" points="351.19 746.78 84.16 746.78 84.16 509.42 217.68 420.41 351.19 509.42 351.19 746.78"/><path class="cls-18" d="M216.19,657.77c-32.91,0-62.83-25.15-66.4-57.36a68.8,68.8,0,0,0-.35,6.92,66.76,66.76,0,1,0,133.51,0,66,66,0,0,0-.36-6.92C279,632.62,249.1,657.77,216.19,657.77Z"/><path class="cls-15" d="M216.19,657.77c32.91,0,62.84-25.15,66.4-57.36,0-36.1-31.87-62.8-66.4-62.8s-66.4,26.7-66.4,62.8C153.36,632.62,183.28,657.77,216.19,657.77Z"/><path class="cls-18" d="M100.85,567.4,235.48,436.73l-17.8-43L84.16,524.26v36.08A9.84,9.84,0,0,0,100.85,567.4Z"/><rect class="cls-3" x="39.7" y="438.45" width="222.73" height="38.06" rx="10" transform="translate(581.37 674.15) rotate(135)"/><rect class="cls-3" x="171.73" y="438.45" width="222.73" height="38.06" rx="10" transform="translate(159.78 981.15) rotate(-135)"/><polygon class="cls-17" points="686.46 746.78 419.43 746.78 419.43 509.42 552.94 420.41 686.46 509.42 686.46 746.78"/><path class="cls-18" d="M551.46,657.77c-32.91,0-62.84-25.15-66.4-57.36a66,66,0,0,0-.36,6.92,66.76,66.76,0,1,0,133.52,0,68.79,68.79,0,0,0-.36-6.92C614.3,632.62,584.37,657.77,551.46,657.77Z"/><path class="cls-15" d="M551.46,657.77c32.91,0,62.84-25.15,66.4-57.36,0-36.1-31.87-62.8-66.4-62.8s-66.4,26.7-66.4,62.8C488.62,632.62,518.55,657.77,551.46,657.77Z"/><path class="cls-18" d="M436.12,567.4,570.74,436.73l-17.8-43L419.43,524.26v36.08A9.84,9.84,0,0,0,436.12,567.4Z"/><rect class="cls-3" x="374.96" y="438.45" width="222.73" height="38.06" rx="10" transform="translate(1153.71 437.08) rotate(135)"/><rect class="cls-3" x="506.99" y="438.45" width="222.73" height="38.06" rx="10" transform="translate(732.12 1218.22) rotate(-135)"/><polygon class="cls-14" points="1083.5 1027.05 770.82 746.78 909.78 371.26 1330.85 757.14 1083.5 1027.05"/><polygon class="cls-17" points="1021.72 746.78 754.7 746.78 754.7 509.42 888.21 420.41 1021.72 509.42 1021.72 746.78"/><path class="cls-18" d="M886.73,657.77c-32.91,0-62.84-25.15-66.4-57.36a66,66,0,0,0-.36,6.92,66.76,66.76,0,1,0,133.51,0,66,66,0,0,0-.36-6.92C949.56,632.62,919.63,657.77,886.73,657.77Z"/><path class="cls-15" d="M886.73,657.77c32.9,0,62.83-25.15,66.39-57.36,0-36.1-31.86-62.8-66.39-62.8s-66.4,26.7-66.4,62.8C823.89,632.62,853.82,657.77,886.73,657.77Z"/><path class="cls-18" d="M771.38,567.4,906,436.73l-17.8-43L754.7,524.26v36.08A9.83,9.83,0,0,0,771.38,567.4Z"/><rect class="cls-3" x="710.23" y="438.45" width="222.73" height="38.06" rx="10" transform="translate(1726.04 200.01) rotate(135)"/><rect class="cls-3" x="842.26" y="438.45" width="222.73" height="38.06" rx="10" transform="translate(1304.45 1455.29) rotate(-135)"/><polygon class="cls-14" points="407.92 1496.48 88.35 1224.11 217.89 845.24 648.46 1220.49 407.92 1496.48"/><polygon class="cls-14" points="743.18 1496.48 423.61 1224.11 553.16 845.24 983.72 1220.49 743.18 1496.48"/><polygon class="cls-17" points="351.19 1225.94 84.16 1225.94 84.16 988.59 217.68 899.58 351.19 988.59 351.19 1225.94"/><path class="cls-18" d="M216.19,1136.93c-32.91,0-62.83-25.15-66.4-57.35a68.65,68.65,0,0,0-.35,6.92,66.76,66.76,0,0,0,133.51,0,65.82,65.82,0,0,0-.36-6.92C279,1111.78,249.1,1136.93,216.19,1136.93Z"/><path class="cls-15" d="M216.19,1136.93c32.91,0,62.84-25.15,66.4-57.35,0-36.11-31.87-62.81-66.4-62.81s-66.4,26.7-66.4,62.81C153.36,1111.78,183.28,1136.93,216.19,1136.93Z"/><path class="cls-18" d="M100.85,1046.56,235.48,915.9l-17.8-43L84.16,1003.42v36.09A9.83,9.83,0,0,0,100.85,1046.56Z"/><rect class="cls-3" x="39.7" y="917.61" width="222.73" height="38.06" rx="10" transform="translate(920.19 1492.14) rotate(135)"/><rect class="cls-3" x="171.73" y="917.61" width="222.73" height="38.06" rx="10" transform="translate(-179.04 1799.13) rotate(-135)"/><polygon class="cls-17" points="686.46 1225.94 419.43 1225.94 419.43 988.59 552.94 899.58 686.46 988.59 686.46 1225.94"/><path class="cls-15" d="M551.46,1136.93c32.91,0,62.84-25.15,66.4-57.35,0-36.11-31.87-62.81-66.4-62.81s-66.4,26.7-66.4,62.81C488.62,1111.78,518.55,1136.93,551.46,1136.93Z"/><path class="cls-18" d="M436.12,1046.56,570.74,915.9l-17.8-43L419.43,1003.42v36.09A9.83,9.83,0,0,0,436.12,1046.56Z"/><rect class="cls-3" x="374.96" y="917.61" width="222.73" height="38.06" rx="10" transform="translate(1492.53 1255.07) rotate(135)"/><rect class="cls-3" x="506.99" y="917.61" width="222.73" height="38.06" rx="10" transform="translate(393.3 2036.2) rotate(-135)"/><polygon class="cls-14" points="1083.5 1506.21 770.82 1225.94 909.78 850.42 1330.85 1236.31 1083.5 1506.21"/><polygon class="cls-17" points="1021.72 1225.94 754.7 1225.94 754.7 988.59 888.21 899.58 1021.72 988.59 1021.72 1225.94"/><path class="cls-18" d="M886.73,1136.93c-32.91,0-62.84-25.15-66.4-57.35a65.82,65.82,0,0,0-.36,6.92,66.76,66.76,0,0,0,133.51,0,65.82,65.82,0,0,0-.36-6.92C949.56,1111.78,919.63,1136.93,886.73,1136.93Z"/><path class="cls-15" d="M886.73,1136.93c32.9,0,62.83-25.15,66.39-57.35,0-36.11-31.86-62.81-66.39-62.81s-66.4,26.7-66.4,62.81C823.89,1111.78,853.82,1136.93,886.73,1136.93Z"/><path class="cls-18" d="M771.38,1046.56,906,915.9l-17.8-43L754.7,1003.42v36.09A9.83,9.83,0,0,0,771.38,1046.56Z"/><rect class="cls-3" x="710.23" y="917.61" width="222.73" height="38.06" rx="10" transform="translate(2064.86 1018) rotate(135)"/><rect class="cls-3" x="842.26" y="917.61" width="222.73" height="38.06" rx="10" transform="translate(965.63 2273.27) rotate(-135)"/><polygon class="cls-14" points="411.82 1980.26 92.71 1707.35 222.89 1328.69 652.82 1704.67 411.82 1980.26"/><polygon class="cls-14" points="747.09 1980.26 427.98 1707.35 558.16 1328.69 988.09 1704.67 747.09 1980.26"/><polygon class="cls-14" points="1097 1980.26 777.89 1707.35 908.07 1328.69 1338 1704.67 1097 1980.26"/><polygon class="cls-17" points="351.19 1705.11 84.16 1705.11 84.16 1467.75 217.68 1378.74 351.19 1467.75 351.19 1705.11"/><path class="cls-18" d="M216.19,1616.1c-32.91,0-62.83-25.15-66.4-57.36a68.65,68.65,0,0,0-.35,6.92,66.76,66.76,0,1,0,133.51,0,65.82,65.82,0,0,0-.36-6.92C279,1591,249.1,1616.1,216.19,1616.1Z"/><path class="cls-15" d="M216.19,1616.1c32.91,0,62.84-25.15,66.4-57.36,0-36.1-31.87-62.8-66.4-62.8s-66.4,26.7-66.4,62.8C153.36,1591,183.28,1616.1,216.19,1616.1Z"/><path class="cls-18" d="M100.85,1525.73l134.63-130.67-17.8-43L84.16,1482.58v36.09A9.84,9.84,0,0,0,100.85,1525.73Z"/><rect class="cls-3" x="39.7" y="1396.78" width="222.73" height="38.06" rx="10" transform="translate(1259.01 2310.12) rotate(135)"/><rect class="cls-3" x="171.73" y="1396.78" width="222.73" height="38.06" rx="10" transform="translate(-517.86 2617.12) rotate(-135)"/><polygon class="cls-17" points="686.46 1705.11 419.43 1705.11 419.43 1467.75 552.94 1378.74 686.46 1467.75 686.46 1705.11"/><path class="cls-18" d="M551.46,1616.1c-32.91,0-62.84-25.15-66.4-57.36a65.82,65.82,0,0,0-.36,6.92,66.76,66.76,0,0,0,133.52,0,68.64,68.64,0,0,0-.36-6.92C614.3,1591,584.37,1616.1,551.46,1616.1Z"/><path class="cls-15" d="M551.46,1616.1c32.91,0,62.84-25.15,66.4-57.36,0-36.1-31.87-62.8-66.4-62.8s-66.4,26.7-66.4,62.8C488.62,1591,518.55,1616.1,551.46,1616.1Z"/><path class="cls-18" d="M436.12,1525.73l134.62-130.67-17.8-43L419.43,1482.58v36.09A9.84,9.84,0,0,0,436.12,1525.73Z"/><rect class="cls-3" x="374.96" y="1396.78" width="222.73" height="38.06" rx="10" transform="translate(1831.35 2073.05) rotate(135)"/><rect class="cls-3" x="506.99" y="1396.78" width="222.73" height="38.06" rx="10" transform="translate(54.48 2854.19) rotate(-135)"/><polygon class="cls-17" points="1021.72 1705.11 754.7 1705.11 754.7 1467.75 888.21 1378.74 1021.72 1467.75 1021.72 1705.11"/><path class="cls-18" d="M886.73,1616.1c-32.91,0-62.84-25.15-66.4-57.36a65.82,65.82,0,0,0-.36,6.92,66.76,66.76,0,1,0,133.51,0,65.82,65.82,0,0,0-.36-6.92C949.56,1591,919.63,1616.1,886.73,1616.1Z"/><path class="cls-15" d="M886.73,1616.1c32.9,0,62.83-25.15,66.39-57.36,0-36.1-31.86-62.8-66.39-62.8s-66.4,26.7-66.4,62.8C823.89,1591,853.82,1616.1,886.73,1616.1Z"/><path class="cls-18" d="M771.38,1525.73,906,1395.06l-17.8-43L754.7,1482.58v36.09A9.83,9.83,0,0,0,771.38,1525.73Z"/><rect class="cls-3" x="710.23" y="1396.78" width="222.73" height="38.06" rx="10" transform="translate(2403.68 1835.98) rotate(135)"/><rect class="cls-3" x="842.26" y="1396.78" width="222.73" height="38.06" rx="10" transform="translate(626.81 3091.25) rotate(-135)"/><path class="cls-1" d="M600.5,1048.2c.12.21.23.42.34.63C600.73,1048.62,600.62,1048.41,600.5,1048.2Z"/><path class="cls-1" d="M598.46,1044.84l.26.39Z"/><path class="cls-1" d="M599.62,1046.68l.31.53Z"/><path class="cls-1" d="M602.23,1051.57l.21.44Z"/><path class="cls-1" d="M603.12,1053.56l.25.61Z"/><path class="cls-1" d="M606.85,1066.75l.06.34Z"/><path class="cls-1" d="M605.06,1058.89c0,.14.09.28.13.42C605.15,1059.17,605.1,1059,605.06,1058.89Z"/><path class="cls-1" d="M578.43,1004.6a34.86,34.86,0,0,1-8.38,15.31,41.45,41.45,0,0,0,1.76-12,43,43,0,0,0-.41-5.94A68.16,68.16,0,0,1,578.43,1004.6Z"/><path class="cls-1" d="M595.23,1040.4l.32.4Z"/><path class="cls-1" d="M607.49,1107.66V1075c0-.58,0-1.15,0-1.72,0-.22,0-.44,0-.65,0-.41,0-.82-.07-1.23,0-.24,0-.47-.05-.71,0-.41-.07-.81-.11-1.22a1.49,1.49,0,0,1,0-.21,1.49,1.49,0,0,0,0-.21l0-.22c-.06-.58-.14-1.17-.22-1.74l-.06-.34q-.11-.76-.24-1.5c-.05-.22-.09-.44-.13-.67s-.15-.76-.23-1.13a1,1,0,0,1,0-.17l-.12-.53-.27-1.13-.06-.22-.1-.42c-.15-.56-.3-1.12-.47-1.67,0-.14-.09-.28-.13-.42-.13-.43-.27-.86-.41-1.29-.07-.19-.14-.39-.2-.58l0-.08c-.12-.35-.24-.69-.37-1s-.17-.45-.26-.68l0-.08c-.12-.32-.25-.64-.38-1l-.26-.62c-.22-.52-.45-1-.68-1.55l-.22-.45c-.12-.27-.25-.53-.38-.8-.06-.11-.11-.23-.17-.35s-.21-.41-.32-.62l-.48-.91,0-.05-.34-.63-.57-1-.31-.53-.9-1.45c-.09-.13-.18-.26-.26-.39l-.35-.54-.11-.15-.06-.08-.15-.22h0l0-.07-.38-.54-.66-.92-.39-.53-.76-1-.33-.4-.27-.34c-.27-.34-.55-.67-.84-1a3.27,3.27,0,0,0-.24-.27l-.93-1-.39-.42c-.28-.3-.57-.6-.86-.89l-.39-.4c-.33-.34-.67-.66-1-1l-.26-.25-.5-.47-.15-.14-.19-.17-.18-.16-.3-.27-.19-.16-1.17-1-.36-.29-.54-.44a40.86,40.86,0,0,0,3.32-20.8,69.32,69.32,0,0,1,17.72,96.76Z"/><path class="cls-1" d="M607.49,1075v32.66h0V1075Z"/><path class="cls-1" d="M592.55,1037.32l.39.42Z"/><path class="cls-1" d="M596.31,1041.78l.39.53Z"/><path class="cls-1" d="M597.36,1043.23c.13.18.26.35.38.53C597.62,1043.58,597.49,1043.41,597.36,1043.23Z"/><path class="cls-1" d="M503.15,1034.33a32.19,32.19,0,0,1-13.15.08,70.15,70.15,0,0,1,6.92-10.18A40.13,40.13,0,0,0,503.15,1034.33Z"/><path class="cls-1" d="M488.58,1074.54a22.54,22.54,0,0,0,14.18,20.93c.37-.37.76-.72,1.15-1.06v24.89a69.36,69.36,0,0,1-16-80.88,40.47,40.47,0,0,0,16,8.81v6A22.55,22.55,0,0,0,488.58,1074.54Z"/><path class="cls-1" d="M512.05,1025.31a31.71,31.71,0,0,1-11.09-5.59,69.69,69.69,0,0,1,10.74-9A40.41,40.41,0,0,0,512.05,1025.31Z"/><path class="cls-1" d="M528.3,1002.44a33.11,33.11,0,0,1-5.33,18.25h0a32.18,32.18,0,0,1-7.37-12.42A68.42,68.42,0,0,1,528.3,1002.44Z"/><path class="cls-1" d="M565.24,1052.9v82.93l-.31.07V1053Z"/><path class="cls-1" d="M607.31,1070.69c0,.23,0,.47.05.71C607.34,1071.16,607.33,1070.92,607.31,1070.69Z"/><path class="cls-1" d="M607.2,1069.47c0-.14,0-.28,0-.42v0C607.17,1069.2,607.18,1069.34,607.2,1069.47Z"/><path class="cls-1" d="M606.25,1063.45a1.36,1.36,0,0,1,0-.17h0A1.36,1.36,0,0,0,606.25,1063.45Z"/><path class="cls-1" d="M607.43,1072.62l0,.66Z"/><path class="cls-1" d="M604.65,1057.6c-.07-.19-.13-.39-.2-.58h0C604.52,1057.21,604.58,1057.41,604.65,1057.6Z"/><path class="cls-1" d="M605.77,1061.4c0-.14-.07-.28-.11-.42,0,.14.07.28.1.42Z"/><path class="cls-1" d="M606.48,1064.58l.12.67Z"/><path class="cls-1" d="M590,1034.8l.25.24Z"/><path class="cls-1" d="M591.3,1036l.39.4Z"/><path class="cls-5" d="M582.5,1028.85l-.31-.19.31.19Z"/><path class="cls-5" d="M577.4,1025.88l.6.31Z"/><path class="cls-5" d="M579,1026.71l.66.38Z"/><path class="cls-5" d="M584.06,1029.92l.39.28Z"/><path class="cls-5" d="M585.52,1031l.42.32Z"/><path class="cls-5" d="M575.83,1025.1a24.84,24.84,0,0,0-2.25,1.85,24.84,24.84,0,0,1,2.25-1.85Z"/><path class="cls-5" d="M580.51,1027.61l.64.38Z"/><path class="cls-5" d="M494.1,1012.8a40.75,40.75,0,0,0,3.13,12.18,40.23,40.23,0,0,0,6.17,10l-.25.06,0,.05a32.11,32.11,0,0,1-12.88,0,33.28,33.28,0,0,1-8.12-2.76,41.36,41.36,0,0,0,6.05,6.77,40.57,40.57,0,0,0,16,8.81v-1.57a25.65,25.65,0,0,1,1.54-8.81l-.22-.24a26.36,26.36,0,0,1,1.5-3.29l.36-.11a26.11,26.11,0,0,1,5.24-6.66c-.1-.41-.2-.82-.28-1.24a31.76,31.76,0,0,1-11.1-5.59A33.09,33.09,0,0,1,494.1,1012.8Z"/><path class="cls-5" d="M590.07,1011.65a39.25,39.25,0,0,0-11.71-24.3,33.88,33.88,0,0,1,.38,18,34.75,34.75,0,0,1-8.39,15.31c0,.05,0,.1,0,.14l0,0a.52.52,0,0,1,.06-.16,41.87,41.87,0,0,0,1.35-18,40.7,40.7,0,0,0-11-22.5,38.77,38.77,0,0,0-17-10.37,33.76,33.76,0,0,1,6.6,9.75,34.32,34.32,0,0,1,3,14,35.18,35.18,0,0,1-.51,5.94c-.13.76-.29,1.52-.47,2.27a40.92,40.92,0,0,1,.89,7.09,40.92,40.92,0,0,0-.89-7.09h0c-.17-.77-.36-1.54-.57-2.3h0a41.9,41.9,0,0,0-4-9.59,41.34,41.34,0,0,0-7.79-9.79h0a39.79,39.79,0,0,0-36.11-9.75,33.88,33.88,0,0,1,18.63,13.48c.53.77,1,1.56,1.5,2.38a34.21,34.21,0,0,1,4.59,16.93,33.11,33.11,0,0,1-5.33,18.25,25.63,25.63,0,0,1,6.82-.91h22a55.81,55.81,0,0,1,7.59.52c2,.28,5.79.89,8.78,1.51l-.15.14,1.2.37-.08.24a54,54,0,0,1,6.36,2.54,2.43,2.43,0,0,0-.25.2l.2.1.36-.3c.53.25,1.06.51,1.57.78l.6.31,1,.52.66.38.9.52.63.38,1,.67.31.19.12.09,1.4,1,0,0,.38.29,1.08.79.42.32.51.39A40.74,40.74,0,0,0,590.07,1011.65Z"/><path class="cls-5" d="M514.46,1002.56a41.09,41.09,0,0,0-2.45,8.9,40.41,40.41,0,0,0,.35,14.6c.44.12.88.24,1.32.34a25.85,25.85,0,0,1,9.55-5,32.26,32.26,0,0,1-7.37-12.43A32.61,32.61,0,0,1,514.46,1002.56Z"/><path class="cls-5" d="M512.05,1025.31c.09.42.18.83.28,1.24q.51-.46,1-.9C512.93,1025.55,512.49,1025.43,512.05,1025.31Z"/><polygon class="cls-6" points="522.96 1020.69 522.93 1020.7 522.94 1020.72 522.96 1020.69"/><path class="cls-6" d="M524.68,1047.4l.72.15a3.88,3.88,0,0,1-.31-.26Z"/><path class="cls-6" d="M569.48,1022.56c-.45-.16-.92-.3-1.39-.44a53.68,53.68,0,0,0-8.35-1.82,55.81,55.81,0,0,0-7.59-.52h-22a25.57,25.57,0,0,0-6.82.91h0l0,0v0a25.7,25.7,0,0,0-9.55,5q-.54.43-1.05.9a26.08,26.08,0,0,0-5.23,6.66,25.47,25.47,0,0,0-1.65,3.64,25.89,25.89,0,0,0-1.54,8.81v7.53A22.53,22.53,0,0,1,534,1074.54c0,.36,0,.71,0,1.07a22.34,22.34,0,0,1-5.12,13.26,20.07,20.07,0,0,1-1.52,1.67,22.47,22.47,0,0,0-22.52,3.42l-.54.45v24.89a69.39,69.39,0,0,0,61,16.6V1046a25.82,25.82,0,0,1,10.58-20.87A54.17,54.17,0,0,0,569.48,1022.56ZM525,1047.4l.41-.11.31.26Zm24,19a6.89,6.89,0,1,1,5.82-10.55h0a6.88,6.88,0,0,1-5.83,10.55Z"/><path class="cls-19" d="M511.11,1052a22.53,22.53,0,0,0-8.35,43.46c.37-.37.76-.72,1.15-1.06l.53-.45a22.54,22.54,0,0,1,27.61-18.79c.53.13,1.05.27,1.56.44,0-.36,0-.71,0-1.07A22.53,22.53,0,0,0,511.11,1052Z"/><path class="cls-8" d="M504.44,1094a22.46,22.46,0,0,1,2.67-7.9,22.46,22.46,0,0,0-2.67,7.9,22.56,22.56,0,0,1,22.53-3.42h0a22.56,22.56,0,0,0-22.53,3.42Z"/><path class="cls-8" d="M533.61,1075.61a22.38,22.38,0,0,1-5.13,13.27,22.38,22.38,0,0,0,5.13-13.27c-.51-.17-1-.31-1.56-.44C532.58,1075.3,533.1,1075.44,533.61,1075.61Z"/><path class="cls-9" d="M527,1090.54a21.53,21.53,0,0,0,1.51-1.66,21.53,21.53,0,0,1-1.51,1.66Z"/><path class="cls-9" d="M526.75,1074.54a22.55,22.55,0,0,1,5.3.63,22.52,22.52,0,0,0-24.94,10.89A22.49,22.49,0,0,1,526.75,1074.54Z"/><path class="cls-9" d="M532.05,1075.17A22.56,22.56,0,0,0,504.44,1094a22.56,22.56,0,0,1,22.53-3.42,21.53,21.53,0,0,0,1.51-1.66,22.38,22.38,0,0,0,5.13-13.27C533.1,1075.44,532.58,1075.3,532.05,1075.17Z"/><path class="cls-10" d="M543,1055.61a6.88,6.88,0,1,0,11.48.25A38.14,38.14,0,0,1,543,1055.61Z"/><path class="cls-10" d="M548.66,1052.64a6.87,6.87,0,0,0-5.66,3,38.14,38.14,0,0,0,11.48.25A6.86,6.86,0,0,0,548.66,1052.64Z"/><path class="cls-11" d="M599.93,1047.21l.57,1Z"/><path class="cls-11" d="M591.69,1036.43c.29.29.58.59.86.89C592.27,1037,592,1036.72,591.69,1036.43Z"/><path class="cls-11" d="M590.29,1035c.34.33.68.65,1,1C591,1035.69,590.63,1035.37,590.29,1035Z"/><path class="cls-11" d="M595.55,1040.8l.76,1Z"/><path class="cls-11" d="M607.45,1073.28c0-.22,0-.44,0-.65,0-.41,0-.82-.07-1.23,0-.24,0-.47-.05-.71,0-.41-.07-.81-.11-1.22a1.49,1.49,0,0,1,0-.21,1.37,1.37,0,0,1,0-.19.58.58,0,0,1-.56.46h-8.23a.58.58,0,0,1-.58-.57v-.72a.58.58,0,0,1,.58-.58h8.23a.56.56,0,0,1,.4.16l-.09-.73-.06-.34q-.11-.76-.24-1.5c-.05-.22-.09-.44-.13-.67s-.15-.76-.23-1.13a1,1,0,0,1,0-.17h-7.84a.58.58,0,0,1-.58-.58V1062a.58.58,0,0,1,.58-.58h7.39l-.1-.42c-.15-.56-.3-1.12-.47-1.67,0-.14-.09-.28-.13-.42-.13-.43-.27-.86-.41-1.29-.07-.19-.14-.39-.2-.58h-6.08a.58.58,0,0,1-.58-.58v-.72a.58.58,0,0,1,.58-.58h5.39c-.12-.32-.25-.64-.38-1l-.26-.62c-.22-.52-.45-1-.68-1.55l-.22-.45c-.12-.27-.25-.53-.38-.8h-3.47a.58.58,0,0,1-.58-.58v-.72a.58.58,0,0,1,.58-.58h2.5l0-.05-.34-.63-.57-1-.31-.53-.9-1.45c-.09-.13-.18-.26-.26-.39s-.16-.25-.25-.37a.58.58,0,0,1-.42-.55v-.08l0-.07-.38-.54-.66-.92-.39-.53-.76-1-.33-.4-.27-.34a.48.48,0,0,1-.24.06h-8.23a.58.58,0,0,1-.58-.58v-.72a.58.58,0,0,1,.58-.58h6.9l-.44-.5-.39-.42c-.28-.3-.57-.6-.86-.89l-.39-.4c-.33-.34-.67-.66-1-1l-.26-.25-.5-.47-.15-.14-.19-.17-.18-.16h-2.53a.58.58,0,0,1-.58-.58v-.36c-.19.4-.39.79-.6,1.19-.4.78-.84,1.53-1.28,2.27v0a.58.58,0,0,1-.33.52,42.37,42.37,0,0,1-3.18,4.44h2.93a.58.58,0,0,1,.58.58v.72a.58.58,0,0,1-.58.58h-4.58a40.61,40.61,0,0,1-9.4,7.51h3.34a.58.58,0,0,1,.58.58v.72a.58.58,0,0,1-.58.58h-7l-.57.26V1057h7.56a.58.58,0,0,1,.58.58v.72a.58.58,0,0,1-.58.57h-7.56v4.39h7.56a.58.58,0,0,1,.58.57v.72a.59.59,0,0,1-.58.59h-7.56v4.37h7.56a.58.58,0,0,1,.58.58v.73a.58.58,0,0,1-.58.57h-7.56v4.38h7.56a.59.59,0,0,1,.58.58v.72a.58.58,0,0,1-.58.58h-7.56v4.38h7.56a.58.58,0,0,1,.58.58v.72a.58.58,0,0,1-.58.58h-7.56v4.38h7.56a.58.58,0,0,1,.58.58v.72a.58.58,0,0,1-.58.58h-7.56v4.38h7.56a.58.58,0,0,1,.58.58v.72a.59.59,0,0,1-.58.58h-7.56v4.38h7.56a.58.58,0,0,1,.58.57v.73a.58.58,0,0,1-.58.58h-7.56v4.38h7.56a.58.58,0,0,1,.58.58v.72a.58.58,0,0,1-.58.57h-7.56v4.39h7.56a.58.58,0,0,1,.58.57v.72a.58.58,0,0,1-.58.58h-7.56v4.38h7.56a.58.58,0,0,1,.58.58v.73a.58.58,0,0,1-.58.57h-7.56v4.38h7.56a.58.58,0,0,1,.58.58v.72a.58.58,0,0,1-.58.58h-7.56v4.38h7.56a.58.58,0,0,1,.58.58v.72a.32.32,0,0,1,0,.14,68.22,68.22,0,0,0,6.61-2.69h-4.75a.58.58,0,0,1-.58-.58v-.72a.58.58,0,0,1,.58-.58h8.23a.53.53,0,0,1,.18,0c.84-.46,1.67-.94,2.49-1.43a.55.55,0,0,1-.21-.44v-.72a.58.58,0,0,1,.58-.58h2.39a67.23,67.23,0,0,0,5.92-4.4l-.08,0h-8.23a.58.58,0,0,1-.58-.57v-.73a.58.58,0,0,1,.58-.58h8.23a.58.58,0,0,1,.57.58v.73a.51.51,0,0,1,0,.17c.87-.73,1.71-1.48,2.54-2.25v-.53a.59.59,0,0,1,.58-.58H599c1.43-1.39,2.81-2.86,4.12-4.37h-4.7a.58.58,0,0,1-.58-.58v-.72a.58.58,0,0,1,.58-.58h6.27c1-1.23,1.94-2.51,2.85-3.81V1075C607.48,1074.42,607.47,1073.85,607.45,1073.28ZM584,1124a.58.58,0,0,1-.58.58h-8.23a.58.58,0,0,1-.58-.58v-.72a.57.57,0,0,1,.58-.57h8.23a.57.57,0,0,1,.58.57Zm0-6.26a.58.58,0,0,1-.58.58h-8.23a.58.58,0,0,1-.58-.58v-.72a.59.59,0,0,1,.58-.58h8.23a.59.59,0,0,1,.58.58Zm0-6.25a.57.57,0,0,1-.58.57h-8.23a.57.57,0,0,1-.58-.57v-.73a.57.57,0,0,1,.58-.57h8.23a.57.57,0,0,1,.58.57Zm0-6.27a.58.58,0,0,1-.58.58h-8.23a.58.58,0,0,1-.58-.58v-.71a.58.58,0,0,1,.58-.58h8.23a.58.58,0,0,1,.58.58Zm0-6.25a.57.57,0,0,1-.58.57h-8.23a.57.57,0,0,1-.58-.57v-.72a.58.58,0,0,1,.58-.58h8.23a.58.58,0,0,1,.58.58Zm0-6.26a.58.58,0,0,1-.58.58h-8.23a.58.58,0,0,1-.58-.58V1092a.58.58,0,0,1,.58-.58h8.23a.58.58,0,0,1,.58.58Zm0-6.26a.58.58,0,0,1-.58.58h-8.23a.58.58,0,0,1-.58-.58v-.72a.58.58,0,0,1,.58-.58h8.23a.58.58,0,0,1,.58.58Zm0-6.26a.58.58,0,0,1-.58.58h-8.23a.58.58,0,0,1-.58-.58v-.72a.58.58,0,0,1,.58-.58h8.23a.58.58,0,0,1,.58.58Zm0-6.26a.58.58,0,0,1-.58.58h-8.23a.58.58,0,0,1-.58-.58v-.72a.57.57,0,0,1,.58-.57h8.23a.57.57,0,0,1,.58.57Zm0-6.26a.58.58,0,0,1-.58.58h-8.23a.58.58,0,0,1-.58-.58V1067a.58.58,0,0,1,.58-.58h8.23a.58.58,0,0,1,.58.58Zm0-6.25a.57.57,0,0,1-.58.57h-8.23a.57.57,0,0,1-.58-.57v-.73a.58.58,0,0,1,.58-.57h8.23a.58.58,0,0,1,.58.57Zm0-6.26a.59.59,0,0,1-.58.58h-8.23a.59.59,0,0,1-.58-.58v-.72a.58.58,0,0,1,.58-.58h8.23a.58.58,0,0,1,.58.58Zm0-6.26a.58.58,0,0,1-.58.58h-8.23a.58.58,0,0,1-.58-.58v-.72a.58.58,0,0,1,.58-.58h8.23a.58.58,0,0,1,.58.58Zm11.26,65.71a.58.58,0,0,1-.57.58h-8.23a.58.58,0,0,1-.58-.58v-.72a.58.58,0,0,1,.58-.57h8.23a.58.58,0,0,1,.57.57Zm0-6.25a.58.58,0,0,1-.57.57h-8.23a.58.58,0,0,1-.58-.57v-.72a.58.58,0,0,1,.58-.58h8.23a.58.58,0,0,1,.57.58Zm0-6.26a.58.58,0,0,1-.57.58h-8.23a.58.58,0,0,1-.58-.58v-.73a.58.58,0,0,1,.58-.57h8.23a.58.58,0,0,1,.57.57Zm0-6.26a.59.59,0,0,1-.57.58h-8.23a.59.59,0,0,1-.58-.58v-.72a.58.58,0,0,1,.58-.58h8.23a.58.58,0,0,1,.57.58Zm0-6.26a.58.58,0,0,1-.57.58h-8.23a.58.58,0,0,1-.58-.58v-.72a.58.58,0,0,1,.58-.58h8.23a.58.58,0,0,1,.57.58Zm0-6.26a.58.58,0,0,1-.57.58h-8.23a.58.58,0,0,1-.58-.58v-.72a.58.58,0,0,1,.58-.58h8.23a.58.58,0,0,1,.57.58Zm0-6.26a.58.58,0,0,1-.57.58h-8.23a.58.58,0,0,1-.58-.58v-.72a.59.59,0,0,1,.58-.58h8.23a.59.59,0,0,1,.57.58Zm0-6.25a.58.58,0,0,1-.57.57h-8.23a.58.58,0,0,1-.58-.57v-.73a.58.58,0,0,1,.58-.58h8.23a.58.58,0,0,1,.57.58Zm0-6.27a.59.59,0,0,1-.57.59h-8.23a.59.59,0,0,1-.58-.59v-.72a.58.58,0,0,1,.58-.57h8.23a.58.58,0,0,1,.57.57Zm0-6.25a.58.58,0,0,1-.57.57h-8.23a.58.58,0,0,1-.58-.57v-.72a.58.58,0,0,1,.58-.58h8.23a.58.58,0,0,1,.57.58Zm0-6.26a.58.58,0,0,1-.57.58h-8.23a.58.58,0,0,1-.58-.58v-.72a.58.58,0,0,1,.58-.58h8.23a.58.58,0,0,1,.57.58Zm0-6.26a.58.58,0,0,1-.57.58h-8.23a.58.58,0,0,1-.58-.58v-.72a.58.58,0,0,1,.58-.58h8.23a.58.58,0,0,1,.57.58Zm11.9,60.71a.59.59,0,0,1-.58.58h-8.23a.59.59,0,0,1-.58-.58v-.72a.58.58,0,0,1,.58-.58h8.23a.58.58,0,0,1,.58.58Zm0-6.26a.58.58,0,0,1-.58.58h-8.23a.58.58,0,0,1-.58-.58v-.72a.58.58,0,0,1,.58-.58h8.23a.58.58,0,0,1,.58.58Zm0-6.26a.58.58,0,0,1-.58.58h-8.23a.58.58,0,0,1-.58-.58v-.72a.58.58,0,0,1,.58-.58h8.23a.58.58,0,0,1,.58.58Zm0-6.26a.58.58,0,0,1-.58.58h-8.23a.58.58,0,0,1-.58-.58V1087a.59.59,0,0,1,.58-.58h8.23a.59.59,0,0,1,.58.58Zm0-6.25a.58.58,0,0,1-.58.57h-8.23a.58.58,0,0,1-.58-.57v-.73a.58.58,0,0,1,.58-.58h8.23a.58.58,0,0,1,.58.58Zm0-6.27a.58.58,0,0,1-.58.58h-8.23a.58.58,0,0,1-.58-.58v-.71a.58.58,0,0,1,.58-.58h8.23a.58.58,0,0,1,.58.58Z"/><path class="cls-11" d="M605.19,1059.31c.17.55.32,1.11.47,1.67C605.51,1060.42,605.36,1059.86,605.19,1059.31Z"/><path class="cls-11" d="M596.7,1042.31l.66.92Z"/><path class="cls-11" d="M602.44,1052c.23.51.46,1,.68,1.55C602.9,1053,602.67,1052.52,602.44,1052Z"/><path class="cls-11" d="M587.35,1032.43c.39.33.79.66,1.17,1C588.14,1033.09,587.74,1032.76,587.35,1032.43Z"/><path class="cls-11" d="M598.72,1045.23c.31.48.6,1,.9,1.45C599.32,1046.19,599,1045.71,598.72,1045.23Z"/><path class="cls-11" d="M604.05,1055.9c.13.35.25.69.37,1C604.3,1056.59,604.18,1056.25,604.05,1055.9Z"/><path class="cls-11" d="M607.13,1068.83c-.07-.58-.14-1.16-.22-1.74l.09.73C607.05,1068.16,607.09,1068.49,607.13,1068.83Z"/><path class="cls-11" d="M604.65,1057.6c.14.43.28.86.41,1.29C604.93,1058.46,604.79,1058,604.65,1057.6Z"/><path class="cls-11" d="M602.23,1051.57l-.56-1.16.17.35Z"/><path class="cls-11" d="M586.79,1032l.2.16-.54-.44h0Z"/><path class="cls-11" d="M586.79,1032l-.34-.27c-.05.11-.09.21-.14.31a.47.47,0,0,1,.17,0Z"/><path class="cls-11" d="M603.79,1055.22q-.19-.53-.42-1c.14.33.26.65.39,1Z"/><path class="cls-11" d="M601.35,1049.79l-.51-1,0,.05Z"/><path class="cls-11" d="M593.87,1038.78l-.93-1,.45.5Z"/><path class="cls-11" d="M595.23,1040.4c-.37-.46-.74-.9-1.12-1.34.29.33.56.67.84,1Z"/><path class="cls-11" d="M590,1034.8l-1.33-1.21.3.27Z"/><path class="cls-11" d="M607.36,1071.4c0,.41,0,.81.07,1.22C607.41,1072.21,607.39,1071.81,607.36,1071.4Z"/><polygon class="cls-11" points="565.25 1132.12 565.25 1127.74 565.25 1125.86 565.25 1121.48 565.25 1119.6 565.25 1115.22 565.25 1113.35 565.25 1108.96 565.25 1107.09 565.25 1102.71 565.25 1100.83 565.25 1096.45 565.25 1094.57 565.25 1090.19 565.25 1088.31 565.25 1083.93 565.25 1082.05 565.25 1077.67 565.25 1075.79 565.25 1071.41 565.25 1069.54 565.25 1065.15 565.25 1063.28 565.25 1058.89 565.25 1057.02 565.25 1052.89 565.24 1052.9 565.24 1135.83 565.25 1135.83 565.25 1134 565.25 1132.12"/><path class="cls-11" d="M605.82,1061.62l.27,1.13Z"/><path class="cls-11" d="M607.2,1069.47c0,.41.08.81.11,1.22C607.28,1070.28,607.24,1069.88,607.2,1069.47Z"/><path class="cls-11" d="M607.46,1073.28c0,.57,0,1.14,0,1.72C607.49,1074.42,607.48,1073.85,607.46,1073.28Z"/><path class="cls-11" d="M606.25,1063.45c.08.38.15.75.23,1.13C606.4,1064.2,606.33,1063.83,606.25,1063.45Z"/><path class="cls-11" d="M606.6,1065.25c.09.5.18,1,.25,1.5C606.78,1066.24,606.69,1065.75,606.6,1065.25Z"/><path class="cls-11" d="M598.21,1044.47l.25.37-.72-1.08a.56.56,0,0,0,0,.08Z"/><path class="cls-11" d="M565.24,1052.64V1046c0-.5,0-1,0-1.47a25.26,25.26,0,0,1,.63-4.38c.14-.63.31-1.26.5-1.88a26.44,26.44,0,0,1,1.83-4.38c.35-.64.72-1.27,1.11-1.88a26.16,26.16,0,0,1,3.58-4.41l.41-.4.23-.22a25.81,25.81,0,0,0-8.34,19v6.94h0Z"/><path class="cls-11" d="M575.83,1025.1h0c.53.25,1,.51,1.57.78C576.88,1025.61,576.36,1025.35,575.83,1025.1Z"/><path class="cls-11" d="M584.45,1030.2c.36.26.72.52,1.07.79C585.17,1030.72,584.81,1030.46,584.45,1030.2Z"/><path class="cls-11" d="M565.24,1052.89l.57-.25h-.57Z"/><path class="cls-11" d="M572.94,1027.57a26.16,26.16,0,0,0-3.58,4.41h3.44a.58.58,0,0,1,.58.58v.72a.58.58,0,0,1-.58.58h-4.55a26.44,26.44,0,0,0-1.83,4.38h6.38a.58.58,0,0,1,.58.58v.72a.58.58,0,0,1-.58.58h-6.88a25.26,25.26,0,0,0-.63,4.38h7.51a.58.58,0,0,1,.58.58v.72a.58.58,0,0,1-.58.58h-7.56v4.38h4.22a40.61,40.61,0,0,0,9.4-7.51h-3.65a.58.58,0,0,1-.58-.58V1042a.58.58,0,0,1,.58-.58h5.29a39.63,39.63,0,0,0,3.18-4.44.48.48,0,0,1-.24.06h-8.23a.58.58,0,0,1-.58-.58v-.72a.58.58,0,0,1,.58-.58h8.23a.58.58,0,0,1,.58.58v.69c.45-.74.88-1.49,1.28-2.27.21-.4.41-.8.6-1.19v-.36a.56.56,0,0,1,.41-.54c.05-.1.09-.2.14-.31l-.51-.4-.42-.32c-.35-.27-.71-.53-1.07-.79l-.39-.28,0,0v.26a.58.58,0,0,1-.58.58h-8.23a.58.58,0,0,1-.58-.58v-.72a.58.58,0,0,1,.58-.58h7.29l-.31-.19c-.34-.23-.69-.45-1-.67l-.64-.38c-.29-.18-.59-.35-.89-.52l-.66-.38-1-.52-.6-.31c-.52-.27-1-.53-1.57-.78a24.84,24.84,0,0,0-2.25,1.85l-.23.22A.56.56,0,0,1,572.94,1027.57Z"/><path class="cls-11" d="M581.15,1028c.35.22.7.44,1,.67C581.85,1028.43,581.5,1028.21,581.15,1028Z"/><path class="cls-11" d="M578,1026.19l1,.52Z"/><path class="cls-11" d="M584.06,1029.92c-.47-.34-.95-.67-1.43-1,.47.31.93.63,1.39,1Z"/><path class="cls-11" d="M586.45,1031.7l-.51-.39.51.4Z"/><path class="cls-11" d="M579.62,1027.09c.3.17.6.34.89.52C580.22,1027.43,579.92,1027.26,579.62,1027.09Z"/><rect class="cls-12" x="585.9" y="1050.76" width="9.39" height="1.88" rx="0.58"/><rect class="cls-12" x="585.9" y="1057.02" width="9.39" height="1.88" rx="0.58"/><rect class="cls-12" x="585.9" y="1063.28" width="9.39" height="1.88" rx="0.58"/><path class="cls-12" d="M587,1032.14l.36.29Z"/><path class="cls-12" d="M588.52,1033.43l.19.16Z"/><path class="cls-12" d="M586.48,1032a.47.47,0,0,0-.17,0c-.13.3-.27.6-.41.9v.36a.58.58,0,0,0,.58.58H589l-.3-.27-.19-.16c-.38-.34-.78-.67-1.17-1l-.36-.29-.2-.16Z"/><path class="cls-12" d="M585.9,1032.56v.36c.14-.3.28-.6.41-.9A.56.56,0,0,0,585.9,1032.56Z"/><path class="cls-12" d="M593.87,1038.78l.24.28Z"/><path class="cls-12" d="M586.48,1038.24a.58.58,0,0,0-.58.58v.72a.58.58,0,0,0,.58.58h8.23a.53.53,0,0,0,.24-.06c-.28-.33-.55-.67-.84-1l-.24-.28-.48-.54Z"/><rect class="cls-12" x="585.9" y="1044.5" width="9.39" height="1.88" rx="0.58"/><rect class="cls-12" x="585.9" y="1069.54" width="9.39" height="1.88" rx="0.58"/><rect class="cls-12" x="585.9" y="1075.79" width="9.39" height="1.88" rx="0.58"/><rect class="cls-12" x="585.9" y="1082.05" width="9.39" height="1.88" rx="0.58"/><rect class="cls-12" x="585.9" y="1088.31" width="9.39" height="1.88" rx="0.58"/><rect class="cls-12" x="585.9" y="1094.57" width="9.39" height="1.88" rx="0.58"/><rect class="cls-12" x="585.9" y="1100.83" width="9.39" height="1.88" rx="0.58"/><rect class="cls-12" x="585.9" y="1107.09" width="9.39" height="1.88" rx="0.58"/><rect class="cls-12" x="585.9" y="1113.35" width="9.39" height="1.88" rx="0.58"/><path class="cls-12" d="M595.25,1121.08a.58.58,0,0,1-.46.38Z"/><path class="cls-12" d="M595.29,1120.9v-.72a.58.58,0,0,0-.58-.58h-8.23a.58.58,0,0,0-.58.58v.72a.58.58,0,0,0,.58.58h8.31l.46-.39A.53.53,0,0,0,595.29,1120.9Z"/><path class="cls-12" d="M588.87,1125.86q-1.35.9-2.76,1.74a.55.55,0,0,1-.21-.44v-.72a.58.58,0,0,1,.58-.58Z"/><path class="cls-12" d="M603.79,1055.22c.09.23.17.46.26.68C604,1055.68,603.88,1055.45,603.79,1055.22Z"/><path class="cls-12" d="M604.45,1057l0-.08,0,.08Z"/><path class="cls-12" d="M598.37,1055.14a.58.58,0,0,0-.58.58v.72a.58.58,0,0,0,.58.58h6.08l0-.08c-.12-.35-.24-.69-.37-1s-.17-.45-.26-.68l0-.08Z"/><path class="cls-12" d="M605.82,1061.62a2.25,2.25,0,0,1-.05-.22h0Z"/><path class="cls-12" d="M606.21,1063.28l-.12-.53.12.53Z"/><path class="cls-12" d="M598.37,1061.4a.58.58,0,0,0-.58.58v.72a.58.58,0,0,0,.58.58h7.84l-.12-.53-.27-1.13-.06-.22Z"/><path class="cls-12" d="M607.16,1069.05l0-.22,0,.24Z"/><path class="cls-12" d="M606.6,1067.66h-8.23a.58.58,0,0,0-.58.58v.72a.59.59,0,0,0,.58.58h8.23a.59.59,0,0,0,.56-.47l0-.24c0-.34-.08-.67-.13-1A.56.56,0,0,0,606.6,1067.66Z"/><path class="cls-12" d="M597.79,1043.92a.58.58,0,0,0,.42.55l-.42-.63Z"/><path class="cls-12" d="M601.35,1049.79c.11.21.21.42.32.62C601.56,1050.21,601.46,1050,601.35,1049.79Z"/><path class="cls-12" d="M598.37,1048.88a.58.58,0,0,0-.58.58v.72a.58.58,0,0,0,.58.58h3.47l-.17-.35c-.11-.2-.21-.41-.32-.62l-.48-.91Z"/><rect class="cls-12" x="597.79" y="1073.92" width="9.39" height="1.88" rx="0.58"/><rect class="cls-12" x="597.79" y="1080.17" width="9.39" height="1.88" rx="0.58"/><rect class="cls-12" x="597.79" y="1086.43" width="9.39" height="1.88" rx="0.58"/><rect class="cls-12" x="597.79" y="1092.69" width="9.39" height="1.88" rx="0.58"/><rect class="cls-12" x="597.79" y="1098.95" width="9.39" height="1.88" rx="0.58"/><rect class="cls-12" x="597.79" y="1105.21" width="9.39" height="1.88" rx="0.58"/><path class="cls-12" d="M604.64,1111.47c-.51.63-1,1.26-1.57,1.88h-4.7a.58.58,0,0,1-.58-.58v-.72a.58.58,0,0,1,.58-.58Z"/><path class="cls-12" d="M599,1117.72c-.39.38-.77.75-1.16,1.11v-.53a.59.59,0,0,1,.58-.58Z"/><rect class="cls-12" x="574.63" y="1047.63" width="9.39" height="1.88" rx="0.58"/><rect class="cls-12" x="574.63" y="1053.89" width="9.39" height="1.88" rx="0.58"/><rect class="cls-12" x="574.63" y="1060.15" width="9.39" height="1.88" rx="0.58"/><path class="cls-12" d="M582.63,1028.94l-.13-.09h0Z"/><path class="cls-12" d="M575.21,1028.85a.58.58,0,0,0-.58.58v.72a.58.58,0,0,0,.58.58h8.23a.58.58,0,0,0,.58-.58v-.26c-.46-.32-.92-.64-1.39-1l-.13-.09Z"/><path class="cls-12" d="M584,1036.41v0c-.11.18-.22.37-.34.55A.57.57,0,0,0,584,1036.41Z"/><path class="cls-12" d="M583.44,1035.11h-8.23a.58.58,0,0,0-.58.58v.72a.58.58,0,0,0,.58.58h8.23a.48.48,0,0,0,.24-.06c.12-.18.23-.37.34-.55v-.69A.58.58,0,0,0,583.44,1035.11Z"/><path class="cls-12" d="M583.44,1043.25a.58.58,0,0,0,.58-.58V1042a.58.58,0,0,0-.58-.58H580.5c-.53.65-1.08,1.27-1.64,1.88Z"/><path class="cls-12" d="M574.63,1042v.72a.58.58,0,0,0,.58.58h3.65c.56-.61,1.11-1.23,1.64-1.88h-5.29A.58.58,0,0,0,574.63,1042Z"/><rect class="cls-12" x="574.63" y="1066.41" width="9.39" height="1.88" rx="0.58"/><rect class="cls-12" x="574.63" y="1072.66" width="9.39" height="1.88" rx="0.58"/><rect class="cls-12" x="574.63" y="1078.92" width="9.39" height="1.88" rx="0.58"/><rect class="cls-12" x="574.63" y="1085.18" width="9.39" height="1.88" rx="0.58"/><rect class="cls-12" x="574.63" y="1091.44" width="9.39" height="1.88" rx="0.58"/><rect class="cls-12" x="574.63" y="1097.7" width="9.39" height="1.88" rx="0.58"/><rect class="cls-12" x="574.63" y="1103.96" width="9.39" height="1.88" rx="0.58"/><rect class="cls-12" x="574.63" y="1110.22" width="9.39" height="1.88" rx="0.58"/><rect class="cls-12" x="574.63" y="1116.47" width="9.39" height="1.88" rx="0.58"/><rect class="cls-12" x="574.63" y="1122.73" width="9.39" height="1.88" rx="0.58"/><path class="cls-12" d="M573.38,1039.54v-.72a.58.58,0,0,0-.58-.58h-6.38c-.19.62-.36,1.25-.5,1.88h6.88A.58.58,0,0,0,573.38,1039.54Z"/><path class="cls-12" d="M573.38,1045.8v-.72a.58.58,0,0,0-.58-.58h-7.51c0,.49,0,1,0,1.47v.41h7.56A.58.58,0,0,0,573.38,1045.8Z"/><path class="cls-12" d="M572.8,1052.64a.58.58,0,0,0,.58-.58v-.72a.58.58,0,0,0-.58-.58h-3.34c-1.19.69-2.41,1.31-3.65,1.88Z"/><path class="cls-12" d="M565.24,1052.64h.57c1.24-.57,2.46-1.19,3.65-1.88h-4.22Z"/><path class="cls-12" d="M573.35,1027.17l-.41.4A.56.56,0,0,0,573.35,1027.17Z"/><path class="cls-12" d="M573.38,1033.28v-.72a.58.58,0,0,0-.58-.58h-3.44c-.39.61-.76,1.24-1.11,1.88h4.55A.58.58,0,0,0,573.38,1033.28Z"/><path class="cls-12" d="M572.8,1058.9a.59.59,0,0,0,.58-.58v-.72a.58.58,0,0,0-.58-.58h-7.56v1.88Z"/><path class="cls-12" d="M572.8,1065.15a.58.58,0,0,0,.58-.57v-.72a.58.58,0,0,0-.58-.58h-7.56v1.87Z"/><path class="cls-12" d="M572.8,1071.41a.58.58,0,0,0,.58-.58v-.72a.58.58,0,0,0-.58-.57h-7.56v1.87Z"/><path class="cls-12" d="M572.8,1077.67a.58.58,0,0,0,.58-.58v-.72a.58.58,0,0,0-.58-.58h-7.56v1.88Z"/><path class="cls-12" d="M572.8,1083.93a.58.58,0,0,0,.58-.58v-.72a.58.58,0,0,0-.58-.58h-7.56v1.88Z"/><path class="cls-12" d="M572.8,1090.19a.58.58,0,0,0,.58-.58v-.72a.58.58,0,0,0-.58-.58h-7.56v1.88Z"/><path class="cls-12" d="M572.8,1096.45a.58.58,0,0,0,.58-.58v-.72a.58.58,0,0,0-.58-.58h-7.56v1.88Z"/><path class="cls-12" d="M572.8,1102.71a.58.58,0,0,0,.58-.58v-.72a.58.58,0,0,0-.58-.58h-7.56v1.88Z"/><path class="cls-12" d="M572.8,1109a.58.58,0,0,0,.58-.57v-.72a.58.58,0,0,0-.58-.58h-7.56V1109Z"/><path class="cls-12" d="M572.8,1115.22a.58.58,0,0,0,.58-.58v-.72a.58.58,0,0,0-.58-.57h-7.56v1.87Z"/><path class="cls-12" d="M572.8,1121.48a.58.58,0,0,0,.58-.58v-.72a.58.58,0,0,0-.58-.58h-7.56v1.88Z"/><path class="cls-12" d="M572.8,1127.74a.58.58,0,0,0,.58-.58v-.72a.58.58,0,0,0-.58-.58h-7.56v1.88Z"/><path class="cls-18" d="M551.46,1136.93c-32.91,0-62.84-25.15-66.4-57.35a65.82,65.82,0,0,0-.36,6.92,66.76,66.76,0,0,0,133.52,0,68.64,68.64,0,0,0-.36-6.92C614.3,1111.78,584.37,1136.93,551.46,1136.93Z"/><path class="cls-1" d="M913.69,1483.18a35,35,0,0,1-8.38,15.32,42,42,0,0,0,1.34-18A69.75,69.75,0,0,1,913.69,1483.18Z"/><path class="cls-1" d="M838.41,1512.92a32,32,0,0,1-13.15.07,70.05,70.05,0,0,1,6.92-10.17A40.49,40.49,0,0,0,838.41,1512.92Z"/><path class="cls-1" d="M823.84,1553.13A22.52,22.52,0,0,0,838,1574.05c.37-.36.75-.71,1.15-1v24.89a69.37,69.37,0,0,1-16-80.89,40.49,40.49,0,0,0,16,8.82v6A22.53,22.53,0,0,0,823.84,1553.13Z"/><path class="cls-1" d="M847.31,1503.89a31.71,31.71,0,0,1-11.09-5.59,69.69,69.69,0,0,1,10.74-9A40.4,40.4,0,0,0,847.31,1503.89Z"/><path class="cls-1" d="M863.56,1481a33.16,33.16,0,0,1-5.33,18.25h0a32.09,32.09,0,0,1-7.37-12.43A68.38,68.38,0,0,1,863.56,1481Z"/><path class="cls-5" d="M917.76,1507.44l-.31-.2.31.2Z"/><path class="cls-5" d="M912.66,1504.46l.59.32Z"/><path class="cls-5" d="M914.21,1505.3l.67.37Z"/><path class="cls-5" d="M919.32,1508.5l.39.28Z"/><path class="cls-5" d="M920.78,1509.57l.42.33Z"/><path class="cls-5" d="M911.09,1503.68a28.72,28.72,0,0,0-2.25,1.85,28.72,28.72,0,0,1,2.25-1.85Z"/><path class="cls-5" d="M915.77,1506.2l.64.38Z"/><path class="cls-20" d="M829.36,1491.39a40.9,40.9,0,0,0,3.13,12.18,40.17,40.17,0,0,0,6.17,10l-.25.07,0,0a32.11,32.11,0,0,1-12.88,0,33.25,33.25,0,0,1-8.12-2.75,40.89,40.89,0,0,0,22,15.58V1525a25.94,25.94,0,0,1,1.54-8.81c-.07-.07-.13-.16-.21-.23a23.86,23.86,0,0,1,1.5-3.29l.36-.12a25.89,25.89,0,0,1,5.24-6.65c-.1-.41-.2-.83-.28-1.25a31.76,31.76,0,0,1-11.1-5.59A33.24,33.24,0,0,1,829.36,1491.39Z"/><path class="cls-20" d="M925.33,1490.24a39.22,39.22,0,0,0-11.71-24.3,33.85,33.85,0,0,1,.38,18,34.47,34.47,0,0,1-2.86,7.52,35,35,0,0,1-5.53,7.8s0,.09,0,.14h0a.47.47,0,0,1,.06-.15,41.48,41.48,0,0,0,1.77-12,42.89,42.89,0,0,0-.42-5.93,40.73,40.73,0,0,0-11-22.51,38.85,38.85,0,0,0-17-10.36,34,34,0,0,1,6.6,9.75,34.44,34.44,0,0,1,3,14,35.09,35.09,0,0,1-.51,5.94q-.2,1.15-.48,2.28a39.76,39.76,0,0,1,.9,7.09,40.7,40.7,0,0,0-.9-7.09h0c-.16-.77-.35-1.54-.56-2.3h0a41.71,41.71,0,0,0-11.8-19.39h0a39.79,39.79,0,0,0-36.11-9.74,33.91,33.91,0,0,1,18.63,13.48c.53.76,1,1.56,1.5,2.38a34.19,34.19,0,0,1,4.59,16.93,33.16,33.16,0,0,1-5.33,18.25,25.57,25.57,0,0,1,6.82-.92h22a54.25,54.25,0,0,1,7.59.53c2,.27,5.79.88,8.78,1.5l-.15.14,1.2.38-.08.23a56.56,56.56,0,0,1,6.36,2.54l-.26.2.21.1.36-.3c.53.25,1.06.52,1.57.78l.6.32,1,.52.66.37.89.53c.22.12.43.25.64.38l1,.66.3.2.13.08,1.4,1,0,0,.38.28,1.08.79.41.33.52.39A40.85,40.85,0,0,0,925.33,1490.24Z"/><path class="cls-20" d="M849.72,1481.15a41,41,0,0,0-2.45,8.89,40.4,40.4,0,0,0,.35,14.6c.44.13.88.24,1.32.34a25.68,25.68,0,0,1,9.55-4.94,32.34,32.34,0,0,1-7.37-12.43A32.92,32.92,0,0,1,849.72,1481.15Z"/><path class="cls-5" d="M847.31,1503.89c.09.42.18.84.28,1.25.34-.31.69-.62,1-.91C848.19,1504.13,847.75,1504,847.31,1503.89Z"/><polygon class="cls-6" points="858.22 1499.28 858.19 1499.29 858.2 1499.31 858.22 1499.28"/><path class="cls-6" d="M859.94,1526l.72.15-.32-.26Z"/><path class="cls-21" d="M904.74,1501.14l-1.39-.44a54.84,54.84,0,0,0-8.35-1.81,54.25,54.25,0,0,0-7.59-.53h-22a25.57,25.57,0,0,0-6.82.92h0l0,0v0a25.53,25.53,0,0,0-9.55,4.94c-.36.29-.71.6-1.05.91a25.81,25.81,0,0,0-8.42,19.1v7.54a22.53,22.53,0,0,1,29.73,21.35c0,.35,0,.71,0,1.06a22.43,22.43,0,0,1-5.12,13.27,21.8,21.8,0,0,1-1.52,1.67,22.47,22.47,0,0,0-22.52,3.42l-.54.45v24.89A69.09,69.09,0,0,0,886.19,1616a69.9,69.9,0,0,0,14.34-1.48v-89.94a25.82,25.82,0,0,1,10.58-20.87A56,56,0,0,0,904.74,1501.14ZM884.25,1545a6.89,6.89,0,1,1,5.82-10.55h0a6.88,6.88,0,0,1-5.83,10.55Z"/><path class="cls-19" d="M846.37,1530.6a22.53,22.53,0,0,0-8.35,43.45c.37-.36.75-.71,1.15-1l.53-.46a22.54,22.54,0,0,1,27.61-18.78c.53.12,1.05.27,1.56.43,0-.35,0-.71,0-1.06A22.53,22.53,0,0,0,846.37,1530.6Z"/><path class="cls-8" d="M839.7,1572.54a22.52,22.52,0,0,1,2.66-7.9,22.52,22.52,0,0,0-2.66,7.9,22.51,22.51,0,0,1,22.53-3.41h0a22.51,22.51,0,0,0-22.53,3.41Z"/><path class="cls-8" d="M868.87,1554.19a22.38,22.38,0,0,1-5.13,13.27,22.38,22.38,0,0,0,5.13-13.27c-.51-.16-1-.31-1.56-.43C867.84,1553.89,868.36,1554,868.87,1554.19Z"/><path class="cls-9" d="M862.23,1569.13c.53-.53,1-1.09,1.51-1.67-.48.58-1,1.14-1.51,1.67Z"/><path class="cls-9" d="M862,1553.13a22.55,22.55,0,0,1,5.3.63,22.54,22.54,0,0,0-24.95,10.88A22.51,22.51,0,0,1,862,1553.13Z"/><path class="cls-9" d="M867.31,1553.76a22.53,22.53,0,0,0-27.61,18.78,22.51,22.51,0,0,1,22.53-3.41c.53-.53,1-1.09,1.51-1.67a22.38,22.38,0,0,0,5.13-13.27C868.36,1554,867.84,1553.89,867.31,1553.76Z"/><path class="cls-10" d="M878.25,1534.2a6.88,6.88,0,1,0,11.49.24A37.88,37.88,0,0,1,878.25,1534.2Z"/><path class="cls-10" d="M883.92,1531.22a6.89,6.89,0,0,0-5.67,3,37.88,37.88,0,0,0,11.49.24A6.88,6.88,0,0,0,883.92,1531.22Z"/><path class="cls-11" d="M922.05,1510.57l.2.15-.54-.43h0Z"/><path class="cls-11" d="M922.05,1510.57l-.34-.27-.14.3a.86.86,0,0,1,.17,0Z"/><polygon class="cls-11" points="900.5 1610.71 900.5 1606.33 900.5 1604.45 900.5 1600.07 900.5 1598.19 900.5 1593.81 900.5 1591.93 900.5 1587.55 900.5 1585.67 900.5 1581.29 900.5 1579.41 900.5 1575.03 900.5 1573.15 900.5 1568.77 900.5 1566.9 900.5 1562.52 900.5 1560.64 900.5 1556.26 900.5 1554.38 900.5 1550 900.5 1548.12 900.5 1543.74 900.5 1541.86 900.5 1537.48 900.5 1535.6 900.5 1531.48 900.5 1531.48 900.5 1614.42 900.5 1614.42 900.5 1612.58 900.5 1610.71"/><path class="cls-11" d="M911.09,1503.68h0c.53.25,1,.52,1.57.78C912.14,1504.2,911.62,1503.93,911.09,1503.68Z"/><path class="cls-11" d="M919.71,1508.78l1.07.79Z"/><path class="cls-11" d="M916.41,1506.58l1,.66Z"/><path class="cls-11" d="M913.25,1504.78c.33.17.65.34,1,.52C913.9,1505.12,913.58,1505,913.25,1504.78Z"/><path class="cls-11" d="M919.32,1508.5l-1.43-1c.47.31.93.63,1.39,1Z"/><path class="cls-11" d="M921.71,1510.29l-.51-.39.51.4Z"/><path class="cls-11" d="M914.88,1505.67l.89.53Z"/><path class="cls-12" d="M922.25,1510.72l.36.3Z"/><path class="cls-12" d="M921.16,1511.15v.35l.41-.9A.58.58,0,0,0,921.16,1511.15Z"/><path class="cls-12" d="M930.51,1599.67a.58.58,0,0,1-.46.38Z"/><path class="cls-12" d="M934.21,1596.31l-1.16,1.11v-.53a.58.58,0,0,1,.58-.58Z"/><path class="cls-12" d="M917.89,1507.52l-.13-.08h0Z"/><path class="cls-12" d="M908.61,1505.76l-.41.4A.56.56,0,0,0,908.61,1505.76Z"/><path class="cls-22" d="M948.05,1576.36v-13.75a65.2,65.2,0,0,0-37.28-58.93,30.42,30.42,0,0,0-12.46,24.57v86.22C920.06,1610.56,939.1,1595.94,948.05,1576.36Z"/><path class="cls-18" d="M953.12,1558.16a59.69,59.69,0,0,1-5.07,18.2c-8.95,19.58-28,34.2-49.74,38.11a65.74,65.74,0,0,1-11.59,1c-32.91,0-62.84-25.15-66.4-57.36a66,66,0,0,0-.36,6.92,66.76,66.76,0,1,0,133.51,0A68.8,68.8,0,0,0,953.12,1558.16Z"/><circle class="cls-23" cx="877.03" cy="1626.11" r="43.11"/><rect class="cls-3" x="873.91" y="1583" width="6.41" height="20.43"/><rect class="cls-3" x="847.38" y="1632.86" width="6.41" height="20.43" transform="translate(1540.15 -73.81) rotate(49.25)"/><rect class="cls-3" x="902.85" y="1632.86" width="6.41" height="20.43" transform="translate(-969.92 1606.21) rotate(-60)"/></g><polygon class="cls-24" points="570.67 2082.84 540.57 2102.97 427.42 1984.58 457.52 1964.46 570.67 2082.84"/><ellipse class="cls-25" cx="442.63" cy="1974.7" rx="18.18" ry="8.11" transform="matrix(0.85, -0.52, 0.52, 0.85, -960.11, 516.04)"/><polygon class="cls-24" points="540.91 2092.61 571.01 2112.73 692.79 1985.31 662.69 1965.19 540.91 2092.61"/><rect class="cls-24" x="540.45" y="2076.16" width="38.53" height="172.84" transform="translate(1119.44 4325.15) rotate(180)"/><ellipse class="cls-25" cx="677.58" cy="1975.43" rx="8.11" ry="18.18" transform="translate(-1362.78 1530.03) rotate(-58.75)"/><path class="cls-26" d="M470.11,1979.51c.48,1.55-.06,0-.11-1.3,0,.43.06.86.05,1.29a31.07,31.07,0,0,1-.24,3.33c-.19,1.59.43-3,.16-1.21-.06.37-.11.73-.17,1.1-.13.8-.28,1.6-.43,2.39-.34,1.8-.73,3.6-1.15,5.39-2.36,10.26-5.34,20.39-8.36,30.47-4.12,13.8-8.45,27.53-12.82,41.25q-7.56,23.81-15.18,47.58-8,25.17-15.77,50.4c-4.95,16.21-9.76,32.47-14.26,48.81-3.94,14.27-7.66,28.61-10.78,43.08-2.5,11.62-4.72,23.43-5.58,35.3-.56,7.75-.73,16.66,3.2,23.64a15,15,0,0,0,9.43,7.32c4.25,1,8.06,0,11.89-1.86a47.33,47.33,0,0,0,8.76-6c3.16-2.5,6.14-5.21,9-8,8.07-7.77,15.59-16.12,22.94-24.58,9.57-11,18.83-22.32,27.92-33.73q16.44-20.64,32.28-41.73,16.38-21.7,32.3-43.74t31.58-44.47q14.61-21,28.85-42.22Q616,2053.55,628,2034.75c6.17-9.76,12.25-19.6,18-29.65,3.86-6.79,7.69-13.71,10.43-21a18.35,18.35,0,0,0,1.41-6.87c-.19-4.58-3.91-9-8.78-8.78-4.6.21-9,3.86-8.78,8.78,0,1.16-.46,1.89.25-1.39-.08.37-.14.75-.23,1.11a24.61,24.61,0,0,1-1,2.9c-.1.26-.2.52-.31.78-.69,1.75,1-2.35.47-1.09l-.89,2q-1,2.25-2.19,4.46c-4.34,8.52-9.24,16.75-14.2,24.91-6.9,11.35-14.06,22.55-21.32,33.67q-13.19,20.19-26.83,40.08-15,21.9-30.35,43.52-15.74,22.15-31.87,44-7.95,10.77-16,21.46-3.91,5.19-7.86,10.36c-1.29,1.7-2.59,3.39-3.89,5.09l-1.89,2.45-1,1.28.78-1c-.2.26-.4.51-.59.77q-14.54,18.78-29.6,37.12c-8.27,10-16.69,19.85-25.52,29.34-6.18,6.64-12.55,13.27-19.67,18.92l-.51.4c-.5.41,2.33-1.77,1.17-.91l-1,.73c-.6.44-1.2.86-1.82,1.27a30.6,30.6,0,0,1-3.28,1.89c-.82.41-2.17.72,1.35-.55l-.71.28c-.43.15-.87.24-1.31.36-1.35.36,2.88-.21,1.74-.23-.21,0-.42,0-.62,0s-.49-.07-.71,0,3,.57,1.94.25c-.13,0-.26,0-.39-.08a4.49,4.49,0,0,0-.59-.19c1.43.35,2.5,1.28,1.38.54a4.62,4.62,0,0,0-.55-.35c-.38-.17,2.08,1.81,1.44,1.11-.07-.09-.18-.15-.26-.24s-.31-.35-.47-.5c-.75-.73,1.65,2.44.84,1.07-.26-.45-.52-.9-.76-1.37-.68-1.34,1,2.75.51,1.19-.1-.3-.21-.59-.31-.9-.19-.64-.35-1.29-.49-1.95-.07-.35-.13-.7-.19-1.05l-.09-.57a14.84,14.84,0,0,0,.22,1.63c-.09-.85-.17-1.69-.22-2.54a80,80,0,0,1,.34-12.19c.12-1.23.25-2.46.39-3.68l.21-1.73.12-1c.14-1.06-.4,3-.15,1.14.39-2.72.81-5.44,1.28-8.16,2.29-13.22,5.39-26.3,8.72-39.3,4-15.64,8.41-31.17,13-46.64,4.91-16.64,10-33.21,15.23-49.76q7.71-24.53,15.58-49c4.73-14.77,9.45-29.54,14.05-44.36,3.65-11.75,7.24-23.52,10.47-35.4,2.22-8.16,4.38-16.4,5.32-24.83a18.52,18.52,0,0,0-.38-7.49c-1.38-4.38-6.18-7.63-10.8-6.14-4.4,1.43-7.61,6.11-6.13,10.8Z"/><rect class="cls-3" x="-20" y="2279.41" width="302" height="215.59" rx="31.75"/><path class="cls-27" d="M40.32,2375.25v-38.69h6.45V2343h6.45v6.45h6.45V2343h6.45v-6.45H79v38.69H66.12v-19.34H59.67v6.45H53.22v-6.45H46.77v19.34Z"/><path class="cls-27" d="M91.92,2375.25v-38.69h38.7V2343h-25.8v6.45h19.35v6.45H104.82v12.9h25.8v6.44Z"/><path class="cls-27" d="M143.52,2375.25v-38.69H150V2343h6.45v6.45h6.45v6.45h6.45v-19.35h12.9v38.69h-12.9v-6.44h-6.45v-6.45h-6.45v-6.45H150v19.34Z"/><path class="cls-27" d="M195.12,2368.81v-32.25h6.45v32.25Zm6.45,6.44v-6.44h12.9v-6.45h6.45v-25.8h12.9v32.25h-6.45v6.44Z"/></svg>