<svg id="Calque_1" data-name="Calque 1" xmlns="http://www.w3.org/2000/svg" viewBox="0 0 1125 2436"><defs><style>.cls-1,.cls-3{fill:#ffae00;}.cls-1{stroke:#fff;stroke-miterlimit:10;stroke-width:0.25px;}.cls-2{fill:#e02229;}.cls-4{fill:#f1f1f1;}.cls-5{fill:#4c4c4c;}.cls-6{fill:none;}.cls-7{fill:#fff;}.cls-8{fill:#00b2ae;}.cls-9{fill:#ffcc97;}.cls-10{fill:#2db17e;}.cls-11{fill:#ffb777;}.cls-12{fill:#303030;}</style></defs><title>Plan de travail 2</title><rect class="cls-1" x="0.32" y="0.32" width="1124.36" height="2435.01"/><rect class="cls-2" x="130.36" y="1209.1" width="864.28" height="158.27" rx="31.75"/><rect class="cls-2" x="130.36" y="1428.66" width="864.28" height="158.27" rx="31.75"/><rect class="cls-2" x="130.36" y="1648.23" width="864.28" height="158.27" rx="31.75"/><rect class="cls-2" x="130.36" y="1867.79" width="864.28" height="158.27" rx="31.75"/><path class="cls-3" d="M190.1,1308.41v-37.24h6.21v6.2h6.2v6.21h6.21v6.21h6.21v-18.62h12.41v37.24H214.93v-6.21h-6.21V1296h-6.21v-6.2h-6.2v18.62Z"/><path class="cls-3" d="M246,1308.41v-6.21h-6.21v-24.83H246v-6.2h24.83v6.2H277v24.83h-6.2v6.21Zm18.62-6.21v-24.83H252.17v24.83Z"/><path class="cls-3" d="M289.41,1302.2v-31h6.2v31Zm6.2,6.21v-6.21H308V1296h6.2v-24.82h12.42v31h-6.21v6.21Z"/><path class="cls-3" d="M339.06,1296v-24.82h6.21V1296Zm6.21,6.21V1296h6.2v6.21Zm6.2,6.21v-6.21h6.21V1296h6.21v-24.82H376.3V1296h-6.21v6.21h-6.2v6.21Z"/><path class="cls-3" d="M388.71,1308.41v-37.24H426v6.2H401.13v6.21h18.62v6.21H401.13v12.41H426v6.21Z"/><path class="cls-3" d="M438.37,1308.41v-37.24h12.41v31h24.83v6.21Z"/><path class="cls-3" d="M488,1308.41v-37.24h12.41v31h24.83v6.21Z"/><path class="cls-3" d="M537.67,1308.41v-37.24h37.24v6.2H550.09v6.21h18.62v6.21H550.09v12.41h24.82v6.21Z"/><path class="cls-3" d="M612.15,1308.41v-37.24h31v6.2h6.2v12.42h-6.2v6.2H624.57v12.42ZM637,1289.79v-12.42H624.57v12.42Z"/><path class="cls-3" d="M661.81,1308.41v-31H668v12.42h12.42v-12.42H668v-6.2h24.83v6.2h6.21v31H680.43V1296H668v12.42Z"/><path class="cls-3" d="M711.46,1308.41v-37.24h31v6.2h6.21v12.42h-6.21v6.2h-6.2v6.21h-6.21V1296h-6.21v12.42Zm24.83-18.62v-12.42H723.87v12.42Zm0,18.62v-6.21H748.7v6.21Z"/><path class="cls-3" d="M773.53,1308.41v-31H761.11v-6.2h37.24v6.2H785.94v31Z"/><path class="cls-3" d="M817,1308.41v-6.21h6.21v-24.83H817v-6.2H841.8v6.2h-6.21v24.83h6.21v6.21Z"/><path class="cls-3" d="M860.42,1308.41v-37.24h37.24v6.2H872.83v6.21h18.62v6.21H872.83v12.41h24.83v6.21Z"/><path class="cls-3" d="M326.65,1530.3v-37.24h31v6.2h6.21v12.42h-6.21v6.2h-6.21v6.21h-6.2v-6.21h-6.21v12.42Zm24.82-18.62v-12.42H339.06v12.42Zm0,18.62v-6.21h12.42v6.21Z"/><path class="cls-3" d="M376.3,1530.3v-37.24h37.24v6.2H388.71v6.21h18.62v6.21H388.71v12.41h24.83v6.21Z"/><path class="cls-3" d="M426,1530.3v-37.24h31v6.2h6.2v12.42H457v6.2H438.37v12.42Zm24.83-18.62v-12.42H438.37v12.42Z"/><path class="cls-3" d="M475.61,1530.3v-37.24h31v6.2h6.21v12.42h-6.21v6.2h-6.21v6.21h-6.2v-6.21H488v12.42Zm24.82-18.62v-12.42H488v12.42Zm0,18.62v-6.21h12.42v6.21Z"/><path class="cls-3" d="M525.26,1530.3v-37.24H562.5v6.2H537.67v6.21h18.62v6.21H537.67v12.41H562.5v6.21Z"/><path class="cls-3" d="M574.91,1530.3v-37.24h6.21v6.2h6.21v6.21h6.2v6.21h6.21v-18.62h12.41v37.24H599.74v-6.21h-6.21v-6.21h-6.2v-6.2h-6.21v18.62Z"/><path class="cls-3" d="M624.57,1530.3v-37.24h31v6.2h6.21v24.83H655.6v6.21Zm18.62-6.21v-24.83H630.77v24.83Z"/><path class="cls-3" d="M674.22,1530.3v-37.24h31v6.2h6.21v12.42h-6.21v6.2h-6.2v6.21h-6.21v-6.21h-6.21v12.42Zm24.83-18.62v-12.42H686.63v12.42Zm0,18.62v-6.21h12.41v6.21Z"/><path class="cls-3" d="M723.87,1530.3v-37.24h37.24v6.2H736.29v6.21h18.62v6.21H736.29v12.41h24.82v6.21Z"/><path class="cls-3" d="M270.79,1753.73v-6.2H277V1722.7h-6.2v-6.2h24.82v6.2h-6.2v24.83h6.2v6.2Z"/><path class="cls-3" d="M314.23,1753.73V1716.5h6.21v6.2h6.21v6.21h6.2v6.2h6.21V1716.5h12.41v37.23H339.06v-6.2h-6.21v-6.21h-6.2v-6.21h-6.21v18.62Z"/><path class="cls-3" d="M370.09,1753.73v-6.2h12.42v-12.42H370.09v-6.2h-6.2v-6.21h6.2v-6.2h24.83v6.2H376.3v6.21h18.62v6.2h6.21v12.42h-6.21v6.2Zm-6.2-6.2v-6.21h6.2v6.21Z"/><path class="cls-3" d="M426,1753.73v-31H413.54v-6.2h37.24v6.2H438.37v31Z"/><path class="cls-3" d="M463.19,1753.73V1716.5h31v6.2h6.2v12.41h-6.2v6.21H488v6.21h-6.21v-6.21h-6.2v12.41ZM488,1735.11V1722.7H475.61v12.41Zm0,18.62v-6.2h12.41v6.2Z"/><path class="cls-3" d="M512.85,1747.53v-31h6.2v31Zm6.2,6.2v-6.2h12.42v-6.21h6.2V1716.5h12.42v31h-6.21v6.2Z"/><path class="cls-3" d="M568.71,1753.73v-6.2H562.5V1722.7h6.21v-6.2h24.82v6.2h6.21v6.21H587.33v-6.21H574.91v24.83h12.42v-6.21h12.41v6.21h-6.21v6.2Z"/><path class="cls-3" d="M624.57,1753.73v-31H612.15v-6.2h37.24v6.2H637v31Z"/><path class="cls-3" d="M668,1753.73v-6.2h6.21V1722.7H668v-6.2h24.83v6.2h-6.21v24.83h6.21v6.2Z"/><path class="cls-3" d="M717.67,1753.73v-6.2h-6.21V1722.7h6.21v-6.2h24.82v6.2h6.21v24.83h-6.21v6.2Zm18.62-6.2V1722.7H723.87v24.83Z"/><path class="cls-3" d="M761.11,1753.73V1716.5h6.21v6.2h6.21v6.21h6.2v6.2h6.21V1716.5h12.41v37.23H785.94v-6.2h-6.21v-6.21h-6.2v-6.21h-6.21v18.62Z"/><path class="cls-3" d="M817,1753.73v-6.2h12.42v-12.42H817v-6.2h-6.2v-6.21H817v-6.2H841.8v6.2H823.18v6.21H841.8v6.2H848v12.42H841.8v6.2Zm-6.2-6.2v-6.21H817v6.21Z"/><path class="cls-3" d="M444.57,1971v-6.21H457v-12.41H444.57v-6.21h-6.2v-6.21h6.2v-6.2H469.4v6.2H450.78v6.21H469.4v6.21h6.21v12.41H469.4V1971Zm-6.2-6.21v-6.21h6.2v6.21Z"/><path class="cls-3" d="M494.23,1971v-6.21H488v-24.83h6.21v-6.2h24.82v6.2h6.21v6.21H512.85v-6.21H500.43v24.83h12.42v-6.21h12.41v6.21h-6.21V1971Z"/><path class="cls-3" d="M543.88,1971v-6.21h-6.21v-24.83h6.21v-6.2h24.83v6.2h6.2v24.83h-6.2V1971Zm18.62-6.21v-24.83H550.09v24.83Z"/><path class="cls-3" d="M587.33,1971v-37.24h31v6.2h6.21v12.42h-6.21v6.2h-6.21v6.21H606v-6.21h-6.21V1971Zm24.82-18.62v-12.42H599.74v12.42Zm0,18.62v-6.21h12.42V1971Z"/><path class="cls-3" d="M637,1971v-37.24h37.24v6.2H649.39v6.21H668v6.21H649.39v12.41h24.83V1971Z"/><g id="LOGO"><path class="cls-4" d="M641.3,904.24a242.23,242.23,0,0,1-24.14,6.52v-6.52Z"/><path class="cls-4" d="M660.23,1048.67h0l.37.42C660.46,1049,660.33,1048.81,660.23,1048.67Z"/><path class="cls-4" d="M626.49,990.24c-.07-.22-.16-.43-.23-.64h0Z"/><path class="cls-4" d="M660.58,1049.09l-.37-.42h0C660.33,1048.81,660.46,1049,660.58,1049.09Z"/><path class="cls-5" d="M682.39,886.6q-6.37,3.45-13,6.53H652.54a2.05,2.05,0,0,1-2-2v-2.55a2.05,2.05,0,0,1,2-2.06h29.23A1.8,1.8,0,0,1,682.39,886.6Z"/><path class="cls-2" d="M321.22,540.91a146,146,0,0,0,21.5,24q3.46-7.26,7.33-14.23A118.79,118.79,0,0,1,321.22,540.91Zm42.29-69.58a145.72,145.72,0,0,0,11.11,43.23q6.79-8.34,14.32-16A117.8,117.8,0,0,1,363.51,471.33ZM435.78,435a145.81,145.81,0,0,0-8.69,31.58q6.69-4.53,13.68-8.64A117,117,0,0,1,435.78,435Zm268.45,32.27A139.42,139.42,0,0,0,662.63,381,120,120,0,0,1,664,444.85,246,246,0,0,1,704.23,467.24ZM563.3,353.39h-.8a322.93,322.93,0,0,0-36.06,2h0a320,320,0,0,0-62,13.26q2.82,4.08,5.33,8.46A121.75,121.75,0,0,1,486,437.2a246.14,246.14,0,0,1,79.16-13c1.06,0,2.1,0,3.16,0h0c1.24,0,2.46,0,3.7.09a244.73,244.73,0,0,1,67,11.17,144.38,144.38,0,0,0-38.89-79.9A328.8,328.8,0,0,0,563.3,353.39Z"/><path class="cls-6" d="M742.32,599.66c.42.74.82,1.49,1.22,2.23C743.14,601.15,742.74,600.4,742.32,599.66Z"/><path class="cls-6" d="M735.09,587.73c.3.46.61.91.91,1.38C735.7,588.64,735.39,588.19,735.09,587.73Z"/><path class="cls-6" d="M739.19,594.24c.38.63.74,1.26,1.11,1.89C739.93,595.5,739.57,594.87,739.19,594.24Z"/><path class="cls-6" d="M748.45,611.6c.25.52.51,1,.75,1.56C749,612.64,748.7,612.12,748.45,611.6Z"/><path class="cls-6" d="M751.64,618.7c.31.71.59,1.44.89,2.16C752.23,620.14,752,619.41,751.64,618.7Z"/><path class="cls-6" d="M764.88,665.49c.06.41.13.81.19,1.21C765,666.3,764.94,665.9,764.88,665.49Z"/><path class="cls-6" d="M758.52,637.61c.15.49.31,1,.46,1.47C758.83,638.59,758.67,638.1,758.52,637.61Z"/><path class="cls-6" d="M664,444.85a123.37,123.37,0,0,1-29.76,54.38,147.3,147.3,0,0,0,6.27-42.7A149.16,149.16,0,0,0,639,435.47,245.06,245.06,0,0,1,664,444.85Z"/><path class="cls-6" d="M723.6,571.94c.39.48.76,1,1.14,1.45C724.36,572.91,724,572.42,723.6,571.94Z"/><path class="cls-6" d="M767.14,810.75v-116c0-2,0-4.07-.12-6.11,0-.78-.07-1.54-.09-2.32-.07-1.45-.16-2.9-.25-4.35,0-.85-.12-1.68-.18-2.51-.12-1.46-.26-2.89-.4-4.34a6.37,6.37,0,0,1-.07-.74c0-.25,0-.5-.06-.75s-.07-.51-.1-.78c-.23-2.07-.5-4.14-.8-6.19-.05-.41-.12-.8-.19-1.21-.27-1.78-.55-3.55-.87-5.32-.16-.78-.3-1.56-.46-2.36-.27-1.34-.53-2.69-.82-4-.05-.21-.08-.4-.12-.62-.14-.63-.28-1.25-.43-1.87-.31-1.35-.63-2.69-1-4-.07-.25-.12-.51-.19-.78-.13-.49-.25-1-.38-1.49-.53-2-1.07-4-1.66-5.93-.14-.49-.32-1-.46-1.47-.48-1.54-1-3.06-1.47-4.58-.23-.69-.48-1.38-.71-2.07a2.91,2.91,0,0,0-.1-.28c-.43-1.24-.85-2.46-1.31-3.69-.3-.79-.6-1.61-.92-2.42,0-.09-.07-.18-.11-.28-.44-1.15-.9-2.29-1.36-3.42-.3-.73-.59-1.45-.91-2.18-.77-1.86-1.59-3.7-2.42-5.52-.25-.53-.51-1-.76-1.58-.44-1-.9-1.89-1.38-2.85-.2-.4-.39-.83-.59-1.23-.37-.75-.76-1.47-1.13-2.22-.57-1.08-1.13-2.16-1.72-3.22a.91.91,0,0,0-.08-.18l-1.23-2.23c-.65-1.18-1.34-2.35-2-3.52l-1.12-1.89c-1-1.74-2.11-3.45-3.18-5.14-.31-.47-.62-.92-.93-1.38l-1.25-1.93c-.13-.16-.25-.33-.37-.51l-.22-.32-.53-.78h0l-.19-.27c-.43-.64-.89-1.27-1.33-1.91-.78-1.1-1.56-2.18-2.35-3.26-.46-.64-.94-1.26-1.4-1.87-.89-1.17-1.79-2.34-2.69-3.47-.39-.5-.76-1-1.15-1.46s-.64-.79-1-1.18c-1-1.21-2-2.39-3-3.56-.28-.34-.57-.65-.85-1-1.1-1.26-2.2-2.48-3.31-3.7-.46-.52-.94-1-1.4-1.51-1-1.06-2-2.12-3-3.15-.46-.48-.93-1-1.39-1.43-1.19-1.19-2.38-2.34-3.58-3.49-.3-.28-.6-.58-.92-.87l-1.81-1.68c-.17-.17-.35-.33-.53-.49s-.44-.38-.65-.59a7.21,7.21,0,0,0-.66-.58l-1.06-1-.65-.56c-1.38-1.21-2.76-2.38-4.16-3.54-.43-.36-.87-.69-1.3-1-.63-.51-1.25-1-1.89-1.54a145.07,145.07,0,0,0,11.77-73.85,246.09,246.09,0,0,1,62.91,343.51Z"/><path class="cls-6" d="M767.13,694.78c0,.18,0,.35,0,.52V810.75h0V695.3C767.14,695.13,767.13,695,767.13,694.78Z"/><path class="cls-6" d="M714.09,561c.47.49.93,1,1.4,1.49C715,562,714.56,561.52,714.09,561Z"/><path class="cls-6" d="M727.44,576.86c.47.62.93,1.25,1.39,1.88C728.37,578.11,727.91,577.48,727.44,576.86Z"/><path class="cls-6" d="M731.19,582l1.34,1.9Z"/><path class="cls-6" d="M396.71,550.42a113.92,113.92,0,0,1-46.66.27,247.64,247.64,0,0,1,24.57-36.13A143.58,143.58,0,0,0,396.71,550.42Z"/><path class="cls-6" d="M345,693.16a80,80,0,0,0,50.34,74.29c1.31-1.29,2.69-2.53,4.09-3.73v88.36a246.25,246.25,0,0,1-56.7-287.16,143.67,143.67,0,0,0,56.7,31.29v21.17A80,80,0,0,0,345,693.16Z"/><path class="cls-6" d="M428.33,518.38a112.94,112.94,0,0,1-39.39-19.84,246.64,246.64,0,0,1,38.15-32A143.75,143.75,0,0,0,428.33,518.38Z"/><path class="cls-6" d="M486,437.2A117.59,117.59,0,0,1,467.07,502h0l-.13,0a114.62,114.62,0,0,1-26.16-44.12A244.81,244.81,0,0,1,486,437.2Z"/><path class="cls-6" d="M617.16,616.32V910.76c-.37.09-.73.18-1.1.25V616.8Z"/><path class="cls-6" d="M766.5,679.49c.06.84.12,1.67.18,2.52C766.62,681.16,766.56,680.33,766.5,679.49Z"/><path class="cls-6" d="M766.1,675.17c-.05-.5-.08-1-.14-1.49a.09.09,0,0,1,0,.05C766,674.21,766.05,674.69,766.1,675.17Z"/><path class="cls-6" d="M762.73,653.79c0-.21-.08-.41-.13-.62h0C762.64,653.38,762.69,653.58,762.73,653.79Z"/><path class="cls-6" d="M766.92,686.36c0,.78.08,1.55.1,2.33C767,687.91,767,687.14,766.92,686.36Z"/><path class="cls-6" d="M757.06,633c-.23-.7-.48-1.39-.71-2.07h0C756.58,631.65,756.83,632.33,757.06,633Z"/><path class="cls-6" d="M761,646.51c-.12-.5-.25-1-.38-1.5.13.5.25,1,.37,1.5Z"/><path class="cls-6" d="M763.55,657.81c.15.79.31,1.57.45,2.36C763.86,659.38,763.7,658.6,763.55,657.81Z"/><path class="cls-6" d="M705.18,552.08l.91.87Z"/><path class="cls-6" d="M709.66,556.43l1.41,1.43Z"/><path class="cls-2" d="M883.77,674.66A320.65,320.65,0,0,1,767.14,922.34c-5.47,4.53-11.1,8.85-16.87,13-3.17,2.28-6.37,4.49-9.63,6.67a321.05,321.05,0,0,1-38.83,22.21c-3.7,1.79-7.44,3.47-11.23,5.12q-7.27,3.18-14.74,6Q666.2,979,656.3,982q-8,2.43-16.2,4.44c-4.58,1.13-9.19,2.21-13.82,3.15h0l-1,.21A322.26,322.26,0,0,1,400.5,952.16C305.23,896.42,241.23,793,241.23,674.66c0-143.22,93.71-264.54,223.15-306q2.82,4.08,5.33,8.46A121.75,121.75,0,0,1,486,437.2a244.81,244.81,0,0,0-45.23,20.71,117,117,0,0,1-5-22.94,145.81,145.81,0,0,0-8.69,31.58,246.64,246.64,0,0,0-38.15,32,117.8,117.8,0,0,1-25.43-27.21,145.72,145.72,0,0,0,11.11,43.23,247.64,247.64,0,0,0-24.57,36.13,118.79,118.79,0,0,1-28.83-9.78,146,146,0,0,0,21.5,24A246.24,246.24,0,0,0,616.06,911c.37-.07.73-.16,1.1-.25a242.23,242.23,0,0,0,24.14-6.52H644a2,2,0,0,0,1.94-1.55,239.67,239.67,0,0,0,23.47-9.56q6.62-3.07,13-6.53c3-1.63,6-3.33,8.87-5.07q5-3,9.79-6.17a243.25,243.25,0,0,0,21-15.62,2,2,0,0,0,1.63-1.36c3.08-2.58,6.08-5.26,9-8q2.07-1.93,4.11-3.93c5.1-5,10-10.16,14.64-15.54,1.89-2.2,3.75-4.41,5.56-6.68q5.28-6.56,10.12-13.5a246.09,246.09,0,0,0-62.91-343.51A139.42,139.42,0,0,0,662.63,381,120,120,0,0,1,664,444.85a245.06,245.06,0,0,0-25-9.38,144.38,144.38,0,0,0-38.89-79.9C759.83,374.19,883.77,510,883.77,674.66Z"/><path class="cls-7" d="M429.32,522.81a92.46,92.46,0,0,0-18.59,23.61,109.17,109.17,0,0,1-14,4,143.58,143.58,0,0,1-22.09-35.86,145.72,145.72,0,0,1-11.11-43.23,117.8,117.8,0,0,0,25.43,27.21,112.94,112.94,0,0,0,39.39,19.84C428.63,519.87,429,521.34,429.32,522.81Z"/><path class="cls-7" d="M640.49,456.53a147.3,147.3,0,0,1-6.27,42.7c-2.6,2.74-5.31,5.36-8.12,7.82a194.2,194.2,0,0,0-29.65-6.44,196.46,196.46,0,0,0-27-1.86h-.33a144.35,144.35,0,0,0,1.2-66.38c.65-2.65,1.22-5.34,1.68-8.07a123.16,123.16,0,0,0-8.74-70.91,119.77,119.77,0,0,0-23.42-34.61,137.82,137.82,0,0,1,60.23,36.79A144.38,144.38,0,0,1,639,435.47,149.16,149.16,0,0,1,640.49,456.53Z"/><path class="cls-7" d="M404.89,559.34a91.5,91.5,0,0,0-5.47,31.28v5.59a143.67,143.67,0,0,1-56.7-31.29,146,146,0,0,1-21.5-24,118.79,118.79,0,0,0,28.83,9.78,113.92,113.92,0,0,0,46.66-.27Q400.61,555.07,404.89,559.34Z"/><path class="cls-7" d="M570.36,432.37a119.54,119.54,0,0,1-42.91,66.38H491.29A91.39,91.39,0,0,0,467.07,502,117.59,117.59,0,0,0,486,437.2a121.75,121.75,0,0,0-16.29-60.09q-2.52-4.38-5.33-8.46a120.45,120.45,0,0,0-66.16-47.85c45.12-10.76,93.42,2.36,128.21,34.59h0a148.41,148.41,0,0,1,41.88,68.82h0C569.1,426.92,569.78,429.65,570.36,432.37Z"/><path class="cls-7" d="M527.45,498.75h41.71a144.35,144.35,0,0,0,1.2-66.38A119.54,119.54,0,0,1,527.45,498.75Z"/><path class="cls-7" d="M396.71,550.42q3.9,4.65,8.18,8.92a90.62,90.62,0,0,1,5.84-12.92A109.17,109.17,0,0,1,396.71,550.42Z"/><path class="cls-7" d="M692.46,541.09c-.6-.48-1.22-.94-1.82-1.4l-1.49-1.15q-1.89-1.41-3.81-2.79l-1.38-1c-.05,0-.08-.06-.14-.09-1.63-1.15-3.27-2.29-5-3.38-.15-.11-.3-.2-.45-.3l-1.09-.69c-1.23-.8-2.46-1.6-3.7-2.36-.75-.46-1.51-.92-2.27-1.36-1-.64-2.11-1.26-3.17-1.86-.78-.46-1.56-.9-2.35-1.33-1.13-.63-2.27-1.24-3.4-1.86l-2.12-1.11c-1.85-.94-3.7-1.88-5.58-2.76a92.53,92.53,0,0,0-8,6.56c-.28.27-.54.54-.83.8s-.49.48-.72.71c-.39.37-.78.74-1.15,1.11s-.57.55-.84.84q-1.53,1.56-3,3.16c-.62.71-1.22,1.42-1.83,2.13s-1.18,1.43-1.75,2.18-1.15,1.48-1.7,2.24-1.18,1.63-1.75,2.45-.94,1.4-1.4,2.1c-.14.22-.28.43-.4.64-.59.92-1.16,1.86-1.7,2.8-.27.42-.52.86-.77,1.31-.17.28-.33.56-.47.85s-.45.81-.66,1.22l-.48.92-.47.94c-.18.33-.34.67-.5,1l-.69,1.43a2.57,2.57,0,0,0-.19.41c-.45.95-.87,1.91-1.28,2.88a.09.09,0,0,1,0,.07c-.48,1.15-.94,2.32-1.37,3.51-.35,1-.71,1.93-1,2.92,0,0,0,0,0,.09s-.12.35-.18.55l-.26.83-.06.19c-.12.37-.23.75-.33,1.13s-.21.75-.32,1.12c0,0,0,0,0,.09l-.15.55-.06.23h0c-.17.62-.33,1.22-.47,1.84s-.34,1.38-.48,2.07c-.13.5-.23,1-.34,1.49s-.21,1-.3,1.54-.21,1.11-.3,1.68-.23,1.34-.32,2c0,.16,0,.31-.07.47,0,.32-.09.62-.12.92a8,8,0,0,0-.11.94c0,.06,0,.09,0,.13-.12.83-.21,1.68-.26,2.53a9.17,9.17,0,0,0-.11,1v.25c0,.21,0,.44-.05.67s0,.43,0,.66,0,.42,0,.65a3.13,3.13,0,0,0,0,.43c-.08,1.57-.12,3.17-.12,4.78v24.6l-1.1.48V591.72a91.68,91.68,0,0,1,37.56-74.08,196.05,196.05,0,0,0-22.58-9q1.76-4.62,3.18-9.38A123.37,123.37,0,0,0,664,444.85,120,120,0,0,0,662.63,381a139.42,139.42,0,0,1,41.6,86.27A145.07,145.07,0,0,1,692.46,541.09Z"/><path class="cls-7" d="M678.43,531c-.36-.24-.74-.46-1.1-.7l1.09.7Z"/><path class="cls-7" d="M660.32,520.41c.71.36,1.41.74,2.11,1.11C661.73,521.15,661,520.77,660.32,520.41Z"/><path class="cls-7" d="M665.84,523.37c.79.43,1.58.88,2.36,1.33C667.41,524.25,666.63,523.8,665.84,523.37Z"/><path class="cls-7" d="M684,534.74l1.38,1Z"/><path class="cls-7" d="M689.15,538.55l1.49,1.14Z"/><path class="cls-7" d="M654.74,517.64a91.14,91.14,0,0,0-8,6.57,93,93,0,0,1,8-6.57Z"/><path class="cls-7" d="M671.37,526.56c.75.45,1.51.9,2.25,1.36C672.88,527.46,672.12,527,671.37,526.56Z"/><path class="cls-7" d="M466.93,502A91.23,91.23,0,0,0,433,519.58c-1.58-.35-3.16-.76-4.71-1.2a143.75,143.75,0,0,1-1.24-51.83A145.81,145.81,0,0,1,435.78,435a117,117,0,0,0,5,22.94A114.62,114.62,0,0,0,466.93,502Z"/><path class="cls-7" d="M634.22,499.23c-2.6,2.74-5.31,5.36-8.12,7.82,1.66.5,3.31,1,4.94,1.56Q632.8,504,634.22,499.23Z"/><path class="cls-7" d="M428.33,518.38c.3,1.49.63,3,1,4.43q1.8-1.68,3.72-3.23C431.46,519.23,429.88,518.82,428.33,518.38Z"/><polygon class="cls-8" points="467.06 501.99 466.93 502.02 466.99 502.1 467.06 501.99"/><path class="cls-8" d="M616.06,616.8V911a246.55,246.55,0,0,1-216.64-58.93V763.72c.62-.55,1.26-1.1,1.89-1.61a79.91,79.91,0,0,1,80-12.15,77.43,77.43,0,0,0,5.38-5.91,79.65,79.65,0,0,0,18.2-47.1c.05-1.26.08-2.52.08-3.79a80,80,0,0,0-105.53-75.78V596.21a137.51,137.51,0,0,0,73.73.6c.85.2,1.69.38,2.56.54A135.63,135.63,0,0,0,538.18,626a24.44,24.44,0,1,0,40.78.86h0A140.54,140.54,0,0,0,616.06,616.8Z"/><path class="cls-8" d="M433,535.55q-2.16-6.27-3.7-12.74a92.46,92.46,0,0,0-18.59,23.61,111.16,111.16,0,0,0,18.16-8.37Q431,536.85,433,535.55Z"/><path class="cls-8" d="M626.1,507.05a194.2,194.2,0,0,0-29.65-6.44,196.46,196.46,0,0,0-27-1.86h-.33a140.13,140.13,0,0,1-15.95,37.88A118.45,118.45,0,0,0,626.1,507.05Z"/><path class="cls-8" d="M473.15,596.81c.85.2,1.69.38,2.56.54l-1.11-.93C474.12,596.57,473.62,596.69,473.15,596.81Z"/><path class="cls-8" d="M467,502.1a111.47,111.47,0,0,0,20.14,16.62,113.75,113.75,0,0,0,40.32-20H491.29A91.39,91.39,0,0,0,467.07,502h0Z"/><path class="cls-8" d="M399.42,590.62v5.59a137.51,137.51,0,0,0,73.73.6,137,137,0,0,1-68.26-37.47A91.5,91.5,0,0,0,399.42,590.62Z"/><path class="cls-8" d="M496.32,524.06a112.15,112.15,0,0,0,56.89,12.57,140.13,140.13,0,0,0,15.95-37.88H527.45a113.75,113.75,0,0,1-40.32,20C490.09,520.63,493.15,522.42,496.32,524.06Z"/><path class="cls-8" d="M433,535.55q-2,1.31-4.13,2.5a111.16,111.16,0,0,1-18.16,8.37,90.62,90.62,0,0,0-5.84,12.92,137,137,0,0,0,68.26,37.47c.47-.12,1-.24,1.45-.39A136.9,136.9,0,0,1,433,535.55Z"/><path class="cls-8" d="M467,502.1l-.06-.07A91.23,91.23,0,0,0,433,519.58a109.38,109.38,0,0,0,17.2,2.57A110.9,110.9,0,0,0,467,502.1Z"/><path class="cls-8" d="M501.63,599.84a135.12,135.12,0,0,1-25.92-2.49A135.63,135.63,0,0,0,538.18,626h0a24.4,24.4,0,0,1,40.78.87h0a140.54,140.54,0,0,0,37.08-10V591.72a91.68,91.68,0,0,1,37.56-74.08,196.05,196.05,0,0,0-22.58-9C610.86,562,560.52,599.84,501.63,599.84Z"/><path class="cls-8" d="M450.24,522.15a109.38,109.38,0,0,1-17.2-2.57q-1.92,1.54-3.72,3.23,1.53,6.48,3.7,12.74A109.86,109.86,0,0,0,450.24,522.15Z"/><path class="cls-8" d="M505,583.59a135.39,135.39,0,0,1-30.41,12.83l1.11.93a135.12,135.12,0,0,0,25.92,2.49c58.89,0,109.23-37.83,129.41-91.23-1.63-.55-3.28-1.06-4.94-1.56a118.45,118.45,0,0,1-72.89,29.58A135,135,0,0,1,505,583.59Z"/><path class="cls-8" d="M458.31,522.45a112.4,112.4,0,0,0,28.82-3.73A111.47,111.47,0,0,1,467,502.1a110.9,110.9,0,0,1-16.75,20C452.91,522.36,455.6,522.45,458.31,522.45Z"/><path class="cls-8" d="M450.24,522.15A109.86,109.86,0,0,1,433,535.55a136.9,136.9,0,0,0,41.58,60.87,135.47,135.47,0,0,0,78.61-59.79,112.15,112.15,0,0,1-56.89-12.57c-3.17-1.64-6.23-3.43-9.19-5.34a112.4,112.4,0,0,1-28.82,3.73C455.6,522.45,452.91,522.36,450.24,522.15Z"/><path class="cls-9" d="M345,693.17a80,80,0,0,0,50.34,74.29c1.31-1.31,2.69-2.54,4.09-3.75V617.38A80,80,0,0,0,345,693.17Z"/><path class="cls-9" d="M401.31,762.1a80,80,0,0,1,98-66.7c1.88.46,3.73,1,5.55,1.55q.09-1.87.09-3.78a80,80,0,0,0-105.54-75.79V763.71C400.05,763.17,400.67,762.62,401.31,762.1Z"/><path class="cls-10" d="M401.31,762.1a79.6,79.6,0,0,1,9.46-28.05,79.6,79.6,0,0,0-9.46,28.05,79.94,79.94,0,0,1,80-12.13h0a79.94,79.94,0,0,0-80,12.13Z"/><path class="cls-10" d="M504.87,697a79.56,79.56,0,0,1-18.21,47.11A79.56,79.56,0,0,0,504.87,697c-1.82-.58-3.67-1.09-5.55-1.55C501.2,695.86,503.05,696.37,504.87,697Z"/><path class="cls-11" d="M481.28,750c1.9-1.88,3.68-3.86,5.38-5.91-1.7,2.05-3.48,4-5.38,5.91Z"/><path class="cls-11" d="M480.52,693.17a80.3,80.3,0,0,1,18.8,2.23,80,80,0,0,0-88.55,38.65A79.91,79.91,0,0,1,480.52,693.17Z"/><path class="cls-11" d="M499.32,695.4a80,80,0,0,0-98,66.7,79.94,79.94,0,0,1,80-12.13c1.9-1.88,3.68-3.86,5.38-5.91A79.56,79.56,0,0,0,504.87,697C503.05,696.37,501.2,695.86,499.32,695.4Z"/><path class="cls-12" d="M538.18,626a24.45,24.45,0,1,0,40.78.87A135.48,135.48,0,0,1,538.18,626Z"/><path class="cls-12" d="M558.29,615.4A24.41,24.41,0,0,0,538.18,626a135.48,135.48,0,0,0,40.78.87A24.42,24.42,0,0,0,558.29,615.4Z"/><path class="cls-4" d="M740.3,596.13c.68,1.17,1.36,2.35,2,3.53C741.66,598.48,741,597.3,740.3,596.13Z"/><path class="cls-4" d="M711.07,557.86c1,1,2,2.1,3,3.17C713.09,560,712.09,558.91,711.07,557.86Z"/><path class="cls-4" d="M706.09,553q1.8,1.72,3.57,3.48Q707.89,554.67,706.09,553Z"/><path class="cls-4" d="M724.74,573.39c.91,1.15,1.81,2.3,2.7,3.47C726.55,575.69,725.65,574.54,724.74,573.39Z"/><path class="cls-4" d="M767,688.68c0-.78-.07-1.54-.09-2.32-.07-1.45-.16-2.9-.25-4.35,0-.85-.12-1.68-.18-2.51-.12-1.46-.26-2.89-.4-4.34a6.37,6.37,0,0,1-.07-.74c0-.23-.06-.47-.08-.7a2,2,0,0,1-2,1.67h-29.2a2.05,2.05,0,0,1-2.06-2v-2.55a2.06,2.06,0,0,1,2.06-2.06H764a2,2,0,0,1,1.44.59c-.11-.87-.22-1.76-.34-2.62-.05-.41-.12-.8-.19-1.21-.27-1.78-.55-3.55-.87-5.32-.16-.78-.3-1.56-.46-2.36-.27-1.34-.53-2.69-.82-4-.05-.21-.08-.4-.14-.62H734.77a2.05,2.05,0,0,1-2.06-2v-2.57a2.07,2.07,0,0,1,2.06-2H761c-.13-.49-.25-1-.38-1.49-.53-2-1.07-4-1.66-5.93-.14-.49-.32-1-.46-1.47-.48-1.54-1-3.06-1.47-4.58-.23-.69-.48-1.38-.71-2.07H734.77a2.05,2.05,0,0,1-2.06-2.05v-2.57a2.05,2.05,0,0,1,2.06-2.05H753.9c-.44-1.15-.9-2.29-1.36-3.42-.3-.73-.59-1.45-.91-2.18-.77-1.86-1.59-3.7-2.42-5.52-.25-.53-.51-1-.76-1.58-.44-1-.9-1.89-1.38-2.85h-12.3a2.07,2.07,0,0,1-2.06-2.07v-2.55a2.05,2.05,0,0,1,2.06-2h8.86a.91.91,0,0,0-.08-.18l-1.23-2.23c-.65-1.18-1.34-2.35-2-3.52l-1.12-1.89c-1-1.74-2.11-3.45-3.18-5.14-.31-.47-.62-.92-.93-1.38s-.58-.88-.88-1.32a2,2,0,0,1-1.49-1.95v-.28l-.19-.27c-.43-.64-.89-1.27-1.33-1.91-.78-1.1-1.56-2.18-2.35-3.26-.46-.64-.94-1.26-1.4-1.87-.89-1.17-1.79-2.34-2.69-3.47-.39-.5-.76-1-1.15-1.46s-.64-.79-1-1.18a2.06,2.06,0,0,1-.86.21H692.55a2.07,2.07,0,0,1-2-2.05v-2.57a2.05,2.05,0,0,1,2-2.05h24.52c-.52-.59-1.05-1.19-1.58-1.77s-.94-1-1.4-1.51c-1-1.06-2-2.12-3-3.15-.46-.48-.93-1-1.39-1.43-1.19-1.19-2.38-2.34-3.58-3.49-.3-.28-.6-.58-.92-.87l-1.81-1.68c-.17-.17-.35-.33-.53-.49s-.44-.38-.65-.59a7.21,7.21,0,0,0-.66-.58h-9a2.05,2.05,0,0,1-2-2.06v-1.29q-1,2.13-2.13,4.23c-1.43,2.76-3,5.44-4.55,8.06v.12a2,2,0,0,1-1.18,1.84,146.35,146.35,0,0,1-11.3,15.77h10.43a2.05,2.05,0,0,1,2.05,2.06V580a2.05,2.05,0,0,1-2.05,2.05H665.5a144.45,144.45,0,0,1-33.36,26.67H644a2.05,2.05,0,0,1,2,2.06v2.55a2.05,2.05,0,0,1-2,2H619.16l-2,.92V631H644a2.05,2.05,0,0,1,2,2v2.55a2.05,2.05,0,0,1-2,2.05H617.16v15.56H644a2.05,2.05,0,0,1,2,2.06v2.55a2.07,2.07,0,0,1-2,2.07H617.16v15.54H644a2.05,2.05,0,0,1,2,2.05V680a2.05,2.05,0,0,1-2,2H617.16V697.6H644a2.07,2.07,0,0,1,2,2.06v2.56a2.05,2.05,0,0,1-2,2.06H617.16v15.56H644a2.05,2.05,0,0,1,2,2v2.55a2.05,2.05,0,0,1-2,2H617.16v15.56H644a2.05,2.05,0,0,1,2,2.05v2.55a2.05,2.05,0,0,1-2,2.06H617.16v15.56H644a2.05,2.05,0,0,1,2,2.05v2.57a2.07,2.07,0,0,1-2,2.05H617.16v15.54H644a2.07,2.07,0,0,1,2,2v2.57a2.05,2.05,0,0,1-2,2H617.16v15.56H644a2.05,2.05,0,0,1,2,2.06v2.54a2.05,2.05,0,0,1-2,2.06H617.16v15.56H644a2.05,2.05,0,0,1,2,2.05v2.55a2.05,2.05,0,0,1-2,2.05H617.16v15.56H644a2.05,2.05,0,0,1,2,2.06v2.56a2.07,2.07,0,0,1-2,2.06H617.16v15.54H644a2.05,2.05,0,0,1,2,2V880a2.05,2.05,0,0,1-2,2H617.16v15.54H644a2.07,2.07,0,0,1,2,2.07v2.55a1.4,1.4,0,0,1-.11.5,239.67,239.67,0,0,0,23.47-9.56H652.54a2.05,2.05,0,0,1-2-2v-2.55a2.05,2.05,0,0,1,2-2.06h29.23a1.8,1.8,0,0,1,.62.13c3-1.63,6-3.33,8.87-5.07a2,2,0,0,1-.76-1.55v-2.57a2.05,2.05,0,0,1,2-2h8.5a243.25,243.25,0,0,0,21-15.62,1.92,1.92,0,0,1-.3.08H692.55a2.07,2.07,0,0,1-2-2.06V855.2a2.05,2.05,0,0,1,2-2.06h29.21a2.05,2.05,0,0,1,2,2.06v2.56a1.85,1.85,0,0,1-.12.62c3.08-2.58,6.08-5.26,9-8v-1.88a2.07,2.07,0,0,1,2.06-2h2.05c5.1-5,10-10.16,14.64-15.54H734.77a2.06,2.06,0,0,1-2.06-2.06v-2.56a2.06,2.06,0,0,1,2.06-2.06H757q5.28-6.56,10.12-13.5v-116C767.12,692.74,767.09,690.72,767,688.68Zm-83.2,180.18a2.05,2.05,0,0,1-2.05,2H652.54a2.05,2.05,0,0,1-2-2v-2.55a2.05,2.05,0,0,1,2-2h29.23a2.05,2.05,0,0,1,2.05,2Zm0-22.21a2.05,2.05,0,0,1-2.05,2.05H652.54a2.05,2.05,0,0,1-2-2.05v-2.57a2.06,2.06,0,0,1,2-2.05h29.23a2.06,2.06,0,0,1,2.05,2.05Zm0-22.22a2.05,2.05,0,0,1-2.05,2.05H652.54a2.05,2.05,0,0,1-2-2.05v-2.57a2.05,2.05,0,0,1,2-2.05h29.23a2.05,2.05,0,0,1,2.05,2.05Zm0-22.23a2.05,2.05,0,0,1-2.05,2H652.54a2.05,2.05,0,0,1-2-2v-2.55a2.05,2.05,0,0,1,2-2h29.23a2.05,2.05,0,0,1,2.05,2Zm0-22.22a2.05,2.05,0,0,1-2.05,2.06H652.54a2.05,2.05,0,0,1-2-2.06v-2.55a2.05,2.05,0,0,1,2-2h29.23a2.05,2.05,0,0,1,2.05,2Zm0-22.21a2.05,2.05,0,0,1-2.05,2.05H652.54a2.05,2.05,0,0,1-2-2.05v-2.55a2.07,2.07,0,0,1,2-2.07h29.23a2.07,2.07,0,0,1,2.05,2.07Zm0-22.22a2.05,2.05,0,0,1-2.05,2.06H652.54a2.05,2.05,0,0,1-2-2.06V733a2.05,2.05,0,0,1,2-2.06h29.23a2.05,2.05,0,0,1,2.05,2.06Zm0-22.21a2.07,2.07,0,0,1-2.05,2H652.54a2.07,2.07,0,0,1-2-2v-2.57a2.05,2.05,0,0,1,2-2h29.23a2.05,2.05,0,0,1,2.05,2Zm0-22.23a2.05,2.05,0,0,1-2.05,2H652.54a2.05,2.05,0,0,1-2-2v-2.55a2.06,2.06,0,0,1,2-2.06h29.23a2.06,2.06,0,0,1,2.05,2.06Zm0-22.22a2.05,2.05,0,0,1-2.05,2.06H652.54a2.05,2.05,0,0,1-2-2.06v-2.55a2.05,2.05,0,0,1,2-2.05h29.23a2.05,2.05,0,0,1,2.05,2.05Zm0-22.21a2.05,2.05,0,0,1-2.05,2.05H652.54a2.05,2.05,0,0,1-2-2.05v-2.57a2.07,2.07,0,0,1,2-2.05h29.23a2.07,2.07,0,0,1,2.05,2.05Zm0-22.22a2.07,2.07,0,0,1-2.05,2.06H652.54a2.07,2.07,0,0,1-2-2.06V621.9a2.05,2.05,0,0,1,2-2.06h29.23a2.05,2.05,0,0,1,2.05,2.06Zm0-22.23a2.05,2.05,0,0,1-2.05,2H652.54a2.05,2.05,0,0,1-2-2v-2.55a2.05,2.05,0,0,1,2-2h29.23a2.05,2.05,0,0,1,2.05,2Zm40,233.3a2.05,2.05,0,0,1-2,2.05H692.55a2.05,2.05,0,0,1-2-2.05V833a2.05,2.05,0,0,1,2-2.05h29.21a2.05,2.05,0,0,1,2,2.05Zm0-22.22a2.05,2.05,0,0,1-2,2.06H692.55a2.05,2.05,0,0,1-2-2.06v-2.54a2.05,2.05,0,0,1,2-2.06h29.21a2.05,2.05,0,0,1,2,2.06Zm0-22.21a2.05,2.05,0,0,1-2,2H692.55a2.05,2.05,0,0,1-2-2v-2.57a2.07,2.07,0,0,1,2-2h29.21a2.07,2.07,0,0,1,2,2Zm0-22.21a2.07,2.07,0,0,1-2,2.05H692.55a2.07,2.07,0,0,1-2-2.05v-2.57a2.05,2.05,0,0,1,2-2.05h29.21a2.05,2.05,0,0,1,2,2.05Zm0-22.24a2.05,2.05,0,0,1-2,2.06H692.55a2.05,2.05,0,0,1-2-2.06V744.1a2.05,2.05,0,0,1,2-2.05h29.21a2.05,2.05,0,0,1,2,2.05Zm0-22.21a2.05,2.05,0,0,1-2,2H692.55a2.05,2.05,0,0,1-2-2v-2.55a2.05,2.05,0,0,1,2-2h29.21a2.05,2.05,0,0,1,2,2Zm0-22.22a2.05,2.05,0,0,1-2,2.06H692.55a2.05,2.05,0,0,1-2-2.06v-2.56a2.07,2.07,0,0,1,2-2.06h29.21a2.07,2.07,0,0,1,2,2.06Zm0-22.21a2.05,2.05,0,0,1-2,2H692.55a2.05,2.05,0,0,1-2-2v-2.57a2.05,2.05,0,0,1,2-2.05h29.21a2.05,2.05,0,0,1,2,2.05Zm0-22.23a2.07,2.07,0,0,1-2,2.07H692.55a2.07,2.07,0,0,1-2-2.07v-2.55a2.05,2.05,0,0,1,2-2.06h29.21a2.05,2.05,0,0,1,2,2.06Zm0-22.22a2.05,2.05,0,0,1-2,2.05H692.55a2.05,2.05,0,0,1-2-2.05V633a2.05,2.05,0,0,1,2-2h29.21a2.05,2.05,0,0,1,2,2Zm0-22.21a2.05,2.05,0,0,1-2,2H692.55a2.05,2.05,0,0,1-2-2V610.8a2.05,2.05,0,0,1,2-2.06h29.21a2.05,2.05,0,0,1,2,2.06Zm0-22.22a2.05,2.05,0,0,1-2,2.06H692.55a2.05,2.05,0,0,1-2-2.06v-2.56a2.07,2.07,0,0,1,2-2.06h29.21a2.07,2.07,0,0,1,2,2.06ZM766,806.64a2.07,2.07,0,0,1-2.06,2.07h-29.2a2.07,2.07,0,0,1-2.06-2.07v-2.55a2.05,2.05,0,0,1,2.06-2.05H764a2.05,2.05,0,0,1,2.06,2.05Zm0-22.21a2.05,2.05,0,0,1-2.06,2.05h-29.2a2.05,2.05,0,0,1-2.06-2.05v-2.55a2.06,2.06,0,0,1,2.06-2.06H764a2.06,2.06,0,0,1,2.06,2.06Zm0-22.22a2.06,2.06,0,0,1-2.06,2.06h-29.2a2.06,2.06,0,0,1-2.06-2.06v-2.55a2.05,2.05,0,0,1,2.06-2H764a2.05,2.05,0,0,1,2.06,2ZM766,740a2.05,2.05,0,0,1-2.06,2h-29.2a2.05,2.05,0,0,1-2.06-2v-2.57a2.07,2.07,0,0,1,2.06-2H764a2.07,2.07,0,0,1,2.06,2Zm0-22.22a2.07,2.07,0,0,1-2.06,2.06h-29.2a2.07,2.07,0,0,1-2.06-2.06v-2.56a2.06,2.06,0,0,1,2.06-2.06H764a2.06,2.06,0,0,1,2.06,2.06Zm0-22.23A2.05,2.05,0,0,1,764,697.6h-29.2a2.05,2.05,0,0,1-2.06-2.05V693a2.05,2.05,0,0,1,2.06-2H764a2.05,2.05,0,0,1,2.06,2Z"/><path class="cls-4" d="M759,639.08q.87,2.94,1.66,5.93Q759.85,642,759,639.08Z"/><path class="cls-4" d="M728.83,578.74c.8,1.08,1.58,2.16,2.36,3.26C730.41,580.9,729.63,579.82,728.83,578.74Z"/><path class="cls-4" d="M749.2,613.16q1.26,2.75,2.44,5.54Q750.46,615.91,749.2,613.16Z"/><path class="cls-4" d="M695.64,543.68c1.41,1.16,2.79,2.34,4.16,3.53C698.43,546,697.05,544.84,695.64,543.68Z"/><path class="cls-4" d="M736,589.11q1.63,2.53,3.19,5.13Q737.63,591.65,736,589.11Z"/><path class="cls-4" d="M754.93,627c.45,1.22.89,2.44,1.31,3.67C755.82,629.44,755.38,628.22,754.93,627Z"/><path class="cls-4" d="M765.87,672.89c-.24-2.07-.5-4.14-.8-6.19.13.87.22,1.75.34,2.62C765.57,670.5,765.73,671.69,765.87,672.89Z"/><path class="cls-4" d="M757.06,633q.75,2.26,1.46,4.58Q757.82,635.3,757.06,633Z"/><path class="cls-4" d="M748.45,611.6c-.64-1.37-1.3-2.74-2-4.09l.59,1.23C747.54,609.69,748,610.64,748.45,611.6Z"/><path class="cls-4" d="M693.66,542.08l.69.55c-.63-.51-1.25-1-1.89-1.54v0Z"/><path class="cls-4" d="M693.66,542.08l-1.21-1c-.16.36-.34.72-.5,1.08a1.94,1.94,0,0,1,.59-.12Z"/><path class="cls-4" d="M754,624.57c-.48-1.24-1-2.48-1.48-3.71.47,1.14.92,2.28,1.37,3.43C753.94,624.38,754,624.48,754,624.57Z"/><path class="cls-4" d="M745.34,605.3c-.59-1.14-1.19-2.28-1.8-3.41a1.62,1.62,0,0,1,.1.18C744.22,603.14,744.78,604.22,745.34,605.3Z"/><path class="cls-4" d="M718.79,566.22c-1.09-1.24-2.19-2.48-3.3-3.7l1.58,1.78C717.65,564.94,718.23,565.58,718.79,566.22Z"/><path class="cls-4" d="M723.6,571.94c-1.29-1.6-2.6-3.18-4-4.74,1,1.17,2,2.37,3,3.56C722.94,571.16,723.28,571.54,723.6,571.94Z"/><path class="cls-4" d="M705.18,552.08q-2.32-2.19-4.72-4.3l1.06,1C702.75,549.84,704,551,705.18,552.08Z"/><path class="cls-4" d="M766.68,682c.1,1.44.17,2.89.24,4.35C766.85,684.9,766.78,683.45,766.68,682Z"/><polygon class="cls-4" points="617.17 897.58 617.17 882.03 617.17 875.36 617.17 859.81 617.17 853.14 617.17 837.59 617.17 830.92 617.17 815.37 617.17 808.71 617.17 793.15 617.17 786.49 617.17 770.93 617.17 764.27 617.17 748.71 617.17 742.05 617.17 726.5 617.17 719.83 617.17 704.28 617.17 697.61 617.17 682.06 617.17 675.39 617.17 659.84 617.17 653.17 617.17 637.62 617.17 630.96 617.17 616.32 617.16 616.32 617.16 910.76 617.17 910.76 617.17 904.25 617.17 897.58"/><path class="cls-4" d="M761.21,647.28c.33,1.33.66,2.67,1,4C761.87,650,761.54,648.61,761.21,647.28Z"/><path class="cls-4" d="M766.1,675.17c.15,1.43.28,2.87.4,4.32C766.38,678,766.25,676.6,766.1,675.17Z"/><path class="cls-4" d="M767,688.69q.11,3,.11,6.09Q767.13,691.72,767,688.69Z"/><path class="cls-4" d="M762.73,653.79c.29,1.34.56,2.68.82,4C763.29,656.47,763,655.13,762.73,653.79Z"/><path class="cls-4" d="M764,660.17q.48,2.66.88,5.32Q764.48,662.82,764,660.17Z"/><path class="cls-4" d="M734.2,586.4c.3.45.6.88.89,1.33q-1.26-1.92-2.56-3.83l.18.27Z"/><path class="cls-4" d="M617.17,615.4V591.72c0-1.75.06-3.48.16-5.2A90.59,90.59,0,0,1,619.56,571c.52-2.25,1.09-4.48,1.78-6.66a90.66,90.66,0,0,1,6.51-15.55q1.83-3.43,3.93-6.67a92.07,92.07,0,0,1,12.71-15.65c.48-.48,1-1,1.46-1.43l.82-.79a91.56,91.56,0,0,0-29.61,67.51v24.6h0Z"/><path class="cls-4" d="M654.74,517.64h0c1.88.89,3.74,1.82,5.58,2.77C658.48,519.46,656.62,518.53,654.74,517.64Z"/><path class="cls-4" d="M685.34,535.74c1.28.93,2.55,1.86,3.81,2.81Q687.26,537.13,685.34,535.74Z"/><path class="cls-4" d="M617.17,616.32c.67-.29,1.33-.62,2-.92h-2Z"/><path class="cls-4" d="M644.49,526.43a92.07,92.07,0,0,0-12.71,15.65H644a2.05,2.05,0,0,1,2,2v2.56a2.06,2.06,0,0,1-2,2.06H627.85a90.66,90.66,0,0,0-6.51,15.55H644a2.05,2.05,0,0,1,2,2.05v2.56a2.05,2.05,0,0,1-2,2.05H619.56a90.59,90.59,0,0,0-2.23,15.56H644a2.05,2.05,0,0,1,2,2.05v2.56a2.05,2.05,0,0,1-2,2H617.17v15.56h15a144.5,144.5,0,0,0,33.36-26.67h-13a2.05,2.05,0,0,1-2-2.05v-2.56a2.05,2.05,0,0,1,2-2.05h18.79a147.75,147.75,0,0,0,11.29-15.76,2.05,2.05,0,0,1-.86.2H652.55a2.05,2.05,0,0,1-2-2.05v-2.56a2.05,2.05,0,0,1,2-2h29.22a2.05,2.05,0,0,1,2.05,2v2.44c1.58-2.63,3.12-5.3,4.55-8.06q1.1-2.1,2.12-4.23v-1.26A2,2,0,0,1,692,542.2c.16-.36.34-.72.5-1.08-.61-.47-1.2-1-1.81-1.43l-1.49-1.14c-1.26-.95-2.53-1.88-3.81-2.81l-1.38-1-.14-.09v.93a2.06,2.06,0,0,1-2.05,2.06H652.55a2.06,2.06,0,0,1-2-2.06V533a2.06,2.06,0,0,1,2-2h25.87l-1.09-.7c-1.23-.8-2.46-1.58-3.71-2.35-.74-.46-1.5-.91-2.25-1.36-1-.63-2.11-1.25-3.17-1.86-.78-.45-1.57-.9-2.36-1.33-1.13-.63-2.27-1.24-3.41-1.85-.7-.37-1.4-.75-2.11-1.11-1.84-.95-3.7-1.88-5.58-2.77a93,93,0,0,0-8,6.57L646,525A2,2,0,0,1,644.49,526.43Z"/><path class="cls-4" d="M673.62,527.92c1.25.77,2.48,1.55,3.71,2.35C676.1,529.47,674.87,528.69,673.62,527.92Z"/><path class="cls-4" d="M662.43,521.52c1.14.61,2.28,1.22,3.41,1.85C664.71,522.74,663.57,522.13,662.43,521.52Z"/><path class="cls-4" d="M684,534.74c-1.68-1.18-3.37-2.35-5.09-3.48,1.67,1.1,3.32,2.24,5,3.39Z"/><path class="cls-4" d="M692.46,541.09l-1.82-1.4c.61.47,1.2,1,1.81,1.43Z"/><path class="cls-4" d="M668.2,524.7c1.06.61,2.12,1.23,3.17,1.86C670.32,525.93,669.26,525.31,668.2,524.7Z"/><rect class="cls-5" x="690.49" y="608.74" width="33.33" height="6.67" rx="2.05"/><rect class="cls-5" x="690.49" y="630.96" width="33.33" height="6.67" rx="2.05"/><rect class="cls-5" x="690.49" y="653.17" width="33.33" height="6.67" rx="2.05"/><path class="cls-5" d="M694.35,542.63l1.29,1Z"/><path class="cls-5" d="M699.8,547.21l.66.57Z"/><path class="cls-5" d="M692.54,542.08a1.94,1.94,0,0,0-.59.12c-.48,1.07-1,2.13-1.46,3.19v1.3a2.06,2.06,0,0,0,2,2.06h9l-1.06-1-.66-.57c-1.37-1.19-2.75-2.37-4.16-3.53l-1.29-1-.69-.55Z"/><path class="cls-5" d="M690.49,544.13v1.26c.51-1.06,1-2.12,1.46-3.19A2,2,0,0,0,690.49,544.13Z"/><path class="cls-5" d="M718.79,566.22c.29.33.58.65.86,1C719.37,566.87,719.08,566.55,718.79,566.22Z"/><path class="cls-5" d="M692.54,564.3a2.05,2.05,0,0,0-2,2.05v2.56a2.05,2.05,0,0,0,2,2.05h29.22a1.91,1.91,0,0,0,.86-.2c-1-1.19-2-2.39-3-3.56-.28-.33-.57-.65-.86-1-.56-.64-1.14-1.28-1.72-1.92Z"/><rect class="cls-5" x="690.49" y="586.52" width="33.33" height="6.67" rx="2.05"/><rect class="cls-5" x="690.49" y="675.39" width="33.33" height="6.67" rx="2.05"/><rect class="cls-5" x="690.49" y="697.61" width="33.33" height="6.67" rx="2.05"/><rect class="cls-5" x="690.49" y="719.83" width="33.33" height="6.67" rx="2.05"/><rect class="cls-5" x="690.49" y="742.05" width="33.33" height="6.67" rx="2.05"/><rect class="cls-5" x="690.49" y="764.27" width="33.33" height="6.67" rx="2.05"/><rect class="cls-5" x="690.49" y="786.49" width="33.33" height="6.67" rx="2.05"/><rect class="cls-5" x="690.49" y="808.7" width="33.33" height="6.67" rx="2.05"/><rect class="cls-5" x="690.49" y="830.92" width="33.33" height="6.67" rx="2.05"/><path class="cls-5" d="M723.69,858.38a2,2,0,0,1-1.63,1.36C722.61,859.3,723.15,858.84,723.69,858.38Z"/><path class="cls-5" d="M723.82,857.75V855.2a2.07,2.07,0,0,0-2.06-2.06H692.54a2.06,2.06,0,0,0-2,2.06v2.55a2.06,2.06,0,0,0,2,2.06h29.22a2.47,2.47,0,0,0,.29-.06l1.64-1.37A1.91,1.91,0,0,0,723.82,857.75Z"/><path class="cls-5" d="M701.05,875.36q-4.81,3.21-9.79,6.17a2,2,0,0,1-.76-1.55v-2.57a2.05,2.05,0,0,1,2-2Z"/><path class="cls-5" d="M754,624.57c.31.81.62,1.62.92,2.43C754.63,626.19,754.32,625.38,754,624.57Z"/><path class="cls-5" d="M756.35,631l-.11-.29c0,.1.07.19.1.29Z"/><path class="cls-5" d="M734.76,624.29a2.05,2.05,0,0,0-2,2.05v2.56a2.06,2.06,0,0,0,2,2.06h21.58c0-.1-.06-.19-.1-.29-.42-1.23-.86-2.45-1.31-3.67-.3-.81-.61-1.62-.92-2.43,0-.09-.07-.19-.11-.28Z"/><path class="cls-5" d="M761.21,647.28c-.06-.25-.12-.51-.19-.77h0C761.08,646.77,761.15,647,761.21,647.28Z"/><path class="cls-5" d="M762.6,653.17c-.13-.63-.28-1.25-.42-1.88.14.63.28,1.26.41,1.88Z"/><path class="cls-5" d="M734.76,646.51a2.05,2.05,0,0,0-2,2v2.56a2.05,2.05,0,0,0,2,2h27.83c-.13-.62-.27-1.25-.41-1.88-.31-1.34-.64-2.68-1-4-.06-.26-.13-.51-.2-.77Z"/><path class="cls-5" d="M766,673.68c0-.27-.06-.53-.09-.79,0,.28,0,.56.08.84A.09.09,0,0,0,766,673.68Z"/><path class="cls-5" d="M764,668.73H734.76a2.05,2.05,0,0,0-2,2v2.56a2.05,2.05,0,0,0,2,2H764a2,2,0,0,0,2-1.66c0-.28-.05-.56-.08-.84-.14-1.2-.3-2.39-.46-3.57A2,2,0,0,0,764,668.73Z"/><path class="cls-5" d="M732.71,584.46a2,2,0,0,0,1.49,1.94l-1.49-2.23Z"/><path class="cls-5" d="M745.34,605.3c.38.73.77,1.47,1.14,2.21C746.11,606.77,745.72,606,745.34,605.3Z"/><path class="cls-5" d="M734.76,602.07a2.05,2.05,0,0,0-2,2.06v2.55a2.06,2.06,0,0,0,2,2.06h12.31l-.59-1.23c-.37-.74-.76-1.48-1.14-2.21-.56-1.08-1.12-2.16-1.7-3.23Z"/><path class="cls-5" d="M734.76,690.95H764A2.05,2.05,0,0,1,766,693v2.56a2.05,2.05,0,0,1-2.05,2.05H734.76a2.06,2.06,0,0,1-2.06-2.06V693a2.05,2.05,0,0,1,2.05-2.05Z"/><path class="cls-5" d="M734.76,713.16H764a2.05,2.05,0,0,1,2.05,2.05v2.56a2.05,2.05,0,0,1-2.05,2.05H734.76a2.06,2.06,0,0,1-2.06-2.06v-2.56A2.05,2.05,0,0,1,734.76,713.16Z"/><path class="cls-5" d="M734.76,735.38H764a2.05,2.05,0,0,1,2.05,2.05V740A2.05,2.05,0,0,1,764,742H734.76a2.06,2.06,0,0,1-2.06-2.06v-2.55A2.06,2.06,0,0,1,734.76,735.38Z"/><path class="cls-5" d="M734.76,757.6H764a2.05,2.05,0,0,1,2.05,2.05v2.56a2.05,2.05,0,0,1-2.05,2.05H734.76a2.06,2.06,0,0,1-2.06-2.06v-2.56A2.05,2.05,0,0,1,734.76,757.6Z"/><path class="cls-5" d="M734.76,779.82H764a2.05,2.05,0,0,1,2.05,2.05v2.56a2.05,2.05,0,0,1-2.05,2.05H734.76a2.06,2.06,0,0,1-2.06-2.06v-2.56A2.06,2.06,0,0,1,734.76,779.82Z"/><rect class="cls-5" x="732.71" y="802.04" width="33.33" height="6.67" rx="2.05"/><path class="cls-5" d="M757,824.25c-1.81,2.27-3.67,4.48-5.56,6.68H734.77a2.06,2.06,0,0,1-2.06-2.06v-2.56a2.06,2.06,0,0,1,2.06-2.06Z"/><path class="cls-5" d="M736.82,846.47q-2,2-4.11,3.93v-1.88a2.07,2.07,0,0,1,2.06-2Z"/><path class="cls-5" d="M652.55,597.63h29.22a2.05,2.05,0,0,1,2.05,2.05v2.56a2.05,2.05,0,0,1-2.05,2.05H652.55a2.06,2.06,0,0,1-2.06-2.06v-2.56A2.05,2.05,0,0,1,652.55,597.63Z"/><path class="cls-5" d="M652.55,619.85h29.22a2.05,2.05,0,0,1,2.05,2.05v2.56a2.05,2.05,0,0,1-2.05,2.05H652.55a2.06,2.06,0,0,1-2.06-2.06V621.9A2.05,2.05,0,0,1,652.55,619.85Z"/><path class="cls-5" d="M652.55,642.06h29.22a2.05,2.05,0,0,1,2.05,2.05v2.56a2.05,2.05,0,0,1-2.05,2.05H652.55a2.06,2.06,0,0,1-2.06-2.06v-2.56A2.05,2.05,0,0,1,652.55,642.06Z"/><path class="cls-5" d="M678.87,531.26l-.44-.29h0Z"/><path class="cls-5" d="M652.55,531a2.06,2.06,0,0,0-2,2v2.56a2.06,2.06,0,0,0,2,2.06h29.22a2.06,2.06,0,0,0,2.05-2.06v-.93c-1.63-1.15-3.28-2.29-5-3.39l-.45-.29Z"/><path class="cls-5" d="M683.82,557.8v-.12c-.39.66-.78,1.32-1.19,2A2,2,0,0,0,683.82,557.8Z"/><path class="cls-5" d="M681.77,553.19H652.55a2.05,2.05,0,0,0-2,2v2.56a2.05,2.05,0,0,0,2,2.05h29.22a2.05,2.05,0,0,0,.86-.2c.41-.65.8-1.31,1.19-2v-2.44A2.05,2.05,0,0,0,681.77,553.19Z"/><path class="cls-5" d="M681.77,582.07a2.05,2.05,0,0,0,2.05-2.05v-2.56a2.05,2.05,0,0,0-2.05-2.05H671.34q-2.83,3.44-5.84,6.66Z"/><path class="cls-5" d="M650.5,577.46V580a2.05,2.05,0,0,0,2,2.05h13q3-3.23,5.84-6.66H652.55A2.05,2.05,0,0,0,650.5,577.46Z"/><path class="cls-5" d="M652.55,664.28h29.22a2.05,2.05,0,0,1,2.05,2.05v2.56a2.05,2.05,0,0,1-2.05,2.05H652.55a2.06,2.06,0,0,1-2.06-2.06v-2.56a2.05,2.05,0,0,1,2.05-2.05Z"/><path class="cls-5" d="M652.55,686.5h29.22a2.05,2.05,0,0,1,2.05,2.05v2.56a2.05,2.05,0,0,1-2.05,2.05H652.55a2.06,2.06,0,0,1-2.06-2.06v-2.56a2.05,2.05,0,0,1,2.05-2.05Z"/><path class="cls-5" d="M652.55,708.72h29.22a2.05,2.05,0,0,1,2.05,2.05v2.56a2.05,2.05,0,0,1-2.05,2.05H652.55a2.06,2.06,0,0,1-2.06-2.06v-2.56A2.05,2.05,0,0,1,652.55,708.72Z"/><path class="cls-5" d="M652.55,730.94h29.22a2.05,2.05,0,0,1,2.05,2.05v2.56a2.05,2.05,0,0,1-2.05,2.05H652.55a2.06,2.06,0,0,1-2.06-2.06V733A2.05,2.05,0,0,1,652.55,730.94Z"/><path class="cls-5" d="M652.55,753.16h29.22a2.05,2.05,0,0,1,2.05,2.05v2.56a2.05,2.05,0,0,1-2.05,2.05H652.55a2.06,2.06,0,0,1-2.06-2.06v-2.56A2.05,2.05,0,0,1,652.55,753.16Z"/><path class="cls-5" d="M652.55,775.38h29.22a2.05,2.05,0,0,1,2.05,2.05V780a2.05,2.05,0,0,1-2.05,2.05H652.55A2.06,2.06,0,0,1,650.5,780v-2.56a2.05,2.05,0,0,1,2.05-2.05Z"/><path class="cls-5" d="M652.55,797.59h29.22a2.05,2.05,0,0,1,2.05,2.05v2.56a2.05,2.05,0,0,1-2.05,2.05H652.55a2.06,2.06,0,0,1-2.06-2.06v-2.56a2.05,2.05,0,0,1,2.05-2.05Z"/><path class="cls-5" d="M652.55,819.81h29.22a2.05,2.05,0,0,1,2.05,2.05v2.56a2.05,2.05,0,0,1-2.05,2.05H652.55a2.06,2.06,0,0,1-2.06-2.06v-2.56a2.05,2.05,0,0,1,2.05-2.05Z"/><path class="cls-5" d="M652.55,842h29.22a2.05,2.05,0,0,1,2.05,2.05v2.56a2.05,2.05,0,0,1-2.05,2.05H652.55a2.06,2.06,0,0,1-2.06-2.06v-2.56A2.05,2.05,0,0,1,652.55,842Z"/><path class="cls-5" d="M652.55,864.25h29.22a2.05,2.05,0,0,1,2.05,2.05v2.56a2.05,2.05,0,0,1-2.05,2.05H652.55a2.06,2.06,0,0,1-2.06-2.06v-2.56A2.05,2.05,0,0,1,652.55,864.25Z"/><path class="cls-5" d="M646.05,568.91v-2.56a2.05,2.05,0,0,0-2-2.05H621.34c-.69,2.18-1.26,4.41-1.78,6.66H644A2.05,2.05,0,0,0,646.05,568.91Z"/><path class="cls-5" d="M646.05,591.13v-2.56a2.05,2.05,0,0,0-2-2.05H617.33c-.1,1.72-.16,3.45-.16,5.2v1.46H644A2.05,2.05,0,0,0,646.05,591.13Z"/><path class="cls-5" d="M644,615.4a2.05,2.05,0,0,0,2-2v-2.56a2.05,2.05,0,0,0-2-2H632.14a141.65,141.65,0,0,1-13,6.66Z"/><path class="cls-5" d="M617.17,615.4h2a141.65,141.65,0,0,0,13-6.66h-15Z"/><path class="cls-5" d="M646,525c-.5.47-1,1-1.46,1.43A2,2,0,0,0,646,525Z"/><path class="cls-5" d="M646.05,546.69v-2.56a2.05,2.05,0,0,0-2-2H631.78q-2.1,3.24-3.93,6.67H644A2.06,2.06,0,0,0,646.05,546.69Z"/><path class="cls-5" d="M644,637.62a2.05,2.05,0,0,0,2-2V633a2.05,2.05,0,0,0-2-2H617.17v6.66Z"/><path class="cls-5" d="M644,659.84a2.06,2.06,0,0,0,2-2.06v-2.55a2.06,2.06,0,0,0-2-2.06H617.17v6.67Z"/><path class="cls-5" d="M644,682.06a2.06,2.06,0,0,0,2-2.06v-2.55a2.06,2.06,0,0,0-2-2.06H617.17v6.67Z"/><path class="cls-5" d="M644,704.28a2.06,2.06,0,0,0,2-2.06v-2.55a2.06,2.06,0,0,0-2-2.06H617.17v6.67Z"/><path class="cls-5" d="M644,726.5a2.06,2.06,0,0,0,2-2.06v-2.56a2.05,2.05,0,0,0-2-2H617.17v6.67Z"/><path class="cls-5" d="M644,748.71a2.05,2.05,0,0,0,2-2.05V744.1a2.05,2.05,0,0,0-2-2.05H617.17v6.66Z"/><path class="cls-5" d="M644,770.93a2.05,2.05,0,0,0,2-2v-2.56a2.05,2.05,0,0,0-2-2.05H617.17v6.66Z"/><path class="cls-5" d="M644,793.15a2.05,2.05,0,0,0,2-2v-2.56a2.05,2.05,0,0,0-2-2H617.17v6.66Z"/><path class="cls-5" d="M644,815.37a2.05,2.05,0,0,0,2-2v-2.56a2.06,2.06,0,0,0-2-2.06H617.17v6.67Z"/><path class="cls-5" d="M644,837.59a2.06,2.06,0,0,0,2-2.06V833a2.06,2.06,0,0,0-2-2.06H617.17v6.67Z"/><path class="cls-5" d="M644,859.81a2.06,2.06,0,0,0,2-2.06V855.2a2.06,2.06,0,0,0-2-2.06H617.17v6.67Z"/><path class="cls-5" d="M644,882a2.06,2.06,0,0,0,2-2.06v-2.55a2.05,2.05,0,0,0-2-2.06H617.17V882Z"/><path class="cls-5" d="M645.94,902.69a2,2,0,0,1-1.94,1.55h-2.7C642.86,903.73,644.4,903.22,645.94,902.69Z"/><path class="cls-5" d="M641.3,904.25c1.56-.51,3.11-1,4.65-1.56a2,2,0,0,0,.1-.5v-2.56a2.05,2.05,0,0,0-2-2H617.17v6.67Z"/></g></svg>