<svg id="Calque_1" data-name="Calque 1" xmlns="http://www.w3.org/2000/svg" viewBox="0 0 1125 2436"><defs><style>.cls-1{fill:#ffae00;stroke:#fff;stroke-width:0.25px;}.cls-1,.cls-16{stroke-miterlimit:10;}.cls-2{font-size:51.6px;font-family:Early-GameBoy, Early GameBoy;}.cls-2,.cls-3{fill:#e02229;}.cls-4{fill:#ffce5c;}.cls-5{fill:#6a5c46;}.cls-6{fill:#e8b350;}.cls-16,.cls-7{fill:none;}.cls-8{fill:#fff;}.cls-9{fill:#00b2ae;}.cls-10{fill:#ff9c45;}.cls-11{fill:#2db17e;}.cls-12{fill:#ffb777;}.cls-13{fill:#303030;}.cls-14{fill:#f1f1f1;}.cls-15{fill:#4c4c4c;}.cls-16{stroke:#e02229;stroke-width:8.58px;}.cls-17{fill:#ffcc97;}</style></defs><title>Plan de travail 3</title><rect class="cls-1" x="0.45" y="0.32" width="1124.36" height="2435.01"/><text class="cls-2" transform="translate(234.32 492.26)">INSTRUCTIONS</text><path class="cls-3" d="M72,1631.53v-34.32H83.44v28.6h22.89v5.72Z"/><path class="cls-3" d="M117.77,1631.53v-34.32h34.32v5.72H129.21v5.72h17.16v5.72H129.21v11.44h22.88v5.72Z"/><path class="cls-3" d="M169.26,1631.53v-5.72H180.7v-11.44H169.26v-5.72h-5.73v-5.72h5.73v-5.72h22.88v5.72H175v5.72h17.16v5.72h5.72v11.44h-5.72v5.72Zm-5.73-5.72v-5.72h5.73v5.72Z"/><path class="cls-3" d="M232.18,1631.53v-34.32h28.61v5.72h5.72v11.44h-5.72v5.72H243.63v11.44Zm22.89-17.16v-11.44H243.63v11.44Z"/><path class="cls-3" d="M278,1631.53v-34.32h34.33v5.72H289.39v5.72h17.17v5.72H289.39v11.44h22.89v5.72Z"/><path class="cls-3" d="M335.16,1631.53v-28.6H323.72v-5.72H358v5.72H346.6v28.6Z"/><path class="cls-3" d="M375.21,1631.53v-5.72h5.72v-22.88h-5.72v-5.72h22.88v5.72h-5.72v22.88h5.72v5.72Z"/><path class="cls-3" d="M426.69,1631.53v-28.6H415.25v-5.72h34.33v5.72H438.14v28.6Z"/><path class="cls-3" d="M461,1631.53v-34.32h34.33v5.72H472.46v5.72h17.16v5.72H472.46v11.44h22.89v5.72Z"/><path class="cls-3" d="M512.51,1631.53v-5.72H524v-11.44H512.51v-5.72h-5.72v-5.72h5.72v-5.72h22.88v5.72H518.23v5.72h17.16v5.72h5.72v11.44h-5.72v5.72Zm-5.72-5.72v-5.72h5.72v5.72Z"/><path class="cls-3" d="M575.44,1631.53v-34.32H604v5.72h5.72v11.44H604v5.72H586.88v11.44Zm22.88-17.16v-11.44H586.88v11.44Z"/><path class="cls-3" d="M621.21,1631.53v-34.32h34.32v5.72H632.65v5.72h17.16v5.72H632.65v11.44h22.88v5.72Z"/><path class="cls-3" d="M667,1631.53v-34.32h28.61v5.72h5.72v11.44h-5.72v5.72h-5.72v5.72h-5.73v-5.72h-5.72v11.44Zm22.89-17.16v-11.44H678.41v11.44Zm0,17.16v-5.72H701.3v5.72Z"/><path class="cls-3" d="M712.74,1631.53v-34.32h28.6v5.72h5.72v11.44h-5.72v5.72h-5.72v5.72H729.9v-5.72h-5.72v11.44Zm22.88-17.16v-11.44H724.18v11.44Zm0,17.16v-5.72h11.44v5.72Z"/><path class="cls-3" d="M758.51,1625.81v-28.6h5.72v28.6Zm5.72,5.72v-5.72h11.44v-5.72h5.72v-22.88h11.44v28.6h-5.72v5.72Z"/><path class="cls-3" d="M810,1631.53v-5.72h-5.72v-22.88H810v-5.72h22.89v5.72h5.72v5.72H827.16v-5.72H815.72v22.88h11.44v-5.72H838.6v5.72h-5.72v5.72Z"/><path class="cls-3" d="M850,1631.53v-34.32h5.72v11.44h17.16v-11.44h11.45v34.32H872.92v-17.16H855.76v17.16Z"/><path class="cls-3" d="M895.81,1631.53v-34.32h34.32v5.72H907.25v5.72h17.16v5.72H907.25v11.44h22.88v5.72Z"/><path class="cls-3" d="M947.3,1631.53v-5.72h11.44v-11.44H947.3v-5.72h-5.73v-5.72h5.73v-5.72h22.88v5.72H953v5.72h17.16v5.72h5.72v11.44h-5.72v5.72Zm-5.73-5.72v-5.72h5.73v5.72Z"/><path class="cls-3" d="M72,1686.45v-28.6h5.72v11.44H89.16v-11.44H77.72v-5.72H100.6v5.72h5.73v28.6H89.16V1675H77.72v11.44Z"/><path class="cls-3" d="M117.77,1686.45v-34.32h28.6v5.72h5.72v11.44h-5.72V1675H129.21v11.44Zm22.88-17.16v-11.44H129.21v11.44Z"/><path class="cls-3" d="M163.53,1686.45v-34.32h28.61v5.72h5.72v11.44h-5.72V1675H175v11.44Zm22.89-17.16v-11.44H175v11.44Z"/><path class="cls-3" d="M209.3,1686.45v-28.6H215v11.44h11.44v-11.44H215v-5.72h22.89v5.72h5.72v28.6H226.46V1675H215v11.44Z"/><path class="cls-3" d="M255.07,1686.45v-34.32h28.6v5.72h5.72v11.44h-5.72V1675H278v5.72h-5.72V1675h-5.72v11.44ZM278,1669.29v-11.44H266.51v11.44Zm0,17.16v-5.72h11.44v5.72Z"/><path class="cls-3" d="M300.84,1686.45v-34.32h28.6v5.72h5.72v11.44h-5.72V1675h-5.72v5.72H318V1675h-5.72v11.44Zm22.88-17.16v-11.44H312.28v11.44Zm0,17.16v-5.72h11.44v5.72Z"/><path class="cls-3" d="M346.6,1686.45v-28.6h5.72v11.44h11.45v-11.44H352.32v-5.72h22.89v5.72h5.72v28.6H363.77V1675H352.32v11.44Z"/><path class="cls-3" d="M398.09,1686.45v-5.72h5.72v-22.88h-5.72v-5.72H421v5.72h-5.72v22.88H421v5.72Z"/><path class="cls-3" d="M443.86,1686.45v-5.72H455.3v-11.44H443.86v-5.72h-5.72v-5.72h5.72v-5.72h22.88v5.72H449.58v5.72h17.16v5.72h5.72v11.44h-5.72v5.72Zm-5.72-5.72V1675h5.72v5.72Z"/><path class="cls-3" d="M489.62,1686.45v-5.72h11.45v-11.44H489.62v-5.72H483.9v-5.72h5.72v-5.72h22.89v5.72H495.35v5.72h17.16v5.72h5.72v11.44h-5.72v5.72Zm-5.72-5.72V1675h5.72v5.72Z"/><path class="cls-3" d="M529.67,1686.45v-34.32H564v5.72H541.11v5.72h17.17v5.72H541.11v11.44H564v5.72Z"/><path class="cls-3" d="M575.44,1686.45v-34.32h5.72v5.72h5.72v5.72h5.72v5.72h5.72v-17.16h11.44v34.32H598.32v-5.72H592.6V1675h-5.72v-5.72h-5.72v17.16Z"/><path class="cls-3" d="M632.65,1686.45v-28.6H621.21v-5.72h34.32v5.72H644.09v28.6Z"/><path class="cls-3" d="M689.86,1686.45v-34.32H701.3v28.6h22.88v5.72Z"/><path class="cls-3" d="M735.62,1686.45v-34.32H770v5.72H747.06v5.72h17.17v5.72H747.06v11.44H770v5.72Z"/><path class="cls-3" d="M787.11,1686.45v-5.72h11.44v-11.44H787.11v-5.72h-5.72v-5.72h5.72v-5.72H810v5.72H792.83v5.72H810v5.72h5.73v11.44H810v5.72Zm-5.72-5.72V1675h5.72v5.72Z"/><path class="cls-3" d="M850,1680.73v-28.6h5.72v28.6Zm5.72,5.72v-5.72H867.2V1675h5.72v-22.88h11.45v28.6h-5.73v5.72Z"/><path class="cls-3" d="M895.81,1686.45v-34.32h5.72v5.72h5.72v5.72H913v5.72h5.72v-17.16h11.44v34.32H918.69v-5.72H913V1675h-5.72v-5.72h-5.72v17.16Z"/><path class="cls-3" d="M941.57,1686.45v-34.32H975.9v5.72H953v5.72h17.16v5.72H953v11.44H975.9v5.72Z"/><path class="cls-3" d="M993.06,1686.45v-5.72h11.44v-11.44H993.06v-5.72h-5.72v-5.72h5.72v-5.72H1016v5.72H998.78v5.72H1016v5.72h5.72v11.44H1016v5.72Zm-5.72-5.72V1675h5.72v5.72Z"/><path class="cls-3" d="M72,1741.38v-28.61h5.72v11.44H89.16v-11.44H77.72v-5.72H100.6v5.72h5.73v28.61H89.16v-11.45H77.72v11.45Z"/><path class="cls-3" d="M117.77,1741.38v-34.33h28.6v5.72h5.72v11.44h-5.72v5.72H129.21v11.45Zm22.88-17.17v-11.44H129.21v11.44Z"/><path class="cls-3" d="M163.53,1741.38v-34.33h28.61v5.72h5.72v11.44h-5.72v5.72h-5.72v5.72H180.7v-5.72H175v11.45Zm22.89-17.17v-11.44H175v11.44Zm0,17.17v-5.73h11.44v5.73Z"/><path class="cls-3" d="M209.3,1741.38v-34.33h34.33v5.72H220.74v5.72h17.17v5.72H220.74v11.44h22.89v5.73Z"/><path class="cls-3" d="M260.79,1741.38v-5.73h11.44v-11.44H260.79v-5.72h-5.72v-5.72h5.72v-5.72h22.88v5.72H266.51v5.72h17.16v5.72h5.72v11.44h-5.72v5.73Zm-5.72-5.73v-5.72h5.72v5.72Z"/><path class="cls-3" d="M323.72,1741.38v-34.33h11.44v28.6H358v5.73Z"/><path class="cls-3" d="M369.49,1741.38v-34.33h34.32v5.72H380.93v5.72h17.16v5.72H380.93v11.44h22.88v5.73Z"/><path class="cls-3" d="M421,1741.38v-5.73h11.45v-11.44H421v-5.72h-5.72v-5.72H421v-5.72h22.89v5.72H426.69v5.72h17.17v5.72h5.72v11.44h-5.72v5.73Zm-5.72-5.73v-5.72H421v5.72Z"/><path class="cls-3" d="M483.9,1741.38v-28.61h5.72v11.44h11.45v-11.44H489.62v-5.72h22.89v5.72h5.72v28.61H501.07v-11.45H489.62v11.45Z"/><path class="cls-3" d="M529.67,1735.65v-28.6h5.72v28.6Zm5.72,5.73v-5.73h11.44v-5.72h5.72v-22.88H564v28.6h-5.72v5.73Z"/><path class="cls-3" d="M586.88,1741.38v-28.61H575.44v-5.72h34.32v5.72H598.32v28.61Z"/><path class="cls-3" d="M621.21,1741.38v-34.33h28.6v5.72h5.72v11.44h-5.72v5.72h-5.72v5.72h-5.72v-5.72h-5.72v11.45Zm22.88-17.17v-11.44H632.65v11.44Zm0,17.17v-5.73h11.44v5.73Z"/><path class="cls-3" d="M667,1741.38v-34.33H701.3v5.72H678.41v5.72h17.17v5.72H678.41v11.44H701.3v5.73Z"/><path class="cls-3" d="M718.46,1741.38v-5.73H729.9v-11.44H718.46v-5.72h-5.72v-5.72h5.72v-5.72h22.88v5.72H724.18v5.72h17.16v5.72h5.72v11.44h-5.72v5.73Zm-5.72-5.73v-5.72h5.72v5.72Z"/><path class="cls-3" d="M781.39,1741.38v-34.33h34.33v5.72H792.83v5.72H810v5.72H792.83v11.44h22.89v5.73Z"/><path class="cls-3" d="M838.6,1741.38v-28.61H827.16v-5.72h34.32v5.72H850v28.61Z"/><path class="cls-3" d="M72,1796.3V1762h28.6v5.72h5.73v22.88H100.6v5.73Zm17.16-5.73v-22.88H77.72v22.88Z"/><path class="cls-3" d="M117.77,1796.3V1762h34.32v5.72H129.21v5.72h17.16v5.72H129.21v11.44h22.88v5.73Z"/><path class="cls-3" d="M186.42,1796.3V1762H215v5.72h5.72v11.44H215v5.72H197.86v11.45Zm22.88-17.17v-11.44H197.86v11.44Z"/><path class="cls-3" d="M232.18,1796.3V1762h11.45v28.6h22.88v5.73Z"/><path class="cls-3" d="M278,1790.57V1762h5.72v28.6Zm5.72,5.73v-5.73h11.44v-5.72h5.73V1762h11.44v28.6h-5.72v5.73Z"/><path class="cls-3" d="M329.44,1796.3v-5.73h11.44v-11.44H329.44v-5.72h-5.72v-5.72h5.72V1762h22.88v5.72H335.16v5.72h17.16v5.72H358v11.44h-5.72v5.73Zm-5.72-5.73v-5.72h5.72v5.72Z"/><path class="cls-3" d="M392.37,1796.3V1762h34.32v5.72H403.81v5.72H421v5.72H403.81v11.44h22.88v5.73Z"/><path class="cls-3" d="M438.14,1796.3V1762h5.72v5.72h5.72v5.72h5.72v5.72H461V1762h11.44v34.33H461v-5.73H455.3v-5.72h-5.72v-5.72h-5.72v17.17Z"/><path class="cls-3" d="M506.79,1796.3V1762h28.6v5.72h5.72v11.44h-5.72v5.72H518.23v11.45Zm22.88-17.17v-11.44H518.23v11.44Z"/><path class="cls-3" d="M552.55,1796.3V1762H564v28.6h22.88v5.73Z"/><path class="cls-3" d="M598.32,1790.57V1762H604v28.6Zm5.72,5.73v-5.73h11.44v-5.72h5.73V1762h11.44v28.6h-5.72v5.73Z"/><path class="cls-3" d="M649.81,1796.3v-5.73h11.44v-11.44H649.81v-5.72h-5.72v-5.72h5.72V1762h22.88v5.72H655.53v5.72h17.16v5.72h5.72v11.44h-5.72v5.73Zm-5.72-5.73v-5.72h5.72v5.72Z"/><path class="cls-3" d="M712.74,1784.85V1762h5.72v22.88Zm5.72,5.72v-5.72h5.72v5.72Zm5.72,5.73v-5.73h5.72v-5.72h5.72V1762h11.44v22.88h-5.72v5.72h-5.72v5.73Z"/><path class="cls-3" d="M764.23,1796.3v-5.73H770v-22.88h-5.72V1762h22.88v5.72h-5.72v22.88h5.72v5.73Z"/><path class="cls-3" d="M815.72,1796.3v-28.61H804.27V1762H838.6v5.72H827.16v28.61Z"/><path class="cls-3" d="M850,1796.3V1762h34.33v5.72H861.48v5.72h17.16v5.72H861.48v11.44h22.89v5.73Z"/><path class="cls-3" d="M895.81,1796.3v-11.45h11.44v11.45Z"/><path class="cls-3" d="M72,1851.22v-28.61h5.72v11.44H89.16v-11.44H77.72v-5.72H100.6v5.72h5.73v28.61H89.16v-11.45H77.72v11.45Z"/><path class="cls-3" d="M129.21,1851.22v-28.61H117.77v-5.72h34.32v5.72H140.65v28.61Z"/><path class="cls-3" d="M175,1851.22v-28.61H163.53v-5.72h34.33v5.72H186.42v28.61Z"/><path class="cls-3" d="M209.3,1851.22v-34.33h34.33v5.72H220.74v5.72h17.17v5.72H220.74v11.45h22.89v5.72Z"/><path class="cls-3" d="M255.07,1851.22v-34.33h5.72v5.72h5.72v5.72h5.72v5.72H278v-17.16h11.44v34.33H278v-5.72h-5.72v-5.73h-5.72v-5.72h-5.72v17.17Z"/><path class="cls-3" d="M312.28,1851.22v-28.61H300.84v-5.72h34.32v5.72H323.72v28.61Z"/><path class="cls-3" d="M352.32,1851.22v-5.72H358v-22.89h-5.72v-5.72h22.89v5.72h-5.72v22.89h5.72v5.72Z"/><path class="cls-3" d="M398.09,1851.22v-5.72h-5.72v-22.89h5.72v-5.72H421v5.72h5.72v22.89H421v5.72Zm17.16-5.72v-22.89H403.81v22.89Z"/><path class="cls-3" d="M438.14,1851.22v-34.33h5.72v5.72h5.72v5.72h5.72v5.72H461v-17.16h11.44v34.33H461v-5.72H455.3v-5.73h-5.72v-5.72h-5.72v17.17Z"/><path class="cls-3" d="M495.35,1851.22v-5.72h-5.73v-11.45h11.45v17.17Zm-5.73,5.72v-5.72h5.73v5.72Z"/><path class="cls-3" d="M552.55,1851.22v-34.33h28.61v5.72h5.72v11.44h-5.72v5.72H564v11.45Zm22.89-17.17v-11.44H564v11.44Z"/><path class="cls-3" d="M598.32,1851.22v-34.33h11.44v28.61h22.89v5.72Z"/><path class="cls-3" d="M644.09,1845.5v-28.61h5.72v28.61Zm5.72,5.72v-5.72h11.44v-5.73H667v-22.88h11.44v28.61h-5.72v5.72Z"/><path class="cls-3" d="M695.58,1851.22v-5.72H707v-11.45H695.58v-5.72h-5.72v-5.72h5.72v-5.72h22.88v5.72H701.3v5.72h17.16v5.72h5.72v11.45h-5.72v5.72Zm-5.72-5.72v-5.73h5.72v5.73Z"/><path class="cls-3" d="M741.34,1851.22v-5.72h5.72v-22.89h-5.72v-5.72h22.89v5.72h-5.72v22.89h5.72v5.72Z"/><path class="cls-3" d="M781.39,1851.22v-34.33h34.33v5.72H792.83v5.72H810v5.72H792.83v11.45h22.89v5.72Z"/><path class="cls-3" d="M827.16,1845.5v-28.61h5.72v28.61Zm5.72,5.72v-5.72h11.44v-5.73H850v-22.88h11.44v28.61h-5.72v5.72Z"/><path class="cls-3" d="M872.92,1851.22v-34.33h28.61v5.72h5.72v11.44h-5.72v5.72h-5.72v5.73h-5.72v-5.73h-5.72v11.45Zm22.89-17.17v-11.44H884.37v11.44Zm0,17.17v-5.72h11.44v5.72Z"/><path class="cls-3" d="M924.41,1851.22v-5.72h11.44v-11.45H924.41v-5.72h-5.72v-5.72h5.72v-5.72H947.3v5.72H930.13v5.72H947.3v5.72H953v11.45H947.3v5.72Zm-5.72-5.72v-5.73h5.72v5.73Z"/><path class="cls-3" d="M72,1906.14v-34.33h28.6v5.72h5.73V1889H100.6v5.72H83.44v11.45ZM94.88,1889v-11.44H83.44V1889Z"/><path class="cls-3" d="M117.77,1906.14v-34.33h34.32v5.72H129.21v5.72h17.16V1889H129.21v11.45h22.88v5.72Z"/><path class="cls-3" d="M163.53,1906.14v-34.33h28.61v5.72h5.72V1889h-5.72v5.72h-5.72v5.73H180.7v-5.73H175v11.45ZM186.42,1889v-11.44H175V1889Zm0,17.17v-5.72h11.44v5.72Z"/><path class="cls-3" d="M209.3,1906.14v-34.33h28.61v5.72h5.72V1889h-5.72v5.72h-5.73v5.73h-5.72v-5.73h-5.72v11.45ZM232.18,1889v-11.44H220.74V1889Zm0,17.17v-5.72h11.45v5.72Z"/><path class="cls-3" d="M255.07,1900.42v-28.61h5.72v28.61Zm5.72,5.72v-5.72h11.44v-5.73H278v-22.88h11.44v28.61h-5.72v5.72Z"/><path class="cls-3" d="M306.56,1906.14v-5.72h-5.72v-22.89h5.72v-5.72h22.88v5.72h5.72v5.72H323.72v-5.72H312.28v22.89h11.44v-5.73h11.44v5.73h-5.72v5.72Z"/><path class="cls-3" d="M346.6,1906.14v-34.33h5.72v11.44h17.17v-11.44h11.44v34.33H369.49V1889H352.32v17.17Z"/><path class="cls-3" d="M392.37,1906.14v-34.33h34.32v5.72H403.81v5.72H421V1889H403.81v11.45h22.88v5.72Z"/><path class="cls-3" d="M443.86,1906.14v-5.72H455.3V1889H443.86v-5.72h-5.72v-5.72h5.72v-5.72h22.88v5.72H449.58v5.72h17.16V1889h5.72v11.45h-5.72v5.72Zm-5.72-5.72v-5.73h5.72v5.73Z"/><path class="cls-3" d="M506.79,1906.14v-34.33h28.6v5.72h5.72V1889h-5.72v5.72H518.23v11.45ZM529.67,1889v-11.44H518.23V1889Z"/><path class="cls-3" d="M552.55,1906.14v-34.33h34.33v5.72H564v5.72h17.16V1889H564v11.45h22.88v5.72Z"/><path class="cls-3" d="M598.32,1900.42v-28.61H604v28.61Zm5.72,5.72v-5.72h11.44v-5.73h5.73v-22.88h11.44v28.61h-5.72v5.72Z"/><path class="cls-3" d="M644.09,1894.69v-22.88h5.72v22.88Zm5.72,5.73v-5.73h5.72v5.73Zm5.72,5.72v-5.72h5.72v-5.73H667v-22.88h11.44v22.88h-5.72v5.73H667v5.72Z"/><path class="cls-3" d="M689.86,1906.14v-34.33h34.32v5.72H701.3v5.72h17.16V1889H701.3v11.45h22.88v5.72Z"/><path class="cls-3" d="M735.62,1906.14v-34.33h5.72v5.72h5.72v5.72h5.73V1889h5.72v-17.16H770v34.33H758.51v-5.72h-5.72v-5.73h-5.73V1889h-5.72v17.17Z"/><path class="cls-3" d="M792.83,1906.14v-28.61H781.39v-5.72h34.33v5.72H804.27v28.61Z"/><path class="cls-3" d="M77.72,1961.06v-5.72H89.16v-11.45H77.72v-5.72H72v-5.72h5.72v-5.72H100.6v5.72H83.44v5.72H100.6v5.72h5.73v11.45H100.6v5.72ZM72,1955.34v-5.72h5.72v5.72Z"/><path class="cls-3" d="M117.77,1955.34v-28.61h5.72v28.61Zm5.72,5.72v-5.72h11.44v-5.72h5.72v-22.89h11.44v28.61h-5.72v5.72Z"/><path class="cls-3" d="M163.53,1961.06v-34.33h28.61v5.72h5.72v11.44h-5.72v5.73h-5.72v5.72H180.7v-5.72H175v11.44Zm22.89-17.17v-11.44H175v11.44Zm0,17.17v-5.72h11.44v5.72Z"/><path class="cls-3" d="M215,1961.06v-5.72H209.3v-22.89H215v-5.72h22.89v5.72h5.72v5.72H232.18v-5.72H220.74v22.89h11.44v-5.72h-5.72v-5.73h17.17v17.17Z"/><path class="cls-3" d="M260.79,1961.06v-5.72h5.72v-22.89h-5.72v-5.72h22.88v5.72H278v22.89h5.72v5.72Z"/><path class="cls-3" d="M300.84,1961.06v-34.33h28.6v5.72h5.72v11.44h-5.72v5.73h-5.72v5.72H318v-5.72h-5.72v11.44Zm22.88-17.17v-11.44H312.28v11.44Zm0,17.17v-5.72h11.44v5.72Z"/><path class="cls-3" d="M369.49,1961.06v-34.33h34.32v5.72H380.93v5.72h17.16v5.72H380.93v11.45h22.88v5.72Z"/><path class="cls-3" d="M415.25,1961.06v-34.33H421v5.72h5.72v5.72h5.73v5.72h5.72v-17.16h11.44v34.33H438.14v-5.72h-5.72v-5.72h-5.73v-5.73H421v17.17Z"/><path class="cls-3" d="M483.9,1961.06v-34.33h5.72v5.72h5.73v5.72h5.72v-5.72h5.72v-5.72h11.44v34.33H506.79v-17.17h-5.72v5.73h-5.72v-5.73h-5.73v17.17Z"/><path class="cls-3" d="M529.67,1961.06v-34.33H564v5.72H541.11v5.72h17.17v5.72H541.11v11.45H564v5.72Z"/><path class="cls-3" d="M575.44,1961.06v-34.33h5.72v5.72h5.72v5.72h5.72v-5.72h5.72v-5.72h11.44v34.33H598.32v-17.17H592.6v5.73h-5.72v-5.73h-5.72v17.17Z"/><path class="cls-3" d="M621.21,1961.06v-34.33h34.32v5.72H632.65v5.72h17.16v5.72H632.65v11.45h22.88v5.72Z"/><path class="cls-3" d="M701.3,1961.06v-28.61H689.86v-5.72h34.32v5.72H712.74v28.61Z"/><path class="cls-3" d="M735.62,1961.06v-34.33H770v5.72H747.06v5.72h17.17v5.72H747.06v11.45H770v5.72Z"/><path class="cls-3" d="M781.39,1961.06v-34.33h5.72v5.72h5.72v5.72h5.72v-5.72h5.72v-5.72h11.45v34.33H804.27v-17.17h-5.72v5.73h-5.72v-5.73h-5.72v17.17Z"/><path class="cls-3" d="M827.16,1961.06v-34.33h28.6v5.72h5.72v11.44h-5.72v5.73H838.6v11.44ZM850,1943.89v-11.44H838.6v11.44Z"/><path class="cls-3" d="M878.65,1961.06v-5.72h11.44v-11.45H878.65v-5.72h-5.73v-5.72h5.73v-5.72h22.88v5.72H884.37v5.72h17.16v5.72h5.72v11.45h-5.72v5.72Zm-5.73-5.72v-5.72h5.73v5.72Z"/><path class="cls-3" d="M918.69,1961.06v-11.44h11.44v11.44Z"/><path class="cls-3" d="M83.44,2016v-28.61H72v-5.72h34.33v5.72H94.88V2016Z"/><path class="cls-3" d="M123.49,2016v-5.72h5.72v-22.89h-5.72v-5.72h22.88v5.72h-5.72v22.89h5.72V2016Z"/><path class="cls-3" d="M163.53,2016v-34.33h34.33v5.72H175v5.72h17.16v5.72H175v11.45h22.88V2016Z"/><path class="cls-3" d="M209.3,2016v-34.33H215v5.72h5.72v5.72h5.72v5.72h5.72v-17.16h11.45V2016H232.18v-5.72h-5.72v-5.72h-5.72v-5.73H215V2016Z"/><path class="cls-3" d="M260.79,2016v-5.72h11.44v-11.45H260.79v-5.72h-5.72v-5.72h5.72v-5.72h22.88v5.72H266.51v5.72h17.16v5.72h5.72v11.45h-5.72V2016Zm-5.72-5.72v-5.72h5.72v5.72Z"/><path class="cls-3" d="M335.16,2016v-28.61H323.72v-5.72H358v5.72H346.6V2016Z"/><path class="cls-3" d="M375.21,2016v-5.72h-5.72v-22.89h5.72v-5.72h22.88v5.72h5.72v22.89h-5.72V2016Zm17.16-5.72v-22.89H380.93v22.89Z"/><path class="cls-3" d="M421,2016v-5.72h5.72v-22.89H421v-5.72h22.89v5.72h-5.72v22.89h5.72V2016Z"/><path class="cls-3" d="M483.9,2016v-34.33h28.61v5.72h5.72v11.44h-5.72v5.73H495.35V2016Zm22.89-17.17v-11.44H495.35v11.44Z"/><path class="cls-3" d="M529.67,2016v-34.33h28.61v5.72H564v11.44h-5.72v5.73h-5.73v5.72h-5.72v-5.72h-5.72V2016Zm22.88-17.17v-11.44H541.11v11.44Zm0,17.17v-5.72H564V2016Z"/><path class="cls-3" d="M575.44,2016v-34.33h34.32v5.72H586.88v5.72H604v5.72H586.88v11.45h22.88V2016Z"/><path class="cls-3" d="M632.65,2016v-28.61H621.21v-5.72h34.32v5.72H644.09V2016Z"/><path class="cls-3" d="M672.69,2016v-5.72h11.44v-11.45H672.69v-5.72H667v-5.72h5.72v-5.72h22.89v5.72H678.41v5.72h17.17v5.72h5.72v11.45h-5.72V2016Zm-5.72-5.72v-5.72h5.72v5.72Z"/><path class="cls-3" d="M747.06,2004.54v-22.89h17.17v22.89Zm0,11.44v-5.72h17.17V2016Z"/><polygon class="cls-4" points="817.99 1430 272.27 1430 272.27 944.92 545.13 763.01 817.99 944.92 817.99 1430"/><path class="cls-5" d="M542.1,1248.09c67.26,0,128.42-51.39,135.7-117.22,0-73.78-65.13-128.35-135.7-128.35s-135.7,54.57-135.7,128.35C413.68,1196.7,474.85,1248.09,542.1,1248.09Z"/><path class="cls-6" d="M306.38,1063.41,581.51,796.36l-36.38-87.92L272.28,975.24V1049C272.28,1066.75,293.63,1075.78,306.38,1063.41Z"/><rect class="cls-3" x="181.4" y="799.87" width="455.2" height="77.79" rx="10" transform="translate(1291.31 1142.66) rotate(135)"/><rect class="cls-3" x="451.23" y="799.87" width="455.2" height="77.79" rx="10" transform="translate(565.73 1911.87) rotate(-135)"/><path class="cls-7" d="M642.32,1066.76c.24.42.47.85.71,1.28C642.79,1067.61,642.56,1067.18,642.32,1066.76Z"/><path class="cls-7" d="M638.16,1059.89l.53.79Z"/><path class="cls-7" d="M640.52,1063.64c.22.36.43.72.64,1.09C641,1064.36,640.74,1064,640.52,1063.64Z"/><path class="cls-7" d="M645.85,1073.63c.15.3.29.6.43.9C646.14,1074.23,646,1073.93,645.85,1073.63Z"/><path class="cls-7" d="M647.69,1077.71l.51,1.25Z"/><path class="cls-7" d="M655.31,1104.65c0,.24.08.47.11.7C655.39,1105.12,655.35,1104.89,655.31,1104.65Z"/><path class="cls-7" d="M651.65,1088.6c.08.28.18.56.26.85C651.83,1089.16,651.73,1088.88,651.65,1088.6Z"/><path class="cls-7" d="M597.22,977.64A70.37,70.37,0,0,1,591.39,993a71.17,71.17,0,0,1-11.29,15.93,85.05,85.05,0,0,0,3.6-24.58,86.45,86.45,0,0,0-.85-12.12A138.19,138.19,0,0,1,597.22,977.64Z"/><path class="cls-7" d="M631.55,1050.8c.22.27.43.55.65.83C632,1051.35,631.77,1051.07,631.55,1050.8Z"/><path class="cls-7" d="M656.61,1188.27v-66.75c0-1.18,0-2.35-.07-3.52,0-.45,0-.88,0-1.33,0-.84-.09-1.67-.14-2.51,0-.49-.07-1-.11-1.45-.07-.83-.15-1.66-.23-2.49,0-.15,0-.29,0-.43s0-.29,0-.43,0-.29-.06-.45c-.13-1.19-.29-2.38-.46-3.56,0-.24-.07-.46-.11-.7-.16-1-.32-2-.5-3.06l-.27-1.36c-.15-.77-.3-1.55-.47-2.31,0-.12-.05-.24-.07-.36l-.24-1.08c-.19-.77-.37-1.55-.56-2.31,0-.14-.07-.3-.11-.45s-.15-.57-.22-.86c-.3-1.14-.62-2.28-1-3.41-.08-.28-.18-.57-.26-.85-.28-.88-.55-1.76-.85-2.63l-.4-1.2c0-.06,0-.11-.07-.16-.24-.71-.48-1.42-.75-2.12-.17-.46-.35-.93-.53-1.4l-.06-.16c-.26-.66-.52-1.31-.79-2-.17-.41-.33-.83-.51-1.25-.45-1.07-.92-2.13-1.4-3.18-.14-.3-.3-.6-.44-.9-.25-.55-.52-1.09-.79-1.65-.12-.23-.23-.47-.34-.71-.21-.43-.44-.84-.65-1.27-.33-.62-.65-1.25-1-1.86a.47.47,0,0,0-.05-.1l-.7-1.28c-.38-.69-.78-1.36-1.17-2-.21-.37-.42-.73-.64-1.09-.6-1-1.21-2-1.83-3l-.53-.79c-.25-.38-.48-.74-.73-1.11l-.21-.3-.12-.18-.31-.45h0l-.11-.15c-.24-.37-.51-.74-.76-1.1-.45-.63-.9-1.26-1.36-1.88l-.8-1.08c-.51-.67-1-1.34-1.55-2l-.67-.84c-.18-.22-.36-.46-.56-.68-.56-.7-1.13-1.38-1.71-2-.16-.19-.32-.38-.49-.56-.63-.72-1.26-1.43-1.9-2.13-.27-.3-.54-.58-.81-.87-.57-.61-1.15-1.22-1.74-1.81l-.81-.83c-.68-.68-1.36-1.34-2-2l-.53-.5c-.35-.33-.7-.64-1-1l-.31-.29-.38-.33a3.92,3.92,0,0,0-.37-.34l-.61-.55c-.13-.11-.26-.21-.38-.33-.8-.69-1.59-1.36-2.4-2-.24-.21-.49-.4-.74-.6s-.72-.61-1.09-.89a83.63,83.63,0,0,0,6.78-42.51,141.67,141.67,0,0,1,36.21,197.74Z"/><path class="cls-7" d="M656.61,1121.51v66.76h0v-66.76Z"/><path class="cls-7" d="M626.07,1044.51l.8.87Z"/><path class="cls-7" d="M633.75,1053.63l.81,1.08Z"/><path class="cls-7" d="M635.91,1056.59c.26.36.52.73.77,1.1C636.43,1057.32,636.17,1057,635.91,1056.59Z"/><path class="cls-7" d="M443.37,1038.41a65.36,65.36,0,0,1-26.86.15,141.82,141.82,0,0,1,14.14-20.8A82.44,82.44,0,0,0,443.37,1038.41Z"/><path class="cls-7" d="M413.59,1120.58a46.07,46.07,0,0,0,29,42.77c.76-.75,1.55-1.46,2.36-2.15v50.87a141.74,141.74,0,0,1-32.64-165.32,82.63,82.63,0,0,0,32.64,18V1077A46,46,0,0,0,413.59,1120.58Z"/><path class="cls-7" d="M461.57,1020a65.15,65.15,0,0,1-22.68-11.43,142.31,142.31,0,0,1,22-18.41A82.76,82.76,0,0,0,461.57,1020Z"/><path class="cls-7" d="M494.77,973.23a67.68,67.68,0,0,1-10.9,37.3h0l-.07,0a66,66,0,0,1-15.06-25.39A140.58,140.58,0,0,1,494.77,973.23Z"/><path class="cls-7" d="M570.27,1076.35v169.5l-.63.14V1076.62Z"/><path class="cls-7" d="M656.24,1112.71c0,.48.07,1,.11,1.45C656.31,1113.67,656.28,1113.19,656.24,1112.71Z"/><path class="cls-7" d="M656,1110.22c0-.28,0-.57-.08-.85v0C656,1109.67,656,1110,656,1110.22Z"/><path class="cls-7" d="M654.07,1097.92c0-.12,0-.24-.07-.36h0C654,1097.68,654.05,1097.8,654.07,1097.92Z"/><path class="cls-7" d="M656.48,1116.67c0,.44,0,.89.06,1.34C656.53,1117.56,656.5,1117.11,656.48,1116.67Z"/><path class="cls-7" d="M650.81,1086c-.14-.4-.28-.79-.41-1.19h0Z"/><path class="cls-7" d="M653.09,1093.72c-.07-.28-.15-.57-.22-.86l.21.86Z"/><path class="cls-7" d="M654.54,1100.23c.09.45.18.91.26,1.36C654.72,1101.14,654.63,1100.68,654.54,1100.23Z"/><path class="cls-7" d="M620.94,1039.36l.52.5Z"/><path class="cls-7" d="M623.52,1041.87l.81.82Z"/><path class="cls-8" d="M605.55,1027.21l-.64-.4.63.4Z"/><path class="cls-8" d="M595.12,1021.13l1.21.64Z"/><path class="cls-8" d="M598.3,1022.83l1.35.77Z"/><path class="cls-8" d="M608.73,1029.38l.79.58Z"/><path class="cls-8" d="M611.71,1031.57l.86.66Z"/><path class="cls-8" d="M591.9,1019.54a51.92,51.92,0,0,0-4.58,3.78,50.64,50.64,0,0,1,4.59-3.78Z"/><path class="cls-8" d="M601.48,1024.67l1.3.79Z"/><path class="cls-8" d="M424.88,994.41a83.82,83.82,0,0,0,6.39,24.89,82.52,82.52,0,0,0,12.62,20.51l-.52.13.08.09a65.54,65.54,0,0,1-26.32.06,68.17,68.17,0,0,1-16.6-5.62,84.14,84.14,0,0,0,12.38,13.82,82.68,82.68,0,0,0,32.64,18v-3.22a52.56,52.56,0,0,1,3.15-18c-.15-.15-.28-.32-.43-.48a51.56,51.56,0,0,1,3.05-6.72c.24-.09.5-.15.74-.24a53.23,53.23,0,0,1,10.7-13.6c-.2-.84-.4-1.69-.57-2.54a65.1,65.1,0,0,1-22.67-11.43A67.54,67.54,0,0,1,424.88,994.41Z"/><path class="cls-8" d="M621,992.06a80.31,80.31,0,0,0-23.95-49.67,69,69,0,0,1,.78,36.78,71.15,71.15,0,0,1-17.13,31.3c0,.1-.07.19-.1.29l0,0c0-.11,0-.22.13-.32a85.06,85.06,0,0,0,3.61-24.58,86.45,86.45,0,0,0-.86-12.12,83.19,83.19,0,0,0-22.39-46,79.27,79.27,0,0,0-34.67-21.17,68.73,68.73,0,0,1,13.48,19.92,71,71,0,0,1,5,40.82c-.26,1.57-.59,3.12-1,4.64a83.5,83.5,0,0,1,1.84,14.5A83.27,83.27,0,0,0,544,972h0c-.33-1.56-.72-3.13-1.16-4.69h0a85.32,85.32,0,0,0-24.11-39.62h0c-20-18.56-47.83-26.11-73.8-19.91A69.34,69.34,0,0,1,483,935.3q1.62,2.36,3.06,4.87a70.05,70.05,0,0,1,9.38,34.6,67.72,67.72,0,0,1-10.89,37.29,52.57,52.57,0,0,1,13.94-1.86h45a111.85,111.85,0,0,1,15.52,1.07c4.15.56,11.83,1.8,17.93,3.07-.1.09-.19.2-.3.29.83.24,1.64.5,2.45.77-.06.16-.11.32-.16.47a112.9,112.9,0,0,1,13,5.2l-.52.4c.14.07.28.14.41.22.26-.2.49-.43.75-.62,1.08.51,2.15,1,3.21,1.59l1.22.64c.65.36,1.31.7,2,1.07.46.25.91.5,1.35.76q.93.52,1.83,1.08c.44.25.87.51,1.3.78.72.44,1.43.9,2.13,1.36l.63.39a2.4,2.4,0,0,1,.26.18c1,.63,1.91,1.28,2.85,1.94l.08.05.8.58c.73.53,1.47,1.07,2.19,1.61.28.23.57.44.86.67l1,.8A83.42,83.42,0,0,0,621,992.06Z"/><path class="cls-8" d="M466.48,973.48a84.37,84.37,0,0,0-5,18.18,82.76,82.76,0,0,0,.71,29.84c.9.25,1.8.49,2.71.69a52.58,52.58,0,0,1,19.52-10.11,66,66,0,0,1-15.07-25.39A67.77,67.77,0,0,1,466.48,973.48Z"/><path class="cls-8" d="M461.57,1020c.17.85.36,1.7.57,2.54.69-.64,1.4-1.26,2.14-1.85C463.37,1020.45,462.46,1020.22,461.57,1020Z"/><polygon class="cls-9" points="483.86 1010.53 483.79 1010.55 483.82 1010.59 483.86 1010.53"/><path class="cls-9" d="M487.37,1065.12l1.47.3-.64-.53Z"/><path class="cls-9" d="M578.94,1014.34c-.94-.32-1.88-.61-2.84-.9a112.15,112.15,0,0,0-17.07-3.71,113.41,113.41,0,0,0-15.52-1.07h-45a52.63,52.63,0,0,0-13.94,1.87h0l0,.06,0,0A52.53,52.53,0,0,0,465,1020.66c-.74.59-1.45,1.21-2.14,1.85a53.23,53.23,0,0,0-10.7,13.6,50.71,50.71,0,0,0-3.36,7.43,52.66,52.66,0,0,0-3.15,18V1077a46,46,0,0,1,60.75,43.62c0,.73,0,1.46-.05,2.18a45.81,45.81,0,0,1-10.48,27.12,43.38,43.38,0,0,1-3.1,3.4,46,46,0,0,0-46,7c-.37.3-.74.61-1.09.93v50.87a141.14,141.14,0,0,0,95.4,37,142.93,142.93,0,0,0,29.31-3V1062.18a52.78,52.78,0,0,1,21.62-42.64A112.18,112.18,0,0,0,578.94,1014.34Zm-90.89,50.78.83-.23.64.53Zm49,38.84A14.07,14.07,0,1,1,549,1082.4h0a14.06,14.06,0,0,1-11.9,21.56Z"/><path class="cls-10" d="M459.64,1074.54a46,46,0,0,0-17.07,88.81c.76-.75,1.55-1.46,2.36-2.16.36-.31.72-.62,1.09-.92a46,46,0,0,1,56.42-38.4c1.07.26,2.14.56,3.19.89,0-.72.05-1.44.05-2.18A46,46,0,0,0,459.64,1074.54Z"/><path class="cls-11" d="M446,1160.27a45.73,45.73,0,0,1,5.44-16.15,45.73,45.73,0,0,0-5.44,16.15,46,46,0,0,1,46-7h0a46,46,0,0,0-46,7Z"/><path class="cls-11" d="M505.63,1122.76a45.85,45.85,0,0,1-10.48,27.12,45.85,45.85,0,0,0,10.48-27.12c-1.05-.33-2.12-.63-3.19-.89C503.51,1122.13,504.58,1122.43,505.63,1122.76Z"/><path class="cls-12" d="M492.05,1153.28c1.09-1.08,2.12-2.22,3.1-3.4-1,1.18-2,2.32-3.1,3.4Z"/><path class="cls-12" d="M491.61,1120.58a46.07,46.07,0,0,1,10.83,1.29,46,46,0,0,0-51,22.25A46,46,0,0,1,491.61,1120.58Z"/><path class="cls-12" d="M502.44,1121.87a46.06,46.06,0,0,0-56.42,38.4,46,46,0,0,1,46-7c1.09-1.08,2.12-2.22,3.1-3.4a45.85,45.85,0,0,0,10.48-27.12C504.58,1122.43,503.51,1122.13,502.44,1121.87Z"/><path class="cls-13" d="M524.8,1081.9a14.08,14.08,0,1,0,23.48.5A78.08,78.08,0,0,1,524.8,1081.9Z"/><path class="cls-13" d="M536.38,1075.82a14.06,14.06,0,0,0-11.58,6.08,78.08,78.08,0,0,0,23.48.5A14,14,0,0,0,536.38,1075.82Z"/><path class="cls-14" d="M641.16,1064.73c.39.67.78,1.35,1.16,2C641.94,1066.08,641.55,1065.4,641.16,1064.73Z"/><path class="cls-14" d="M624.33,1042.69c.59.6,1.17,1.21,1.74,1.82C625.5,1043.9,624.92,1043.29,624.33,1042.69Z"/><path class="cls-14" d="M621.46,1039.86c.7.67,1.38,1.33,2.06,2C622.84,1041.19,622.16,1040.53,621.46,1039.86Z"/><path class="cls-14" d="M632.2,1051.63c.53.66,1,1.33,1.55,2C633.25,1053,632.73,1052.29,632.2,1051.63Z"/><path class="cls-14" d="M656.54,1118c0-.45,0-.88,0-1.33,0-.84-.09-1.67-.14-2.51,0-.49-.07-1-.11-1.45-.07-.83-.15-1.66-.23-2.49,0-.15,0-.29,0-.43s0-.27,0-.4a1.18,1.18,0,0,1-1.14,1H638a1.18,1.18,0,0,1-1.18-1.18v-1.47a1.18,1.18,0,0,1,1.18-1.18h16.82a1.15,1.15,0,0,1,.82.33c-.06-.49-.12-1-.19-1.5,0-.24-.07-.46-.11-.7-.16-1-.32-2-.5-3.06l-.27-1.36c-.15-.77-.3-1.55-.47-2.31,0-.12-.05-.24-.08-.36H638a1.18,1.18,0,0,1-1.18-1.18v-1.48a1.19,1.19,0,0,1,1.18-1.18h15.12c-.08-.29-.15-.57-.22-.86-.3-1.14-.62-2.28-1-3.41-.08-.28-.18-.57-.26-.85-.28-.88-.55-1.76-.85-2.63l-.4-1.2H638a1.18,1.18,0,0,1-1.18-1.18v-1.48a1.18,1.18,0,0,1,1.18-1.18h11c-.26-.66-.52-1.31-.79-2-.17-.41-.33-.83-.51-1.25-.45-1.07-.92-2.13-1.4-3.18-.14-.3-.3-.6-.44-.9-.25-.55-.52-1.09-.79-1.65H638a1.19,1.19,0,0,1-1.18-1.19v-1.46a1.18,1.18,0,0,1,1.18-1.19h5.11a.47.47,0,0,0-.05-.1l-.7-1.28c-.38-.69-.78-1.36-1.17-2-.21-.37-.42-.73-.64-1.09-.6-1-1.21-2-1.83-3l-.53-.79-.51-.76a1.19,1.19,0,0,1-.86-1.13v-.16l-.11-.15c-.24-.37-.51-.74-.76-1.1-.45-.63-.9-1.26-1.36-1.88l-.8-1.08c-.51-.67-1-1.34-1.55-2l-.67-.84c-.18-.22-.36-.46-.56-.68a1.15,1.15,0,0,1-.5.12H613.67a1.19,1.19,0,0,1-1.18-1.18v-1.48a1.18,1.18,0,0,1,1.18-1.18h14.11c-.29-.34-.6-.68-.9-1s-.54-.58-.81-.87c-.57-.61-1.15-1.22-1.74-1.81l-.81-.83c-.68-.68-1.36-1.34-2-2l-.53-.5c-.35-.33-.7-.64-1-1l-.31-.29-.38-.33a3.92,3.92,0,0,0-.37-.34h-5.17a1.18,1.18,0,0,1-1.18-1.18v-.74c-.4.81-.81,1.63-1.22,2.43-.83,1.59-1.72,3.13-2.62,4.64v.07a1.18,1.18,0,0,1-.69,1.06,84.21,84.21,0,0,1-6.5,9.08h6a1.18,1.18,0,0,1,1.18,1.18v1.47a1.18,1.18,0,0,1-1.18,1.18H598.1A83.28,83.28,0,0,1,578.89,1072h6.83a1.18,1.18,0,0,1,1.18,1.19v1.46a1.18,1.18,0,0,1-1.18,1.19h-14.3l-1.15.53v8.42h15.45a1.18,1.18,0,0,1,1.18,1.19v1.46a1.18,1.18,0,0,1-1.18,1.18H570.27v9h15.45a1.18,1.18,0,0,1,1.18,1.18v1.47a1.19,1.19,0,0,1-1.18,1.19H570.27v8.95h15.45a1.18,1.18,0,0,1,1.18,1.18V1113a1.18,1.18,0,0,1-1.18,1.18H570.27v9h15.45a1.19,1.19,0,0,1,1.18,1.18v1.48a1.18,1.18,0,0,1-1.18,1.18H570.27v9h15.45a1.18,1.18,0,0,1,1.18,1.18v1.47a1.18,1.18,0,0,1-1.18,1.18H570.27v9h15.45a1.18,1.18,0,0,1,1.18,1.18v1.46a1.18,1.18,0,0,1-1.18,1.19H570.27v9h15.45a1.18,1.18,0,0,1,1.18,1.19v1.47a1.19,1.19,0,0,1-1.18,1.18H570.27v9h15.45a1.19,1.19,0,0,1,1.18,1.18V1177a1.18,1.18,0,0,1-1.18,1.18H570.27v9h15.45a1.18,1.18,0,0,1,1.18,1.18v1.47a1.18,1.18,0,0,1-1.18,1.18H570.27v9h15.45a1.18,1.18,0,0,1,1.18,1.18v1.47a1.18,1.18,0,0,1-1.18,1.18H570.27v9h15.45a1.18,1.18,0,0,1,1.18,1.18v1.48a1.19,1.19,0,0,1-1.18,1.18H570.27v9h15.45a1.18,1.18,0,0,1,1.18,1.18v1.47a1.18,1.18,0,0,1-1.18,1.19H570.27v8.94h15.45a1.19,1.19,0,0,1,1.18,1.2v1.46a.88.88,0,0,1-.06.29,138.87,138.87,0,0,0,13.51-5.5h-9.71a1.18,1.18,0,0,1-1.18-1.19v-1.46a1.18,1.18,0,0,1,1.18-1.19h16.83a1,1,0,0,1,.35.08c1.72-.94,3.43-1.92,5.11-2.92a1.13,1.13,0,0,1-.44-.9v-1.47a1.18,1.18,0,0,1,1.18-1.18h4.89a140.39,140.39,0,0,0,12.1-9,1,1,0,0,1-.18,0H613.67a1.19,1.19,0,0,1-1.18-1.18v-1.48a1.18,1.18,0,0,1,1.18-1.18h16.81a1.18,1.18,0,0,1,1.19,1.18v1.48a1,1,0,0,1-.07.35c1.77-1.48,3.5-3,5.19-4.59V1210a1.19,1.19,0,0,1,1.18-1.18h1.19q4.4-4.29,8.42-8.95H638a1.18,1.18,0,0,1-1.18-1.18v-1.48a1.18,1.18,0,0,1,1.18-1.18h12.81q3-3.78,5.83-7.78v-66.75C656.6,1120.34,656.58,1119.17,656.54,1118Zm-47.89,103.73a1.18,1.18,0,0,1-1.18,1.18H590.64a1.18,1.18,0,0,1-1.18-1.18v-1.47a1.18,1.18,0,0,1,1.18-1.18h16.83a1.18,1.18,0,0,1,1.18,1.18Zm0-12.79a1.18,1.18,0,0,1-1.18,1.18H590.64a1.18,1.18,0,0,1-1.18-1.18v-1.48a1.19,1.19,0,0,1,1.18-1.18h16.83a1.19,1.19,0,0,1,1.18,1.18Zm0-12.79a1.18,1.18,0,0,1-1.18,1.18H590.64a1.18,1.18,0,0,1-1.18-1.18v-1.48a1.18,1.18,0,0,1,1.18-1.18h16.83a1.18,1.18,0,0,1,1.18,1.18Zm0-12.8a1.18,1.18,0,0,1-1.18,1.18H590.64a1.18,1.18,0,0,1-1.18-1.18v-1.47a1.18,1.18,0,0,1,1.18-1.18h16.83a1.18,1.18,0,0,1,1.18,1.18Zm0-12.79a1.18,1.18,0,0,1-1.18,1.18H590.64a1.18,1.18,0,0,1-1.18-1.18v-1.47a1.18,1.18,0,0,1,1.18-1.18h16.83a1.18,1.18,0,0,1,1.18,1.18Zm0-12.79a1.18,1.18,0,0,1-1.18,1.19H590.64a1.18,1.18,0,0,1-1.18-1.19v-1.46a1.19,1.19,0,0,1,1.18-1.2h16.83a1.19,1.19,0,0,1,1.18,1.2Zm0-12.78a1.18,1.18,0,0,1-1.18,1.18H590.64a1.18,1.18,0,0,1-1.18-1.18v-1.48a1.18,1.18,0,0,1,1.18-1.18h16.83a1.18,1.18,0,0,1,1.18,1.18Zm0-12.79a1.19,1.19,0,0,1-1.18,1.18H590.64a1.19,1.19,0,0,1-1.18-1.18v-1.48a1.18,1.18,0,0,1,1.18-1.18h16.83a1.18,1.18,0,0,1,1.18,1.18Zm0-12.8a1.18,1.18,0,0,1-1.18,1.18H590.64a1.18,1.18,0,0,1-1.18-1.18v-1.47a1.18,1.18,0,0,1,1.18-1.18h16.83a1.18,1.18,0,0,1,1.18,1.18Zm0-12.79a1.18,1.18,0,0,1-1.18,1.18H590.64a1.18,1.18,0,0,1-1.18-1.18v-1.47a1.18,1.18,0,0,1,1.18-1.18h16.83a1.18,1.18,0,0,1,1.18,1.18Zm0-12.79a1.18,1.18,0,0,1-1.18,1.18H590.64a1.18,1.18,0,0,1-1.18-1.18v-1.48a1.19,1.19,0,0,1,1.18-1.18h16.83a1.19,1.19,0,0,1,1.18,1.18Zm0-12.79a1.19,1.19,0,0,1-1.18,1.19H590.64a1.19,1.19,0,0,1-1.18-1.19v-1.47a1.18,1.18,0,0,1,1.18-1.19h16.83a1.18,1.18,0,0,1,1.18,1.19Zm0-12.8a1.18,1.18,0,0,1-1.18,1.19H590.64a1.18,1.18,0,0,1-1.18-1.19v-1.46a1.18,1.18,0,0,1,1.18-1.18h16.83a1.18,1.18,0,0,1,1.18,1.18Zm23,134.31a1.18,1.18,0,0,1-1.19,1.18H613.67a1.18,1.18,0,0,1-1.18-1.18v-1.47a1.18,1.18,0,0,1,1.18-1.18h16.81a1.18,1.18,0,0,1,1.19,1.18Zm0-12.79a1.18,1.18,0,0,1-1.19,1.18H613.67a1.18,1.18,0,0,1-1.18-1.18v-1.47a1.18,1.18,0,0,1,1.18-1.18h16.81a1.18,1.18,0,0,1,1.19,1.18Zm0-12.79a1.18,1.18,0,0,1-1.19,1.18H613.67a1.18,1.18,0,0,1-1.18-1.18v-1.48a1.19,1.19,0,0,1,1.18-1.18h16.81a1.19,1.19,0,0,1,1.19,1.18Zm0-12.79a1.19,1.19,0,0,1-1.19,1.18H613.67a1.19,1.19,0,0,1-1.18-1.18v-1.47a1.18,1.18,0,0,1,1.18-1.19h16.81a1.19,1.19,0,0,1,1.19,1.19Zm0-12.8a1.19,1.19,0,0,1-1.19,1.19H613.67a1.18,1.18,0,0,1-1.18-1.19v-1.46a1.18,1.18,0,0,1,1.18-1.18h16.81a1.18,1.18,0,0,1,1.19,1.18Zm0-12.78a1.18,1.18,0,0,1-1.19,1.18H613.67a1.18,1.18,0,0,1-1.18-1.18v-1.47a1.18,1.18,0,0,1,1.18-1.18h16.81a1.18,1.18,0,0,1,1.19,1.18Zm0-12.79a1.18,1.18,0,0,1-1.19,1.18H613.67a1.18,1.18,0,0,1-1.18-1.18v-1.48a1.19,1.19,0,0,1,1.18-1.18h16.81a1.19,1.19,0,0,1,1.19,1.18Zm0-12.79a1.18,1.18,0,0,1-1.19,1.18H613.67a1.18,1.18,0,0,1-1.18-1.18v-1.48a1.18,1.18,0,0,1,1.18-1.18h16.81a1.18,1.18,0,0,1,1.19,1.18Zm0-12.8a1.19,1.19,0,0,1-1.19,1.19H613.67a1.19,1.19,0,0,1-1.18-1.19v-1.47a1.18,1.18,0,0,1,1.18-1.18h16.81a1.18,1.18,0,0,1,1.19,1.18Zm0-12.79a1.18,1.18,0,0,1-1.19,1.18H613.67a1.18,1.18,0,0,1-1.18-1.18V1086a1.18,1.18,0,0,1,1.18-1.19h16.81a1.19,1.19,0,0,1,1.19,1.19Zm0-12.79a1.19,1.19,0,0,1-1.19,1.19H613.67a1.18,1.18,0,0,1-1.18-1.19v-1.46a1.18,1.18,0,0,1,1.18-1.19h16.81a1.19,1.19,0,0,1,1.19,1.19Zm0-12.78a1.18,1.18,0,0,1-1.19,1.18H613.67a1.18,1.18,0,0,1-1.18-1.18v-1.48a1.19,1.19,0,0,1,1.18-1.18h16.81a1.19,1.19,0,0,1,1.19,1.18ZM656,1185.91a1.19,1.19,0,0,1-1.18,1.19H638a1.19,1.19,0,0,1-1.18-1.19v-1.47a1.18,1.18,0,0,1,1.18-1.18h16.82a1.18,1.18,0,0,1,1.18,1.18Zm0-12.79a1.18,1.18,0,0,1-1.18,1.18H638a1.18,1.18,0,0,1-1.18-1.18v-1.47a1.18,1.18,0,0,1,1.18-1.18h16.82a1.18,1.18,0,0,1,1.18,1.18Zm0-12.79a1.18,1.18,0,0,1-1.18,1.18H638a1.18,1.18,0,0,1-1.18-1.18v-1.47a1.18,1.18,0,0,1,1.18-1.18h16.82a1.18,1.18,0,0,1,1.18,1.18Zm0-12.79a1.18,1.18,0,0,1-1.18,1.19H638a1.18,1.18,0,0,1-1.18-1.19v-1.47a1.19,1.19,0,0,1,1.18-1.19h16.82a1.19,1.19,0,0,1,1.18,1.19Zm0-12.79a1.19,1.19,0,0,1-1.18,1.19H638a1.19,1.19,0,0,1-1.18-1.19v-1.47a1.18,1.18,0,0,1,1.18-1.18h16.82a1.18,1.18,0,0,1,1.18,1.18Zm0-12.79a1.18,1.18,0,0,1-1.18,1.18H638a1.18,1.18,0,0,1-1.18-1.18v-1.47a1.18,1.18,0,0,1,1.18-1.18h16.82a1.18,1.18,0,0,1,1.18,1.18Z"/><path class="cls-14" d="M651.91,1089.45c.34,1.13.66,2.27,1,3.41C652.57,1091.72,652.25,1090.58,651.91,1089.45Z"/><path class="cls-14" d="M634.56,1054.71c.46.62.91,1.25,1.35,1.88C635.47,1056,635,1055.33,634.56,1054.71Z"/><path class="cls-14" d="M646.28,1074.53q.74,1.58,1.41,3.18Q647,1076.11,646.28,1074.53Z"/><path class="cls-14" d="M615.45,1034.53c.81.67,1.61,1.35,2.4,2C617.06,1035.87,616.26,1035.2,615.45,1034.53Z"/><path class="cls-14" d="M638.69,1060.68c.62,1,1.23,2,1.83,3C639.92,1062.64,639.31,1061.65,638.69,1060.68Z"/><path class="cls-14" d="M649.58,1082.49c.26.71.51,1.41.76,2.12C650.09,1083.9,649.84,1083.2,649.58,1082.49Z"/><path class="cls-14" d="M655.88,1108.91c-.14-1.19-.29-2.38-.46-3.56.07.5.13,1,.19,1.5C655.7,1107.54,655.8,1108.22,655.88,1108.91Z"/><path class="cls-14" d="M650.81,1086q.44,1.32.84,2.64Q651.25,1087.28,650.81,1086Z"/><path class="cls-14" d="M645.85,1073.63c-.37-.79-.75-1.58-1.13-2.36.11.24.22.48.34.71C645.33,1072.53,645.59,1073.08,645.85,1073.63Z"/><path class="cls-14" d="M614.31,1033.61l.4.31-1.09-.88v0Z"/><path class="cls-14" d="M614.31,1033.61l-.7-.55c-.09.2-.19.41-.28.62a1,1,0,0,1,.34-.07Z"/><path class="cls-14" d="M649.05,1081.1c-.27-.72-.56-1.43-.85-2.14.27.66.53,1.31.79,2Z"/><path class="cls-14" d="M644.06,1070c-.34-.66-.68-1.31-1-2l.05.1C643.41,1068.76,643.74,1069.38,644.06,1070Z"/><path class="cls-14" d="M628.78,1047.51c-.63-.72-1.26-1.43-1.91-2.13.31.33.61.68.92,1Z"/><path class="cls-14" d="M631.55,1050.8c-.75-.92-1.5-1.83-2.28-2.73.58.67,1.15,1.36,1.71,2Z"/><path class="cls-14" d="M620.94,1039.36c-.89-.84-1.8-1.66-2.72-2.47l.62.56C619.54,1038.08,620.25,1038.71,620.94,1039.36Z"/><path class="cls-14" d="M656.35,1114.16c0,.83.1,1.67.13,2.51C656.45,1115.83,656.4,1115,656.35,1114.16Z"/><polygon class="cls-14" points="570.28 1238.26 570.28 1229.31 570.28 1225.47 570.28 1216.51 570.28 1212.68 570.28 1203.72 570.28 1199.89 570.28 1190.93 570.28 1187.1 570.28 1178.14 570.28 1174.31 570.28 1165.35 570.28 1161.52 570.28 1152.56 570.28 1148.72 570.28 1139.77 570.28 1135.93 570.28 1126.98 570.28 1123.14 570.28 1114.19 570.28 1110.35 570.28 1101.4 570.28 1097.56 570.28 1088.61 570.28 1084.77 570.28 1076.34 570.27 1076.35 570.27 1245.85 570.28 1245.84 570.28 1242.1 570.28 1238.26"/><path class="cls-14" d="M653.2,1094.17c.19.77.38,1.53.55,2.31C653.58,1095.7,653.39,1094.94,653.2,1094.17Z"/><path class="cls-14" d="M656,1110.22c.09.83.16,1.66.23,2.49C656.17,1111.88,656.1,1111.05,656,1110.22Z"/><path class="cls-14" d="M656.54,1118c0,1.16.06,2.33.07,3.5C656.6,1120.34,656.58,1119.17,656.54,1118Z"/><path class="cls-14" d="M654.07,1097.92c.17.76.32,1.54.47,2.31C654.39,1099.46,654.24,1098.68,654.07,1097.92Z"/><path class="cls-14" d="M654.8,1101.59c.19,1,.35,2,.51,3.06C655.15,1103.63,655,1102.61,654.8,1101.59Z"/><path class="cls-14" d="M637.65,1059.12l.51.77c-.48-.74-1-1.48-1.48-2.2l.11.15C637.08,1058.26,637.36,1058.7,637.65,1059.12Z"/><path class="cls-14" d="M570.28,1075.82v-13.63q0-1.51.09-3a52.73,52.73,0,0,1,1.28-9c.3-1.3.63-2.58,1-3.84a51.89,51.89,0,0,1,3.75-9q1.05-2,2.26-3.84a52.45,52.45,0,0,1,7.32-9l.83-.83.48-.45a52.7,52.7,0,0,0-17.05,38.86v14.17h0Z"/><path class="cls-14" d="M591.91,1019.54h0c1.08.51,2.15,1.05,3.21,1.59C594.06,1020.59,593,1020.05,591.91,1019.54Z"/><path class="cls-14" d="M609.52,1030c.74.53,1.47,1.07,2.19,1.61C611,1031,610.26,1030.49,609.52,1030Z"/><path class="cls-14" d="M570.28,1076.34c.38-.16.76-.35,1.15-.52h-1.15Z"/><path class="cls-14" d="M586,1024.6a52.45,52.45,0,0,0-7.32,9h7a1.18,1.18,0,0,1,1.18,1.18v1.47a1.19,1.19,0,0,1-1.18,1.19h-9.29a51.89,51.89,0,0,0-3.75,9h13a1.18,1.18,0,0,1,1.18,1.18v1.47a1.19,1.19,0,0,1-1.18,1.19H571.65a52.73,52.73,0,0,0-1.28,9h15.35a1.18,1.18,0,0,1,1.18,1.18v1.47a1.19,1.19,0,0,1-1.18,1.19H570.28v9h8.62a83,83,0,0,0,19.2-15.35h-7.45a1.18,1.18,0,0,1-1.19-1.18V1054a1.19,1.19,0,0,1,1.19-1.19h10.81a84.08,84.08,0,0,0,6.5-9.07,1.18,1.18,0,0,1-.49.12H590.65a1.18,1.18,0,0,1-1.19-1.18v-1.47a1.19,1.19,0,0,1,1.19-1.19h16.82a1.19,1.19,0,0,1,1.18,1.19v1.4c.91-1.51,1.79-3,2.62-4.64.42-.81.82-1.62,1.22-2.44v-.72a1.17,1.17,0,0,1,.84-1.11c.09-.21.19-.42.28-.62l-1-.83-.86-.66c-.72-.54-1.45-1.08-2.19-1.61l-.79-.58-.08-.05v.54a1.18,1.18,0,0,1-1.18,1.18H590.65a1.18,1.18,0,0,1-1.19-1.18v-1.47a1.19,1.19,0,0,1,1.19-1.19h14.89l-.63-.4q-1.06-.69-2.13-1.35l-1.3-.79c-.61-.36-1.21-.72-1.83-1.07l-1.35-.77c-.65-.36-1.31-.71-2-1.06l-1.21-.64c-1.06-.54-2.13-1.08-3.21-1.59a50.64,50.64,0,0,0-4.59,3.78l-.48.45A1.16,1.16,0,0,1,586,1024.6Z"/><path class="cls-14" d="M602.78,1025.46q1.07.66,2.13,1.35Q603.85,1026.12,602.78,1025.46Z"/><path class="cls-14" d="M596.33,1021.77c.66.35,1.32.7,2,1.06C597.65,1022.47,597,1022.12,596.33,1021.77Z"/><path class="cls-14" d="M608.73,1029.38c-1-.68-1.94-1.35-2.93-2,1,.63,1.91,1.29,2.85,1.95Z"/><path class="cls-14" d="M613.62,1033l-1-.81,1,.83Z"/><path class="cls-14" d="M599.65,1023.6c.62.35,1.22.71,1.83,1.07C600.87,1024.31,600.27,1024,599.65,1023.6Z"/><rect class="cls-15" x="612.49" y="1071.98" width="19.19" height="3.84" rx="1.18"/><rect class="cls-15" x="612.49" y="1084.77" width="19.19" height="3.84" rx="1.18"/><rect class="cls-15" x="612.49" y="1097.56" width="19.19" height="3.84" rx="1.18"/><path class="cls-15" d="M614.71,1033.92l.74.61Z"/><path class="cls-15" d="M617.85,1036.56l.37.33Z"/><path class="cls-15" d="M613.67,1033.61a1,1,0,0,0-.34.07c-.28.61-.55,1.22-.84,1.83v.75a1.19,1.19,0,0,0,1.18,1.19h5.17l-.62-.56-.37-.33c-.79-.68-1.59-1.36-2.4-2l-.74-.61-.4-.31Z"/><path class="cls-15" d="M612.49,1034.79v.72c.29-.61.56-1.22.84-1.83A1.17,1.17,0,0,0,612.49,1034.79Z"/><path class="cls-15" d="M628.78,1047.51l.49.56Z"/><path class="cls-15" d="M613.67,1046.4a1.18,1.18,0,0,0-1.18,1.18v1.47a1.19,1.19,0,0,0,1.18,1.19h16.82a1.14,1.14,0,0,0,.49-.12c-.56-.69-1.13-1.38-1.71-2l-.49-.56-1-1.11Z"/><rect class="cls-15" x="612.49" y="1059.19" width="19.19" height="3.84" rx="1.18"/><rect class="cls-15" x="612.49" y="1110.35" width="19.19" height="3.84" rx="1.18"/><rect class="cls-15" x="612.49" y="1123.14" width="19.19" height="3.84" rx="1.18"/><rect class="cls-15" x="612.49" y="1135.93" width="19.19" height="3.84" rx="1.18"/><rect class="cls-15" x="612.49" y="1148.72" width="19.19" height="3.84" rx="1.18"/><rect class="cls-15" x="612.49" y="1161.51" width="19.19" height="3.84" rx="1.18"/><rect class="cls-15" x="612.49" y="1174.31" width="19.19" height="3.84" rx="1.18"/><rect class="cls-15" x="612.49" y="1187.1" width="19.19" height="3.84" rx="1.18"/><rect class="cls-15" x="612.49" y="1199.89" width="19.19" height="3.84" rx="1.18"/><path class="cls-15" d="M631.6,1215.69a1.16,1.16,0,0,1-.94.79Z"/><path class="cls-15" d="M631.67,1215.33v-1.47a1.18,1.18,0,0,0-1.18-1.18H613.67a1.18,1.18,0,0,0-1.18,1.18v1.47a1.18,1.18,0,0,0,1.18,1.18h16.82a.76.76,0,0,0,.16,0l1-.79A1,1,0,0,0,631.67,1215.33Z"/><path class="cls-15" d="M618.56,1225.47c-1.84,1.23-3.73,2.41-5.63,3.55a1.13,1.13,0,0,1-.44-.9v-1.47a1.18,1.18,0,0,1,1.18-1.18Z"/><path class="cls-15" d="M649.05,1081.1c.18.46.36.93.53,1.39C649.41,1082,649.23,1081.56,649.05,1081.1Z"/><path class="cls-15" d="M650.4,1084.77l-.06-.16a1,1,0,0,1,0,.16Z"/><path class="cls-15" d="M638,1080.93a1.19,1.19,0,0,0-1.18,1.19v1.47a1.18,1.18,0,0,0,1.18,1.18h12.42a1,1,0,0,0,0-.16c-.25-.71-.5-1.41-.76-2.12-.17-.46-.35-.93-.53-1.39l-.06-.17Z"/><path class="cls-15" d="M653.2,1094.17c0-.15-.07-.3-.11-.45h0Z"/><path class="cls-15" d="M654,1097.56c-.08-.36-.16-.72-.25-1.08.09.36.16.72.24,1.08Z"/><path class="cls-15" d="M638,1093.72a1.19,1.19,0,0,0-1.18,1.19v1.47a1.18,1.18,0,0,0,1.18,1.18h16c-.08-.36-.15-.72-.24-1.08-.17-.78-.36-1.54-.55-2.31l-.12-.45Z"/><path class="cls-15" d="M655.93,1109.37c0-.16,0-.31,0-.46,0,.16,0,.32,0,.49Z"/><path class="cls-15" d="M654.79,1106.51H638a1.19,1.19,0,0,0-1.18,1.19v1.47a1.18,1.18,0,0,0,1.18,1.18h16.82a1.18,1.18,0,0,0,1.14-.95c0-.17,0-.33,0-.49-.08-.69-.18-1.37-.27-2.06A1.2,1.2,0,0,0,654.79,1106.51Z"/><path class="cls-15" d="M636.79,1058a1.17,1.17,0,0,0,.86,1.11c-.29-.42-.57-.86-.86-1.28Z"/><path class="cls-15" d="M644.06,1070l.66,1.27Z"/><path class="cls-15" d="M638,1068.14a1.18,1.18,0,0,0-1.18,1.19v1.47A1.18,1.18,0,0,0,638,1072h7.09c-.12-.23-.23-.47-.34-.71l-.66-1.27c-.32-.62-.65-1.24-1-1.86Z"/><rect class="cls-15" x="636.79" y="1119.31" width="19.19" height="3.84" rx="1.18"/><rect class="cls-15" x="636.79" y="1132.1" width="19.19" height="3.84" rx="1.18"/><rect class="cls-15" x="636.79" y="1144.89" width="19.19" height="3.84" rx="1.18"/><rect class="cls-15" x="636.79" y="1157.68" width="19.19" height="3.84" rx="1.18"/><rect class="cls-15" x="636.79" y="1170.47" width="19.19" height="3.84" rx="1.18"/><rect class="cls-15" x="636.79" y="1183.26" width="19.19" height="3.84" rx="1.18"/><path class="cls-15" d="M650.78,1196.05c-1,1.3-2.11,2.57-3.2,3.84H638a1.18,1.18,0,0,1-1.18-1.18v-1.48a1.18,1.18,0,0,1,1.18-1.18Z"/><path class="cls-15" d="M639.16,1208.84c-.79.76-1.57,1.51-2.37,2.26V1210a1.19,1.19,0,0,1,1.18-1.18Z"/><rect class="cls-15" x="589.46" y="1065.58" width="19.19" height="3.84" rx="1.18"/><rect class="cls-15" x="589.46" y="1078.38" width="19.19" height="3.84" rx="1.18"/><rect class="cls-15" x="589.46" y="1091.17" width="19.19" height="3.84" rx="1.18"/><path class="cls-15" d="M605.8,1027.38l-.25-.17h0Z"/><path class="cls-15" d="M590.65,1027.21a1.19,1.19,0,0,0-1.19,1.19v1.47a1.18,1.18,0,0,0,1.19,1.18h16.82a1.18,1.18,0,0,0,1.18-1.18v-.54c-.94-.66-1.89-1.32-2.85-1.95l-.26-.17Z"/><path class="cls-15" d="M608.65,1042.66v-.07l-.69,1.13A1.18,1.18,0,0,0,608.65,1042.66Z"/><path class="cls-15" d="M607.47,1040H590.65a1.19,1.19,0,0,0-1.19,1.19v1.47a1.18,1.18,0,0,0,1.19,1.18h16.82a1.18,1.18,0,0,0,.49-.12l.69-1.13v-1.4A1.19,1.19,0,0,0,607.47,1040Z"/><path class="cls-15" d="M607.47,1056.63a1.18,1.18,0,0,0,1.18-1.18V1054a1.19,1.19,0,0,0-1.18-1.19h-6q-1.63,2-3.36,3.84Z"/><path class="cls-15" d="M589.46,1054v1.47a1.18,1.18,0,0,0,1.19,1.18h7.45q1.73-1.86,3.36-3.84H590.65A1.19,1.19,0,0,0,589.46,1054Z"/><rect class="cls-15" x="589.46" y="1103.96" width="19.19" height="3.84" rx="1.18"/><rect class="cls-15" x="589.46" y="1116.75" width="19.19" height="3.84" rx="1.18"/><rect class="cls-15" x="589.46" y="1129.54" width="19.19" height="3.84" rx="1.18"/><rect class="cls-15" x="589.46" y="1142.33" width="19.19" height="3.84" rx="1.18"/><rect class="cls-15" x="589.46" y="1155.12" width="19.19" height="3.84" rx="1.18"/><rect class="cls-15" x="589.46" y="1167.91" width="19.19" height="3.84" rx="1.18"/><rect class="cls-15" x="589.46" y="1180.7" width="19.19" height="3.84" rx="1.18"/><rect class="cls-15" x="589.46" y="1193.49" width="19.19" height="3.84" rx="1.18"/><rect class="cls-15" x="589.46" y="1206.28" width="19.19" height="3.84" rx="1.18"/><rect class="cls-15" x="589.46" y="1219.07" width="19.19" height="3.84" rx="1.18"/><path class="cls-15" d="M586.9,1049.05v-1.47a1.18,1.18,0,0,0-1.18-1.18h-13c-.4,1.26-.73,2.54-1,3.84h14.07A1.19,1.19,0,0,0,586.9,1049.05Z"/><path class="cls-15" d="M586.9,1061.84v-1.47a1.18,1.18,0,0,0-1.18-1.18H570.37q-.09,1.49-.09,3v.84h15.44A1.19,1.19,0,0,0,586.9,1061.84Z"/><path class="cls-15" d="M585.72,1075.82a1.19,1.19,0,0,0,1.18-1.19v-1.47a1.18,1.18,0,0,0-1.18-1.18H578.9a83.58,83.58,0,0,1-7.47,3.84Z"/><path class="cls-15" d="M570.28,1075.82h1.15a83.58,83.58,0,0,0,7.47-3.84h-8.62Z"/><path class="cls-15" d="M586.84,1023.77l-.83.83A1.16,1.16,0,0,0,586.84,1023.77Z"/><path class="cls-15" d="M586.9,1036.26v-1.47a1.18,1.18,0,0,0-1.18-1.18h-7q-1.22,1.86-2.26,3.84h9.29A1.19,1.19,0,0,0,586.9,1036.26Z"/><path class="cls-15" d="M585.72,1088.61a1.18,1.18,0,0,0,1.18-1.18V1086a1.18,1.18,0,0,0-1.18-1.18H570.28v3.84Z"/><path class="cls-15" d="M585.72,1101.4a1.18,1.18,0,0,0,1.18-1.18v-1.48a1.18,1.18,0,0,0-1.18-1.18H570.28v3.84Z"/><path class="cls-15" d="M585.72,1114.19a1.18,1.18,0,0,0,1.18-1.18v-1.48a1.18,1.18,0,0,0-1.18-1.18H570.28v3.84Z"/><path class="cls-15" d="M585.72,1127a1.18,1.18,0,0,0,1.18-1.18v-1.47a1.18,1.18,0,0,0-1.18-1.19H570.28V1127Z"/><path class="cls-15" d="M585.72,1139.77a1.18,1.18,0,0,0,1.18-1.18v-1.47a1.19,1.19,0,0,0-1.18-1.19H570.28v3.84Z"/><path class="cls-15" d="M585.72,1152.56a1.18,1.18,0,0,0,1.18-1.18v-1.47a1.19,1.19,0,0,0-1.18-1.19H570.28v3.84Z"/><path class="cls-15" d="M585.72,1165.35a1.18,1.18,0,0,0,1.18-1.18v-1.47a1.19,1.19,0,0,0-1.18-1.19H570.28v3.84Z"/><path class="cls-15" d="M585.72,1178.14a1.18,1.18,0,0,0,1.18-1.18v-1.47a1.18,1.18,0,0,0-1.18-1.18H570.28v3.83Z"/><path class="cls-15" d="M585.72,1190.93a1.18,1.18,0,0,0,1.18-1.18v-1.47a1.18,1.18,0,0,0-1.18-1.18H570.28v3.83Z"/><path class="cls-15" d="M585.72,1203.72a1.18,1.18,0,0,0,1.18-1.18v-1.47a1.18,1.18,0,0,0-1.18-1.18H570.28v3.83Z"/><path class="cls-15" d="M585.72,1216.51a1.18,1.18,0,0,0,1.18-1.18v-1.47a1.18,1.18,0,0,0-1.18-1.18H570.28v3.83Z"/><path class="cls-15" d="M585.72,1229.3a1.18,1.18,0,0,0,1.18-1.18v-1.47a1.18,1.18,0,0,0-1.18-1.18H570.28v3.83Z"/><path class="cls-6" d="M542.1,1248.09c-67.25,0-128.42-51.39-135.7-117.22a136.43,136.43,0,1,0,271.4,0C670.52,1196.7,609.36,1248.09,542.1,1248.09Z"/><circle class="cls-3" cx="388.19" cy="2276.69" r="18.09"/><circle class="cls-16" cx="388.69" cy="2276.69" r="36.27"/><circle class="cls-3" cx="717.32" cy="2276.69" r="18.09"/><circle class="cls-3" cx="552.28" cy="2276.69" r="18.09"/><path class="cls-3" d="M453.5,197.5a55.16,55.16,0,0,0,8.06,9c.87-1.81,1.78-3.58,2.75-5.33A44.62,44.62,0,0,1,453.5,197.5Zm15.85-26.07a54.21,54.21,0,0,0,4.17,16.19q2.53-3.12,5.36-6A44,44,0,0,1,469.35,171.43Zm27.08-13.63a55.2,55.2,0,0,0-3.26,11.84q2.52-1.71,5.13-3.24A43.8,43.8,0,0,1,496.43,157.8ZM597,169.89a52.24,52.24,0,0,0-15.58-32.32,44.92,44.92,0,0,1,.5,23.93A92.35,92.35,0,0,1,597,169.89Zm-52.81-42.66h-.3a123,123,0,0,0-13.51.75h0a120,120,0,0,0-23.25,5c.7,1,1.37,2.08,2,3.17a45.61,45.61,0,0,1,6.1,22.52,92.09,92.09,0,0,1,29.66-4.88h1.19c.47,0,.93,0,1.39,0A92,92,0,0,1,572.58,158,54.15,54.15,0,0,0,558,128.05,125.49,125.49,0,0,0,544.21,127.23Z"/><path class="cls-7" d="M611.3,219.51l.45.84Z"/><path class="cls-7" d="M608.59,215c.11.17.23.34.34.52C608.82,215.38,608.7,215.21,608.59,215Z"/><path class="cls-7" d="M610.12,217.48l.42.71Z"/><path class="cls-7" d="M613.59,224c.1.19.19.39.28.58C613.78,224.38,613.69,224.18,613.59,224Z"/><path class="cls-7" d="M614.79,226.65c.11.26.22.54.33.81C615,227.19,614.9,226.91,614.79,226.65Z"/><path class="cls-7" d="M619.75,244.18c0,.15,0,.3.07.45C619.8,244.48,619.77,244.33,619.75,244.18Z"/><path class="cls-7" d="M617.36,233.73l.18.55Z"/><path class="cls-7" d="M581.94,161.5a46.27,46.27,0,0,1-11.15,20.38A55.71,55.71,0,0,0,572.58,158,93.68,93.68,0,0,1,581.94,161.5Z"/><path class="cls-7" d="M604.28,209.13l.43.54Z"/><path class="cls-7" d="M620.6,298.61V255.16c0-.77,0-1.53-.05-2.29,0-.29,0-.58,0-.87,0-.54-.06-1.09-.1-1.63l-.06-.94c-.05-.55-.1-1.08-.16-1.63a2.46,2.46,0,0,1,0-.28c0-.09,0-.18,0-.27s0-.2,0-.3c-.09-.77-.19-1.55-.3-2.32,0-.15-.05-.3-.07-.45-.1-.67-.21-1.33-.33-2-.06-.29-.11-.58-.17-.88-.1-.5-.2-1-.31-1.5a2,2,0,0,1,0-.24c-.06-.23-.11-.47-.16-.7-.12-.5-.24-1-.37-1.5,0-.1,0-.2-.07-.3s-.09-.37-.14-.55c-.2-.75-.4-1.49-.62-2.23-.06-.18-.12-.37-.17-.55-.18-.57-.36-1.14-.56-1.71-.08-.26-.17-.52-.26-.78,0,0,0-.07,0-.11-.16-.46-.32-.92-.49-1.38l-.35-.9a.49.49,0,0,0,0-.11c-.16-.43-.33-.86-.51-1.28l-.33-.82c-.3-.69-.6-1.38-.91-2.07-.1-.19-.2-.39-.29-.59s-.34-.71-.52-1.06l-.21-.47-.43-.83c-.21-.4-.42-.81-.64-1.2a.25.25,0,0,0,0-.07l-.45-.84-.76-1.32-.42-.71c-.39-.65-.79-1.29-1.19-1.92-.11-.18-.23-.34-.35-.52l-.47-.72-.14-.19-.08-.12c-.06-.1-.13-.19-.2-.29h0a.61.61,0,0,0-.07-.1l-.5-.72-.88-1.22-.52-.7c-.33-.44-.67-.87-1-1.3l-.43-.54-.37-.45c-.36-.45-.73-.89-1.11-1.33l-.32-.37c-.41-.47-.82-.92-1.24-1.38l-.52-.57c-.37-.39-.75-.79-1.14-1.18l-.52-.53c-.45-.45-.89-.88-1.34-1.31l-.35-.32c-.22-.22-.45-.42-.67-.63l-.2-.19-.25-.22-.24-.22-.4-.36-.25-.21c-.51-.45-1-.89-1.55-1.33-.16-.13-.33-.25-.49-.39s-.47-.39-.71-.57A54.34,54.34,0,0,0,597,169.89,92.24,92.24,0,0,1,620.6,298.61Z"/><path class="cls-7" d="M620.59,255.16c0,.06,0,.13,0,.19v43.26h0V255.35C620.6,255.29,620.59,255.22,620.59,255.16Z"/><path class="cls-7" d="M600.72,205l.52.56Z"/><path class="cls-7" d="M605.72,211l.52.7Z"/><path class="cls-7" d="M607.12,212.9c.17.23.34.47.5.71C607.46,213.37,607.29,213.13,607.12,212.9Z"/><path class="cls-7" d="M481.79,201.06a42.55,42.55,0,0,1-17.48.1,92,92,0,0,1,9.21-13.54A53.37,53.37,0,0,0,481.79,201.06Z"/><path class="cls-7" d="M462.41,254.55a30,30,0,0,0,18.87,27.84c.49-.49,1-.95,1.53-1.4V314.1a92.31,92.31,0,0,1-21.25-107.61,53.72,53.72,0,0,0,21.25,11.73v7.93A30,30,0,0,0,462.41,254.55Z"/><path class="cls-7" d="M493.64,189.06a42.47,42.47,0,0,1-14.76-7.44,92,92,0,0,1,14.29-12A54.07,54.07,0,0,0,493.64,189.06Z"/><path class="cls-7" d="M515.25,158.64a44,44,0,0,1-7.09,24.27h0l0,0a42.88,42.88,0,0,1-9.81-16.53A91.94,91.94,0,0,1,515.25,158.64Z"/><path class="cls-7" d="M564.4,225.76V336.08l-.41.1V225.93Z"/><path class="cls-7" d="M620.35,249.42c0,.32,0,.63.07,1C620.4,250.05,620.38,249.74,620.35,249.42Z"/><path class="cls-7" d="M620.21,247.81l-.06-.56v0Z"/><path class="cls-7" d="M618.94,239.8c0-.08,0-.16,0-.24h0A2,2,0,0,1,618.94,239.8Z"/><path class="cls-7" d="M620.51,252c0,.29,0,.58,0,.87C620.54,252.58,620.53,252.29,620.51,252Z"/><path class="cls-7" d="M616.82,232l-.27-.78h0Z"/><path class="cls-7" d="M618.3,237.07c0-.19-.09-.38-.14-.56.05.18.09.37.14.56Z"/><path class="cls-7" d="M619.25,241.3c.06.3.11.59.17.89C619.36,241.89,619.31,241.6,619.25,241.3Z"/><path class="cls-7" d="M597.38,201.68l.34.33Z"/><path class="cls-7" d="M599.06,203.32l.52.53Z"/><path class="cls-3" d="M664.3,247.62a120.13,120.13,0,0,1-43.7,92.8c-2.05,1.7-4.16,3.32-6.33,4.88q-1.77,1.27-3.6,2.5a121.45,121.45,0,0,1-14.56,8.32c-1.38.67-2.78,1.3-4.2,1.92q-2.73,1.18-5.53,2.25-3.6,1.35-7.32,2.49-3,.92-6.07,1.66c-1.72.43-3.44.83-5.18,1.19h0l-.39.08A121.32,121.32,0,0,1,543.91,368a120.4,120.4,0,0,1-36.76-235c.7,1,1.37,2.08,2,3.17a45.61,45.61,0,0,1,6.1,22.52,91.94,91.94,0,0,0-16.95,7.76,43.8,43.8,0,0,1-1.87-8.6,55.2,55.2,0,0,0-3.26,11.84,92,92,0,0,0-14.29,12,44,44,0,0,1-9.53-10.19,54.21,54.21,0,0,0,4.17,16.19,92,92,0,0,0-9.21,13.54,44.62,44.62,0,0,1-10.81-3.66,55.16,55.16,0,0,0,8.06,9,92.22,92.22,0,0,0,83.35,131.66,93,93,0,0,0,19.08-2l.41-.1a91.13,91.13,0,0,0,9-2.44h1a.75.75,0,0,0,.73-.58,90,90,0,0,0,8.8-3.58q2.47-1.16,4.86-2.45c1.12-.61,2.23-1.25,3.32-1.9,1.24-.74,2.47-1.51,3.67-2.31A90.11,90.11,0,0,0,603.7,317a.74.74,0,0,0,.61-.51c1.16-1,2.28-2,3.38-3l1.54-1.48c1.91-1.85,3.74-3.8,5.49-5.82.71-.82,1.4-1.65,2.08-2.5q2-2.46,3.8-5.06A92.24,92.24,0,0,0,597,169.89a52.24,52.24,0,0,0-15.58-32.32,44.92,44.92,0,0,1,.5,23.93,93.68,93.68,0,0,0-9.36-3.51A54.15,54.15,0,0,0,558,128.05,120.4,120.4,0,0,1,664.3,247.62Z"/><path class="cls-8" d="M494,190.71a34.83,34.83,0,0,0-7,8.85,39.72,39.72,0,0,1-5.26,1.5,53.37,53.37,0,0,1-8.27-13.44,54.21,54.21,0,0,1-4.17-16.19,44,44,0,0,0,9.53,10.19,42.47,42.47,0,0,0,14.76,7.44C493.75,189.61,493.88,190.16,494,190.71Z"/><path class="cls-8" d="M573.14,165.88a55.14,55.14,0,0,1-2.35,16c-1,1-2,2-3,2.93a72,72,0,0,0-11.11-2.41,73.36,73.36,0,0,0-10.11-.7h-.12a54.07,54.07,0,0,0,.45-24.87c.25-1,.46-2,.63-3a46.61,46.61,0,0,0,.68-7.9,45.66,45.66,0,0,0-4-18.67,44.84,44.84,0,0,0-8.77-13A51.68,51.68,0,0,1,558,128.05,54.15,54.15,0,0,1,572.58,158,55.41,55.41,0,0,1,573.14,165.88Z"/><path class="cls-8" d="M484.86,204.4a34.26,34.26,0,0,0-2.05,11.72v2.1a53.72,53.72,0,0,1-21.25-11.73,55.16,55.16,0,0,1-8.06-9,44.62,44.62,0,0,0,10.81,3.66,42.55,42.55,0,0,0,17.48-.1C482.77,202.22,483.79,203.34,484.86,204.4Z"/><path class="cls-8" d="M546.86,156.83a44.76,44.76,0,0,1-16.08,24.87H517.23a34.35,34.35,0,0,0-9.07,1.21,44,44,0,0,0,7.09-24.27,45.61,45.61,0,0,0-6.1-22.52c-.63-1.09-1.3-2.15-2-3.17A45.15,45.15,0,0,0,482.36,115a52.94,52.94,0,0,1,48,13h0a55.65,55.65,0,0,1,15.7,25.79h0C546.39,154.79,546.64,155.81,546.86,156.83Z"/><path class="cls-8" d="M530.78,181.7h15.63a54.07,54.07,0,0,0,.45-24.87A44.76,44.76,0,0,1,530.78,181.7Z"/><path class="cls-8" d="M481.79,201.06c1,1.16,2,2.28,3.07,3.34a34,34,0,0,1,2.19-4.84A39.72,39.72,0,0,1,481.79,201.06Z"/><path class="cls-8" d="M592.61,197.57l-.68-.53-.56-.43L590,195.56l-.52-.37,0,0q-.92-.65-1.86-1.26l-.17-.12-.41-.26-1.39-.88-.84-.51-1.19-.7-.88-.49-1.28-.7-.79-.42c-.69-.35-1.39-.7-2.09-1a33.38,33.38,0,0,0-3,2.46l-.31.3-.27.26-.43.42-.31.31c-.39.39-.75.78-1.11,1.19-.23.26-.46.53-.68.8s-.45.53-.66.81l-.64.84c-.22.31-.44.61-.65.92s-.36.52-.53.79l-.15.24c-.22.34-.43.69-.64,1-.1.16-.19.33-.28.5a2.48,2.48,0,0,0-.18.31c-.08.16-.17.31-.25.46l-.18.35-.18.35-.18.38-.26.53a.77.77,0,0,0-.07.16q-.25.53-.48,1.08v0c-.18.43-.36.87-.51,1.32s-.27.72-.39,1.09a0,0,0,0,0,0,0c0,.07,0,.14-.07.21s-.06.21-.1.31a.14.14,0,0,1,0,.07l-.12.43-.12.42s0,0,0,0l-.06.21a.24.24,0,0,1,0,.08h0q-.11.34-.18.69t-.18.78c0,.18-.09.37-.13.56s-.08.38-.11.57-.08.42-.11.63-.09.51-.12.76a1.13,1.13,0,0,0,0,.18c0,.12,0,.23,0,.34a2.21,2.21,0,0,0,0,.35.43.43,0,0,1,0,0c0,.31-.08.63-.1,1,0,.13,0,.26,0,.39v.09c0,.08,0,.17,0,.26s0,.15,0,.24a2,2,0,0,0,0,.25.78.78,0,0,0,0,.16c0,.59,0,1.18,0,1.79v9.22l-.41.17v-9.39a34.33,34.33,0,0,1,14.07-27.76,71.36,71.36,0,0,0-8.46-3.38c.43-1.16.83-2.33,1.19-3.52a46.27,46.27,0,0,0,11.15-20.38,44.92,44.92,0,0,0-.5-23.93A52.24,52.24,0,0,1,597,169.89,54.34,54.34,0,0,1,592.61,197.57Z"/><path class="cls-8" d="M587.36,193.77l-.42-.26.41.26Z"/><path class="cls-8" d="M580.57,189.82l.79.41Z"/><path class="cls-8" d="M582.64,190.92l.88.5Z"/><path class="cls-8" d="M589.43,195.19l.52.37Z"/><path class="cls-8" d="M591.37,196.61l.56.43Z"/><path class="cls-8" d="M578.48,188.78a33.68,33.68,0,0,0-3,2.46,35.19,35.19,0,0,1,3-2.46Z"/><path class="cls-8" d="M584.71,192.12l.84.51Z"/><path class="cls-8" d="M508.11,182.93a34.12,34.12,0,0,0-12.71,6.58c-.59-.13-1.18-.29-1.76-.45a54.07,54.07,0,0,1-.47-19.42,55.2,55.2,0,0,1,3.26-11.84,43.8,43.8,0,0,0,1.87,8.6A42.88,42.88,0,0,0,508.11,182.93Z"/><path class="cls-8" d="M570.79,181.88c-1,1-2,2-3,2.93.62.19,1.24.38,1.85.59C570,184.24,570.43,183.07,570.79,181.88Z"/><path class="cls-8" d="M493.64,189.06c.11.55.24,1.1.37,1.65.45-.41.92-.82,1.39-1.2C494.81,189.38,494.22,189.22,493.64,189.06Z"/><polygon class="cls-9" points="508.15 182.91 508.11 182.93 508.13 182.96 508.15 182.91"/><path class="cls-9" d="M564,225.93V336.18a93,93,0,0,1-19.08,2,91.85,91.85,0,0,1-62.1-24V281c.23-.21.47-.42.71-.61a30,30,0,0,1,30-4.55c.71-.7,1.38-1.44,2-2.21A29.84,29.84,0,0,0,522.32,256c0-.47,0-.94,0-1.42a30,30,0,0,0-39.54-28.4v-7.93a51.59,51.59,0,0,0,27.62.23l1,.2a50.86,50.86,0,0,0,23.41,10.72,9.17,9.17,0,1,0,15.28.33h0A53.15,53.15,0,0,0,564,225.93Z"/><path class="cls-9" d="M495.4,195.49c-.54-1.56-1-3.16-1.39-4.78a34.83,34.83,0,0,0-7,8.85,42,42,0,0,0,6.8-3.13C494.38,196.13,494.89,195.82,495.4,195.49Z"/><path class="cls-9" d="M567.75,184.81a72,72,0,0,0-11.11-2.41,73.36,73.36,0,0,0-10.11-.7h-.12a52.49,52.49,0,0,1-6,14.19A44.37,44.37,0,0,0,567.75,184.81Z"/><path class="cls-9" d="M510.43,218.45l1,.2-.41-.35Z"/><path class="cls-9" d="M508.12,183a41.54,41.54,0,0,0,7.55,6.23,42.47,42.47,0,0,0,15.11-7.48H517.23a34.35,34.35,0,0,0-9.07,1.21h0Z"/><path class="cls-9" d="M482.81,216.12v2.1a51.59,51.59,0,0,0,27.62.23,51.35,51.35,0,0,1-25.57-14A34.26,34.26,0,0,0,482.81,216.12Z"/><path class="cls-9" d="M519.12,191.19a42.09,42.09,0,0,0,21.31,4.7,52.49,52.49,0,0,0,6-14.19H530.78a42.47,42.47,0,0,1-15.11,7.48Q517.34,190.26,519.12,191.19Z"/><path class="cls-9" d="M495.4,195.49c-.51.33-1,.64-1.55.94a42,42,0,0,1-6.8,3.13,34,34,0,0,0-2.19,4.84,51.35,51.35,0,0,0,25.57,14l.55-.15A51.27,51.27,0,0,1,495.4,195.49Z"/><path class="cls-9" d="M508.12,183v0a34.12,34.12,0,0,0-12.71,6.58,41.62,41.62,0,0,0,6.45,1A41.53,41.53,0,0,0,508.12,183Z"/><path class="cls-9" d="M521.11,219.58a51.09,51.09,0,0,1-9.72-.93,50.86,50.86,0,0,0,23.41,10.72h0a9.14,9.14,0,0,1,15.28.33h0a53.15,53.15,0,0,0,13.9-3.77v-9.39a34.33,34.33,0,0,1,14.07-27.76,71.36,71.36,0,0,0-8.46-3.38C562,205.41,543.17,219.58,521.11,219.58Z"/><path class="cls-9" d="M501.85,190.47a41.62,41.62,0,0,1-6.45-1c-.47.38-.94.79-1.39,1.2.39,1.62.85,3.22,1.39,4.78A41.38,41.38,0,0,0,501.85,190.47Z"/><path class="cls-9" d="M522.37,213.49A51.06,51.06,0,0,1,511,218.3l.41.35a51.09,51.09,0,0,0,9.72.93c22.06,0,40.93-14.17,48.49-34.18-.61-.21-1.23-.4-1.85-.59a44.37,44.37,0,0,1-27.32,11.08A50.49,50.49,0,0,1,522.37,213.49Z"/><path class="cls-9" d="M504.87,190.58a41.86,41.86,0,0,0,10.8-1.4,41.54,41.54,0,0,1-7.55-6.23,41.53,41.53,0,0,1-6.27,7.52C502.85,190.55,503.86,190.58,504.87,190.58Z"/><path class="cls-9" d="M501.85,190.47a41.38,41.38,0,0,1-6.45,5A51.27,51.27,0,0,0,511,218.3a51.06,51.06,0,0,0,11.39-4.81,50.49,50.49,0,0,0,18.06-17.6,42.09,42.09,0,0,1-21.31-4.7q-1.79-.93-3.45-2a41.86,41.86,0,0,1-10.8,1.4C503.86,190.58,502.85,190.55,501.85,190.47Z"/><path class="cls-17" d="M462.41,254.55a30,30,0,0,0,18.87,27.84c.49-.49,1-.95,1.53-1.41V226.15A30,30,0,0,0,462.41,254.55Z"/><path class="cls-17" d="M483.52,280.38a30,30,0,0,1,36.72-25c.7.17,1.4.36,2.08.58,0-.47,0-.94,0-1.42a30,30,0,0,0-39.55-28.4V281Z"/><path class="cls-11" d="M483.52,280.38a29.78,29.78,0,0,1,3.54-10.51,29.78,29.78,0,0,0-3.54,10.51,30,30,0,0,1,30-4.55h0a30,30,0,0,0-30,4.55Z"/><path class="cls-11" d="M522.32,256a29.81,29.81,0,0,1-6.82,17.65A29.81,29.81,0,0,0,522.32,256c-.68-.22-1.38-.41-2.08-.58C520.94,255.56,521.64,255.75,522.32,256Z"/><path class="cls-12" d="M513.48,275.83c.71-.7,1.38-1.44,2-2.21-.64.77-1.31,1.51-2,2.21Z"/><path class="cls-12" d="M513.2,254.55a29.75,29.75,0,0,1,7,.84,30,30,0,0,0-33.18,14.48A30,30,0,0,1,513.2,254.55Z"/><path class="cls-12" d="M520.24,255.39a30,30,0,0,0-36.72,25,30,30,0,0,1,30-4.55c.71-.7,1.38-1.44,2-2.21A29.81,29.81,0,0,0,522.32,256C521.64,255.75,520.94,255.56,520.24,255.39Z"/><path class="cls-13" d="M534.8,229.37a9.16,9.16,0,1,0,15.28.33A50.89,50.89,0,0,1,534.8,229.37Z"/><path class="cls-13" d="M542.34,225.41a9.15,9.15,0,0,0-7.54,4,50.89,50.89,0,0,0,15.28.33A9.12,9.12,0,0,0,542.34,225.41Z"/><path class="cls-14" d="M610.54,218.19l.76,1.32Z"/><path class="cls-14" d="M599.58,203.85c.39.39.76.79,1.14,1.19C600.34,204.64,600,204.24,599.58,203.85Z"/><path class="cls-14" d="M597.72,202c.45.43.9.86,1.34,1.31C598.62,202.87,598.17,202.44,597.72,202Z"/><path class="cls-14" d="M604.71,209.67c.34.43.68.86,1,1.3C605.39,210.53,605.05,210.1,604.71,209.67Z"/><path class="cls-14" d="M620.55,252.87c0-.29,0-.58,0-.87,0-.54-.06-1.09-.1-1.63l-.06-.94c-.05-.55-.1-1.08-.16-1.63a2.46,2.46,0,0,1,0-.28l0-.25a.76.76,0,0,1-.74.62H608.46a.78.78,0,0,1-.77-.77v-1a.78.78,0,0,1,.77-.77h10.95a.76.76,0,0,1,.54.22c0-.32-.08-.65-.13-1,0-.15-.05-.3-.07-.45-.1-.67-.21-1.33-.33-2-.06-.29-.11-.58-.17-.88-.1-.5-.2-1-.31-1.5,0-.08,0-.16-.05-.24H608.46a.77.77,0,0,1-.77-.76v-1a.78.78,0,0,1,.77-.77h9.84c0-.18-.09-.37-.14-.55-.2-.75-.4-1.49-.62-2.23-.06-.18-.12-.37-.17-.55-.18-.57-.36-1.14-.56-1.71-.08-.26-.17-.52-.26-.78h-8.09a.77.77,0,0,1-.77-.77v-1a.77.77,0,0,1,.77-.77h7.17c-.16-.43-.33-.86-.51-1.28l-.33-.82c-.3-.69-.6-1.38-.91-2.07-.1-.19-.2-.39-.29-.59s-.34-.71-.52-1.06h-4.61a.78.78,0,0,1-.77-.78v-.95a.77.77,0,0,1,.77-.77h3.33a.25.25,0,0,0,0-.07l-.45-.84-.76-1.32-.42-.71c-.39-.65-.79-1.29-1.19-1.92-.11-.18-.23-.34-.35-.52s-.22-.33-.33-.49a.77.77,0,0,1-.56-.73v-.11a.61.61,0,0,0-.07-.1l-.5-.72-.88-1.22-.52-.7c-.33-.44-.67-.87-1-1.3l-.43-.54-.37-.45a.69.69,0,0,1-.32.08H592.65a.77.77,0,0,1-.77-.77v-1a.77.77,0,0,1,.77-.77h9.18l-.59-.66-.52-.57c-.37-.39-.75-.79-1.14-1.18l-.52-.53c-.45-.45-.89-.88-1.34-1.31l-.35-.32c-.22-.22-.45-.42-.67-.63l-.2-.19-.25-.22-.24-.22h-3.36a.76.76,0,0,1-.77-.77v-.48c-.26.53-.53,1.06-.8,1.58-.54,1-1.11,2-1.7,3v.05a.77.77,0,0,1-.45.69,55.32,55.32,0,0,1-4.23,5.91h3.91a.77.77,0,0,1,.77.77v1a.77.77,0,0,1-.77.77h-6.1a54.5,54.5,0,0,1-12.5,10h4.44a.76.76,0,0,1,.77.77v.95a.76.76,0,0,1-.77.77h-9.3l-.75.35v5.48h10.05a.77.77,0,0,1,.77.77v1a.76.76,0,0,1-.77.76H564.4v5.83h10.05a.77.77,0,0,1,.77.77v1a.78.78,0,0,1-.77.78H564.4v5.82h10.05a.76.76,0,0,1,.77.77v1a.77.77,0,0,1-.77.77H564.4v5.82h10.05a.77.77,0,0,1,.77.77v1a.76.76,0,0,1-.77.77H564.4v5.83h10.05a.77.77,0,0,1,.77.77v1a.77.77,0,0,1-.77.77H564.4v5.83h10.05a.76.76,0,0,1,.77.77v.95a.76.76,0,0,1-.77.77H564.4v5.83h10.05a.77.77,0,0,1,.77.77v1a.77.77,0,0,1-.77.77H564.4v5.83h10.05a.77.77,0,0,1,.77.76v1a.77.77,0,0,1-.77.77H564.4v5.83h10.05a.76.76,0,0,1,.77.77v.95a.76.76,0,0,1-.77.77H564.4v5.83h10.05a.76.76,0,0,1,.77.77v.95a.76.76,0,0,1-.77.77H564.4v5.83h10.05a.77.77,0,0,1,.77.77v1a.77.77,0,0,1-.77.76H564.4v5.83h10.05a.76.76,0,0,1,.77.77v1a.77.77,0,0,1-.77.77H564.4v5.82h10.05a.77.77,0,0,1,.77.78v.95a.58.58,0,0,1,0,.19,90,90,0,0,0,8.8-3.58h-6.32a.77.77,0,0,1-.77-.77v-1a.77.77,0,0,1,.77-.77h11a.59.59,0,0,1,.23,0c1.12-.61,2.23-1.25,3.32-1.9a.74.74,0,0,1-.28-.58v-1a.76.76,0,0,1,.77-.77h3.18A90.11,90.11,0,0,0,603.7,317l-.11,0H592.65a.77.77,0,0,1-.77-.76v-1a.77.77,0,0,1,.77-.77h10.94a.78.78,0,0,1,.77.77v1a.68.68,0,0,1-.05.23c1.16-1,2.28-2,3.38-3v-.71a.78.78,0,0,1,.77-.77h.77c1.91-1.85,3.74-3.8,5.49-5.82h-6.26a.77.77,0,0,1-.77-.77v-1a.77.77,0,0,1,.77-.77h8.34q2-2.46,3.8-5.06V255.16C620.59,254.39,620.58,253.63,620.55,252.87Zm-31.17,67.51a.77.77,0,0,1-.77.77h-11a.76.76,0,0,1-.77-.77v-.95a.76.76,0,0,1,.77-.77h11a.77.77,0,0,1,.77.77Zm0-8.32a.78.78,0,0,1-.77.77h-11a.77.77,0,0,1-.77-.77v-1a.77.77,0,0,1,.77-.77h11a.78.78,0,0,1,.77.77Zm0-8.32a.78.78,0,0,1-.77.77h-11a.77.77,0,0,1-.77-.77v-1a.77.77,0,0,1,.77-.77h11a.78.78,0,0,1,.77.77Zm0-8.33a.77.77,0,0,1-.77.76h-11a.76.76,0,0,1-.77-.76v-1a.77.77,0,0,1,.77-.77h11a.78.78,0,0,1,.77.77Zm0-8.33a.77.77,0,0,1-.77.77h-11a.76.76,0,0,1-.77-.77v-.95a.76.76,0,0,1,.77-.77h11a.77.77,0,0,1,.77.77Zm0-8.32a.78.78,0,0,1-.77.77h-11a.77.77,0,0,1-.77-.77v-1a.77.77,0,0,1,.77-.77h11a.78.78,0,0,1,.77.77Zm0-8.33a.77.77,0,0,1-.77.77h-11a.76.76,0,0,1-.77-.77v-1a.77.77,0,0,1,.77-.77h11a.78.78,0,0,1,.77.77Zm0-8.32a.78.78,0,0,1-.77.77h-11a.77.77,0,0,1-.77-.77v-1a.76.76,0,0,1,.77-.77h11a.77.77,0,0,1,.77.77Zm0-8.33a.78.78,0,0,1-.77.77h-11a.77.77,0,0,1-.77-.77v-1a.77.77,0,0,1,.77-.77h11a.78.78,0,0,1,.77.77Zm0-8.33a.77.77,0,0,1-.77.77h-11a.76.76,0,0,1-.77-.77v-.95a.76.76,0,0,1,.77-.77h11a.77.77,0,0,1,.77.77Zm0-8.32a.78.78,0,0,1-.77.77h-11a.77.77,0,0,1-.77-.77v-1a.77.77,0,0,1,.77-.77h11a.78.78,0,0,1,.77.77Zm0-8.32a.78.78,0,0,1-.77.77h-11a.78.78,0,0,1-.77-.77v-1a.76.76,0,0,1,.77-.76h11a.77.77,0,0,1,.77.76Zm0-8.33a.78.78,0,0,1-.77.77h-11a.77.77,0,0,1-.77-.77v-1a.77.77,0,0,1,.77-.77h11a.78.78,0,0,1,.77.77Zm15,87.41a.77.77,0,0,1-.77.77H592.65a.76.76,0,0,1-.77-.77v-.95a.76.76,0,0,1,.77-.77h10.94a.77.77,0,0,1,.77.77Zm0-8.32a.77.77,0,0,1-.77.77H592.65a.76.76,0,0,1-.77-.77v-.95a.76.76,0,0,1,.77-.77h10.94a.77.77,0,0,1,.77.77Zm0-8.32a.78.78,0,0,1-.77.77H592.65a.77.77,0,0,1-.77-.77v-1a.77.77,0,0,1,.77-.76h10.94a.77.77,0,0,1,.77.76Zm0-8.33a.78.78,0,0,1-.77.77H592.65a.77.77,0,0,1-.77-.77v-1a.77.77,0,0,1,.77-.77h10.94a.78.78,0,0,1,.77.77Zm0-8.33a.77.77,0,0,1-.77.77H592.65a.76.76,0,0,1-.77-.77v-.95a.76.76,0,0,1,.77-.77h10.94a.77.77,0,0,1,.77.77Zm0-8.32a.78.78,0,0,1-.77.77H592.65a.77.77,0,0,1-.77-.77v-1a.77.77,0,0,1,.77-.77h10.94a.78.78,0,0,1,.77.77Zm0-8.33a.77.77,0,0,1-.77.77H592.65a.76.76,0,0,1-.77-.77v-1a.77.77,0,0,1,.77-.77h10.94a.78.78,0,0,1,.77.77Zm0-8.32a.78.78,0,0,1-.77.77H592.65a.77.77,0,0,1-.77-.77v-1a.76.76,0,0,1,.77-.77h10.94a.77.77,0,0,1,.77.77Zm0-8.33a.79.79,0,0,1-.77.78H592.65a.78.78,0,0,1-.77-.78v-1a.77.77,0,0,1,.77-.77h10.94a.78.78,0,0,1,.77.77Zm0-8.32a.77.77,0,0,1-.77.76H592.65a.76.76,0,0,1-.77-.76v-1a.77.77,0,0,1,.77-.77h10.94a.78.78,0,0,1,.77.77Zm0-8.33a.77.77,0,0,1-.77.77H592.65a.76.76,0,0,1-.77-.77v-.95a.76.76,0,0,1,.77-.77h10.94a.77.77,0,0,1,.77.77Zm0-8.32a.78.78,0,0,1-.77.77H592.65a.77.77,0,0,1-.77-.77v-1a.77.77,0,0,1,.77-.77h10.94a.78.78,0,0,1,.77.77Zm15.82,80.75a.79.79,0,0,1-.77.78H608.46a.79.79,0,0,1-.77-.78v-1a.77.77,0,0,1,.77-.76h10.95a.77.77,0,0,1,.77.76Zm0-8.32a.78.78,0,0,1-.77.77H608.46a.78.78,0,0,1-.77-.77v-1a.78.78,0,0,1,.77-.77h10.95a.78.78,0,0,1,.77.77Zm0-8.33a.77.77,0,0,1-.77.77H608.46a.77.77,0,0,1-.77-.77v-.95a.77.77,0,0,1,.77-.77h10.95a.77.77,0,0,1,.77.77Zm0-8.32a.78.78,0,0,1-.77.77H608.46a.78.78,0,0,1-.77-.77v-1a.78.78,0,0,1,.77-.77h10.95a.78.78,0,0,1,.77.77Zm0-8.33a.78.78,0,0,1-.77.77H608.46a.78.78,0,0,1-.77-.77v-1a.78.78,0,0,1,.77-.77h10.95a.78.78,0,0,1,.77.77Zm0-8.33a.77.77,0,0,1-.77.77H608.46a.77.77,0,0,1-.77-.77v-.95a.77.77,0,0,1,.77-.77h10.95a.77.77,0,0,1,.77.77Z"/><path class="cls-14" d="M617.54,234.28c.22.74.42,1.48.62,2.23C618,235.76,617.76,235,617.54,234.28Z"/><path class="cls-14" d="M606.24,211.67c.3.41.59.81.88,1.23C606.83,212.48,606.54,212.08,606.24,211.67Z"/><path class="cls-14" d="M613.87,224.57c.32.69.62,1.38.92,2.08C614.49,226,614.19,225.26,613.87,224.57Z"/><path class="cls-14" d="M593.8,198.54q.8.65,1.56,1.32Q594.6,199.19,593.8,198.54Z"/><path class="cls-14" d="M608.93,215.56c.41.63.8,1.27,1.19,1.92C609.73,216.83,609.34,216.19,608.93,215.56Z"/><path class="cls-14" d="M616,229.76c.17.45.33.91.49,1.37C616.35,230.67,616.19,230.21,616,229.76Z"/><path class="cls-14" d="M620.12,247c-.09-.77-.19-1.55-.3-2.32,0,.33.08.66.13,1S620.07,246.5,620.12,247Z"/><path class="cls-14" d="M616.82,232c.19.56.37,1.14.54,1.71C617.19,233.16,617,232.58,616.82,232Z"/><path class="cls-14" d="M613.59,224c-.24-.52-.48-1-.74-1.54l.22.46C613.25,223.27,613.42,223.63,613.59,224Z"/><path class="cls-14" d="M593.06,197.94l.26.2-.71-.57h0Z"/><path class="cls-14" d="M593.06,197.94l-.45-.36-.19.4a.78.78,0,0,1,.22,0Z"/><path class="cls-14" d="M615.68,228.85c-.18-.47-.37-.93-.56-1.39.17.42.35.85.51,1.28Z"/><path class="cls-14" d="M612.43,221.63c-.22-.43-.45-.86-.68-1.28a.16.16,0,0,1,0,.07C612,220.82,612.22,221.22,612.43,221.63Z"/><path class="cls-14" d="M602.48,207c-.41-.46-.82-.93-1.24-1.38l.59.66Z"/><path class="cls-14" d="M604.28,209.13c-.48-.6-1-1.2-1.48-1.78.38.44.75.89,1.11,1.33Z"/><path class="cls-14" d="M597.38,201.68c-.58-.54-1.17-1.08-1.77-1.61.13.12.26.25.4.36Z"/><path class="cls-14" d="M620.42,250.37c0,.54.07,1.08.09,1.63C620.49,251.45,620.46,250.91,620.42,250.37Z"/><polygon class="cls-14" points="564.4 331.14 564.4 325.32 564.4 322.82 564.4 316.99 564.4 314.49 564.4 308.67 564.4 306.17 564.4 300.34 564.4 297.84 564.4 292.01 564.4 289.52 564.4 283.69 564.4 281.19 564.4 275.36 564.4 272.87 564.4 267.04 564.4 264.54 564.4 258.71 564.4 256.22 564.4 250.39 564.4 247.89 564.4 242.06 564.4 239.56 564.4 233.74 564.4 231.24 564.4 225.75 564.4 225.75 564.4 336.08 564.4 336.08 564.4 333.64 564.4 331.14"/><path class="cls-14" d="M618.37,237.36c.13.5.25,1,.37,1.5C618.62,238.36,618.5,237.86,618.37,237.36Z"/><path class="cls-14" d="M620.21,247.81c0,.53.1,1.07.14,1.61C620.31,248.88,620.26,248.34,620.21,247.81Z"/><path class="cls-14" d="M620.55,252.87c0,.76,0,1.52,0,2.29C620.59,254.39,620.58,253.63,620.55,252.87Z"/><path class="cls-14" d="M618.94,239.8c.11.5.21,1,.31,1.5C619.15,240.8,619.05,240.3,618.94,239.8Z"/><path class="cls-14" d="M619.42,242.19c.12.66.23,1.32.33,2C619.65,243.51,619.54,242.85,619.42,242.19Z"/><path class="cls-14" d="M608.25,214.55l.34.49c-.32-.48-.64-1-1-1.43a.61.61,0,0,1,.07.1C607.88,214,608.07,214.27,608.25,214.55Z"/><path class="cls-14" d="M564.4,225.41v-8.87q0-1,.06-1.95a34.84,34.84,0,0,1,.83-5.83c.2-.84.42-1.68.67-2.5a34.82,34.82,0,0,1,2.44-5.83q.69-1.27,1.47-2.49a34.59,34.59,0,0,1,4.77-5.87l.54-.53.31-.3a34.31,34.31,0,0,0-11.09,25.3v9.22h0Z"/><path class="cls-14" d="M578.48,188.78h0c.7.33,1.4.68,2.09,1C579.88,189.46,579.18,189.11,578.48,188.78Z"/><path class="cls-14" d="M590,195.56l1.42,1.05Z"/><path class="cls-14" d="M564.4,225.75c.25-.1.5-.23.75-.34h-.75Z"/><path class="cls-14" d="M574.64,192.07a34.59,34.59,0,0,0-4.77,5.87h4.58a.76.76,0,0,1,.77.77v.95a.76.76,0,0,1-.77.77H568.4a34.82,34.82,0,0,0-2.44,5.83h8.49a.77.77,0,0,1,.77.77v1a.77.77,0,0,1-.77.77h-9.16a34.84,34.84,0,0,0-.83,5.83h10a.76.76,0,0,1,.77.77v1a.77.77,0,0,1-.77.77H564.4v5.82H570a54.19,54.19,0,0,0,12.5-10h-4.85a.76.76,0,0,1-.77-.77v-1a.76.76,0,0,1,.77-.76h7a57.42,57.42,0,0,0,4.23-5.91.72.72,0,0,1-.32.08h-11a.77.77,0,0,1-.77-.77v-1a.77.77,0,0,1,.77-.77h11a.78.78,0,0,1,.77.77v.91c.59-1,1.16-2,1.7-3,.27-.52.54-1,.79-1.58v-.47a.77.77,0,0,1,.55-.73l.19-.4-.68-.54-.56-.43L590,195.56l-.52-.37,0,0v.35a.77.77,0,0,1-.77.77h-11a.76.76,0,0,1-.77-.77v-1a.77.77,0,0,1,.77-.77h9.69l-.41-.26-1.39-.88-.84-.51-1.19-.7-.88-.5-1.28-.69-.79-.41c-.69-.36-1.39-.71-2.09-1a35.19,35.19,0,0,0-3,2.46l-.31.3A.74.74,0,0,1,574.64,192.07Z"/><path class="cls-14" d="M585.55,192.63l1.39.88Z"/><path class="cls-14" d="M581.36,190.23l1.28.69Z"/><path class="cls-14" d="M589.43,195.19c-.63-.45-1.27-.88-1.91-1.31.63.42,1.24.84,1.86,1.27Z"/><path class="cls-14" d="M592.61,197.57l-.68-.53.68.54Z"/><path class="cls-14" d="M583.52,191.42l1.19.7Z"/><rect class="cls-15" x="591.87" y="222.91" width="12.49" height="2.5" rx="0.77"/><rect class="cls-15" x="591.87" y="231.24" width="12.49" height="2.5" rx="0.77"/><rect class="cls-15" x="591.87" y="239.56" width="12.49" height="2.5" rx="0.77"/><path class="cls-15" d="M593.32,198.14l.48.4Z"/><path class="cls-15" d="M595.36,199.86l.25.21Z"/><path class="cls-15" d="M592.64,197.94a.78.78,0,0,0-.22,0c-.18.4-.36.8-.55,1.2v.48a.77.77,0,0,0,.77.77H596c-.14-.11-.27-.24-.4-.36l-.25-.21q-.76-.68-1.56-1.32l-.48-.4-.26-.2Z"/><path class="cls-15" d="M591.87,198.71v.47c.19-.4.37-.8.55-1.2A.77.77,0,0,0,591.87,198.71Z"/><path class="cls-15" d="M602.48,207l.32.37Z"/><path class="cls-15" d="M592.64,206.26a.78.78,0,0,0-.77.77v1a.78.78,0,0,0,.77.77h11a.69.69,0,0,0,.32-.08c-.36-.44-.73-.89-1.11-1.33l-.32-.37-.65-.72Z"/><rect class="cls-15" x="591.87" y="214.59" width="12.49" height="2.5" rx="0.77"/><rect class="cls-15" x="591.87" y="247.89" width="12.49" height="2.5" rx="0.77"/><rect class="cls-15" x="591.87" y="256.22" width="12.49" height="2.5" rx="0.77"/><rect class="cls-15" x="591.87" y="264.54" width="12.49" height="2.5" rx="0.77"/><rect class="cls-15" x="591.87" y="272.87" width="12.49" height="2.5" rx="0.77"/><rect class="cls-15" x="591.87" y="281.19" width="12.49" height="2.5" rx="0.77"/><rect class="cls-15" x="591.87" y="289.52" width="12.49" height="2.5" rx="0.77"/><rect class="cls-15" x="591.87" y="297.84" width="12.49" height="2.5" rx="0.77"/><rect class="cls-15" x="591.87" y="306.17" width="12.49" height="2.5" rx="0.77"/><path class="cls-15" d="M604.31,316.46a.74.74,0,0,1-.61.51Z"/><path class="cls-15" d="M604.36,316.22v-1a.77.77,0,0,0-.77-.77h-11a.78.78,0,0,0-.77.77v1a.77.77,0,0,0,.77.77h11l.11,0,.61-.51A.69.69,0,0,0,604.36,316.22Z"/><path class="cls-15" d="M595.83,322.82c-1.2.8-2.43,1.57-3.67,2.31a.74.74,0,0,1-.28-.58v-1a.76.76,0,0,1,.77-.77Z"/><path class="cls-15" d="M615.68,228.85c.11.3.23.6.34.91C615.91,229.45,615.79,229.15,615.68,228.85Z"/><path class="cls-15" d="M616.55,231.24s0-.07,0-.11l0,.11Z"/><path class="cls-15" d="M608.46,228.74a.78.78,0,0,0-.77.77v1a.78.78,0,0,0,.77.77h8.09l0-.11c-.16-.46-.32-.92-.49-1.37s-.23-.61-.34-.91l0-.11Z"/><path class="cls-15" d="M618.37,237.36a2.46,2.46,0,0,0-.07-.29h0C618.32,237.16,618.35,237.26,618.37,237.36Z"/><path class="cls-15" d="M618.9,239.56c-.06-.23-.11-.47-.16-.7l.15.7Z"/><path class="cls-15" d="M608.46,237.07a.77.77,0,0,0-.77.77v.95a.77.77,0,0,0,.77.77h10.43l-.15-.7c-.12-.5-.24-1-.37-1.5,0-.1,0-.2-.07-.29Z"/><path class="cls-15" d="M620.15,247.25l0-.3,0,.32Z"/><path class="cls-15" d="M619.41,245.39H608.46a.78.78,0,0,0-.77.77v1a.78.78,0,0,0,.77.77h10.95a.76.76,0,0,0,.74-.62l0-.32c0-.45-.12-.89-.17-1.34A.8.8,0,0,0,619.41,245.39Z"/><path class="cls-15" d="M607.69,213.82a.77.77,0,0,0,.56.73c-.18-.28-.37-.56-.56-.84Z"/><path class="cls-15" d="M612.43,221.63l.42.82Z"/><path class="cls-15" d="M608.46,220.42a.77.77,0,0,0-.77.77v.95a.77.77,0,0,0,.77.77h4.61l-.22-.46-.42-.82c-.21-.41-.42-.81-.64-1.21Z"/><rect class="cls-15" x="607.69" y="253.72" width="12.49" height="2.5" rx="0.77"/><rect class="cls-15" x="607.69" y="262.04" width="12.49" height="2.5" rx="0.77"/><rect class="cls-15" x="607.69" y="270.37" width="12.49" height="2.5" rx="0.77"/><rect class="cls-15" x="607.69" y="278.69" width="12.49" height="2.5" rx="0.77"/><rect class="cls-15" x="607.69" y="287.02" width="12.49" height="2.5" rx="0.77"/><rect class="cls-15" x="607.69" y="295.35" width="12.49" height="2.5" rx="0.77"/><path class="cls-15" d="M616.8,303.67c-.68.85-1.37,1.68-2.08,2.5h-6.26a.77.77,0,0,1-.77-.77v-1a.77.77,0,0,1,.77-.77Z"/><path class="cls-15" d="M609.23,312l-1.54,1.48v-.71a.78.78,0,0,1,.77-.77Z"/><rect class="cls-15" x="576.89" y="218.75" width="12.49" height="2.5" rx="0.77"/><rect class="cls-15" x="576.89" y="227.08" width="12.49" height="2.5" rx="0.77"/><rect class="cls-15" x="576.89" y="235.4" width="12.49" height="2.5" rx="0.77"/><path class="cls-15" d="M587.52,193.88l-.16-.11h0Z"/><path class="cls-15" d="M577.66,193.77a.77.77,0,0,0-.77.77v1a.76.76,0,0,0,.77.77h11a.77.77,0,0,0,.77-.77v-.35c-.62-.43-1.23-.85-1.86-1.27l-.17-.11Z"/><path class="cls-15" d="M589.38,203.83v-.05l-.45.74A.77.77,0,0,0,589.38,203.83Z"/><path class="cls-15" d="M588.61,202.1h-11a.77.77,0,0,0-.77.77v1a.77.77,0,0,0,.77.77h11a.72.72,0,0,0,.32-.08l.45-.74v-.91A.78.78,0,0,0,588.61,202.1Z"/><path class="cls-15" d="M588.61,212.92a.77.77,0,0,0,.77-.77v-1a.77.77,0,0,0-.77-.76H584.7c-.71.85-1.44,1.69-2.19,2.49Z"/><path class="cls-15" d="M576.89,211.19v1a.76.76,0,0,0,.77.77h4.85c.75-.8,1.48-1.64,2.19-2.49h-7A.76.76,0,0,0,576.89,211.19Z"/><rect class="cls-15" x="576.89" y="243.73" width="12.49" height="2.5" rx="0.77"/><rect class="cls-15" x="576.89" y="252.05" width="12.49" height="2.5" rx="0.77"/><rect class="cls-15" x="576.89" y="260.38" width="12.49" height="2.5" rx="0.77"/><rect class="cls-15" x="576.89" y="268.7" width="12.49" height="2.5" rx="0.77"/><rect class="cls-15" x="576.89" y="277.03" width="12.49" height="2.5" rx="0.77"/><rect class="cls-15" x="576.89" y="285.35" width="12.49" height="2.5" rx="0.77"/><rect class="cls-15" x="576.89" y="293.68" width="12.49" height="2.5" rx="0.77"/><rect class="cls-15" x="576.89" y="302.01" width="12.49" height="2.5" rx="0.77"/><rect class="cls-15" x="576.89" y="310.33" width="12.49" height="2.5" rx="0.77"/><rect class="cls-15" x="576.89" y="318.66" width="12.49" height="2.5" rx="0.77"/><path class="cls-15" d="M575.22,208v-1a.77.77,0,0,0-.77-.77H566c-.25.82-.47,1.66-.67,2.5h9.16A.77.77,0,0,0,575.22,208Z"/><path class="cls-15" d="M575.22,216.32v-1a.76.76,0,0,0-.77-.77h-10q-.06,1-.06,1.95v.55h10.05A.77.77,0,0,0,575.22,216.32Z"/><path class="cls-15" d="M574.45,225.41a.77.77,0,0,0,.77-.77v-1a.77.77,0,0,0-.77-.77H570a53.06,53.06,0,0,1-4.86,2.5Z"/><path class="cls-15" d="M564.4,225.41h.75a53.06,53.06,0,0,0,4.86-2.5H564.4Z"/><path class="cls-15" d="M575.18,191.54l-.54.53A.74.74,0,0,0,575.18,191.54Z"/><path class="cls-15" d="M575.22,199.66v-.95a.76.76,0,0,0-.77-.77h-4.58q-.78,1.22-1.47,2.49h6.05A.76.76,0,0,0,575.22,199.66Z"/><path class="cls-15" d="M574.45,233.74a.77.77,0,0,0,.77-.77v-1a.77.77,0,0,0-.77-.77H564.4v2.5Z"/><path class="cls-15" d="M574.45,242.06a.76.76,0,0,0,.77-.77v-1a.77.77,0,0,0-.77-.77H564.4v2.5Z"/><path class="cls-15" d="M574.45,250.39a.77.77,0,0,0,.77-.77v-1a.77.77,0,0,0-.77-.77H564.4v2.5Z"/><path class="cls-15" d="M574.45,258.71a.76.76,0,0,0,.77-.77V257a.76.76,0,0,0-.77-.77H564.4v2.49Z"/><path class="cls-15" d="M574.45,267a.77.77,0,0,0,.77-.77v-1a.77.77,0,0,0-.77-.77H564.4V267Z"/><path class="cls-15" d="M574.45,275.36a.76.76,0,0,0,.77-.77v-.95a.76.76,0,0,0-.77-.77H564.4v2.49Z"/><path class="cls-15" d="M574.45,283.69a.77.77,0,0,0,.77-.77v-1a.77.77,0,0,0-.77-.77H564.4v2.5Z"/><path class="cls-15" d="M574.45,292a.77.77,0,0,0,.77-.77v-1a.76.76,0,0,0-.77-.77H564.4V292Z"/><path class="cls-15" d="M574.45,300.34a.77.77,0,0,0,.77-.77v-1a.77.77,0,0,0-.77-.77H564.4v2.5Z"/><path class="cls-15" d="M574.45,308.67a.77.77,0,0,0,.77-.77v-1a.76.76,0,0,0-.77-.77H564.4v2.5Z"/><path class="cls-15" d="M574.45,317a.76.76,0,0,0,.77-.77v-1a.77.77,0,0,0-.77-.77H564.4V317Z"/><path class="cls-15" d="M574.45,325.32a.77.77,0,0,0,.77-.77v-1a.77.77,0,0,0-.77-.77H564.4v2.5Z"/></svg>