<svg id="Calque_1" data-name="Calque 1" xmlns="http://www.w3.org/2000/svg" viewBox="0 0 1125 2436"><defs><style>.cls-1{fill:#ffae00;stroke:#fff;stroke-miterlimit:10;stroke-width:0.25px;}.cls-2{fill:#f1f1f1;}.cls-3{fill:#4c4c4c;}.cls-4{fill:#e02229;}.cls-5{fill:none;}.cls-6{fill:#fff;}.cls-7{fill:#00b2ae;}.cls-8{fill:#ffcc97;}.cls-9{fill:#2db17e;}.cls-10{fill:#ffb777;}.cls-11{fill:#303030;}</style></defs><title>Plan de travail 1</title><rect class="cls-1" x="0.32" y="0.32" width="1124.36" height="2435.01"/><g id="LOGO"><path class="cls-2" d="M643.89,1388.24a243,243,0,0,1-24.14,6.52v-6.52Z"/><path class="cls-2" d="M662.81,1532.67h0l.37.42Q663,1532.88,662.81,1532.67Z"/><path class="cls-2" d="M629.08,1474.24c-.08-.22-.16-.43-.23-.64h0C628.93,1473.81,629,1474,629.08,1474.24Z"/><path class="cls-2" d="M663.17,1533.09l-.37-.42h0Q663,1532.88,663.17,1533.09Z"/><path class="cls-3" d="M685,1370.6q-6.37,3.45-13,6.53H655.13a2.05,2.05,0,0,1-2-2.05v-2.55a2.05,2.05,0,0,1,2-2.06h29.23A1.8,1.8,0,0,1,685,1370.6Z"/><path class="cls-4" d="M323.8,1024.91a146.07,146.07,0,0,0,21.51,24q3.45-7.26,7.33-14.23A119,119,0,0,1,323.8,1024.91Zm42.29-69.58a146,146,0,0,0,11.12,43.23q6.8-8.34,14.32-16A117.84,117.84,0,0,1,366.09,955.33ZM438.36,919a146.38,146.38,0,0,0-8.69,31.58q6.69-4.53,13.69-8.64A117,117,0,0,1,438.36,919Zm268.46,32.27A139.48,139.48,0,0,0,665.22,865a120,120,0,0,1,1.35,63.88A246,246,0,0,1,706.82,951.24ZM565.88,837.39h-.79a322.8,322.8,0,0,0-36.06,2h0a319.93,319.93,0,0,0-62,13.26q2.82,4.08,5.33,8.46a121.74,121.74,0,0,1,16.28,60.09,246.23,246.23,0,0,1,79.16-13c1.06,0,2.11,0,3.17,0h0c1.24,0,2.46,0,3.7.09a244.79,244.79,0,0,1,67,11.17,144.45,144.45,0,0,0-38.89-79.9A328.84,328.84,0,0,0,565.88,837.39Z"/><path class="cls-5" d="M744.91,1083.66l1.22,2.23Z"/><path class="cls-5" d="M737.68,1071.73c.3.46.61.91.91,1.38C738.29,1072.64,738,1072.19,737.68,1071.73Z"/><path class="cls-5" d="M741.78,1078.24c.37.63.74,1.26,1.1,1.89C742.52,1079.5,742.15,1078.87,741.78,1078.24Z"/><path class="cls-5" d="M751,1095.6c.25.52.51,1,.75,1.56C751.55,1096.64,751.29,1096.12,751,1095.6Z"/><path class="cls-5" d="M754.23,1102.7c.3.71.59,1.44.89,2.16C754.82,1104.14,754.53,1103.41,754.23,1102.7Z"/><path class="cls-5" d="M767.47,1149.49c.06.41.13.81.19,1.21C767.6,1150.3,767.53,1149.9,767.47,1149.49Z"/><path class="cls-5" d="M761.1,1121.61c.15.49.32,1,.47,1.47C761.42,1122.59,761.25,1122.1,761.1,1121.61Z"/><path class="cls-5" d="M666.57,928.85a121.8,121.8,0,0,1-10.15,26.71,123.16,123.16,0,0,1-19.61,27.67,147.64,147.64,0,0,0,6.27-42.7,150.66,150.66,0,0,0-1.49-21.06A245.06,245.06,0,0,1,666.57,928.85Z"/><path class="cls-5" d="M726.19,1055.94l1.14,1.45Z"/><path class="cls-5" d="M769.73,1294.75v-116c0-2-.06-4.07-.13-6.11,0-.78-.07-1.54-.09-2.32q-.1-2.17-.24-4.35c-.06-.85-.13-1.68-.18-2.51-.12-1.46-.27-2.89-.41-4.34,0-.25,0-.5-.07-.74s0-.5-.05-.75-.07-.51-.11-.78c-.23-2.07-.49-4.14-.79-6.19-.06-.41-.13-.8-.2-1.21q-.39-2.67-.87-5.32c-.16-.78-.3-1.56-.46-2.36-.26-1.34-.53-2.69-.81-4a6.18,6.18,0,0,1-.12-.62c-.15-.63-.29-1.25-.43-1.87-.32-1.35-.64-2.69-1-4-.07-.25-.13-.51-.2-.78-.12-.49-.25-1-.37-1.49q-.79-3-1.66-5.93c-.14-.49-.32-1-.46-1.47-.48-1.54-1-3.06-1.47-4.58-.23-.69-.48-1.38-.71-2.07a2.74,2.74,0,0,0-.11-.28c-.42-1.24-.85-2.46-1.31-3.69-.3-.79-.6-1.61-.92-2.42,0-.09-.07-.18-.1-.28-.45-1.15-.91-2.29-1.37-3.42-.3-.73-.58-1.45-.9-2.18q-1.17-2.79-2.42-5.52c-.25-.53-.52-1-.76-1.58-.45-.95-.91-1.89-1.39-2.85-.19-.4-.38-.83-.58-1.23-.37-.75-.76-1.47-1.13-2.22-.57-1.08-1.14-2.16-1.72-3.22a1,1,0,0,0-.09-.18l-1.22-2.23c-.65-1.18-1.34-2.35-2-3.52q-.55-1-1.11-1.89-1.57-2.61-3.19-5.14c-.3-.47-.62-.92-.92-1.38-.42-.65-.83-1.29-1.26-1.93l-.37-.51-.21-.32-.53-.78h0c-.07-.09-.12-.18-.2-.27-.42-.64-.88-1.27-1.32-1.91-.78-1.1-1.56-2.18-2.36-3.26-.46-.64-.94-1.26-1.4-1.87-.88-1.17-1.78-2.34-2.69-3.47-.39-.5-.76-1-1.15-1.46s-.63-.79-1-1.18c-1-1.21-2-2.39-3-3.56l-.85-1c-1.1-1.26-2.2-2.48-3.31-3.7-.46-.52-.94-1-1.4-1.51-1-1.06-2-2.12-3-3.15-.46-.48-.94-1-1.4-1.43-1.18-1.19-2.37-2.34-3.57-3.49l-.92-.87c-.61-.56-1.21-1.11-1.81-1.68l-.53-.49c-.21-.18-.44-.38-.66-.59a7.09,7.09,0,0,0-.65-.58l-1.06-1c-.21-.19-.44-.37-.66-.56-1.38-1.21-2.76-2.38-4.16-3.54-.42-.36-.86-.69-1.29-1-.64-.51-1.26-1-1.89-1.54a145.07,145.07,0,0,0,11.77-73.85,246.09,246.09,0,0,1,62.91,343.51Z"/><path class="cls-5" d="M769.72,1178.78c0,.18,0,.35,0,.52v115.45h0V1179.3C769.73,1179.13,769.72,1179,769.72,1178.78Z"/><path class="cls-5" d="M716.68,1045l1.39,1.49Z"/><path class="cls-5" d="M730,1060.86c.47.62.94,1.25,1.4,1.88C731,1062.11,730.49,1061.48,730,1060.86Z"/><path class="cls-5" d="M733.77,1066l1.34,1.9Z"/><path class="cls-5" d="M399.3,1034.42a113.92,113.92,0,0,1-46.66.27,246.85,246.85,0,0,1,24.57-36.13A143.58,143.58,0,0,0,399.3,1034.42Z"/><path class="cls-5" d="M347.58,1177.16a80,80,0,0,0,50.34,74.29c1.31-1.29,2.69-2.53,4.09-3.73v88.36a246.25,246.25,0,0,1-56.7-287.16,143.67,143.67,0,0,0,56.7,31.29v21.17A80,80,0,0,0,347.58,1177.16Z"/><path class="cls-5" d="M430.91,1002.38a113,113,0,0,1-39.38-19.84,246.1,246.1,0,0,1,38.14-32A144,144,0,0,0,430.91,1002.38Z"/><path class="cls-5" d="M488.58,921.2A117.58,117.58,0,0,1,469.66,986h0l-.12,0a114.37,114.37,0,0,1-26.16-44.12A244.72,244.72,0,0,1,488.58,921.2Z"/><path class="cls-5" d="M619.75,1100.32v294.44c-.37.09-.73.18-1.1.25V1100.8Z"/><path class="cls-5" d="M769.08,1163.49c.07.84.13,1.67.19,2.52C769.21,1165.16,769.15,1164.33,769.08,1163.49Z"/><path class="cls-5" d="M768.69,1159.17c-.05-.5-.09-1-.14-1.49,0,0,0,0,0,0Z"/><path class="cls-5" d="M765.32,1137.79c-.05-.21-.08-.41-.13-.62h0C765.22,1137.38,765.27,1137.58,765.32,1137.79Z"/><path class="cls-5" d="M769.51,1170.36c0,.78.07,1.55.1,2.33C769.58,1171.91,769.54,1171.14,769.51,1170.36Z"/><path class="cls-5" d="M759.64,1117c-.23-.7-.47-1.39-.71-2.07h0C759.17,1115.65,759.41,1116.33,759.64,1117Z"/><path class="cls-5" d="M763.61,1130.51c-.13-.5-.25-1-.38-1.5.13.5.24,1,.37,1.5Z"/><path class="cls-5" d="M766.13,1141.81c.16.79.31,1.57.46,2.36C766.44,1143.38,766.29,1142.6,766.13,1141.81Z"/><path class="cls-5" d="M707.76,1036.08c.31.28.61.58.91.87C708.37,1036.66,708.07,1036.36,707.76,1036.08Z"/><path class="cls-5" d="M712.24,1040.43l1.41,1.43Z"/><path class="cls-4" d="M886.36,1158.66a320.65,320.65,0,0,1-116.63,247.68c-5.47,4.53-11.1,8.85-16.87,13-3.17,2.28-6.37,4.49-9.63,6.67a320.42,320.42,0,0,1-38.84,22.21c-3.7,1.79-7.43,3.47-11.22,5.12q-7.27,3.18-14.74,6-9.64,3.63-19.55,6.66-8,2.43-16.19,4.44c-4.59,1.13-9.19,2.21-13.83,3.15h0l-1,.21a322.26,322.26,0,0,1-224.73-37.65c-95.27-55.74-159.28-159.15-159.28-277.5,0-143.22,93.71-264.54,223.16-306q2.82,4.08,5.33,8.46a121.74,121.74,0,0,1,16.28,60.09,244.72,244.72,0,0,0-45.22,20.71,117,117,0,0,1-5-22.94,146.38,146.38,0,0,0-8.69,31.58,246.1,246.1,0,0,0-38.14,32,117.84,117.84,0,0,1-25.44-27.21,146,146,0,0,0,11.12,43.23,246.85,246.85,0,0,0-24.57,36.13,119,119,0,0,1-28.84-9.78,146.07,146.07,0,0,0,21.51,24A246.24,246.24,0,0,0,618.65,1395c.37-.07.73-.16,1.1-.25a243,243,0,0,0,24.14-6.52h2.69a2,2,0,0,0,1.95-1.55,240.68,240.68,0,0,0,23.47-9.56q6.62-3.08,13-6.53c3-1.63,5.94-3.33,8.86-5.07,3.31-2,6.59-4,9.79-6.17a243.25,243.25,0,0,0,21-15.62,2,2,0,0,0,1.63-1.36c3.08-2.58,6.09-5.26,9-8,1.38-1.29,2.74-2.6,4.11-3.93,5.09-5,10-10.16,14.63-15.54,1.9-2.2,3.76-4.41,5.56-6.68,3.52-4.37,6.91-8.88,10.13-13.5a246.09,246.09,0,0,0-62.91-343.51A139.48,139.48,0,0,0,665.22,865a120,120,0,0,1,1.35,63.88,245.06,245.06,0,0,0-25-9.38,144.45,144.45,0,0,0-38.89-79.9C762.42,858.19,886.36,994,886.36,1158.66Z"/><path class="cls-6" d="M431.9,1006.81a92.42,92.42,0,0,0-18.58,23.61,109.17,109.17,0,0,1-14,4,143.58,143.58,0,0,1-22.09-35.86,146,146,0,0,1-11.12-43.23,117.84,117.84,0,0,0,25.44,27.21,113,113,0,0,0,39.38,19.84C431.21,1003.87,431.55,1005.34,431.9,1006.81Z"/><path class="cls-6" d="M643.08,940.53a147.64,147.64,0,0,1-6.27,42.7c-2.6,2.74-5.31,5.36-8.12,7.82A194.46,194.46,0,0,0,599,984.61a196.57,196.57,0,0,0-27-1.86h-.34A144.35,144.35,0,0,0,573,916.37c.65-2.65,1.22-5.34,1.68-8.07a123.81,123.81,0,0,0,1.8-21.08,121.76,121.76,0,0,0-10.55-49.83,119.57,119.57,0,0,0-23.42-34.61,137.86,137.86,0,0,1,60.24,36.79,144.45,144.45,0,0,1,38.89,79.9A150.66,150.66,0,0,1,643.08,940.53Z"/><path class="cls-6" d="M407.48,1043.34a91.5,91.5,0,0,0-5.47,31.28v5.59a143.67,143.67,0,0,1-56.7-31.29,146.07,146.07,0,0,1-21.51-24,119,119,0,0,0,28.84,9.78,113.92,113.92,0,0,0,46.66-.27Q403.2,1039.07,407.48,1043.34Z"/><path class="cls-6" d="M573,916.37A119.59,119.59,0,0,1,530,982.75H493.88A91.33,91.33,0,0,0,469.66,986a117.58,117.58,0,0,0,18.92-64.79,121.74,121.74,0,0,0-16.28-60.09q-2.52-4.38-5.33-8.46A120.44,120.44,0,0,0,400.8,804.8C445.92,794,494.23,807.16,529,839.39h0a148.41,148.41,0,0,1,41.88,68.82h0C571.69,910.92,572.36,913.65,573,916.37Z"/><path class="cls-6" d="M530,982.75h41.7A144.35,144.35,0,0,0,573,916.37,119.59,119.59,0,0,1,530,982.75Z"/><path class="cls-6" d="M399.3,1034.42q3.9,4.65,8.18,8.92a89.52,89.52,0,0,1,5.84-12.92A109.17,109.17,0,0,1,399.3,1034.42Z"/><path class="cls-6" d="M695.05,1025.09c-.6-.48-1.22-.94-1.83-1.4l-1.48-1.15q-1.89-1.41-3.81-2.79l-1.38-1a1.1,1.1,0,0,1-.14-.09c-1.63-1.15-3.28-2.29-5-3.38-.14-.11-.3-.2-.44-.3l-1.1-.69c-1.22-.8-2.46-1.6-3.7-2.36-.74-.46-1.5-.92-2.26-1.36-1.05-.64-2.11-1.26-3.17-1.86-.78-.46-1.56-.9-2.36-1.33l-3.39-1.86-2.13-1.11c-1.84-.94-3.7-1.88-5.57-2.76a91,91,0,0,0-8,6.56l-.83.8c-.25.23-.5.48-.73.71-.39.37-.78.74-1.15,1.11s-.56.55-.83.84c-1,1-2,2.09-3,3.16L641,1017c-.6.71-1.18,1.43-1.75,2.18s-1.15,1.48-1.7,2.24-1.19,1.63-1.75,2.45-.94,1.4-1.4,2.1l-.41.64c-.58.92-1.15,1.86-1.7,2.8-.26.42-.51.86-.76,1.31a8,8,0,0,0-.48.85c-.21.4-.44.81-.65,1.22l-.48.92-.48.94c-.17.33-.33.67-.49,1l-.69,1.43a2.6,2.6,0,0,0-.2.41c-.44,1-.87,1.91-1.27,2.88a.07.07,0,0,1,0,.07c-.48,1.15-.94,2.32-1.36,3.51-.36.95-.71,1.93-1,2.92,0,0,0,.05,0,.09s-.13.35-.18.55-.18.54-.27.83a1.33,1.33,0,0,1,0,.19c-.12.37-.23.75-.34,1.13s-.21.75-.31,1.12c0,0,0,0,0,.09l-.16.55c0,.07,0,.16,0,.23h0c-.18.62-.34,1.22-.48,1.84s-.33,1.38-.47,2.07c-.13.5-.24,1-.34,1.49s-.21,1-.3,1.54-.21,1.11-.3,1.68-.23,1.34-.32,2a2.54,2.54,0,0,0-.07.47c0,.32-.09.62-.13.92s-.08.64-.1.94c0,.06,0,.09,0,.13-.12.83-.21,1.68-.27,2.53,0,.35-.08.69-.1,1v.25c0,.21,0,.44-.06.67s0,.43,0,.66,0,.42,0,.65a3.13,3.13,0,0,0,0,.43c-.09,1.57-.12,3.17-.12,4.78v24.6l-1.1.48v-25.08a91.68,91.68,0,0,1,37.56-74.08,195.49,195.49,0,0,0-22.59-9q1.75-4.62,3.19-9.38a123.16,123.16,0,0,0,19.61-27.67,121.8,121.8,0,0,0,10.15-26.71A120,120,0,0,0,665.22,865a139.48,139.48,0,0,1,41.6,86.27A145.07,145.07,0,0,1,695.05,1025.09Z"/><path class="cls-6" d="M681,1015c-.36-.24-.74-.46-1.11-.7.37.23.74.46,1.1.7Z"/><path class="cls-6" d="M662.91,1004.41c.71.36,1.41.74,2.11,1.11C664.31,1005.15,663.62,1004.77,662.91,1004.41Z"/><path class="cls-6" d="M668.43,1007.37c.79.43,1.57.88,2.35,1.33C670,1008.25,669.22,1007.8,668.43,1007.37Z"/><path class="cls-6" d="M686.55,1018.74l1.38,1Z"/><path class="cls-6" d="M691.73,1022.55l1.5,1.14Z"/><path class="cls-6" d="M657.32,1001.64a91,91,0,0,0-8,6.57,91.46,91.46,0,0,1,8-6.57Z"/><path class="cls-6" d="M674,1010.56l2.25,1.36Z"/><path class="cls-6" d="M469.52,986a91.28,91.28,0,0,0-33.9,17.55c-1.57-.35-3.15-.76-4.71-1.2a144,144,0,0,1-1.24-51.83A146.38,146.38,0,0,1,438.36,919a117,117,0,0,0,5,22.94A114.37,114.37,0,0,0,469.52,986Z"/><path class="cls-6" d="M636.81,983.23c-2.6,2.74-5.31,5.36-8.12,7.82,1.66.5,3.31,1,4.93,1.56Q635.38,988,636.81,983.23Z"/><path class="cls-6" d="M430.91,1002.38c.3,1.49.64,3,1,4.43q1.82-1.68,3.72-3.23C434.05,1003.23,432.47,1002.82,430.91,1002.38Z"/><polygon class="cls-7" points="469.64 985.99 469.52 986.02 469.57 986.1 469.64 985.99"/><path class="cls-7" d="M618.65,1100.8V1395A246.55,246.55,0,0,1,402,1336.08v-88.36c.62-.55,1.25-1.1,1.89-1.61a79.89,79.89,0,0,1,80-12.15,75.53,75.53,0,0,0,5.39-5.91,79.58,79.58,0,0,0,18.19-47.1c.06-1.26.09-2.52.09-3.79A80,80,0,0,0,402,1101.38v-21.17a137.48,137.48,0,0,0,73.72.6c.85.2,1.7.38,2.57.54A135.63,135.63,0,0,0,540.77,1110a24.44,24.44,0,1,0,40.78.86h0A140.74,140.74,0,0,0,618.65,1100.8Z"/><path class="cls-7" d="M435.6,1019.55q-2.14-6.27-3.7-12.74a92.42,92.42,0,0,0-18.58,23.61,111.93,111.93,0,0,0,18.16-8.37C432.88,1021.25,434.26,1020.42,435.6,1019.55Z"/><path class="cls-7" d="M628.69,991.05A194.46,194.46,0,0,0,599,984.61a196.57,196.57,0,0,0-27-1.86h-.34a139.82,139.82,0,0,1-16,37.88A118.45,118.45,0,0,0,628.69,991.05Z"/><path class="cls-7" d="M475.73,1080.81c.85.2,1.7.38,2.57.54l-1.12-.93C476.71,1080.57,476.21,1080.69,475.73,1080.81Z"/><path class="cls-7" d="M469.57,986.1a111.88,111.88,0,0,0,20.15,16.62,113.83,113.83,0,0,0,40.32-20H493.88A91.33,91.33,0,0,0,469.66,986h0Z"/><path class="cls-7" d="M402,1074.62v5.59a137.48,137.48,0,0,0,73.72.6,136.94,136.94,0,0,1-68.25-37.47A91.5,91.5,0,0,0,402,1074.62Z"/><path class="cls-7" d="M498.9,1008.06a112.19,112.19,0,0,0,56.89,12.57,139.82,139.82,0,0,0,16-37.88H530a113.83,113.83,0,0,1-40.32,20C492.67,1004.63,495.73,1006.42,498.9,1008.06Z"/><path class="cls-7" d="M435.6,1019.55c-1.34.87-2.72,1.7-4.12,2.5a111.93,111.93,0,0,1-18.16,8.37,89.52,89.52,0,0,0-5.84,12.92,136.94,136.94,0,0,0,68.25,37.47c.48-.12,1-.24,1.45-.39A137,137,0,0,1,435.6,1019.55Z"/><path class="cls-7" d="M469.57,986.1l-.05-.07a91.28,91.28,0,0,0-33.9,17.55,109.51,109.51,0,0,0,17.21,2.57A110.85,110.85,0,0,0,469.57,986.1Z"/><path class="cls-7" d="M504.21,1083.84a135,135,0,0,1-25.91-2.49A135.63,135.63,0,0,0,540.77,1110h0a24.39,24.39,0,0,1,40.77.87h0a140.74,140.74,0,0,0,37.08-10v-25.08a91.68,91.68,0,0,1,37.56-74.08,195.49,195.49,0,0,0-22.59-9C613.45,1046,563.1,1083.84,504.21,1083.84Z"/><path class="cls-7" d="M452.83,1006.15a109.51,109.51,0,0,1-17.21-2.57q-1.9,1.54-3.72,3.23,1.55,6.48,3.7,12.74A109.94,109.94,0,0,0,452.83,1006.15Z"/><path class="cls-7" d="M507.59,1067.59a135.39,135.39,0,0,1-30.41,12.83l1.12.93a135,135,0,0,0,25.91,2.49c58.89,0,109.24-37.83,129.41-91.23-1.62-.55-3.27-1.06-4.93-1.56a118.45,118.45,0,0,1-72.9,29.58A134.89,134.89,0,0,1,507.59,1067.59Z"/><path class="cls-7" d="M460.9,1006.45a112.4,112.4,0,0,0,28.82-3.73,111.88,111.88,0,0,1-20.15-16.62,110.85,110.85,0,0,1-16.74,20C455.5,1006.36,458.19,1006.45,460.9,1006.45Z"/><path class="cls-7" d="M452.83,1006.15a109.94,109.94,0,0,1-17.23,13.4,137,137,0,0,0,41.58,60.87,135.47,135.47,0,0,0,78.61-59.79,112.19,112.19,0,0,1-56.89-12.57c-3.17-1.64-6.23-3.43-9.18-5.34a112.4,112.4,0,0,1-28.82,3.73C458.19,1006.45,455.5,1006.36,452.83,1006.15Z"/><path class="cls-8" d="M347.58,1177.17a80,80,0,0,0,50.34,74.29c1.31-1.31,2.69-2.54,4.09-3.75V1101.38A80,80,0,0,0,347.58,1177.17Z"/><path class="cls-8" d="M403.9,1246.1a80,80,0,0,1,79.21-68.93,80.3,80.3,0,0,1,18.8,2.23c1.87.46,3.72,1,5.54,1.55.06-1.25.1-2.51.1-3.78A80,80,0,0,0,402,1101.38v146.33C402.64,1247.17,403.26,1246.62,403.9,1246.1Z"/><path class="cls-9" d="M403.9,1246.1a79.39,79.39,0,0,1,9.45-28,79.39,79.39,0,0,0-9.45,28,79.94,79.94,0,0,1,80-12.13h0a79.94,79.94,0,0,0-80,12.13Z"/><path class="cls-9" d="M507.45,1181a79.62,79.62,0,0,1-18.2,47.11,79.62,79.62,0,0,0,18.2-47.11c-1.82-.58-3.67-1.09-5.54-1.55C503.78,1179.86,505.63,1180.37,507.45,1181Z"/><path class="cls-10" d="M483.87,1234c1.89-1.88,3.68-3.86,5.38-5.91-1.7,2-3.49,4-5.38,5.91Z"/><path class="cls-10" d="M483.11,1177.17a80.3,80.3,0,0,1,18.8,2.23,80,80,0,0,0-88.56,38.65A79.93,79.93,0,0,1,483.11,1177.17Z"/><path class="cls-10" d="M501.91,1179.4a80,80,0,0,0-88.56,38.65,79.39,79.39,0,0,0-9.45,28,79.94,79.94,0,0,1,80-12.13c1.89-1.88,3.68-3.86,5.38-5.91a79.62,79.62,0,0,0,18.2-47.11C505.63,1180.37,503.78,1179.86,501.91,1179.4Z"/><path class="cls-11" d="M540.77,1110a24.44,24.44,0,1,0,40.77.87A135.41,135.41,0,0,1,540.77,1110Z"/><path class="cls-11" d="M560.88,1099.4A24.4,24.4,0,0,0,540.77,1110a135.41,135.41,0,0,0,40.77.87A24.4,24.4,0,0,0,560.88,1099.4Z"/><path class="cls-2" d="M742.88,1080.13c.69,1.17,1.37,2.35,2,3.53C744.25,1082.48,743.57,1081.3,742.88,1080.13Z"/><path class="cls-2" d="M713.65,1041.86c1,1.05,2,2.1,3,3.17C715.68,1044,714.67,1042.91,713.65,1041.86Z"/><path class="cls-2" d="M708.67,1037q1.82,1.72,3.57,3.48Q710.49,1038.68,708.67,1037Z"/><path class="cls-2" d="M727.33,1057.39c.91,1.15,1.81,2.3,2.69,3.47C729.14,1059.69,728.24,1058.54,727.33,1057.39Z"/><path class="cls-2" d="M769.6,1172.68c0-.78-.07-1.54-.09-2.32q-.1-2.17-.24-4.35c-.06-.85-.13-1.68-.18-2.51-.12-1.46-.27-2.89-.41-4.34,0-.25,0-.5-.07-.74s-.05-.47-.07-.7a2,2,0,0,1-2,1.67H737.35a2.05,2.05,0,0,1-2.05-2.05v-2.55a2.05,2.05,0,0,1,2.05-2.06h29.21a2,2,0,0,1,1.43.59c-.1-.87-.21-1.76-.33-2.62-.06-.41-.13-.8-.2-1.21q-.39-2.67-.87-5.32c-.16-.78-.3-1.56-.46-2.36-.26-1.34-.53-2.69-.81-4-.05-.21-.09-.4-.14-.62H737.35a2.05,2.05,0,0,1-2.05-2.05v-2.57a2.07,2.07,0,0,1,2.05-2H763.6c-.12-.49-.25-1-.37-1.49q-.79-3-1.66-5.93c-.14-.49-.32-1-.46-1.47-.48-1.54-1-3.06-1.47-4.58-.23-.69-.48-1.38-.71-2.07H737.35a2.05,2.05,0,0,1-2.05-2v-2.57a2.05,2.05,0,0,1,2.05-2h19.14c-.45-1.15-.91-2.29-1.37-3.42-.3-.73-.58-1.45-.9-2.18q-1.17-2.79-2.42-5.52c-.25-.53-.52-1-.76-1.58-.45-.95-.91-1.89-1.39-2.85h-12.3a2.06,2.06,0,0,1-2.05-2.07v-2.55a2.05,2.05,0,0,1,2.05-2h8.87a1,1,0,0,0-.09-.18l-1.22-2.23c-.65-1.18-1.34-2.35-2-3.52q-.55-1-1.11-1.89-1.57-2.61-3.19-5.14c-.3-.47-.62-.92-.92-1.38s-.58-.88-.88-1.32a2,2,0,0,1-1.49-2v-.28c-.07-.09-.12-.18-.2-.27-.42-.64-.88-1.27-1.32-1.91-.78-1.1-1.56-2.18-2.36-3.26-.46-.64-.94-1.26-1.4-1.87-.88-1.17-1.78-2.34-2.69-3.47-.39-.5-.76-1-1.15-1.46s-.63-.79-1-1.18a2.1,2.1,0,0,1-.87.21h-29.2a2.07,2.07,0,0,1-2.06-2v-2.57a2.05,2.05,0,0,1,2.06-2h24.51c-.51-.59-1-1.19-1.57-1.77s-.94-1-1.4-1.51c-1-1.06-2-2.12-3-3.15-.46-.48-.94-1-1.4-1.43-1.18-1.19-2.37-2.34-3.57-3.49l-.92-.87c-.61-.56-1.21-1.11-1.81-1.68l-.53-.49c-.21-.18-.44-.38-.66-.59a7.09,7.09,0,0,0-.65-.58h-9a2.06,2.06,0,0,1-2.06-2.06v-1.29q-1,2.13-2.12,4.23c-1.44,2.76-3,5.44-4.55,8.06v.12a2,2,0,0,1-1.19,1.84,147.67,147.67,0,0,1-11.29,15.77h10.43a2.05,2.05,0,0,1,2,2.06V1064a2.05,2.05,0,0,1-2,2H668.09a144.5,144.5,0,0,1-33.37,26.67h11.86a2.05,2.05,0,0,1,2,2.06v2.55a2.05,2.05,0,0,1-2,2.05H621.75l-2,.92V1115h26.83a2.05,2.05,0,0,1,2,2v2.55a2.05,2.05,0,0,1-2,2H619.75v15.56h26.83a2.05,2.05,0,0,1,2,2.06v2.55a2.07,2.07,0,0,1-2,2.07H619.75v15.54h26.83a2.05,2.05,0,0,1,2,2V1164a2.05,2.05,0,0,1-2,2H619.75v15.54h26.83a2.07,2.07,0,0,1,2,2.06v2.56a2.05,2.05,0,0,1-2,2.06H619.75v15.56h26.83a2.05,2.05,0,0,1,2,2.05v2.55a2.05,2.05,0,0,1-2,2H619.75v15.56h26.83a2.05,2.05,0,0,1,2,2v2.55a2.05,2.05,0,0,1-2,2.06H619.75v15.56h26.83a2.05,2.05,0,0,1,2,2v2.57a2.07,2.07,0,0,1-2,2H619.75v15.54h26.83a2.07,2.07,0,0,1,2,2v2.57a2.05,2.05,0,0,1-2,2.05H619.75v15.56h26.83a2.05,2.05,0,0,1,2,2.06v2.54a2.05,2.05,0,0,1-2,2.06H619.75v15.56h26.83a2.05,2.05,0,0,1,2,2v2.55a2.05,2.05,0,0,1-2,2H619.75v15.56h26.83a2.05,2.05,0,0,1,2,2.06v2.56a2.07,2.07,0,0,1-2,2.06H619.75v15.54h26.83a2.05,2.05,0,0,1,2,2.05V1364a2.05,2.05,0,0,1-2,2H619.75v15.54h26.83a2.07,2.07,0,0,1,2,2.07v2.55a1.65,1.65,0,0,1-.1.5,240.68,240.68,0,0,0,23.47-9.56H655.13a2.05,2.05,0,0,1-2-2.05v-2.55a2.05,2.05,0,0,1,2-2.06h29.23a1.8,1.8,0,0,1,.62.13c3-1.63,5.94-3.33,8.86-5.07a2,2,0,0,1-.76-1.55v-2.57a2.05,2.05,0,0,1,2.06-2.05h8.49a243.25,243.25,0,0,0,21-15.62,1.47,1.47,0,0,1-.3.08h-29.2a2.07,2.07,0,0,1-2.06-2.06v-2.56a2.06,2.06,0,0,1,2.06-2.06h29.2a2.06,2.06,0,0,1,2.06,2.06v2.56a1.86,1.86,0,0,1-.13.62c3.08-2.58,6.09-5.26,9-8v-1.88a2.07,2.07,0,0,1,2.05-2h2.06c5.09-5,10-10.16,14.63-15.54H737.35a2.05,2.05,0,0,1-2.05-2.06v-2.56a2.05,2.05,0,0,1,2.05-2.06H759.6c3.52-4.37,6.91-8.88,10.13-13.5v-116C769.71,1176.74,769.67,1174.72,769.6,1172.68Zm-83.19,180.18a2.05,2.05,0,0,1-2,2.05H655.13a2.05,2.05,0,0,1-2-2.05v-2.55a2.05,2.05,0,0,1,2-2h29.23a2.05,2.05,0,0,1,2,2Zm0-22.21a2.05,2.05,0,0,1-2,2H655.13a2.05,2.05,0,0,1-2-2v-2.57a2.06,2.06,0,0,1,2-2h29.23a2.06,2.06,0,0,1,2,2Zm0-22.22a2.05,2.05,0,0,1-2,2H655.13a2.05,2.05,0,0,1-2-2v-2.57a2.05,2.05,0,0,1,2-2h29.23a2.05,2.05,0,0,1,2,2Zm0-22.23a2.05,2.05,0,0,1-2,2H655.13a2.05,2.05,0,0,1-2-2v-2.55a2.05,2.05,0,0,1,2-2.05h29.23a2.05,2.05,0,0,1,2,2.05Zm0-22.22a2.05,2.05,0,0,1-2,2.06H655.13a2.05,2.05,0,0,1-2-2.06v-2.55a2.05,2.05,0,0,1,2-2h29.23a2.05,2.05,0,0,1,2,2Zm0-22.21a2.05,2.05,0,0,1-2,2H655.13a2.05,2.05,0,0,1-2-2v-2.55a2.07,2.07,0,0,1,2-2.07h29.23a2.07,2.07,0,0,1,2,2.07Zm0-22.22a2.05,2.05,0,0,1-2,2.06H655.13a2.05,2.05,0,0,1-2-2.06V1217a2.05,2.05,0,0,1,2-2.06h29.23a2.05,2.05,0,0,1,2,2.06Zm0-22.21a2.07,2.07,0,0,1-2,2.05H655.13a2.07,2.07,0,0,1-2-2.05v-2.57a2.05,2.05,0,0,1,2-2h29.23a2.05,2.05,0,0,1,2,2Zm0-22.23a2.05,2.05,0,0,1-2,2.05H655.13a2.05,2.05,0,0,1-2-2.05v-2.55a2.06,2.06,0,0,1,2-2.06h29.23a2.06,2.06,0,0,1,2,2.06Zm0-22.22a2.05,2.05,0,0,1-2,2.06H655.13a2.05,2.05,0,0,1-2-2.06v-2.55a2.05,2.05,0,0,1,2-2h29.23a2.05,2.05,0,0,1,2,2Zm0-22.21a2.05,2.05,0,0,1-2,2H655.13a2.05,2.05,0,0,1-2-2v-2.57a2.07,2.07,0,0,1,2-2h29.23a2.07,2.07,0,0,1,2,2Zm0-22.22a2.07,2.07,0,0,1-2,2.06H655.13a2.07,2.07,0,0,1-2-2.06v-2.56a2.05,2.05,0,0,1,2-2.06h29.23a2.05,2.05,0,0,1,2,2.06Zm0-22.23a2.05,2.05,0,0,1-2,2H655.13a2.05,2.05,0,0,1-2-2v-2.55a2.05,2.05,0,0,1,2-2h29.23a2.05,2.05,0,0,1,2,2Zm40,233.3a2.06,2.06,0,0,1-2.06,2h-29.2a2.05,2.05,0,0,1-2.06-2V1317a2.05,2.05,0,0,1,2.06-2h29.2a2.06,2.06,0,0,1,2.06,2Zm0-22.22a2.06,2.06,0,0,1-2.06,2.06h-29.2a2.06,2.06,0,0,1-2.06-2.06v-2.54a2.06,2.06,0,0,1,2.06-2.06h29.2a2.06,2.06,0,0,1,2.06,2.06Zm0-22.21a2.06,2.06,0,0,1-2.06,2.05h-29.2a2.05,2.05,0,0,1-2.06-2.05v-2.57a2.07,2.07,0,0,1,2.06-2h29.2a2.07,2.07,0,0,1,2.06,2Zm0-22.21a2.07,2.07,0,0,1-2.06,2h-29.2a2.07,2.07,0,0,1-2.06-2v-2.57a2.05,2.05,0,0,1,2.06-2h29.2a2.06,2.06,0,0,1,2.06,2Zm0-22.24a2.06,2.06,0,0,1-2.06,2.06h-29.2a2.06,2.06,0,0,1-2.06-2.06v-2.55a2.05,2.05,0,0,1,2.06-2h29.2a2.06,2.06,0,0,1,2.06,2Zm0-22.21a2.06,2.06,0,0,1-2.06,2h-29.2a2.05,2.05,0,0,1-2.06-2v-2.55a2.05,2.05,0,0,1,2.06-2.05h29.2a2.06,2.06,0,0,1,2.06,2.05Zm0-22.22a2.06,2.06,0,0,1-2.06,2.06h-29.2a2.06,2.06,0,0,1-2.06-2.06v-2.56a2.07,2.07,0,0,1,2.06-2.06h29.2a2.08,2.08,0,0,1,2.06,2.06Zm0-22.21a2.06,2.06,0,0,1-2.06,2h-29.2a2.05,2.05,0,0,1-2.06-2v-2.57a2.05,2.05,0,0,1,2.06-2h29.2a2.06,2.06,0,0,1,2.06,2Zm0-22.23a2.08,2.08,0,0,1-2.06,2.07h-29.2a2.07,2.07,0,0,1-2.06-2.07v-2.55a2.06,2.06,0,0,1,2.06-2.06h29.2a2.06,2.06,0,0,1,2.06,2.06Zm0-22.22a2.06,2.06,0,0,1-2.06,2h-29.2a2.05,2.05,0,0,1-2.06-2V1117a2.05,2.05,0,0,1,2.06-2h29.2a2.06,2.06,0,0,1,2.06,2Zm0-22.21a2.06,2.06,0,0,1-2.06,2.05h-29.2a2.05,2.05,0,0,1-2.06-2.05v-2.55a2.06,2.06,0,0,1,2.06-2.06h29.2a2.06,2.06,0,0,1,2.06,2.06Zm0-22.22a2.06,2.06,0,0,1-2.06,2.06h-29.2a2.06,2.06,0,0,1-2.06-2.06v-2.56a2.07,2.07,0,0,1,2.06-2.06h29.2a2.08,2.08,0,0,1,2.06,2.06Zm42.21,215.51a2.07,2.07,0,0,1-2.05,2.07H737.35a2.07,2.07,0,0,1-2.05-2.07v-2.55a2.05,2.05,0,0,1,2.05-2h29.21a2.05,2.05,0,0,1,2.05,2Zm0-22.21a2.05,2.05,0,0,1-2.05,2H737.35a2.05,2.05,0,0,1-2.05-2v-2.55a2.05,2.05,0,0,1,2.05-2.06h29.21a2.05,2.05,0,0,1,2.05,2.06Zm0-22.22a2.06,2.06,0,0,1-2.05,2.06H737.35a2.06,2.06,0,0,1-2.05-2.06v-2.55a2.05,2.05,0,0,1,2.05-2.05h29.21a2.05,2.05,0,0,1,2.05,2.05Zm0-22.21a2.05,2.05,0,0,1-2.05,2H737.35a2.05,2.05,0,0,1-2.05-2v-2.57a2.07,2.07,0,0,1,2.05-2h29.21a2.07,2.07,0,0,1,2.05,2Zm0-22.22a2.07,2.07,0,0,1-2.05,2.06H737.35a2.07,2.07,0,0,1-2.05-2.06v-2.56a2.05,2.05,0,0,1,2.05-2.06h29.21a2.05,2.05,0,0,1,2.05,2.06Zm0-22.23a2.05,2.05,0,0,1-2.05,2H737.35a2.05,2.05,0,0,1-2.05-2V1177a2.05,2.05,0,0,1,2.05-2h29.21a2.05,2.05,0,0,1,2.05,2Z"/><path class="cls-2" d="M761.57,1123.08q.87,2.94,1.66,5.93Q762.44,1126,761.57,1123.08Z"/><path class="cls-2" d="M731.42,1062.74c.8,1.08,1.58,2.16,2.35,3.26C733,1064.9,732.22,1063.82,731.42,1062.74Z"/><path class="cls-2" d="M751.79,1097.16q1.26,2.74,2.44,5.54Q753,1099.91,751.79,1097.16Z"/><path class="cls-2" d="M698.23,1027.68q2.1,1.74,4.16,3.53Q700.34,1029.43,698.23,1027.68Z"/><path class="cls-2" d="M738.59,1073.11q1.63,2.54,3.19,5.13Q740.22,1075.65,738.59,1073.11Z"/><path class="cls-2" d="M757.51,1111c.46,1.22.89,2.44,1.32,3.67C758.4,1113.44,758,1112.22,757.51,1111Z"/><path class="cls-2" d="M768.45,1156.89c-.23-2.07-.49-4.14-.79-6.19.12.87.22,1.75.33,2.62C768.15,1154.5,768.32,1155.69,768.45,1156.89Z"/><path class="cls-2" d="M759.64,1117c.51,1.51,1,3,1.46,4.58C760.63,1120.07,760.15,1118.54,759.64,1117Z"/><path class="cls-2" d="M751,1095.6c-.65-1.37-1.3-2.74-2-4.09.21.41.4.82.6,1.23C750.12,1093.69,750.59,1094.64,751,1095.6Z"/><path class="cls-2" d="M696.24,1026.08l.7.55-1.89-1.54,0,0Z"/><path class="cls-2" d="M696.24,1026.08l-1.21-1-.49,1.08a1.94,1.94,0,0,1,.59-.12Z"/><path class="cls-2" d="M756.6,1108.57c-.48-1.24-1-2.48-1.48-3.71.46,1.14.92,2.28,1.36,3.43Z"/><path class="cls-2" d="M747.93,1089.3c-.59-1.14-1.19-2.28-1.8-3.41l.09.18C746.8,1087.14,747.37,1088.22,747.93,1089.3Z"/><path class="cls-2" d="M721.38,1050.22c-1.09-1.24-2.19-2.48-3.31-3.7.54.59,1.06,1.19,1.59,1.78Z"/><path class="cls-2" d="M726.19,1055.94q-1.94-2.4-4-4.74c1,1.17,2,2.37,3,3.56C725.53,1055.16,725.87,1055.54,726.19,1055.94Z"/><path class="cls-2" d="M707.76,1036.08q-2.32-2.19-4.71-4.3l1.06,1Q706,1034.38,707.76,1036.08Z"/><path class="cls-2" d="M769.27,1166q.13,2.16.24,4.35Q769.41,1168.17,769.27,1166Z"/><polygon class="cls-2" points="619.75 1381.58 619.75 1366.03 619.75 1359.36 619.75 1343.81 619.75 1337.14 619.75 1321.59 619.75 1314.92 619.75 1299.37 619.75 1292.7 619.75 1277.15 619.75 1270.49 619.75 1254.93 619.75 1248.27 619.75 1232.71 619.75 1226.05 619.75 1210.49 619.75 1203.83 619.75 1188.28 619.75 1181.61 619.75 1166.06 619.75 1159.39 619.75 1143.84 619.75 1137.17 619.75 1121.62 619.75 1114.95 619.75 1100.32 619.75 1100.32 619.75 1394.76 619.75 1394.76 619.75 1388.24 619.75 1381.58"/><path class="cls-2" d="M763.8,1131.28c.33,1.33.66,2.67,1,4C764.46,1134,764.13,1132.61,763.8,1131.28Z"/><path class="cls-2" d="M768.69,1159.17c.14,1.43.28,2.87.39,4.32C769,1162,768.83,1160.6,768.69,1159.17Z"/><path class="cls-2" d="M769.61,1172.69c.07,2,.1,4,.11,6.09C769.71,1176.74,769.68,1174.71,769.61,1172.69Z"/><path class="cls-2" d="M765.32,1137.79q.42,2,.81,4Q765.74,1139.8,765.32,1137.79Z"/><path class="cls-2" d="M766.59,1144.17c.31,1.77.61,3.54.88,5.32C767.2,1147.71,766.9,1145.94,766.59,1144.17Z"/><path class="cls-2" d="M736.79,1070.4c.29.45.59.88.89,1.33-.85-1.28-1.7-2.56-2.57-3.83l.18.27C735.8,1068.91,736.29,1069.66,736.79,1070.4Z"/><path class="cls-2" d="M619.75,1099.4v-23.68c0-1.75.07-3.48.16-5.2a92.6,92.6,0,0,1,2.23-15.56c.52-2.25,1.1-4.48,1.78-6.66a91.5,91.5,0,0,1,6.52-15.55c1.21-2.29,2.53-4.51,3.92-6.67a92.12,92.12,0,0,1,12.72-15.65c.48-.48,1-1,1.45-1.43l.83-.79a91.56,91.56,0,0,0-29.61,67.51v24.6h0Z"/><path class="cls-2" d="M657.33,1001.64h0c1.87.89,3.73,1.82,5.58,2.77C661.06,1003.46,659.2,1002.53,657.33,1001.64Z"/><path class="cls-2" d="M687.93,1019.74c1.28.93,2.55,1.86,3.8,2.81Q689.86,1021.13,687.93,1019.74Z"/><path class="cls-2" d="M619.75,1100.32c.68-.29,1.33-.62,2-.92h-2Z"/><path class="cls-2" d="M647.08,1010.43a92.12,92.12,0,0,0-12.72,15.65h12.22a2.06,2.06,0,0,1,2.06,2.05v2.56a2.07,2.07,0,0,1-2.06,2.06H630.44a91.5,91.5,0,0,0-6.52,15.55h22.66a2.06,2.06,0,0,1,2.06,2v2.56a2.06,2.06,0,0,1-2.06,2H622.14a92.6,92.6,0,0,0-2.23,15.56h26.67a2.06,2.06,0,0,1,2.06,2v2.56a2.06,2.06,0,0,1-2.06,2H619.75v15.56h15a144.72,144.72,0,0,0,33.36-26.67h-13a2.06,2.06,0,0,1-2.06-2v-2.56a2.06,2.06,0,0,1,2.06-2h18.78a147.82,147.82,0,0,0,11.3-15.76,2.09,2.09,0,0,1-.86.2H655.14a2.06,2.06,0,0,1-2.06-2v-2.56a2.06,2.06,0,0,1,2.06-2h29.22a2.05,2.05,0,0,1,2,2v2.44c1.58-2.63,3.11-5.3,4.55-8.06q1.1-2.1,2.12-4.23v-1.26a2,2,0,0,1,1.46-1.93l.49-1.08-1.8-1.43-1.5-1.14c-1.25-.95-2.52-1.88-3.8-2.81l-1.38-1-.14-.09v.93a2.06,2.06,0,0,1-2,2.06H655.14a2.07,2.07,0,0,1-2.06-2.06V1017a2.07,2.07,0,0,1,2.06-2H681c-.36-.24-.73-.47-1.1-.7q-1.83-1.2-3.7-2.35l-2.25-1.36c-1.06-.63-2.11-1.25-3.18-1.86-.78-.45-1.56-.9-2.35-1.33-1.13-.63-2.27-1.24-3.41-1.85-.7-.37-1.4-.75-2.11-1.11-1.85-.95-3.71-1.88-5.58-2.77a91.46,91.46,0,0,0-8,6.57l-.83.79A2,2,0,0,1,647.08,1010.43Z"/><path class="cls-2" d="M676.21,1011.92q1.88,1.16,3.7,2.35Q678.08,1013.07,676.21,1011.92Z"/><path class="cls-2" d="M665,1005.52c1.14.61,2.28,1.22,3.41,1.85C667.3,1006.74,666.16,1006.13,665,1005.52Z"/><path class="cls-2" d="M686.55,1018.74c-1.68-1.18-3.38-2.35-5.09-3.48,1.67,1.1,3.32,2.24,4.95,3.39Z"/><path class="cls-2" d="M695.05,1025.09l-1.82-1.4,1.8,1.43Z"/><path class="cls-2" d="M670.78,1008.7c1.07.61,2.12,1.23,3.18,1.86C672.9,1009.93,671.85,1009.31,670.78,1008.7Z"/><rect class="cls-3" x="693.08" y="1092.74" width="33.33" height="6.67" rx="2.05"/><rect class="cls-3" x="693.08" y="1114.96" width="33.33" height="6.67" rx="2.05"/><rect class="cls-3" x="693.08" y="1137.17" width="33.33" height="6.67" rx="2.05"/><path class="cls-3" d="M696.94,1026.63l1.29,1Z"/><path class="cls-3" d="M702.39,1031.21l.66.57Z"/><path class="cls-3" d="M695.13,1026.08a1.94,1.94,0,0,0-.59.12c-.48,1.07-1,2.13-1.46,3.19v1.3a2.06,2.06,0,0,0,2,2.06h9l-1.06-1-.66-.57q-2.05-1.79-4.16-3.53l-1.29-1-.7-.55Z"/><path class="cls-3" d="M693.08,1028.13v1.26c.5-1.06,1-2.12,1.46-3.19A2,2,0,0,0,693.08,1028.13Z"/><path class="cls-3" d="M721.38,1050.22c.28.33.58.65.86,1C722,1050.87,721.66,1050.55,721.38,1050.22Z"/><path class="cls-3" d="M695.13,1048.3a2.05,2.05,0,0,0-2,2v2.56a2.05,2.05,0,0,0,2,2h29.22a1.94,1.94,0,0,0,.86-.2c-1-1.19-2-2.39-3-3.56-.28-.33-.58-.65-.86-1l-1.72-1.92Z"/><rect class="cls-3" x="693.08" y="1070.52" width="33.33" height="6.67" rx="2.05"/><rect class="cls-3" x="693.08" y="1159.39" width="33.33" height="6.67" rx="2.05"/><rect class="cls-3" x="693.08" y="1181.61" width="33.33" height="6.67" rx="2.05"/><rect class="cls-3" x="693.08" y="1203.83" width="33.33" height="6.67" rx="2.05"/><rect class="cls-3" x="693.08" y="1226.05" width="33.33" height="6.67" rx="2.05"/><rect class="cls-3" x="693.08" y="1248.27" width="33.33" height="6.67" rx="2.05"/><rect class="cls-3" x="693.08" y="1270.49" width="33.33" height="6.67" rx="2.05"/><rect class="cls-3" x="693.08" y="1292.7" width="33.33" height="6.67" rx="2.05"/><rect class="cls-3" x="693.08" y="1314.92" width="33.33" height="6.67" rx="2.05"/><path class="cls-3" d="M726.27,1342.38a2,2,0,0,1-1.63,1.36C725.19,1343.3,725.74,1342.84,726.27,1342.38Z"/><path class="cls-3" d="M726.4,1341.75v-2.55a2.06,2.06,0,0,0-2-2.06H695.13a2.06,2.06,0,0,0-2,2.06v2.55a2.06,2.06,0,0,0,2,2.06h29.22c.1,0,.19,0,.29-.06l1.64-1.37A2.2,2.2,0,0,0,726.4,1341.75Z"/><path class="cls-3" d="M703.63,1359.36c-3.2,2.14-6.48,4.19-9.79,6.17a2,2,0,0,1-.76-1.55v-2.57a2.05,2.05,0,0,1,2.06-2.05Z"/><path class="cls-3" d="M756.6,1108.57c.31.81.61,1.62.91,2.43C757.21,1110.19,756.91,1109.38,756.6,1108.57Z"/><path class="cls-3" d="M758.93,1115c0-.1-.07-.19-.1-.29,0,.1.07.19.1.29Z"/><path class="cls-3" d="M737.35,1108.29a2.06,2.06,0,0,0-2.06,2v2.56a2.07,2.07,0,0,0,2.06,2.06h21.58c0-.1-.07-.19-.1-.29-.43-1.23-.86-2.45-1.32-3.67-.3-.81-.6-1.62-.91-2.43l-.12-.28Z"/><path class="cls-3" d="M763.8,1131.28c-.07-.25-.12-.51-.19-.77h0Z"/><path class="cls-3" d="M765.19,1137.17c-.14-.63-.28-1.25-.43-1.88.15.63.28,1.26.42,1.88Z"/><path class="cls-3" d="M737.35,1130.51a2.06,2.06,0,0,0-2.06,2v2.56a2.06,2.06,0,0,0,2.06,2.05h27.83c-.14-.62-.27-1.25-.42-1.88-.3-1.34-.63-2.68-1-4l-.2-.77Z"/><path class="cls-3" d="M768.55,1157.68c0-.27-.07-.53-.1-.79,0,.28.06.56.09.84C768.54,1157.71,768.55,1157.7,768.55,1157.68Z"/><path class="cls-3" d="M766.56,1152.73H737.35a2.06,2.06,0,0,0-2.06,2v2.56a2.06,2.06,0,0,0,2.06,2.05h29.21a2,2,0,0,0,2-1.66c0-.28,0-.56-.09-.84-.13-1.2-.3-2.39-.46-3.57A2,2,0,0,0,766.56,1152.73Z"/><path class="cls-3" d="M735.29,1068.46a2,2,0,0,0,1.5,1.94c-.5-.74-1-1.49-1.5-2.23Z"/><path class="cls-3" d="M747.93,1089.3c.38.73.76,1.47,1.13,2.21C748.69,1090.77,748.31,1090,747.93,1089.3Z"/><path class="cls-3" d="M737.35,1086.07a2.06,2.06,0,0,0-2.06,2.06v2.55a2.07,2.07,0,0,0,2.06,2.06h12.31c-.2-.41-.39-.82-.6-1.23-.37-.74-.75-1.48-1.13-2.21-.56-1.08-1.13-2.16-1.71-3.23Z"/><path class="cls-3" d="M737.35,1174.95h29.22a2.05,2.05,0,0,1,2.05,2.05v2.56a2.05,2.05,0,0,1-2.05,2.05H737.35a2.06,2.06,0,0,1-2.06-2.06V1177A2.05,2.05,0,0,1,737.35,1174.95Z"/><path class="cls-3" d="M737.35,1197.16h29.22a2.05,2.05,0,0,1,2.05,2.05v2.56a2.05,2.05,0,0,1-2.05,2.05H737.35a2.06,2.06,0,0,1-2.06-2.06v-2.56A2.05,2.05,0,0,1,737.35,1197.16Z"/><path class="cls-3" d="M737.35,1219.38h29.22a2.05,2.05,0,0,1,2.05,2.05V1224a2.05,2.05,0,0,1-2.05,2.05H737.35a2.06,2.06,0,0,1-2.06-2.06v-2.56A2.05,2.05,0,0,1,737.35,1219.38Z"/><path class="cls-3" d="M737.35,1241.6h29.22a2.05,2.05,0,0,1,2.05,2.05v2.56a2.05,2.05,0,0,1-2.05,2.05H737.35a2.06,2.06,0,0,1-2.06-2.06v-2.56A2.05,2.05,0,0,1,737.35,1241.6Z"/><path class="cls-3" d="M737.35,1263.82h29.22a2.05,2.05,0,0,1,2.05,2.05v2.56a2.05,2.05,0,0,1-2.05,2.05H737.35a2.06,2.06,0,0,1-2.06-2.06v-2.56A2.06,2.06,0,0,1,737.35,1263.82Z"/><path class="cls-3" d="M737.35,1286h29.22a2.05,2.05,0,0,1,2.05,2.05v2.56a2.05,2.05,0,0,1-2.05,2.05H737.35a2.06,2.06,0,0,1-2.06-2.06v-2.56A2.05,2.05,0,0,1,737.35,1286Z"/><path class="cls-3" d="M759.6,1308.25c-1.8,2.27-3.66,4.48-5.56,6.68H737.35a2.05,2.05,0,0,1-2.05-2.06v-2.56a2.05,2.05,0,0,1,2.05-2.06Z"/><path class="cls-3" d="M739.41,1330.47c-1.37,1.33-2.73,2.64-4.11,3.93v-1.88a2.07,2.07,0,0,1,2.05-2Z"/><path class="cls-3" d="M655.14,1081.63h29.22a2.05,2.05,0,0,1,2.05,2.05v2.56a2.05,2.05,0,0,1-2.05,2.05H655.14a2.06,2.06,0,0,1-2.06-2.06v-2.56A2.05,2.05,0,0,1,655.14,1081.63Z"/><path class="cls-3" d="M655.14,1103.85h29.22a2.05,2.05,0,0,1,2.05,2.05v2.56a2.05,2.05,0,0,1-2.05,2.05H655.14a2.06,2.06,0,0,1-2.06-2.06v-2.56A2.05,2.05,0,0,1,655.14,1103.85Z"/><rect class="cls-3" x="653.08" y="1126.06" width="33.33" height="6.67" rx="2.05"/><path class="cls-3" d="M681.46,1015.26,681,1015h0Z"/><path class="cls-3" d="M655.14,1015a2.07,2.07,0,0,0-2.06,2v2.56a2.07,2.07,0,0,0,2.06,2.06h29.22a2.06,2.06,0,0,0,2-2.06v-.93c-1.63-1.15-3.28-2.29-4.95-3.39L681,1015Z"/><path class="cls-3" d="M686.41,1041.8v-.12c-.4.66-.79,1.32-1.19,2A2,2,0,0,0,686.41,1041.8Z"/><path class="cls-3" d="M684.36,1037.19H655.14a2.06,2.06,0,0,0-2.06,2v2.56a2.06,2.06,0,0,0,2.06,2h29.22a2.09,2.09,0,0,0,.86-.2c.4-.65.79-1.31,1.19-2v-2.44A2.05,2.05,0,0,0,684.36,1037.19Z"/><path class="cls-3" d="M684.36,1066.07a2.05,2.05,0,0,0,2-2v-2.56a2.05,2.05,0,0,0-2-2H673.92q-2.82,3.43-5.83,6.66Z"/><path class="cls-3" d="M653.08,1061.46V1064a2.06,2.06,0,0,0,2.06,2h13q3-3.22,5.83-6.66H655.14A2.06,2.06,0,0,0,653.08,1061.46Z"/><rect class="cls-3" x="653.08" y="1148.28" width="33.33" height="6.67" rx="2.05"/><rect class="cls-3" x="653.08" y="1170.5" width="33.33" height="6.67" rx="2.05"/><path class="cls-3" d="M655.14,1192.72h29.22a2.05,2.05,0,0,1,2.05,2.05v2.56a2.05,2.05,0,0,1-2.05,2.05H655.14a2.06,2.06,0,0,1-2.06-2.06v-2.56A2.05,2.05,0,0,1,655.14,1192.72Z"/><path class="cls-3" d="M655.14,1214.94h29.22a2.05,2.05,0,0,1,2.05,2.05v2.56a2.05,2.05,0,0,1-2.05,2.05H655.14a2.06,2.06,0,0,1-2.06-2.06V1217A2.05,2.05,0,0,1,655.14,1214.94Z"/><path class="cls-3" d="M655.14,1237.16h29.22a2.05,2.05,0,0,1,2.05,2.05v2.56a2.05,2.05,0,0,1-2.05,2.05H655.14a2.06,2.06,0,0,1-2.06-2.06v-2.56A2.05,2.05,0,0,1,655.14,1237.16Z"/><rect class="cls-3" x="653.08" y="1259.38" width="33.33" height="6.67" rx="2.05"/><rect class="cls-3" x="653.08" y="1281.59" width="33.33" height="6.67" rx="2.05"/><rect class="cls-3" x="653.08" y="1303.81" width="33.33" height="6.67" rx="2.05"/><path class="cls-3" d="M655.14,1326h29.22a2.05,2.05,0,0,1,2.05,2.05v2.56a2.05,2.05,0,0,1-2.05,2.05H655.14a2.06,2.06,0,0,1-2.06-2.06v-2.56A2.05,2.05,0,0,1,655.14,1326Z"/><path class="cls-3" d="M655.14,1348.25h29.22a2.05,2.05,0,0,1,2.05,2.05v2.56a2.05,2.05,0,0,1-2.05,2.05H655.14a2.06,2.06,0,0,1-2.06-2.06v-2.56A2.05,2.05,0,0,1,655.14,1348.25Z"/><path class="cls-3" d="M648.64,1052.91v-2.56a2.06,2.06,0,0,0-2.06-2H623.92c-.68,2.18-1.26,4.41-1.78,6.66h24.44A2.06,2.06,0,0,0,648.64,1052.91Z"/><path class="cls-3" d="M648.64,1075.13v-2.56a2.06,2.06,0,0,0-2.06-2H619.91c-.09,1.72-.16,3.45-.16,5.2v1.46h26.83A2.06,2.06,0,0,0,648.64,1075.13Z"/><path class="cls-3" d="M646.58,1099.4a2.06,2.06,0,0,0,2.06-2.05v-2.56a2.06,2.06,0,0,0-2.06-2H634.73a141.82,141.82,0,0,1-13,6.66Z"/><path class="cls-3" d="M619.75,1099.4h2a141.82,141.82,0,0,0,13-6.66h-15Z"/><path class="cls-3" d="M648.53,1009c-.49.47-1,1-1.45,1.43A2,2,0,0,0,648.53,1009Z"/><path class="cls-3" d="M648.64,1030.69v-2.56a2.06,2.06,0,0,0-2.06-2.05H634.36c-1.39,2.16-2.71,4.38-3.92,6.67h16.14A2.07,2.07,0,0,0,648.64,1030.69Z"/><path class="cls-3" d="M646.58,1121.62a2.06,2.06,0,0,0,2.06-2V1117a2.06,2.06,0,0,0-2.06-2H619.75v6.66Z"/><path class="cls-3" d="M646.58,1143.84a2.07,2.07,0,0,0,2.06-2.06v-2.55a2.07,2.07,0,0,0-2.06-2.06H619.75v6.67Z"/><path class="cls-3" d="M646.58,1166.06a2.07,2.07,0,0,0,2.06-2.06v-2.55a2.07,2.07,0,0,0-2.06-2.06H619.75v6.67Z"/><path class="cls-3" d="M646.58,1188.28a2.07,2.07,0,0,0,2.06-2.06v-2.55a2.07,2.07,0,0,0-2.06-2.06H619.75v6.67Z"/><path class="cls-3" d="M646.58,1210.5a2.07,2.07,0,0,0,2.06-2.06v-2.56a2.06,2.06,0,0,0-2.06-2.05H619.75v6.67Z"/><path class="cls-3" d="M646.58,1232.71a2.06,2.06,0,0,0,2.06-2v-2.56a2.06,2.06,0,0,0-2.06-2H619.75v6.66Z"/><path class="cls-3" d="M646.58,1254.93a2.06,2.06,0,0,0,2.06-2v-2.56a2.06,2.06,0,0,0-2.06-2H619.75v6.66Z"/><path class="cls-3" d="M646.58,1277.15a2.06,2.06,0,0,0,2.06-2.05v-2.56a2.06,2.06,0,0,0-2.06-2H619.75v6.66Z"/><path class="cls-3" d="M646.58,1299.37a2.06,2.06,0,0,0,2.06-2v-2.56a2.07,2.07,0,0,0-2.06-2.06H619.75v6.67Z"/><path class="cls-3" d="M646.58,1321.59a2.07,2.07,0,0,0,2.06-2.06V1317a2.07,2.07,0,0,0-2.06-2.06H619.75v6.67Z"/><path class="cls-3" d="M646.58,1343.81a2.07,2.07,0,0,0,2.06-2.06v-2.55a2.07,2.07,0,0,0-2.06-2.06H619.75v6.67Z"/><path class="cls-3" d="M646.58,1366a2.07,2.07,0,0,0,2.06-2.06v-2.55a2.06,2.06,0,0,0-2.06-2.06H619.75V1366Z"/><path class="cls-3" d="M648.53,1386.69a2,2,0,0,1-1.95,1.55h-2.69C645.45,1387.73,647,1387.22,648.53,1386.69Z"/><path class="cls-3" d="M643.89,1388.25c1.55-.51,3.11-1,4.65-1.56a2,2,0,0,0,.1-.5v-2.56a2.06,2.06,0,0,0-2.06-2.05H619.75v6.67Z"/></g><path class="cls-4" d="M335,793.15l-5.27-9.73L320,788.68l-21-38.92,9.73-5.27-5.26-9.73,38.92-21,5.26,9.73,9.74-5.26,5.26,9.73-19.46,10.53-5.27-9.74-19.46,10.53,21.06,38.92L359,767.63l-5.27-9.73,19.47-10.53,5.26,9.73-9.73,5.26,5.26,9.73Z"/><path class="cls-4" d="M414.73,753.48l-3-10.64-10.64,3-12.15-42.55,10.64-3-3-10.64,42.55-12.15,3,10.64,10.64-3,12.15,42.55-10.64,3,3,10.64Zm28.88-19.75-12.15-42.55-21.27,6.07,12.14,42.56Z"/><path class="cls-4" d="M489,721.08l-3.95-55.18,11-.78,3.94,55.17Zm11.82,10.25-.79-11,22.07-1.58-.79-11,11-.79-3.16-44.14,22.07-1.58,4,55.17-11,.79.79,11Z"/><path class="cls-4" d="M589.7,727.31l1.48-11-11-1.48L586.14,671l11,1.48,1.48-11,43.85,5.92-1.47,11,11,1.48-1.48,11-21.93-3,1.48-11-21.93-3-5.91,43.86,21.92,3,1.48-11,21.93,3-1.48,11-11-1.47-1.48,11Z"/><path class="cls-4" d="M677.55,741.51l3.67-10.44-10.43-3.67,14.69-41.75,10.43,3.68,3.67-10.44,41.74,14.69L737.65,704l10.44,3.67L733.4,749.43,723,745.76l-3.67,10.44Zm35,.58,14.69-41.75L706.35,693l-14.69,41.74Z"/><path class="cls-4" d="M756.93,758l28.58-47.36,9.47,5.72L766.4,763.74Zm3.76,15.19,5.71-9.47,19,11.43,5.71-9.47,9.47,5.71,22.87-37.89L842.34,745l-28.58,47.36-9.47-5.71-5.72,9.47Z"/><path class="cls-4" d="M299.2,1668.28V1601.9h55.31V1613h11.07v22.12H354.51v11.07H321.32v22.12Zm44.25-33.19V1613H321.32v22.12Z"/><path class="cls-4" d="M391.24,1668.28V1601.9h66.38V1613H413.37V1624h33.19v11.06H413.37v22.13h44.25v11.06Z"/><path class="cls-4" d="M505.41,1668.28V1613H483.29V1601.9h66.38V1613H527.54v55.31Z"/><path class="cls-4" d="M586.4,1668.28v-11.06h11.06V1613H586.4V1601.9h44.25V1613H619.59v44.25h11.06v11.06Z"/><path class="cls-4" d="M689.5,1668.28V1613H667.38V1601.9h66.38V1613H711.63v55.31Z"/><path class="cls-4" d="M759.42,1668.28V1601.9H825.8V1613H781.55V1624h33.19v11.06H781.55v22.13H825.8v11.06Z"/><path class="cls-4" d="M207.15,1774.49v-66.38h55.32v11.06h11.06v22.13H262.47v11.06H229.28v22.13Zm44.26-33.19v-22.13H229.28v22.13Z"/><path class="cls-4" d="M299.2,1774.49v-66.38h66.38v11.06H321.32v11.07h33.19v11.06H321.32v22.13h44.26v11.06Z"/><path class="cls-4" d="M391.24,1774.49v-66.38h55.32v11.06h11.06v22.13H446.56v11.06H435.5v11.07H424.43v-11.07H413.37v22.13Zm44.26-33.19v-22.13H413.37v22.13Zm0,33.19v-11.06h22.12v11.06Z"/><path class="cls-4" d="M483.29,1774.49v-66.38H538.6v11.06h11.07v22.13H538.6v11.06H527.54v11.07H516.48v-11.07H505.41v22.13Zm44.25-33.19v-22.13H505.41v22.13Zm0,33.19v-11.06h22.13v11.06Z"/><path class="cls-4" d="M575.33,1763.43v-55.32H586.4v55.32Zm11.07,11.06v-11.06h22.12v-11.07h11.07v-44.25h22.12v55.32H630.65v11.06Z"/><path class="cls-4" d="M678.44,1774.49v-11.06H667.38v-44.26h11.06v-11.06h44.25v11.06h11.07v11.07H711.63v-11.07H689.5v44.26h22.13v-11.07h22.13v11.07H722.69v11.06Z"/><path class="cls-4" d="M759.42,1774.49v-66.38h11.07v22.13h33.19v-22.13H825.8v66.38H803.68V1741.3H770.49v33.19Z"/><path class="cls-4" d="M851.47,1774.49v-66.38h66.38v11.06H873.59v11.07h33.19v11.06H873.59v22.13h44.26v11.06Z"/></svg>