<svg id="Calque_1" data-name="Calque 1" xmlns="http://www.w3.org/2000/svg" viewBox="0 0 1125 2436"><defs><style>.cls-1{fill:#ffae00;stroke:#fff;stroke-miterlimit:10;stroke-width:0.25px;}.cls-2{fill:#f1f1f1;}.cls-3{fill:#4c4c4c;}.cls-4{fill:#e02229;}.cls-5{fill:none;}.cls-6{fill:#fff;}.cls-7{fill:#00b2ae;}.cls-8{fill:#ffcc97;}.cls-9{fill:#2db17e;}.cls-10{fill:#ffb777;}.cls-11{fill:#303030;}</style></defs><title>Plan de travail 2 copie</title><rect class="cls-1" x="0.45" y="-0.81" width="1124.36" height="2435.01"/><g id="LOGO"><path class="cls-2" d="M650.89,1244.38a243,243,0,0,1-24.14,6.52v-6.52Z"/><path class="cls-2" d="M669.81,1388.8h0c.12.15.24.29.37.43A4.82,4.82,0,0,1,669.81,1388.8Z"/><path class="cls-2" d="M636.08,1330.37c-.08-.21-.16-.42-.23-.63h0C635.93,1330,636,1330.16,636.08,1330.37Z"/><path class="cls-2" d="M670.17,1389.23c-.13-.14-.25-.28-.37-.43h0A4.82,4.82,0,0,0,670.17,1389.23Z"/><path class="cls-3" d="M692,1226.73q-6.37,3.45-13,6.54H662.13a2.06,2.06,0,0,1-2-2.06v-2.55a2.05,2.05,0,0,1,2-2.05h29.23A1.8,1.8,0,0,1,692,1226.73Z"/><path class="cls-4" d="M330.8,881.05a145.59,145.59,0,0,0,21.51,24q3.45-7.24,7.33-14.23A118.55,118.55,0,0,1,330.8,881.05Zm42.29-69.58a145.9,145.9,0,0,0,11.12,43.22q6.8-8.33,14.32-16A117.84,117.84,0,0,1,373.09,811.47Zm72.27-36.36a146.38,146.38,0,0,0-8.69,31.58q6.69-4.55,13.69-8.64A117.31,117.31,0,0,1,445.36,775.11Zm268.46,32.27a139.48,139.48,0,0,0-41.6-86.27A120,120,0,0,1,673.57,785,245.25,245.25,0,0,1,713.82,807.38ZM572.88,693.53h-.79a322.8,322.8,0,0,0-36.06,2h0a319.19,319.19,0,0,0-62,13.26q2.82,4.08,5.33,8.46a121.68,121.68,0,0,1,16.28,60.09,246.23,246.23,0,0,1,79.16-13c1.06,0,2.11,0,3.17,0h0c1.24,0,2.46,0,3.7.09a244.42,244.42,0,0,1,67,11.17A144.47,144.47,0,0,0,609.7,695.7,328.85,328.85,0,0,0,572.88,693.53Z"/><path class="cls-5" d="M751.91,939.8c.41.74.82,1.48,1.22,2.23C752.73,941.28,752.32,940.54,751.91,939.8Z"/><path class="cls-5" d="M744.68,927.87l.91,1.37Z"/><path class="cls-5" d="M748.78,934.38c.37.63.74,1.26,1.1,1.89C749.52,935.64,749.15,935,748.78,934.38Z"/><path class="cls-5" d="M758,951.74c.25.52.51,1,.75,1.56C758.55,952.77,758.29,952.26,758,951.74Z"/><path class="cls-5" d="M761.23,958.83c.3.72.59,1.45.89,2.17C761.82,960.28,761.53,959.55,761.23,958.83Z"/><path class="cls-5" d="M774.47,1005.63c.06.4.13.81.19,1.21C774.6,1006.44,774.53,1006,774.47,1005.63Z"/><path class="cls-5" d="M768.1,977.75c.15.49.32,1,.47,1.47C768.42,978.72,768.25,978.24,768.1,977.75Z"/><path class="cls-5" d="M673.57,785a121.8,121.8,0,0,1-10.15,26.71,123.62,123.62,0,0,1-19.61,27.67,147.64,147.64,0,0,0,6.27-42.7,150.55,150.55,0,0,0-1.49-21.06A245.06,245.06,0,0,1,673.57,785Z"/><path class="cls-5" d="M733.19,912.08l1.14,1.45Z"/><path class="cls-5" d="M776.73,1150.89v-116c0-2.06-.06-4.08-.13-6.11,0-.78-.07-1.54-.09-2.32q-.1-2.18-.24-4.35c-.06-.85-.13-1.69-.18-2.52-.12-1.45-.27-2.88-.41-4.33,0-.25,0-.5-.07-.75s0-.49-.05-.74-.07-.51-.11-.78q-.35-3.1-.79-6.2c-.06-.4-.13-.79-.2-1.2-.26-1.79-.55-3.56-.87-5.33-.16-.78-.3-1.55-.46-2.35q-.39-2-.81-4c-.05-.21-.09-.41-.12-.62-.15-.64-.29-1.26-.43-1.88-.32-1.34-.64-2.69-1-4-.07-.25-.13-.52-.2-.78-.12-.5-.25-1-.37-1.49q-.79-3-1.66-5.93c-.14-.49-.32-1-.46-1.47-.48-1.54-1-3.06-1.47-4.58-.23-.69-.48-1.38-.71-2.07,0-.11-.07-.2-.11-.29-.42-1.24-.85-2.46-1.31-3.68-.3-.8-.6-1.61-.92-2.42,0-.09-.07-.18-.1-.29-.45-1.15-.91-2.28-1.37-3.41-.3-.73-.58-1.45-.9-2.18q-1.17-2.79-2.42-5.52c-.25-.53-.52-1-.76-1.58-.45-1-.91-1.89-1.39-2.85-.19-.41-.38-.83-.58-1.24-.37-.74-.76-1.47-1.13-2.21-.57-1.08-1.14-2.16-1.72-3.22a.76.76,0,0,0-.09-.18l-1.22-2.23c-.65-1.19-1.34-2.35-2-3.52-.37-.64-.74-1.28-1.11-1.9-1-1.73-2.11-3.45-3.19-5.13-.3-.48-.62-.92-.92-1.38-.42-.65-.83-1.29-1.26-1.93l-.37-.51-.21-.32-.53-.78v0c-.07-.09-.12-.17-.2-.26-.42-.64-.88-1.28-1.32-1.91-.78-1.1-1.56-2.18-2.36-3.26-.46-.64-.94-1.26-1.4-1.88q-1.32-1.75-2.69-3.47c-.39-.49-.76-1-1.15-1.45s-.63-.8-1-1.18c-1-1.21-2-2.39-3-3.56l-.85-1c-1.1-1.25-2.2-2.47-3.31-3.7-.46-.51-.94-1-1.4-1.5-1-1.06-2-2.12-3-3.15-.46-.48-.94-1-1.4-1.43-1.18-1.19-2.37-2.34-3.57-3.49-.3-.29-.61-.59-.92-.87-.61-.57-1.21-1.11-1.81-1.68-.18-.18-.35-.34-.53-.5s-.44-.37-.66-.58a5.87,5.87,0,0,0-.65-.58l-1.06-1c-.21-.2-.44-.37-.66-.57-1.38-1.2-2.76-2.37-4.16-3.54-.42-.35-.86-.69-1.29-1-.64-.51-1.26-1-1.89-1.54a145.07,145.07,0,0,0,11.77-73.85,246.09,246.09,0,0,1,62.91,343.51Z"/><path class="cls-5" d="M776.72,1034.92c0,.17,0,.34,0,.52v115.45h0V1035.44C776.73,1035.27,776.72,1035.09,776.72,1034.92Z"/><path class="cls-5" d="M723.68,901.16l1.39,1.5Z"/><path class="cls-5" d="M737,917l1.4,1.87Z"/><path class="cls-5" d="M740.77,922.14c.45.63.9,1.26,1.34,1.9C741.67,923.4,741.22,922.77,740.77,922.14Z"/><path class="cls-5" d="M406.3,890.56a113.92,113.92,0,0,1-46.66.26,246.85,246.85,0,0,1,24.57-36.13A143.64,143.64,0,0,0,406.3,890.56Z"/><path class="cls-5" d="M354.58,1033.3a80,80,0,0,0,50.34,74.29c1.31-1.29,2.69-2.53,4.09-3.74v88.37a246.27,246.27,0,0,1-56.7-287.17,143.57,143.57,0,0,0,56.7,31.3v21.17A80,80,0,0,0,354.58,1033.3Z"/><path class="cls-5" d="M437.91,858.52a113,113,0,0,1-39.38-19.84,245.54,245.54,0,0,1,38.14-32A144,144,0,0,0,437.91,858.52Z"/><path class="cls-5" d="M495.58,777.34a117.58,117.58,0,0,1-18.92,64.79h0l-.12,0a114.34,114.34,0,0,1-26.16-44.11A244.06,244.06,0,0,1,495.58,777.34Z"/><path class="cls-5" d="M626.75,956.46V1250.9c-.37.08-.73.17-1.1.24V956.94Z"/><path class="cls-5" d="M776.08,1019.63c.07.83.13,1.67.19,2.51C776.21,1021.3,776.15,1020.46,776.08,1019.63Z"/><path class="cls-5" d="M775.69,1015.3c-.05-.49-.09-1-.14-1.48a.43.43,0,0,0,0,0Z"/><path class="cls-5" d="M772.32,993.93c-.05-.21-.08-.42-.13-.62h0C772.22,993.52,772.27,993.72,772.32,993.93Z"/><path class="cls-5" d="M776.51,1026.5c0,.77.07,1.55.1,2.33C776.58,1028.05,776.54,1027.27,776.51,1026.5Z"/><path class="cls-5" d="M766.64,973.16c-.23-.69-.47-1.38-.71-2.07h0C766.17,971.78,766.41,972.47,766.64,973.16Z"/><path class="cls-5" d="M770.61,986.65c-.13-.5-.25-1-.38-1.5.13.5.24,1,.37,1.5Z"/><path class="cls-5" d="M773.13,998c.16.79.31,1.57.46,2.36C773.44,999.52,773.29,998.74,773.13,998Z"/><path class="cls-5" d="M714.76,892.21l.91.88Z"/><path class="cls-5" d="M719.24,896.57c.48.47,1,.95,1.41,1.43C720.18,897.52,719.72,897,719.24,896.57Z"/><path class="cls-4" d="M893.36,1014.8a320.63,320.63,0,0,1-116.63,247.67c-5.47,4.53-11.1,8.85-16.87,13-3.17,2.29-6.37,4.5-9.63,6.68a320.42,320.42,0,0,1-38.84,22.21c-3.7,1.79-7.43,3.47-11.22,5.12q-7.27,3.18-14.74,6-9.64,3.63-19.55,6.65-8,2.44-16.19,4.44c-4.59,1.14-9.19,2.22-13.83,3.16h0l-1,.21a322.44,322.44,0,0,1-224.73-37.65c-95.27-55.74-159.28-159.15-159.28-277.5,0-143.22,93.71-264.54,223.16-306q2.82,4.08,5.33,8.46a121.68,121.68,0,0,1,16.28,60.09,244.06,244.06,0,0,0-45.22,20.71,117.31,117.31,0,0,1-5-22.94,146.38,146.38,0,0,0-8.69,31.58,245.54,245.54,0,0,0-38.14,32,117.84,117.84,0,0,1-25.44-27.21,145.9,145.9,0,0,0,11.12,43.22,246.85,246.85,0,0,0-24.57,36.13,118.55,118.55,0,0,1-28.84-9.77,145.59,145.59,0,0,0,21.51,24,246.21,246.21,0,0,0,273.34,346.09c.37-.07.73-.16,1.1-.24a243,243,0,0,0,24.14-6.52h2.69a2,2,0,0,0,1.95-1.56,240.62,240.62,0,0,0,23.47-9.55q6.62-3.09,13-6.54c3-1.62,5.94-3.32,8.86-5.06,3.31-2,6.59-4,9.79-6.18a241.09,241.09,0,0,0,21-15.61,2,2,0,0,0,1.63-1.36c3.08-2.59,6.09-5.26,9-8,1.38-1.3,2.74-2.61,4.11-3.93q7.64-7.44,14.63-15.55c1.9-2.19,3.76-4.4,5.56-6.67,3.52-4.37,6.91-8.88,10.13-13.5a246.09,246.09,0,0,0-62.91-343.51,139.48,139.48,0,0,0-41.6-86.27A120,120,0,0,1,673.57,785a245.06,245.06,0,0,0-25-9.38A144.47,144.47,0,0,0,609.7,695.7C769.42,714.33,893.36,850.09,893.36,1014.8Z"/><path class="cls-6" d="M438.9,862.94a92.64,92.64,0,0,0-18.58,23.62,109.17,109.17,0,0,1-14,4,143.64,143.64,0,0,1-22.09-35.87,145.9,145.9,0,0,1-11.12-43.22,117.84,117.84,0,0,0,25.44,27.21,113,113,0,0,0,39.38,19.84C438.21,860,438.55,861.47,438.9,862.94Z"/><path class="cls-6" d="M650.08,796.67a147.64,147.64,0,0,1-6.27,42.7c-2.6,2.74-5.31,5.36-8.12,7.82a198,198,0,0,0-56.61-8.3h-.34A144.35,144.35,0,0,0,580,772.51c.65-2.66,1.22-5.35,1.68-8.07a123.9,123.9,0,0,0,1.8-21.08,121.76,121.76,0,0,0-10.55-49.83,119.44,119.44,0,0,0-23.42-34.61A137.93,137.93,0,0,1,609.7,695.7a144.47,144.47,0,0,1,38.89,79.91A150.55,150.55,0,0,1,650.08,796.67Z"/><path class="cls-6" d="M414.48,899.48A91.46,91.46,0,0,0,409,930.76v5.59a143.57,143.57,0,0,1-56.7-31.3,145.59,145.59,0,0,1-21.51-24,118.55,118.55,0,0,0,28.84,9.77,113.92,113.92,0,0,0,46.66-.26Q410.2,895.2,414.48,899.48Z"/><path class="cls-6" d="M580,772.51A119.63,119.63,0,0,1,537,838.89H500.88a90.92,90.92,0,0,0-24.22,3.24,117.58,117.58,0,0,0,18.92-64.79,121.68,121.68,0,0,0-16.28-60.09q-2.52-4.38-5.33-8.46a120.44,120.44,0,0,0-66.17-47.85c45.12-10.76,93.43,2.35,128.21,34.59h0a148.41,148.41,0,0,1,41.88,68.82h0Q579.07,768.42,580,772.51Z"/><path class="cls-6" d="M537,838.89h41.7A144.35,144.35,0,0,0,580,772.51,119.63,119.63,0,0,1,537,838.89Z"/><path class="cls-6" d="M406.3,890.56q3.9,4.63,8.18,8.92a89.52,89.52,0,0,1,5.84-12.92A109.17,109.17,0,0,1,406.3,890.56Z"/><path class="cls-6" d="M702.05,881.23c-.6-.48-1.22-.94-1.83-1.4l-1.48-1.15c-1.26-.94-2.53-1.88-3.81-2.8l-1.38-1a.5.5,0,0,1-.14-.08q-2.45-1.74-5-3.39c-.14-.1-.3-.19-.44-.3l-1.1-.69c-1.22-.79-2.46-1.59-3.7-2.35-.74-.46-1.5-.92-2.26-1.36-1.05-.64-2.11-1.26-3.17-1.86-.78-.46-1.56-.91-2.36-1.33-1.13-.64-2.26-1.24-3.39-1.86l-2.13-1.11c-1.84-.94-3.7-1.88-5.57-2.77a93,93,0,0,0-8,6.57l-.83.8c-.25.23-.5.48-.73.71-.39.37-.78.74-1.15,1.11l-.83.83c-1,1.05-2,2.09-3,3.17L648,873.09c-.6.7-1.18,1.43-1.75,2.17s-1.15,1.49-1.7,2.25-1.19,1.63-1.75,2.44-.94,1.4-1.4,2.11l-.41.64c-.58.92-1.15,1.86-1.7,2.79-.26.43-.51.87-.76,1.31s-.34.57-.48.85-.44.82-.65,1.23l-.48.92-.48.93c-.17.34-.33.68-.49,1l-.69,1.44a2.49,2.49,0,0,0-.2.4c-.44,1-.87,1.92-1.27,2.89a.1.1,0,0,1,0,.07c-.48,1.15-.94,2.32-1.36,3.5-.36,1-.71,1.93-1,2.93,0,0,0,0,0,.08-.06.18-.13.36-.18.55l-.27.83a1.17,1.17,0,0,1,0,.2c-.12.37-.23.74-.34,1.13l-.31,1.12a.15.15,0,0,0,0,.09l-.16.54c0,.08,0,.16,0,.23h0c-.18.62-.34,1.23-.48,1.85s-.33,1.38-.47,2.07c-.13.49-.24,1-.34,1.48s-.21,1-.3,1.54-.21,1.12-.3,1.68-.23,1.35-.32,2a2.65,2.65,0,0,0-.07.48c0,.32-.09.62-.13.92s-.08.64-.1.94c0,0,0,.09,0,.12-.12.84-.21,1.68-.27,2.53,0,.36-.08.69-.1,1v.25c0,.21,0,.44-.06.67s0,.42,0,.65,0,.43,0,.66a3,3,0,0,0,0,.42c-.09,1.58-.12,3.17-.12,4.78v24.61l-1.1.48V931.85a91.68,91.68,0,0,1,37.56-74.08,195.43,195.43,0,0,0-22.59-9c1.17-3.08,2.23-6.22,3.19-9.38a123.62,123.62,0,0,0,19.61-27.67A121.8,121.8,0,0,0,673.57,785a120,120,0,0,0-1.35-63.88,139.48,139.48,0,0,1,41.6,86.27A145.07,145.07,0,0,1,702.05,881.23Z"/><path class="cls-6" d="M688,871.11c-.36-.24-.74-.47-1.11-.7.37.23.74.46,1.1.7Z"/><path class="cls-6" d="M669.91,860.54l2.11,1.12Z"/><path class="cls-6" d="M675.43,863.5l2.35,1.33Z"/><path class="cls-6" d="M693.55,874.88l1.38,1Z"/><path class="cls-6" d="M698.73,878.68l1.5,1.15Z"/><path class="cls-6" d="M664.32,857.77a91.11,91.11,0,0,0-8,6.58,89.79,89.79,0,0,1,8-6.58Z"/><path class="cls-6" d="M681,866.7l2.25,1.35Z"/><path class="cls-6" d="M476.52,842.16a91.44,91.44,0,0,0-33.9,17.56c-1.57-.35-3.15-.76-4.71-1.2a144,144,0,0,1-1.24-51.83,146.38,146.38,0,0,1,8.69-31.58,117.31,117.31,0,0,0,5,22.94A114.34,114.34,0,0,0,476.52,842.16Z"/><path class="cls-6" d="M643.81,839.37c-2.6,2.74-5.31,5.36-8.12,7.82,1.66.49,3.31,1,4.93,1.56C641.79,845.67,642.85,842.53,643.81,839.37Z"/><path class="cls-6" d="M437.91,858.52c.3,1.48.64,3,1,4.42,1.21-1.11,2.45-2.19,3.72-3.22C441.05,859.37,439.47,859,437.91,858.52Z"/><polygon class="cls-7" points="476.64 842.13 476.52 842.16 476.57 842.23 476.64 842.13"/><path class="cls-7" d="M625.65,956.94v294.2A246.45,246.45,0,0,1,409,1192.22v-88.37c.62-.55,1.25-1.09,1.89-1.61a79.91,79.91,0,0,1,80-12.14,77.38,77.38,0,0,0,5.39-5.91,79.58,79.58,0,0,0,18.19-47.1c.06-1.26.09-2.52.09-3.79A80,80,0,0,0,409,957.52V936.35a137.48,137.48,0,0,0,73.72.6c.85.2,1.7.37,2.57.53a135.63,135.63,0,0,0,62.47,28.62,24.45,24.45,0,1,0,40.78.87h0A141.51,141.51,0,0,0,625.65,956.94Z"/><path class="cls-7" d="M442.6,875.69q-2.14-6.27-3.7-12.75a92.64,92.64,0,0,0-18.58,23.62,112,112,0,0,0,18.16-8.38C439.88,877.39,441.26,876.56,442.6,875.69Z"/><path class="cls-7" d="M635.69,847.19a198,198,0,0,0-56.61-8.3h-.34a140.08,140.08,0,0,1-16,37.88A118.51,118.51,0,0,0,635.69,847.19Z"/><path class="cls-7" d="M482.73,937c.85.2,1.7.37,2.57.53l-1.12-.92C483.71,936.7,483.21,936.83,482.73,937Z"/><path class="cls-7" d="M476.57,842.23a111,111,0,0,0,20.15,16.62,113.81,113.81,0,0,0,40.32-20H500.88a90.92,90.92,0,0,0-24.22,3.24h0Z"/><path class="cls-7" d="M409,930.76v5.59a137.48,137.48,0,0,0,73.72.6,137,137,0,0,1-68.25-37.47A91.46,91.46,0,0,0,409,930.76Z"/><path class="cls-7" d="M505.9,864.2a112.19,112.19,0,0,0,56.89,12.57,140.08,140.08,0,0,0,16-37.88H537a113.81,113.81,0,0,1-40.32,20Q501.15,861.73,505.9,864.2Z"/><path class="cls-7" d="M442.6,875.69c-1.34.87-2.72,1.7-4.12,2.49a112,112,0,0,1-18.16,8.38,89.52,89.52,0,0,0-5.84,12.92A137,137,0,0,0,482.73,937c.48-.12,1-.25,1.45-.39A137.09,137.09,0,0,1,442.6,875.69Z"/><path class="cls-7" d="M476.57,842.23l-.05-.07a91.44,91.44,0,0,0-33.9,17.56,110.69,110.69,0,0,0,17.21,2.57A110.91,110.91,0,0,0,476.57,842.23Z"/><path class="cls-7" d="M511.21,940a134.22,134.22,0,0,1-25.91-2.5,135.63,135.63,0,0,0,62.47,28.62h0a24.41,24.41,0,0,1,40.77.87h0a141.51,141.51,0,0,0,37.08-10V931.85a91.68,91.68,0,0,1,37.56-74.08,195.43,195.43,0,0,0-22.59-9C620.45,902.15,570.1,940,511.21,940Z"/><path class="cls-7" d="M459.83,862.29a110.69,110.69,0,0,1-17.21-2.57c-1.27,1-2.51,2.11-3.72,3.22q1.55,6.48,3.7,12.75A110.54,110.54,0,0,0,459.83,862.29Z"/><path class="cls-7" d="M514.59,923.73a135.39,135.39,0,0,1-30.41,12.83l1.12.92a134.22,134.22,0,0,0,25.91,2.5c58.89,0,109.24-37.83,129.41-91.23-1.62-.55-3.27-1.07-4.93-1.56a118.51,118.51,0,0,1-72.9,29.58A135,135,0,0,1,514.59,923.73Z"/><path class="cls-7" d="M467.9,862.59a112,112,0,0,0,28.82-3.74,111,111,0,0,1-20.15-16.62,110.91,110.91,0,0,1-16.74,20.06C462.5,862.5,465.19,862.59,467.9,862.59Z"/><path class="cls-7" d="M459.83,862.29a110.54,110.54,0,0,1-17.23,13.4,137.09,137.09,0,0,0,41.58,60.87,135.47,135.47,0,0,0,78.61-59.79A112.19,112.19,0,0,1,505.9,864.2q-4.75-2.48-9.18-5.35a112,112,0,0,1-28.82,3.74C465.19,862.59,462.5,862.5,459.83,862.29Z"/><path class="cls-8" d="M354.58,1033.3a80,80,0,0,0,50.34,74.29c1.31-1.3,2.69-2.53,4.09-3.74V957.51A80,80,0,0,0,354.58,1033.3Z"/><path class="cls-8" d="M410.9,1102.24a80,80,0,0,1,79.21-68.94,80.3,80.3,0,0,1,18.8,2.24q2.8.68,5.54,1.55c.06-1.26.1-2.52.1-3.79A80,80,0,0,0,409,957.51v146.34C409.64,1103.31,410.26,1102.76,410.9,1102.24Z"/><path class="cls-9" d="M410.9,1102.24a79.32,79.32,0,0,1,9.45-28,79.39,79.39,0,0,0-9.45,28,79.94,79.94,0,0,1,80-12.13h0a79.94,79.94,0,0,0-80,12.13Z"/><path class="cls-9" d="M514.45,1037.09a79.59,79.59,0,0,1-18.2,47.1,79.59,79.59,0,0,0,18.2-47.1q-2.73-.87-5.54-1.55Q511.71,1036.22,514.45,1037.09Z"/><path class="cls-10" d="M490.87,1090.11c1.89-1.88,3.68-3.86,5.38-5.92-1.7,2.06-3.49,4-5.38,5.92Z"/><path class="cls-10" d="M490.11,1033.3a80.3,80.3,0,0,1,18.8,2.24,80,80,0,0,0-88.56,38.65A79.94,79.94,0,0,1,490.11,1033.3Z"/><path class="cls-10" d="M508.91,1035.54a80,80,0,0,0-88.56,38.65,79.32,79.32,0,0,0-9.45,28,79.94,79.94,0,0,1,80-12.13c1.89-1.88,3.68-3.86,5.38-5.92a79.59,79.59,0,0,0,18.2-47.1Q511.72,1036.22,508.91,1035.54Z"/><path class="cls-11" d="M547.77,966.1a24.44,24.44,0,1,0,40.77.87A135.09,135.09,0,0,1,547.77,966.1Z"/><path class="cls-11" d="M567.88,955.54a24.41,24.41,0,0,0-20.11,10.56,135.09,135.09,0,0,0,40.77.87A24.39,24.39,0,0,0,567.88,955.54Z"/><path class="cls-2" d="M749.88,936.27c.69,1.17,1.37,2.35,2,3.53C751.25,938.62,750.57,937.44,749.88,936.27Z"/><path class="cls-2" d="M720.65,898c1,1,2,2.1,3,3.16C722.68,900.1,721.67,899,720.65,898Z"/><path class="cls-2" d="M715.67,893.09q1.82,1.71,3.57,3.48Q717.49,894.8,715.67,893.09Z"/><path class="cls-2" d="M734.33,913.53q1.36,1.71,2.69,3.47Q735.7,915.25,734.33,913.53Z"/><path class="cls-2" d="M776.6,1028.82c0-.78-.07-1.54-.09-2.32q-.1-2.18-.24-4.35c-.06-.85-.13-1.69-.18-2.52-.12-1.45-.27-2.88-.41-4.33,0-.25,0-.5-.07-.75s-.05-.46-.07-.69a2,2,0,0,1-2,1.67H744.35a2.05,2.05,0,0,1-2.05-2.06v-2.55a2.05,2.05,0,0,1,2.05-2h29.21a2,2,0,0,1,1.43.58c-.1-.86-.21-1.75-.33-2.62-.06-.4-.13-.79-.2-1.2-.26-1.79-.55-3.56-.87-5.33-.16-.78-.3-1.55-.46-2.35q-.39-2-.81-4c-.05-.21-.09-.41-.14-.62H744.35a2.05,2.05,0,0,1-2.05-2v-2.57a2.07,2.07,0,0,1,2.05-2.05H770.6c-.12-.5-.25-1-.37-1.49q-.79-3-1.66-5.93c-.14-.49-.32-1-.46-1.47-.48-1.54-1-3.06-1.47-4.58-.23-.69-.48-1.38-.71-2.07H744.35A2.05,2.05,0,0,1,742.3,969v-2.56a2.05,2.05,0,0,1,2.05-2.06h19.14c-.45-1.15-.91-2.28-1.37-3.41-.3-.73-.58-1.45-.9-2.18q-1.17-2.79-2.42-5.52c-.25-.53-.52-1-.76-1.58-.45-1-.91-1.89-1.39-2.85h-12.3a2.07,2.07,0,0,1-2.05-2.07v-2.55a2.05,2.05,0,0,1,2.05-2h8.87a.76.76,0,0,0-.09-.18l-1.22-2.23c-.65-1.19-1.34-2.35-2-3.52-.37-.64-.74-1.28-1.11-1.9-1-1.73-2.11-3.45-3.19-5.13-.3-.48-.62-.92-.92-1.38s-.58-.88-.88-1.33a2,2,0,0,1-1.49-1.94v-.29c-.07-.09-.12-.17-.2-.26-.42-.64-.88-1.28-1.32-1.91-.78-1.1-1.56-2.18-2.36-3.26-.46-.64-.94-1.26-1.4-1.88q-1.32-1.75-2.69-3.47c-.39-.49-.76-1-1.15-1.45s-.63-.8-1-1.18a2.1,2.1,0,0,1-.87.21h-29.2a2.07,2.07,0,0,1-2.06-2.06v-2.56a2.06,2.06,0,0,1,2.06-2.06h24.51l-1.57-1.77c-.46-.51-.94-1-1.4-1.5-1-1.06-2-2.12-3-3.15-.46-.48-.94-1-1.4-1.43-1.18-1.19-2.37-2.34-3.57-3.49-.3-.29-.61-.59-.92-.87-.61-.57-1.21-1.11-1.81-1.68-.18-.18-.35-.34-.53-.5s-.44-.37-.66-.58a5.87,5.87,0,0,0-.65-.58h-9a2.06,2.06,0,0,1-2.06-2.06v-1.29q-1,2.13-2.12,4.23c-1.44,2.76-3,5.43-4.55,8v.13a2.05,2.05,0,0,1-1.19,1.84,149.72,149.72,0,0,1-11.29,15.77h10.43a2.05,2.05,0,0,1,2,2.05v2.55a2.05,2.05,0,0,1-2,2.06H675.09a144.77,144.77,0,0,1-33.37,26.67h11.86a2.05,2.05,0,0,1,2,2v2.55a2.05,2.05,0,0,1-2,2.06H628.75l-2,.92V971.1h26.83a2.05,2.05,0,0,1,2,2v2.55a2.05,2.05,0,0,1-2,2H626.75v15.56h26.83a2.05,2.05,0,0,1,2,2.05v2.55a2.06,2.06,0,0,1-2,2.07H626.75v15.55h26.83a2.05,2.05,0,0,1,2,2.05v2.57a2.05,2.05,0,0,1-2,2.05H626.75v15.54h26.83a2.07,2.07,0,0,1,2,2v2.57a2.05,2.05,0,0,1-2,2.05H626.75V1060h26.83a2.05,2.05,0,0,1,2,2.06v2.55a2.05,2.05,0,0,1-2,2.05H626.75v15.56h26.83a2.05,2.05,0,0,1,2,2v2.55a2.05,2.05,0,0,1-2,2H626.75v15.56h26.83a2.05,2.05,0,0,1,2,2.06V1109a2.07,2.07,0,0,1-2,2.06H626.75v15.54h26.83a2.07,2.07,0,0,1,2,2.05v2.57a2.05,2.05,0,0,1-2,2H626.75v15.56h26.83a2.05,2.05,0,0,1,2,2.05v2.55a2.06,2.06,0,0,1-2,2.06H626.75v15.55h26.83a2.05,2.05,0,0,1,2,2.06v2.55a2.05,2.05,0,0,1-2,2H626.75v15.56h26.83a2.05,2.05,0,0,1,2,2v2.57a2.07,2.07,0,0,1-2,2H626.75v15.54h26.83a2.05,2.05,0,0,1,2,2.06v2.56a2.05,2.05,0,0,1-2,2.06H626.75v15.54h26.83a2.07,2.07,0,0,1,2,2.07v2.55a1.58,1.58,0,0,1-.1.49,240.62,240.62,0,0,0,23.47-9.55H662.13a2.06,2.06,0,0,1-2-2.06v-2.55a2.05,2.05,0,0,1,2-2.05h29.23a1.8,1.8,0,0,1,.62.12c3-1.62,5.94-3.32,8.86-5.06a2,2,0,0,1-.76-1.56v-2.56a2.06,2.06,0,0,1,2.06-2.06h8.49a241.09,241.09,0,0,0,21-15.61,1.46,1.46,0,0,1-.3.07h-29.2a2.07,2.07,0,0,1-2.06-2v-2.57a2.05,2.05,0,0,1,2.06-2h29.2a2.06,2.06,0,0,1,2.06,2v2.57a1.91,1.91,0,0,1-.13.62c3.08-2.59,6.09-5.26,9-8v-1.88a2.06,2.06,0,0,1,2.05-2.05h2.06q7.64-7.44,14.63-15.55H744.35a2.05,2.05,0,0,1-2.05-2v-2.57a2.05,2.05,0,0,1,2.05-2H766.6c3.52-4.37,6.91-8.88,10.13-13.5v-116C776.71,1032.87,776.67,1030.85,776.6,1028.82ZM693.41,1209a2.05,2.05,0,0,1-2,2H662.13a2.05,2.05,0,0,1-2-2v-2.55a2.05,2.05,0,0,1,2-2h29.23a2.05,2.05,0,0,1,2,2Zm0-22.22a2.05,2.05,0,0,1-2,2.06H662.13a2.05,2.05,0,0,1-2-2.06v-2.56a2.07,2.07,0,0,1,2-2.06h29.23a2.07,2.07,0,0,1,2,2.06Zm0-22.21a2.05,2.05,0,0,1-2,2H662.13a2.05,2.05,0,0,1-2-2V1162a2.05,2.05,0,0,1,2-2h29.23a2.05,2.05,0,0,1,2,2Zm0-22.23a2.05,2.05,0,0,1-2,2.05H662.13a2.05,2.05,0,0,1-2-2.05v-2.55a2.05,2.05,0,0,1,2-2.06h29.23a2.05,2.05,0,0,1,2,2.06Zm0-22.22a2.05,2.05,0,0,1-2,2.05H662.13a2.05,2.05,0,0,1-2-2.05v-2.55a2.05,2.05,0,0,1,2-2h29.23a2.05,2.05,0,0,1,2,2Zm0-22.21a2.05,2.05,0,0,1-2,2H662.13a2.05,2.05,0,0,1-2-2v-2.55a2.06,2.06,0,0,1,2-2.07h29.23a2.06,2.06,0,0,1,2,2.07Zm0-22.22a2.05,2.05,0,0,1-2,2H662.13a2.05,2.05,0,0,1-2-2v-2.57a2.05,2.05,0,0,1,2-2h29.23a2.05,2.05,0,0,1,2,2Zm0-22.21a2.07,2.07,0,0,1-2,2H662.13a2.07,2.07,0,0,1-2-2v-2.57a2.05,2.05,0,0,1,2-2.05h29.23a2.05,2.05,0,0,1,2,2.05Zm0-22.24a2.05,2.05,0,0,1-2,2.06H662.13a2.05,2.05,0,0,1-2-2.06v-2.54a2.05,2.05,0,0,1,2-2.06h29.23a2.05,2.05,0,0,1,2,2.06Zm0-22.21a2.05,2.05,0,0,1-2,2.05H662.13a2.05,2.05,0,0,1-2-2.05v-2.55a2.05,2.05,0,0,1,2-2.05h29.23a2.05,2.05,0,0,1,2,2.05Zm0-22.22a2.05,2.05,0,0,1-2,2.06H662.13a2.05,2.05,0,0,1-2-2.06v-2.56a2.07,2.07,0,0,1,2-2.06h29.23a2.07,2.07,0,0,1,2,2.06Zm0-22.21a2.06,2.06,0,0,1-2,2H662.13a2.06,2.06,0,0,1-2-2V962a2.05,2.05,0,0,1,2-2h29.23a2.05,2.05,0,0,1,2,2Zm0-22.23a2.05,2.05,0,0,1-2,2H662.13a2.05,2.05,0,0,1-2-2v-2.55a2.05,2.05,0,0,1,2-2.05h29.23a2.05,2.05,0,0,1,2,2.05Zm40,233.3a2.06,2.06,0,0,1-2.06,2h-29.2a2.05,2.05,0,0,1-2.06-2v-2.55a2.06,2.06,0,0,1,2.06-2.06h29.2a2.06,2.06,0,0,1,2.06,2.06Zm0-22.22a2.07,2.07,0,0,1-2.06,2.06h-29.2a2.06,2.06,0,0,1-2.06-2.06v-2.55a2.05,2.05,0,0,1,2.06-2.05h29.2a2.06,2.06,0,0,1,2.06,2.05Zm0-22.21a2.06,2.06,0,0,1-2.06,2h-29.2a2.05,2.05,0,0,1-2.06-2v-2.57a2.07,2.07,0,0,1,2.06-2.05h29.2a2.07,2.07,0,0,1,2.06,2.05Zm0-22.22a2.08,2.08,0,0,1-2.06,2.06h-29.2a2.07,2.07,0,0,1-2.06-2.06v-2.56a2.06,2.06,0,0,1,2.06-2.06h29.2a2.06,2.06,0,0,1,2.06,2.06Zm0-22.23a2.06,2.06,0,0,1-2.06,2h-29.2a2.05,2.05,0,0,1-2.06-2v-2.55a2.05,2.05,0,0,1,2.06-2h29.2a2.06,2.06,0,0,1,2.06,2Zm0-22.21a2.06,2.06,0,0,1-2.06,2.05h-29.2a2.05,2.05,0,0,1-2.06-2.05V1062a2.06,2.06,0,0,1,2.06-2.06h29.2a2.06,2.06,0,0,1,2.06,2.06Zm0-22.22a2.06,2.06,0,0,1-2.06,2.05h-29.2a2.05,2.05,0,0,1-2.06-2.05v-2.57a2.07,2.07,0,0,1,2.06-2h29.2a2.07,2.07,0,0,1,2.06,2Zm0-22.21a2.06,2.06,0,0,1-2.06,2.05h-29.2a2.05,2.05,0,0,1-2.06-2.05v-2.57a2.05,2.05,0,0,1,2.06-2.05h29.2a2.06,2.06,0,0,1,2.06,2.05Zm0-22.24a2.07,2.07,0,0,1-2.06,2.07h-29.2a2.07,2.07,0,0,1-2.06-2.07v-2.55a2.05,2.05,0,0,1,2.06-2.05h29.2a2.06,2.06,0,0,1,2.06,2.05Zm0-22.21a2.06,2.06,0,0,1-2.06,2h-29.2a2.05,2.05,0,0,1-2.06-2v-2.55a2.05,2.05,0,0,1,2.06-2h29.2a2.06,2.06,0,0,1,2.06,2Zm0-22.22a2.06,2.06,0,0,1-2.06,2.06h-29.2a2.06,2.06,0,0,1-2.06-2.06v-2.55a2.05,2.05,0,0,1,2.06-2h29.2a2.06,2.06,0,0,1,2.06,2Zm0-22.21a2.06,2.06,0,0,1-2.06,2.05h-29.2a2.05,2.05,0,0,1-2.06-2.05V928.7a2.07,2.07,0,0,1,2.06-2.05h29.2a2.07,2.07,0,0,1,2.06,2.05Zm42.21,215.51a2.07,2.07,0,0,1-2.05,2.07H744.35a2.07,2.07,0,0,1-2.05-2.07v-2.55a2.05,2.05,0,0,1,2.05-2h29.21a2.05,2.05,0,0,1,2.05,2Zm0-22.22a2.05,2.05,0,0,1-2.05,2.06H744.35a2.05,2.05,0,0,1-2.05-2.06V1122a2.05,2.05,0,0,1,2.05-2h29.21a2.05,2.05,0,0,1,2.05,2Zm0-22.21a2.05,2.05,0,0,1-2.05,2.05H744.35a2.05,2.05,0,0,1-2.05-2.05v-2.55a2.05,2.05,0,0,1,2.05-2h29.21a2.05,2.05,0,0,1,2.05,2Zm0-22.22a2.05,2.05,0,0,1-2.05,2.06H744.35a2.05,2.05,0,0,1-2.05-2.06v-2.56a2.07,2.07,0,0,1,2.05-2.06h29.21a2.07,2.07,0,0,1,2.05,2.06Zm0-22.21a2.07,2.07,0,0,1-2.05,2H744.35a2.07,2.07,0,0,1-2.05-2v-2.57a2.05,2.05,0,0,1,2.05-2h29.21a2.05,2.05,0,0,1,2.05,2Zm0-22.23a2.05,2.05,0,0,1-2.05,2H744.35a2.05,2.05,0,0,1-2.05-2v-2.55a2.06,2.06,0,0,1,2.05-2.06h29.21a2.06,2.06,0,0,1,2.05,2.06Z"/><path class="cls-2" d="M768.57,979.22q.87,2.94,1.66,5.93Q769.44,982.17,768.57,979.22Z"/><path class="cls-2" d="M738.42,918.87c.8,1.08,1.58,2.17,2.35,3.27C740,921,739.22,920,738.42,918.87Z"/><path class="cls-2" d="M758.79,953.3q1.26,2.75,2.44,5.53Q760,956,758.79,953.3Z"/><path class="cls-2" d="M705.23,883.82c1.4,1.16,2.79,2.33,4.16,3.53C708,886.15,706.63,885,705.23,883.82Z"/><path class="cls-2" d="M745.59,929.24q1.63,2.55,3.19,5.14Q747.22,931.79,745.59,929.24Z"/><path class="cls-2" d="M764.51,967.14c.46,1.22.89,2.44,1.32,3.67C765.4,969.58,765,968.36,764.51,967.14Z"/><path class="cls-2" d="M775.45,1013q-.35-3.1-.79-6.18c.12.87.22,1.74.33,2.61C775.15,1010.64,775.32,1011.83,775.45,1013Z"/><path class="cls-2" d="M766.64,973.16c.51,1.52,1,3.05,1.46,4.59C767.63,976.21,767.15,974.68,766.64,973.16Z"/><path class="cls-2" d="M758,951.74c-.65-1.37-1.3-2.74-2-4.09.21.4.4.82.6,1.22C757.12,949.82,757.59,950.78,758,951.74Z"/><path class="cls-2" d="M703.24,882.22l.7.55c-.63-.51-1.26-1-1.89-1.54l0,0Z"/><path class="cls-2" d="M703.24,882.22l-1.21-1-.49,1.08a1.94,1.94,0,0,1,.59-.12Z"/><path class="cls-2" d="M763.6,964.71c-.48-1.24-1-2.48-1.48-3.71.46,1.14.92,2.28,1.36,3.43Z"/><path class="cls-2" d="M754.93,945.44c-.59-1.15-1.19-2.28-1.8-3.41l.09.18C753.8,943.28,754.37,944.35,754.93,945.44Z"/><path class="cls-2" d="M728.38,906.36q-1.64-1.87-3.31-3.7c.54.58,1.06,1.18,1.59,1.78S727.81,905.71,728.38,906.36Z"/><path class="cls-2" d="M733.19,912.08q-1.94-2.4-4-4.74c1,1.17,2,2.37,3,3.56C732.53,911.3,732.87,911.68,733.19,912.08Z"/><path class="cls-2" d="M714.76,892.21c-1.55-1.45-3.12-2.89-4.71-4.29l1.06,1C712.34,890,713.56,891.08,714.76,892.21Z"/><path class="cls-2" d="M776.27,1022.14c.09,1.45.17,2.9.24,4.36C776.44,1025,776.36,1023.59,776.27,1022.14Z"/><polygon class="cls-2" points="626.75 1237.72 626.75 1222.16 626.75 1215.5 626.75 1199.94 626.75 1193.28 626.75 1177.73 626.75 1171.06 626.75 1155.51 626.75 1148.84 626.75 1133.29 626.75 1126.62 626.75 1111.07 626.75 1104.4 626.75 1088.85 626.75 1082.19 626.75 1066.63 626.75 1059.97 626.75 1044.41 626.75 1037.75 626.75 1022.2 626.75 1015.53 626.75 999.98 626.75 993.31 626.75 977.76 626.75 971.09 626.75 956.45 626.75 956.46 626.75 1250.9 626.75 1250.89 626.75 1244.38 626.75 1237.72"/><path class="cls-2" d="M770.8,987.42c.33,1.33.66,2.67,1,4C771.46,990.09,771.13,988.75,770.8,987.42Z"/><path class="cls-2" d="M775.69,1015.3c.14,1.44.28,2.88.39,4.33C776,1018.18,775.83,1016.74,775.69,1015.3Z"/><path class="cls-2" d="M776.61,1028.83c.07,2,.1,4.05.11,6.09C776.71,1032.88,776.68,1030.85,776.61,1028.83Z"/><path class="cls-2" d="M772.32,993.93q.42,2,.81,4Q772.74,995.93,772.32,993.93Z"/><path class="cls-2" d="M773.59,1000.31c.31,1.76.61,3.54.88,5.32C774.2,1003.85,773.9,1002.07,773.59,1000.31Z"/><path class="cls-2" d="M743.79,926.54l.89,1.33c-.85-1.29-1.7-2.57-2.57-3.83l.18.27C742.8,925.05,743.29,925.8,743.79,926.54Z"/><path class="cls-2" d="M626.75,955.54V931.86c0-1.75.07-3.48.16-5.21a92.48,92.48,0,0,1,2.23-15.55c.52-2.25,1.1-4.48,1.78-6.66a91.6,91.6,0,0,1,6.52-15.56c1.21-2.28,2.53-4.5,3.92-6.66a92.2,92.2,0,0,1,12.72-15.66c.48-.47,1-1,1.45-1.42.28-.27.55-.54.83-.79a91.54,91.54,0,0,0-29.61,67.5v24.61h0Z"/><path class="cls-2" d="M664.33,857.77h0c1.87.9,3.73,1.83,5.58,2.77Q667.14,859.12,664.33,857.77Z"/><path class="cls-2" d="M694.93,875.88q1.92,1.38,3.8,2.8Q696.86,877.26,694.93,875.88Z"/><path class="cls-2" d="M626.75,956.45c.68-.29,1.33-.61,2-.91h-2Z"/><path class="cls-2" d="M654.08,866.56a92.2,92.2,0,0,0-12.72,15.66h12.22a2.06,2.06,0,0,1,2.06,2v2.56a2.06,2.06,0,0,1-2.06,2H637.44a91.6,91.6,0,0,0-6.52,15.56h22.66a2.06,2.06,0,0,1,2.06,2v2.56a2.06,2.06,0,0,1-2.06,2.05H629.14a92.48,92.48,0,0,0-2.23,15.55h26.67a2.07,2.07,0,0,1,2.06,2.06v2.56a2.06,2.06,0,0,1-2.06,2.05H626.75v15.55h15a144.41,144.41,0,0,0,33.36-26.66h-13a2.06,2.06,0,0,1-2.06-2.05V917.6a2.07,2.07,0,0,1,2.06-2.06h18.78a146.69,146.69,0,0,0,11.3-15.75,2.09,2.09,0,0,1-.86.2H662.14a2.06,2.06,0,0,1-2.06-2v-2.56a2.06,2.06,0,0,1,2.06-2h29.22a2.05,2.05,0,0,1,2,2v2.44c1.58-2.63,3.11-5.3,4.55-8.06.73-1.4,1.44-2.82,2.12-4.23v-1.26a2,2,0,0,1,1.46-1.93l.49-1.08-1.8-1.43-1.5-1.15q-1.87-1.42-3.8-2.8l-1.38-1-.14-.09v.93a2.05,2.05,0,0,1-2,2H662.14a2.06,2.06,0,0,1-2.06-2v-2.56a2.06,2.06,0,0,1,2.06-2H688c-.36-.24-.73-.47-1.1-.7q-1.83-1.2-3.7-2.36L681,866.7c-1.06-.63-2.11-1.26-3.18-1.87l-2.35-1.33c-1.13-.62-2.27-1.24-3.41-1.84l-2.11-1.12c-1.85-.94-3.71-1.87-5.58-2.77a89.79,89.79,0,0,0-8,6.58c-.28.25-.55.52-.83.79A2,2,0,0,1,654.08,866.56Z"/><path class="cls-2" d="M683.21,868.05q1.88,1.16,3.7,2.36Q685.08,869.21,683.21,868.05Z"/><path class="cls-2" d="M672,861.66c1.14.6,2.28,1.22,3.41,1.84C674.3,862.88,673.16,862.26,672,861.66Z"/><path class="cls-2" d="M693.55,874.88q-2.52-1.78-5.09-3.48,2.5,1.65,4.95,3.39Z"/><path class="cls-2" d="M702.05,881.23c-.6-.48-1.22-.93-1.82-1.4l1.8,1.43Z"/><path class="cls-2" d="M677.78,864.83c1.07.61,2.12,1.24,3.18,1.87C679.9,866.07,678.85,865.44,677.78,864.83Z"/><rect class="cls-3" x="700.08" y="948.87" width="33.33" height="6.67" rx="2.05"/><rect class="cls-3" x="700.08" y="971.09" width="33.33" height="6.67" rx="2.05"/><rect class="cls-3" x="700.08" y="993.31" width="33.33" height="6.67" rx="2.05"/><path class="cls-3" d="M703.94,882.77l1.29,1.05Z"/><path class="cls-3" d="M709.39,887.35l.66.57Z"/><path class="cls-3" d="M702.13,882.22a1.94,1.94,0,0,0-.59.12c-.48,1.06-1,2.13-1.46,3.19v1.3a2.05,2.05,0,0,0,2,2h9l-1.06-1-.66-.57c-1.37-1.2-2.76-2.37-4.16-3.53l-1.29-1.05-.7-.55Z"/><path class="cls-3" d="M700.08,884.27v1.26c.5-1.06,1-2.13,1.46-3.19A2,2,0,0,0,700.08,884.27Z"/><path class="cls-3" d="M728.38,906.36c.28.33.58.65.86,1C729,907,728.66,906.69,728.38,906.36Z"/><path class="cls-3" d="M702.13,904.44a2.05,2.05,0,0,0-2,2v2.56a2.05,2.05,0,0,0,2,2.05h29.22a2.09,2.09,0,0,0,.86-.2c-1-1.19-2-2.39-3-3.56-.28-.33-.58-.65-.86-1-.57-.65-1.15-1.28-1.72-1.92Z"/><rect class="cls-3" x="700.08" y="926.65" width="33.33" height="6.67" rx="2.05"/><rect class="cls-3" x="700.08" y="1015.53" width="33.33" height="6.67" rx="2.05"/><rect class="cls-3" x="700.08" y="1037.75" width="33.33" height="6.67" rx="2.05"/><rect class="cls-3" x="700.08" y="1059.97" width="33.33" height="6.67" rx="2.05"/><rect class="cls-3" x="700.08" y="1082.19" width="33.33" height="6.67" rx="2.05"/><rect class="cls-3" x="700.08" y="1104.4" width="33.33" height="6.67" rx="2.05"/><rect class="cls-3" x="700.08" y="1126.62" width="33.33" height="6.67" rx="2.05"/><rect class="cls-3" x="700.08" y="1148.84" width="33.33" height="6.67" rx="2.05"/><rect class="cls-3" x="700.08" y="1171.06" width="33.33" height="6.67" rx="2.05"/><path class="cls-3" d="M733.27,1198.52a2,2,0,0,1-1.63,1.36C732.19,1199.44,732.74,1199,733.27,1198.52Z"/><path class="cls-3" d="M733.4,1197.89v-2.56a2.05,2.05,0,0,0-2-2H702.13a2.05,2.05,0,0,0-2,2v2.56a2.05,2.05,0,0,0,2,2h29.22a2.93,2.93,0,0,0,.29,0l1.64-1.37A2.2,2.2,0,0,0,733.4,1197.89Z"/><path class="cls-3" d="M710.63,1215.49c-3.2,2.15-6.48,4.2-9.79,6.18a2,2,0,0,1-.76-1.56v-2.56a2.06,2.06,0,0,1,2.06-2.06Z"/><path class="cls-3" d="M763.6,964.71c.31.81.61,1.62.91,2.43C764.21,966.33,763.91,965.52,763.6,964.71Z"/><path class="cls-3" d="M765.93,971.09l-.1-.28.1.28Z"/><path class="cls-3" d="M744.35,964.43a2.06,2.06,0,0,0-2.06,2.05V969a2.06,2.06,0,0,0,2.06,2.05h21.58l-.1-.28c-.43-1.23-.86-2.45-1.32-3.67-.3-.81-.6-1.62-.91-2.43l-.12-.28Z"/><path class="cls-3" d="M770.8,987.42c-.07-.26-.12-.52-.19-.77h0C770.67,986.9,770.73,987.16,770.8,987.42Z"/><path class="cls-3" d="M772.19,993.31c-.14-.63-.28-1.26-.43-1.88.15.62.28,1.25.42,1.88Z"/><path class="cls-3" d="M744.35,986.65a2.06,2.06,0,0,0-2.06,2.05v2.56a2.06,2.06,0,0,0,2.06,2h27.83c-.14-.63-.27-1.26-.42-1.88-.3-1.34-.63-2.68-1-4-.07-.26-.13-.52-.2-.77Z"/><path class="cls-3" d="M775.55,1013.82c0-.27-.07-.53-.1-.8,0,.28.06.57.09.85A.43.43,0,0,1,775.55,1013.82Z"/><path class="cls-3" d="M773.56,1008.86H744.35a2.07,2.07,0,0,0-2.06,2.06v2.55a2.07,2.07,0,0,0,2.06,2.06h29.21a2,2,0,0,0,2-1.66c0-.28,0-.57-.09-.85-.13-1.19-.3-2.38-.46-3.57A2,2,0,0,0,773.56,1008.86Z"/><path class="cls-3" d="M742.29,924.6a2,2,0,0,0,1.5,1.94c-.5-.74-1-1.49-1.5-2.23Z"/><path class="cls-3" d="M754.93,945.44c.38.73.76,1.47,1.13,2.21C755.69,946.91,755.31,946.17,754.93,945.44Z"/><path class="cls-3" d="M744.35,942.21a2.06,2.06,0,0,0-2.06,2v2.56a2.06,2.06,0,0,0,2.06,2h12.31c-.2-.4-.39-.82-.6-1.22-.37-.74-.75-1.48-1.13-2.21-.56-1.09-1.13-2.16-1.71-3.23Z"/><path class="cls-3" d="M744.35,1031.08h29.22a2.05,2.05,0,0,1,2.05,2.05v2.56a2.05,2.05,0,0,1-2.05,2.05H744.35a2.06,2.06,0,0,1-2.06-2.06v-2.56A2.05,2.05,0,0,1,744.35,1031.08Z"/><path class="cls-3" d="M744.35,1053.3h29.22a2.05,2.05,0,0,1,2.05,2.05v2.56a2.05,2.05,0,0,1-2.05,2.05H744.35a2.06,2.06,0,0,1-2.06-2.06v-2.56A2.05,2.05,0,0,1,744.35,1053.3Z"/><path class="cls-3" d="M744.35,1075.52h29.22a2.05,2.05,0,0,1,2.05,2.05v2.56a2.05,2.05,0,0,1-2.05,2.05H744.35a2.06,2.06,0,0,1-2.06-2.06v-2.56A2.05,2.05,0,0,1,744.35,1075.52Z"/><path class="cls-3" d="M744.35,1097.74h29.22a2.05,2.05,0,0,1,2.05,2.05v2.56a2.05,2.05,0,0,1-2.05,2.05H744.35a2.06,2.06,0,0,1-2.06-2.06v-2.56A2.05,2.05,0,0,1,744.35,1097.74Z"/><path class="cls-3" d="M744.35,1120h29.22a2.05,2.05,0,0,1,2.05,2.05v2.56a2.05,2.05,0,0,1-2.05,2.05H744.35a2.06,2.06,0,0,1-2.06-2.06V1122A2.06,2.06,0,0,1,744.35,1120Z"/><path class="cls-3" d="M744.35,1142.18h29.22a2.05,2.05,0,0,1,2.05,2.05v2.56a2.05,2.05,0,0,1-2.05,2.05H744.35a2.06,2.06,0,0,1-2.06-2.06v-2.56A2.05,2.05,0,0,1,744.35,1142.18Z"/><path class="cls-3" d="M766.6,1164.39c-1.8,2.27-3.66,4.48-5.56,6.67H744.35a2.05,2.05,0,0,1-2.05-2v-2.57a2.05,2.05,0,0,1,2.05-2Z"/><path class="cls-3" d="M746.41,1186.61c-1.37,1.32-2.73,2.63-4.11,3.93v-1.88a2.06,2.06,0,0,1,2.05-2.05Z"/><path class="cls-3" d="M662.14,937.76h29.22a2.05,2.05,0,0,1,2.05,2.05v2.56a2.05,2.05,0,0,1-2.05,2.05H662.14a2.06,2.06,0,0,1-2.06-2.06v-2.56A2.05,2.05,0,0,1,662.14,937.76Z"/><path class="cls-3" d="M662.14,960h29.22a2.05,2.05,0,0,1,2.05,2.05v2.56a2.05,2.05,0,0,1-2.05,2.05H662.14a2.06,2.06,0,0,1-2.06-2.06V962A2.05,2.05,0,0,1,662.14,960Z"/><path class="cls-3" d="M662.14,982.2h29.22a2.05,2.05,0,0,1,2.05,2.05v2.56a2.05,2.05,0,0,1-2.05,2.05H662.14a2.06,2.06,0,0,1-2.06-2.06v-2.56A2.05,2.05,0,0,1,662.14,982.2Z"/><path class="cls-3" d="M688.46,871.4l-.44-.29h0Z"/><path class="cls-3" d="M662.14,871.11a2.06,2.06,0,0,0-2.06,2v2.56a2.06,2.06,0,0,0,2.06,2h29.22a2.05,2.05,0,0,0,2-2v-.93q-2.45-1.74-4.95-3.39l-.45-.29Z"/><path class="cls-3" d="M693.41,897.94v-.12c-.4.65-.79,1.32-1.19,2A2,2,0,0,0,693.41,897.94Z"/><path class="cls-3" d="M691.36,893.33H662.14a2.06,2.06,0,0,0-2.06,2v2.56a2.06,2.06,0,0,0,2.06,2h29.22a2.09,2.09,0,0,0,.86-.2c.4-.65.79-1.32,1.19-2v-2.44A2.05,2.05,0,0,0,691.36,893.33Z"/><path class="cls-3" d="M691.36,922.21a2.05,2.05,0,0,0,2-2.05V917.6a2.06,2.06,0,0,0-2-2.06H680.92q-2.82,3.45-5.83,6.67Z"/><path class="cls-3" d="M660.08,917.6v2.56a2.06,2.06,0,0,0,2.06,2.05h13q3-3.23,5.83-6.67H662.14A2.07,2.07,0,0,0,660.08,917.6Z"/><path class="cls-3" d="M662.14,1004.42h29.22a2.05,2.05,0,0,1,2.05,2.05V1009a2.05,2.05,0,0,1-2.05,2.05H662.14a2.06,2.06,0,0,1-2.06-2.06v-2.56A2.05,2.05,0,0,1,662.14,1004.42Z"/><path class="cls-3" d="M662.14,1026.64h29.22a2.05,2.05,0,0,1,2.05,2.05v2.56a2.05,2.05,0,0,1-2.05,2.05H662.14a2.06,2.06,0,0,1-2.06-2.06v-2.56A2.05,2.05,0,0,1,662.14,1026.64Z"/><path class="cls-3" d="M662.14,1048.86h29.22a2.05,2.05,0,0,1,2.05,2.05v2.56a2.05,2.05,0,0,1-2.05,2.05H662.14a2.06,2.06,0,0,1-2.06-2.06v-2.56A2.05,2.05,0,0,1,662.14,1048.86Z"/><path class="cls-3" d="M662.14,1071.08h29.22a2.05,2.05,0,0,1,2.05,2.05v2.56a2.05,2.05,0,0,1-2.05,2.05H662.14a2.06,2.06,0,0,1-2.06-2.06v-2.56A2.05,2.05,0,0,1,662.14,1071.08Z"/><path class="cls-3" d="M662.14,1093.29h29.22a2.05,2.05,0,0,1,2.05,2.05v2.56a2.05,2.05,0,0,1-2.05,2.05H662.14a2.06,2.06,0,0,1-2.06-2.06v-2.56A2.05,2.05,0,0,1,662.14,1093.29Z"/><path class="cls-3" d="M662.14,1115.51h29.22a2.05,2.05,0,0,1,2.05,2.05v2.56a2.05,2.05,0,0,1-2.05,2.05H662.14a2.06,2.06,0,0,1-2.06-2.06v-2.56A2.05,2.05,0,0,1,662.14,1115.51Z"/><path class="cls-3" d="M662.14,1137.73h29.22a2.05,2.05,0,0,1,2.05,2.05v2.56a2.05,2.05,0,0,1-2.05,2.05H662.14a2.06,2.06,0,0,1-2.06-2.06v-2.56A2.05,2.05,0,0,1,662.14,1137.73Z"/><path class="cls-3" d="M662.14,1160h29.22a2.05,2.05,0,0,1,2.05,2.05v2.56a2.05,2.05,0,0,1-2.05,2.05H662.14a2.06,2.06,0,0,1-2.06-2.06V1162A2.05,2.05,0,0,1,662.14,1160Z"/><path class="cls-3" d="M662.14,1182.17h29.22a2.05,2.05,0,0,1,2.05,2.05v2.56a2.05,2.05,0,0,1-2.05,2.05H662.14a2.06,2.06,0,0,1-2.06-2.06v-2.56A2.05,2.05,0,0,1,662.14,1182.17Z"/><path class="cls-3" d="M662.14,1204.39h29.22a2.05,2.05,0,0,1,2.05,2.05V1209a2.05,2.05,0,0,1-2.05,2.05H662.14a2.06,2.06,0,0,1-2.06-2.06v-2.56A2.05,2.05,0,0,1,662.14,1204.39Z"/><path class="cls-3" d="M655.64,909.05v-2.56a2.06,2.06,0,0,0-2.06-2H630.92c-.68,2.18-1.26,4.41-1.78,6.66h24.44A2.06,2.06,0,0,0,655.64,909.05Z"/><path class="cls-3" d="M655.64,931.27v-2.56a2.07,2.07,0,0,0-2.06-2.06H626.91c-.09,1.73-.16,3.46-.16,5.21v1.46h26.83A2.06,2.06,0,0,0,655.64,931.27Z"/><path class="cls-3" d="M653.58,955.54a2.07,2.07,0,0,0,2.06-2.06v-2.55a2.07,2.07,0,0,0-2.06-2.06H641.73a144.48,144.48,0,0,1-13,6.67Z"/><path class="cls-3" d="M626.75,955.54h2a144.48,144.48,0,0,0,13-6.67h-15Z"/><path class="cls-3" d="M655.53,865.14c-.49.46-1,1-1.45,1.42A2,2,0,0,0,655.53,865.14Z"/><path class="cls-3" d="M655.64,886.83v-2.56a2.06,2.06,0,0,0-2.06-2H641.36c-1.39,2.16-2.71,4.38-3.92,6.66h16.14A2.06,2.06,0,0,0,655.64,886.83Z"/><path class="cls-3" d="M653.58,977.76a2.07,2.07,0,0,0,2.06-2.06v-2.55a2.07,2.07,0,0,0-2.06-2.06H626.75v6.67Z"/><path class="cls-3" d="M653.58,1000a2.07,2.07,0,0,0,2.06-2.06v-2.55a2.06,2.06,0,0,0-2.06-2.06H626.75V1000Z"/><path class="cls-3" d="M653.58,1022.19a2.06,2.06,0,0,0,2.06-2.05v-2.56a2.06,2.06,0,0,0-2.06-2.05H626.75v6.66Z"/><path class="cls-3" d="M653.58,1044.41a2.06,2.06,0,0,0,2.06-2.05v-2.56a2.06,2.06,0,0,0-2.06-2H626.75v6.66Z"/><path class="cls-3" d="M653.58,1066.63a2.06,2.06,0,0,0,2.06-2.05V1062a2.06,2.06,0,0,0-2.06-2H626.75v6.66Z"/><path class="cls-3" d="M653.58,1088.85a2.06,2.06,0,0,0,2.06-2v-2.56a2.06,2.06,0,0,0-2.06-2H626.75v6.66Z"/><path class="cls-3" d="M653.58,1111.07a2.07,2.07,0,0,0,2.06-2v-2.56a2.07,2.07,0,0,0-2.06-2.06H626.75v6.67Z"/><path class="cls-3" d="M653.58,1133.29a2.07,2.07,0,0,0,2.06-2.06v-2.55a2.07,2.07,0,0,0-2.06-2.06H626.75v6.67Z"/><path class="cls-3" d="M653.58,1155.51a2.07,2.07,0,0,0,2.06-2.06v-2.55a2.07,2.07,0,0,0-2.06-2.06H626.75v6.67Z"/><path class="cls-3" d="M653.58,1177.73a2.07,2.07,0,0,0,2.06-2.06v-2.56a2.06,2.06,0,0,0-2.06-2H626.75v6.67Z"/><path class="cls-3" d="M653.58,1199.94a2.06,2.06,0,0,0,2.06-2v-2.56a2.06,2.06,0,0,0-2.06-2H626.75v6.66Z"/><path class="cls-3" d="M653.58,1222.16a2.06,2.06,0,0,0,2.06-2.05v-2.56a2.06,2.06,0,0,0-2.06-2H626.75v6.66Z"/><path class="cls-3" d="M655.53,1242.82a2,2,0,0,1-1.95,1.56h-2.69C652.45,1243.87,654,1243.35,655.53,1242.82Z"/><path class="cls-3" d="M650.89,1244.38c1.55-.5,3.11-1,4.65-1.55a2.22,2.22,0,0,0,.1-.5v-2.56a2.06,2.06,0,0,0-2.06-2H626.75v6.66Z"/></g><path class="cls-4" d="M261.53,1578.1v-20.63H240.9V1475h20.63v-20.63H344V1475h20.63v20.63H323.42V1475H282.16v82.51h41.26v-20.62H302.79v-20.63h61.88v61.88Z"/><path class="cls-4" d="M412.53,1578.1V1475h20.63v41.26h41.26V1475H433.16v-20.63h82.51V1475H536.3V1578.1H474.42v-41.25H433.16v41.25Z"/><path class="cls-4" d="M584.16,1578.1V1454.33h20.63V1475h20.63v20.63h20.63V1475h20.62v-20.63h41.26V1578.1H666.67v-61.88H646.05v20.63H625.42v-20.63H604.79v61.88Z"/><path class="cls-4" d="M755.79,1578.1V1454.33H879.56V1475H797.05v20.63h61.88v20.63H797.05v41.25h82.51v20.63Z"/><path class="cls-4" d="M261.53,1776.14v-20.63H240.9V1673h20.63v-20.62H344V1673h20.63v82.52H344v20.63Zm61.89-20.63V1673H282.16v82.52Z"/><path class="cls-4" d="M412.53,1734.88v-82.51h20.63v82.51Zm20.63,20.63v-20.63h20.63v20.63Zm20.63,20.63v-20.63h20.63v-20.63h20.63v-82.51H536.3v82.51H515.67v20.63H495.05v20.63Z"/><path class="cls-4" d="M584.16,1776.14V1652.37H707.93V1673H625.42v20.63H687.3v20.63H625.42v41.26h82.51v20.63Z"/><path class="cls-4" d="M755.79,1776.14V1652.37H858.93V1673h20.63v41.26H858.93v20.63H838.3v20.63H817.68v-20.63H797.05v41.26Zm82.51-61.89V1673H797.05v41.26Zm0,61.89v-20.63h41.26v20.63Z"/></svg>