<svg id="Calque_1" data-name="Calque 1" xmlns="http://www.w3.org/2000/svg" xmlns:xlink="http://www.w3.org/1999/xlink" viewBox="0 0 1125 2436"><defs><style>.cls-1{fill:none;}.cls-2,.cls-21,.cls-8{fill:#ffae00;}.cls-2,.cls-21{stroke:#fff;stroke-miterlimit:10;}.cls-2{stroke-width:0.25px;}.cls-3{fill:#894f00;}.cls-4{fill:#a96600;}.cls-5{fill:#fbca85;}.cls-6{fill:#6a5c46;}.cls-7{fill:#e02229;}.cls-9{fill:#fff;}.cls-10{fill:#00b2ae;}.cls-11{fill:#ffcc97;}.cls-12{fill:#2db17e;}.cls-13{fill:#ffb777;}.cls-14{fill:#303030;}.cls-15{fill:#f1f1f1;}.cls-16{fill:#4c4c4c;}.cls-17{clip-path:url(#clip-path);}.cls-18{fill:#e39c10;}.cls-19{fill:#ffce5c;}.cls-20{fill:#e8b350;}.cls-21{stroke-width:0.25px;}</style><clipPath id="clip-path"><rect class="cls-1" x="-2" width="1124" height="2435"/></clipPath></defs><title>Plan de travail 3 copie</title><rect class="cls-2" x="-2.08" y="-0.03" width="1124.36" height="2435.01"/><polygon class="cls-3" points="570.67 2082.84 540.57 2102.97 427.42 1984.58 457.52 1964.46 570.67 2082.84"/><ellipse class="cls-4" cx="442.63" cy="1974.7" rx="18.18" ry="8.11" transform="matrix(0.85, -0.52, 0.52, 0.85, -960.11, 516.04)"/><polygon class="cls-3" points="540.91 2092.61 571.01 2112.73 692.79 1985.31 662.69 1965.19 540.91 2092.61"/><rect class="cls-3" x="540.45" y="2076.16" width="38.53" height="172.84" transform="translate(1119.44 4325.15) rotate(180)"/><ellipse class="cls-4" cx="677.58" cy="1975.43" rx="8.11" ry="18.18" transform="translate(-1362.78 1530.03) rotate(-58.75)"/><path class="cls-5" d="M462.22,1976.52a41.25,41.25,0,0,1,1.55,7l-.35-2.61a76.69,76.69,0,0,1-.39,20l.35-2.6a146.19,146.19,0,0,1-10.31,36.72l1-2.34c-1.3,3.07-2.7,6.1-4.24,9.06s-3.4,5.87-5.05,8.84a113.31,113.31,0,0,0-10.28,26.19,253.12,253.12,0,0,0-5,25.62c-1.39,8.86-2.78,17.76-3.28,26.72a88.25,88.25,0,0,0,2.19,26.47A62,62,0,0,0,441,2180.09c10.25,12.38,25.21,20,40,25.64s30.46,9.36,46,12.41c16.95,3.33,34.53,5.72,51.82,4.12a94.18,94.18,0,0,0,25.23-5.41,78.07,78.07,0,0,0,24.27-14.63,97,97,0,0,0,16.52-19.84,144.86,144.86,0,0,0,11.87-22.52,151.42,151.42,0,0,0,12.53-53.52,139.48,139.48,0,0,0-1-25.1c-.63-4.94-1.38-9.86-2.45-14.72-.88-4-2-7.89-3.13-11.82a63.47,63.47,0,0,1-1.71-8.64l.35,2.6c-1.3-9.85-1.14-19.86-.77-29.77.38-10.12,1.13-20.22,1.53-30.33.19-4.88.3-9.77.08-14.65a10.33,10.33,0,0,0-2.87-6.92,9.79,9.79,0,0,0-13.85,0,9.85,9.85,0,0,0-2.87,6.92c.62,13.39-.77,26.85-1.4,40.21-.67,14.33-1.18,29.15,2,43.25.9,4,2.24,7.88,3.19,11.86q1.64,6.83,2.57,13.77l-.35-2.6a142.46,142.46,0,0,1,0,37.53l.35-2.6a146.64,146.64,0,0,1-10.12,37l1-2.34a133.52,133.52,0,0,1-16.91,29.62l1.53-2a77.18,77.18,0,0,1-13.58,13.75l2-1.53a65.5,65.5,0,0,1-14.33,8.32l2.34-1a81.63,81.63,0,0,1-20.6,5.41l2.6-.35c-12.5,1.63-25.18,1-37.63-.71l2.6.35c-9.14-1.24-18.19-3-27.18-5.08-8.54-1.95-17-4.1-25.38-6.77-4.64-1.49-9.23-3.15-13.72-5l2.34,1a96.88,96.88,0,0,1-21.53-12.19l2,1.53a60,60,0,0,1-10.64-10.55l1.53,2a51.1,51.1,0,0,1-6.37-10.94l1,2.34a59,59,0,0,1-3.92-14.82l.35,2.61c-1.3-10.1-.47-20.31.88-30.35l-.35,2.6c2.35-17.27,4.9-35,11.65-51.23l-1,2.34a89.6,89.6,0,0,1,5.35-10.69c1.44-2.42,2.87-4.82,4.16-7.32a157.19,157.19,0,0,0,8.12-19c4.6-12.87,7.78-26.54,8.35-40.23a60.38,60.38,0,0,0-2.32-20.76,10.3,10.3,0,0,0-4.5-5.85,10,10,0,0,0-7.54-1c-4.88,1.58-8.52,6.82-6.84,12Z"/><polygon class="cls-6" points="851.1 2323.69 847.58 2315.34 847.96 2299.5 824.53 2285.21 817.52 2289.04 810.7 2284.88 786.61 2298.02 786.29 2311.27 778 2325.64 791.72 2349.4 804.25 2349.4 816.08 2356.61 840.17 2343.47 840.3 2337.95 851.1 2323.69"/><path class="cls-7" d="M884.51,2343.94v-14.09h7v-7h7.05v-7.05h7v-7.05h7.05v-7h14.1v7h-7v7.05h-7v14.1H898.61v7.05h-7.05v7Zm0-35.24v-7h7v7Zm7,7.05v-7.05h7.05v7.05Zm21.14,21.15v-7.05h7v7.05Zm7,7v-7h7v7Z"/><path class="cls-7" d="M947.94,2343.94v-7h-7v-28.2h7v-7h28.2v7h7.05v28.2h-7.05v7Zm21.15-7v-28.2H955v28.2Z"/><path class="cls-7" d="M997.28,2343.94v-7h21.15v-14.1h-14.1v-7.05h14.1v-7.05H997.28v-7h35.24v7h7v7.05h-7v7.05h7v14.1h-7v7Z"/><rect class="cls-7" x="738.33" y="135.74" width="304.13" height="74.52" rx="22.3"/><path class="cls-8" d="M969.37,199.86v-7.34H962V163.17h7.34v-7.34h29.35v7.34h7.33v29.35h-7.33v7.34Zm22-7.34V163.17H976.7v29.35Z"/><path class="cls-7" d="M508.79,143.37a37.78,37.78,0,0,0,5.51,6.15c.59-1.24,1.22-2.46,1.88-3.65A30.53,30.53,0,0,1,508.79,143.37Zm10.84-17.84a37.12,37.12,0,0,0,2.85,11.08q1.74-2.13,3.67-4.11A29.83,29.83,0,0,1,519.63,125.53Zm18.52-9.32a37.7,37.7,0,0,0-2.23,8.1q1.73-1.17,3.51-2.22A29.92,29.92,0,0,1,538.15,116.21ZM607,124.48a35.73,35.73,0,0,0-10.66-22.11,30.78,30.78,0,0,1,.35,16.37A63.18,63.18,0,0,1,607,124.48ZM570.84,95.3h-.21a83.07,83.07,0,0,0-9.24.51h0a82.88,82.88,0,0,0-15.91,3.4c.49.7.94,1.42,1.37,2.17a31.14,31.14,0,0,1,4.17,15.4,63.1,63.1,0,0,1,20.29-3.33h.82l1,0a62.34,62.34,0,0,1,17.16,2.86,37,37,0,0,0-10-20.48A84.1,84.1,0,0,0,570.84,95.3Z"/><path class="cls-1" d="M616.73,158.43l.31.57Z"/><path class="cls-1" d="M614.87,155.37l.24.35Z"/><path class="cls-1" d="M615.92,157l.29.48Z"/><path class="cls-1" d="M618.3,161.48c.06.14.13.27.19.41C618.43,161.75,618.36,161.62,618.3,161.48Z"/><path class="cls-1" d="M619.12,163.3c.07.19.15.37.22.56C619.27,163.67,619.19,163.49,619.12,163.3Z"/><path class="cls-1" d="M622.51,175.3c0,.1,0,.21,0,.31C622.54,175.51,622.53,175.4,622.51,175.3Z"/><path class="cls-1" d="M620.88,168.15l.12.38Z"/><path class="cls-1" d="M596.65,118.74A31.59,31.59,0,0,1,589,132.68a37.94,37.94,0,0,0,1.61-10.94,38.45,38.45,0,0,0-.39-5.4A63,63,0,0,1,596.65,118.74Z"/><path class="cls-1" d="M611.93,151.32l.29.37Z"/><path class="cls-1" d="M623.09,212.53V182.81c0-.53,0-1,0-1.57l0-.59c0-.37,0-.75-.06-1.12,0-.21,0-.43,0-.64,0-.37-.07-.74-.11-1.11,0-.07,0-.13,0-.19s0-.13,0-.19l0-.2c-.06-.53-.12-1.07-.2-1.59,0-.11,0-.21,0-.31-.07-.46-.14-.91-.22-1.37,0-.2-.08-.4-.12-.6l-.21-1,0-.16c0-.16-.08-.32-.11-.48-.08-.34-.17-.69-.25-1,0-.06,0-.13-.05-.2l-.1-.38c-.13-.51-.27-1-.42-1.52l-.12-.38c-.12-.39-.25-.78-.38-1.17l-.18-.53,0-.07c-.11-.32-.21-.64-.33-.95l-.24-.62,0-.07c-.11-.3-.23-.59-.34-.88s-.15-.37-.24-.56c-.2-.47-.4-.94-.62-1.41-.06-.14-.13-.27-.19-.41s-.23-.48-.36-.73l-.15-.31c-.09-.19-.19-.38-.29-.57s-.29-.55-.44-.83l0,0-.31-.57c-.17-.31-.35-.61-.52-.91s-.19-.32-.29-.48c-.26-.45-.54-.89-.81-1.32l-.24-.35-.32-.5-.1-.13-.05-.08-.14-.2h0a.18.18,0,0,0,0-.07,5.36,5.36,0,0,0-.34-.49l-.6-.84-.36-.48-.69-.89-.29-.37-.25-.3-.76-.92-.22-.24c-.28-.33-.56-.64-.85-1l-.36-.39q-.37-.41-.78-.81l-.35-.36-.92-.9c-.08-.07-.15-.15-.24-.22l-.46-.43a1.59,1.59,0,0,0-.13-.13.8.8,0,0,1-.17-.15l-.17-.15-.27-.24-.17-.15c-.35-.31-.71-.61-1.07-.91l-.33-.26-.48-.4a37.22,37.22,0,0,0,3-18.93,63.09,63.09,0,0,1,16.13,88.05Z"/><path class="cls-1" d="M623.09,182.81v29.72h0V182.81Z"/><path class="cls-1" d="M609.49,148.52l.36.39Z"/><path class="cls-1" d="M612.91,152.58l.36.48Z"/><path class="cls-1" d="M613.87,153.9l.35.49Z"/><path class="cls-1" d="M528.14,145.8a29,29,0,0,1-12,.07,63.45,63.45,0,0,1,6.3-9.26A36.45,36.45,0,0,0,528.14,145.8Z"/><path class="cls-1" d="M514.88,182.39a20.49,20.49,0,0,0,12.91,19c.33-.33.68-.64,1-1v22.65a63.14,63.14,0,0,1-14.53-73.61,36.76,36.76,0,0,0,14.53,8V163A20.51,20.51,0,0,0,514.88,182.39Z"/><path class="cls-1" d="M536.24,137.59a28.86,28.86,0,0,1-10.09-5.09,63.4,63.4,0,0,1,9.77-8.19A37,37,0,0,0,536.24,137.59Z"/><path class="cls-1" d="M551,116.78a30.08,30.08,0,0,1-4.85,16.61h0a29.32,29.32,0,0,1-6.71-11.31A63,63,0,0,1,551,116.78Z"/><path class="cls-1" d="M584.65,162.7v75.47l-.29.06V162.82Z"/><path class="cls-1" d="M622.92,178.89c0,.21,0,.43.05.64C623,179.32,622.94,179.1,622.92,178.89Z"/><path class="cls-1" d="M622.82,177.78l0-.38h0C622.8,177.53,622.81,177.66,622.82,177.78Z"/><path class="cls-1" d="M622,172.3l0-.16h0C621.93,172.19,622,172.25,622,172.3Z"/><path class="cls-1" d="M623,180.65l0,.6Z"/><path class="cls-1" d="M620.5,167l-.18-.53h0Z"/><path class="cls-1" d="M621.52,170.43c0-.12-.06-.25-.1-.38,0,.13.07.26.1.38Z"/><path class="cls-1" d="M622.17,173.33c0,.2.08.4.11.61C622.25,173.73,622.21,173.53,622.17,173.33Z"/><path class="cls-1" d="M607.21,146.23l.23.22Z"/><path class="cls-1" d="M608.35,147.34l.37.37Z"/><path class="cls-7" d="M653,177.65a82.16,82.16,0,0,1-29.89,63.48c-1.4,1.17-2.85,2.27-4.33,3.34q-1.21.87-2.46,1.71a82.14,82.14,0,0,1-10,5.69c-1,.46-1.9.89-2.87,1.32q-1.87.81-3.78,1.53-2.48.93-5,1.71c-1.37.42-2.76.79-4.15,1.14-1.18.29-2.36.57-3.55.81h0l-.27.05A82.37,82.37,0,0,1,545.48,99.21c.49.7.94,1.42,1.37,2.17a31.14,31.14,0,0,1,4.17,15.4,63,63,0,0,0-11.59,5.31,29.92,29.92,0,0,1-1.28-5.88,37.7,37.7,0,0,0-2.23,8.1,63.4,63.4,0,0,0-9.77,8.19,29.83,29.83,0,0,1-6.52-7,37.12,37.12,0,0,0,2.85,11.08,63.45,63.45,0,0,0-6.3,9.26,30.53,30.53,0,0,1-7.39-2.5,37.78,37.78,0,0,0,5.51,6.15,63.12,63.12,0,0,0,70.06,88.71l.29-.06a63.89,63.89,0,0,0,6.18-1.67h.69a.52.52,0,0,0,.5-.4,62.15,62.15,0,0,0,6-2.45c1.13-.53,2.24-1.09,3.32-1.68.77-.41,1.53-.85,2.28-1.29s1.69-1,2.51-1.59a62,62,0,0,0,5.38-4,.51.51,0,0,0,.42-.35c.79-.66,1.56-1.35,2.31-2l1.06-1c1.3-1.27,2.56-2.61,3.75-4,.48-.56,1-1.13,1.42-1.71.91-1.12,1.77-2.27,2.6-3.46a63.09,63.09,0,0,0-16.13-88,35.73,35.73,0,0,0-10.66-22.11,30.78,30.78,0,0,1,.35,16.37,63,63,0,0,0-6.41-2.4,37,37,0,0,0-10-20.48A82.36,82.36,0,0,1,653,177.65Z"/><path class="cls-9" d="M536.5,138.73a23.41,23.41,0,0,0-4.77,6.05,28.67,28.67,0,0,1-3.59,1,36.45,36.45,0,0,1-5.66-9.19,37.12,37.12,0,0,1-2.85-11.08,29.83,29.83,0,0,0,6.52,7,28.86,28.86,0,0,0,10.09,5.09C536.32,138,536.41,138.35,536.5,138.73Z"/><path class="cls-9" d="M590.63,121.74A37.94,37.94,0,0,1,589,132.68c-.67.71-1.36,1.38-2.08,2a50.95,50.95,0,0,0-14.51-2.13h-.09a37,37,0,0,0,.31-17c.17-.68.31-1.37.43-2.06a32.11,32.11,0,0,0,.46-5.41,30.95,30.95,0,0,0-8.7-21.64,35.35,35.35,0,0,1,15.44,9.43,37,37,0,0,1,10,20.48A38.45,38.45,0,0,1,590.63,121.74Z"/><path class="cls-9" d="M530.24,148.09a23.4,23.4,0,0,0-1.41,8v1.43a36.76,36.76,0,0,1-14.53-8,37.78,37.78,0,0,1-5.51-6.15,30.53,30.53,0,0,0,7.39,2.5,29,29,0,0,0,12-.07C528.81,146.6,529.5,147.36,530.24,148.09Z"/><path class="cls-9" d="M572.65,115.54a30.65,30.65,0,0,1-11,17h-9.27a23.62,23.62,0,0,0-6.21.83A30.08,30.08,0,0,0,551,116.78a31.14,31.14,0,0,0-4.17-15.4c-.43-.75-.88-1.47-1.37-2.17a30.79,30.79,0,0,0-17-12.26,36.22,36.22,0,0,1,32.87,8.86h0a38.23,38.23,0,0,1,10.74,17.64h0C572.33,114.15,572.5,114.85,572.65,115.54Z"/><path class="cls-9" d="M561.65,132.56h10.69a37,37,0,0,0,.31-17A30.65,30.65,0,0,1,561.65,132.56Z"/><path class="cls-9" d="M528.14,145.8c.67.8,1.36,1.56,2.1,2.29a22.92,22.92,0,0,1,1.49-3.31A28.67,28.67,0,0,1,528.14,145.8Z"/><path class="cls-9" d="M604,143.41l-.47-.36-.38-.29-1-.72-.35-.26s0,0,0,0l-1.27-.87-.11-.07-.28-.18c-.32-.2-.63-.41-1-.6l-.58-.35-.81-.48-.61-.34-.87-.48-.54-.28-1.43-.71a21.93,21.93,0,0,0-2,1.68l-.22.21-.18.18-.3.29-.21.21c-.26.27-.51.53-.76.81l-.47.55-.45.55c-.15.19-.29.38-.43.58s-.31.42-.45.63-.24.35-.36.54a.86.86,0,0,0-.1.16c-.15.23-.3.48-.44.72a3.54,3.54,0,0,0-.19.33,2.53,2.53,0,0,0-.13.22l-.16.31c0,.08-.09.16-.13.24l-.12.24c0,.08-.09.17-.13.26l-.17.36a.54.54,0,0,0-.05.11c-.12.24-.23.49-.33.74,0,0,0,0,0,0-.12.29-.24.59-.35.9s-.18.49-.26.74a0,0,0,0,0,0,0,1.21,1.21,0,0,1-.05.14l-.06.21,0,0c0,.1-.06.19-.08.29l-.09.29v0s0,.09,0,.14a.13.13,0,0,1,0,.06h0c-.05.16-.09.31-.13.47l-.12.53c0,.13-.06.26-.08.38s-.06.27-.08.4-.06.28-.08.43-.06.34-.08.52,0,.08,0,.12l0,.23q0,.14,0,.24v0c0,.21-.06.43-.07.65l0,.26v.07s0,.11,0,.17a.91.91,0,0,0,0,.17.86.86,0,0,0,0,.16.45.45,0,0,0,0,.11c0,.41,0,.82,0,1.23v6.31l-.29.12v-6.43a23.49,23.49,0,0,1,9.63-19,50.24,50.24,0,0,0-5.79-2.31c.3-.79.57-1.6.82-2.41a31.59,31.59,0,0,0,7.63-13.94,30.78,30.78,0,0,0-.35-16.37A35.73,35.73,0,0,1,607,124.48,37.22,37.22,0,0,1,604,143.41Z"/><path class="cls-9" d="M600.35,140.82l-.28-.18.28.18Z"/><path class="cls-9" d="M595.71,138.11l.54.29Z"/><path class="cls-9" d="M597.12,138.87l.61.34Z"/><path class="cls-9" d="M601.77,141.78l.35.26Z"/><path class="cls-9" d="M603.1,142.76l.38.29Z"/><path class="cls-9" d="M594.28,137.4a23.79,23.79,0,0,0-2,1.68,23.79,23.79,0,0,1,2-1.68Z"/><path class="cls-9" d="M598.54,139.69l.58.35Z"/><path class="cls-9" d="M546.14,133.4a23.41,23.41,0,0,0-8.69,4.5c-.4-.09-.81-.2-1.21-.31a37,37,0,0,1-.32-13.28,37.7,37.7,0,0,1,2.23-8.1,29.92,29.92,0,0,0,1.28,5.88A29.32,29.32,0,0,0,546.14,133.4Z"/><path class="cls-9" d="M589,132.68c-.67.71-1.36,1.38-2.08,2,.42.12.84.26,1.26.4C588.5,134.3,588.77,133.49,589,132.68Z"/><path class="cls-9" d="M536.24,137.59c.08.38.17.76.26,1.14a12.54,12.54,0,0,1,1-.83C537.05,137.81,536.64,137.7,536.24,137.59Z"/><polygon class="cls-10" points="546.17 133.39 546.14 133.4 546.15 133.42 546.17 133.39"/><path class="cls-10" d="M584.36,162.82v75.41a63.22,63.22,0,0,1-55.53-15.1V200.48l.49-.42a20.5,20.5,0,0,1,20.5-3.11c.48-.48.94-1,1.38-1.51a20.45,20.45,0,0,0,4.66-12.08c0-.32,0-.64,0-1a20.49,20.49,0,0,0-27-19.42v-5.43a35.25,35.25,0,0,0,18.9.16l.66.13a34.81,34.81,0,0,0,16,7.34,6.27,6.27,0,1,0,10.45.22h0A36.15,36.15,0,0,0,584.36,162.82Z"/><path class="cls-10" d="M537.44,142c-.36-1.07-.68-2.16-.94-3.26a23.41,23.41,0,0,0-4.77,6.05,27.93,27.93,0,0,0,4.66-2.15C536.75,142.43,537.1,142.21,537.44,142Z"/><path class="cls-10" d="M586.94,134.69a50.95,50.95,0,0,0-14.51-2.13h-.09a35.64,35.64,0,0,1-4.09,9.71A30.39,30.39,0,0,0,586.94,134.69Z"/><path class="cls-10" d="M547.73,157.7l.66.13-.29-.23Z"/><path class="cls-10" d="M546.15,133.42a29.25,29.25,0,0,0,5.16,4.26,29.14,29.14,0,0,0,10.34-5.12h-9.27a23.62,23.62,0,0,0-6.21.83h0Z"/><path class="cls-10" d="M528.83,156.11v1.43a35.25,35.25,0,0,0,18.9.16,35.16,35.16,0,0,1-17.49-9.61A23.4,23.4,0,0,0,528.83,156.11Z"/><path class="cls-10" d="M553.67,139.05a28.78,28.78,0,0,0,14.58,3.22,35.64,35.64,0,0,0,4.09-9.71H561.65a29.14,29.14,0,0,1-10.34,5.12C552.07,138.17,552.86,138.63,553.67,139.05Z"/><path class="cls-10" d="M537.44,142c-.34.22-.69.44-1.05.64a27.93,27.93,0,0,1-4.66,2.15,22.92,22.92,0,0,0-1.49,3.31,35.16,35.16,0,0,0,17.49,9.61l.37-.1A35.18,35.18,0,0,1,537.44,142Z"/><path class="cls-10" d="M546.15,133.42v0a23.41,23.41,0,0,0-8.69,4.5,28.93,28.93,0,0,0,4.41.66A28.36,28.36,0,0,0,546.15,133.42Z"/><path class="cls-10" d="M555,158.47a34.61,34.61,0,0,1-6.64-.64,34.81,34.81,0,0,0,16,7.34h0a6.25,6.25,0,0,1,10.45.22h0a36.15,36.15,0,0,0,9.5-2.57v-6.43a23.49,23.49,0,0,1,9.63-19,50.24,50.24,0,0,0-5.79-2.31A35.63,35.63,0,0,1,555,158.47Z"/><path class="cls-10" d="M541.86,138.56a28.93,28.93,0,0,1-4.41-.66,12.54,12.54,0,0,0-1,.83c.26,1.1.58,2.19.94,3.26A27.74,27.74,0,0,0,541.86,138.56Z"/><path class="cls-10" d="M555.9,154.31a35.28,35.28,0,0,1-7.8,3.29l.29.23a34.61,34.61,0,0,0,6.64.64,35.63,35.63,0,0,0,33.17-23.38c-.42-.14-.84-.28-1.26-.4a30.39,30.39,0,0,1-18.69,7.58A34.71,34.71,0,0,1,555.9,154.31Z"/><path class="cls-10" d="M543.93,138.63a28.93,28.93,0,0,0,7.38-.95,29.25,29.25,0,0,1-5.16-4.26,28.36,28.36,0,0,1-4.29,5.14C542.54,138.61,543.23,138.63,543.93,138.63Z"/><path class="cls-10" d="M541.86,138.56a27.74,27.74,0,0,1-4.42,3.43A35.18,35.18,0,0,0,548.1,157.6a35.28,35.28,0,0,0,7.8-3.29,34.71,34.71,0,0,0,12.35-12,28.78,28.78,0,0,1-14.58-3.22c-.81-.42-1.6-.88-2.36-1.37a28.93,28.93,0,0,1-7.38.95C543.23,138.63,542.54,138.61,541.86,138.56Z"/><path class="cls-11" d="M514.88,182.39a20.52,20.52,0,0,0,12.91,19.05,13.43,13.43,0,0,1,1-1V163A20.49,20.49,0,0,0,514.88,182.39Z"/><path class="cls-11" d="M529.32,200.06a20.5,20.5,0,0,1,20.3-17.67,20.19,20.19,0,0,1,4.82.58c.48.11,1,.24,1.42.39,0-.32,0-.64,0-1A20.49,20.49,0,0,0,528.83,163v37.51Z"/><path class="cls-12" d="M529.32,200.06a20.53,20.53,0,0,1,2.42-7.19,20.53,20.53,0,0,0-2.42,7.19,20.5,20.5,0,0,1,20.5-3.11h0a20.5,20.5,0,0,0-20.5,3.11Z"/><path class="cls-12" d="M555.86,183.36a20.42,20.42,0,0,1-4.66,12.08,20.42,20.42,0,0,0,4.66-12.08c-.46-.15-.94-.28-1.42-.39C554.92,183.08,555.39,183.21,555.86,183.36Z"/><path class="cls-13" d="M549.82,197c.48-.48.94-1,1.38-1.51-.44.52-.9,1-1.38,1.51Z"/><path class="cls-13" d="M549.62,182.39a20.19,20.19,0,0,1,4.82.58,20.19,20.19,0,0,0-4.82-.58,20.49,20.49,0,0,0-17.88,10.48A20.49,20.49,0,0,1,549.62,182.39Z"/><path class="cls-13" d="M554.44,183a20.19,20.19,0,0,0-4.82-.58,20.5,20.5,0,0,0-20.3,17.67,20.5,20.5,0,0,1,20.5-3.11c.48-.48.94-1,1.38-1.51a20.42,20.42,0,0,0,4.66-12.08C555.39,183.21,554.92,183.08,554.44,183Z"/><path class="cls-14" d="M564.4,165.17a6.26,6.26,0,0,0,5.15,9.82,6.25,6.25,0,0,0,5.3-9.6A34.58,34.58,0,0,1,564.4,165.17Z"/><path class="cls-14" d="M569.55,162.46a6.25,6.25,0,0,0-5.15,2.71,34.58,34.58,0,0,0,10.45.22A6.25,6.25,0,0,0,569.55,162.46Z"/><path class="cls-15" d="M616.21,157.52c.17.3.35.6.52.91C616.56,158.12,616.38,157.82,616.21,157.52Z"/><path class="cls-15" d="M608.72,147.71l.77.81Z"/><path class="cls-15" d="M607.44,146.45l.91.89Z"/><path class="cls-15" d="M612.22,151.69l.69.89Z"/><path class="cls-15" d="M623.06,181.24l0-.59c0-.37,0-.75-.06-1.12,0-.21,0-.43,0-.64,0-.37-.07-.74-.11-1.11,0-.07,0-.13,0-.19a1.1,1.1,0,0,0,0-.18.52.52,0,0,1-.5.43h-7.49a.53.53,0,0,1-.53-.53v-.65a.53.53,0,0,1,.53-.53h7.49a.48.48,0,0,1,.36.15c0-.22,0-.45-.08-.67s0-.21,0-.31c-.07-.46-.14-.91-.22-1.37,0-.2-.08-.4-.12-.6l-.21-1a1.24,1.24,0,0,0,0-.16h-7.13a.52.52,0,0,1-.53-.52V171a.53.53,0,0,1,.53-.53h6.73l-.1-.38c-.13-.51-.27-1-.42-1.52l-.12-.38c-.12-.39-.25-.78-.38-1.17l-.18-.53h-5.53a.53.53,0,0,1-.53-.53v-.66a.52.52,0,0,1,.53-.52h4.9c-.11-.3-.23-.59-.34-.88s-.15-.37-.24-.56c-.2-.47-.4-.94-.62-1.41-.06-.14-.13-.27-.19-.41s-.23-.48-.36-.73h-3.15a.53.53,0,0,1-.53-.53v-.65a.53.53,0,0,1,.53-.53h2.27l0,0-.31-.57c-.17-.31-.35-.61-.52-.91s-.19-.32-.29-.48c-.26-.45-.54-.89-.81-1.32l-.24-.35c-.07-.12-.15-.23-.22-.34a.53.53,0,0,1-.39-.5v-.07a.18.18,0,0,0,0-.07,5.36,5.36,0,0,0-.34-.49l-.6-.84-.36-.48-.69-.89-.29-.37-.25-.3a.54.54,0,0,1-.22,0H604a.53.53,0,0,1-.53-.53v-.65a.53.53,0,0,1,.53-.53h6.28l-.4-.45-.36-.39q-.37-.41-.78-.81l-.35-.36-.92-.9c-.08-.07-.15-.15-.24-.22l-.46-.43a1.59,1.59,0,0,0-.13-.13.8.8,0,0,1-.17-.15l-.17-.15H604a.52.52,0,0,1-.53-.52v-.34c-.17.37-.36.73-.54,1.09-.37.71-.76,1.39-1.17,2.06v0a.52.52,0,0,1-.3.47,38.35,38.35,0,0,1-2.9,4h2.68a.52.52,0,0,1,.52.53v.65a.52.52,0,0,1-.52.53H597a37,37,0,0,1-8.56,6.83h3a.53.53,0,0,1,.53.53v.65a.53.53,0,0,1-.53.53h-6.36l-.51.24v3.75h6.87a.52.52,0,0,1,.53.52v.66a.52.52,0,0,1-.53.52h-6.87v4h6.87a.53.53,0,0,1,.53.53v.65a.53.53,0,0,1-.53.53h-6.87v4h6.87a.52.52,0,0,1,.53.52V179a.53.53,0,0,1-.53.53h-6.87v4h6.87a.53.53,0,0,1,.53.53v.65a.53.53,0,0,1-.53.53h-6.87v4h6.87a.53.53,0,0,1,.53.53v.65a.52.52,0,0,1-.53.52h-6.87v4h6.87a.53.53,0,0,1,.53.53v.65a.53.53,0,0,1-.53.53h-6.87v4h6.87a.52.52,0,0,1,.53.52v.66a.53.53,0,0,1-.53.53h-6.87v4h6.87a.53.53,0,0,1,.53.53v.66a.52.52,0,0,1-.53.52h-6.87v4h6.87a.53.53,0,0,1,.53.53v.65a.53.53,0,0,1-.53.53h-6.87v4h6.87a.53.53,0,0,1,.53.53v.65a.53.53,0,0,1-.53.53h-6.87v4h6.87a.52.52,0,0,1,.53.52v.66a.53.53,0,0,1-.53.53h-6.87v4h6.87a.53.53,0,0,1,.53.53v.66a.52.52,0,0,1-.53.52h-6.87v4h6.87a.53.53,0,0,1,.53.53V236a.28.28,0,0,1,0,.13,62.15,62.15,0,0,0,6-2.45h-4.33a.52.52,0,0,1-.52-.53v-.65a.52.52,0,0,1,.52-.53h7.5l.15,0c.77-.41,1.53-.85,2.28-1.29a.52.52,0,0,1-.2-.4v-.66a.53.53,0,0,1,.53-.53h2.18a62,62,0,0,0,5.38-4l-.07,0H604a.53.53,0,0,1-.53-.53v-.66a.52.52,0,0,1,.53-.52h7.49a.52.52,0,0,1,.52.52v.66a.41.41,0,0,1,0,.16c.79-.66,1.56-1.35,2.31-2v-.49a.53.53,0,0,1,.53-.52h.53c1.3-1.27,2.56-2.61,3.75-4h-4.28a.52.52,0,0,1-.53-.52v-.66a.53.53,0,0,1,.53-.53h5.7c.91-1.12,1.77-2.27,2.6-3.46V182.81C623.08,182.28,623.08,181.77,623.06,181.24Zm-21.33,46.19a.52.52,0,0,1-.52.52h-7.5a.52.52,0,0,1-.52-.52v-.66a.52.52,0,0,1,.52-.52h7.5a.52.52,0,0,1,.52.52Zm0-5.7a.52.52,0,0,1-.52.53h-7.5a.52.52,0,0,1-.52-.53v-.65a.52.52,0,0,1,.52-.53h7.5a.52.52,0,0,1,.52.53Zm0-5.69a.52.52,0,0,1-.52.53h-7.5a.52.52,0,0,1-.52-.53v-.66a.52.52,0,0,1,.52-.53h7.5a.52.52,0,0,1,.52.53Zm0-5.7a.52.52,0,0,1-.52.53h-7.5a.52.52,0,0,1-.52-.53v-.65a.52.52,0,0,1,.52-.53h7.5a.52.52,0,0,1,.52.53Zm0-5.69a.52.52,0,0,1-.52.52h-7.5a.52.52,0,0,1-.52-.52V204a.52.52,0,0,1,.52-.52h7.5a.52.52,0,0,1,.52.52Zm0-5.7a.52.52,0,0,1-.52.53h-7.5a.52.52,0,0,1-.52-.53v-.65a.52.52,0,0,1,.52-.53h7.5a.52.52,0,0,1,.52.53Zm0-5.69a.52.52,0,0,1-.52.52h-7.5a.52.52,0,0,1-.52-.52v-.66a.52.52,0,0,1,.52-.53h7.5a.52.52,0,0,1,.52.53Zm0-5.7a.52.52,0,0,1-.52.53h-7.5a.52.52,0,0,1-.52-.53v-.65a.52.52,0,0,1,.52-.53h7.5a.52.52,0,0,1,.52.53Zm0-5.69a.52.52,0,0,1-.52.52h-7.5a.52.52,0,0,1-.52-.52v-.66a.52.52,0,0,1,.52-.52h7.5a.52.52,0,0,1,.52.52Zm0-5.7a.52.52,0,0,1-.52.53h-7.5a.52.52,0,0,1-.52-.53v-.65a.52.52,0,0,1,.52-.53h7.5a.52.52,0,0,1,.52.53Zm0-5.69a.52.52,0,0,1-.52.52h-7.5a.52.52,0,0,1-.52-.52v-.66a.52.52,0,0,1,.52-.53h7.5a.52.52,0,0,1,.52.53Zm0-5.7a.52.52,0,0,1-.52.53h-7.5a.52.52,0,0,1-.52-.53v-.66a.52.52,0,0,1,.52-.52h7.5a.52.52,0,0,1,.52.52Zm0-5.7a.52.52,0,0,1-.52.53h-7.5a.52.52,0,0,1-.52-.53v-.65a.52.52,0,0,1,.52-.53h7.5a.52.52,0,0,1,.52.53ZM612,218.88a.52.52,0,0,1-.52.53H604a.53.53,0,0,1-.53-.53v-.65a.53.53,0,0,1,.53-.53h7.49a.52.52,0,0,1,.52.53Zm0-5.69a.52.52,0,0,1-.52.53H604a.53.53,0,0,1-.53-.53v-.65A.53.53,0,0,1,604,212h7.49a.52.52,0,0,1,.52.53Zm0-5.69a.52.52,0,0,1-.52.52H604a.52.52,0,0,1-.53-.52v-.66a.53.53,0,0,1,.53-.53h7.49a.52.52,0,0,1,.52.53Zm0-5.7a.52.52,0,0,1-.52.53H604a.53.53,0,0,1-.53-.53v-.66a.52.52,0,0,1,.53-.52h7.49a.52.52,0,0,1,.52.52Zm0-5.7a.52.52,0,0,1-.52.53H604a.53.53,0,0,1-.53-.53v-.65a.53.53,0,0,1,.53-.53h7.49a.52.52,0,0,1,.52.53Zm0-5.69a.52.52,0,0,1-.52.52H604a.52.52,0,0,1-.53-.52v-.65a.53.53,0,0,1,.53-.53h7.49a.52.52,0,0,1,.52.53Zm0-5.7a.52.52,0,0,1-.52.53H604a.53.53,0,0,1-.53-.53v-.65a.53.53,0,0,1,.53-.53h7.49a.52.52,0,0,1,.52.53Zm0-5.69a.52.52,0,0,1-.52.53H604a.53.53,0,0,1-.53-.53v-.66a.52.52,0,0,1,.53-.52h7.49a.52.52,0,0,1,.52.52Zm0-5.7a.52.52,0,0,1-.52.53H604a.53.53,0,0,1-.53-.53v-.65a.53.53,0,0,1,.53-.53h7.49a.52.52,0,0,1,.52.53Zm0-5.69a.52.52,0,0,1-.52.52H604a.52.52,0,0,1-.53-.52V167a.52.52,0,0,1,.53-.52h7.49a.52.52,0,0,1,.52.52Zm0-5.7a.52.52,0,0,1-.52.53H604a.53.53,0,0,1-.53-.53v-.65a.53.53,0,0,1,.53-.53h7.49a.52.52,0,0,1,.52.53Zm0-5.69a.52.52,0,0,1-.52.53H604a.53.53,0,0,1-.53-.53v-.66a.54.54,0,0,1,.53-.53h7.49a.53.53,0,0,1,.52.53Zm10.82,55.24a.52.52,0,0,1-.52.53h-7.49a.53.53,0,0,1-.53-.53v-.65a.53.53,0,0,1,.53-.53h7.49a.52.52,0,0,1,.52.53Zm0-5.69a.52.52,0,0,1-.52.52h-7.49a.52.52,0,0,1-.53-.52v-.66a.52.52,0,0,1,.53-.52h7.49a.52.52,0,0,1,.52.52Zm0-5.7a.52.52,0,0,1-.52.53h-7.49a.53.53,0,0,1-.53-.53v-.65a.53.53,0,0,1,.53-.53h7.49a.52.52,0,0,1,.52.53Zm0-5.69a.52.52,0,0,1-.52.52h-7.49a.52.52,0,0,1-.53-.52v-.66a.53.53,0,0,1,.53-.53h7.49a.52.52,0,0,1,.52.53Zm0-5.7a.52.52,0,0,1-.52.53h-7.49a.53.53,0,0,1-.53-.53V188a.52.52,0,0,1,.53-.52h7.49a.52.52,0,0,1,.52.52Zm0-5.7a.52.52,0,0,1-.52.53h-7.49a.53.53,0,0,1-.53-.53v-.65a.53.53,0,0,1,.53-.53h7.49a.52.52,0,0,1,.52.53Z"/><path class="cls-15" d="M621,168.53c.15.5.29,1,.42,1.52C621.29,169.54,621.15,169,621,168.53Z"/><path class="cls-15" d="M613.27,153.06l.6.84Z"/><path class="cls-15" d="M618.49,161.89c.22.46.42.94.63,1.41C618.91,162.83,618.71,162.35,618.49,161.89Z"/><path class="cls-15" d="M604.76,144.08c.36.29.72.6,1.07.9C605.48,144.68,605.12,144.37,604.76,144.08Z"/><path class="cls-15" d="M615.11,155.72q.42.65.81,1.32Q615.53,156.37,615.11,155.72Z"/><path class="cls-15" d="M620,165.43c.11.32.23.63.34.94C620.19,166.06,620.07,165.75,620,165.43Z"/><path class="cls-15" d="M622.76,177.19c-.06-.53-.12-1.05-.2-1.58,0,.22.06.45.08.67S622.73,176.89,622.76,177.19Z"/><path class="cls-15" d="M620.5,167c.13.39.26.78.38,1.17C620.76,167.76,620.63,167.37,620.5,167Z"/><path class="cls-15" d="M618.3,161.48c-.17-.35-.33-.7-.51-1l.15.31Z"/><path class="cls-15" d="M604.25,143.67l.18.14-.48-.4h0Z"/><path class="cls-15" d="M604.25,143.67l-.31-.25-.12.28a.33.33,0,0,1,.15,0Z"/><path class="cls-15" d="M619.72,164.81c-.12-.32-.25-.63-.38-.95.12.29.24.58.35.88Z"/><path class="cls-15" d="M617.5,159.87c-.15-.29-.3-.58-.46-.87l0,0C617.21,159.32,617.36,159.59,617.5,159.87Z"/><path class="cls-15" d="M610.7,149.85c-.28-.32-.57-.63-.85-.94l.41.45C610.4,149.53,610.55,149.69,610.7,149.85Z"/><path class="cls-15" d="M611.93,151.32c-.33-.41-.67-.82-1-1.21.25.3.51.6.76.91Z"/><path class="cls-15" d="M607.21,146.23c-.4-.38-.8-.74-1.21-1.1l.27.24Z"/><path class="cls-15" d="M623,179.53c0,.37,0,.75.06,1.12C623,180.28,623,179.9,623,179.53Z"/><polygon class="cls-15" points="584.65 234.79 584.65 230.8 584.65 229.09 584.65 225.11 584.65 223.4 584.65 219.41 584.65 217.7 584.65 213.72 584.65 212.01 584.65 208.02 584.65 206.31 584.65 202.33 584.65 200.62 584.65 196.63 584.65 194.92 584.65 190.94 584.65 189.23 584.65 185.24 584.65 183.53 584.65 179.54 584.65 177.84 584.65 173.85 584.65 172.14 584.65 168.16 584.65 166.45 584.65 162.69 584.64 162.69 584.64 238.17 584.65 238.17 584.65 236.5 584.65 234.79"/><path class="cls-15" d="M621.57,170.63c.08.34.17.69.25,1C621.74,171.32,621.65,171,621.57,170.63Z"/><path class="cls-15" d="M622.82,177.78c0,.37.07.74.1,1.11C622.89,178.52,622.86,178.15,622.82,177.78Z"/><path class="cls-15" d="M623.06,181.25q0,.76,0,1.56Q623.09,182,623.06,181.25Z"/><path class="cls-15" d="M622,172.3l.21,1Z"/><path class="cls-15" d="M622.28,173.94c.09.45.16.9.23,1.36C622.44,174.84,622.37,174.39,622.28,173.94Z"/><path class="cls-15" d="M614.65,155c.07.11.15.22.22.34-.21-.33-.43-.66-.65-1a.43.43,0,0,1,0,.07C614.39,154.64,614.52,154.84,614.65,155Z"/><path class="cls-15" d="M584.65,162.46v-6.07c0-.45,0-.89,0-1.33a22.7,22.7,0,0,1,.57-4c.13-.58.28-1.15.46-1.71a22.57,22.57,0,0,1,1.67-4c.31-.58.64-1.15,1-1.7a23.79,23.79,0,0,1,3.26-4l.37-.36.21-.21a23.51,23.51,0,0,0-7.58,17.31v6.31h0Z"/><path class="cls-15" d="M594.28,137.4h0l1.43.71Z"/><path class="cls-15" d="M602.12,142l1,.72Z"/><path class="cls-15" d="M584.65,162.69l.51-.23h-.51Z"/><path class="cls-15" d="M591.65,139.65a23.79,23.79,0,0,0-3.26,4h3.13a.52.52,0,0,1,.53.52v.66a.52.52,0,0,1-.53.52h-4.13a22.57,22.57,0,0,0-1.67,4h5.8a.53.53,0,0,1,.53.53v.65a.53.53,0,0,1-.53.53h-6.26a22.7,22.7,0,0,0-.57,4h6.83a.52.52,0,0,1,.53.52v.66a.52.52,0,0,1-.53.52h-6.87v4h3.84a37.13,37.13,0,0,0,8.55-6.83h-3.32a.53.53,0,0,1-.53-.53v-.65a.53.53,0,0,1,.53-.53h4.81a39.42,39.42,0,0,0,2.9-4,.54.54,0,0,1-.22.05h-7.49a.53.53,0,0,1-.53-.52V147a.53.53,0,0,1,.53-.53h7.49a.52.52,0,0,1,.52.53v.62c.41-.67.8-1.35,1.17-2.06.19-.36.37-.72.54-1.09v-.32a.51.51,0,0,1,.38-.49l.12-.28-.46-.37-.38-.29-1-.72-.35-.26,0,0V142a.52.52,0,0,1-.52.53h-7.49a.53.53,0,0,1-.53-.53v-.66a.53.53,0,0,1,.53-.52h6.63l-.28-.18c-.32-.21-.63-.41-1-.6l-.58-.35-.81-.48-.61-.34-.87-.47-.54-.29-1.43-.71a23.79,23.79,0,0,0-2,1.68l-.21.21A.5.5,0,0,1,591.65,139.65Z"/><path class="cls-15" d="M599.12,140c.32.19.63.39,1,.6C599.75,140.43,599.44,140.23,599.12,140Z"/><path class="cls-15" d="M596.25,138.4l.87.47Z"/><path class="cls-15" d="M601.77,141.78l-1.31-.89,1.27.87Z"/><path class="cls-15" d="M604,143.41l-.47-.36.46.37Z"/><path class="cls-15" d="M597.73,139.21l.81.48Z"/><rect class="cls-16" x="603.44" y="160.75" width="8.54" height="1.71" rx="0.53"/><rect class="cls-16" x="603.44" y="166.45" width="8.54" height="1.71" rx="0.53"/><rect class="cls-16" x="603.44" y="172.14" width="8.54" height="1.71" rx="0.53"/><path class="cls-16" d="M604.43,143.81l.33.27Z"/><path class="cls-16" d="M605.83,145l.17.15Z"/><path class="cls-16" d="M604,143.67a.33.33,0,0,0-.15,0l-.38.81v.34a.52.52,0,0,0,.53.52h2.3l-.27-.24-.17-.15c-.35-.3-.71-.61-1.07-.9l-.33-.27-.18-.14Z"/><path class="cls-16" d="M603.44,144.19v.32l.38-.81A.51.51,0,0,0,603.44,144.19Z"/><path class="cls-16" d="M610.7,149.85l.22.26Z"/><path class="cls-16" d="M604,149.36a.53.53,0,0,0-.53.53v.65a.53.53,0,0,0,.53.53h7.49a.54.54,0,0,0,.22,0c-.25-.31-.51-.61-.76-.91l-.22-.26c-.15-.16-.3-.32-.44-.49Z"/><rect class="cls-16" x="603.44" y="155.06" width="8.54" height="1.71" rx="0.53"/><rect class="cls-16" x="603.44" y="177.84" width="8.54" height="1.71" rx="0.53"/><rect class="cls-16" x="603.44" y="183.53" width="8.54" height="1.71" rx="0.53"/><rect class="cls-16" x="603.44" y="189.23" width="8.54" height="1.71" rx="0.53"/><rect class="cls-16" x="603.44" y="194.92" width="8.54" height="1.71" rx="0.53"/><rect class="cls-16" x="603.44" y="200.62" width="8.54" height="1.71" rx="0.53"/><rect class="cls-16" x="603.44" y="206.31" width="8.54" height="1.71" rx="0.53"/><rect class="cls-16" x="603.44" y="212.01" width="8.54" height="1.71" rx="0.53"/><rect class="cls-16" x="603.44" y="217.7" width="8.54" height="1.71" rx="0.53"/><path class="cls-16" d="M612,224.74a.51.51,0,0,1-.42.35Z"/><path class="cls-16" d="M612,224.58v-.65a.52.52,0,0,0-.52-.53H604a.53.53,0,0,0-.53.53v.65a.53.53,0,0,0,.53.53h7.49l.07,0,.42-.35A.41.41,0,0,0,612,224.58Z"/><path class="cls-16" d="M606.15,229.09c-.82.55-1.66,1.08-2.51,1.59a.52.52,0,0,1-.2-.4v-.66a.53.53,0,0,1,.53-.53Z"/><path class="cls-16" d="M619.72,164.81l.24.62Z"/><path class="cls-16" d="M620.32,166.45l0-.08,0,.08Z"/><path class="cls-16" d="M614.79,164.74a.52.52,0,0,0-.53.52v.66a.53.53,0,0,0,.53.53h5.53l0-.08c-.11-.31-.23-.62-.34-.94l-.24-.62,0-.07Z"/><path class="cls-16" d="M621.57,170.63c0-.06,0-.13-.05-.2h0C621.54,170.5,621.55,170.57,621.57,170.63Z"/><path class="cls-16" d="M621.93,172.14c0-.16-.08-.32-.11-.48,0,.16.07.32.1.48Z"/><path class="cls-16" d="M614.79,170.43a.53.53,0,0,0-.53.53v.66a.53.53,0,0,0,.53.52h7.13c0-.16-.07-.32-.1-.48-.08-.34-.17-.69-.25-1,0-.06,0-.13-.05-.2Z"/><path class="cls-16" d="M622.79,177.4l0-.21a1.8,1.8,0,0,1,0,.22Z"/><path class="cls-16" d="M622.28,176.13h-7.49a.53.53,0,0,0-.53.53v.65a.53.53,0,0,0,.53.53h7.49a.51.51,0,0,0,.5-.43,1.8,1.8,0,0,0,0-.22c0-.3-.08-.61-.12-.91A.51.51,0,0,0,622.28,176.13Z"/><path class="cls-16" d="M614.26,154.53a.53.53,0,0,0,.39.5c-.13-.19-.26-.39-.39-.57Z"/><path class="cls-16" d="M617.5,159.87c.1.19.2.38.29.57C617.7,160.25,617.6,160.06,617.5,159.87Z"/><path class="cls-16" d="M614.79,159a.53.53,0,0,0-.53.53v.65a.53.53,0,0,0,.53.53h3.15l-.15-.31c-.09-.19-.19-.38-.29-.57s-.29-.55-.44-.83Z"/><rect class="cls-16" x="614.26" y="181.82" width="8.54" height="1.71" rx="0.53"/><rect class="cls-16" x="614.26" y="187.52" width="8.54" height="1.71" rx="0.53"/><rect class="cls-16" x="614.26" y="193.21" width="8.54" height="1.71" rx="0.53"/><rect class="cls-16" x="614.26" y="198.91" width="8.54" height="1.71" rx="0.53"/><rect class="cls-16" x="614.26" y="204.6" width="8.54" height="1.71" rx="0.53"/><rect class="cls-16" x="614.26" y="210.3" width="8.54" height="1.71" rx="0.53"/><path class="cls-16" d="M620.49,216c-.46.58-.94,1.15-1.42,1.71h-4.28a.52.52,0,0,1-.53-.52v-.66a.53.53,0,0,1,.53-.53Z"/><path class="cls-16" d="M615.32,221.69l-1.06,1v-.49a.53.53,0,0,1,.53-.52Z"/><rect class="cls-16" x="593.19" y="157.9" width="8.54" height="1.71" rx="0.53"/><rect class="cls-16" x="593.19" y="163.6" width="8.54" height="1.71" rx="0.53"/><rect class="cls-16" x="593.19" y="169.29" width="8.54" height="1.71" rx="0.53"/><path class="cls-16" d="M600.46,140.89l-.11-.07h0Z"/><path class="cls-16" d="M593.72,140.82a.53.53,0,0,0-.53.52V142a.53.53,0,0,0,.53.53h7.49a.52.52,0,0,0,.52-.53v-.24l-1.27-.87-.11-.07Z"/><path class="cls-16" d="M601.73,147.7v0l-.3.51A.52.52,0,0,0,601.73,147.7Z"/><path class="cls-16" d="M601.21,146.51h-7.49a.53.53,0,0,0-.53.53v.66a.53.53,0,0,0,.53.52h7.49a.54.54,0,0,0,.22-.05l.3-.51V147A.52.52,0,0,0,601.21,146.51Z"/><path class="cls-16" d="M601.21,153.92a.52.52,0,0,0,.52-.53v-.65a.52.52,0,0,0-.52-.53h-2.68c-.48.59-1,1.15-1.49,1.71Z"/><path class="cls-16" d="M593.19,152.74v.65a.53.53,0,0,0,.53.53H597c.51-.56,1-1.12,1.49-1.71h-4.81A.53.53,0,0,0,593.19,152.74Z"/><rect class="cls-16" x="593.19" y="174.99" width="8.54" height="1.71" rx="0.53"/><rect class="cls-16" x="593.19" y="180.68" width="8.54" height="1.71" rx="0.53"/><rect class="cls-16" x="593.19" y="186.38" width="8.54" height="1.71" rx="0.53"/><rect class="cls-16" x="593.19" y="192.07" width="8.54" height="1.71" rx="0.53"/><rect class="cls-16" x="593.19" y="197.77" width="8.54" height="1.71" rx="0.53"/><rect class="cls-16" x="593.19" y="203.47" width="8.54" height="1.71" rx="0.53"/><rect class="cls-16" x="593.19" y="209.16" width="8.54" height="1.71" rx="0.53"/><rect class="cls-16" x="593.19" y="214.86" width="8.54" height="1.71" rx="0.53"/><rect class="cls-16" x="593.19" y="220.55" width="8.54" height="1.71" rx="0.53"/><rect class="cls-16" x="593.19" y="226.25" width="8.54" height="1.71" rx="0.53"/><path class="cls-16" d="M592.05,150.54v-.65a.53.53,0,0,0-.53-.53h-5.8c-.18.56-.33,1.13-.46,1.71h6.26A.53.53,0,0,0,592.05,150.54Z"/><path class="cls-16" d="M592.05,156.24v-.66a.52.52,0,0,0-.53-.52h-6.83c0,.44,0,.88,0,1.33v.37h6.87A.52.52,0,0,0,592.05,156.24Z"/><path class="cls-16" d="M591.52,162.46a.53.53,0,0,0,.53-.53v-.65a.53.53,0,0,0-.53-.53h-3a37.38,37.38,0,0,1-3.33,1.71Z"/><path class="cls-16" d="M584.65,162.46h.51a37.38,37.38,0,0,0,3.33-1.71h-3.84Z"/><path class="cls-16" d="M592,139.29l-.37.36A.5.5,0,0,0,592,139.29Z"/><path class="cls-16" d="M592.05,144.85v-.66a.52.52,0,0,0-.53-.52h-3.13c-.36.55-.69,1.12-1,1.7h4.13A.52.52,0,0,0,592.05,144.85Z"/><path class="cls-16" d="M591.52,168.16a.53.53,0,0,0,.53-.53V167a.52.52,0,0,0-.53-.52h-6.87v1.71Z"/><path class="cls-16" d="M591.52,173.85a.53.53,0,0,0,.53-.53v-.65a.53.53,0,0,0-.53-.53h-6.87v1.71Z"/><path class="cls-16" d="M591.52,179.55a.53.53,0,0,0,.53-.53v-.66a.52.52,0,0,0-.53-.52h-6.87v1.71Z"/><path class="cls-16" d="M591.52,185.24a.53.53,0,0,0,.53-.53v-.65a.53.53,0,0,0-.53-.53h-6.87v1.71Z"/><path class="cls-16" d="M591.52,190.94a.53.53,0,0,0,.53-.53v-.66a.52.52,0,0,0-.53-.52h-6.87v1.71Z"/><path class="cls-16" d="M591.52,196.63a.53.53,0,0,0,.53-.53v-.65a.53.53,0,0,0-.53-.53h-6.87v1.71Z"/><path class="cls-16" d="M591.52,202.33a.53.53,0,0,0,.53-.53v-.66a.52.52,0,0,0-.53-.52h-6.87v1.71Z"/><path class="cls-16" d="M591.52,208a.53.53,0,0,0,.53-.53v-.65a.53.53,0,0,0-.53-.53h-6.87V208Z"/><path class="cls-16" d="M591.52,213.72a.53.53,0,0,0,.53-.53v-.66a.52.52,0,0,0-.53-.52h-6.87v1.71Z"/><path class="cls-16" d="M591.52,219.41a.53.53,0,0,0,.53-.52v-.66a.53.53,0,0,0-.53-.53h-6.87v1.71Z"/><path class="cls-16" d="M591.52,225.11a.53.53,0,0,0,.53-.53v-.65a.53.53,0,0,0-.53-.53h-6.87v1.71Z"/><path class="cls-16" d="M591.52,230.8a.52.52,0,0,0,.53-.52v-.66a.53.53,0,0,0-.53-.53h-6.87v1.71Z"/><path class="cls-7" d="M93.91,194.94V187.6H86.58V158.25h7.33v-7.33h29.35v7.33h7.34V187.6h-7.34v7.34Zm22-7.34V158.25H101.25V187.6Z"/><path class="cls-7" d="M152.61,194.94V187.6h-7.33V158.25h7.33v-7.33H182v7.33h7.34V187.6H182v7.34Zm22-7.34V158.25H160V187.6Z"/><path class="cls-7" d="M211.31,172.93V158.25H226v14.68Zm0,22V180.27H226v14.67Z"/><path class="cls-7" d="M292,194.94V187.6h22V172.93H299.37v-7.34H314v-7.34H292v-7.33h36.69v7.33h7.33v7.34h-7.33v7.34h7.33V187.6h-7.33v7.34Z"/><path class="cls-7" d="M358.07,194.94V187.6h-7.34V158.25h7.34v-7.33h29.35v7.33h7.33V187.6h-7.33v7.34Zm22-7.34V158.25H365.4V187.6Z"/><g class="cls-17"><polygon class="cls-18" points="407.12 1026.03 86.49 752.76 216.46 372.64 648.45 749.13 407.12 1026.03"/><polygon class="cls-19" points="350.2 754.6 82.29 754.6 82.29 516.46 216.25 427.15 350.2 516.46 350.2 754.6"/><path class="cls-20" d="M214.76,665.3c-33,0-63-25.24-66.62-57.55a67,67,0,1,0,133.59,6.94,69.2,69.2,0,0,0-.35-6.94C277.8,640.06,247.78,665.3,214.76,665.3Z"/><path class="cls-6" d="M214.76,665.3c33,0,63-25.24,66.62-57.55,0-36.22-32-63-66.62-63s-66.62,26.79-66.62,63C151.71,640.06,181.74,665.3,214.76,665.3Z"/><path class="cls-20" d="M99,574.63l135.08-131.1-17.86-43.17-134,131v36.21A9.87,9.87,0,0,0,99,574.63Z"/><rect class="cls-7" x="37.68" y="445.25" width="223.47" height="38.19" rx="10" transform="translate(583.41 687.04) rotate(135)"/><rect class="cls-7" x="170.15" y="445.25" width="223.47" height="38.19" rx="10" transform="translate(152.86 992.01) rotate(-135)"/><polygon class="cls-18" points="729.14 1035.79 415.43 754.6 554.85 377.84 977.31 765 729.14 1035.79"/><polygon class="cls-19" points="683.34 754.6 415.43 754.6 415.43 516.46 549.38 427.15 683.34 516.46 683.34 754.6"/><path class="cls-20" d="M547.9,665.3c-33,0-63-25.24-66.62-57.55a67,67,0,1,0,133.59,6.94,69.2,69.2,0,0,0-.35-6.94C610.94,640.06,580.92,665.3,547.9,665.3Z"/><path class="cls-6" d="M547.9,665.3c33,0,63-25.24,66.62-57.55,0-36.22-32-63-66.62-63s-66.62,26.79-66.62,63C484.85,640.06,514.88,665.3,547.9,665.3Z"/><path class="cls-20" d="M432.17,574.63l135.08-131.1-17.86-43.17-134,131v36.21A9.87,9.87,0,0,0,432.17,574.63Z"/><rect class="cls-7" x="370.82" y="445.25" width="223.47" height="38.19" rx="10" transform="translate(1152.11 451.47) rotate(135)"/><rect class="cls-7" x="503.29" y="445.25" width="223.47" height="38.19" rx="10" transform="translate(721.56 1227.57) rotate(-135)"/><polygon class="cls-18" points="1068.74 1035.79 755.04 754.6 894.46 377.84 1316.91 765 1068.74 1035.79"/><polygon class="cls-19" points="1022.95 754.6 755.04 754.6 755.04 516.46 888.99 427.15 1022.95 516.46 1022.95 754.6"/><path class="cls-20" d="M887.5,665.3c-33,0-63-25.24-66.61-57.55a67,67,0,1,0,133.23,0C950.55,640.06,920.52,665.3,887.5,665.3Z"/><path class="cls-6" d="M887.5,665.3c33,0,63-25.24,66.62-57.55,0-36.22-32-63-66.62-63s-66.61,26.79-66.61,63C824.46,640.06,854.49,665.3,887.5,665.3Z"/><path class="cls-20" d="M771.78,574.63l135.07-131.1L889,400.36l-134,131v36.21A9.87,9.87,0,0,0,771.78,574.63Z"/><rect class="cls-7" x="710.43" y="445.25" width="223.47" height="38.19" rx="10" transform="translate(1731.86 211.33) rotate(135)"/><rect class="cls-7" x="842.89" y="445.25" width="223.47" height="38.19" rx="10" transform="translate(1301.31 1467.71) rotate(-135)"/><polygon class="cls-18" points="407.12 1484.63 86.49 1211.35 216.46 831.23 648.45 1207.72 407.12 1484.63"/><polygon class="cls-19" points="350.2 1213.19 82.29 1213.19 82.29 975.05 216.25 885.75 350.2 975.05 350.2 1213.19"/><path class="cls-20" d="M214.76,1123.89c-33,0-63-25.23-66.62-57.55a67,67,0,1,0,133.59,6.94,69.2,69.2,0,0,0-.35-6.94C277.8,1098.66,247.78,1123.89,214.76,1123.89Z"/><path class="cls-6" d="M214.76,1123.89c33,0,63-25.23,66.62-57.55,0-36.22-32-63-66.62-63s-66.62,26.79-66.62,63C151.71,1098.66,181.74,1123.89,214.76,1123.89Z"/><path class="cls-20" d="M99,1033.22l135.08-131.1L216.25,859l-134,131v36.2A9.87,9.87,0,0,0,99,1033.22Z"/><rect class="cls-7" x="37.68" y="903.84" width="223.47" height="38.19" rx="10" transform="translate(907.68 1469.9) rotate(135)"/><rect class="cls-7" x="170.15" y="903.84" width="223.47" height="38.19" rx="10" transform="translate(-171.42 1774.88) rotate(-135)"/><polygon class="cls-18" points="729.14 1494.38 415.43 1213.19 554.85 836.43 977.31 1223.59 729.14 1494.38"/><polygon class="cls-19" points="683.34 1213.19 415.43 1213.19 415.43 975.05 549.38 885.75 683.34 975.05 683.34 1213.19"/><path class="cls-20" d="M547.9,1123.89c-33,0-63-25.23-66.62-57.55a67,67,0,1,0,133.59,6.94,69.2,69.2,0,0,0-.35-6.94C610.94,1098.66,580.92,1123.89,547.9,1123.89Z"/><path class="cls-6" d="M547.9,1123.89c33,0,63-25.23,66.62-57.55,0-36.22-32-63-66.62-63s-66.62,26.79-66.62,63C484.85,1098.66,514.88,1123.89,547.9,1123.89Z"/><path class="cls-20" d="M432.17,1033.22l135.08-131.1L549.39,859l-134,131v36.2A9.87,9.87,0,0,0,432.17,1033.22Z"/><rect class="cls-7" x="370.82" y="903.84" width="223.47" height="38.19" rx="10" transform="translate(1476.39 1234.34) rotate(135)"/><rect class="cls-7" x="503.29" y="903.84" width="223.47" height="38.19" rx="10" transform="translate(397.29 2010.44) rotate(-135)"/><polygon class="cls-18" points="1068.74 1494.38 755.04 1213.19 894.46 836.43 1316.91 1223.59 1068.74 1494.38"/><polygon class="cls-19" points="1022.95 1213.19 755.04 1213.19 755.04 975.05 888.99 885.75 1022.95 975.05 1022.95 1213.19"/><path class="cls-20" d="M887.5,1123.89c-33,0-63-25.23-66.61-57.55a67,67,0,1,0,133.23,0C950.55,1098.66,920.52,1123.89,887.5,1123.89Z"/><path class="cls-6" d="M887.5,1123.89c33,0,63-25.23,66.62-57.55,0-36.22-32-63-66.62-63s-66.61,26.79-66.61,63C824.46,1098.66,854.49,1123.89,887.5,1123.89Z"/><path class="cls-20" d="M771.78,1033.22l135.07-131.1L889,859l-134,131v36.2A9.87,9.87,0,0,0,771.78,1033.22Z"/><rect class="cls-7" x="710.43" y="903.84" width="223.47" height="38.19" rx="10" transform="translate(2056.13 994.2) rotate(135)"/><rect class="cls-7" x="842.89" y="903.84" width="223.47" height="38.19" rx="10" transform="translate(977.03 2250.58) rotate(-135)"/><polygon class="cls-18" points="411.03 1970 90.87 1696.19 221.48 1316.28 652.83 1693.5 411.03 1970"/><polygon class="cls-19" points="350.2 1693.94 82.29 1693.94 82.29 1455.8 216.25 1366.49 350.2 1455.8 350.2 1693.94"/><path class="cls-20" d="M214.76,1604.64c-33,0-63-25.24-66.62-57.55A67,67,0,1,0,281.73,1554a69.2,69.2,0,0,0-.35-6.94C277.8,1579.4,247.78,1604.64,214.76,1604.64Z"/><path class="cls-6" d="M214.76,1604.64c33,0,63-25.24,66.62-57.55,0-36.22-32-63-66.62-63s-66.62,26.79-66.62,63C151.71,1579.4,181.74,1604.64,214.76,1604.64Z"/><path class="cls-20" d="M99,1514l135.08-131.1-17.86-43.17-134,131v36.21A9.87,9.87,0,0,0,99,1514Z"/><rect class="cls-7" x="37.68" y="1384.59" width="223.47" height="38.19" rx="10" transform="translate(1247.62 2290.59) rotate(135)"/><rect class="cls-7" x="170.15" y="1384.59" width="223.47" height="38.19" rx="10" transform="translate(-511.36 2595.56) rotate(-135)"/><polygon class="cls-18" points="747.41 1970 427.24 1696.19 557.85 1316.28 989.2 1693.5 747.41 1970"/><polygon class="cls-19" points="686.57 1693.94 418.67 1693.94 418.67 1455.8 552.62 1366.49 686.57 1455.8 686.57 1693.94"/><path class="cls-20" d="M551.13,1604.64c-33,0-63-25.24-66.62-57.55a69.19,69.19,0,0,0-.36,6.94,67,67,0,1,0,133.6-6.94C614.17,1579.4,584.15,1604.64,551.13,1604.64Z"/><path class="cls-6" d="M551.13,1604.64c33,0,63-25.24,66.62-57.55,0-36.22-32-63-66.62-63s-66.62,26.79-66.62,63C488.09,1579.4,518.11,1604.64,551.13,1604.64Z"/><path class="cls-20" d="M435.41,1514l135.07-131.1-17.86-43.17-133.95,131v36.21A9.87,9.87,0,0,0,435.41,1514Z"/><rect class="cls-7" x="374.05" y="1384.59" width="223.47" height="38.19" rx="10" transform="translate(1821.85 2052.74) rotate(135)"/><rect class="cls-7" x="506.52" y="1384.59" width="223.47" height="38.19" rx="10" transform="translate(62.87 2833.41) rotate(-135)"/><polygon class="cls-18" points="1082.29 1970 762.13 1696.19 892.74 1316.28 1324.09 1693.5 1082.29 1970"/><polygon class="cls-19" points="1022.95 1693.94 755.04 1693.94 755.04 1455.8 888.99 1366.49 1022.95 1455.8 1022.95 1693.94"/><path class="cls-20" d="M887.5,1604.64c-33,0-63-25.24-66.61-57.55a67,67,0,1,0,133.23,0C950.55,1579.4,920.52,1604.64,887.5,1604.64Z"/><path class="cls-6" d="M887.5,1604.64c33,0,63-25.24,66.62-57.55,0-36.22-32-63-66.62-63s-66.61,26.79-66.61,63C824.46,1579.4,854.49,1604.64,887.5,1604.64Z"/><path class="cls-20" d="M771.78,1514l135.07-131.1L889,1339.7l-134,131v36.21A9.87,9.87,0,0,0,771.78,1514Z"/><rect class="cls-7" x="710.43" y="1384.59" width="223.47" height="38.19" rx="10" transform="translate(2396.07 1814.89) rotate(135)"/><rect class="cls-7" x="842.89" y="1384.59" width="223.47" height="38.19" rx="10" transform="translate(637.1 3071.27) rotate(-135)"/></g><rect class="cls-7" x="-20" y="2279.41" width="302" height="215.59" rx="31.75"/><path class="cls-21" d="M40.32,2375.25v-38.69h6.45V2343h6.45v6.45h6.45V2343h6.45v-6.45H79v38.69H66.12v-19.34H59.67v6.45H53.22v-6.45H46.77v19.34Z"/><path class="cls-21" d="M91.92,2375.25v-38.69h38.7V2343h-25.8v6.45h19.35v6.45H104.82v12.9h25.8v6.44Z"/><path class="cls-21" d="M143.52,2375.25v-38.69H150V2343h6.45v6.45h6.45v6.45h6.45v-19.35h12.9v38.69h-12.9v-6.44h-6.45v-6.45h-6.45v-6.45H150v19.34Z"/><path class="cls-21" d="M195.12,2368.81v-32.25h6.45v32.25Zm6.45,6.44v-6.44h12.9v-6.45h6.45v-25.8h12.9v32.25h-6.45v6.44Z"/></svg>