<svg id="Calque_1" data-name="Calque 1" xmlns="http://www.w3.org/2000/svg" viewBox="0 0 1125 2436"><defs><style>.cls-1{fill:#ffae00;stroke:#fff;stroke-width:0.25px;}.cls-1,.cls-4{stroke-miterlimit:10;}.cls-2{font-size:51.6px;font-family:Early-GameBoy, Early GameBoy;}.cls-2,.cls-3{fill:#e02229;}.cls-4,.cls-5{fill:none;}.cls-4{stroke:#e02229;stroke-width:9px;}.cls-6{fill:#fff;}.cls-7{fill:#00b2ae;}.cls-8{fill:#ffcc97;}.cls-9{fill:#2db17e;}.cls-10{fill:#ffb777;}.cls-11{fill:#303030;}.cls-12{fill:#f1f1f1;}.cls-13{fill:#4c4c4c;}</style></defs><title>Plan de travail 4</title><rect class="cls-1" x="0.45" y="0.32" width="1124.36" height="2435.01"/><text class="cls-2" transform="translate(260.17 492.26)">INSTRUCTIONS</text><path class="cls-3" d="M117.81,1631.53v-28.6h5.72v11.44H135v-11.44H123.53v-5.72h22.88v5.72h5.72v28.6H135v-11.44H123.53v11.44Z"/><path class="cls-3" d="M169.3,1631.53v-5.72H175v-22.88H169.3v-5.72h22.88v5.72h-5.72v22.88h5.72v5.72Z"/><path class="cls-3" d="M209.34,1631.53v-34.32H238v5.72h5.72v22.88H238v5.72Zm17.17-5.72v-22.88H215.06v22.88Z"/><path class="cls-3" d="M255.11,1631.53v-34.32h34.33v5.72H266.55v5.72h17.17v5.72H266.55v11.44h22.89v5.72Z"/><path class="cls-3" d="M306.6,1631.53v-5.72H318v-11.44H306.6v-5.72h-5.72v-5.72h5.72v-5.72h22.88v5.72H312.32v5.72h17.16v5.72h5.72v11.44h-5.72v5.72Zm-5.72-5.72v-5.72h5.72v5.72Z"/><path class="cls-3" d="M381,1631.53v-28.6H369.53v-5.72h34.32v5.72H392.41v28.6Z"/><path class="cls-3" d="M421,1631.53v-5.72H415.3v-22.88H421v-5.72H443.9v5.72h5.72v22.88H443.9v5.72Zm17.16-5.72v-22.88H426.74v22.88Z"/><path class="cls-3" d="M466.78,1631.53v-5.72h5.72v-22.88h-5.72v-5.72h22.89v5.72H484v22.88h5.72v5.72Z"/><path class="cls-3" d="M529.71,1631.53v-34.32h28.61v5.72H564v22.88h-5.72v5.72Zm17.17-5.72v-22.88H535.43v22.88Z"/><path class="cls-3" d="M575.48,1625.81v-28.6h5.72v28.6Zm5.72,5.72v-5.72h11.44v-5.72h5.72v-22.88H609.8v28.6h-5.72v5.72Z"/><path class="cls-3" d="M644.13,1620.09v-22.88h5.72v22.88Zm5.72,5.72v-5.72h5.72v5.72Zm5.72,5.72v-5.72h5.72v-5.72H667v-22.88h11.45v22.88h-5.73v5.72H667v5.72Z"/><path class="cls-3" d="M695.62,1631.53v-5.72h5.72v-22.88h-5.72v-5.72H718.5v5.72h-5.72v22.88h5.72v5.72Z"/><path class="cls-3" d="M741.38,1631.53v-5.72h11.45v-11.44H741.38v-5.72h-5.72v-5.72h5.72v-5.72h22.89v5.72H747.11v5.72h17.16v5.72H770v11.44h-5.72v5.72Zm-5.72-5.72v-5.72h5.72v5.72Z"/><path class="cls-3" d="M781.43,1631.53v-34.32h34.33v5.72H792.87v5.72H810v5.72H792.87v11.44h22.89v5.72Z"/><path class="cls-3" d="M827.2,1625.81v-28.6h5.72v28.6Zm5.72,5.72v-5.72h11.44v-5.72h5.72v-22.88h11.44v28.6H855.8v5.72Z"/><path class="cls-3" d="M873,1631.53v-34.32h28.6v5.72h5.72v11.44h-5.72v5.72h-5.72v5.72h-5.72v-5.72h-5.72v11.44Zm22.88-17.16v-11.44H884.41v11.44Zm0,17.16v-5.72h11.44v5.72Z"/><path class="cls-3" d="M117.81,1686.45v-34.32h28.6v5.72h5.72v11.44h-5.72V1675H129.25v11.44Zm22.88-17.16v-11.44H129.25v11.44Z"/><path class="cls-3" d="M169.3,1686.45v-5.72h-5.72v-22.88h5.72v-5.72h22.88v5.72h5.72v22.88h-5.72v5.72Zm17.16-5.72v-22.88H175v22.88Z"/><path class="cls-3" d="M209.34,1680.73v-28.6h5.72v28.6Zm5.72,5.72v-5.72h11.45V1675h5.72v-22.88h11.44v28.6H238v5.72Z"/><path class="cls-3" d="M255.11,1686.45v-34.32h28.61v5.72h5.72v11.44h-5.72V1675H278v5.72h-5.72V1675h-5.72v11.44ZM278,1669.29v-11.44H266.55v11.44Zm0,17.16v-5.72h11.45v5.72Z"/><path class="cls-3" d="M323.76,1686.45v-28.6h5.72v11.44h11.44v-11.44H329.48v-5.72h22.89v5.72h5.72v28.6H340.92V1675H329.48v11.44Z"/><path class="cls-3" d="M369.53,1686.45v-34.32h5.72v5.72H381v5.72h5.72v-5.72h5.72v-5.72h11.44v34.32H392.41v-17.16h-5.72V1675H381v-5.72h-5.72v17.16Z"/><path class="cls-3" d="M415.3,1686.45v-34.32h34.32v5.72H426.74v5.72H443.9v5.72H426.74v11.44h22.88v5.72Z"/><path class="cls-3" d="M461.06,1686.45v-34.32H472.5v28.6h22.89v5.72Z"/><path class="cls-3" d="M512.55,1686.45v-5.72h5.72v-22.88h-5.72v-5.72h22.88v5.72h-5.72v22.88h5.72v5.72Z"/><path class="cls-3" d="M558.32,1686.45v-5.72H552.6v-22.88h5.72v-5.72H581.2v5.72h5.72v22.88H581.2v5.72Zm17.16-5.72v-22.88H564v22.88Z"/><path class="cls-3" d="M598.36,1686.45v-34.32H627v5.72h5.72v11.44H627V1675h-5.72v5.72h-5.72V1675h-5.72v11.44Zm22.89-17.16v-11.44H609.81v11.44Zm0,17.16v-5.72h11.44v5.72Z"/><path class="cls-3" d="M644.13,1686.45v-34.32h34.33v5.72H655.57v5.72h17.17v5.72H655.57v11.44h22.89v5.72Z"/><path class="cls-3" d="M689.9,1686.45v-34.32h28.6v5.72h5.72v11.44H718.5V1675h-5.72v5.72h-5.72V1675h-5.72v11.44Zm22.88-17.16v-11.44H701.34v11.44Zm0,17.16v-5.72h11.44v5.72Z"/><path class="cls-3" d="M770,1686.45v-28.6H758.55v-5.72h34.32v5.72H781.43v28.6Z"/><path class="cls-3" d="M810,1686.45v-5.72h-5.72v-22.88H810v-5.72h22.88v5.72h5.72v22.88h-5.72v5.72Zm17.16-5.72v-22.88H815.76v22.88Z"/><path class="cls-3" d="M850.08,1686.45v-34.32h5.72v5.72h5.72v5.72h5.72v5.72H873v-17.16h11.44v34.32H873v-5.72h-5.73V1675h-5.72v-5.72H855.8v17.16Z"/><path class="cls-3" d="M129.25,1741.38v-28.61H117.81v-5.72h34.32v5.72H140.69v28.61Z"/><path class="cls-3" d="M169.3,1741.38v-5.73H175v-22.88H169.3v-5.72h22.88v5.72h-5.72v22.88h5.72v5.73Z"/><path class="cls-3" d="M209.34,1741.38v-34.33H238v5.72h5.72v11.44H238v5.72h-5.72v5.72h-5.72v-5.72h-5.72v11.45Zm22.89-17.17v-11.44H220.79v11.44Zm0,17.17v-5.73h11.44v5.73Z"/><path class="cls-3" d="M255.11,1741.38v-11.45h11.44v11.45Z"/><path class="cls-3" d="M323.76,1741.38v-28.61h5.72v11.44h11.44v-11.44H329.48v-5.72h22.89v5.72h5.72v28.61H340.92v-11.45H329.48v11.45Z"/><path class="cls-3" d="M381,1741.38v-28.61H369.53v-5.72h34.32v5.72H392.41v28.61Z"/><path class="cls-3" d="M426.74,1741.38v-28.61H415.3v-5.72h34.32v5.72H438.18v28.61Z"/><path class="cls-3" d="M461.06,1741.38v-34.33h34.33v5.72H472.5v5.72h17.17v5.72H472.5v11.44h22.89v5.73Z"/><path class="cls-3" d="M506.83,1741.38v-34.33h5.72v5.72h5.72v5.72H524v5.72h5.72v-17.16h11.44v34.33H529.71v-5.73H524v-5.72h-5.72v-5.72h-5.72v17.17Z"/><path class="cls-3" d="M564,1741.38v-28.61H552.6v-5.72h34.32v5.72H575.48v28.61Z"/><path class="cls-3" d="M604.08,1741.38v-5.73h5.73v-22.88h-5.73v-5.72H627v5.72h-5.72v22.88H627v5.73Z"/><path class="cls-3" d="M649.85,1741.38v-5.73h-5.72v-22.88h5.72v-5.72h22.89v5.72h5.72v22.88h-5.72v5.73Zm17.16-5.73v-22.88H655.57v22.88Z"/><path class="cls-3" d="M689.9,1741.38v-34.33h5.72v5.72h5.72v5.72h5.72v5.72h5.72v-17.16h11.44v34.33H712.78v-5.73h-5.72v-5.72h-5.72v-5.72h-5.72v17.17Z"/><path class="cls-3" d="M747.11,1741.38v-5.73h-5.72v-11.44h11.44v17.17Zm-5.72,5.72v-5.72h5.72v5.72Z"/><path class="cls-3" d="M810,1741.38v-5.73h5.72v-22.88H810v-5.72h22.88v5.72H827.2v22.88h5.72v5.73Z"/><path class="cls-3" d="M850.08,1741.38v-34.33h11.44v28.6h22.89v5.73Z"/><path class="cls-3" d="M117.81,1796.3V1762h34.32v5.72H129.25v5.72h17.16v5.72H129.25v11.44h22.88v5.73Z"/><path class="cls-3" d="M169.3,1796.3v-5.73h11.44v-11.44H169.3v-5.72h-5.72v-5.72h5.72V1762h22.88v5.72H175v5.72h17.16v5.72h5.72v11.44h-5.72v5.73Zm-5.72-5.73v-5.72h5.72v5.72Z"/><path class="cls-3" d="M220.79,1796.3v-28.61H209.34V1762h34.33v5.72H232.23v28.61Z"/><path class="cls-3" d="M278,1796.3V1762H306.6v5.72h5.72v11.44H306.6v5.72H289.44v11.45Zm22.89-17.17v-11.44H289.44v11.44Z"/><path class="cls-3" d="M323.76,1796.3V1762H335.2v28.6h22.89v5.73Z"/><path class="cls-3" d="M369.53,1790.57V1762h5.72v28.6Zm5.72,5.73v-5.73h11.44v-5.72h5.72V1762h11.44v28.6h-5.72v5.73Z"/><path class="cls-3" d="M421,1796.3v-5.73h11.44v-11.44H421v-5.72H415.3v-5.72H421V1762H443.9v5.72H426.74v5.72H443.9v5.72h5.72v11.44H443.9v5.73Zm-5.72-5.73v-5.72H421v5.72Z"/><path class="cls-3" d="M484,1796.3V1762h28.6v5.72h5.72v22.88h-5.72v5.73Zm17.16-5.73v-22.88H489.67v22.88Z"/><path class="cls-3" d="M535.43,1796.3v-5.73h5.72v-22.88h-5.72V1762h22.89v5.72H552.6v22.88h5.72v5.73Z"/><path class="cls-3" d="M575.48,1796.3V1762H609.8v5.72H586.92v11.44h17.16v5.72H586.92v11.45Z"/><path class="cls-3" d="M621.25,1796.3V1762h34.32v5.72H632.69v11.44h17.16v5.72H632.69v11.45Z"/><path class="cls-3" d="M672.73,1796.3v-5.73h5.73v-22.88h-5.73V1762h22.89v5.72H689.9v22.88h5.72v5.73Z"/><path class="cls-3" d="M718.5,1796.3v-5.73h-5.72v-22.88h5.72V1762h22.89v5.72h5.72v5.72H735.66v-5.72H724.22v22.88h11.44v-5.72h11.45v5.72h-5.72v5.73Z"/><path class="cls-3" d="M764.27,1796.3v-5.73H770v-22.88h-5.72V1762h22.88v5.72h-5.72v22.88h5.72v5.73Z"/><path class="cls-3" d="M804.32,1796.3V1762h11.44v28.6h22.88v5.73Z"/><path class="cls-3" d="M850.08,1796.3V1762h34.33v5.72H861.52v5.72h17.17v5.72H861.52v11.44h22.89v5.73Z"/><path class="cls-3" d="M117.81,1851.22v-34.33h28.6v5.72h5.72v22.89h-5.72v5.72ZM135,1845.5v-22.89H123.53v22.89Z"/><path class="cls-3" d="M163.58,1851.22v-34.33H197.9v5.72H175v5.72h17.16v5.72H175v11.45H197.9v5.72Z"/><path class="cls-3" d="M243.67,1851.22v-28.61H232.23v-5.72h34.32v5.72H255.11v28.61Z"/><path class="cls-3" d="M283.71,1851.22v-5.72h5.73v-22.89h-5.73v-5.72H306.6v5.72h-5.72v22.89h5.72v5.72Z"/><path class="cls-3" d="M323.76,1851.22v-34.33h28.61v5.72h5.72v11.44h-5.72v5.72h-5.73v5.73h-5.72v-5.73H335.2v11.45Zm22.88-17.17v-11.44H335.2v11.44Zm0,17.17v-5.72h11.45v5.72Z"/><path class="cls-3" d="M369.53,1851.22v-34.33h34.32v5.72H381v5.72h17.16v5.72H381v11.45h22.88v5.72Z"/><path class="cls-3" d="M415.3,1851.22v-34.33h28.6v5.72h5.72v11.44H443.9v5.72h-5.72v5.73h-5.72v-5.73h-5.72v11.45Zm22.88-17.17v-11.44H426.74v11.44Zm0,17.17v-5.72h11.44v5.72Z"/><path class="cls-3" d="M484,1851.22v-28.61h5.72v11.44h11.44v-11.44H489.67v-5.72h22.88v5.72h5.72v28.61H501.11v-11.45H489.67v11.45Z"/><path class="cls-3" d="M529.71,1839.77v-22.88h5.72v22.88Zm5.72,5.73v-5.73h5.72v5.73Zm5.72,5.72v-5.72h5.73v-5.73h5.72v-22.88H564v22.88h-5.72v5.73H552.6v5.72Z"/><path class="cls-3" d="M575.48,1851.22v-34.33H609.8v5.72H586.92v5.72h17.16v5.72H586.92v11.45H609.8v5.72Z"/><path class="cls-3" d="M627,1851.22v-5.72h-5.72v-22.89H627v-5.72h22.88v5.72h5.72v5.72H644.13v-5.72H632.69v22.89h11.44v-5.73h11.44v5.73h-5.72v5.72Z"/><path class="cls-3" d="M689.9,1845.5v-28.61h5.72v28.61Zm5.72,5.72v-5.72h11.44v-5.73h5.72v-22.88h11.44v28.61H718.5v5.72Z"/><path class="cls-3" d="M735.66,1851.22v-34.33h5.72v5.72h5.73v5.72h5.72v5.72h5.72v-17.16H770v34.33H758.55v-5.72h-5.72v-5.73h-5.72v-5.72h-5.73v17.17Z"/><path class="cls-3" d="M804.31,1851.22v-34.33h11.45v28.61h22.88v5.72Z"/><path class="cls-3" d="M850.08,1851.22v-28.61h5.72v11.44h11.44v-11.44H855.8v-5.72h22.89v5.72h5.72v28.61H867.24v-11.45H855.8v11.45Z"/><path class="cls-3" d="M895.85,1851.22v-34.33h5.72v5.72h5.72v5.72H913v5.72h5.72v-17.16h11.44v34.33H918.73v-5.72H913v-5.73h-5.72v-5.72h-5.72v17.17Z"/><path class="cls-3" d="M947.34,1851.22v-5.72h-5.72v-22.89h5.72v-5.72h22.88v5.72h5.72v5.72H964.5v-5.72H953.06v22.89H964.5v-5.73h11.44v5.73h-5.72v5.72Z"/><path class="cls-3" d="M987.38,1851.22v-34.33h34.33v5.72H998.82v5.72H1016v5.72H998.82v11.45h22.89v5.72Z"/><path class="cls-3" d="M569.76,1421.81c-193,0-350.08-157-350.08-350.09S376.73,721.64,569.76,721.64s350.08,157.05,350.08,350.08S762.79,1421.81,569.76,1421.81Zm0-619.11c-148.34,0-269,120.68-269,269s120.69,269,269,269,269-120.68,269-269S718.1,802.7,569.76,802.7Z"/><rect class="cls-3" x="547.36" y="762.17" width="46.05" height="146.71"/><rect class="cls-3" x="356.83" y="1120.16" width="46.05" height="146.71" transform="translate(1036.1 126.69) rotate(49.25)"/><rect class="cls-3" x="755.13" y="1120.16" width="46.05" height="146.71" transform="matrix(0.5, -0.87, 0.87, 0.5, -644.53, 1270.66)"/><circle class="cls-3" cx="398.63" cy="2276.69" r="18.97"/><circle class="cls-3" cx="743.69" cy="2276.69" r="18.97"/><circle class="cls-3" cx="569.76" cy="2276.69" r="18.97"/><circle class="cls-4" cx="569.76" cy="2276.67" r="38.03"/><path class="cls-3" d="M479.35,197.5a54.26,54.26,0,0,0,8.06,9c.86-1.81,1.77-3.58,2.74-5.33A44.55,44.55,0,0,1,479.35,197.5Zm15.84-26.07a54.82,54.82,0,0,0,4.17,16.19q2.55-3.12,5.37-6A44.05,44.05,0,0,1,495.19,171.43Zm27.09-13.63A54.06,54.06,0,0,0,519,169.64q2.51-1.71,5.13-3.24A43.09,43.09,0,0,1,522.28,157.8Zm100.59,12.09a52.25,52.25,0,0,0-15.59-32.32,44.92,44.92,0,0,1,.5,23.93A92.45,92.45,0,0,1,622.87,169.89Zm-52.81-42.66h-.3a123,123,0,0,0-13.51.75h0A120.15,120.15,0,0,0,533,133c.71,1,1.37,2.08,2,3.17a45.61,45.61,0,0,1,6.1,22.52,92.14,92.14,0,0,1,29.66-4.88H572c.46,0,.92,0,1.38,0a92.05,92.05,0,0,1,25.1,4.19,54.1,54.1,0,0,0-14.58-29.94A125.45,125.45,0,0,0,570.06,127.23Z"/><path class="cls-5" d="M637.14,219.51l.46.84Z"/><path class="cls-5" d="M634.43,215c.11.17.23.34.34.52C634.66,215.38,634.54,215.21,634.43,215Z"/><path class="cls-5" d="M636,217.48c.14.24.27.48.41.71C636.24,218,636.11,217.72,636,217.48Z"/><path class="cls-5" d="M639.44,224l.28.58Z"/><path class="cls-5" d="M640.63,226.65c.12.26.22.54.33.81C640.85,227.19,640.75,226.91,640.63,226.65Z"/><path class="cls-5" d="M645.59,244.18c0,.15,0,.3.07.45C645.64,244.48,645.62,244.33,645.59,244.18Z"/><path class="cls-5" d="M643.21,233.73c0,.19.12.37.17.55C643.33,234.1,643.26,233.92,643.21,233.73Z"/><path class="cls-5" d="M607.78,161.5a46.27,46.27,0,0,1-11.15,20.38,55.14,55.14,0,0,0,2.35-16,56.92,56.92,0,0,0-.55-7.89A92.59,92.59,0,0,1,607.78,161.5Z"/><path class="cls-5" d="M630.12,209.13l.43.54Z"/><path class="cls-5" d="M646.44,298.61V255.16c0-.77,0-1.53-.05-2.29,0-.29,0-.58,0-.87l-.09-1.63c0-.32,0-.63-.07-.94l-.15-1.63a2.4,2.4,0,0,1,0-.28,2.45,2.45,0,0,0,0-.27c0-.1,0-.2,0-.3-.08-.77-.18-1.55-.3-2.32,0-.15,0-.3-.07-.45-.1-.67-.21-1.33-.32-2l-.18-.88c-.1-.5-.2-1-.3-1.5a2,2,0,0,1,0-.24c0-.23-.1-.47-.16-.7-.12-.5-.24-1-.36-1.5,0-.1-.05-.2-.08-.3s-.09-.37-.14-.55c-.19-.75-.4-1.49-.62-2.23,0-.18-.12-.37-.17-.55-.18-.57-.36-1.14-.55-1.71l-.27-.78a.49.49,0,0,0,0-.11c-.16-.46-.31-.92-.49-1.38-.11-.29-.22-.6-.34-.9a.49.49,0,0,1,0-.11l-.51-1.28c-.12-.27-.22-.54-.34-.82-.29-.69-.6-1.38-.91-2.07-.09-.19-.19-.39-.28-.59s-.34-.71-.52-1.06c-.08-.16-.15-.32-.22-.47l-.43-.83c-.21-.4-.42-.81-.64-1.2l0-.07-.46-.84c-.25-.44-.5-.88-.76-1.32-.14-.23-.27-.47-.41-.71-.4-.65-.79-1.29-1.2-1.92-.11-.18-.23-.34-.34-.52l-.47-.72-.14-.19-.08-.12c-.07-.1-.14-.19-.2-.29h0a.61.61,0,0,1-.07-.1l-.5-.72-.88-1.22-.53-.7c-.33-.44-.67-.87-1-1.3l-.43-.54-.36-.45c-.37-.45-.74-.89-1.12-1.33-.1-.13-.21-.25-.31-.37l-1.25-1.38-.52-.57-1.13-1.18c-.18-.17-.35-.36-.53-.53-.44-.45-.89-.88-1.34-1.31-.11-.11-.22-.22-.34-.32l-.68-.63a1.8,1.8,0,0,0-.2-.19l-.24-.22-.25-.22-.4-.36-.24-.21-1.56-1.33c-.16-.13-.33-.25-.48-.39l-.71-.57a54.45,54.45,0,0,0,4.41-27.68,92.22,92.22,0,0,1,23.57,128.72Z"/><path class="cls-5" d="M646.44,255.16v43.45h0V255.16Z"/><path class="cls-5" d="M626.56,205c.18.18.35.37.52.56C626.91,205.41,626.74,205.22,626.56,205Z"/><path class="cls-5" d="M631.56,211c.18.23.35.47.52.7C631.91,211.44,631.74,211.2,631.56,211Z"/><path class="cls-5" d="M633,212.9c.17.23.33.47.5.71C633.3,213.37,633.14,213.13,633,212.9Z"/><path class="cls-5" d="M507.64,201.06a42.6,42.6,0,0,1-17.49.1,92.76,92.76,0,0,1,9.21-13.54A53.7,53.7,0,0,0,507.64,201.06Z"/><path class="cls-5" d="M488.26,254.55a30,30,0,0,0,18.86,27.84c.49-.49,1-.95,1.53-1.4V314.1a92.28,92.28,0,0,1-21.24-107.61,53.68,53.68,0,0,0,21.24,11.73v7.93A30,30,0,0,0,488.26,254.55Z"/><path class="cls-5" d="M519.48,189.06a42.43,42.43,0,0,1-14.75-7.44,91.12,91.12,0,0,1,14.29-12A53.85,53.85,0,0,0,519.48,189.06Z"/><path class="cls-5" d="M541.09,158.64A44,44,0,0,1,534,182.91h0l0,0a42.86,42.86,0,0,1-9.8-16.53A91.55,91.55,0,0,1,541.09,158.64Z"/><path class="cls-5" d="M590.24,225.76V336.08l-.41.1V225.93Z"/><path class="cls-5" d="M646.2,249.42c0,.32,0,.63.07,1C646.25,250.05,646.22,249.74,646.2,249.42Z"/><path class="cls-5" d="M646.05,247.81c0-.19,0-.38,0-.56v0Z"/><path class="cls-5" d="M644.79,239.8c0-.08,0-.16,0-.24h0A2,2,0,0,0,644.79,239.8Z"/><path class="cls-5" d="M646.36,252l0,.87Z"/><path class="cls-5" d="M642.66,232l-.27-.78h0Z"/><path class="cls-5" d="M644.15,237.07l-.15-.56c0,.18.1.37.14.56Z"/><path class="cls-5" d="M645.09,241.3c.06.3.12.59.17.89C645.21,241.89,645.15,241.6,645.09,241.3Z"/><path class="cls-5" d="M623.22,201.68l.34.33Z"/><path class="cls-5" d="M624.9,203.32c.18.17.35.35.53.53C625.25,203.67,625.08,203.49,624.9,203.32Z"/><path class="cls-3" d="M690.14,247.62a120.13,120.13,0,0,1-43.7,92.8c-2.05,1.7-4.16,3.32-6.32,4.88q-1.79,1.27-3.61,2.5A121.32,121.32,0,0,1,622,356.12c-1.39.67-2.79,1.3-4.21,1.92-1.81.79-3.66,1.54-5.52,2.25q-3.62,1.35-7.32,2.49-3,.92-6.07,1.66-2.58.65-5.18,1.19h0l-.39.08a121.29,121.29,0,0,1-23.5,2.29A120.4,120.4,0,0,1,533,133c.71,1,1.37,2.08,2,3.17a45.61,45.61,0,0,1,6.1,22.52,91.55,91.55,0,0,0-16.94,7.76,43.09,43.09,0,0,1-1.87-8.6A54.06,54.06,0,0,0,519,169.64a91.12,91.12,0,0,0-14.29,12,44.05,44.05,0,0,1-9.54-10.19,54.82,54.82,0,0,0,4.17,16.19,92.76,92.76,0,0,0-9.21,13.54,44.55,44.55,0,0,1-10.8-3.66,54.26,54.26,0,0,0,8.06,9,92.21,92.21,0,0,0,83.34,131.66,93,93,0,0,0,19.08-2l.41-.1a90.59,90.59,0,0,0,9-2.44h1a.77.77,0,0,0,.73-.58,88.85,88.85,0,0,0,8.79-3.58q2.48-1.16,4.86-2.45c1.12-.61,2.23-1.25,3.32-1.9,1.25-.74,2.47-1.51,3.67-2.31a90.26,90.26,0,0,0,7.88-5.85.76.76,0,0,0,.61-.51q1.73-1.45,3.38-3l1.54-1.48c1.91-1.85,3.74-3.8,5.48-5.82.71-.82,1.41-1.65,2.09-2.5q2-2.46,3.79-5.06a92.22,92.22,0,0,0-23.57-128.72,52.25,52.25,0,0,0-15.59-32.32,44.92,44.92,0,0,1,.5,23.93,92.59,92.59,0,0,0-9.35-3.51,54.1,54.1,0,0,0-14.58-29.94A120.4,120.4,0,0,1,690.14,247.62Z"/><path class="cls-6" d="M519.85,190.71a34.83,34.83,0,0,0-7,8.85,40,40,0,0,1-5.25,1.5,53.7,53.7,0,0,1-8.28-13.44,54.82,54.82,0,0,1-4.17-16.19,44.05,44.05,0,0,0,9.54,10.19,42.43,42.43,0,0,0,14.75,7.44C519.6,189.61,519.72,190.16,519.85,190.71Z"/><path class="cls-6" d="M599,165.88a55.14,55.14,0,0,1-2.35,16c-1,1-2,2-3,2.93a71.72,71.72,0,0,0-11.11-2.41,73.11,73.11,0,0,0-10.1-.7h-.13a54.07,54.07,0,0,0,.45-24.87c.25-1,.46-2,.63-3a46.14,46.14,0,0,0-3.27-26.57,44.87,44.87,0,0,0-8.78-13,51.62,51.62,0,0,1,22.57,13.78A54.1,54.1,0,0,1,598.43,158,56.92,56.92,0,0,1,599,165.88Z"/><path class="cls-6" d="M510.7,204.4a34.26,34.26,0,0,0-2.05,11.72v2.1a53.68,53.68,0,0,1-21.24-11.73,54.26,54.26,0,0,1-8.06-9,44.55,44.55,0,0,0,10.8,3.66,42.6,42.6,0,0,0,17.49-.1C508.61,202.22,509.63,203.34,510.7,204.4Z"/><path class="cls-6" d="M572.7,156.83a44.8,44.8,0,0,1-16.07,24.87H543.08a34.42,34.42,0,0,0-9.08,1.21,44,44,0,0,0,7.09-24.27,45.61,45.61,0,0,0-6.1-22.52c-.63-1.09-1.29-2.15-2-3.17A45.08,45.08,0,0,0,508.2,115a52.93,52.93,0,0,1,48,13h0a55.73,55.73,0,0,1,15.69,25.79h0Q572.37,155.3,572.7,156.83Z"/><path class="cls-6" d="M556.63,181.7h15.62a54.07,54.07,0,0,0,.45-24.87A44.8,44.8,0,0,1,556.63,181.7Z"/><path class="cls-6" d="M507.64,201.06c1,1.16,2,2.28,3.06,3.34a34,34,0,0,1,2.19-4.84A40,40,0,0,1,507.64,201.06Z"/><path class="cls-6" d="M618.46,197.57l-.69-.53-.55-.43-1.43-1.05-.52-.37,0,0q-.91-.65-1.86-1.26l-.16-.12-.42-.26-1.38-.88-.85-.51c-.39-.24-.79-.47-1.19-.7l-.88-.49-1.27-.7-.8-.42c-.69-.35-1.39-.7-2.09-1a33.25,33.25,0,0,0-3,2.46l-.31.3c-.1.08-.19.18-.28.26l-.43.42-.31.31c-.38.39-.75.78-1.11,1.19-.23.26-.45.53-.68.8s-.44.53-.66.81-.43.56-.63.84-.45.61-.66.92-.35.52-.52.79l-.16.24c-.22.34-.43.69-.63,1-.1.16-.2.33-.29.5s-.12.21-.18.31l-.24.46-.18.35-.18.35c-.07.12-.13.25-.19.38s-.17.35-.26.53-.05.1-.07.16q-.24.53-.48,1.08s0,0,0,0q-.27.64-.51,1.32c-.13.36-.27.72-.39,1.09a0,0,0,0,1,0,0l-.06.21c0,.1-.07.21-.1.31a.25.25,0,0,0,0,.07c0,.14-.09.28-.13.43l-.12.42a0,0,0,0,0,0,0l-.06.21a.24.24,0,0,0,0,.08h0q-.11.34-.18.69l-.18.78-.12.56-.12.57c0,.21-.08.42-.11.63s-.08.51-.12.76a1.1,1.1,0,0,0,0,.18c0,.12,0,.23-.05.34s0,.24,0,.35a.43.43,0,0,1,0,0c0,.31-.08.63-.1,1,0,.13,0,.26,0,.39v.09a2.46,2.46,0,0,1,0,.26,2.32,2.32,0,0,1,0,.24c0,.08,0,.16,0,.25a.81.81,0,0,0,0,.16c0,.59,0,1.18,0,1.79v9.22l-.41.17v-9.39a34.36,34.36,0,0,1,14.07-27.76,70.68,70.68,0,0,0-8.46-3.38c.44-1.16.84-2.33,1.19-3.52a46.27,46.27,0,0,0,11.15-20.38,44.92,44.92,0,0,0-.5-23.93,52.25,52.25,0,0,1,15.59,32.32A54.45,54.45,0,0,1,618.46,197.57Z"/><path class="cls-6" d="M613.2,193.77l-.41-.26.41.26Z"/><path class="cls-6" d="M606.41,189.82c.27.13.53.27.79.41C606.94,190.09,606.68,190,606.41,189.82Z"/><path class="cls-6" d="M608.48,190.92l.88.5Z"/><path class="cls-6" d="M615.27,195.19l.52.37Z"/><path class="cls-6" d="M617.21,196.61l.56.43Z"/><path class="cls-6" d="M604.32,188.78a33.55,33.55,0,0,0-3,2.46,33.55,33.55,0,0,1,3-2.46Z"/><path class="cls-6" d="M610.55,192.12l.85.51Z"/><path class="cls-6" d="M534,182.93a34,34,0,0,0-12.7,6.58c-.59-.13-1.18-.29-1.77-.45a54.45,54.45,0,0,1,2.8-31.26A43.9,43.9,0,0,0,534,182.93Z"/><path class="cls-6" d="M596.63,181.88c-1,1-2,2-3,2.93.62.19,1.24.38,1.85.59C595.88,184.24,596.28,183.07,596.63,181.88Z"/><path class="cls-6" d="M519.48,189.06c.12.55.24,1.1.37,1.65.46-.41.92-.82,1.4-1.2C520.66,189.38,520.07,189.22,519.48,189.06Z"/><polygon class="cls-7" points="534 182.91 533.95 182.93 533.97 182.96 534 182.91"/><path class="cls-7" d="M589.83,225.93V336.18a93,93,0,0,1-19.08,2,91.87,91.87,0,0,1-62.1-24V281c.23-.21.47-.42.71-.61a30,30,0,0,1,30-4.55,28,28,0,0,0,2-2.21A29.84,29.84,0,0,0,548.16,256c0-.47,0-.94,0-1.42a30,30,0,0,0-39.55-28.4v-7.93a51.62,51.62,0,0,0,27.63.23l1,.2a50.86,50.86,0,0,0,23.41,10.72,9.07,9.07,0,0,0-1.63,5.2,9.16,9.16,0,0,0,18.32,0,9.07,9.07,0,0,0-1.41-4.87h0A53,53,0,0,0,589.83,225.93Z"/><path class="cls-7" d="M521.24,195.49c-.54-1.56-1-3.16-1.39-4.78a34.83,34.83,0,0,0-7,8.85,42.09,42.09,0,0,0,6.81-3.13C520.22,196.13,520.74,195.82,521.24,195.49Z"/><path class="cls-7" d="M593.59,184.81a71.72,71.72,0,0,0-11.11-2.41,73.11,73.11,0,0,0-10.1-.7h-.13a52.15,52.15,0,0,1-6,14.19A44.36,44.36,0,0,0,593.59,184.81Z"/><path class="cls-7" d="M536.28,218.45l1,.2-.42-.35Z"/><path class="cls-7" d="M534,183a41.54,41.54,0,0,0,7.55,6.23,42.55,42.55,0,0,0,15.11-7.48H543.08a34.42,34.42,0,0,0-9.08,1.21h0Z"/><path class="cls-7" d="M508.65,216.12v2.1a51.62,51.62,0,0,0,27.63.23,51.38,51.38,0,0,1-25.58-14A34.26,34.26,0,0,0,508.65,216.12Z"/><path class="cls-7" d="M545,191.19a42.1,42.1,0,0,0,21.32,4.7,52.15,52.15,0,0,0,6-14.19H556.63a42.55,42.55,0,0,1-15.11,7.48C542.62,189.9,543.77,190.57,545,191.19Z"/><path class="cls-7" d="M521.24,195.49c-.5.33-1,.64-1.54.94a42.09,42.09,0,0,1-6.81,3.13,34,34,0,0,0-2.19,4.84,51.38,51.38,0,0,0,25.58,14l.54-.15A51.43,51.43,0,0,1,521.24,195.49Z"/><path class="cls-7" d="M534,183l0,0a34,34,0,0,0-12.7,6.58,41.31,41.31,0,0,0,6.44,1A41.18,41.18,0,0,0,534,183Z"/><path class="cls-7" d="M547,219.58a50.91,50.91,0,0,1-9.71-.93,50.86,50.86,0,0,0,23.41,10.72h0a9.13,9.13,0,0,1,15.27.33h0a53,53,0,0,0,13.9-3.77v-9.39a34.36,34.36,0,0,1,14.07-27.76,70.68,70.68,0,0,0-8.46-3.38C587.88,205.41,569,219.58,547,219.58Z"/><path class="cls-7" d="M527.69,190.47a41.31,41.31,0,0,1-6.44-1c-.48.38-.94.79-1.4,1.2.39,1.62.85,3.22,1.39,4.78A40.92,40.92,0,0,0,527.69,190.47Z"/><path class="cls-7" d="M548.22,213.49a51.14,51.14,0,0,1-11.4,4.81l.42.35a50.91,50.91,0,0,0,9.71.93c22.07,0,40.93-14.17,48.49-34.18-.61-.21-1.23-.4-1.85-.59a44.36,44.36,0,0,1-27.31,11.08A50.65,50.65,0,0,1,548.22,213.49Z"/><path class="cls-7" d="M530.72,190.58a41.86,41.86,0,0,0,10.8-1.4A41.54,41.54,0,0,1,534,183a41.18,41.18,0,0,1-6.28,7.52C528.7,190.55,529.7,190.58,530.72,190.58Z"/><path class="cls-7" d="M527.69,190.47a40.92,40.92,0,0,1-6.45,5,51.43,51.43,0,0,0,15.58,22.81,50.76,50.76,0,0,0,29.46-22.41,42.1,42.1,0,0,1-21.32-4.7c-1.19-.62-2.34-1.29-3.44-2a41.86,41.86,0,0,1-10.8,1.4C529.7,190.58,528.7,190.55,527.69,190.47Z"/><path class="cls-8" d="M488.26,254.55a30,30,0,0,0,18.86,27.84c.49-.49,1-.95,1.53-1.41V226.15A30,30,0,0,0,488.26,254.55Z"/><path class="cls-8" d="M509.36,280.38a30,30,0,0,1,36.72-25c.71.17,1.4.36,2.08.58,0-.47,0-.94,0-1.42a30,30,0,0,0-39.55-28.4V281Z"/><path class="cls-9" d="M509.36,280.38a29.78,29.78,0,0,1,3.54-10.51,29.78,29.78,0,0,0-3.54,10.51,30,30,0,0,1,30-4.55h0a30,30,0,0,0-30,4.55Z"/><path class="cls-9" d="M548.16,256a29.81,29.81,0,0,1-6.82,17.65A29.81,29.81,0,0,0,548.16,256c-.68-.22-1.37-.41-2.08-.58C546.79,255.56,547.48,255.75,548.16,256Z"/><path class="cls-10" d="M539.33,275.83a28,28,0,0,0,2-2.21,28,28,0,0,1-2,2.21Z"/><path class="cls-10" d="M539,254.55a29.63,29.63,0,0,1,7,.84,29.63,29.63,0,0,0-7-.84,30,30,0,0,0-26.14,15.32A30,30,0,0,1,539,254.55Z"/><path class="cls-10" d="M546.08,255.39a29.63,29.63,0,0,0-7-.84,30,30,0,0,0-29.68,25.83,30,30,0,0,1,30-4.55,28,28,0,0,0,2-2.21A29.81,29.81,0,0,0,548.16,256C547.48,255.75,546.79,255.56,546.08,255.39Z"/><path class="cls-11" d="M560.65,229.37a9.07,9.07,0,0,0-1.63,5.2,9.16,9.16,0,0,0,18.32,0,9,9,0,0,0-1.42-4.87A50.82,50.82,0,0,1,560.65,229.37Z"/><path class="cls-11" d="M568.18,225.41a9.13,9.13,0,0,0-7.53,4,50.82,50.82,0,0,0,15.27.33A9.11,9.11,0,0,0,568.18,225.41Z"/><path class="cls-12" d="M636.38,218.19c.26.44.51.88.76,1.32C636.89,219.07,636.64,218.63,636.38,218.19Z"/><path class="cls-12" d="M625.43,203.85c.38.39.76.79,1.13,1.19C626.19,204.64,625.81,204.24,625.43,203.85Z"/><path class="cls-12" d="M623.56,202c.45.43.9.86,1.34,1.31C624.46,202.87,624,202.44,623.56,202Z"/><path class="cls-12" d="M630.55,209.67c.34.43.68.86,1,1.3C631.23,210.53,630.89,210.1,630.55,209.67Z"/><path class="cls-12" d="M646.39,252.87c0-.29,0-.58,0-.87l-.09-1.63c0-.32,0-.63-.07-.94l-.15-1.63a2.4,2.4,0,0,1,0-.28l0-.25a.76.76,0,0,1-.74.62H634.31a.77.77,0,0,1-.77-.77v-1a.77.77,0,0,1,.77-.77h10.94a.76.76,0,0,1,.54.22c0-.32-.08-.65-.13-1,0-.15,0-.3-.07-.45-.1-.67-.21-1.33-.32-2l-.18-.88c-.1-.5-.2-1-.3-1.5l-.06-.24H634.31a.76.76,0,0,1-.77-.76v-1a.78.78,0,0,1,.77-.77h9.83c0-.18-.09-.37-.14-.55-.19-.75-.4-1.49-.62-2.23,0-.18-.12-.37-.17-.55-.18-.57-.36-1.14-.55-1.71l-.27-.78h-8.08a.76.76,0,0,1-.77-.77v-1a.76.76,0,0,1,.77-.77h7.17l-.51-1.28c-.12-.27-.22-.54-.34-.82-.29-.69-.6-1.38-.91-2.07-.09-.19-.19-.39-.28-.59s-.34-.71-.52-1.06h-4.61a.77.77,0,0,1-.77-.78v-.95a.76.76,0,0,1,.77-.77h3.32l0-.07-.46-.84c-.25-.44-.5-.88-.76-1.32-.14-.23-.27-.47-.41-.71-.4-.65-.79-1.29-1.2-1.92-.11-.18-.23-.34-.34-.52l-.33-.49a.77.77,0,0,1-.56-.73v-.11a.61.61,0,0,1-.07-.1l-.5-.72-.88-1.22-.53-.7c-.33-.44-.67-.87-1-1.3l-.43-.54-.36-.45a.73.73,0,0,1-.33.08H618.49a.77.77,0,0,1-.77-.77v-1a.77.77,0,0,1,.77-.77h9.19l-.6-.66-.52-.57-1.13-1.18c-.18-.17-.35-.36-.53-.53-.44-.45-.89-.88-1.34-1.31-.11-.11-.22-.22-.34-.32l-.68-.63a1.8,1.8,0,0,0-.2-.19l-.24-.22-.25-.22h-3.36a.76.76,0,0,1-.77-.77v-.48c-.26.53-.52,1.06-.8,1.58-.53,1-1.11,2-1.7,3v.05a.77.77,0,0,1-.45.69,55.32,55.32,0,0,1-4.23,5.91h3.91a.77.77,0,0,1,.77.77v1a.77.77,0,0,1-.77.77h-6.1a54.29,54.29,0,0,1-12.5,10h4.45a.76.76,0,0,1,.76.77v.95a.76.76,0,0,1-.76.77H591l-.75.35v5.48H600.3a.77.77,0,0,1,.76.77v1a.76.76,0,0,1-.76.76H590.24v5.83H600.3a.77.77,0,0,1,.76.77v1a.78.78,0,0,1-.76.78H590.24v5.82H600.3a.76.76,0,0,1,.76.77v1a.77.77,0,0,1-.76.77H590.24v5.82H600.3a.77.77,0,0,1,.76.77v1a.76.76,0,0,1-.76.77H590.24v5.83H600.3a.77.77,0,0,1,.76.77v1a.77.77,0,0,1-.76.77H590.24v5.83H600.3a.76.76,0,0,1,.76.77v.95a.76.76,0,0,1-.76.77H590.24v5.83H600.3a.77.77,0,0,1,.76.77v1a.77.77,0,0,1-.76.77H590.24v5.83H600.3a.77.77,0,0,1,.76.76v1a.77.77,0,0,1-.76.77H590.24v5.83H600.3a.76.76,0,0,1,.76.77v.95a.76.76,0,0,1-.76.77H590.24v5.83H600.3a.76.76,0,0,1,.76.77v.95a.76.76,0,0,1-.76.77H590.24v5.83H600.3a.77.77,0,0,1,.76.77v1a.77.77,0,0,1-.76.76H590.24v5.83H600.3a.76.76,0,0,1,.76.77v1a.77.77,0,0,1-.76.77H590.24v5.82H600.3a.77.77,0,0,1,.76.78v.95a.58.58,0,0,1,0,.19,88.85,88.85,0,0,0,8.79-3.58H603.5a.77.77,0,0,1-.77-.77v-1a.77.77,0,0,1,.77-.77h11a.56.56,0,0,1,.23,0c1.12-.61,2.23-1.25,3.32-1.9a.74.74,0,0,1-.28-.58v-1a.76.76,0,0,1,.77-.77h3.18a90.26,90.26,0,0,0,7.88-5.85l-.12,0H618.49a.77.77,0,0,1-.77-.76v-1a.77.77,0,0,1,.77-.77h10.94a.77.77,0,0,1,.77.77v1a1,1,0,0,1,0,.23q1.73-1.45,3.38-3v-.71a.78.78,0,0,1,.77-.77h.77c1.91-1.85,3.74-3.8,5.48-5.82h-6.25a.76.76,0,0,1-.77-.77v-1a.76.76,0,0,1,.77-.77h8.34q2-2.46,3.79-5.06V255.16C646.43,254.39,646.42,253.63,646.39,252.87Zm-31.17,67.51a.77.77,0,0,1-.77.77h-11a.76.76,0,0,1-.77-.77v-.95a.76.76,0,0,1,.77-.77h11a.77.77,0,0,1,.77.77Zm0-8.32a.78.78,0,0,1-.77.77h-11a.77.77,0,0,1-.77-.77v-1a.77.77,0,0,1,.77-.77h11a.78.78,0,0,1,.77.77Zm0-8.32a.78.78,0,0,1-.77.77h-11a.77.77,0,0,1-.77-.77v-1a.77.77,0,0,1,.77-.77h11a.78.78,0,0,1,.77.77Zm0-8.33a.77.77,0,0,1-.77.76h-11a.76.76,0,0,1-.77-.76v-1a.77.77,0,0,1,.77-.77h11a.78.78,0,0,1,.77.77Zm0-8.33a.77.77,0,0,1-.77.77h-11a.76.76,0,0,1-.77-.77v-.95a.76.76,0,0,1,.77-.77h11a.77.77,0,0,1,.77.77Zm0-8.32a.78.78,0,0,1-.77.77h-11a.77.77,0,0,1-.77-.77v-1a.77.77,0,0,1,.77-.77h11a.78.78,0,0,1,.77.77Zm0-8.33a.77.77,0,0,1-.77.77h-11a.76.76,0,0,1-.77-.77v-1a.77.77,0,0,1,.77-.77h11a.78.78,0,0,1,.77.77Zm0-8.32a.78.78,0,0,1-.77.77h-11a.77.77,0,0,1-.77-.77v-1a.76.76,0,0,1,.77-.77h11a.77.77,0,0,1,.77.77Zm0-8.33a.78.78,0,0,1-.77.77h-11a.77.77,0,0,1-.77-.77v-1a.77.77,0,0,1,.77-.77h11a.78.78,0,0,1,.77.77Zm0-8.33a.77.77,0,0,1-.77.77h-11a.76.76,0,0,1-.77-.77v-.95a.76.76,0,0,1,.77-.77h11a.77.77,0,0,1,.77.77Zm0-8.32a.78.78,0,0,1-.77.77h-11a.77.77,0,0,1-.77-.77v-1a.77.77,0,0,1,.77-.77h11a.78.78,0,0,1,.77.77Zm0-8.32a.78.78,0,0,1-.77.77h-11a.78.78,0,0,1-.77-.77v-1a.76.76,0,0,1,.77-.76h11a.77.77,0,0,1,.77.76Zm0-8.33a.78.78,0,0,1-.77.77h-11a.77.77,0,0,1-.77-.77v-1a.77.77,0,0,1,.77-.77h11a.78.78,0,0,1,.77.77Zm15,87.41a.76.76,0,0,1-.77.77H618.49a.76.76,0,0,1-.77-.77v-.95a.76.76,0,0,1,.77-.77h10.94a.76.76,0,0,1,.77.77Zm0-8.32a.76.76,0,0,1-.77.77H618.49a.76.76,0,0,1-.77-.77v-.95a.76.76,0,0,1,.77-.77h10.94a.76.76,0,0,1,.77.77Zm0-8.32a.77.77,0,0,1-.77.77H618.49a.77.77,0,0,1-.77-.77v-1a.77.77,0,0,1,.77-.76h10.94a.77.77,0,0,1,.77.76Zm0-8.33a.77.77,0,0,1-.77.77H618.49a.77.77,0,0,1-.77-.77v-1a.77.77,0,0,1,.77-.77h10.94a.77.77,0,0,1,.77.77Zm0-8.33a.76.76,0,0,1-.77.77H618.49a.76.76,0,0,1-.77-.77v-.95a.76.76,0,0,1,.77-.77h10.94a.76.76,0,0,1,.77.77Zm0-8.32a.77.77,0,0,1-.77.77H618.49a.77.77,0,0,1-.77-.77v-1a.77.77,0,0,1,.77-.77h10.94a.77.77,0,0,1,.77.77Zm0-8.33a.76.76,0,0,1-.77.77H618.49a.76.76,0,0,1-.77-.77v-1a.77.77,0,0,1,.77-.77h10.94a.77.77,0,0,1,.77.77Zm0-8.32a.77.77,0,0,1-.77.77H618.49a.77.77,0,0,1-.77-.77v-1a.76.76,0,0,1,.77-.77h10.94a.76.76,0,0,1,.77.77Zm0-8.33a.78.78,0,0,1-.77.78H618.49a.78.78,0,0,1-.77-.78v-1a.77.77,0,0,1,.77-.77h10.94a.77.77,0,0,1,.77.77Zm0-8.32a.76.76,0,0,1-.77.76H618.49a.76.76,0,0,1-.77-.76v-1a.77.77,0,0,1,.77-.77h10.94a.77.77,0,0,1,.77.77Zm0-8.33a.76.76,0,0,1-.77.77H618.49a.76.76,0,0,1-.77-.77v-.95a.76.76,0,0,1,.77-.77h10.94a.76.76,0,0,1,.77.77Zm0-8.32a.77.77,0,0,1-.77.77H618.49a.77.77,0,0,1-.77-.77v-1a.77.77,0,0,1,.77-.77h10.94a.77.77,0,0,1,.77.77ZM646,297.07a.78.78,0,0,1-.77.78H634.31a.78.78,0,0,1-.77-.78v-1a.76.76,0,0,1,.77-.76h10.94a.76.76,0,0,1,.77.76Zm0-8.32a.77.77,0,0,1-.77.77H634.31a.77.77,0,0,1-.77-.77v-1a.77.77,0,0,1,.77-.77h10.94a.77.77,0,0,1,.77.77Zm0-8.33a.76.76,0,0,1-.77.77H634.31a.76.76,0,0,1-.77-.77v-.95a.76.76,0,0,1,.77-.77h10.94a.76.76,0,0,1,.77.77Zm0-8.32a.77.77,0,0,1-.77.77H634.31a.77.77,0,0,1-.77-.77v-1a.77.77,0,0,1,.77-.77h10.94a.77.77,0,0,1,.77.77Zm0-8.33a.77.77,0,0,1-.77.77H634.31a.77.77,0,0,1-.77-.77v-1a.77.77,0,0,1,.77-.77h10.94a.77.77,0,0,1,.77.77Zm0-8.33a.76.76,0,0,1-.77.77H634.31a.76.76,0,0,1-.77-.77v-.95a.76.76,0,0,1,.77-.77h10.94a.76.76,0,0,1,.77.77Z"/><path class="cls-12" d="M643.38,234.28c.22.74.43,1.48.62,2.23C643.81,235.76,643.6,235,643.38,234.28Z"/><path class="cls-12" d="M632.08,211.67c.3.41.6.81.89,1.23C632.68,212.48,632.38,212.08,632.08,211.67Z"/><path class="cls-12" d="M639.72,224.57c.31.69.62,1.38.91,2.08C640.34,226,640,225.26,639.72,224.57Z"/><path class="cls-12" d="M619.65,198.54q.78.65,1.56,1.32Q620.43,199.19,619.65,198.54Z"/><path class="cls-12" d="M634.77,215.56q.62.94,1.2,1.92Q635.39,216.51,634.77,215.56Z"/><path class="cls-12" d="M641.86,229.76c.17.45.34.91.5,1.37C642.2,230.67,642,230.21,641.86,229.76Z"/><path class="cls-12" d="M646,247c-.09-.77-.18-1.55-.3-2.32.05.33.09.66.13,1S645.91,246.5,646,247Z"/><path class="cls-12" d="M642.66,232c.19.56.37,1.14.55,1.71C643,233.16,642.85,232.58,642.66,232Z"/><path class="cls-12" d="M639.44,224c-.25-.52-.49-1-.74-1.54.07.16.14.31.22.46Z"/><path class="cls-12" d="M618.9,197.94l.26.2-.7-.57h0Z"/><path class="cls-12" d="M618.9,197.94l-.45-.36-.18.4a.78.78,0,0,1,.22,0Z"/><path class="cls-12" d="M641.52,228.85c-.18-.47-.37-.93-.56-1.39.18.42.35.85.52,1.28C641.49,228.78,641.51,228.81,641.52,228.85Z"/><path class="cls-12" d="M638.27,221.63c-.22-.43-.44-.86-.67-1.28l0,.07C637.85,220.82,638.06,221.22,638.27,221.63Z"/><path class="cls-12" d="M628.32,207c-.41-.46-.82-.93-1.24-1.38l.6.66Z"/><path class="cls-12" d="M630.12,209.13c-.48-.6-1-1.2-1.47-1.78l1.11,1.33Z"/><path class="cls-12" d="M623.22,201.68c-.58-.54-1.17-1.08-1.77-1.61l.4.36Z"/><path class="cls-12" d="M646.27,250.37l.09,1.63Z"/><polygon class="cls-12" points="590.24 331.14 590.24 325.32 590.24 322.82 590.24 316.99 590.24 314.49 590.24 308.67 590.24 306.17 590.24 300.34 590.24 297.84 590.24 292.01 590.24 289.52 590.24 283.69 590.24 281.19 590.24 275.36 590.24 272.87 590.24 267.04 590.24 264.54 590.24 258.71 590.24 256.22 590.24 250.39 590.24 247.89 590.24 242.06 590.24 239.56 590.24 233.74 590.24 231.24 590.24 225.75 590.24 225.75 590.24 336.08 590.24 336.08 590.24 333.64 590.24 331.14"/><path class="cls-12" d="M644.22,237.36l.36,1.5Z"/><path class="cls-12" d="M646.05,247.81l.15,1.61Z"/><path class="cls-12" d="M646.39,252.87c0,.76,0,1.52.05,2.29C646.43,254.39,646.42,253.63,646.39,252.87Z"/><path class="cls-12" d="M644.79,239.8c.1.5.21,1,.3,1.5C645,240.8,644.89,240.3,644.79,239.8Z"/><path class="cls-12" d="M645.26,242.19c.12.66.23,1.32.33,2C645.49,243.51,645.38,242.85,645.26,242.19Z"/><path class="cls-12" d="M634.1,214.55l.33.49c-.32-.48-.63-1-1-1.43a.61.61,0,0,0,.07.1Z"/><path class="cls-12" d="M590.24,225.41v-8.87c0-.66,0-1.31.06-1.95a33.85,33.85,0,0,1,.84-5.83c.19-.84.41-1.68.67-2.5a33.23,33.23,0,0,1,2.44-5.83c.45-.85,1-1.68,1.47-2.49a34.53,34.53,0,0,1,4.76-5.87c.18-.18.36-.36.55-.53l.31-.3a34.31,34.31,0,0,0-11.1,25.3v9.22h0Z"/><path class="cls-12" d="M604.32,188.78h0c.71.33,1.4.68,2.09,1C605.72,189.46,605,189.11,604.32,188.78Z"/><path class="cls-12" d="M615.79,195.56l1.42,1.05Z"/><path class="cls-12" d="M590.24,225.75c.25-.1.5-.23.75-.34h-.75Z"/><path class="cls-12" d="M600.48,192.07a34.53,34.53,0,0,0-4.76,5.87h4.58a.77.77,0,0,1,.77.77v.95a.77.77,0,0,1-.77.77h-6a33.23,33.23,0,0,0-2.44,5.83h8.49a.78.78,0,0,1,.77.77v1a.78.78,0,0,1-.77.77h-9.16a33.85,33.85,0,0,0-.84,5.83h10a.77.77,0,0,1,.77.77v1a.78.78,0,0,1-.77.77H590.24v5.82h5.62a54.14,54.14,0,0,0,12.49-10H603.5a.77.77,0,0,1-.77-.77v-1a.77.77,0,0,1,.77-.76h7a55.94,55.94,0,0,0,4.23-5.91.69.69,0,0,1-.32.08h-11a.78.78,0,0,1-.77-.77v-1a.78.78,0,0,1,.77-.77h11a.78.78,0,0,1,.77.77v.91c.59-1,1.17-2,1.7-3,.28-.52.54-1,.8-1.58v-.47a.76.76,0,0,1,.55-.73l.18-.4-.68-.54-.56-.43-1.42-1.05-.52-.37,0,0v.35a.77.77,0,0,1-.77.77h-11a.77.77,0,0,1-.77-.77v-1a.78.78,0,0,1,.77-.77h9.7l-.41-.26-1.39-.88-.85-.51-1.19-.7-.88-.5-1.28-.69c-.26-.14-.52-.28-.79-.41-.69-.36-1.38-.71-2.09-1a33.55,33.55,0,0,0-3,2.46l-.31.3A.77.77,0,0,1,600.48,192.07Z"/><path class="cls-12" d="M611.4,192.63l1.39.88Z"/><path class="cls-12" d="M607.2,190.23l1.28.69Z"/><path class="cls-12" d="M615.27,195.19c-.63-.45-1.26-.88-1.91-1.31.63.42,1.25.84,1.86,1.27Z"/><path class="cls-12" d="M618.46,197.57l-.69-.53.68.54Z"/><path class="cls-12" d="M609.36,191.42l1.19.7C610.16,191.88,609.76,191.65,609.36,191.42Z"/><rect class="cls-13" x="617.72" y="222.91" width="12.49" height="2.5" rx="0.77"/><rect class="cls-13" x="617.72" y="231.24" width="12.49" height="2.5" rx="0.77"/><rect class="cls-13" x="617.72" y="239.56" width="12.49" height="2.5" rx="0.77"/><path class="cls-13" d="M619.16,198.14l.49.4Z"/><path class="cls-13" d="M621.21,199.86l.24.21Z"/><path class="cls-13" d="M618.49,197.94a.78.78,0,0,0-.22,0c-.18.4-.36.8-.55,1.2v.48a.76.76,0,0,0,.77.77h3.36l-.4-.36-.24-.21q-.78-.68-1.56-1.32l-.49-.4-.26-.2Z"/><path class="cls-13" d="M617.72,198.71v.47c.19-.4.37-.8.55-1.2A.76.76,0,0,0,617.72,198.71Z"/><path class="cls-13" d="M628.32,207l.33.37Z"/><path class="cls-13" d="M618.49,206.26a.77.77,0,0,0-.77.77v1a.77.77,0,0,0,.77.77h11a.72.72,0,0,0,.32-.08l-1.11-1.33-.33-.37-.64-.72Z"/><rect class="cls-13" x="617.72" y="214.59" width="12.49" height="2.5" rx="0.77"/><rect class="cls-13" x="617.72" y="247.89" width="12.49" height="2.5" rx="0.77"/><rect class="cls-13" x="617.72" y="256.22" width="12.49" height="2.5" rx="0.77"/><rect class="cls-13" x="617.72" y="264.54" width="12.49" height="2.5" rx="0.77"/><rect class="cls-13" x="617.72" y="272.87" width="12.49" height="2.5" rx="0.77"/><rect class="cls-13" x="617.72" y="281.19" width="12.49" height="2.5" rx="0.77"/><rect class="cls-13" x="617.72" y="289.52" width="12.49" height="2.5" rx="0.77"/><rect class="cls-13" x="617.72" y="297.84" width="12.49" height="2.5" rx="0.77"/><rect class="cls-13" x="617.72" y="306.17" width="12.49" height="2.5" rx="0.77"/><path class="cls-13" d="M630.16,316.46a.76.76,0,0,1-.61.51Z"/><path class="cls-13" d="M630.21,316.22v-1a.78.78,0,0,0-.77-.77h-11a.77.77,0,0,0-.77.77v1a.76.76,0,0,0,.77.77h11l.1,0,.62-.51A1,1,0,0,0,630.21,316.22Z"/><path class="cls-13" d="M621.67,322.82c-1.2.8-2.42,1.57-3.67,2.31a.74.74,0,0,1-.28-.58v-1a.76.76,0,0,1,.77-.77Z"/><path class="cls-13" d="M641.52,228.85c.12.3.23.6.34.91C641.75,229.45,641.64,229.15,641.52,228.85Z"/><path class="cls-13" d="M642.39,231.24l0-.11,0,.11Z"/><path class="cls-13" d="M634.31,228.74a.77.77,0,0,0-.77.77v1a.77.77,0,0,0,.77.77h8.08l0-.11c-.16-.46-.33-.92-.5-1.37s-.22-.61-.34-.91c0,0,0-.07,0-.11Z"/><path class="cls-13" d="M644.22,237.36c0-.1-.05-.2-.07-.29h0C644.17,237.16,644.19,237.26,644.22,237.36Z"/><path class="cls-13" d="M644.74,239.56c0-.23-.11-.47-.16-.7,0,.23.1.47.16.7Z"/><path class="cls-13" d="M634.31,237.07a.76.76,0,0,0-.77.77v.95a.76.76,0,0,0,.77.77h10.43c-.06-.23-.11-.47-.16-.7l-.36-1.5c0-.1-.05-.2-.08-.29Z"/><path class="cls-13" d="M646,247.25c0-.1,0-.2,0-.3l0,.32Z"/><path class="cls-13" d="M645.25,245.39H634.31a.77.77,0,0,0-.77.77v1a.77.77,0,0,0,.77.77h10.94a.75.75,0,0,0,.74-.62l0-.32c-.05-.45-.11-.89-.17-1.34A.8.8,0,0,0,645.25,245.39Z"/><path class="cls-13" d="M633.54,213.82a.77.77,0,0,0,.56.73l-.56-.84Z"/><path class="cls-13" d="M638.27,221.63l.43.82Z"/><path class="cls-13" d="M634.31,220.42a.76.76,0,0,0-.77.77v.95a.76.76,0,0,0,.77.77h4.61c-.08-.15-.15-.3-.22-.46l-.43-.82c-.21-.41-.42-.81-.64-1.21Z"/><rect class="cls-13" x="633.54" y="253.72" width="12.49" height="2.5" rx="0.77"/><rect class="cls-13" x="633.54" y="262.04" width="12.49" height="2.5" rx="0.77"/><rect class="cls-13" x="633.54" y="270.37" width="12.49" height="2.5" rx="0.77"/><rect class="cls-13" x="633.54" y="278.69" width="12.49" height="2.5" rx="0.77"/><rect class="cls-13" x="633.54" y="287.02" width="12.49" height="2.5" rx="0.77"/><rect class="cls-13" x="633.54" y="295.35" width="12.49" height="2.5" rx="0.77"/><path class="cls-13" d="M642.65,303.67c-.68.85-1.38,1.68-2.09,2.5h-6.25a.76.76,0,0,1-.77-.77v-1a.76.76,0,0,1,.77-.77Z"/><path class="cls-13" d="M635.08,312l-1.54,1.48v-.71a.78.78,0,0,1,.77-.77Z"/><rect class="cls-13" x="602.73" y="218.75" width="12.49" height="2.5" rx="0.77"/><rect class="cls-13" x="602.73" y="227.08" width="12.49" height="2.5" rx="0.77"/><rect class="cls-13" x="602.73" y="235.4" width="12.49" height="2.5" rx="0.77"/><path class="cls-13" d="M613.36,193.88l-.16-.11h0Z"/><path class="cls-13" d="M603.5,193.77a.78.78,0,0,0-.77.77v1a.77.77,0,0,0,.77.77h11a.77.77,0,0,0,.77-.77v-.35c-.61-.43-1.23-.85-1.86-1.27l-.16-.11Z"/><path class="cls-13" d="M615.22,203.83v-.05l-.45.74A.77.77,0,0,0,615.22,203.83Z"/><path class="cls-13" d="M614.45,202.1h-11a.78.78,0,0,0-.77.77v1a.78.78,0,0,0,.77.77h11a.69.69,0,0,0,.32-.08l.45-.74v-.91A.78.78,0,0,0,614.45,202.1Z"/><path class="cls-13" d="M614.45,212.92a.77.77,0,0,0,.77-.77v-1a.77.77,0,0,0-.77-.76h-3.91c-.71.85-1.44,1.69-2.19,2.49Z"/><path class="cls-13" d="M602.73,211.19v1a.77.77,0,0,0,.77.77h4.85c.75-.8,1.48-1.64,2.19-2.49h-7A.77.77,0,0,0,602.73,211.19Z"/><rect class="cls-13" x="602.73" y="243.73" width="12.49" height="2.5" rx="0.77"/><rect class="cls-13" x="602.73" y="252.05" width="12.49" height="2.5" rx="0.77"/><rect class="cls-13" x="602.73" y="260.38" width="12.49" height="2.5" rx="0.77"/><rect class="cls-13" x="602.73" y="268.7" width="12.49" height="2.5" rx="0.77"/><rect class="cls-13" x="602.73" y="277.03" width="12.49" height="2.5" rx="0.77"/><rect class="cls-13" x="602.73" y="285.35" width="12.49" height="2.5" rx="0.77"/><rect class="cls-13" x="602.73" y="293.68" width="12.49" height="2.5" rx="0.77"/><rect class="cls-13" x="602.73" y="302.01" width="12.49" height="2.5" rx="0.77"/><rect class="cls-13" x="602.73" y="310.33" width="12.49" height="2.5" rx="0.77"/><rect class="cls-13" x="602.73" y="318.66" width="12.49" height="2.5" rx="0.77"/><path class="cls-13" d="M601.07,208v-1a.78.78,0,0,0-.77-.77h-8.49c-.26.82-.48,1.66-.67,2.5h9.16A.78.78,0,0,0,601.07,208Z"/><path class="cls-13" d="M601.07,216.32v-1a.77.77,0,0,0-.77-.77h-10c0,.64-.06,1.29-.06,1.95v.55H600.3A.78.78,0,0,0,601.07,216.32Z"/><path class="cls-13" d="M600.3,225.41a.78.78,0,0,0,.77-.77v-1a.78.78,0,0,0-.77-.77h-4.44a54.56,54.56,0,0,1-4.87,2.5Z"/><path class="cls-13" d="M590.24,225.41H591a54.56,54.56,0,0,0,4.87-2.5h-5.62Z"/><path class="cls-13" d="M601,191.54c-.19.17-.37.35-.55.53A.77.77,0,0,0,601,191.54Z"/><path class="cls-13" d="M601.07,199.66v-.95a.77.77,0,0,0-.77-.77h-4.58c-.52.81-1,1.64-1.47,2.49h6A.77.77,0,0,0,601.07,199.66Z"/><path class="cls-13" d="M600.3,233.74a.78.78,0,0,0,.77-.77v-1a.78.78,0,0,0-.77-.77H590.24v2.5Z"/><path class="cls-13" d="M600.3,242.06a.77.77,0,0,0,.77-.77v-1a.78.78,0,0,0-.77-.77H590.24v2.5Z"/><path class="cls-13" d="M600.3,250.39a.78.78,0,0,0,.77-.77v-1a.78.78,0,0,0-.77-.77H590.24v2.5Z"/><path class="cls-13" d="M600.3,258.71a.77.77,0,0,0,.77-.77V257a.77.77,0,0,0-.77-.77H590.24v2.49Z"/><path class="cls-13" d="M600.3,267a.78.78,0,0,0,.77-.77v-1a.78.78,0,0,0-.77-.77H590.24V267Z"/><path class="cls-13" d="M600.3,275.36a.77.77,0,0,0,.77-.77v-.95a.77.77,0,0,0-.77-.77H590.24v2.49Z"/><path class="cls-13" d="M600.3,283.69a.78.78,0,0,0,.77-.77v-1a.78.78,0,0,0-.77-.77H590.24v2.5Z"/><path class="cls-13" d="M600.3,292a.78.78,0,0,0,.77-.77v-1a.77.77,0,0,0-.77-.77H590.24V292Z"/><path class="cls-13" d="M600.3,300.34a.78.78,0,0,0,.77-.77v-1a.78.78,0,0,0-.77-.77H590.24v2.5Z"/><path class="cls-13" d="M600.3,308.67a.78.78,0,0,0,.77-.77v-1a.77.77,0,0,0-.77-.77H590.24v2.5Z"/><path class="cls-13" d="M600.3,317a.77.77,0,0,0,.77-.77v-1a.78.78,0,0,0-.77-.77H590.24V317Z"/><path class="cls-13" d="M600.3,325.32a.78.78,0,0,0,.77-.77v-1a.78.78,0,0,0-.77-.77H590.24v2.5Z"/></svg>