<?xml version="1.0" encoding="utf-8"?>
<!-- Generator: Adobe Illustrator 23.1.1, SVG Export Plug-In . SVG Version: 6.00 Build 0)  -->
<svg version="1.1" id="Calque_1" xmlns="http://www.w3.org/2000/svg" xmlns:xlink="http://www.w3.org/1999/xlink" x="0px" y="0px"
	 viewBox="0 0 3762.2 1615" style="enable-background:new 0 0 3762.2 1615;" xml:space="preserve">
<style type="text/css">
	.st0{fill:#FFAE00;stroke:#FFFFFF;stroke-width:0.2516;stroke-miterlimit:10;}
	.st1{fill:#F1F1F1;}
	.st2{fill:#FFFFFF;}
	.st3{fill:#00B2AE;}
	.st4{fill:#FFCC97;}
	.st5{opacity:0.3;fill:#FFAE00;}
	.st6{fill:#FFB777;}
	.st7{fill:#303030;}
	.st8{fill:#CCCCCC;}
	.st9{clip-path:url(#SVGID_2_);}
	.st10{fill:#4C4C4C;}
	.st11{fill:#DDCCB7;}
	.st12{fill:#FFCE5C;}
	.st13{fill:#E8B350;}
	.st14{fill:#6A5C46;}
	.st15{fill:#E02229;}
	.st16{fill:#C5AA83;}
	.st17{fill:#E2AB41;}
	.st18{fill:#CD973A;}
	.st19{fill:#765A33;}
	.st20{fill:#C8321F;}
	.st21{fill:none;stroke:#E02229;stroke-width:8.5701;stroke-miterlimit:10;}
	.st22{fill:none;stroke:#E02229;stroke-width:8.9966;stroke-miterlimit:10;}
	.st23{fill:none;}
	.st24{fill:#FF9C45;}
	.st25{fill:#2DB17E;}
	.st26{fill:none;stroke:#E02229;stroke-width:8.5813;stroke-miterlimit:10;}
	.st27{fill:none;stroke:#303030;stroke-width:6;stroke-linecap:round;stroke-miterlimit:10;}
	.st28{fill:#FFAE00;}
	.st29{fill:#894F00;}
	.st30{fill:#A96600;}
	.st31{fill:#FBCA85;}
	.st32{clip-path:url(#SVGID_4_);}
	.st33{fill:#E39C10;}
	.st34{clip-path:url(#SVGID_6_);}
	.st35{fill:#00AA9D;}
	.st36{fill:#FFE1F1;}
	.st37{fill:#752994;}
	.st38{fill:none;stroke:#E02229;stroke-width:11.2888;stroke-linecap:square;stroke-miterlimit:10;}
	.st39{clip-path:url(#SVGID_8_);}
	.st40{fill:#84170E;}
	.st41{fill:#A00E0E;}
	.st42{fill:#680202;}
	.st43{fill:#FFAE00;stroke:#FFFFFF;stroke-width:0.2519;stroke-miterlimit:10;}
	.st44{fill:none;stroke:#E02229;stroke-width:8.1879;stroke-miterlimit:10;}
	.st45{fill:#FFAE00;stroke:#FFFFFF;stroke-width:0.3748;stroke-miterlimit:10;}
	.st46{fill:none;stroke:#333333;stroke-width:7;stroke-linecap:round;stroke-miterlimit:10;}
</style>
<rect x="0.2" y="0.2" class="st45" width="3761.8" height="1614.6"/>
<g>
	<g>
		<path class="st15" d="M2663.9,1079.2V1057h-8.9v-4.4h26.7v4.4h-8.9v22.2H2663.9z"/>
		<path class="st15" d="M2690.6,1074.8v-22.2h4.4v22.2H2690.6z M2695,1079.2v-4.4h8.9v-4.4h4.4v-17.8h8.9v22.2h-4.4v4.4H2695z"/>
		<path class="st15" d="M2743.9,1079.2v-26.7h22.2v4.4h4.4v17.8h-4.4v4.4H2743.9z M2757.2,1074.8V1057h-8.9v17.8H2757.2z"/>
		<path class="st15" d="M2783.9,1079.2v-4.4h4.4V1057h-4.4v-4.4h17.8v4.4h-4.4v17.8h4.4v4.4H2783.9z"/>
		<path class="st15" d="M2819.5,1079.2v-4.4h8.9v-8.9h-8.9v-4.4h-4.4v-4.4h4.4v-4.4h17.8v4.4h-13.3v4.4h13.3v4.4h4.4v8.9h-4.4v4.4
			H2819.5z M2815,1074.8v-4.4h4.4v4.4H2815z"/>
		<path class="st15" d="M2850.6,1079.2v-26.7h22.2v4.4h4.4v8.9h-4.4v4.4h-13.3v8.9H2850.6z M2868.3,1065.9v-8.9h-8.9v8.9H2868.3z"/>
		<path class="st15" d="M2890.6,1079.2v-4.4h-4.4V1057h4.4v-4.4h17.8v4.4h4.4v17.8h-4.4v4.4H2890.6z M2903.9,1074.8V1057h-8.9v17.8
			H2903.9z"/>
		<path class="st15" d="M2926.1,1079.2v-4.4h8.9v-8.9h-8.9v-4.4h-4.4v-4.4h4.4v-4.4h17.8v4.4h-13.3v4.4h13.3v4.4h4.4v8.9h-4.4v4.4
			H2926.1z M2921.7,1074.8v-4.4h4.4v4.4H2921.7z"/>
		<path class="st15" d="M2957.2,1079.2v-26.7h26.7v4.4h-17.8v4.4h13.3v4.4h-13.3v8.9h17.8v4.4H2957.2z"/>
		<path class="st15" d="M2997.2,1079.2v-4.4h8.9v-8.9h-8.9v-4.4h-4.4v-4.4h4.4v-4.4h17.8v4.4h-13.3v4.4h13.3v4.4h4.4v8.9h-4.4v4.4
			H2997.2z M2992.8,1074.8v-4.4h4.4v4.4H2992.8z"/>
		<path class="st15" d="M3046.1,1079.2v-26.7h22.2v4.4h4.4v17.8h-4.4v4.4H3046.1z M3059.4,1074.8V1057h-8.9v17.8H3059.4z"/>
		<path class="st15" d="M3081.6,1079.2v-26.7h26.7v4.4h-17.8v4.4h13.3v4.4h-13.3v8.9h17.8v4.4H3081.6z"/>
		<path class="st15" d="M3135,1079.2v-4.4h13.3v-8.9h-8.9v-4.4h8.9v-4.4H3135v-4.4h22.2v4.4h4.4v4.4h-4.4v4.4h4.4v8.9h-4.4v4.4H3135
			z"/>
		<path class="st15" d="M3188.3,1070.3v-17.8h4.4v17.8H3188.3z M3192.7,1074.8v-4.4h4.4v4.4H3192.7z M3197.2,1079.2v-4.4h4.4v-4.4
			h4.4v-17.8h8.9v17.8h-4.4v4.4h-4.4v4.4H3197.2z"/>
		<path class="st15" d="M3228.3,1079.2v-4.4h4.4V1057h-4.4v-4.4h17.8v4.4h-4.4v17.8h4.4v4.4H3228.3z"/>
		<path class="st15" d="M3259.4,1079.2v-26.7h26.7v4.4h-17.8v4.4h13.3v4.4h-13.3v8.9h17.8v4.4H3259.4z"/>
		<path class="st15" d="M3299.4,1079.2v-4.4h8.9v-8.9h-8.9v-4.4h-4.4v-4.4h4.4v-4.4h17.8v4.4h-13.3v4.4h13.3v4.4h4.4v8.9h-4.4v4.4
			H3299.4z M3294.9,1074.8v-4.4h4.4v4.4H3294.9z"/>
		<path class="st15" d="M2655,1121.9v-26.7h22.2v4.4h4.4v8.9h-4.4v4.4h-13.3v8.9H2655z M2672.8,1108.5v-8.9h-8.9v8.9H2672.8z"/>
		<path class="st15" d="M2690.6,1121.9v-22.2h4.4v8.9h8.9v-8.9h-8.9v-4.4h17.8v4.4h4.4v22.2h-13.3v-8.9h-8.9v8.9H2690.6z"/>
		<path class="st15" d="M2726.1,1121.9v-26.7h22.2v4.4h4.4v8.9h-4.4v4.4h-4.4v4.4h-4.4v-4.4h-4.4v8.9H2726.1z M2743.9,1108.5v-8.9
			h-8.9v8.9H2743.9z M2743.9,1121.9v-4.4h8.9v4.4H2743.9z"/>
		<path class="st15" d="M2779.5,1121.9v-26.7h4.4v4.4h4.4v4.4h4.4v4.4h4.4v-13.3h8.9v26.7h-8.9v-4.4h-4.4v-4.4h-4.4v-4.4h-4.4v13.3
			H2779.5z"/>
		<path class="st15" d="M2819.5,1121.9v-4.4h4.4v-17.8h-4.4v-4.4h17.8v4.4h-4.4v17.8h4.4v4.4H2819.5z"/>
		<path class="st15" d="M2850.6,1113v-17.8h4.4v17.8H2850.6z M2855,1117.4v-4.4h4.4v4.4H2855z M2859.5,1121.9v-4.4h4.4v-4.4h4.4
			v-17.8h8.9v17.8h-4.4v4.4h-4.4v4.4H2859.5z"/>
		<path class="st15" d="M2886.1,1121.9v-26.7h26.7v4.4H2895v4.4h13.3v4.4H2895v8.9h17.8v4.4H2886.1z"/>
		<path class="st15" d="M2921.7,1121.9v-22.2h4.4v8.9h8.9v-8.9h-8.9v-4.4h17.8v4.4h4.4v22.2H2935v-8.9h-8.9v8.9H2921.7z"/>
		<path class="st15" d="M2957.2,1117.4v-22.2h4.4v22.2H2957.2z M2961.7,1121.9v-4.4h8.9v-4.4h4.4v-17.8h8.9v22.2h-4.4v4.4H2961.7z"
			/>
		<path class="st15" d="M2992.8,1121.9v-8.9h8.9v8.9H2992.8z"/>
		<path class="st15" d="M3050.5,1121.9v-4.4h8.9v-8.9h-8.9v-4.4h-4.4v-4.4h4.4v-4.4h17.8v4.4H3055v4.4h13.3v4.4h4.4v8.9h-4.4v4.4
			H3050.5z M3046.1,1117.4v-4.4h4.4v4.4H3046.1z"/>
		<path class="st15" d="M3086.1,1121.9v-4.4h4.4v-17.8h-4.4v-4.4h17.8v4.4h-4.4v17.8h4.4v4.4H3086.1z"/>
		<path class="st15" d="M3143.9,1121.9v-22.2h-8.9v-4.4h26.7v4.4h-8.9v22.2H3143.9z"/>
		<path class="st15" d="M3170.5,1117.4v-22.2h4.4v22.2H3170.5z M3175,1121.9v-4.4h8.9v-4.4h4.4v-17.8h8.9v22.2h-4.4v4.4H3175z"/>
		<path class="st15" d="M2655,1164.5v-26.7h22.2v4.4h4.4v8.9h-4.4v4.4h-4.4v4.4h-4.4v-4.4h-4.4v8.9H2655z M2672.8,1151.2v-8.9h-8.9
			v8.9H2672.8z M2672.8,1164.5v-4.4h8.9v4.4H2672.8z"/>
		<path class="st15" d="M2690.6,1164.5v-22.2h4.4v8.9h8.9v-8.9h-8.9v-4.4h17.8v4.4h4.4v22.2h-13.3v-8.9h-8.9v8.9H2690.6z"/>
		<path class="st15" d="M2735,1164.5v-22.2h-8.9v-4.4h26.7v4.4h-8.9v22.2H2735z"/>
		<path class="st15" d="M2761.7,1164.5v-26.7h26.7v4.4h-17.8v4.4h13.3v4.4h-13.3v8.9h17.8v4.4H2761.7z"/>
		<path class="st15" d="M2801.7,1164.5v-4.4h8.9v-8.9h-8.9v-4.4h-4.4v-4.4h4.4v-4.4h17.8v4.4h-13.3v4.4h13.3v4.4h4.4v8.9h-4.4v4.4
			H2801.7z M2797.2,1160.1v-4.4h4.4v4.4H2797.2z"/>
		<path class="st15" d="M2859.5,1164.5v-22.2h-8.9v-4.4h26.7v4.4h-8.9v22.2H2859.5z"/>
		<path class="st15" d="M2886.1,1164.5v-26.7h22.2v4.4h4.4v8.9h-4.4v4.4h-4.4v4.4h-4.4v-4.4h-4.4v8.9H2886.1z M2903.9,1151.2v-8.9
			h-8.9v8.9H2903.9z M2903.9,1164.5v-4.4h8.9v4.4H2903.9z"/>
		<path class="st15" d="M2926.1,1164.5v-4.4h-4.4v-17.8h4.4v-4.4h17.8v4.4h4.4v17.8h-4.4v4.4H2926.1z M2939.4,1160.1v-17.8h-8.9
			v17.8H2939.4z"/>
		<path class="st15" d="M2961.7,1164.5v-4.4h4.4v-17.8h-4.4v-4.4h17.8v4.4h-4.4v17.8h4.4v4.4H2961.7z"/>
		<path class="st15" d="M2997.2,1164.5v-4.4h8.9v-8.9h-8.9v-4.4h-4.4v-4.4h4.4v-4.4h17.8v4.4h-13.3v4.4h13.3v4.4h4.4v8.9h-4.4v4.4
			H2997.2z M2992.8,1160.1v-4.4h4.4v4.4H2992.8z"/>
		<path class="st15" d="M3046.1,1164.5v-26.7h26.7v4.4H3055v8.9h13.3v4.4H3055v8.9H3046.1z"/>
		<path class="st15" d="M3086.1,1164.5v-4.4h-4.4v-17.8h4.4v-4.4h17.8v4.4h4.4v17.8h-4.4v4.4H3086.1z M3099.4,1160.1v-17.8h-8.9
			v17.8H3099.4z"/>
		<path class="st15" d="M3121.6,1164.5v-4.4h4.4v-17.8h-4.4v-4.4h17.8v4.4h-4.4v17.8h4.4v4.4H3121.6z"/>
		<path class="st15" d="M3157.2,1164.5v-4.4h8.9v-8.9h-8.9v-4.4h-4.4v-4.4h4.4v-4.4h17.8v4.4h-13.3v4.4h13.3v4.4h4.4v8.9h-4.4v4.4
			H3157.2z M3152.7,1160.1v-4.4h4.4v4.4H3152.7z"/>
		<path class="st15" d="M3215,1164.5v-22.2h-8.9v-4.4h26.7v4.4h-8.9v22.2H3215z"/>
		<path class="st15" d="M3246.1,1164.5v-4.4h-4.4v-17.8h4.4v-4.4h17.8v4.4h4.4v17.8h-4.4v4.4H3246.1z M3259.4,1160.1v-17.8h-8.9
			v17.8H3259.4z"/>
		<path class="st15" d="M3277.2,1164.5v-26.7h4.4v4.4h4.4v4.4h4.4v4.4h4.4v-13.3h8.9v26.7h-8.9v-4.4h-4.4v-4.4h-4.4v-4.4h-4.4v13.3
			H3277.2z"/>
		<path class="st15" d="M2663.9,1207.2V1185h-8.9v-4.4h26.7v4.4h-8.9v22.2H2663.9z"/>
		<path class="st15" d="M2695,1207.2v-4.4h4.4V1185h-4.4v-4.4h17.8v4.4h-4.4v17.8h4.4v4.4H2695z"/>
		<path class="st15" d="M2726.1,1207.2v-26.7h22.2v4.4h4.4v8.9h-4.4v4.4h-4.4v4.4h-4.4v-4.4h-4.4v8.9H2726.1z M2743.9,1193.9v-8.9
			h-8.9v8.9H2743.9z M2743.9,1207.2v-4.4h8.9v4.4H2743.9z"/>
		<path class="st15" d="M2770.6,1207.2v-4.4h-4.4v-8.9h8.9v13.3H2770.6z M2766.1,1211.6v-4.4h4.4v4.4H2766.1z"/>
		<path class="st15" d="M2815,1207.2v-26.7h8.9v22.2h17.8v4.4H2815z"/>
		<path class="st15" d="M2850.6,1207.2V1185h4.4v8.9h8.9v-8.9h-8.9v-4.4h17.8v4.4h4.4v22.2h-13.3v-8.9h-8.9v8.9H2850.6z"/>
		<path class="st15" d="M2903.9,1207.2v-26.7h22.2v4.4h4.4v8.9h-4.4v4.4h-13.3v8.9H2903.9z M2921.7,1193.9v-8.9h-8.9v8.9H2921.7z"/>
		<path class="st15" d="M2939.4,1207.2V1185h4.4v8.9h8.9v-8.9h-8.9v-4.4h17.8v4.4h4.4v22.2h-13.3v-8.9h-8.9v8.9H2939.4z"/>
		<path class="st15" d="M2975,1207.2v-26.7h22.2v4.4h4.4v8.9h-4.4v4.4h-4.4v4.4h-4.4v-4.4h-4.4v8.9H2975z M2992.8,1193.9v-8.9h-8.9
			v8.9H2992.8z M2992.8,1207.2v-4.4h8.9v4.4H2992.8z"/>
		<path class="st15" d="M3019.4,1207.2V1185h-8.9v-4.4h26.7v4.4h-8.9v22.2H3019.4z"/>
		<path class="st15" d="M3050.5,1207.2v-4.4h4.4V1185h-4.4v-4.4h17.8v4.4h-4.4v17.8h4.4v4.4H3050.5z"/>
		<path class="st15" d="M3081.6,1207.2v-26.7h26.7v4.4h-17.8v4.4h13.3v4.4h-13.3v8.9h17.8v4.4H3081.6z"/>
		<path class="st15" d="M3135,1207.2v-26.7h26.7v4.4h-17.8v4.4h13.3v4.4h-13.3v8.9h17.8v4.4H3135z"/>
		<path class="st15" d="M3175,1207.2v-4.4h8.9v-8.9h-8.9v-4.4h-4.4v-4.4h4.4v-4.4h17.8v4.4h-13.3v4.4h13.3v4.4h4.4v8.9h-4.4v4.4
			H3175z M3170.5,1202.7v-4.4h4.4v4.4H3170.5z"/>
		<path class="st15" d="M3215,1207.2V1185h-8.9v-4.4h26.7v4.4h-8.9v22.2H3215z"/>
		<path class="st15" d="M2655,1249.8v-26.7h26.7v4.4h-17.8v8.9h13.3v4.4h-13.3v8.9H2655z"/>
		<path class="st15" d="M2695,1249.8v-4.4h4.4v-17.8h-4.4v-4.4h17.8v4.4h-4.4v17.8h4.4v4.4H2695z"/>
		<path class="st15" d="M2726.1,1249.8v-26.7h4.4v4.4h4.4v4.4h4.4v4.4h4.4v-13.3h8.9v26.7h-8.9v-4.4h-4.4v-4.4h-4.4v-4.4h-4.4v13.3
			H2726.1z"/>
		<path class="st15" d="M2766.1,1249.8v-4.4h4.4v-17.8h-4.4v-4.4h17.8v4.4h-4.4v17.8h4.4v4.4H2766.1z"/>
		<path class="st15" d="M2797.2,1249.8v-26.7h26.7v4.4h-17.8v4.4h13.3v4.4h-13.3v8.9h17.8v4.4H2797.2z"/>
		<path class="st15" d="M2832.8,1249.8v-8.9h8.9v8.9H2832.8z"/>
		<path class="st15" d="M2886.1,1249.8v-22.2h4.4v8.9h8.9v-8.9h-8.9v-4.4h17.8v4.4h4.4v22.2h-13.3v-8.9h-8.9v8.9H2886.1z"/>
		<path class="st15" d="M2930.6,1249.8v-22.2h-8.9v-4.4h26.7v4.4h-8.9v22.2H2930.6z"/>
		<path class="st15" d="M2966.1,1249.8v-22.2h-8.9v-4.4h26.7v4.4h-8.9v22.2H2966.1z"/>
		<path class="st15" d="M2992.8,1249.8v-26.7h26.7v4.4h-17.8v4.4h13.3v4.4h-13.3v8.9h17.8v4.4H2992.8z"/>
		<path class="st15" d="M3028.3,1249.8v-26.7h4.4v4.4h4.4v4.4h4.4v4.4h4.4v-13.3h8.9v26.7h-8.9v-4.4h-4.4v-4.4h-4.4v-4.4h-4.4v13.3
			H3028.3z"/>
		<path class="st15" d="M3072.8,1249.8v-22.2h-8.9v-4.4h26.7v4.4h-8.9v22.2H3072.8z"/>
		<path class="st15" d="M3103.9,1249.8v-4.4h4.4v-17.8h-4.4v-4.4h17.8v4.4h-4.4v17.8h4.4v4.4H3103.9z"/>
		<path class="st15" d="M3139.4,1249.8v-4.4h-4.4v-17.8h4.4v-4.4h17.8v4.4h4.4v17.8h-4.4v4.4H3139.4z M3152.7,1245.4v-17.8h-8.9
			v17.8H3152.7z"/>
		<path class="st15" d="M3170.5,1249.8v-26.7h4.4v4.4h4.4v4.4h4.4v4.4h4.4v-13.3h8.9v26.7h-8.9v-4.4h-4.4v-4.4h-4.4v-4.4h-4.4v13.3
			H3170.5z"/>
		<path class="st15" d="M2659.5,1292.5v-4.4h-4.4v-17.8h4.4v-4.4h17.8v4.4h4.4v4.4h-8.9v-4.4h-8.9v17.8h8.9v-4.4h8.9v4.4h-4.4v4.4
			H2659.5z"/>
		<path class="st15" d="M2690.6,1292.5v-26.7h26.7v4.4h-17.8v4.4h13.3v4.4h-13.3v8.9h17.8v4.4H2690.6z"/>
		<path class="st15" d="M2726.1,1292.5v-26.7h22.2v4.4h4.4v8.9h-4.4v4.4h-4.4v4.4h-4.4v-4.4h-4.4v8.9H2726.1z M2743.9,1279.2v-8.9
			h-8.9v8.9H2743.9z M2743.9,1292.5v-4.4h8.9v4.4H2743.9z"/>
		<path class="st15" d="M2770.6,1292.5v-22.2h-8.9v-4.4h26.7v4.4h-8.9v22.2H2770.6z"/>
		<path class="st15" d="M2797.2,1292.5v-22.2h4.4v8.9h8.9v-8.9h-8.9v-4.4h17.8v4.4h4.4v22.2h-13.3v-8.9h-8.9v8.9H2797.2z"/>
		<path class="st15" d="M2837.2,1292.5v-4.4h4.4v-17.8h-4.4v-4.4h17.8v4.4h-4.4v17.8h4.4v4.4H2837.2z"/>
		<path class="st15" d="M2868.3,1292.5v-26.7h4.4v4.4h4.4v4.4h4.4v4.4h4.4v-13.3h8.9v26.7h-8.9v-4.4h-4.4v-4.4h-4.4v-4.4h-4.4v13.3
			H2868.3z"/>
		<path class="st15" d="M2903.9,1292.5v-26.7h26.7v4.4h-17.8v4.4h13.3v4.4h-13.3v8.9h17.8v4.4H2903.9z"/>
		<path class="st15" d="M2957.2,1292.5v-26.7h22.2v4.4h4.4v8.9h-4.4v4.4h-13.3v8.9H2957.2z M2975,1279.2v-8.9h-8.9v8.9H2975z"/>
		<path class="st15" d="M2992.8,1292.5v-26.7h26.7v4.4h-17.8v4.4h13.3v4.4h-13.3v8.9h17.8v4.4H2992.8z"/>
		<path class="st15" d="M3037.2,1292.5v-22.2h-8.9v-4.4h26.7v4.4h-8.9v22.2H3037.2z"/>
		<path class="st15" d="M3068.3,1292.5v-4.4h4.4v-17.8h-4.4v-4.4h17.8v4.4h-4.4v17.8h4.4v4.4H3068.3z"/>
		<path class="st15" d="M3108.3,1292.5v-22.2h-8.9v-4.4h26.7v4.4h-8.9v22.2H3108.3z"/>
		<path class="st15" d="M3135,1292.5v-26.7h26.7v4.4h-17.8v4.4h13.3v4.4h-13.3v8.9h17.8v4.4H3135z"/>
		<path class="st15" d="M2655,1335.2v-26.7h22.2v4.4h4.4v8.9h-4.4v4.4h-13.3v8.9H2655z M2672.8,1321.8v-8.9h-8.9v8.9H2672.8z"/>
		<path class="st15" d="M2690.6,1335.2v-26.7h26.7v4.4h-17.8v4.4h13.3v4.4h-13.3v8.9h17.8v4.4H2690.6z"/>
		<path class="st15" d="M2726.1,1335.2v-26.7h22.2v4.4h4.4v8.9h-4.4v4.4h-4.4v4.4h-4.4v-4.4h-4.4v8.9H2726.1z M2743.9,1321.8v-8.9
			h-8.9v8.9H2743.9z M2743.9,1335.2v-4.4h8.9v4.4H2743.9z"/>
		<path class="st15" d="M2761.7,1335.2v-26.7h22.2v4.4h4.4v8.9h-4.4v4.4h-4.4v4.4h-4.4v-4.4h-4.4v8.9H2761.7z M2779.5,1321.8v-8.9
			h-8.9v8.9H2779.5z M2779.5,1335.2v-4.4h8.9v4.4H2779.5z"/>
		<path class="st15" d="M2797.2,1330.7v-22.2h4.4v22.2H2797.2z M2801.7,1335.2v-4.4h8.9v-4.4h4.4v-17.8h8.9v22.2h-4.4v4.4H2801.7z"
			/>
		<path class="st15" d="M2837.2,1335.2v-4.4h-4.4v-17.8h4.4v-4.4h17.8v4.4h4.4v4.4h-8.9v-4.4h-8.9v17.8h8.9v-4.4h8.9v4.4h-4.4v4.4
			H2837.2z"/>
		<path class="st15" d="M2868.3,1335.2v-26.7h4.4v8.9h13.3v-8.9h8.9v26.7h-8.9v-13.3h-13.3v13.3H2868.3z"/>
		<path class="st15" d="M2903.9,1335.2v-26.7h26.7v4.4h-17.8v4.4h13.3v4.4h-13.3v8.9h17.8v4.4H2903.9z"/>
		<path class="st15" d="M2957.2,1335.2v-26.7h22.2v4.4h4.4v8.9h-4.4v4.4h-13.3v8.9H2957.2z M2975,1321.8v-8.9h-8.9v8.9H2975z"/>
		<path class="st15" d="M2992.8,1335.2v-26.7h26.7v4.4h-17.8v4.4h13.3v4.4h-13.3v8.9h17.8v4.4H2992.8z"/>
		<path class="st15" d="M3028.3,1330.7v-22.2h4.4v22.2H3028.3z M3032.8,1335.2v-4.4h8.9v-4.4h4.4v-17.8h8.9v22.2h-4.4v4.4H3032.8z"
			/>
		<path class="st15" d="M3063.9,1326.3v-17.8h4.4v17.8H3063.9z M3068.3,1330.7v-4.4h4.4v4.4H3068.3z M3072.8,1335.2v-4.4h4.4v-4.4
			h4.4v-17.8h8.9v17.8h-4.4v4.4h-4.4v4.4H3072.8z"/>
		<path class="st15" d="M3099.4,1335.2v-26.7h26.7v4.4h-17.8v4.4h13.3v4.4h-13.3v8.9h17.8v4.4H3099.4z"/>
		<path class="st15" d="M3135,1335.2v-26.7h4.4v4.4h4.4v4.4h4.4v4.4h4.4v-13.3h8.9v26.7h-8.9v-4.4h-4.4v-4.4h-4.4v-4.4h-4.4v13.3
			H3135z"/>
		<path class="st15" d="M3179.4,1335.2v-22.2h-8.9v-4.4h26.7v4.4h-8.9v22.2H3179.4z"/>
		<path class="st15" d="M3232.7,1335.2v-22.2h-8.9v-4.4h26.7v4.4h-8.9v22.2H3232.7z"/>
		<path class="st15" d="M3259.4,1335.2v-26.7h26.7v4.4h-17.8v4.4h13.3v4.4h-13.3v8.9h17.8v4.4H3259.4z"/>
		<path class="st15" d="M2655,1377.8v-26.7h26.7v4.4h-17.8v8.9h13.3v4.4h-13.3v8.9H2655z"/>
		<path class="st15" d="M2690.6,1377.8v-22.2h4.4v8.9h8.9v-8.9h-8.9v-4.4h17.8v4.4h4.4v22.2h-13.3v-8.9h-8.9v8.9H2690.6z"/>
		<path class="st15" d="M2730.6,1377.8v-4.4h4.4v-17.8h-4.4v-4.4h17.8v4.4h-4.4v17.8h4.4v4.4H2730.6z"/>
		<path class="st15" d="M2761.7,1377.8v-26.7h22.2v4.4h4.4v8.9h-4.4v4.4h-4.4v4.4h-4.4v-4.4h-4.4v8.9H2761.7z M2779.5,1364.5v-8.9
			h-8.9v8.9H2779.5z M2779.5,1377.8v-4.4h8.9v4.4H2779.5z"/>
		<path class="st15" d="M2797.2,1377.8v-26.7h26.7v4.4h-17.8v4.4h13.3v4.4h-13.3v8.9h17.8v4.4H2797.2z"/>
		<path class="st15" d="M2855,1377.8v-4.4h-4.4v-17.8h4.4v-4.4h17.8v4.4h4.4v4.4h-8.9v-4.4h-8.9v17.8h8.9v-4.4h-4.4v-4.4h13.3v13.3
			H2855z"/>
		<path class="st15" d="M2886.1,1377.8v-22.2h4.4v8.9h8.9v-8.9h-8.9v-4.4h17.8v4.4h4.4v22.2h-13.3v-8.9h-8.9v8.9H2886.1z"/>
		<path class="st15" d="M2926.1,1377.8v-4.4h-4.4v-17.8h4.4v-4.4h17.8v4.4h4.4v4.4h-8.9v-4.4h-8.9v17.8h8.9v-4.4h-4.4v-4.4h13.3
			v13.3H2926.1z"/>
		<path class="st15" d="M2957.2,1377.8v-26.7h4.4v4.4h4.4v4.4h4.4v4.4h4.4v-13.3h8.9v26.7h-8.9v-4.4h-4.4v-4.4h-4.4v-4.4h-4.4v13.3
			H2957.2z"/>
		<path class="st15" d="M2992.8,1377.8v-26.7h26.7v4.4h-17.8v4.4h13.3v4.4h-13.3v8.9h17.8v4.4H2992.8z"/>
		<path class="st15" d="M3028.3,1377.8v-26.7h22.2v4.4h4.4v8.9h-4.4v4.4h-4.4v4.4h-4.4v-4.4h-4.4v8.9H3028.3z M3046.1,1364.5v-8.9
			h-8.9v8.9H3046.1z M3046.1,1377.8v-4.4h8.9v4.4H3046.1z"/>
		<path class="st15" d="M3081.6,1377.8v-26.7h22.2v4.4h4.4v17.8h-4.4v4.4H3081.6z M3095,1373.4v-17.8h-8.9v17.8H3095z"/>
		<path class="st15" d="M3117.2,1377.8v-26.7h26.7v4.4h-17.8v4.4h13.3v4.4h-13.3v8.9h17.8v4.4H3117.2z"/>
		<path class="st15" d="M3157.2,1377.8v-4.4h8.9v-8.9h-8.9v-4.4h-4.4v-4.4h4.4v-4.4h17.8v4.4h-13.3v4.4h13.3v4.4h4.4v8.9h-4.4v4.4
			H3157.2z M3152.7,1373.4v-4.4h4.4v4.4H3152.7z"/>
		<path class="st15" d="M3206.1,1368.9v-17.8h4.4v17.8H3206.1z M3210.5,1373.4v-4.4h4.4v4.4H3210.5z M3215,1377.8v-4.4h4.4v-4.4h4.4
			v-17.8h8.9v17.8h-4.4v4.4h-4.4v4.4H3215z"/>
		<path class="st15" d="M3246.1,1377.8v-4.4h4.4v-17.8h-4.4v-4.4h17.8v4.4h-4.4v17.8h4.4v4.4H3246.1z"/>
		<path class="st15" d="M3277.2,1377.8v-26.7h26.7v4.4h-17.8v4.4h13.3v4.4h-13.3v8.9h17.8v4.4H3277.2z"/>
		<path class="st15" d="M3317.2,1377.8v-4.4h8.9v-8.9h-8.9v-4.4h-4.4v-4.4h4.4v-4.4h17.8v4.4h-13.3v4.4h13.3v4.4h4.4v8.9h-4.4v4.4
			H3317.2z M3312.7,1373.4v-4.4h4.4v4.4H3312.7z"/>
		<path class="st15" d="M2659.5,1420.5v-4.4h8.9v-8.9h-8.9v-4.4h-4.4v-4.4h4.4v-4.4h17.8v4.4h-13.3v4.4h13.3v4.4h4.4v8.9h-4.4v4.4
			H2659.5z M2655,1416v-4.4h4.4v4.4H2655z"/>
		<path class="st15" d="M2690.6,1416v-22.2h4.4v22.2H2690.6z M2695,1420.5v-4.4h8.9v-4.4h4.4v-17.8h8.9v22.2h-4.4v4.4H2695z"/>
		<path class="st15" d="M2726.1,1420.5v-26.7h22.2v4.4h4.4v8.9h-4.4v4.4H2735v8.9H2726.1z M2743.9,1407.2v-8.9h-8.9v8.9H2743.9z"/>
		<path class="st15" d="M2761.7,1420.5v-26.7h22.2v4.4h4.4v8.9h-4.4v4.4h-13.3v8.9H2761.7z M2779.5,1407.2v-8.9h-8.9v8.9H2779.5z"/>
		<path class="st15" d="M2797.2,1420.5v-26.7h8.9v22.2h17.8v4.4H2797.2z"/>
		<path class="st15" d="M2832.8,1420.5v-26.7h26.7v4.4h-17.8v4.4h13.3v4.4h-13.3v8.9h17.8v4.4H2832.8z"/>
		<path class="st15" d="M2868.3,1420.5v-26.7h4.4v4.4h4.4v4.4h4.4v-4.4h4.4v-4.4h8.9v26.7h-8.9v-13.3h-4.4v4.4h-4.4v-4.4h-4.4v13.3
			H2868.3z"/>
		<path class="st15" d="M2903.9,1420.5v-26.7h26.7v4.4h-17.8v4.4h13.3v4.4h-13.3v8.9h17.8v4.4H2903.9z"/>
		<path class="st15" d="M2939.4,1420.5v-26.7h4.4v4.4h4.4v4.4h4.4v4.4h4.4v-13.3h8.9v26.7h-8.9v-4.4h-4.4v-4.4h-4.4v-4.4h-4.4v13.3
			H2939.4z"/>
		<path class="st15" d="M2983.9,1420.5v-22.2h-8.9v-4.4h26.7v4.4h-8.9v22.2H2983.9z"/>
		<path class="st15" d="M3010.5,1420.5v-22.2h4.4v8.9h8.9v-8.9h-8.9v-4.4h17.8v4.4h4.4v22.2h-13.3v-8.9h-8.9v8.9H3010.5z"/>
		<path class="st15" d="M3050.5,1420.5v-4.4h4.4v-17.8h-4.4v-4.4h17.8v4.4h-4.4v17.8h4.4v4.4H3050.5z"/>
		<path class="st15" d="M3081.6,1420.5v-26.7h22.2v4.4h4.4v8.9h-4.4v4.4h-4.4v4.4h-4.4v-4.4h-4.4v8.9H3081.6z M3099.4,1407.2v-8.9
			h-8.9v8.9H3099.4z M3099.4,1420.5v-4.4h8.9v4.4H3099.4z"/>
		<path class="st15" d="M3117.2,1420.5v-26.7h26.7v4.4h-17.8v4.4h13.3v4.4h-13.3v8.9h17.8v4.4H3117.2z"/>
		<path class="st15" d="M3157.2,1420.5v-4.4h8.9v-8.9h-8.9v-4.4h-4.4v-4.4h4.4v-4.4h17.8v4.4h-13.3v4.4h13.3v4.4h4.4v8.9h-4.4v4.4
			H3157.2z M3152.7,1416v-4.4h4.4v4.4H3152.7z"/>
		<path class="st15" d="M3215,1411.6v-17.8h13.3v17.8H3215z M3215,1420.5v-4.4h13.3v4.4H3215z"/>
	</g>
	<polygon class="st14" points="3267.8,525.8 3241.8,463.9 3244.6,346.7 3071.1,240.9 3019.2,269.2 2968.7,238.4 2790.4,335.7 
		2788,433.8 2726.6,540.2 2828.2,716.2 2921,716.2 3008.5,769.5 3186.9,672.2 3187.9,631.4 	"/>
	<g>
		<path class="st15" d="M1545.7,1079.2V1057h4.4v8.9h8.9v-8.9h-8.9v-4.4h17.8v4.4h4.4v22.2h-13.3v-8.9h-8.9v8.9H1545.7z"/>
		<path class="st15" d="M1585.7,1079.2v-4.4h4.4V1057h-4.4v-4.4h17.8v4.4h-4.4v17.8h4.4v4.4H1585.7z"/>
		<path class="st15" d="M1616.8,1079.2v-26.7h22.2v4.4h4.4v17.8h-4.4v4.4H1616.8z M1630.2,1074.8V1057h-8.9v17.8H1630.2z"/>
		<path class="st15" d="M1652.4,1079.2v-26.7h26.7v4.4h-17.8v4.4h13.3v4.4h-13.3v8.9h17.8v4.4H1652.4z"/>
		<path class="st15" d="M1692.4,1079.2v-4.4h8.9v-8.9h-8.9v-4.4h-4.4v-4.4h4.4v-4.4h17.8v4.4h-13.3v4.4h13.3v4.4h4.4v8.9h-4.4v4.4
			H1692.4z M1687.9,1074.8v-4.4h4.4v4.4H1687.9z"/>
		<path class="st15" d="M1750.2,1079.2V1057h-8.9v-4.4h26.7v4.4h-8.9v22.2H1750.2z"/>
		<path class="st15" d="M1781.3,1079.2v-4.4h-4.4V1057h4.4v-4.4h17.8v4.4h4.4v17.8h-4.4v4.4H1781.3z M1794.6,1074.8V1057h-8.9v17.8
			H1794.6z"/>
		<path class="st15" d="M1816.8,1079.2v-4.4h4.4V1057h-4.4v-4.4h17.8v4.4h-4.4v17.8h4.4v4.4H1816.8z"/>
		<path class="st15" d="M1865.7,1079.2v-26.7h22.2v4.4h4.4v17.8h-4.4v4.4H1865.7z M1879,1074.8V1057h-8.9v17.8H1879z"/>
		<path class="st15" d="M1901.2,1074.8v-22.2h4.4v22.2H1901.2z M1905.7,1079.2v-4.4h8.9v-4.4h4.4v-17.8h8.9v22.2h-4.4v4.4H1905.7z"
			/>
		<path class="st15" d="M1954.6,1070.3v-17.8h4.4v17.8H1954.6z M1959,1074.8v-4.4h4.4v4.4H1959z M1963.5,1079.2v-4.4h4.4v-4.4h4.4
			v-17.8h8.9v17.8h-4.4v4.4h-4.4v4.4H1963.5z"/>
		<path class="st15" d="M1994.6,1079.2v-4.4h4.4V1057h-4.4v-4.4h17.8v4.4h-4.4v17.8h4.4v4.4H1994.6z"/>
		<path class="st15" d="M2030.1,1079.2v-4.4h8.9v-8.9h-8.9v-4.4h-4.4v-4.4h4.4v-4.4h17.8v4.4h-13.3v4.4h13.3v4.4h4.4v8.9h-4.4v4.4
			H2030.1z M2025.7,1074.8v-4.4h4.4v4.4H2025.7z"/>
		<path class="st15" d="M2061.2,1079.2v-26.7h26.7v4.4h-17.8v4.4h13.3v4.4h-13.3v8.9h17.8v4.4H2061.2z"/>
		<path class="st15" d="M2096.8,1074.8v-22.2h4.4v22.2H2096.8z M2101.2,1079.2v-4.4h8.9v-4.4h4.4v-17.8h8.9v22.2h-4.4v4.4H2101.2z"
			/>
		<path class="st15" d="M2132.3,1079.2v-26.7h22.2v4.4h4.4v8.9h-4.4v4.4h-4.4v4.4h-4.4v-4.4h-4.4v8.9H2132.3z M2150.1,1065.9v-8.9
			h-8.9v8.9H2150.1z M2150.1,1079.2v-4.4h8.9v4.4H2150.1z"/>
		<path class="st15" d="M1545.7,1121.9v-26.7h22.2v4.4h4.4v8.9h-4.4v4.4h-13.3v8.9H1545.7z M1563.5,1108.5v-8.9h-8.9v8.9H1563.5z"/>
		<path class="st15" d="M1585.7,1121.9v-4.4h-4.4v-17.8h4.4v-4.4h17.8v4.4h4.4v17.8h-4.4v4.4H1585.7z M1599.1,1117.4v-17.8h-8.9
			v17.8H1599.1z"/>
		<path class="st15" d="M1616.8,1117.4v-22.2h4.4v22.2H1616.8z M1621.3,1121.9v-4.4h8.9v-4.4h4.4v-17.8h8.9v22.2h-4.4v4.4H1621.3z"
			/>
		<path class="st15" d="M1652.4,1121.9v-26.7h22.2v4.4h4.4v8.9h-4.4v4.4h-4.4v4.4h-4.4v-4.4h-4.4v8.9H1652.4z M1670.2,1108.5v-8.9
			h-8.9v8.9H1670.2z M1670.2,1121.9v-4.4h8.9v4.4H1670.2z"/>
		<path class="st15" d="M1705.7,1121.9v-22.2h4.4v8.9h8.9v-8.9h-8.9v-4.4h17.8v4.4h4.4v22.2h-13.3v-8.9h-8.9v8.9H1705.7z"/>
		<path class="st15" d="M1741.3,1121.9v-26.7h4.4v4.4h4.4v4.4h4.4v-4.4h4.4v-4.4h8.9v26.7h-8.9v-13.3h-4.4v4.4h-4.4v-4.4h-4.4v13.3
			H1741.3z"/>
		<path class="st15" d="M1776.8,1121.9v-26.7h26.7v4.4h-17.8v4.4h13.3v4.4h-13.3v8.9h17.8v4.4H1776.8z"/>
		<path class="st15" d="M1812.4,1121.9v-26.7h8.9v22.2h17.8v4.4H1812.4z"/>
		<path class="st15" d="M1852.4,1121.9v-4.4h4.4v-17.8h-4.4v-4.4h17.8v4.4h-4.4v17.8h4.4v4.4H1852.4z"/>
		<path class="st15" d="M1887.9,1121.9v-4.4h-4.4v-17.8h4.4v-4.4h17.8v4.4h4.4v17.8h-4.4v4.4H1887.9z M1901.2,1117.4v-17.8h-8.9
			v17.8H1901.2z"/>
		<path class="st15" d="M1919,1121.9v-26.7h22.2v4.4h4.4v8.9h-4.4v4.4h-4.4v4.4h-4.4v-4.4h-4.4v8.9H1919z M1936.8,1108.5v-8.9h-8.9
			v8.9H1936.8z M1936.8,1121.9v-4.4h8.9v4.4H1936.8z"/>
		<path class="st15" d="M1954.6,1121.9v-26.7h26.7v4.4h-17.8v4.4h13.3v4.4h-13.3v8.9h17.8v4.4H1954.6z"/>
		<path class="st15" d="M1990.1,1121.9v-26.7h22.2v4.4h4.4v8.9h-4.4v4.4h-4.4v4.4h-4.4v-4.4h-4.4v8.9H1990.1z M2007.9,1108.5v-8.9
			h-8.9v8.9H2007.9z M2007.9,1121.9v-4.4h8.9v4.4H2007.9z"/>
		<path class="st15" d="M2052.3,1121.9v-22.2h-8.9v-4.4h26.7v4.4h-8.9v22.2H2052.3z"/>
		<path class="st15" d="M2083.4,1121.9v-4.4h-4.4v-17.8h4.4v-4.4h17.8v4.4h4.4v17.8h-4.4v4.4H2083.4z M2096.8,1117.4v-17.8h-8.9
			v17.8H2096.8z"/>
		<path class="st15" d="M2114.5,1121.9v-26.7h4.4v4.4h4.4v4.4h4.4v4.4h4.4v-13.3h8.9v26.7h-8.9v-4.4h-4.4v-4.4h-4.4v-4.4h-4.4v13.3
			H2114.5z"/>
		<path class="st15" d="M1554.6,1164.5v-22.2h-8.9v-4.4h26.7v4.4h-8.9v22.2H1554.6z"/>
		<path class="st15" d="M1585.7,1164.5v-4.4h4.4v-17.8h-4.4v-4.4h17.8v4.4h-4.4v17.8h4.4v4.4H1585.7z"/>
		<path class="st15" d="M1616.8,1164.5v-26.7h22.2v4.4h4.4v8.9h-4.4v4.4h-4.4v4.4h-4.4v-4.4h-4.4v8.9H1616.8z M1634.6,1151.2v-8.9
			h-8.9v8.9H1634.6z M1634.6,1164.5v-4.4h8.9v4.4H1634.6z"/>
		<path class="st15" d="M1652.4,1164.5v-8.9h8.9v8.9H1652.4z"/>
		<path class="st15" d="M1705.7,1164.5v-22.2h4.4v8.9h8.9v-8.9h-8.9v-4.4h17.8v4.4h4.4v22.2h-13.3v-8.9h-8.9v8.9H1705.7z"/>
		<path class="st15" d="M1750.2,1164.5v-22.2h-8.9v-4.4h26.7v4.4h-8.9v22.2H1750.2z"/>
		<path class="st15" d="M1785.7,1164.5v-22.2h-8.9v-4.4h26.7v4.4h-8.9v22.2H1785.7z"/>
		<path class="st15" d="M1812.4,1164.5v-26.7h26.7v4.4h-17.8v4.4h13.3v4.4h-13.3v8.9h17.8v4.4H1812.4z"/>
		<path class="st15" d="M1847.9,1164.5v-26.7h4.4v4.4h4.4v4.4h4.4v4.4h4.4v-13.3h8.9v26.7h-8.9v-4.4h-4.4v-4.4h-4.4v-4.4h-4.4v13.3
			H1847.9z"/>
		<path class="st15" d="M1892.4,1164.5v-22.2h-8.9v-4.4h26.7v4.4h-8.9v22.2H1892.4z"/>
		<path class="st15" d="M1923.5,1164.5v-4.4h4.4v-17.8h-4.4v-4.4h17.8v4.4h-4.4v17.8h4.4v4.4H1923.5z"/>
		<path class="st15" d="M1959,1164.5v-4.4h-4.4v-17.8h4.4v-4.4h17.8v4.4h4.4v17.8h-4.4v4.4H1959z M1972.3,1160.1v-17.8h-8.9v17.8
			H1972.3z"/>
		<path class="st15" d="M1990.1,1164.5v-26.7h4.4v4.4h4.4v4.4h4.4v4.4h4.4v-13.3h8.9v26.7h-8.9v-4.4h-4.4v-4.4h-4.4v-4.4h-4.4v13.3
			H1990.1z"/>
		<path class="st15" d="M2034.6,1164.5v-4.4h-4.4v-8.9h8.9v13.3H2034.6z M2030.1,1169v-4.4h4.4v4.4H2030.1z"/>
		<path class="st15" d="M2083.4,1164.5v-4.4h4.4v-17.8h-4.4v-4.4h17.8v4.4h-4.4v17.8h4.4v4.4H2083.4z"/>
		<path class="st15" d="M2114.5,1164.5v-26.7h8.9v22.2h17.8v4.4H2114.5z"/>
		<path class="st15" d="M1545.7,1207.2v-26.7h26.7v4.4h-17.8v4.4h13.3v4.4h-13.3v8.9h17.8v4.4H1545.7z"/>
		<path class="st15" d="M1585.7,1207.2v-4.4h8.9v-8.9h-8.9v-4.4h-4.4v-4.4h4.4v-4.4h17.8v4.4h-13.3v4.4h13.3v4.4h4.4v8.9h-4.4v4.4
			H1585.7z M1581.3,1202.7v-4.4h4.4v4.4H1581.3z"/>
		<path class="st15" d="M1625.7,1207.2V1185h-8.9v-4.4h26.7v4.4h-8.9v22.2H1625.7z"/>
		<path class="st15" d="M1670.2,1207.2v-26.7h22.2v4.4h4.4v8.9h-4.4v4.4h-13.3v8.9H1670.2z M1687.9,1193.9v-8.9h-8.9v8.9H1687.9z"/>
		<path class="st15" d="M1705.7,1207.2v-26.7h8.9v22.2h17.8v4.4H1705.7z"/>
		<path class="st15" d="M1741.3,1202.7v-22.2h4.4v22.2H1741.3z M1745.7,1207.2v-4.4h8.9v-4.4h4.4v-17.8h8.9v22.2h-4.4v4.4H1745.7z"
			/>
		<path class="st15" d="M1781.3,1207.2v-4.4h8.9v-8.9h-8.9v-4.4h-4.4v-4.4h4.4v-4.4h17.8v4.4h-13.3v4.4h13.3v4.4h4.4v8.9h-4.4v4.4
			H1781.3z M1776.8,1202.7v-4.4h4.4v4.4H1776.8z"/>
		<path class="st15" d="M1830.1,1207.2v-26.7h22.2v4.4h4.4v17.8h-4.4v4.4H1830.1z M1843.5,1202.7V1185h-8.9v17.8H1843.5z"/>
		<path class="st15" d="M1870.1,1207.2v-4.4h4.4V1185h-4.4v-4.4h17.8v4.4h-4.4v17.8h4.4v4.4H1870.1z"/>
		<path class="st15" d="M1901.2,1207.2v-26.7h26.7v4.4h-17.8v8.9h13.3v4.4h-13.3v8.9H1901.2z"/>
		<path class="st15" d="M1936.8,1207.2v-26.7h26.7v4.4h-17.8v8.9h13.3v4.4h-13.3v8.9H1936.8z"/>
		<path class="st15" d="M1976.8,1207.2v-4.4h4.4V1185h-4.4v-4.4h17.8v4.4h-4.4v17.8h4.4v4.4H1976.8z"/>
		<path class="st15" d="M2012.3,1207.2v-4.4h-4.4V1185h4.4v-4.4h17.8v4.4h4.4v4.4h-8.9v-4.4h-8.9v17.8h8.9v-4.4h8.9v4.4h-4.4v4.4
			H2012.3z"/>
		<path class="st15" d="M2047.9,1207.2v-4.4h4.4V1185h-4.4v-4.4h17.8v4.4h-4.4v17.8h4.4v4.4H2047.9z"/>
		<path class="st15" d="M2079,1207.2v-26.7h8.9v22.2h17.8v4.4H2079z"/>
		<path class="st15" d="M2114.5,1207.2v-26.7h26.7v4.4h-17.8v4.4h13.3v4.4h-13.3v8.9h17.8v4.4H2114.5z"/>
		<path class="st15" d="M1545.7,1249.8v-26.7h22.2v4.4h4.4v17.8h-4.4v4.4H1545.7z M1559.1,1245.4v-17.8h-8.9v17.8H1559.1z"/>
		<path class="st15" d="M1581.3,1249.8v-26.7h26.7v4.4h-17.8v4.4h13.3v4.4h-13.3v8.9h17.8v4.4H1581.3z"/>
		<path class="st15" d="M1643.5,1249.8v-22.2h-8.9v-4.4h26.7v4.4h-8.9v22.2H1643.5z"/>
		<path class="st15" d="M1674.6,1249.8v-4.4h4.4v-17.8h-4.4v-4.4h17.8v4.4h-4.4v17.8h4.4v4.4H1674.6z"/>
		<path class="st15" d="M1705.7,1249.8v-26.7h22.2v4.4h4.4v8.9h-4.4v4.4h-4.4v4.4h-4.4v-4.4h-4.4v8.9H1705.7z M1723.5,1236.5v-8.9
			h-8.9v8.9H1723.5z M1723.5,1249.8v-4.4h8.9v4.4H1723.5z"/>
		<path class="st15" d="M1741.3,1249.8v-26.7h26.7v4.4h-17.8v4.4h13.3v4.4h-13.3v8.9h17.8v4.4H1741.3z"/>
		<path class="st15" d="M1776.8,1249.8v-26.7h22.2v4.4h4.4v8.9h-4.4v4.4h-4.4v4.4h-4.4v-4.4h-4.4v8.9H1776.8z M1794.6,1236.5v-8.9
			h-8.9v8.9H1794.6z M1794.6,1249.8v-4.4h8.9v4.4H1794.6z"/>
		<path class="st15" d="M1830.1,1249.8v-22.2h4.4v8.9h8.9v-8.9h-8.9v-4.4h17.8v4.4h4.4v22.2h-13.3v-8.9h-8.9v8.9H1830.1z"/>
		<path class="st15" d="M1865.7,1241v-17.8h4.4v17.8H1865.7z M1870.1,1245.4v-4.4h4.4v4.4H1870.1z M1874.6,1249.8v-4.4h4.4v-4.4h4.4
			v-17.8h8.9v17.8h-4.4v4.4h-4.4v4.4H1874.6z"/>
		<path class="st15" d="M1901.2,1249.8v-26.7h26.7v4.4h-17.8v4.4h13.3v4.4h-13.3v8.9h17.8v4.4H1901.2z"/>
		<path class="st15" d="M1941.2,1249.8v-4.4h-4.4v-17.8h4.4v-4.4h17.8v4.4h4.4v4.4h-8.9v-4.4h-8.9v17.8h8.9v-4.4h8.9v4.4h-4.4v4.4
			H1941.2z"/>
		<path class="st15" d="M1990.1,1245.4v-22.2h4.4v22.2H1990.1z M1994.6,1249.8v-4.4h8.9v-4.4h4.4v-17.8h8.9v22.2h-4.4v4.4H1994.6z"
			/>
		<path class="st15" d="M2025.7,1249.8v-26.7h4.4v4.4h4.4v4.4h4.4v4.4h4.4v-13.3h8.9v26.7h-8.9v-4.4h-4.4v-4.4h-4.4v-4.4h-4.4v13.3
			H2025.7z"/>
		<path class="st15" d="M2079,1249.8v-26.7h8.9v22.2h17.8v4.4H2079z"/>
		<path class="st15" d="M2114.5,1249.8v-22.2h4.4v8.9h8.9v-8.9h-8.9v-4.4h17.8v4.4h4.4v22.2h-13.3v-8.9h-8.9v8.9H2114.5z"/>
		<path class="st15" d="M2150.1,1249.8v-26.7h4.4v4.4h4.4v4.4h4.4v4.4h4.4v-13.3h8.9v26.7h-8.9v-4.4h-4.4v-4.4h-4.4v-4.4h-4.4v13.3
			H2150.1z"/>
		<path class="st15" d="M2190.1,1249.8v-4.4h-4.4v-17.8h4.4v-4.4h17.8v4.4h4.4v4.4h-8.9v-4.4h-8.9v17.8h8.9v-4.4h8.9v4.4h-4.4v4.4
			H2190.1z"/>
		<path class="st15" d="M2221.2,1249.8v-26.7h26.7v4.4h-17.8v4.4h13.3v4.4h-13.3v8.9h17.8v4.4H2221.2z"/>
	</g>
	<g>
		<g>
			<path class="st15" d="M1896.8,813.3c-149.9,0-271.9-122-271.9-271.9s122-271.9,271.9-271.9s271.9,122,271.9,271.9
				S2046.7,813.3,1896.8,813.3z M1896.8,332.4c-115.2,0-209,93.7-209,209s93.7,209,209,209c115.2,0,209-93.7,209-209
				S2012,332.4,1896.8,332.4z"/>
		</g>
		<g>
			<rect x="1879.4" y="301" class="st15" width="35.8" height="114"/>
		</g>
		<g>
			
				<rect x="1731.4" y="579" transform="matrix(0.6527 0.7576 -0.7576 0.6527 1089.3055 -1104.3748)" class="st15" width="35.8" height="114"/>
		</g>
		<g>
			<rect x="2040.8" y="579" transform="matrix(0.5 -0.866 0.866 0.5 478.5351 2100.8726)" class="st15" width="35.8" height="114"/>
		</g>
	</g>
	<g>
		<path class="st15" d="M422.8,1079.2v-26.7h8.9v22.2h17.8v4.4H422.8z"/>
		<path class="st15" d="M458.4,1079.2v-26.7H485v4.4h-17.8v4.4h13.3v4.4h-13.3v8.9H485v4.4H458.4z"/>
		<path class="st15" d="M498.3,1079.2v-4.4h8.9v-8.9h-8.9v-4.4h-4.4v-4.4h4.4v-4.4h17.8v4.4h-13.3v4.4h13.3v4.4h4.4v8.9h-4.4v4.4
			H498.3z M493.9,1074.8v-4.4h4.4v4.4H493.9z"/>
		<path class="st15" d="M547.2,1079.2v-26.7h22.2v4.4h4.4v8.9h-4.4v4.4h-13.3v8.9H547.2z M565,1065.9v-8.9h-8.9v8.9H565z"/>
		<path class="st15" d="M582.8,1079.2v-26.7h26.7v4.4h-17.8v4.4H605v4.4h-13.3v8.9h17.8v4.4H582.8z"/>
		<path class="st15" d="M627.2,1079.2V1057h-8.9v-4.4H645v4.4h-8.9v22.2H627.2z"/>
		<path class="st15" d="M658.3,1079.2v-4.4h4.4V1057h-4.4v-4.4h17.8v4.4h-4.4v17.8h4.4v4.4H658.3z"/>
		<path class="st15" d="M698.3,1079.2V1057h-8.9v-4.4h26.7v4.4h-8.9v22.2H698.3z"/>
		<path class="st15" d="M725,1079.2v-26.7h26.7v4.4h-17.8v4.4h13.3v4.4h-13.3v8.9h17.8v4.4H725z"/>
		<path class="st15" d="M765,1079.2v-4.4h8.9v-8.9H765v-4.4h-4.4v-4.4h4.4v-4.4h17.8v4.4h-13.3v4.4h13.3v4.4h4.4v8.9h-4.4v4.4H765z
			 M760.5,1074.8v-4.4h4.4v4.4H760.5z"/>
		<path class="st15" d="M813.9,1079.2v-26.7h22.2v4.4h4.4v8.9h-4.4v4.4h-13.3v8.9H813.9z M831.6,1065.9v-8.9h-8.9v8.9H831.6z"/>
		<path class="st15" d="M849.4,1079.2v-26.7h26.7v4.4h-17.8v4.4h13.3v4.4h-13.3v8.9h17.8v4.4H849.4z"/>
		<path class="st15" d="M884.9,1079.2v-26.7h22.2v4.4h4.4v8.9h-4.4v4.4h-4.4v4.4h-4.4v-4.4h-4.4v8.9H884.9z M902.7,1065.9v-8.9h-8.9
			v8.9H902.7z M902.7,1079.2v-4.4h8.9v4.4H902.7z"/>
		<path class="st15" d="M920.5,1079.2v-26.7h22.2v4.4h4.4v8.9h-4.4v4.4h-4.4v4.4h-4.4v-4.4h-4.4v8.9H920.5z M938.3,1065.9v-8.9h-8.9
			v8.9H938.3z M938.3,1079.2v-4.4h8.9v4.4H938.3z"/>
		<path class="st15" d="M956,1074.8v-22.2h4.4v22.2H956z M960.5,1079.2v-4.4h8.9v-4.4h4.4v-17.8h8.9v22.2h-4.4v4.4H960.5z"/>
		<path class="st15" d="M996,1079.2v-4.4h-4.4V1057h4.4v-4.4h17.8v4.4h4.4v4.4h-8.9v-4.4h-8.9v17.8h8.9v-4.4h8.9v4.4h-4.4v4.4H996z"
			/>
		<path class="st15" d="M1027.1,1079.2v-26.7h4.4v8.9h13.3v-8.9h8.9v26.7h-8.9v-13.3h-13.3v13.3H1027.1z"/>
		<path class="st15" d="M1062.7,1079.2v-26.7h26.7v4.4h-17.8v4.4h13.3v4.4h-13.3v8.9h17.8v4.4H1062.7z"/>
		<path class="st15" d="M1102.7,1079.2v-4.4h8.9v-8.9h-8.9v-4.4h-4.4v-4.4h4.4v-4.4h17.8v4.4h-13.3v4.4h13.3v4.4h4.4v8.9h-4.4v4.4
			H1102.7z M1098.2,1074.8v-4.4h4.4v4.4H1098.2z"/>
		<path class="st15" d="M422.8,1121.9v-22.2h4.4v8.9h8.9v-8.9h-8.9v-4.4H445v4.4h4.4v22.2h-13.3v-8.9h-8.9v8.9H422.8z"/>
		<path class="st15" d="M458.4,1121.9v-26.7h22.2v4.4h4.4v8.9h-4.4v4.4h-13.3v8.9H458.4z M476.1,1108.5v-8.9h-8.9v8.9H476.1z"/>
		<path class="st15" d="M493.9,1121.9v-26.7h22.2v4.4h4.4v8.9h-4.4v4.4h-13.3v8.9H493.9z M511.7,1108.5v-8.9h-8.9v8.9H511.7z"/>
		<path class="st15" d="M529.5,1121.9v-22.2h4.4v8.9h8.9v-8.9h-8.9v-4.4h17.8v4.4h4.4v22.2h-13.3v-8.9h-8.9v8.9H529.5z"/>
		<path class="st15" d="M565,1121.9v-26.7h22.2v4.4h4.4v8.9h-4.4v4.4h-4.4v4.4h-4.4v-4.4h-4.4v8.9H565z M582.8,1108.5v-8.9h-8.9v8.9
			H582.8z M582.8,1121.9v-4.4h8.9v4.4H582.8z"/>
		<path class="st15" d="M600.6,1121.9v-26.7h22.2v4.4h4.4v8.9h-4.4v4.4h-4.4v4.4h-4.4v-4.4h-4.4v8.9H600.6z M618.3,1108.5v-8.9h-8.9
			v8.9H618.3z M618.3,1121.9v-4.4h8.9v4.4H618.3z"/>
		<path class="st15" d="M636.1,1121.9v-22.2h4.4v8.9h8.9v-8.9h-8.9v-4.4h17.8v4.4h4.4v22.2h-13.3v-8.9h-8.9v8.9H636.1z"/>
		<path class="st15" d="M676.1,1121.9v-4.4h4.4v-17.8h-4.4v-4.4h17.8v4.4h-4.4v17.8h4.4v4.4H676.1z"/>
		<path class="st15" d="M711.6,1121.9v-4.4h8.9v-8.9h-8.9v-4.4h-4.4v-4.4h4.4v-4.4h17.8v4.4h-13.3v4.4h13.3v4.4h4.4v8.9h-4.4v4.4
			H711.6z M707.2,1117.4v-4.4h4.4v4.4H707.2z"/>
		<path class="st15" d="M747.2,1121.9v-4.4h8.9v-8.9h-8.9v-4.4h-4.4v-4.4h4.4v-4.4H765v4.4h-13.3v4.4H765v4.4h4.4v8.9H765v4.4H747.2
			z M742.7,1117.4v-4.4h4.4v4.4H742.7z"/>
		<path class="st15" d="M778.3,1121.9v-26.7H805v4.4h-17.8v4.4h13.3v4.4h-13.3v8.9H805v4.4H778.3z"/>
		<path class="st15" d="M813.8,1121.9v-26.7h4.4v4.4h4.4v4.4h4.4v4.4h4.4v-13.3h8.9v26.7h-8.9v-4.4h-4.4v-4.4h-4.4v-4.4h-4.4v13.3
			H813.8z"/>
		<path class="st15" d="M858.3,1121.9v-22.2h-8.9v-4.4h26.7v4.4h-8.9v22.2H858.3z"/>
		<path class="st15" d="M902.7,1121.9v-26.7h8.9v22.2h17.8v4.4H902.7z"/>
		<path class="st15" d="M938.3,1121.9v-26.7h26.7v4.4h-17.8v4.4h13.3v4.4h-13.3v8.9h17.8v4.4H938.3z"/>
		<path class="st15" d="M978.3,1121.9v-4.4h8.9v-8.9h-8.9v-4.4h-4.4v-4.4h4.4v-4.4H996v4.4h-13.3v4.4H996v4.4h4.4v8.9H996v4.4H978.3
			z M973.8,1117.4v-4.4h4.4v4.4H973.8z"/>
		<path class="st15" d="M1027.1,1117.4v-22.2h4.4v22.2H1027.1z M1031.6,1121.9v-4.4h8.9v-4.4h4.4v-17.8h8.9v22.2h-4.4v4.4H1031.6z"
			/>
		<path class="st15" d="M1062.7,1121.9v-26.7h4.4v4.4h4.4v4.4h4.4v4.4h4.4v-13.3h8.9v26.7h-8.9v-4.4h-4.4v-4.4h-4.4v-4.4h-4.4v13.3
			H1062.7z"/>
		<path class="st15" d="M1098.2,1121.9v-26.7h26.7v4.4h-17.8v4.4h13.3v4.4h-13.3v8.9h17.8v4.4H1098.2z"/>
		<path class="st15" d="M1138.2,1121.9v-4.4h8.9v-8.9h-8.9v-4.4h-4.4v-4.4h4.4v-4.4h17.8v4.4h-13.3v4.4h13.3v4.4h4.4v8.9h-4.4v4.4
			H1138.2z M1133.8,1117.4v-4.4h4.4v4.4H1133.8z"/>
		<path class="st15" d="M422.8,1164.5v-22.2h4.4v8.9h8.9v-8.9h-8.9v-4.4H445v4.4h4.4v22.2h-13.3v-8.9h-8.9v8.9H422.8z"/>
		<path class="st15" d="M458.4,1164.5v-26.7h22.2v4.4h4.4v8.9h-4.4v4.4h-13.3v8.9H458.4z M476.1,1151.2v-8.9h-8.9v8.9H476.1z"/>
		<path class="st15" d="M493.9,1164.5v-26.7h22.2v4.4h4.4v8.9h-4.4v4.4h-4.4v4.4h-4.4v-4.4h-4.4v8.9H493.9z M511.7,1151.2v-8.9h-8.9
			v8.9H511.7z M511.7,1164.5v-4.4h8.9v4.4H511.7z"/>
		<path class="st15" d="M529.5,1164.5v-26.7h26.7v4.4h-17.8v4.4h13.3v4.4h-13.3v8.9h17.8v4.4H529.5z"/>
		<path class="st15" d="M569.4,1164.5v-4.4h8.9v-8.9h-8.9v-4.4H565v-4.4h4.4v-4.4h17.8v4.4h-13.3v4.4h13.3v4.4h4.4v8.9h-4.4v4.4
			H569.4z M565,1160.1v-4.4h4.4v4.4H565z"/>
		<path class="st15" d="M618.3,1164.5v-26.7h8.9v22.2H645v4.4H618.3z"/>
		<path class="st15" d="M653.9,1164.5v-26.7h26.7v4.4h-17.8v4.4h13.3v4.4h-13.3v8.9h17.8v4.4H653.9z"/>
		<path class="st15" d="M693.9,1164.5v-4.4h8.9v-8.9h-8.9v-4.4h-4.4v-4.4h4.4v-4.4h17.8v4.4h-13.3v4.4h13.3v4.4h4.4v8.9h-4.4v4.4
			H693.9z M689.4,1160.1v-4.4h4.4v4.4H689.4z"/>
		<path class="st15" d="M742.8,1164.5v-22.2h4.4v8.9h8.9v-8.9h-8.9v-4.4H765v4.4h4.4v22.2h-13.3v-8.9h-8.9v8.9H742.8z"/>
		<path class="st15" d="M778.3,1160.1v-22.2h4.4v22.2H778.3z M782.7,1164.5v-4.4h8.9v-4.4h4.4v-17.8h8.9v22.2h-4.4v4.4H782.7z"/>
		<path class="st15" d="M822.7,1164.5v-22.2h-8.9v-4.4h26.7v4.4h-8.9v22.2H822.7z"/>
		<path class="st15" d="M849.4,1164.5v-26.7h22.2v4.4h4.4v8.9h-4.4v4.4h-4.4v4.4h-4.4v-4.4h-4.4v8.9H849.4z M867.2,1151.2v-8.9h-8.9
			v8.9H867.2z M867.2,1164.5v-4.4h8.9v4.4H867.2z"/>
		<path class="st15" d="M884.9,1164.5v-26.7h26.7v4.4h-17.8v4.4h13.3v4.4h-13.3v8.9h17.8v4.4H884.9z"/>
		<path class="st15" d="M924.9,1164.5v-4.4h8.9v-8.9h-8.9v-4.4h-4.4v-4.4h4.4v-4.4h17.8v4.4h-13.3v4.4h13.3v4.4h4.4v8.9h-4.4v4.4
			H924.9z M920.5,1160.1v-4.4h4.4v4.4H920.5z"/>
		<path class="st15" d="M973.8,1164.5v-26.7h26.7v4.4h-17.8v4.4H996v4.4h-13.3v8.9h17.8v4.4H973.8z"/>
		<path class="st15" d="M1018.3,1164.5v-22.2h-8.9v-4.4h26.7v4.4h-8.9v22.2H1018.3z"/>
		<path class="st15" d="M422.8,1207.2v-26.7H445v4.4h4.4v17.8H445v4.4H422.8z M436.1,1202.7V1185h-8.9v17.8H436.1z"/>
		<path class="st15" d="M458.4,1207.2v-26.7H485v4.4h-17.8v4.4h13.3v4.4h-13.3v8.9H485v4.4H458.4z"/>
		<path class="st15" d="M511.7,1207.2v-26.7h22.2v4.4h4.4v8.9h-4.4v4.4h-13.3v8.9H511.7z M529.5,1193.9v-8.9h-8.9v8.9H529.5z"/>
		<path class="st15" d="M547.2,1207.2v-26.7h8.9v22.2h17.8v4.4H547.2z"/>
		<path class="st15" d="M582.8,1202.7v-22.2h4.4v22.2H582.8z M587.2,1207.2v-4.4h8.9v-4.4h4.4v-17.8h8.9v22.2H605v4.4H587.2z"/>
		<path class="st15" d="M622.8,1207.2v-4.4h8.9v-8.9h-8.9v-4.4h-4.4v-4.4h4.4v-4.4h17.8v4.4h-13.3v4.4h13.3v4.4h4.4v8.9h-4.4v4.4
			H622.8z M618.3,1202.7v-4.4h4.4v4.4H618.3z"/>
		<path class="st15" d="M671.7,1207.2v-26.7h26.7v4.4h-17.8v4.4h13.3v4.4h-13.3v8.9h17.8v4.4H671.7z"/>
		<path class="st15" d="M707.2,1207.2v-26.7h4.4v4.4h4.4v4.4h4.4v4.4h4.4v-13.3h8.9v26.7H725v-4.4h-4.4v-4.4h-4.4v-4.4h-4.4v13.3
			H707.2z"/>
		<path class="st15" d="M760.5,1207.2v-26.7h22.2v4.4h4.4v8.9h-4.4v4.4h-13.3v8.9H760.5z M778.3,1193.9v-8.9h-8.9v8.9H778.3z"/>
		<path class="st15" d="M796.1,1207.2v-26.7h8.9v22.2h17.8v4.4H796.1z"/>
		<path class="st15" d="M831.6,1202.7v-22.2h4.4v22.2H831.6z M836.1,1207.2v-4.4h8.9v-4.4h4.4v-17.8h8.9v22.2h-4.4v4.4H836.1z"/>
		<path class="st15" d="M871.6,1207.2v-4.4h8.9v-8.9h-8.9v-4.4h-4.4v-4.4h4.4v-4.4h17.8v4.4h-13.3v4.4h13.3v4.4h4.4v8.9h-4.4v4.4
			H871.6z M867.2,1202.7v-4.4h4.4v4.4H867.2z"/>
		<path class="st15" d="M920.5,1198.3v-17.8h4.4v17.8H920.5z M924.9,1202.7v-4.4h4.4v4.4H924.9z M929.4,1207.2v-4.4h4.4v-4.4h4.4
			v-17.8h8.9v17.8h-4.4v4.4h-4.4v4.4H929.4z"/>
		<path class="st15" d="M960.5,1207.2v-4.4h4.4V1185h-4.4v-4.4h17.8v4.4h-4.4v17.8h4.4v4.4H960.5z"/>
		<path class="st15" d="M1000.5,1207.2V1185h-8.9v-4.4h26.7v4.4h-8.9v22.2H1000.5z"/>
		<path class="st15" d="M1027.2,1207.2v-26.7h26.7v4.4H1036v4.4h13.3v4.4H1036v8.9h17.8v4.4H1027.2z"/>
		<path class="st15" d="M1062.7,1207.2v-8.9h8.9v8.9H1062.7z"/>
		<path class="st15" d="M422.8,1249.8v-22.2h4.4v8.9h8.9v-8.9h-8.9v-4.4H445v4.4h4.4v22.2h-13.3v-8.9h-8.9v8.9H422.8z"/>
		<path class="st15" d="M467.2,1249.8v-22.2h-8.9v-4.4H485v4.4h-8.9v22.2H467.2z"/>
		<path class="st15" d="M502.8,1249.8v-22.2h-8.9v-4.4h26.7v4.4h-8.9v22.2H502.8z"/>
		<path class="st15" d="M529.5,1249.8v-26.7h26.7v4.4h-17.8v4.4h13.3v4.4h-13.3v8.9h17.8v4.4H529.5z"/>
		<path class="st15" d="M565,1249.8v-26.7h4.4v4.4h4.4v4.4h4.4v4.4h4.4v-13.3h8.9v26.7h-8.9v-4.4h-4.4v-4.4h-4.4v-4.4h-4.4v13.3H565
			z"/>
		<path class="st15" d="M609.4,1249.8v-22.2h-8.9v-4.4h26.7v4.4h-8.9v22.2H609.4z"/>
		<path class="st15" d="M640.5,1249.8v-4.4h4.4v-17.8h-4.4v-4.4h17.8v4.4h-4.4v17.8h4.4v4.4H640.5z"/>
		<path class="st15" d="M676.1,1249.8v-4.4h-4.4v-17.8h4.4v-4.4h17.8v4.4h4.4v17.8h-4.4v4.4H676.1z M689.4,1245.4v-17.8h-8.9v17.8
			H689.4z"/>
		<path class="st15" d="M707.2,1249.8v-26.7h4.4v4.4h4.4v4.4h4.4v4.4h4.4v-13.3h8.9v26.7H725v-4.4h-4.4v-4.4h-4.4v-4.4h-4.4v13.3
			H707.2z"/>
		<path class="st15" d="M751.6,1249.8v-4.4h-4.4v-8.9h8.9v13.3H751.6z M747.2,1254.3v-4.4h4.4v4.4H747.2z"/>
		<path class="st15" d="M796.1,1249.8v-26.7h22.2v4.4h4.4v8.9h-4.4v4.4H805v8.9H796.1z M813.9,1236.5v-8.9H805v8.9H813.9z"/>
		<path class="st15" d="M831.6,1249.8v-26.7h8.9v22.2h17.8v4.4H831.6z"/>
		<path class="st15" d="M867.2,1245.4v-22.2h4.4v22.2H867.2z M871.6,1249.8v-4.4h8.9v-4.4h4.4v-17.8h8.9v22.2h-4.4v4.4H871.6z"/>
		<path class="st15" d="M907.2,1249.8v-4.4h8.9v-8.9h-8.9v-4.4h-4.4v-4.4h4.4v-4.4h17.8v4.4h-13.3v4.4h13.3v4.4h4.4v8.9h-4.4v4.4
			H907.2z M902.7,1245.4v-4.4h4.4v4.4H902.7z"/>
		<path class="st15" d="M942.7,1249.8v-4.4h4.4v-17.8h-4.4v-4.4h17.8v4.4H956v17.8h4.4v4.4H942.7z"/>
		<path class="st15" d="M973.8,1249.8v-26.7h26.7v4.4h-17.8v4.4H996v4.4h-13.3v8.9h17.8v4.4H973.8z"/>
		<path class="st15" d="M1009.4,1245.4v-22.2h4.4v22.2H1009.4z M1013.8,1249.8v-4.4h8.9v-4.4h4.4v-17.8h8.9v22.2h-4.4v4.4H1013.8z"
			/>
		<path class="st15" d="M1044.9,1249.8v-26.7h22.2v4.4h4.4v8.9h-4.4v4.4h-4.4v4.4h-4.4v-4.4h-4.4v8.9H1044.9z M1062.7,1236.5v-8.9
			h-8.9v8.9H1062.7z M1062.7,1249.8v-4.4h8.9v4.4H1062.7z"/>
		<path class="st15" d="M1084.9,1249.8v-4.4h8.9v-8.9h-8.9v-4.4h-4.4v-4.4h4.4v-4.4h17.8v4.4h-13.3v4.4h13.3v4.4h4.4v8.9h-4.4v4.4
			H1084.9z M1080.5,1245.4v-4.4h4.4v4.4H1080.5z"/>
		<path class="st15" d="M422.8,1292.5v-26.7H445v4.4h4.4v8.9H445v4.4h-13.3v8.9H422.8z M440.6,1279.2v-8.9h-8.9v8.9H440.6z"/>
		<path class="st15" d="M458.4,1292.5v-26.7H485v4.4h-17.8v4.4h13.3v4.4h-13.3v8.9H485v4.4H458.4z"/>
		<path class="st15" d="M493.9,1292.5v-26.7h22.2v4.4h4.4v8.9h-4.4v4.4h-4.4v4.4h-4.4v-4.4h-4.4v8.9H493.9z M511.7,1279.2v-8.9h-8.9
			v8.9H511.7z M511.7,1292.5v-4.4h8.9v4.4H511.7z"/>
		<path class="st15" d="M529.5,1292.5v-26.7h22.2v4.4h4.4v8.9h-4.4v4.4h-4.4v4.4h-4.4v-4.4h-4.4v8.9H529.5z M547.2,1279.2v-8.9h-8.9
			v8.9H547.2z M547.2,1292.5v-4.4h8.9v4.4H547.2z"/>
		<path class="st15" d="M565,1288.1v-22.2h4.4v22.2H565z M569.4,1292.5v-4.4h8.9v-4.4h4.4v-17.8h8.9v22.2h-4.4v4.4H569.4z"/>
		<path class="st15" d="M605,1292.5v-4.4h-4.4v-17.8h4.4v-4.4h17.8v4.4h4.4v4.4h-8.9v-4.4h-8.9v17.8h8.9v-4.4h8.9v4.4h-4.4v4.4H605z
			"/>
		<path class="st15" d="M636.1,1292.5v-26.7h4.4v8.9h13.3v-8.9h8.9v26.7h-8.9v-13.3h-13.3v13.3H636.1z"/>
		<path class="st15" d="M671.7,1292.5v-26.7h26.7v4.4h-17.8v4.4h13.3v4.4h-13.3v8.9h17.8v4.4H671.7z"/>
		<path class="st15" d="M711.6,1292.5v-4.4h8.9v-8.9h-8.9v-4.4h-4.4v-4.4h4.4v-4.4h17.8v4.4h-13.3v4.4h13.3v4.4h4.4v8.9h-4.4v4.4
			H711.6z M707.2,1288.1v-4.4h4.4v4.4H707.2z"/>
		<path class="st15" d="M760.5,1292.5v-26.7h22.2v4.4h4.4v8.9h-4.4v4.4h-13.3v8.9H760.5z M778.3,1279.2v-8.9h-8.9v8.9H778.3z"/>
		<path class="st15" d="M796.1,1292.5v-26.7h26.7v4.4H805v4.4h13.3v4.4H805v8.9h17.8v4.4H796.1z"/>
		<path class="st15" d="M831.6,1288.1v-22.2h4.4v22.2H831.6z M836.1,1292.5v-4.4h8.9v-4.4h4.4v-17.8h8.9v22.2h-4.4v4.4H836.1z"/>
		<path class="st15" d="M867.2,1283.6v-17.8h4.4v17.8H867.2z M871.6,1288.1v-4.4h4.4v4.4H871.6z M876.1,1292.5v-4.4h4.4v-4.4h4.4
			v-17.8h8.9v17.8h-4.4v4.4h-4.4v4.4H876.1z"/>
		<path class="st15" d="M902.7,1292.5v-26.7h26.7v4.4h-17.8v4.4h13.3v4.4h-13.3v8.9h17.8v4.4H902.7z"/>
		<path class="st15" d="M938.3,1292.5v-26.7h4.4v4.4h4.4v4.4h4.4v4.4h4.4v-13.3h8.9v26.7H956v-4.4h-4.4v-4.4h-4.4v-4.4h-4.4v13.3
			H938.3z"/>
		<path class="st15" d="M982.7,1292.5v-22.2h-8.9v-4.4h26.7v4.4h-8.9v22.2H982.7z"/>
		<path class="st15" d="M427.2,1335.2v-4.4h8.9v-8.9h-8.9v-4.4h-4.4v-4.4h4.4v-4.4H445v4.4h-13.3v4.4H445v4.4h4.4v8.9H445v4.4H427.2
			z M422.8,1330.7v-4.4h4.4v4.4H422.8z"/>
		<path class="st15" d="M458.4,1330.7v-22.2h4.4v22.2H458.4z M462.8,1335.2v-4.4h8.9v-4.4h4.4v-17.8h8.9v22.2h-4.4v4.4H462.8z"/>
		<path class="st15" d="M493.9,1335.2v-26.7h22.2v4.4h4.4v8.9h-4.4v4.4h-4.4v4.4h-4.4v-4.4h-4.4v8.9H493.9z M511.7,1321.8v-8.9h-8.9
			v8.9H511.7z M511.7,1335.2v-4.4h8.9v4.4H511.7z"/>
		<path class="st15" d="M533.9,1335.2v-4.4h-4.4v-17.8h4.4v-4.4h17.8v4.4h4.4v4.4h-8.9v-4.4h-8.9v17.8h8.9v-4.4h-4.4v-4.4h13.3v13.3
			H533.9z"/>
		<path class="st15" d="M569.4,1335.2v-4.4h4.4v-17.8h-4.4v-4.4h17.8v4.4h-4.4v17.8h4.4v4.4H569.4z"/>
		<path class="st15" d="M600.6,1335.2v-26.7h22.2v4.4h4.4v8.9h-4.4v4.4h-4.4v4.4h-4.4v-4.4h-4.4v8.9H600.6z M618.3,1321.8v-8.9h-8.9
			v8.9H618.3z M618.3,1335.2v-4.4h8.9v4.4H618.3z"/>
		<path class="st15" d="M653.9,1335.2v-26.7h26.7v4.4h-17.8v4.4h13.3v4.4h-13.3v8.9h17.8v4.4H653.9z"/>
		<path class="st15" d="M689.4,1335.2v-26.7h4.4v4.4h4.4v4.4h4.4v4.4h4.4v-13.3h8.9v26.7h-8.9v-4.4h-4.4v-4.4h-4.4v-4.4h-4.4v13.3
			H689.4z"/>
		<path class="st15" d="M742.8,1335.2v-26.7h4.4v4.4h4.4v4.4h4.4v-4.4h4.4v-4.4h8.9v26.7h-8.9v-13.3h-4.4v4.4h-4.4v-4.4h-4.4v13.3
			H742.8z"/>
		<path class="st15" d="M778.3,1335.2v-26.7H805v4.4h-17.8v4.4h13.3v4.4h-13.3v8.9H805v4.4H778.3z"/>
		<path class="st15" d="M813.9,1335.2v-26.7h4.4v4.4h4.4v4.4h4.4v-4.4h4.4v-4.4h8.9v26.7h-8.9v-13.3h-4.4v4.4h-4.4v-4.4h-4.4v13.3
			H813.9z"/>
		<path class="st15" d="M849.4,1335.2v-26.7h26.7v4.4h-17.8v4.4h13.3v4.4h-13.3v8.9h17.8v4.4H849.4z"/>
		<path class="st15" d="M911.6,1335.2v-22.2h-8.9v-4.4h26.7v4.4h-8.9v22.2H911.6z"/>
		<path class="st15" d="M938.3,1335.2v-26.7h26.7v4.4h-17.8v4.4h13.3v4.4h-13.3v8.9h17.8v4.4H938.3z"/>
		<path class="st15" d="M973.8,1335.2v-26.7h4.4v4.4h4.4v4.4h4.4v-4.4h4.4v-4.4h8.9v26.7h-8.9v-13.3h-4.4v4.4h-4.4v-4.4h-4.4v13.3
			H973.8z"/>
		<path class="st15" d="M1009.4,1335.2v-26.7h22.2v4.4h4.4v8.9h-4.4v4.4h-13.3v8.9H1009.4z M1027.2,1321.8v-8.9h-8.9v8.9H1027.2z"/>
		<path class="st15" d="M1049.4,1335.2v-4.4h8.9v-8.9h-8.9v-4.4h-4.4v-4.4h4.4v-4.4h17.8v4.4h-13.3v4.4h13.3v4.4h4.4v8.9h-4.4v4.4
			H1049.4z M1044.9,1330.7v-4.4h4.4v4.4H1044.9z"/>
		<path class="st15" d="M1080.5,1335.2v-8.9h8.9v8.9H1080.5z"/>
		<path class="st15" d="M431.7,1377.8v-22.2h-8.9v-4.4h26.7v4.4h-8.9v22.2H431.7z"/>
		<path class="st15" d="M462.8,1377.8v-4.4h4.4v-17.8h-4.4v-4.4h17.8v4.4h-4.4v17.8h4.4v4.4H462.8z"/>
		<path class="st15" d="M493.9,1377.8v-26.7h26.7v4.4h-17.8v4.4h13.3v4.4h-13.3v8.9h17.8v4.4H493.9z"/>
		<path class="st15" d="M529.5,1377.8v-26.7h4.4v4.4h4.4v4.4h4.4v4.4h4.4v-13.3h8.9v26.7h-8.9v-4.4h-4.4v-4.4h-4.4v-4.4h-4.4v13.3
			H529.5z"/>
		<path class="st15" d="M569.4,1377.8v-4.4h8.9v-8.9h-8.9v-4.4H565v-4.4h4.4v-4.4h17.8v4.4h-13.3v4.4h13.3v4.4h4.4v8.9h-4.4v4.4
			H569.4z M565,1373.4v-4.4h4.4v4.4H565z"/>
		<path class="st15" d="M627.2,1377.8v-22.2h-8.9v-4.4H645v4.4h-8.9v22.2H627.2z"/>
		<path class="st15" d="M658.3,1377.8v-4.4h-4.4v-17.8h4.4v-4.4h17.8v4.4h4.4v17.8h-4.4v4.4H658.3z M671.7,1373.4v-17.8h-8.9v17.8
			H671.7z"/>
		<path class="st15" d="M693.9,1377.8v-4.4h4.4v-17.8h-4.4v-4.4h17.8v4.4h-4.4v17.8h4.4v4.4H693.9z"/>
		<path class="st15" d="M742.8,1377.8v-26.7H765v4.4h4.4v8.9H765v4.4h-13.3v8.9H742.8z M760.5,1364.5v-8.9h-8.9v8.9H760.5z"/>
		<path class="st15" d="M778.3,1377.8v-26.7h22.2v4.4h4.4v8.9h-4.4v4.4h-4.4v4.4h-4.4v-4.4h-4.4v8.9H778.3z M796.1,1364.5v-8.9h-8.9
			v8.9H796.1z M796.1,1377.8v-4.4h8.9v4.4H796.1z"/>
		<path class="st15" d="M813.9,1377.8v-26.7h26.7v4.4h-17.8v4.4h13.3v4.4h-13.3v8.9h17.8v4.4H813.9z"/>
		<path class="st15" d="M858.3,1377.8v-22.2h-8.9v-4.4h26.7v4.4h-8.9v22.2H858.3z"/>
		<path class="st15" d="M889.4,1377.8v-4.4h8.9v-8.9h-8.9v-4.4h-4.4v-4.4h4.4v-4.4h17.8v4.4h-13.3v4.4h13.3v4.4h4.4v8.9h-4.4v4.4
			H889.4z M884.9,1373.4v-4.4h4.4v4.4H884.9z"/>
		<path class="st15" d="M947.2,1368.9v-17.8h13.3v17.8H947.2z M947.2,1377.8v-4.4h13.3v4.4H947.2z"/>
	</g>
	<g>
		<polygon class="st12" points="1002.3,819.7 578.4,819.7 578.4,442.9 790.3,301.6 1002.3,442.9 		"/>
		<path class="st14" d="M788,678.4c52.2,0,99.7-39.9,105.4-91.1c0-57.3-50.6-99.7-105.4-99.7c-54.8,0-105.4,42.4-105.4,99.7
			C688.2,638.5,735.7,678.4,788,678.4z"/>
		<path class="st13" d="M604.9,535l213.7-207.4l-28.3-68.3L578.4,466.5v57.3C578.4,537.5,595,544.6,604.9,535z"/>
		<path class="st15" d="M545.3,457l235.9-235.9c3.9-3.9,10.3-3.9,14.1,0l28.6,28.6c3.9,3.9,3.9,10.3,0,14.1L588,499.8
			c-3.9,3.9-10.3,3.9-14.1,0l-28.6-28.6C541.4,467.3,541.4,460.9,545.3,457z"/>
		<path class="st15" d="M797.6,221.2L1033.5,457c3.9,3.9,3.9,10.3,0,14.1l-28.6,28.6c-3.9,3.9-10.3,3.9-14.1,0L754.9,263.9
			c-3.9-3.9-3.9-10.3,0-14.1l28.6-28.6C787.3,217.3,793.7,217.3,797.6,221.2z"/>
		<path class="st23" d="M865.8,537.6c0.2,0.3,0.4,0.7,0.5,1C866.2,538.2,866,537.9,865.8,537.6z"/>
		<path class="st23" d="M862.6,532.2c0.1,0.2,0.3,0.4,0.4,0.6C862.8,532.6,862.7,532.4,862.6,532.2z"/>
		<path class="st23" d="M864.4,535.1c0.2,0.3,0.3,0.6,0.5,0.8C864.7,535.7,864.6,535.4,864.4,535.1z"/>
		<path class="st23" d="M868.5,542.9c0.1,0.2,0.2,0.5,0.3,0.7C868.8,543.4,868.7,543.1,868.5,542.9z"/>
		<path class="st23" d="M870,546.1c0.1,0.3,0.3,0.6,0.4,1C870.2,546.7,870.1,546.4,870,546.1z"/>
		<path class="st23" d="M875.9,567c0,0.2,0.1,0.4,0.1,0.5C876,567.4,875.9,567.2,875.9,567z"/>
		<path class="st23" d="M873,554.5c0.1,0.2,0.1,0.4,0.2,0.7C873.2,555,873.1,554.7,873,554.5z"/>
		<path class="st23" d="M830.8,468.3c-1,4.1-2.5,8.1-4.5,11.9c-2.4,4.6-5.4,8.8-8.8,12.4c1.8-6,2.8-12.4,2.8-19.1
			c0-3.2-0.2-6.3-0.7-9.4C823.4,465.3,827.1,466.7,830.8,468.3z"/>
		<path class="st23" d="M857.4,525.2c0.2,0.2,0.3,0.4,0.5,0.6C857.8,525.6,857.6,525.4,857.4,525.2z"/>
		<path class="st23" d="M876.9,631.9v-51.9c0-0.9,0-1.8-0.1-2.7c0-0.3,0-0.7,0-1c0-0.6-0.1-1.3-0.1-1.9c0-0.4-0.1-0.8-0.1-1.1
			c-0.1-0.6-0.1-1.3-0.2-1.9c0-0.1,0-0.2,0-0.3c0-0.1,0-0.2,0-0.3c0-0.1,0-0.2,0-0.3c-0.1-0.9-0.2-1.9-0.4-2.8
			c0-0.2-0.1-0.4-0.1-0.5c-0.1-0.8-0.2-1.6-0.4-2.4c-0.1-0.3-0.1-0.7-0.2-1.1c-0.1-0.6-0.2-1.2-0.4-1.8c0-0.1,0-0.2-0.1-0.3
			c-0.1-0.3-0.1-0.6-0.2-0.8c-0.1-0.6-0.3-1.2-0.4-1.8c0-0.1-0.1-0.2-0.1-0.3c-0.1-0.2-0.1-0.4-0.2-0.7c-0.2-0.9-0.5-1.8-0.7-2.7
			c-0.1-0.2-0.1-0.4-0.2-0.7c-0.2-0.7-0.4-1.4-0.7-2c-0.1-0.3-0.2-0.6-0.3-0.9c0,0,0-0.1,0-0.1c-0.2-0.6-0.4-1.1-0.6-1.6
			c-0.1-0.4-0.3-0.7-0.4-1.1c0,0,0-0.1,0-0.1c-0.2-0.5-0.4-1-0.6-1.5c-0.1-0.3-0.3-0.6-0.4-1c-0.3-0.8-0.7-1.7-1.1-2.5
			c-0.1-0.2-0.2-0.5-0.3-0.7c-0.2-0.4-0.4-0.8-0.6-1.3c-0.1-0.2-0.2-0.4-0.3-0.6c-0.2-0.3-0.3-0.7-0.5-1c-0.3-0.5-0.5-1-0.8-1.4
			c0,0,0-0.1,0-0.1c-0.2-0.3-0.4-0.7-0.5-1c-0.3-0.5-0.6-1.1-0.9-1.6c-0.2-0.3-0.3-0.6-0.5-0.8c-0.5-0.8-0.9-1.5-1.4-2.3
			c-0.1-0.2-0.3-0.4-0.4-0.6c-0.2-0.3-0.4-0.6-0.6-0.9c-0.1-0.1-0.1-0.2-0.2-0.2c0,0-0.1-0.1-0.1-0.1c-0.1-0.1-0.2-0.2-0.2-0.3v0
			c0,0-0.1-0.1-0.1-0.1c-0.2-0.3-0.4-0.6-0.6-0.9c-0.3-0.5-0.7-1-1.1-1.5c-0.2-0.3-0.4-0.6-0.6-0.8c-0.4-0.5-0.8-1-1.2-1.6
			c-0.2-0.2-0.3-0.4-0.5-0.6c-0.1-0.2-0.3-0.4-0.4-0.5c-0.4-0.5-0.9-1.1-1.3-1.6c-0.1-0.2-0.3-0.3-0.4-0.4c-0.5-0.6-1-1.1-1.5-1.7
			c-0.2-0.2-0.4-0.5-0.6-0.7c-0.4-0.5-0.9-0.9-1.4-1.4c-0.2-0.2-0.4-0.4-0.6-0.6c-0.5-0.5-1.1-1-1.6-1.6c-0.1-0.1-0.3-0.3-0.4-0.4
			c-0.3-0.3-0.5-0.5-0.8-0.8c-0.1-0.1-0.2-0.2-0.2-0.2c-0.1-0.1-0.2-0.2-0.3-0.3c-0.1-0.1-0.2-0.2-0.3-0.3c-0.2-0.1-0.3-0.3-0.5-0.4
			c-0.1-0.1-0.2-0.2-0.3-0.3c-0.6-0.5-1.2-1.1-1.9-1.6c-0.2-0.2-0.4-0.3-0.6-0.5c-0.3-0.2-0.6-0.5-0.8-0.7c4.8-10.7,6.4-22.1,5.3-33
			c28.9,19.8,47.8,53.1,47.8,90.8C896.6,592.5,889.3,614.1,876.9,631.9z"/>
		<path class="st23" d="M876.9,580.1c0,0.1,0,0.2,0,0.2v51.6c0,0,0,0,0,0v-51.6C876.9,580.2,876.9,580.2,876.9,580.1z"/>
		<path class="st23" d="M853.2,520.3c0.2,0.2,0.4,0.4,0.6,0.7C853.6,520.7,853.4,520.5,853.2,520.3z"/>
		<path class="st23" d="M859.1,527.4c0.2,0.3,0.4,0.6,0.6,0.8C859.6,527.9,859.4,527.6,859.1,527.4z"/>
		<path class="st23" d="M860.8,529.7c0.2,0.3,0.4,0.6,0.6,0.9C861.2,530.2,861,529.9,860.8,529.7z"/>
		<path class="st23" d="M711.3,515.5c-6.9,1.5-14,1.5-20.9,0.1c3.2-5.7,6.9-11.1,11-16.2C703.9,505.4,707.2,510.8,711.3,515.5z"/>
		<path class="st23" d="M688.1,579.4c0,15.1,9.3,28,22.5,33.2c0.6-0.6,1.2-1.1,1.8-1.7v39.5c-22.1-20.1-35.9-49.1-35.9-81.3
			c0-16.9,3.8-32.8,10.6-47.1c7.4,6.6,16.1,11.4,25.4,14v9.5C698.3,550.2,688.1,563.6,688.1,579.4z"/>
		<path class="st23" d="M725.4,501.2c-6.5-1.8-12.4-4.8-17.6-8.9c5.2-5.3,10.9-10.1,17.1-14.3C723.6,485.8,723.8,493.7,725.4,501.2z
			"/>
		<path class="st23" d="M751.2,464.9c0,10.3-2.9,20.4-8.5,29h0l-0.1,0c-5.4-5.6-9.3-12.4-11.7-19.7
			C737.3,470.4,744.1,467.3,751.2,464.9z"/>
		<path class="st23" d="M809.8,545v131.7c-0.2,0-0.3,0.1-0.5,0.1V545.2C809.5,545.1,809.7,545.1,809.8,545z"/>
		<path class="st23" d="M876.6,573.2c0,0.4,0.1,0.7,0.1,1.1C876.7,574,876.6,573.6,876.6,573.2z"/>
		<path class="st23" d="M876.4,571.3c0-0.2,0-0.4-0.1-0.7c0,0,0,0,0,0C876.4,570.9,876.4,571.1,876.4,571.3z"/>
		<path class="st23" d="M874.9,561.8c0-0.1,0-0.2-0.1-0.3h0C874.9,561.6,874.9,561.7,874.9,561.8z"/>
		<path class="st23" d="M876.8,576.3c0,0.3,0,0.7,0,1C876.8,577,876.8,576.7,876.8,576.3z"/>
		<path class="st23" d="M872.4,552.5c-0.1-0.3-0.2-0.6-0.3-0.9h0C872.2,551.9,872.3,552.2,872.4,552.5z"/>
		<path class="st23" d="M874.2,558.5c-0.1-0.2-0.1-0.4-0.2-0.7C874.1,558.1,874.1,558.3,874.2,558.5L874.2,558.5z"/>
		<path class="st23" d="M875.3,563.6c0.1,0.4,0.1,0.7,0.2,1.1C875.4,564.3,875.4,563.9,875.3,563.6z"/>
		<path class="st23" d="M849.2,516.3c0.1,0.1,0.3,0.3,0.4,0.4C849.5,516.5,849.3,516.4,849.2,516.3z"/>
		<path class="st23" d="M851.2,518.2c0.2,0.2,0.4,0.4,0.6,0.6C851.6,518.6,851.4,518.4,851.2,518.2z"/>
		<path class="st2" d="M837.2,506.8c-0.2-0.1-0.3-0.2-0.5-0.3C836.9,506.6,837.1,506.7,837.2,506.8L837.2,506.8z"/>
		<path class="st2" d="M829.1,502.1c0.3,0.2,0.6,0.3,0.9,0.5C829.8,502.4,829.5,502.3,829.1,502.1z"/>
		<path class="st2" d="M831.6,503.4c0.4,0.2,0.7,0.4,1.1,0.6C832.3,503.8,832,503.6,831.6,503.4z"/>
		<path class="st2" d="M839.7,508.5c0.2,0.1,0.4,0.3,0.6,0.4C840.1,508.8,839.9,508.7,839.7,508.5z"/>
		<path class="st2" d="M842,510.2c0.2,0.2,0.4,0.3,0.7,0.5C842.5,510.6,842.3,510.4,842,510.2z"/>
		<path class="st2" d="M826.6,500.9c-1.2,0.9-2.4,1.9-3.6,2.9C824.2,502.8,825.4,501.8,826.6,500.9
			C826.6,500.9,826.6,500.9,826.6,500.9z"/>
		<path class="st2" d="M834.1,504.9c0.3,0.2,0.7,0.4,1,0.6C834.8,505.3,834.4,505.1,834.1,504.9z"/>
		<g>
			<path class="st2" d="M696.9,481.4c0.7,6.8,2.4,13.3,5,19.3c2.5,5.8,5.8,11.2,9.8,15.9c-0.1,0-0.3,0.1-0.4,0.1c0,0,0,0,0.1,0.1
				c-6.8,1.4-13.7,1.4-20.4,0c-4.4-0.9-8.8-2.4-12.9-4.4c2.9,4,6.1,7.6,9.6,10.7c7.4,6.6,16.1,11.4,25.4,14v-2.5
				c0-4.9,0.9-9.6,2.4-14c-0.1-0.1-0.2-0.2-0.3-0.4c0.7-1.8,1.5-3.6,2.4-5.2c0.2-0.1,0.4-0.1,0.6-0.2c2.2-4,5-7.5,8.3-10.6
				c-0.2-0.7-0.3-1.3-0.4-2c-6.5-1.8-12.4-4.8-17.6-8.9C703.9,490.1,700,486,696.9,481.4z"/>
			<path class="st2" d="M849.3,479.5c-1.5-14.6-8-28.4-18.6-38.6c2.7,9.1,3,18.9,0.6,28.6c-1,4.1-2.5,8.1-4.5,11.9
				c-2.4,4.6-5.4,8.8-8.8,12.4c0,0.1-0.1,0.1-0.1,0.2c0,0,0,0,0,0c0-0.1,0-0.2,0.1-0.2c1.8-6,2.8-12.4,2.8-19.1
				c0-3.2-0.2-6.3-0.7-9.4c-2-13.9-8.3-26.3-17.4-35.7c-7.4-7.7-16.6-13.4-26.9-16.4c4.3,4.4,7.9,9.7,10.5,15.5
				c3,6.8,4.7,14.3,4.7,22.3c0,3.2-0.3,6.4-0.8,9.4c-0.2,1.2-0.5,2.4-0.8,3.6c0.8,3.7,1.3,7.5,1.4,11.3c-0.1-3.8-0.6-7.5-1.4-11.3
				c0,0,0,0,0,0c-0.3-1.2-0.6-2.4-0.9-3.6h0c-1.4-5.2-3.6-10.3-6.4-15.2c-3.4-5.9-7.6-11.1-12.4-15.6h0
				c-15.6-14.4-37.2-20.3-57.3-15.5c11.6,3.3,22.2,10.7,29.6,21.4c0.8,1.2,1.6,2.5,2.4,3.8c4.9,8.5,7.2,17.8,7.3,26.9
				c0,10.3-2.9,20.4-8.5,29c3.5-0.9,7.1-1.4,10.8-1.4h16.2h18.6h0.2c4.1,0,8.1,0.3,12.1,0.8c3.2,0.4,9.2,1.4,13.9,2.4
				c-0.1,0.1-0.2,0.2-0.2,0.2c0.6,0.2,1.3,0.4,1.9,0.6c0,0.1-0.1,0.2-0.1,0.4c3.5,1.1,6.8,2.5,10.1,4c-0.1,0.1-0.3,0.2-0.4,0.3
				c0.1,0.1,0.2,0.1,0.3,0.2c0.2-0.2,0.4-0.3,0.6-0.5c0.8,0.4,1.7,0.8,2.5,1.2c0.3,0.2,0.6,0.3,0.9,0.5c0.5,0.3,1,0.5,1.5,0.8
				c0.4,0.2,0.7,0.4,1.1,0.6c0.5,0.3,1,0.5,1.4,0.8c0.3,0.2,0.7,0.4,1,0.6c0.6,0.3,1.1,0.7,1.7,1.1c0.2,0.1,0.3,0.2,0.5,0.3
				c0.1,0,0.1,0.1,0.2,0.1c0.8,0.5,1.5,1,2.2,1.5c0,0,0,0,0.1,0c0.2,0.1,0.4,0.3,0.6,0.5c0.6,0.4,1.1,0.8,1.7,1.3
				c0.2,0.2,0.4,0.3,0.7,0.5c0.3,0.2,0.5,0.4,0.8,0.6C848.8,501.8,850.4,490.4,849.3,479.5z"/>
			<path class="st2" d="M729.2,465.1c-1.9,4.6-3.1,9.4-3.9,14.1c-1.2,7.8-1,15.7,0.6,23.2c0.7,0.2,1.4,0.4,2.1,0.5
				c4.4-3.6,9.5-6.3,15.2-7.9c-5.4-5.6-9.3-12.4-11.7-19.7C730.4,472,729.6,468.6,729.2,465.1z"/>
		</g>
		<path class="st2" d="M725.4,501.2c0.1,0.7,0.3,1.3,0.4,2c0.5-0.5,1.1-1,1.7-1.4C726.8,501.6,726.1,501.4,725.4,501.2z"/>
		<polygon class="st3" points="742.7,493.9 742.7,493.9 742.7,493.9 		"/>
		<path class="st3" d="M745.4,536.3c0.4,0.1,0.8,0.2,1.1,0.2c-0.2-0.1-0.3-0.3-0.5-0.4C745.9,536.2,745.7,536.2,745.4,536.3z"/>
		<path class="st3" d="M816.6,496.8c-0.7-0.2-1.5-0.5-2.2-0.7c-4.3-1.3-8.7-2.3-13.3-2.9c-3.9-0.5-8-0.8-12.1-0.8h-0.2h-18.6h-16.2
			c-3.7,0-7.4,0.5-10.8,1.4h0l0,0l0,0c-5.6,1.5-10.8,4.3-15.2,7.9c-0.6,0.5-1.1,0.9-1.7,1.4c-3.3,3-6.1,6.6-8.3,10.6
			c-1,1.8-1.9,3.8-2.6,5.8c-1.6,4.4-2.4,9.1-2.4,14v2.5v9.5c3.6-1.2,7.4-1.9,11.4-1.9c19.7,0,35.8,16,35.8,35.8c0,0.6,0,1.1,0,1.7
			c-0.4,8-3.4,15.3-8.1,21.1c-0.8,0.9-1.6,1.8-2.4,2.6c-4.1-1.6-8.6-2.5-13.3-2.5c-8.5,0-16.4,3-22.5,8c-0.3,0.2-0.6,0.5-0.8,0.7
			v39.5c19.6,17.8,45.6,28.7,74.1,28.7c7.8,0,15.4-0.8,22.8-2.4V545.2V534c0-13.6,6.6-25.7,16.8-33.1
			C823.4,499.3,820,498,816.6,496.8z M746,536.3c0.2-0.1,0.4-0.1,0.6-0.2c0.2,0.1,0.3,0.3,0.5,0.4
			C746.7,536.4,746.4,536.4,746,536.3z M784,566.5c-6,0-10.9-4.9-10.9-10.9c0-2.3,0.7-4.4,1.9-6.2c2-2.9,5.3-4.7,9-4.7
			c3.9,0,7.3,2,9.2,5.1c0,0,0,0,0,0c1.1,1.7,1.7,3.7,1.7,5.8C795,561.6,790.1,566.5,784,566.5z"/>
		<path class="st24" d="M723.9,543.6c-4,0-7.8,0.7-11.4,1.9c-14.1,4.8-24.3,18.1-24.3,33.9c0,15.1,9.3,28,22.5,33.2
			c0.6-0.6,1.2-1.1,1.8-1.7c0.3-0.2,0.6-0.5,0.8-0.7c0.6-4.5,2.1-8.7,4.2-12.5c6.1-10.9,17.8-18.3,31.2-18.3c2.9,0,5.7,0.3,8.4,1
			c0.8,0.2,1.7,0.4,2.5,0.7c0-0.6,0-1.1,0-1.7C759.7,559.6,743.7,543.6,723.9,543.6z"/>
		<path class="st25" d="M713.3,610.2c0.6-4.5,2.1-8.7,4.2-12.5C715.4,601.5,713.9,605.7,713.3,610.2c6.1-5,14-8,22.5-8
			c4.7,0,9.2,0.9,13.3,2.5l0,0c-4.1-1.6-8.6-2.5-13.3-2.5C727.3,602.2,719.5,605.2,713.3,610.2z"/>
		<path class="st25" d="M759.6,581.1c-0.4,8-3.4,15.3-8.1,21.1C756.3,596.3,759.3,589,759.6,581.1c-0.8-0.3-1.6-0.5-2.5-0.7
			C758,580.6,758.8,580.8,759.6,581.1z"/>
		<path class="st6" d="M749.1,604.8c0.8-0.8,1.6-1.7,2.4-2.6C750.7,603,749.9,603.9,749.1,604.8L749.1,604.8z"/>
		<path class="st6" d="M748.7,579.4c2.9,0,5.7,0.3,8.4,1C754.5,579.7,751.6,579.4,748.7,579.4c-13.4,0-25.1,7.4-31.2,18.3
			C723.7,586.7,735.3,579.4,748.7,579.4z"/>
		<path class="st6" d="M757.1,580.4c-2.7-0.7-5.5-1-8.4-1c-13.4,0-25.1,7.4-31.2,18.3c-2.1,3.8-3.6,8-4.2,12.5c6.1-5,14-8,22.5-8
			c4.7,0,9.2,0.9,13.3,2.5c0.8-0.8,1.6-1.7,2.4-2.6c4.8-5.8,7.8-13.1,8.1-21.1C758.8,580.8,758,580.6,757.1,580.4z"/>
		<path class="st7" d="M774.5,549.3c-1.2,1.8-1.9,3.9-1.9,6.2c0,6,4.9,10.9,10.9,10.9c6,0,10.9-4.9,10.9-10.9c0-2.1-0.6-4.1-1.7-5.8
			C786.7,550.5,780.6,550.4,774.5,549.3z"/>
		<path class="st7" d="M783.5,544.6c-3.7,0-7,1.9-9,4.7c6.1,1.1,12.2,1.2,18.2,0.4C790.8,546.6,787.4,544.6,783.5,544.6z"/>
		<path class="st1" d="M864.9,536c0.3,0.5,0.6,1,0.9,1.6C865.5,537,865.2,536.5,864.9,536z"/>
		<path class="st1" d="M851.8,518.9c0.5,0.5,0.9,0.9,1.4,1.4C852.7,519.8,852.3,519.3,851.8,518.9z"/>
		<path class="st1" d="M849.6,516.7c0.5,0.5,1.1,1,1.6,1.6C850.7,517.7,850.1,517.2,849.6,516.7z"/>
		<path class="st1" d="M857.9,525.8c0.4,0.5,0.8,1,1.2,1.6C858.8,526.8,858.4,526.3,857.9,525.8z"/>
		<path class="st1" d="M876.8,577.4c0-0.3,0-0.7,0-1c0-0.6-0.1-1.3-0.1-1.9c0-0.4-0.1-0.8-0.1-1.1c-0.1-0.6-0.1-1.3-0.2-1.9
			c0-0.1,0-0.2,0-0.3c0-0.1,0-0.2,0-0.3c-0.1,0.4-0.4,0.7-0.9,0.7h-13.1c-0.5,0-0.9-0.4-0.9-0.9v-1.1c0-0.5,0.4-0.9,0.9-0.9h13.1
			c0.3,0,0.5,0.1,0.6,0.3c0-0.4-0.1-0.8-0.2-1.2c0-0.2-0.1-0.4-0.1-0.5c-0.1-0.8-0.2-1.6-0.4-2.4c-0.1-0.3-0.1-0.7-0.2-1.1
			c-0.1-0.6-0.2-1.2-0.4-1.8c0-0.1,0-0.2-0.1-0.3h-12.4c-0.5,0-0.9-0.4-0.9-0.9v-1.1c0-0.5,0.4-0.9,0.9-0.9h11.7
			c-0.1-0.2-0.1-0.4-0.2-0.7c-0.2-0.9-0.5-1.8-0.7-2.7c-0.1-0.2-0.1-0.4-0.2-0.7c-0.2-0.7-0.4-1.4-0.7-2c-0.1-0.3-0.2-0.6-0.3-0.9
			h-9.6c-0.5,0-0.9-0.4-0.9-0.9v-1.1c0-0.5,0.4-0.9,0.9-0.9h8.6c-0.2-0.5-0.4-1-0.6-1.5c-0.1-0.3-0.3-0.6-0.4-1
			c-0.3-0.8-0.7-1.7-1.1-2.5c-0.1-0.2-0.2-0.5-0.3-0.7c-0.2-0.4-0.4-0.8-0.6-1.3h-5.5c-0.5,0-0.9-0.4-0.9-0.9v-1.1
			c0-0.5,0.4-0.9,0.9-0.9h4c0,0,0-0.1,0-0.1c-0.2-0.3-0.4-0.7-0.5-1c-0.3-0.5-0.6-1.1-0.9-1.6c-0.2-0.3-0.3-0.6-0.5-0.8
			c-0.5-0.8-0.9-1.5-1.4-2.3c-0.1-0.2-0.3-0.4-0.4-0.6c-0.1-0.2-0.3-0.4-0.4-0.6c-0.4-0.1-0.7-0.5-0.7-0.9v-0.1c0,0-0.1-0.1-0.1-0.1
			c-0.2-0.3-0.4-0.6-0.6-0.9c-0.3-0.5-0.7-1-1.1-1.5c-0.2-0.3-0.4-0.6-0.6-0.8c-0.4-0.5-0.8-1-1.2-1.6c-0.2-0.2-0.3-0.4-0.5-0.6
			c-0.1-0.2-0.3-0.4-0.4-0.5c-0.1,0.1-0.2,0.1-0.4,0.1h-13.1c-0.5,0-0.9-0.4-0.9-0.9v-1.1c0-0.5,0.4-0.9,0.9-0.9h11
			c-0.2-0.3-0.5-0.5-0.7-0.8c-0.2-0.2-0.4-0.5-0.6-0.7c-0.4-0.5-0.9-0.9-1.4-1.4c-0.2-0.2-0.4-0.4-0.6-0.6c-0.5-0.5-1.1-1-1.6-1.6
			c-0.1-0.1-0.3-0.3-0.4-0.4c-0.3-0.3-0.5-0.5-0.8-0.8c-0.1-0.1-0.2-0.2-0.2-0.2c-0.1-0.1-0.2-0.2-0.3-0.3c-0.1-0.1-0.2-0.2-0.3-0.3
			h-4c-0.5,0-0.9-0.4-0.9-0.9v-0.6c-0.3,0.6-0.6,1.3-0.9,1.9c-0.6,1.2-1.3,2.4-2,3.6v0.1c0,0.4-0.2,0.7-0.5,0.8
			c-1.6,2.5-3.2,4.8-5,7.1h4.7c0.5,0,0.9,0.4,0.9,0.9v1.1c0,0.5-0.4,0.9-0.9,0.9h-7.3c-4.4,4.8-9.5,8.8-14.9,11.9h5.3
			c0.5,0,0.9,0.4,0.9,0.9v1.1c0,0.5-0.4,0.9-0.9,0.9h-11.1c-0.3,0.1-0.6,0.3-0.9,0.4v6.5h12c0.5,0,0.9,0.4,0.9,0.9v1.1
			c0,0.5-0.4,0.9-0.9,0.9h-12v7h12c0.5,0,0.9,0.4,0.9,0.9v1.1c0,0.5-0.4,0.9-0.9,0.9h-12v6.9h12c0.5,0,0.9,0.4,0.9,0.9v1.1
			c0,0.5-0.4,0.9-0.9,0.9h-12v6.9h12c0.5,0,0.9,0.4,0.9,0.9v1.1c0,0.5-0.4,0.9-0.9,0.9h-12v7h12c0.5,0,0.9,0.4,0.9,0.9v1.1
			c0,0.5-0.4,0.9-0.9,0.9h-12v7h12c0.5,0,0.9,0.4,0.9,0.9v1.1c0,0.5-0.4,0.9-0.9,0.9h-12v7h12c0.5,0,0.9,0.4,0.9,0.9v1.1
			c0,0.5-0.4,0.9-0.9,0.9h-12v6.9h12c0.5,0,0.9,0.4,0.9,0.9v1.1c0,0.5-0.4,0.9-0.9,0.9h-12v7h12c0.5,0,0.9,0.4,0.9,0.9v1.1
			c0,0.5-0.4,0.9-0.9,0.9h-12v7h12c0.5,0,0.9,0.4,0.9,0.9v1.1c0,0.5-0.4,0.9-0.9,0.9h-12v7h12c0.5,0,0.9,0.4,0.9,0.9v1.1
			c0,0.5-0.4,0.9-0.9,0.9h-12v6.9h12c0.5,0,0.9,0.4,0.9,0.9v1.1c0,0.5-0.4,0.9-0.9,0.9h-12v6.9h12c0.5,0,0.9,0.4,0.9,0.9v1.1
			c0,0.1,0,0.2,0,0.2c3.6-1.2,7.1-2.7,10.5-4.3h-7.5c-0.5,0-0.9-0.4-0.9-0.9v-1.1c0-0.5,0.4-0.9,0.9-0.9h13.1c0.1,0,0.2,0,0.3,0.1
			c1.3-0.7,2.7-1.5,4-2.3c-0.2-0.2-0.3-0.4-0.3-0.7v-1.1c0-0.5,0.4-0.9,0.9-0.9h3.8c3.3-2.2,6.4-4.5,9.4-7c0,0-0.1,0-0.1,0h-13.1
			c-0.5,0-0.9-0.4-0.9-0.9v-1.1c0-0.5,0.4-0.9,0.9-0.9h13.1c0.5,0,0.9,0.4,0.9,0.9v1.1c0,0.1,0,0.2-0.1,0.3c1.4-1.2,2.7-2.4,4-3.6
			v-0.8c0-0.5,0.4-0.9,0.9-0.9h0.9c2.3-2.2,4.5-4.5,6.5-6.9h-7.5c-0.5,0-0.9-0.4-0.9-0.9v-1.1c0-0.5,0.4-0.9,0.9-0.9h9.9
			c1.6-2,3.1-4,4.5-6v-51.9C876.9,579.2,876.9,578.3,876.8,577.4z M839.6,657.9c0,0.5-0.4,0.9-0.9,0.9h-13.1c-0.5,0-0.9-0.4-0.9-0.9
			v-1.1c0-0.5,0.4-0.9,0.9-0.9h13.1c0.5,0,0.9,0.4,0.9,0.9V657.9z M839.6,648c0,0.5-0.4,0.9-0.9,0.9h-13.1c-0.5,0-0.9-0.4-0.9-0.9
			v-1.1c0-0.5,0.4-0.9,0.9-0.9h13.1c0.5,0,0.9,0.4,0.9,0.9V648z M839.6,638.1c0,0.5-0.4,0.9-0.9,0.9h-13.1c-0.5,0-0.9-0.4-0.9-0.9
			v-1.1c0-0.5,0.4-0.9,0.9-0.9h13.1c0.5,0,0.9,0.4,0.9,0.9V638.1z M839.6,628.1c0,0.5-0.4,0.9-0.9,0.9h-13.1c-0.5,0-0.9-0.4-0.9-0.9
			V627c0-0.5,0.4-0.9,0.9-0.9h13.1c0.5,0,0.9,0.4,0.9,0.9V628.1z M839.6,618.2c0,0.5-0.4,0.9-0.9,0.9h-13.1c-0.5,0-0.9-0.4-0.9-0.9
			V617c0-0.5,0.4-0.9,0.9-0.9h13.1c0.5,0,0.9,0.4,0.9,0.9V618.2z M839.6,608.3c0,0.5-0.4,0.9-0.9,0.9h-13.1c-0.5,0-0.9-0.4-0.9-0.9
			v-1.1c0-0.5,0.4-0.9,0.9-0.9h13.1c0.5,0,0.9,0.4,0.9,0.9V608.3z M839.6,598.3c0,0.5-0.4,0.9-0.9,0.9h-13.1c-0.5,0-0.9-0.4-0.9-0.9
			v-1.1c0-0.5,0.4-0.9,0.9-0.9h13.1c0.5,0,0.9,0.4,0.9,0.9V598.3z M839.6,588.4c0,0.5-0.4,0.9-0.9,0.9h-13.1c-0.5,0-0.9-0.4-0.9-0.9
			v-1.1c0-0.5,0.4-0.9,0.9-0.9h13.1c0.5,0,0.9,0.4,0.9,0.9V588.4z M839.6,578.4c0,0.5-0.4,0.9-0.9,0.9h-13.1c-0.5,0-0.9-0.4-0.9-0.9
			v-1.1c0-0.5,0.4-0.9,0.9-0.9h13.1c0.5,0,0.9,0.4,0.9,0.9V578.4z M839.6,568.5c0,0.5-0.4,0.9-0.9,0.9h-13.1c-0.5,0-0.9-0.4-0.9-0.9
			v-1.1c0-0.5,0.4-0.9,0.9-0.9h13.1c0.5,0,0.9,0.4,0.9,0.9V568.5z M839.6,558.6c0,0.5-0.4,0.9-0.9,0.9h-13.1c-0.5,0-0.9-0.4-0.9-0.9
			v-1.1c0-0.5,0.4-0.9,0.9-0.9h13.1c0.5,0,0.9,0.4,0.9,0.9V558.6z M839.6,548.6c0,0.5-0.4,0.9-0.9,0.9h-13.1c-0.5,0-0.9-0.4-0.9-0.9
			v-1.1c0-0.5,0.4-0.9,0.9-0.9h13.1c0.5,0,0.9,0.4,0.9,0.9V548.6z M839.6,538.7c0,0.5-0.4,0.9-0.9,0.9h-13.1c-0.5,0-0.9-0.4-0.9-0.9
			v-1.1c0-0.5,0.4-0.9,0.9-0.9h13.1c0.5,0,0.9,0.4,0.9,0.9V538.7z M857.5,643c0,0.5-0.4,0.9-0.9,0.9h-13.1c-0.5,0-0.9-0.4-0.9-0.9
			v-1.1c0-0.5,0.4-0.9,0.9-0.9h13.1c0.5,0,0.9,0.4,0.9,0.9V643z M857.5,633.1c0,0.5-0.4,0.9-0.9,0.9h-13.1c-0.5,0-0.9-0.4-0.9-0.9
			V632c0-0.5,0.4-0.9,0.9-0.9h13.1c0.5,0,0.9,0.4,0.9,0.9V633.1z M857.5,623.2c0,0.5-0.4,0.9-0.9,0.9h-13.1c-0.5,0-0.9-0.4-0.9-0.9
			V622c0-0.5,0.4-0.9,0.9-0.9h13.1c0.5,0,0.9,0.4,0.9,0.9V623.2z M857.5,613.2c0,0.5-0.4,0.9-0.9,0.9h-13.1c-0.5,0-0.9-0.4-0.9-0.9
			v-1.1c0-0.5,0.4-0.9,0.9-0.9h13.1c0.5,0,0.9,0.4,0.9,0.9V613.2z M857.5,603.3c0,0.5-0.4,0.9-0.9,0.9h-13.1c-0.5,0-0.9-0.4-0.9-0.9
			v-1.1c0-0.5,0.4-0.9,0.9-0.9h13.1c0.5,0,0.9,0.4,0.9,0.9V603.3z M857.5,593.3c0,0.5-0.4,0.9-0.9,0.9h-13.1c-0.5,0-0.9-0.4-0.9-0.9
			v-1.1c0-0.5,0.4-0.9,0.9-0.9h13.1c0.5,0,0.9,0.4,0.9,0.9V593.3z M857.5,583.4c0,0.5-0.4,0.9-0.9,0.9h-13.1c-0.5,0-0.9-0.4-0.9-0.9
			v-1.1c0-0.5,0.4-0.9,0.9-0.9h13.1c0.5,0,0.9,0.4,0.9,0.9V583.4z M857.5,573.5c0,0.5-0.4,0.9-0.9,0.9h-13.1c-0.5,0-0.9-0.4-0.9-0.9
			v-1.1c0-0.5,0.4-0.9,0.9-0.9h13.1c0.5,0,0.9,0.4,0.9,0.9V573.5z M857.5,563.5c0,0.5-0.4,0.9-0.9,0.9h-13.1c-0.5,0-0.9-0.4-0.9-0.9
			v-1.1c0-0.5,0.4-0.9,0.9-0.9h13.1c0.5,0,0.9,0.4,0.9,0.9V563.5z M857.5,553.6c0,0.5-0.4,0.9-0.9,0.9h-13.1c-0.5,0-0.9-0.4-0.9-0.9
			v-1.1c0-0.5,0.4-0.9,0.9-0.9h13.1c0.5,0,0.9,0.4,0.9,0.9V553.6z M857.5,543.7c0,0.5-0.4,0.9-0.9,0.9h-13.1c-0.5,0-0.9-0.4-0.9-0.9
			v-1.1c0-0.5,0.4-0.9,0.9-0.9h13.1c0.5,0,0.9,0.4,0.9,0.9V543.7z M857.5,533.7c0,0.5-0.4,0.9-0.9,0.9h-13.1c-0.5,0-0.9-0.4-0.9-0.9
			v-1.1c0-0.5,0.4-0.9,0.9-0.9h13.1c0.5,0,0.9,0.4,0.9,0.9V533.7z M876.4,630.1c0,0.5-0.4,0.9-0.9,0.9h-13.1c-0.5,0-0.9-0.4-0.9-0.9
			V629c0-0.5,0.4-0.9,0.9-0.9h13.1c0.5,0,0.9,0.4,0.9,0.9V630.1z M876.4,620.2c0,0.5-0.4,0.9-0.9,0.9h-13.1c-0.5,0-0.9-0.4-0.9-0.9
			V619c0-0.5,0.4-0.9,0.9-0.9h13.1c0.5,0,0.9,0.4,0.9,0.9V620.2z M876.4,610.2c0,0.5-0.4,0.9-0.9,0.9h-13.1c-0.5,0-0.9-0.4-0.9-0.9
			v-1.1c0-0.5,0.4-0.9,0.9-0.9h13.1c0.5,0,0.9,0.4,0.9,0.9V610.2z M876.4,600.3c0,0.5-0.4,0.9-0.9,0.9h-13.1c-0.5,0-0.9-0.4-0.9-0.9
			v-1.1c0-0.5,0.4-0.9,0.9-0.9h13.1c0.5,0,0.9,0.4,0.9,0.9V600.3z M876.4,590.4c0,0.5-0.4,0.9-0.9,0.9h-13.1c-0.5,0-0.9-0.4-0.9-0.9
			v-1.1c0-0.5,0.4-0.9,0.9-0.9h13.1c0.5,0,0.9,0.4,0.9,0.9V590.4z M876.4,580.4c0,0.5-0.4,0.9-0.9,0.9h-13.1c-0.5,0-0.9-0.4-0.9-0.9
			v-1.1c0-0.5,0.4-0.9,0.9-0.9h13.1c0.5,0,0.9,0.4,0.9,0.9V580.4z"/>
		<path class="st1" d="M873.3,555.2c0.3,0.9,0.5,1.8,0.7,2.7C873.8,556.9,873.5,556.1,873.3,555.2z"/>
		<path class="st1" d="M859.8,528.2c0.4,0.5,0.7,1,1.1,1.5C860.5,529.2,860.1,528.7,859.8,528.2z"/>
		<path class="st1" d="M868.9,543.6c0.4,0.8,0.7,1.6,1.1,2.5C869.6,545.2,869.3,544.4,868.9,543.6z"/>
		<path class="st1" d="M844.9,512.5c0.6,0.5,1.2,1,1.9,1.6C846.2,513.6,845.6,513,844.9,512.5z"/>
		<path class="st1" d="M863,532.8c0.5,0.8,1,1.5,1.4,2.3C863.9,534.4,863.5,533.6,863,532.8z"/>
		<path class="st1" d="M871.4,549.8c0.2,0.5,0.4,1.1,0.6,1.6C871.8,550.9,871.6,550.3,871.4,549.8z"/>
		<path class="st1" d="M876.3,570.3c-0.1-0.9-0.2-1.8-0.4-2.8c0.1,0.4,0.1,0.8,0.2,1.2C876.2,569.2,876.3,569.8,876.3,570.3z"/>
		<path class="st1" d="M872.4,552.5c0.2,0.7,0.4,1.4,0.7,2C872.8,553.8,872.6,553.2,872.4,552.5z"/>
		<path class="st1" d="M868.5,542.9c-0.3-0.6-0.6-1.2-0.9-1.8c0.1,0.2,0.2,0.4,0.3,0.5C868.1,542,868.3,542.5,868.5,542.9z"/>
		<path class="st1" d="M844,511.8c0.1,0.1,0.2,0.2,0.3,0.2c-0.3-0.2-0.6-0.5-0.8-0.7c0,0,0,0,0,0C843.7,511.5,843.9,511.7,844,511.8
			z"/>
		<path class="st1" d="M844,511.8c-0.2-0.1-0.4-0.3-0.5-0.4c-0.1,0.2-0.1,0.3-0.2,0.5c0.1,0,0.2-0.1,0.3-0.1H844z"/>
		<path class="st1" d="M871,548.7c-0.2-0.6-0.4-1.1-0.7-1.7c0.2,0.5,0.4,1,0.6,1.5C871,548.6,871,548.7,871,548.7z"/>
		<path class="st1" d="M867.2,540.1c-0.3-0.5-0.5-1-0.8-1.5c0,0,0,0.1,0,0.1C866.7,539.1,866.9,539.6,867.2,540.1z"/>
		<path class="st1" d="M855.3,522.6c-0.5-0.6-1-1.1-1.5-1.7c0.2,0.3,0.5,0.5,0.7,0.8C854.8,522,855,522.3,855.3,522.6z"/>
		<path class="st1" d="M857.4,525.2c-0.6-0.7-1.2-1.4-1.8-2.1c0.5,0.5,0.9,1.1,1.3,1.6C857.1,524.8,857.3,525,857.4,525.2z"/>
		<path class="st1" d="M849.2,516.3c-0.7-0.7-1.4-1.3-2.1-1.9c0.2,0.1,0.3,0.3,0.5,0.4C848.1,515.3,848.7,515.8,849.2,516.3z"/>
		<path class="st1" d="M876.7,574.4c0,0.6,0.1,1.3,0.1,1.9C876.8,575.7,876.7,575,876.7,574.4z"/>
		<polygon class="st1" points="809.8,670.8 809.8,663.8 809.8,660.8 809.8,653.9 809.8,650.9 809.8,643.9 809.8,641 809.8,634 
			809.8,631 809.8,624.1 809.8,621.1 809.8,614.1 809.8,611.2 809.8,604.2 809.8,601.2 809.8,594.3 809.8,591.3 809.8,584.3 
			809.8,581.4 809.8,574.4 809.8,571.4 809.8,564.5 809.8,561.5 809.8,554.5 809.8,551.5 809.8,545 809.8,545 809.8,676.7 
			809.8,676.7 809.8,673.7 		"/>
		<path class="st1" d="M874.3,558.8c0.1,0.6,0.3,1.2,0.4,1.8C874.5,560,874.4,559.4,874.3,558.8z"/>
		<path class="st1" d="M876.4,571.3c0.1,0.6,0.1,1.3,0.2,1.9C876.6,572.6,876.5,572,876.4,571.3z"/>
		<path class="st1" d="M876.9,577.4c0,0.9,0,1.8,0,2.7C876.9,579.2,876.9,578.3,876.9,577.4z"/>
		<path class="st1" d="M874.9,561.8c0.1,0.6,0.2,1.2,0.4,1.8C875.2,563,875.1,562.4,874.9,561.8z"/>
		<path class="st1" d="M875.5,564.6c0.1,0.8,0.3,1.6,0.4,2.4C875.8,566.2,875.6,565.4,875.5,564.6z"/>
		<path class="st1" d="M862.2,531.6c0.1,0.2,0.3,0.4,0.4,0.6c-0.4-0.6-0.8-1.1-1.1-1.7c0,0,0.1,0.1,0.1,0.1
			C861.7,531,862,531.3,862.2,531.6z"/>
		<path class="st1" d="M809.8,544.6v-3v-7V534c0-0.8,0-1.6,0.1-2.3c0.1-2.4,0.5-4.7,1-7c0.2-1,0.5-2,0.8-3c0.8-2.4,1.7-4.7,2.9-7
			c0.5-1,1.1-2,1.8-3c1.6-2.5,3.5-4.9,5.7-7c0.2-0.2,0.4-0.4,0.7-0.6c0.1-0.1,0.2-0.2,0.4-0.4c-8.1,7.5-13.2,18.2-13.2,30.2v11
			c0,0,0,0,0,0V544.6z"/>
		<path class="st1" d="M826.6,500.9C826.6,500.9,826.6,500.9,826.6,500.9c0.8,0.4,1.7,0.8,2.5,1.2
			C828.3,501.7,827.5,501.3,826.6,500.9z"/>
		<path class="st1" d="M840.3,509c0.6,0.4,1.1,0.8,1.7,1.3C841.5,509.8,840.9,509.4,840.3,509z"/>
		<path class="st1" d="M809.8,545c0.3-0.1,0.6-0.3,0.9-0.4h-0.9V545z"/>
		<path class="st1" d="M822.1,504.8c-2.1,2.1-4,4.5-5.7,7h5.5c0.5,0,0.9,0.4,0.9,0.9v1.1c0,0.5-0.4,0.9-0.9,0.9h-7.2
			c-1.2,2.2-2.2,4.5-2.9,7h10.1c0.5,0,0.9,0.4,0.9,0.9v1.1c0,0.5-0.4,0.9-0.9,0.9h-10.9c-0.5,2.3-0.9,4.6-1,7h11.9
			c0.5,0,0.9,0.4,0.9,0.9v1.1c0,0.5-0.4,0.9-0.9,0.9h-12v7h6.7c5.5-3.2,10.5-7.2,14.9-11.9h-5.8c-0.5,0-0.9-0.4-0.9-0.9v-1.1
			c0-0.5,0.4-0.9,0.9-0.9h8.4c1.8-2.2,3.5-4.6,5.1-7c-0.1,0.1-0.2,0.1-0.4,0.1h-13.1c-0.5,0-0.9-0.4-0.9-0.9v-1.1
			c0-0.5,0.4-0.9,0.9-0.9h13.1c0.5,0,0.9,0.4,0.9,0.9v1.1c0.7-1.2,1.4-2.4,2-3.6c0.3-0.6,0.6-1.3,0.9-1.9v-0.6
			c0-0.4,0.3-0.7,0.7-0.9c0.1-0.2,0.2-0.3,0.2-0.5c-0.3-0.2-0.5-0.4-0.8-0.6c-0.2-0.2-0.4-0.3-0.7-0.5c-0.6-0.4-1.1-0.8-1.7-1.3
			c-0.2-0.1-0.4-0.3-0.6-0.4c0,0,0,0-0.1,0v0.4c0,0.5-0.4,0.9-0.9,0.9h-13.1c-0.5,0-0.9-0.4-0.9-0.9v-1.1c0-0.5,0.4-0.9,0.9-0.9
			h11.6c-0.2-0.1-0.3-0.2-0.5-0.3c-0.5-0.4-1.1-0.7-1.7-1.1c-0.3-0.2-0.7-0.4-1-0.6c-0.5-0.3-0.9-0.6-1.4-0.8
			c-0.3-0.2-0.7-0.4-1.1-0.6c-0.5-0.3-1-0.6-1.5-0.8c-0.3-0.2-0.6-0.3-0.9-0.5c-0.8-0.4-1.7-0.8-2.5-1.2c-1.2,0.9-2.4,1.9-3.6,2.9
			c-0.1,0.1-0.2,0.2-0.4,0.4C822.6,504.5,822.4,504.7,822.1,504.8z"/>
		<path class="st1" d="M835.1,505.5c0.6,0.3,1.1,0.7,1.7,1.1C836.2,506.2,835.6,505.8,835.1,505.5z"/>
		<path class="st1" d="M830.1,502.6c0.5,0.3,1,0.5,1.5,0.8C831.1,503.2,830.6,502.9,830.1,502.6z"/>
		<path class="st1" d="M839.7,508.5c-0.7-0.5-1.5-1.1-2.3-1.6C838.2,507.5,838.9,508,839.7,508.5
			C839.7,508.5,839.7,508.5,839.7,508.5z"/>
		<path class="st1" d="M843.5,511.4c-0.3-0.2-0.5-0.4-0.8-0.6C843,510.9,843.2,511.2,843.5,511.4
			C843.5,511.4,843.5,511.4,843.5,511.4z"/>
		<path class="st1" d="M832.7,504c0.5,0.3,0.9,0.6,1.4,0.8C833.6,504.6,833.1,504.3,832.7,504z"/>
		<path class="st10" d="M856.6,541.6h-13.1c-0.5,0-0.9,0.4-0.9,0.9v1.1c0,0.5,0.4,0.9,0.9,0.9h13.1c0.5,0,0.9-0.4,0.9-0.9v-1.1
			C857.5,542,857.1,541.6,856.6,541.6z"/>
		<path class="st10" d="M856.6,551.5h-13.1c-0.5,0-0.9,0.4-0.9,0.9v1.1c0,0.5,0.4,0.9,0.9,0.9h13.1c0.5,0,0.9-0.4,0.9-0.9v-1.1
			C857.5,552,857.1,551.5,856.6,551.5z"/>
		<path class="st10" d="M856.6,561.5h-13.1c-0.5,0-0.9,0.4-0.9,0.9v1.1c0,0.5,0.4,0.9,0.9,0.9h13.1c0.5,0,0.9-0.4,0.9-0.9v-1.1
			C857.5,561.9,857.1,561.5,856.6,561.5z"/>
		<path class="st10" d="M844.4,512.1c0.2,0.2,0.4,0.3,0.6,0.5C844.7,512.4,844.5,512.2,844.4,512.1z"/>
		<path class="st10" d="M846.8,514.1c0.1,0.1,0.2,0.2,0.3,0.3C847,514.3,846.9,514.2,846.8,514.1z"/>
		<path class="st10" d="M843.5,511.8c-0.1,0-0.2,0-0.3,0.1c-0.2,0.5-0.4,1-0.7,1.4v0.6c0,0.5,0.4,0.9,0.9,0.9h4
			c-0.2-0.1-0.3-0.3-0.5-0.4c-0.1-0.1-0.2-0.2-0.3-0.3c-0.6-0.5-1.2-1.1-1.9-1.6c-0.2-0.2-0.4-0.3-0.6-0.5c-0.1-0.1-0.2-0.2-0.3-0.2
			H843.5z"/>
		<path class="st10" d="M842.6,512.7v0.6c0.2-0.5,0.4-0.9,0.7-1.4C842.9,512,842.6,512.3,842.6,512.7z"/>
		<path class="st10" d="M855.3,522.6c0.1,0.1,0.3,0.3,0.4,0.4C855.5,522.9,855.4,522.7,855.3,522.6z"/>
		<path class="st10" d="M843.5,521.7c-0.5,0-0.9,0.4-0.9,0.9v1.1c0,0.5,0.4,0.9,0.9,0.9h13.1c0.1,0,0.3,0,0.4-0.1
			c-0.4-0.5-0.9-1.1-1.3-1.6c-0.1-0.1-0.3-0.3-0.4-0.4c-0.3-0.3-0.5-0.6-0.8-0.9H843.5z"/>
		<path class="st10" d="M856.6,531.7h-13.1c-0.5,0-0.9,0.4-0.9,0.9v1.1c0,0.5,0.4,0.9,0.9,0.9h13.1c0.5,0,0.9-0.4,0.9-0.9v-1.1
			C857.5,532.1,857.1,531.7,856.6,531.7z"/>
		<path class="st10" d="M856.6,571.4h-13.1c-0.5,0-0.9,0.4-0.9,0.9v1.1c0,0.5,0.4,0.9,0.9,0.9h13.1c0.5,0,0.9-0.4,0.9-0.9v-1.1
			C857.5,571.8,857.1,571.4,856.6,571.4z"/>
		<path class="st10" d="M856.6,581.4h-13.1c-0.5,0-0.9,0.4-0.9,0.9v1.1c0,0.5,0.4,0.9,0.9,0.9h13.1c0.5,0,0.9-0.4,0.9-0.9v-1.1
			C857.5,581.8,857.1,581.4,856.6,581.4z"/>
		<path class="st10" d="M856.6,591.3h-13.1c-0.5,0-0.9,0.4-0.9,0.9v1.1c0,0.5,0.4,0.9,0.9,0.9h13.1c0.5,0,0.9-0.4,0.9-0.9v-1.1
			C857.5,591.7,857.1,591.3,856.6,591.3z"/>
		<path class="st10" d="M856.6,601.2h-13.1c-0.5,0-0.9,0.4-0.9,0.9v1.1c0,0.5,0.4,0.9,0.9,0.9h13.1c0.5,0,0.9-0.4,0.9-0.9v-1.1
			C857.5,601.6,857.1,601.2,856.6,601.2z"/>
		<path class="st10" d="M856.6,611.2h-13.1c-0.5,0-0.9,0.4-0.9,0.9v1.1c0,0.5,0.4,0.9,0.9,0.9h13.1c0.5,0,0.9-0.4,0.9-0.9v-1.1
			C857.5,611.6,857.1,611.2,856.6,611.2z"/>
		<path class="st10" d="M856.6,621.1h-13.1c-0.5,0-0.9,0.4-0.9,0.9v1.1c0,0.5,0.4,0.9,0.9,0.9h13.1c0.5,0,0.9-0.4,0.9-0.9V622
			C857.5,621.5,857.1,621.1,856.6,621.1z"/>
		<path class="st10" d="M856.6,631h-13.1c-0.5,0-0.9,0.4-0.9,0.9v1.1c0,0.5,0.4,0.9,0.9,0.9h13.1c0.5,0,0.9-0.4,0.9-0.9v-1.1
			C857.5,631.4,857.1,631,856.6,631z"/>
		<path class="st10" d="M856.6,641h-13.1c-0.5,0-0.9,0.4-0.9,0.9v1.1c0,0.5,0.4,0.9,0.9,0.9h13.1c0.5,0,0.9-0.4,0.9-0.9v-1.1
			C857.5,641.4,857.1,641,856.6,641z"/>
		<path class="st10" d="M857.5,653.2c-0.1,0.3-0.4,0.6-0.7,0.6C857,653.7,857.2,653.4,857.5,653.2z"/>
		<path class="st10" d="M857.5,653v-1.1c0-0.5-0.4-0.9-0.9-0.9h-13.1c-0.5,0-0.9,0.4-0.9,0.9v1.1c0,0.5,0.4,0.9,0.9,0.9h13.1
			c0,0,0.1,0,0.1,0c0.2-0.2,0.5-0.4,0.7-0.6C857.5,653.2,857.5,653.1,857.5,653z"/>
		<path class="st10" d="M847.3,660.8c-1.4,1-2.9,1.9-4.4,2.8c-0.2-0.2-0.3-0.4-0.3-0.7v-1.1c0-0.5,0.4-0.9,0.9-0.9H847.3z"/>
		<path class="st10" d="M871,548.7c0.1,0.4,0.3,0.7,0.4,1.1C871.3,549.4,871.2,549.1,871,548.7z"/>
		<path class="st10" d="M872.1,551.5c0,0,0-0.1,0-0.1C872,551.5,872.1,551.5,872.1,551.5L872.1,551.5z"/>
		<path class="st10" d="M862.4,548.6c-0.5,0-0.9,0.4-0.9,0.9v1.1c0,0.5,0.4,0.9,0.9,0.9h9.7c0,0,0-0.1,0-0.1
			c-0.2-0.5-0.4-1.1-0.6-1.6c-0.1-0.4-0.3-0.7-0.4-1.1c0,0,0-0.1-0.1-0.1H862.4z"/>
		<path class="st10" d="M874.3,558.8c0-0.1-0.1-0.2-0.1-0.3h0C874.2,558.6,874.2,558.7,874.3,558.8z"/>
		<path class="st10" d="M874.9,561.5c-0.1-0.3-0.1-0.6-0.2-0.8C874.7,560.9,874.8,561.2,874.9,561.5L874.9,561.5z"/>
		<path class="st10" d="M862.4,558.5c-0.5,0-0.9,0.4-0.9,0.9v1.1c0,0.5,0.4,0.9,0.9,0.9h12.4c-0.1-0.3-0.1-0.6-0.2-0.8
			c-0.1-0.6-0.3-1.2-0.4-1.8c0-0.1-0.1-0.2-0.1-0.3H862.4z"/>
		<path class="st10" d="M876.4,570.7c0-0.1,0-0.2,0-0.4C876.3,570.4,876.4,570.5,876.4,570.7C876.4,570.7,876.4,570.7,876.4,570.7z"
			/>
		<path class="st10" d="M875.5,568.4h-13.1c-0.5,0-0.9,0.4-0.9,0.9v1.1c0,0.5,0.4,0.9,0.9,0.9h13.1c0.4,0,0.8-0.3,0.9-0.7
			c0-0.1,0-0.3,0-0.4c-0.1-0.5-0.1-1.1-0.2-1.6C876,568.5,875.7,568.4,875.5,568.4z"/>
		<path class="st10" d="M861.5,530.8c0,0.4,0.3,0.8,0.7,0.9c-0.2-0.3-0.4-0.7-0.7-1V530.8z"/>
		<path class="st10" d="M867.2,540.1c0.2,0.3,0.3,0.7,0.5,1C867.5,540.7,867.3,540.4,867.2,540.1z"/>
		<path class="st10" d="M862.4,538.6c-0.5,0-0.9,0.4-0.9,0.9v1.1c0,0.5,0.4,0.9,0.9,0.9h5.5c-0.1-0.2-0.2-0.4-0.3-0.5
			c-0.2-0.3-0.3-0.7-0.5-1c-0.2-0.5-0.5-1-0.8-1.4H862.4z"/>
		<path class="st10" d="M875.5,578.4h-13.1c-0.5,0-0.9,0.4-0.9,0.9v1.1c0,0.5,0.4,0.9,0.9,0.9h13.1c0.5,0,0.9-0.4,0.9-0.9v-1.1
			C876.4,578.8,876,578.4,875.5,578.4z"/>
		<path class="st10" d="M875.5,588.3h-13.1c-0.5,0-0.9,0.4-0.9,0.9v1.1c0,0.5,0.4,0.9,0.9,0.9h13.1c0.5,0,0.9-0.4,0.9-0.9v-1.1
			C876.4,588.7,876,588.3,875.5,588.3z"/>
		<path class="st10" d="M875.5,598.2h-13.1c-0.5,0-0.9,0.4-0.9,0.9v1.1c0,0.5,0.4,0.9,0.9,0.9h13.1c0.5,0,0.9-0.4,0.9-0.9v-1.1
			C876.4,598.7,876,598.2,875.5,598.2z"/>
		<path class="st10" d="M875.5,608.2h-13.1c-0.5,0-0.9,0.4-0.9,0.9v1.1c0,0.5,0.4,0.9,0.9,0.9h13.1c0.5,0,0.9-0.4,0.9-0.9v-1.1
			C876.4,608.6,876,608.2,875.5,608.2z"/>
		<path class="st10" d="M875.5,618.1h-13.1c-0.5,0-0.9,0.4-0.9,0.9v1.1c0,0.5,0.4,0.9,0.9,0.9h13.1c0.5,0,0.9-0.4,0.9-0.9V619
			C876.4,618.5,876,618.1,875.5,618.1z"/>
		<path class="st10" d="M875.5,628h-13.1c-0.5,0-0.9,0.4-0.9,0.9v1.1c0,0.5,0.4,0.9,0.9,0.9h13.1c0.5,0,0.9-0.4,0.9-0.9V629
			C876.4,628.5,876,628,875.5,628z"/>
		<path class="st10" d="M872.4,638c-0.8,1-1.6,2-2.5,3h-7.5c-0.5,0-0.9-0.4-0.9-0.9v-1.1c0-0.5,0.4-0.9,0.9-0.9H872.4z"/>
		<path class="st10" d="M863.3,647.9c-0.6,0.6-1.2,1.2-1.8,1.8v-0.8c0-0.5,0.4-0.9,0.9-0.9H863.3z"/>
		<path class="st10" d="M838.7,536.6h-13.1c-0.5,0-0.9,0.4-0.9,0.9v1.1c0,0.5,0.4,0.9,0.9,0.9h13.1c0.5,0,0.9-0.4,0.9-0.9v-1.1
			C839.6,537.1,839.2,536.6,838.7,536.6z"/>
		<path class="st10" d="M838.7,546.6h-13.1c-0.5,0-0.9,0.4-0.9,0.9v1.1c0,0.5,0.4,0.9,0.9,0.9h13.1c0.5,0,0.9-0.4,0.9-0.9v-1.1
			C839.6,547,839.2,546.6,838.7,546.6z"/>
		<path class="st10" d="M838.7,556.5h-13.1c-0.5,0-0.9,0.4-0.9,0.9v1.1c0,0.5,0.4,0.9,0.9,0.9h13.1c0.5,0,0.9-0.4,0.9-0.9v-1.1
			C839.6,556.9,839.2,556.5,838.7,556.5z"/>
		<path class="st10" d="M837.4,507c-0.1,0-0.1-0.1-0.2-0.1h0C837.3,506.9,837.4,506.9,837.4,507z"/>
		<path class="st10" d="M825.7,506.8c-0.5,0-0.9,0.4-0.9,0.9v1.1c0,0.5,0.4,0.9,0.9,0.9h13.1c0.5,0,0.9-0.4,0.9-0.9v-0.4
			c-0.7-0.5-1.5-1-2.2-1.5c-0.1,0-0.1-0.1-0.2-0.1H825.7z"/>
		<path class="st10" d="M839.6,518.8L839.6,518.8c-0.2,0.2-0.4,0.5-0.5,0.8C839.4,519.5,839.6,519.2,839.6,518.8z"/>
		<path class="st10" d="M838.7,516.8h-13.1c-0.5,0-0.9,0.4-0.9,0.9v1.1c0,0.5,0.4,0.9,0.9,0.9h13.1c0.1,0,0.3,0,0.4-0.1
			c0.2-0.3,0.4-0.6,0.5-0.9v-1.1C839.6,517.2,839.2,516.8,838.7,516.8z"/>
		<path class="st10" d="M838.7,529.7c0.5,0,0.9-0.4,0.9-0.9v-1.1c0-0.5-0.4-0.9-0.9-0.9h-4.7c-0.8,1-1.7,2-2.6,3H838.7z"/>
		<path class="st10" d="M824.7,527.6v1.1c0,0.5,0.4,0.9,0.9,0.9h5.8c0.9-1,1.8-2,2.6-3h-8.4C825.2,526.7,824.7,527.1,824.7,527.6z"
			/>
		<path class="st10" d="M838.7,566.4h-13.1c-0.5,0-0.9,0.4-0.9,0.9v1.1c0,0.5,0.4,0.9,0.9,0.9h13.1c0.5,0,0.9-0.4,0.9-0.9v-1.1
			C839.6,566.9,839.2,566.4,838.7,566.4z"/>
		<path class="st10" d="M838.7,576.4h-13.1c-0.5,0-0.9,0.4-0.9,0.9v1.1c0,0.5,0.4,0.9,0.9,0.9h13.1c0.5,0,0.9-0.4,0.9-0.9v-1.1
			C839.6,576.8,839.2,576.4,838.7,576.4z"/>
		<path class="st10" d="M838.7,586.3h-13.1c-0.5,0-0.9,0.4-0.9,0.9v1.1c0,0.5,0.4,0.9,0.9,0.9h13.1c0.5,0,0.9-0.4,0.9-0.9v-1.1
			C839.6,586.7,839.2,586.3,838.7,586.3z"/>
		<path class="st10" d="M838.7,596.3h-13.1c-0.5,0-0.9,0.4-0.9,0.9v1.1c0,0.5,0.4,0.9,0.9,0.9h13.1c0.5,0,0.9-0.4,0.9-0.9v-1.1
			C839.6,596.7,839.2,596.3,838.7,596.3z"/>
		<path class="st10" d="M838.7,606.2h-13.1c-0.5,0-0.9,0.4-0.9,0.9v1.1c0,0.5,0.4,0.9,0.9,0.9h13.1c0.5,0,0.9-0.4,0.9-0.9v-1.1
			C839.6,606.6,839.2,606.2,838.7,606.2z"/>
		<path class="st10" d="M838.7,616.1h-13.1c-0.5,0-0.9,0.4-0.9,0.9v1.1c0,0.5,0.4,0.9,0.9,0.9h13.1c0.5,0,0.9-0.4,0.9-0.9V617
			C839.6,616.5,839.2,616.1,838.7,616.1z"/>
		<path class="st10" d="M838.7,626.1h-13.1c-0.5,0-0.9,0.4-0.9,0.9v1.1c0,0.5,0.4,0.9,0.9,0.9h13.1c0.5,0,0.9-0.4,0.9-0.9V627
			C839.6,626.5,839.2,626.1,838.7,626.1z"/>
		<path class="st10" d="M838.7,636h-13.1c-0.5,0-0.9,0.4-0.9,0.9v1.1c0,0.5,0.4,0.9,0.9,0.9h13.1c0.5,0,0.9-0.4,0.9-0.9v-1.1
			C839.6,636.4,839.2,636,838.7,636z"/>
		<path class="st10" d="M838.7,645.9h-13.1c-0.5,0-0.9,0.4-0.9,0.9v1.1c0,0.5,0.4,0.9,0.9,0.9h13.1c0.5,0,0.9-0.4,0.9-0.9v-1.1
			C839.6,646.3,839.2,645.9,838.7,645.9z"/>
		<path class="st10" d="M838.7,655.9h-13.1c-0.5,0-0.9,0.4-0.9,0.9v1.1c0,0.5,0.4,0.9,0.9,0.9h13.1c0.5,0,0.9-0.4,0.9-0.9v-1.1
			C839.6,656.3,839.2,655.9,838.7,655.9z"/>
		<path class="st10" d="M822.8,523.8v-1.1c0-0.5-0.4-0.9-0.9-0.9h-10.1c-0.3,1-0.6,2-0.8,3h10.9
			C822.3,524.7,822.8,524.3,822.8,523.8z"/>
		<path class="st10" d="M822.8,533.7v-1.1c0-0.5-0.4-0.9-0.9-0.9h-11.9c0,0.8-0.1,1.5-0.1,2.3v0.7h12
			C822.3,534.7,822.8,534.2,822.8,533.7z"/>
		<path class="st10" d="M821.8,544.6c0.5,0,0.9-0.4,0.9-0.9v-1.1c0-0.5-0.4-0.9-0.9-0.9h-5.3c-1.9,1.1-3.8,2.1-5.8,3H821.8z"/>
		<path class="st10" d="M809.8,544.6h0.9c2-0.9,3.9-1.9,5.8-3h-6.7V544.6z"/>
		<path class="st10" d="M822.7,504.2c-0.2,0.2-0.4,0.4-0.7,0.6C822.4,504.7,822.6,504.5,822.7,504.2z"/>
		<path class="st10" d="M822.8,513.9v-1.1c0-0.5-0.4-0.9-0.9-0.9h-5.5c-0.6,1-1.2,2-1.8,3h7.2C822.3,514.8,822.8,514.4,822.8,513.9z
			"/>
		<path class="st10" d="M821.8,554.5c0.5,0,0.9-0.4,0.9-0.9v-1.1c0-0.5-0.4-0.9-0.9-0.9h-12v3H821.8z"/>
		<path class="st10" d="M821.8,564.5c0.5,0,0.9-0.4,0.9-0.9v-1.1c0-0.5-0.4-0.9-0.9-0.9h-12v3H821.8z"/>
		<path class="st10" d="M821.8,574.4c0.5,0,0.9-0.4,0.9-0.9v-1.1c0-0.5-0.4-0.9-0.9-0.9h-12v3H821.8z"/>
		<path class="st10" d="M821.8,584.3c0.5,0,0.9-0.4,0.9-0.9v-1.1c0-0.5-0.4-0.9-0.9-0.9h-12v3H821.8z"/>
		<path class="st10" d="M821.8,594.3c0.5,0,0.9-0.4,0.9-0.9v-1.1c0-0.5-0.4-0.9-0.9-0.9h-12v3H821.8z"/>
		<path class="st10" d="M821.8,604.2c0.5,0,0.9-0.4,0.9-0.9v-1.1c0-0.5-0.4-0.9-0.9-0.9h-12v3H821.8z"/>
		<path class="st10" d="M821.8,614.1c0.5,0,0.9-0.4,0.9-0.9v-1.1c0-0.5-0.4-0.9-0.9-0.9h-12v3H821.8z"/>
		<path class="st10" d="M821.8,624.1c0.5,0,0.9-0.4,0.9-0.9V622c0-0.5-0.4-0.9-0.9-0.9h-12v3H821.8z"/>
		<path class="st10" d="M821.8,634c0.5,0,0.9-0.4,0.9-0.9v-1.1c0-0.5-0.4-0.9-0.9-0.9h-12v3H821.8z"/>
		<path class="st10" d="M821.8,643.9c0.5,0,0.9-0.4,0.9-0.9v-1.1c0-0.5-0.4-0.9-0.9-0.9h-12v3H821.8z"/>
		<path class="st10" d="M821.8,653.9c0.5,0,0.9-0.4,0.9-0.9v-1.1c0-0.5-0.4-0.9-0.9-0.9h-12v3H821.8z"/>
		<path class="st10" d="M821.8,663.8c0.5,0,0.9-0.4,0.9-0.9v-1.1c0-0.5-0.4-0.9-0.9-0.9h-12v3H821.8z"/>
		<path class="st13" d="M788,678.4c-52.2,0-99.7-39.9-105.4-91.1c-0.4,3.6-0.6,7.3-0.6,11c0,58.5,47.4,106,106,106
			c58.5,0,106-47.4,106-106c0-3.7-0.2-7.4-0.6-11C887.7,638.5,840.2,678.4,788,678.4z"/>
	</g>
</g>
</svg>
