<?xml version="1.0" encoding="utf-8"?>
<!-- Generator: Adobe Illustrator 23.1.1, SVG Export Plug-In . SVG Version: 6.00 Build 0)  -->
<svg version="1.1" xmlns="http://www.w3.org/2000/svg" xmlns:xlink="http://www.w3.org/1999/xlink" x="0px" y="0px"
	 viewBox="0 0 839.75 808.01" style="enable-background:new 0 0 839.75 808.01;" xml:space="preserve">
<style type="text/css">
	.st0{fill:#E02229;}
	.st1{fill:#F1F1F1;}
	.st2{fill:#FFFFFF;}
	.st3{fill:#00B2AE;}
	.st4{fill:#FFCC97;}
	.st5{opacity:0.3;fill:#FFAE00;}
	.st6{fill:#FFB777;}
	.st7{fill:#303030;}
	.st8{fill:#CCCCCC;}
	.st9{clip-path:url(#SVGID_2_);}
	.st10{fill:#4C4C4C;}
	.st11{fill:#DDCCB7;}
	.st12{fill:#FFCE5C;}
	.st13{fill:#E8B350;}
	.st14{fill:#6A5C46;}
	.st15{fill:#C5AA83;}
	.st16{fill:#E2AB41;}
	.st17{fill:#CD973A;}
	.st18{fill:#765A33;}
	.st19{fill:#C8321F;}
	.st20{fill:#E6E6E6;}
	.st21{fill:#FFAE00;}
	.st22{clip-path:url(#SVGID_4_);}
	.st23{fill:#FFAE00;stroke:#000000;stroke-width:0.2137;stroke-miterlimit:10;}
	.st24{fill:none;stroke:#E02229;stroke-width:6;stroke-miterlimit:10;}
	.st25{fill:none;}
	.st26{fill:#FF151F;}
	.st27{fill:#2DB17E;}
	.st28{fill:#FF9C45;}
	.st29{fill:none;stroke:#303030;stroke-width:6;stroke-linecap:round;stroke-miterlimit:10;}
	.st30{fill:#E39C10;}
	.st31{fill:#84170E;}
	.st32{fill:#A00E0E;}
	.st33{fill:#680202;}
	.st34{fill:#894F00;}
	.st35{fill:#A96600;}
	.st36{fill:#FBCA85;}
	.st37{fill:#00AA9D;}
	.st38{fill:#FFE1F1;}
	.st39{fill:#752994;}
	.st40{fill:none;stroke:#E02229;stroke-width:7;stroke-linecap:square;stroke-miterlimit:10;}
	.st41{opacity:0.4;fill:#E02229;}
	.st42{opacity:0.6;fill:#E02229;}
</style>
<g id="ÉLÉMENTS">
</g>
<g id="Calque_1">
</g>
<g id="INSTRUCTION_3">
</g>
<g id="INSTRUCTION_2">
</g>
<g id="INSTRUCTION_1">
</g>
<g id="GAME_OVER">
</g>
<g id="SCORES">
</g>
<g id="JEU_3">
	<g>
		<path class="st12" d="M412.4,267.2l-17.12-11.42l-19.64,13.1l-76.79,51.19l-0.07,0.07l-53.51,35.64v266.69h300.02V355.79
			L412.4,267.2z M454.39,509.74c-0.58,0.82-1.18,1.59-1.78,2.37c-0.74,0.96-1.5,1.88-2.28,2.81c-0.42,0.49-0.85,0.98-1.3,1.47v0.02
			c-13.72,15.2-33.47,24.73-55.41,24.73c-16.04,0-30.86-5.09-43.05-13.75c0.04-0.04,0.09-0.07,0.13-0.11
			c-0.04-0.02-0.09-0.04-0.13-0.07c-13.5-9.48-23.74-23.3-28.68-39.43c-2.14-6.96-3.28-14.33-3.28-21.98c0-1.29,0.28-5.75,0.28-5.75
			c0-0.62,0.06-1.4,0.12-2.02c0.02,0.18,0.09,0.78,0.13,0.94c0.15,1.29,0.34,2.57,0.6,3.82c0.02,0.09,0.04,0.16,0.05,0.25
			c0,0.04,0.02,0.07,0.02,0.11s0.02,0.09,0.02,0.13c0.04,0.13,0.05,0.24,0.07,0.36c0.04,0.27,0.09,0.53,0.16,0.8
			c0.02,0.09,0.04,0.2,0.05,0.29c0.09,0.36,0.16,0.74,0.25,1.11c0.04,0.22,0.09,0.42,0.15,0.63c0.11,0.47,0.24,0.94,0.36,1.41
			c0.02,0.05,0.02,0.09,0.04,0.15c0.02,0.04,0.04,0.09,0.04,0.14c0.22,0.8,0.45,1.59,0.71,2.39c0.2,0.58,0.4,1.18,0.6,1.76
			c0.13,0.34,0.24,0.69,0.36,1.03c0.25,0.69,0.51,1.4,0.8,2.08c0.13,0.36,0.29,0.74,0.44,1.09c0.13,0.33,0.25,0.65,0.4,0.96
			c0.04,0.09,0.09,0.18,0.13,0.25c0.07,0.16,0.15,0.33,0.22,0.49c0.09,0.22,0.2,0.43,0.31,0.67c0.11,0.25,0.24,0.51,0.36,0.76
			c0.2,0.43,0.42,0.87,0.63,1.29c0.11,0.2,0.2,0.4,0.31,0.6c0.16,0.31,0.33,0.63,0.51,0.96c0.31,0.6,0.63,1.18,0.96,1.76
			c0.02,0.02,0.02,0.04,0.05,0.07c0,0.04,0.02,0.07,0.05,0.11c0.27,0.47,0.54,0.94,0.83,1.41l0.02,0.02v0.02
			c0.02,0.04,0.04,0.07,0.07,0.11c0.05,0.11,0.13,0.24,0.2,0.34c0.07,0.11,0.15,0.2,0.22,0.31c0.2,0.34,0.42,0.67,0.63,1
			c0.33,0.49,0.65,0.98,0.98,1.47c0.04,0.07,0.09,0.13,0.15,0.2c0.02,0.04,0.04,0.05,0.05,0.09c0.16,0.22,0.31,0.45,0.47,0.67
			c0.22,0.29,0.42,0.6,0.63,0.89c0.87,1.18,1.76,2.36,2.7,3.48c0.02,0.04,0.05,0.07,0.07,0.09c0.13,0.16,0.27,0.31,0.4,0.47
			c0.67,0.78,1.34,1.54,2.03,2.3c0.27,0.31,0.58,0.62,0.87,0.92c0.6,0.63,1.2,1.25,1.81,1.85c0.31,0.33,0.63,0.63,0.94,0.94
			c0.67,0.63,1.34,1.25,2.03,1.85c0.27,0.24,0.53,0.49,0.8,0.72c0.96,0.83,1.94,1.63,2.94,2.41c0.16,0.14,0.34,0.25,0.51,0.38
			c0.83,0.65,1.7,1.29,2.57,1.9c0.34,0.24,0.69,0.47,1.03,0.73c0.72,0.49,1.45,0.96,2.19,1.43c0.38,0.24,0.76,0.47,1.14,0.71
			c0.78,0.47,1.56,0.94,2.36,1.38c0.33,0.2,0.65,0.38,0.98,0.56c1.12,0.62,2.25,1.2,3.41,1.76c0.15,0.07,0.29,0.13,0.43,0.2
			c0.33,0.16,0.63,0.31,0.96,0.44c0.33,0.16,0.63,0.31,0.96,0.45c0,0,0-0.02,0.02-0.02c0.36,0.16,0.74,0.34,1.12,0.51
			c0.38,0.16,0.78,0.33,1.16,0.47c0.82,0.34,1.65,0.65,2.48,0.96c0.42,0.16,0.85,0.31,1.27,0.45c0.85,0.31,1.72,0.58,2.59,0.85
			c0.36,0.11,0.74,0.24,1.12,0.34c1.23,0.36,2.48,0.69,3.73,0.98c0.09,0.04,0.2,0.05,0.29,0.07c0.65,0.15,1.32,0.27,1.99,0.4
			c0.02,0.02,0.02,0.02,0.04,0.04c0.49,0.09,1,0.2,1.49,0.29c0.4,0.07,0.82,0.13,1.23,0.2c0.89,0.14,1.78,0.27,2.66,0.4
			c0.45,0.05,0.91,0.11,1.36,0.15c0.91,0.11,1.81,0.18,2.74,0.25c0.4,0.02,0.82,0.05,1.21,0.09c1.3,0.05,2.63,0.11,3.95,0.11
			c10.4,0,20.53-2.23,29.81-6.25c2.07-0.89,4.09-1.88,6.07-2.94c0.98-0.53,1.96-1.09,2.92-1.67c1.92-1.16,3.79-2.41,5.6-3.71
			c0.91-0.67,1.81-1.34,2.68-2.03c2.63-2.1,5.13-4.35,7.47-6.76c0.78-0.8,1.52-1.61,2.27-2.45c9.6-10.8,16.11-24.3,17.79-39.09v0.44
			c0.18,1.92,0.33,3.86,0.38,5.82c0.02,0.47,0.02,0.96,0.02,1.43c0,0.65,0,1.3-0.02,1.96C468.17,483.1,462.97,497.75,454.39,509.74z
			"/>
		<path class="st31" d="M468.7,465.27c0,0.65,0,1.3-0.02,1.96c-0.42,15.87-5.62,30.51-14.21,42.51c-0.58,0.82-1.18,1.59-1.78,2.37
			c-0.74,0.96-1.5,1.88-2.28,2.81c-0.42,0.49-0.85,0.98-1.3,1.47v0.02c-13.72,15.2-33.47,24.73-55.41,24.73
			c-16.04,0-30.86-5.09-43.05-13.75c0.04-0.04-0.12-0.03-0.08-0.07c-0.04-0.02,0.03-0.08-0.01-0.11
			c5.11-4.39,10.04-7.87,12.61-11.29c0,0,0.44,0.21,0.46,0.21c0.36,0.16,0.37,0.13,0.75,0.3c0.38,0.16,0.78,0.33,1.16,0.47
			c0.82,0.34,1.65,0.65,2.48,0.96c0.42,0.16,0.85,0.31,1.27,0.45c0.85,0.31,1.72,0.58,2.59,0.85c0.36,0.11,0.74,0.24,1.12,0.34
			c1.23,0.36,2.48,0.69,3.73,0.98c0.09,0.04,0.2,0.05,0.29,0.07c0.65,0.15,1.32,0.27,1.99,0.4l0.08,0.02
			c0.49,0.09,0.95,0.22,1.44,0.31c0.4,0.07,0.82,0.13,1.23,0.2c0.89,0.14,1.78,0.27,2.66,0.4c0.45,0.05,0.91,0.11,1.36,0.15
			c0.91,0.11,1.81,0.18,2.74,0.25c0.4,0.02,0.82,0.05,1.21,0.09c1.3,0.05,2.63,0.11,3.95,0.11c10.4,0,20.49-2.28,29.77-6.3
			c2.07-0.89,4.04-1.83,6.02-2.88c0.98-0.53,2-1.14,2.96-1.72c1.92-1.16,3.74-2.36,5.55-3.66c0.91-0.67,1.88-1.39,2.75-2.08
			c2.63-2.1,5.15-4.3,7.49-6.71c0.78-0.8,1.47-1.66,2.22-2.49c9.6-10.8,15.89-24.1,17.77-38.87l0.38,0.32
			c0.18,1.92,0.02,3.8,0.07,5.76C468.7,464.31,468.7,464.8,468.7,465.27z"/>
		<path class="st13" d="M264,420.94l151.27-146.82l-20-48.34L245.25,372.46v40.55C245.25,422.78,256.99,427.74,264,420.94z"/>
		<path class="st0" d="M223.89,363.72L386.71,200.9c3.89-3.89,10.25-3.89,14.14,0l16.1,16.1c3.89,3.89,3.89,10.25,0,14.14
			L254.13,393.97c-3.89,3.89-10.25,3.89-14.14,0l-16.1-16.1C220,373.98,220,367.61,223.89,363.72z"/>
		<path class="st0" d="M402.48,200.9l162.82,162.82c3.89,3.89,3.89,10.25,0,14.14l-16.1,16.1c-3.89,3.89-10.25,3.89-14.14,0
			L372.24,231.14c-3.89-3.89-3.89-10.25,0-14.14l16.1-16.1C392.23,197.01,398.59,197.01,402.48,200.9z"/>
		<path class="st25" d="M423.9,373.13c-0.72,2.87-1.78,5.71-3.21,8.45c-1.7,3.28-3.8,6.2-6.21,8.76c1.29-4.27,1.98-8.81,1.98-13.51
			c0-2.26-0.16-4.49-0.47-6.67C418.7,371.02,421.33,372.01,423.9,373.13z"/>
		<path class="st25" d="M349.32,396.4c-4.57-1.26-8.79-3.42-12.47-6.28c3.66-3.76,7.71-7.16,12.07-10.12
			C348.05,385.53,348.21,391.09,349.32,396.4z"/>
		<path class="st25" d="M367.57,370.71c0.03,7.31-2.04,14.47-5.99,20.5h-0.01l-0.04,0.01c-3.81-3.98-6.61-8.77-8.28-13.96
			C357.75,374.62,362.55,372.42,367.57,370.71z"/>
		<polygon class="st3" points="361.57,391.22 361.53,391.23 361.55,391.25 		"/>
		<path class="st32" d="M375.73,370.16c-0.86,9.49-4.78,16.85-9.09,22.23c8.51-3.19,17.65-4.93,26.96-4.93
			c26.83,0,52.22,14.35,65.34,36.62c0-0.01-7.05-20.93,1.75-27.68c8.81-6.75,7.77-12.94,0-12.42c-7.77,0.52-17.61,2.07-27.98,1.04
			c-10.36-1.04-11.92-20.72-8.82-31.08s-13.98,2.07-19.68,6.22c-5.7,4.14-15.54,4.66-19.17-5.7c-3.63-10.36-6.73-23.83-9.33-15.54
			C373.14,347.2,377.8,347.2,375.73,370.16z"/>
		<path class="st32" d="M311.49,396.41c1.02,9.48,18.77,24.47,18.77,24.47l0,0c4.53-6.81,10.24-12.79,16.79-17.74
			c-2.11-0.16-4.55-0.67-7.07-0.51C323.19,403.72,310.32,385.59,311.49,396.41z"/>
		<path class="st2" d="M302.77,446.69v0.02c-0.05,0.95-0.07,1.9-0.1,2.88v1.21c-0.17,1.71-0.31,3.45-0.38,5.18
			c-1.07-0.29-2.12-0.64-3.16-1c-2.66-0.93-5.25-2.07-7.75-3.37c-4.37-2.28-8.51-5.11-12.26-8.48c-3.28-2.95-6.27-6.27-8.94-9.98
			c3.83,1.88,7.87,3.23,11.98,4.06c2.97,0.59,5.97,0.88,9.01,0.93c1.21,1.12,2.45,2.21,3.73,3.23
			C297.35,443.39,299.97,445.22,302.77,446.69z"/>
		<path class="st32" d="M319.03,457.07c-0.02,0.33-0.04,0.63-0.04,0.96v-0.92C319.01,457.08,319.03,457.08,319.03,457.07z"/>
		<path class="st32" d="M318.97,462.07c-0.09-0.02-0.18-0.05-0.27-0.09c0.05-1.32,0.16-2.65,0.29-3.95c0.02,0.13,0.04,0.27,0.05,0.4
			v0.02c-0.05,0.62-0.07,1.23-0.07,1.85V462.07z"/>
		<path class="st32" d="M321.87,487.78c-4.93-0.38-10.98,0-17.12,2.41c-1.85,0.72-3.81,1.32-5.82,1.79
			c-13.86,3.35-30.51,1.38-30.97-1.79c-0.43-3.12,25.95-6.61,35.64-11.81l0.02-0.02c1.58-0.85,2.7-1.74,3.21-2.68
			c1.41-2.65,7.97-11.34,12.16-17.65c0.8,0.27-1.11,3.73-0.29,3.95c-0.07,1.27-0.11,2.54-0.11,3.82
			C318.59,473.45,319.73,480.82,321.87,487.78z"/>
		<path class="st32" d="M323.83,476.53c0.16,0.4,0.34,0.82,0.53,1.21c-0.04-0.07-0.09-0.16-0.13-0.25
			C324.08,477.18,323.95,476.85,323.83,476.53z"/>
		<path class="st32" d="M328.68,486c0.14,0.22,0.27,0.43,0.42,0.65c-0.07-0.11-0.15-0.2-0.22-0.31
			C328.81,486.24,328.74,486.11,328.68,486z"/>
		<path class="st2" d="M319.44,455.11c-0.2,1.09-0.34,2.19-0.4,3.32v0.02c-0.05,0.62-0.07,1.23-0.07,1.85v1.78
			c-0.09-0.02-0.18-0.05-0.27-0.09c0.05-1.32,0.16-2.65,0.29-3.95v-0.92c0.02-0.74,0.04-1.47,0.07-2.19
			C319.19,454.98,319.32,455.04,319.44,455.11z"/>
		<path class="st2" d="M508.26,574.94c5.78-0.15,11.45-2.78,16.33-5.66c5.42-3.2,10.16-7.52,13.82-12.64
			c3.21-4.5,5.57-9.59,6.87-14.97c-5.83,6.26-13.88,10.58-23.01,11.76c-1.04,0.14-2.09,0.23-3.15,0.28
			c-6.94,0.34-13.54-1.16-19.28-4.06c-6.53-3.3-11.95-8.4-15.54-14.66c0.18,0.31-0.75,2.28-0.83,2.64c-0.3,1.24-0.38,2.57-0.39,3.84
			c-0.02,2.72,0.47,5.43,1.27,8.02c3.03,9.79,10.13,24.4,21.76,25.39C506.82,574.94,507.54,574.96,508.26,574.94z"/>
		<path class="st2" d="M293.77,536.64c-0.73,5.5,0.41,10.53,1.85,14.78c1.6,4.72,4.13,8.63,7.43,11.4
			c2.89,2.43,6.36,3.95,10.18,4.43c-3.82-4.68-5.88-11.75-5.43-20.29c0.05-0.97,0.13-1.96,0.25-2.97
			c0.76-6.58,2.84-13.09,5.85-18.98c3.41-6.7,8.02-12.6,13.22-16.91c-0.26,0.21-1.59-0.39-1.85-0.42c-0.88-0.11-1.86,0-2.81,0.17
			c-2.03,0.37-4.12,1.22-6.17,2.35c-7.75,4.28-19.71,13.14-22.14,24.38C293.98,535.28,293.86,535.96,293.77,536.64z"/>
		<path class="st25" d="M322.6,473.37c-0.13-0.35-0.25-0.69-0.37-1.04C322.35,472.67,322.47,473.02,322.6,473.37z"/>
		<path class="st25" d="M319.88,463.64c-0.07-0.36-0.14-0.73-0.21-1.1C319.74,462.91,319.81,463.28,319.88,463.64z"/>
		<path class="st25" d="M467.83,450.97c0.02,0.21,0.03,0.43,0.05,0.64C467.86,451.4,467.85,451.18,467.83,450.97z"/>
		<path class="st32" d="M493.85,476.2c-6.72,2.74-13.37,9.35-18.92,17.4c-1.16,1.7-2.28,3.44-3.35,5.25v0.02
			c-6.34,10.75-10.62,22.96-10.89,31.86c-0.51,17.49,0.53,52.71-15.02,42.35c-15.55-10.35-26.94-29.52-47.15-28.48
			c-20.2,1.03-45.59,25.39-58.55,25.89c-12.94,0.53-11.96-1.03-3.12-25.37c2.75-7.61,8.24-13.21,13.66-17.87l0.04-0.03
			c0.02,0.04,0.14,0.1,0.14,0.12c12.19,8.66,26.88,13.82,42.92,13.82c21.94,0,41.69-9.53,55.41-24.73v-0.02
			c0.45-0.49,0.89-0.98,1.3-1.47c0.78-0.92,1.54-1.85,2.28-2.81c0.6-0.78,1.2-1.56,1.78-2.37c8.72-12,13.92-26.65,14.21-42.51
			c0.02-0.65,0.02-1.3,0.02-1.96c0-0.47,0-0.96-0.02-1.43c-0.05-1.96-0.2-3.9-0.38-5.82v-0.54c-0.02-1.03-0.04-2.05-0.11-3.04
			c-0.04-0.96-0.13-1.9-0.22-2.83c-0.02-0.22-0.04-0.44-0.05-0.63c-0.24-2.3-0.6-4.55-1.07-6.74c3.3,6.43,7.45,12.3,12.07,13.79
			c11.4,3.66,18.65,1.52,25.39,0C510.96,456.5,510.43,469.46,493.85,476.2z"/>
		<path class="st14" d="M467.89,451.61c0.09,0.93,0.17,1.87,0.22,2.82C468.06,453.48,467.97,452.55,467.89,451.61z"/>
		<path class="st14" d="M468.21,457.48v0.11c-1.69,14.79-8.19,28.29-17.79,39.09c-0.74,0.83-1.49,1.65-2.27,2.45
			c-2.34,2.41-4.84,4.66-7.47,6.76c-0.87,0.69-1.78,1.36-2.68,2.03c-1.81,1.31-3.68,2.56-5.6,3.71c-0.96,0.58-1.94,1.14-2.92,1.67
			c-1.98,1.05-4,2.05-6.07,2.94c-9.28,4.02-19.41,6.25-29.81,6.25c-1.32,0-2.65-0.05-3.95-0.11c-0.4-0.04-0.82-0.07-1.21-0.09
			c-0.92-0.07-1.83-0.15-2.74-0.25c-0.45-0.04-0.91-0.09-1.36-0.15c-0.89-0.13-1.78-0.25-2.66-0.4c-0.42-0.07-0.83-0.13-1.23-0.2
			c-0.51-0.09-1.01-0.22-1.52-0.33c-0.67-0.13-1.34-0.25-1.99-0.4c-0.09-0.02-0.2-0.04-0.29-0.07c-1.25-0.29-2.5-0.62-3.73-0.98
			c-0.38-0.11-0.76-0.24-1.12-0.34c-0.87-0.27-1.74-0.54-2.59-0.85c-0.42-0.15-0.85-0.29-1.27-0.45c-0.83-0.31-1.67-0.62-2.48-0.96
			c-0.38-0.14-0.78-0.31-1.16-0.47c-0.38-0.16-0.76-0.34-1.12-0.51l-0.98-0.43c-0.33-0.13-0.63-0.27-0.96-0.44
			c-0.15-0.07-0.29-0.13-0.43-0.2c-1.16-0.56-2.28-1.14-3.41-1.76c-0.33-0.18-0.65-0.36-0.98-0.56c-0.8-0.43-1.58-0.91-2.36-1.38
			c-0.38-0.24-0.76-0.47-1.14-0.71c-0.74-0.47-1.47-0.94-2.19-1.43c-0.34-0.25-0.69-0.49-1.03-0.73c-0.87-0.62-1.74-1.25-2.57-1.9
			c-0.16-0.13-0.34-0.24-0.51-0.38c-1-0.78-1.97-1.58-2.94-2.41c-0.27-0.24-0.53-0.49-0.8-0.72c-0.69-0.6-1.36-1.21-2.03-1.85
			c-0.31-0.31-0.63-0.62-0.94-0.94c-0.62-0.6-1.21-1.21-1.81-1.85c-0.29-0.31-0.6-0.62-0.87-0.92c-0.69-0.76-1.36-1.52-2.03-2.3
			c-0.13-0.16-0.27-0.31-0.4-0.47c-0.02-0.02-0.05-0.05-0.07-0.09c-0.94-1.12-1.83-2.3-2.7-3.48c-0.22-0.29-0.42-0.6-0.63-0.89
			c-0.16-0.22-0.31-0.45-0.47-0.67c-0.02-0.04-0.04-0.05-0.05-0.09c-0.05-0.07-0.11-0.13-0.15-0.2c-0.33-0.49-0.65-0.98-0.98-1.47
			c-0.22-0.33-0.43-0.65-0.63-1c-0.07-0.11-0.15-0.2-0.22-0.31c-0.07-0.11-0.14-0.24-0.2-0.34c-0.04-0.04-0.05-0.07-0.07-0.11v-0.02
			l-0.02-0.02c-0.29-0.47-0.56-0.94-0.83-1.41c-0.04-0.04-0.05-0.07-0.05-0.11c-0.04-0.04-0.04-0.05-0.05-0.07
			c-0.33-0.58-0.65-1.16-0.96-1.76c-0.18-0.33-0.34-0.65-0.51-0.96c-0.11-0.2-0.2-0.4-0.31-0.6c-0.22-0.42-0.43-0.85-0.63-1.29
			c-0.13-0.25-0.25-0.51-0.36-0.76c-0.11-0.24-0.22-0.45-0.31-0.67c-0.07-0.16-0.15-0.33-0.22-0.49c-0.04-0.07-0.09-0.16-0.13-0.25
			c-0.14-0.31-0.27-0.63-0.4-0.96c-0.15-0.34-0.31-0.73-0.44-1.09c-0.29-0.69-0.54-1.4-0.8-2.08c-0.13-0.34-0.24-0.69-0.36-1.03
			c-0.2-0.58-0.4-1.18-0.6-1.76c-0.25-0.8-0.49-1.59-0.71-2.39c0-0.05-0.02-0.11-0.04-0.14c-0.02-0.05-0.02-0.09-0.04-0.15
			c-0.13-0.47-0.25-0.94-0.36-1.41c-0.05-0.22-0.11-0.42-0.15-0.63c-0.09-0.36-0.16-0.74-0.25-1.11c-0.02-0.09-0.04-0.2-0.05-0.29
			c-0.04-0.14-0.05-0.27-0.07-0.42c-0.04-0.07-0.05-0.16-0.05-0.24c-0.02-0.05-0.02-0.09-0.04-0.15c-0.02-0.13-0.04-0.24-0.07-0.36
			c0-0.04-0.02-0.09-0.02-0.13s-0.02-0.07-0.02-0.11c-0.02-0.09-0.04-0.16-0.05-0.25c-0.02-0.09-0.02-0.16-0.04-0.25
			c-0.22-1.18-0.42-2.37-0.56-3.57c-0.04-0.16-0.05-0.34-0.07-0.53v-0.02c-0.02-0.13-0.04-0.27-0.05-0.4v-0.92
			c0.02-0.74,0.04-1.47,0.07-2.19v-0.02c0.58-12.67,4.66-24.19,11.2-34.01c0.56-0.85,1.16-1.69,1.76-2.52
			c0.54-0.74,1.11-1.47,1.67-2.19c0.27-0.34,0.54-0.69,0.83-1.03c0.43-0.53,0.87-1.05,1.32-1.56c0.53-0.62,1.07-1.21,1.61-1.79
			c0.05-0.05,0.11-0.11,0.16-0.16c0.13-0.15,0.27-0.31,0.42-0.45c0.6-0.63,1.21-1.25,1.85-1.87c0.62-0.62,1.25-1.2,1.88-1.78
			c0.02-0.02,0.02-0.02,0.04-0.04c0.02-0.02,0.05-0.04,0.07-0.07c0.05-0.04,0.09-0.09,0.14-0.11c0.31-0.29,0.63-0.56,0.94-0.83
			c0.65-0.58,1.3-1.14,1.99-1.69c0.53-0.43,1.07-0.87,1.61-1.29c0.15-0.11,0.31-0.24,0.47-0.36c5.93-4.49,12.56-8.14,19.62-10.76
			c0.53-0.18,1.05-0.38,1.59-0.56c0.53-0.18,1.07-0.36,1.61-0.54c1.09-0.36,2.17-0.69,3.28-1c1.61-0.45,3.26-0.85,4.91-1.2
			c0.69-0.15,1.36-0.27,2.05-0.4c0.47-0.09,0.94-0.16,1.41-0.24c0.56-0.09,1.14-0.18,1.7-0.25c0.58-0.09,1.14-0.16,1.72-0.22
			c0.56-0.07,1.14-0.13,1.72-0.18c1.11-0.11,2.21-0.18,3.32-0.24c0.51-0.04,1.03-0.05,1.56-0.05c0.69-0.02,1.38-0.04,2.07-0.04
			c0.62,0,1.23,0,1.87,0.02c0.43,0.02,0.89,0.04,1.34,0.05c0.71,0.04,1.41,0.07,2.12,0.13h0.14c0.07,0,0.16,0.02,0.24,0.02
			c0.05,0,0.13,0.02,0.18,0.02c0.44,0.04,0.85,0.07,1.27,0.11c0.11,0.02,0.24,0.02,0.34,0.04c0.94,0.09,1.87,0.2,2.79,0.33
			c1.05,0.14,2.08,0.31,3.12,0.51c0.13,0.02,0.27,0.04,0.4,0.07c0.34,0.05,0.69,0.11,1.03,0.18c0.25,0.05,0.53,0.11,0.78,0.16
			c0.16,0.04,0.33,0.07,0.51,0.11c0.67,0.14,1.36,0.29,2.03,0.47c0.42,0.09,0.83,0.2,1.23,0.31c0.27,0.07,0.54,0.14,0.82,0.22
			c0.56,0.15,1.12,0.31,1.69,0.49c0.15,0.04,0.29,0.07,0.43,0.13c0.56,0.16,1.12,0.34,1.69,0.53c0.16,0.05,0.33,0.11,0.49,0.16
			c0.69,0.24,1.36,0.47,2.03,0.71c0.16,0.07,0.31,0.13,0.47,0.18c0.67,0.25,1.34,0.53,1.99,0.8c0.76,0.31,1.52,0.62,2.27,0.96
			c1.5,0.65,2.97,1.36,4.4,2.12c0.69,0.36,1.38,0.72,2.05,1.11c0.04,0.02,0.05,0.04,0.09,0.05c0.02,0,0.05,0.04,0.07,0.05
			c0.13,0.07,0.25,0.13,0.36,0.2c0.56,0.31,1.12,0.63,1.67,0.98c0.71,0.42,1.4,0.83,2.07,1.29c0.65,0.42,1.3,0.85,1.96,1.3
			c0.29,0.2,0.58,0.4,0.87,0.6c0.56,0.4,1.11,0.8,1.65,1.21c0.13,0.07,0.24,0.16,0.34,0.25l1.23,0.98c1.21,0.96,2.39,1.96,3.53,2.97
			l1.12,1.05c0.34,0.31,0.67,0.62,1,0.94c0.02,0.02,0.04,0.04,0.05,0.05l1.34,1.36c0.56,0.58,1.11,1.16,1.65,1.76
			c0.11,0.09,0.2,0.2,0.27,0.29c0.45,0.49,0.89,1.01,1.32,1.52l1.67,2.03c0.42,0.54,0.83,1.09,1.25,1.63l1.49,2.1
			c0.47,0.65,0.91,1.32,1.34,2.01c0.4,0.62,0.78,1.25,1.16,1.88l0.07,0.09v0.02l0.02,0.02v0.02l7.85,20.19
			c0.47,2.19,0.83,4.44,1.07,6.74c0.02,0.2,0.04,0.42,0.05,0.63c0.09,0.92,0.18,1.87,0.22,2.83
			C468.17,455.44,468.19,456.45,468.21,457.48z"/>
		<path class="st14" d="M467.83,450.97c-0.24-2.29-0.6-4.53-1.07-6.74c0,0,0,0,0,0C467.23,446.44,467.59,448.68,467.83,450.97z"/>
		<path class="st13" d="M363.15,515.94c-2.46,3.39-7.48,6.89-12.59,11.27c-13.5-9.48-23.74-23.3-28.68-39.43
			c-2.14-6.96-3.28-14.33-3.28-21.98c0-1.29,0.04-2.55,0.11-3.82c0.09,0.04,0.18,0.07,0.27,0.09v-1.78c0-0.62,0.02-1.23,0.07-1.85
			c0.02,0.18,0.04,0.36,0.07,0.53c0.16,1.45,0.4,2.9,0.69,4.31c0.07,0.49,0.18,0.96,0.29,1.45c0.09,0.36,0.16,0.74,0.25,1.11
			c0.04,0.22,0.09,0.42,0.15,0.63c0.11,0.47,0.24,0.94,0.36,1.41c0.02,0.05,0.02,0.09,0.04,0.15c0.02,0.04,0.04,0.09,0.04,0.14
			c0.22,0.8,0.45,1.59,0.71,2.39c0.29,0.92,0.62,1.87,0.96,2.79c0.25,0.69,0.51,1.4,0.8,2.08c0.13,0.36,0.29,0.74,0.44,1.09
			c0.13,0.33,0.25,0.65,0.4,0.96c0.04,0.09,0.09,0.18,0.13,0.25c0.07,0.16,0.15,0.33,0.22,0.49c0.09,0.22,0.2,0.43,0.31,0.67
			c0.11,0.25,0.24,0.51,0.36,0.76c0.2,0.43,0.42,0.87,0.63,1.29c0.11,0.2,0.2,0.4,0.31,0.6c0.16,0.31,0.33,0.63,0.51,0.96
			c0.31,0.6,0.63,1.18,0.96,1.76c0.02,0.02,0.02,0.04,0.05,0.07c0,0.04,0.02,0.07,0.05,0.11c0.27,0.47,0.54,0.94,0.83,1.41
			l0.02,0.02v0.02c0.02,0.04,0.04,0.07,0.07,0.11c0.05,0.11,0.13,0.24,0.2,0.34c0.07,0.11,0.15,0.2,0.22,0.31
			c0.2,0.34,0.42,0.67,0.63,1c0.33,0.49,0.65,0.98,0.98,1.47c0.04,0.07,0.09,0.13,0.15,0.2c0.02,0.04,0.04,0.05,0.05,0.09
			c0.16,0.22,0.31,0.45,0.47,0.67c0.22,0.29,0.42,0.6,0.63,0.89c0.87,1.18,1.76,2.36,2.7,3.48c0.02,0.04,0.05,0.07,0.07,0.09
			c0.13,0.16,0.27,0.31,0.4,0.47c0.67,0.78,1.34,1.54,2.03,2.3c0.27,0.31,0.58,0.62,0.87,0.92c0.6,0.63,1.2,1.25,1.81,1.85
			c0.31,0.33,0.63,0.63,0.94,0.94c0.67,0.63,1.34,1.25,2.03,1.85c0.27,0.24,0.53,0.49,0.8,0.72c0.96,0.83,1.94,1.63,2.94,2.41
			c0.16,0.14,0.34,0.25,0.51,0.38c0.83,0.65,1.7,1.29,2.57,1.9c0.34,0.24,0.69,0.47,1.03,0.73c0.72,0.49,1.45,0.96,2.19,1.43
			c0.38,0.24,0.76,0.47,1.14,0.71c0.78,0.47,1.56,0.94,2.36,1.38c0.33,0.2,0.65,0.38,0.98,0.56c1.12,0.62,2.25,1.2,3.41,1.76
			c0.15,0.07,0.29,0.13,0.43,0.2c0.33,0.16,0.63,0.31,0.96,0.44C362.52,515.65,362.82,515.79,363.15,515.94z"/>
		<path class="st13" d="M319.04,458.42v0.02c-0.05,0.62-0.07,1.23-0.07,1.85v1.78c-0.09-0.02-0.18-0.05-0.27-0.09
			c0.05-1.32,0.16-2.65,0.29-3.95C319.01,458.15,319.03,458.3,319.04,458.42z"/>
		<path class="st13" d="M319.79,463.15c0,0.04,0.02,0.09,0.02,0.13c-0.29-1.41-0.53-2.86-0.69-4.31c0.15,1.2,0.34,2.39,0.56,3.57
			c0.02,0.18,0.05,0.33,0.09,0.51C319.77,463.08,319.79,463.12,319.79,463.15z"/>
		<path class="st13" d="M320.04,464.44c0.02,0.09,0.04,0.2,0.05,0.29c-0.11-0.49-0.22-0.96-0.29-1.45c0.04,0.13,0.05,0.24,0.07,0.36
			c0.02,0.05,0.02,0.09,0.04,0.15c0,0.07,0.02,0.16,0.05,0.24C319.99,464.17,320,464.3,320.04,464.44z"/>
		<path class="st33" d="M468.59,463.84c-0.05-1.96-0.2-3.9-0.38-5.82v-0.44C468.43,459.64,468.56,461.72,468.59,463.84z"/>
		<path class="st13" d="M363.17,515.92c-0.02,0-0.02,0.02-0.02,0.02c-0.33-0.15-0.63-0.29-0.96-0.45L363.17,515.92z"/>
		<path class="st2" d="M478.1,433.89c0,0-19.27-14.47-6.33-21.09c12.94-6.62,36.85-1.39,46.78-4.23
			C538.56,402.85,478.1,433.89,478.1,433.89z"/>
	</g>
</g>
<g id="JEU_2">
</g>
<g id="JEU_1">
</g>
<g id="DÉCOMPTE_3">
</g>
<g id="DÉCOMPTE_2">
</g>
<g id="DÉCOMPTE_1">
</g>
<g id="CHARGEMENT">
</g>
<g id="MENU">
</g>
<g id="INTRO">
</g>
</svg>
