<?xml version="1.0" encoding="utf-8"?>
<!-- Generator: Adobe Illustrator 23.1.1, SVG Export Plug-In . SVG Version: 6.00 Build 0)  -->
<svg version="1.1" xmlns="http://www.w3.org/2000/svg" xmlns:xlink="http://www.w3.org/1999/xlink" x="0px" y="0px"
	 viewBox="0 0 848.39 707.86" style="enable-background:new 0 0 848.39 707.86;" xml:space="preserve">
<style type="text/css">
	.st0{fill:#E02229;}
	.st1{fill:#F1F1F1;}
	.st2{fill:#FFFFFF;}
	.st3{fill:#00B2AE;}
	.st4{fill:#FFCC97;}
	.st5{opacity:0.3;fill:#FFAE00;}
	.st6{fill:#FFB777;}
	.st7{fill:#303030;}
	.st8{fill:#CCCCCC;}
	.st9{clip-path:url(#SVGID_2_);}
	.st10{fill:#4C4C4C;}
	.st11{fill:#DDCCB7;}
	.st12{fill:#FFCE5C;}
	.st13{fill:#E8B350;}
	.st14{fill:#6A5C46;}
	.st15{fill:#C5AA83;}
	.st16{fill:#E2AB41;}
	.st17{fill:#CD973A;}
	.st18{fill:#765A33;}
	.st19{fill:#C8321F;}
	.st20{fill:#E6E6E6;}
	.st21{fill:#FFAE00;}
	.st22{clip-path:url(#SVGID_4_);}
	.st23{fill:#FFAE00;stroke:#000000;stroke-width:0.2137;stroke-miterlimit:10;}
	.st24{fill:none;stroke:#E02229;stroke-width:6;stroke-miterlimit:10;}
	.st25{fill:none;}
	.st26{fill:#FF151F;}
	.st27{fill:#2DB17E;}
	.st28{fill:#FF9C45;}
	.st29{fill:none;stroke:#303030;stroke-width:6;stroke-linecap:round;stroke-miterlimit:10;}
	.st30{fill:#E39C10;}
	.st31{fill:#84170E;}
	.st32{fill:#A00E0E;}
	.st33{fill:#680202;}
	.st34{fill:#894F00;}
	.st35{fill:#A96600;}
	.st36{fill:#FBCA85;}
	.st37{fill:#00AA9D;}
	.st38{fill:#FFE1F1;}
	.st39{fill:#752994;}
	.st40{fill:none;stroke:#E02229;stroke-width:7;stroke-linecap:square;stroke-miterlimit:10;}
	.st41{opacity:0.4;fill:#E02229;}
	.st42{opacity:0.6;fill:#E02229;}
</style>
<g id="ÉLÉMENTS">
</g>
<g id="Calque_1">
</g>
<g id="INSTRUCTION_3">
</g>
<g id="INSTRUCTION_2">
</g>
<g id="INSTRUCTION_1">
</g>
<g id="GAME_OVER">
</g>
<g id="SCORES">
</g>
<g id="JEU_3">
	<g>
		<polygon class="st34" points="428.75,362.81 396.94,384.07 277.39,258.98 309.19,237.72 		"/>
		
			<ellipse transform="matrix(0.8549 -0.5187 0.5187 0.8549 -86.3557 188.2759)" class="st35" cx="293.46" cy="248.54" rx="19.21" ry="8.57"/>
		<polygon class="st34" points="397.3,373.13 429.11,394.39 557.79,259.76 525.99,238.5 		"/>
		
			<rect x="396.82" y="355.75" transform="matrix(-1 -1.224647e-16 1.224647e-16 -1 834.3528 894.1248)" class="st34" width="40.71" height="182.63"/>
		
			<ellipse transform="matrix(0.5187 -0.8549 0.8549 0.5187 47.5646 583.127)" class="st35" cx="541.71" cy="249.32" rx="8.57" ry="19.21"/>
	</g>
	<g>
		<g>
			<path class="st36" d="M314.15,250.46c0.77,2.4,1.28,4.85,1.63,7.35c-0.12-0.92-0.25-1.83-0.37-2.75
				c0.92,6.98,0.55,14.08-0.37,21.05c0.12-0.92,0.25-1.83,0.37-2.75c-1.81,13.38-5.66,26.52-10.89,38.95
				c0.35-0.82,0.7-1.65,1.04-2.47c-1.37,3.23-2.84,6.43-4.46,9.54c-1.64,3.16-3.55,6.15-5.29,9.26c-4.86,8.7-8.41,18.2-10.95,27.83
				c-2.34,8.88-3.88,17.94-5.3,27c-1.48,9.44-2.97,18.93-3.49,28.49c-0.5,9.28,0.04,18.77,2.32,27.8
				c2.43,9.6,7.09,18.26,13.39,25.85c5.2,6.27,11.79,11.45,18.66,15.77c7.35,4.62,15.35,8.16,23.44,11.25
				c15.61,5.97,32.07,9.86,48.43,13.09c17.96,3.54,36.59,6.1,54.91,4.42c9.1-0.83,18.19-2.44,26.74-5.72
				c4.59-1.76,9.11-3.77,13.33-6.3c4.35-2.61,8.45-5.72,12.24-9.08c6.83-6.04,12.57-13.38,17.53-21.01
				c4.87-7.49,9.01-15.45,12.5-23.67c3.83-9.02,7.05-18.23,9.26-27.79c2.18-9.44,3.54-19.14,4.04-28.81
				c0.47-8.89,0.14-17.82-1-26.64c-0.68-5.28-1.48-10.53-2.63-15.74c-0.91-4.14-2.11-8.17-3.25-12.25
				c-0.85-3.02-1.41-6.12-1.83-9.23c0.12,0.92,0.25,1.83,0.37,2.75c-1.36-10.38-1.2-20.94-0.81-31.38
				c0.41-10.78,1.21-21.55,1.62-32.33c0.19-5.08,0.31-10.16,0.07-15.24c-0.13-2.73-1.07-5.35-3.03-7.32
				c-1.79-1.79-4.74-3.15-7.32-3.03c-2.68,0.12-5.45,1-7.32,3.03c-1.81,1.97-3.16,4.56-3.03,7.32c0.65,14.19-0.82,28.45-1.49,42.61
				c-0.71,15.12-1.24,30.77,2.12,45.64c0.95,4.18,2.35,8.25,3.35,12.43c1.16,4.83,2.06,9.72,2.73,14.64
				c-0.12-0.92-0.25-1.83-0.37-2.75c1.75,13.18,1.72,26.55-0.04,39.73c0.12-0.92,0.25-1.83,0.37-2.75
				c-1.84,13.46-5.47,26.62-10.75,39.13c0.35-0.82,0.7-1.65,1.04-2.47c-4.66,10.98-10.47,21.64-17.76,31.1
				c0.54-0.7,1.08-1.4,1.62-2.09c-4.22,5.43-8.99,10.4-14.44,14.61c0.7-0.54,1.4-1.08,2.09-1.62c-4.63,3.54-9.67,6.44-15.03,8.72
				c0.82-0.35,1.65-0.7,2.47-1.04c-6.96,2.91-14.29,4.72-21.76,5.73c0.92-0.12,1.83-0.25,2.75-0.37
				c-13.19,1.73-26.57,1.03-39.72-0.73c0.92,0.12,1.83,0.25,2.75,0.37c-9.7-1.31-19.31-3.21-28.85-5.39
				c-8.97-2.05-17.9-4.3-26.66-7.11c-4.94-1.58-9.83-3.35-14.62-5.36c0.82,0.35,1.65,0.7,2.47,1.04
				c-7.94-3.36-15.62-7.42-22.48-12.68c0.7,0.54,1.4,1.08,2.09,1.62c-4.24-3.28-8.11-6.99-11.4-11.23c0.54,0.7,1.08,1.4,1.62,2.09
				c-2.74-3.56-5.01-7.43-6.78-11.56c0.35,0.82,0.7,1.65,1.04,2.47c-2.09-4.98-3.42-10.22-4.16-15.57c0.12,0.92,0.25,1.83,0.37,2.75
				c-1.41-10.62-0.55-21.37,0.86-31.94c-0.12,0.92-0.25,1.83-0.37,2.75c1.93-14.33,4.07-28.86,8.19-42.74
				c1.21-4.07,2.62-8.07,4.26-11.98c-0.35,0.82-0.7,1.65-1.04,2.47c1.62-3.82,3.47-7.54,5.59-11.11c1.52-2.55,3.03-5.09,4.39-7.74
				c3.33-6.49,6.15-13.27,8.6-20.13c4.84-13.57,8.19-28,8.78-42.43c0.3-7.27-0.22-14.91-2.46-21.87c-0.82-2.55-2.41-4.81-4.75-6.18
				c-2.22-1.3-5.49-1.85-7.97-1.04c-2.5,0.81-4.92,2.36-6.18,4.75C313.93,244.89,313.3,247.79,314.15,250.46L314.15,250.46z"/>
		</g>
	</g>
</g>
<g id="JEU_2">
</g>
<g id="JEU_1">
</g>
<g id="DÉCOMPTE_3">
</g>
<g id="DÉCOMPTE_2">
</g>
<g id="DÉCOMPTE_1">
</g>
<g id="CHARGEMENT">
</g>
<g id="MENU">
</g>
<g id="INTRO">
</g>
</svg>
