<?xml version="1.0" encoding="utf-8"?>
<!-- Generator: Adobe Illustrator 23.1.1, SVG Export Plug-In . SVG Version: 6.00 Build 0)  -->
<svg version="1.1" xmlns="http://www.w3.org/2000/svg" xmlns:xlink="http://www.w3.org/1999/xlink" x="0px" y="0px"
	 viewBox="0 0 467.65 750" style="enable-background:new 0 0 467.65 750;" xml:space="preserve">
<style type="text/css">
	.st0{fill:#E02229;}
	.st1{fill:#F1F1F1;}
	.st2{fill:#FFFFFF;}
	.st3{fill:#00B2AE;}
	.st4{fill:#FFCC97;}
	.st5{opacity:0.3;fill:#FFAE00;}
	.st6{fill:#FFB777;}
	.st7{fill:#303030;}
	.st8{fill:#CCCCCC;}
	.st9{clip-path:url(#SVGID_2_);}
	.st10{fill:#4C4C4C;}
	.st11{fill:#DDCCB7;}
	.st12{fill:#FFCE5C;}
	.st13{fill:#E8B350;}
	.st14{fill:#6A5C46;}
	.st15{fill:#C5AA83;}
	.st16{fill:#E2AB41;}
	.st17{fill:#CD973A;}
	.st18{fill:#765A33;}
	.st19{fill:#C8321F;}
	.st20{fill:#E6E6E6;}
	.st21{fill:#FFAE00;}
	.st22{clip-path:url(#SVGID_4_);}
	.st23{fill:#FFAE00;stroke:#000000;stroke-width:0.2137;stroke-miterlimit:10;}
	.st24{fill:none;stroke:#E02229;stroke-width:6;stroke-miterlimit:10;}
	.st25{fill:none;}
	.st26{fill:#FF151F;}
	.st27{fill:#2DB17E;}
	.st28{fill:#FF9C45;}
	.st29{fill:none;stroke:#303030;stroke-width:6;stroke-linecap:round;stroke-miterlimit:10;}
	.st30{fill:#E39C10;}
	.st31{fill:#84170E;}
	.st32{fill:#A00E0E;}
	.st33{fill:#680202;}
	.st34{fill:#894F00;}
	.st35{fill:#A96600;}
	.st36{fill:#FBCA85;}
	.st37{fill:#00AA9D;}
	.st38{fill:#FFE1F1;}
	.st39{fill:#752994;}
	.st40{fill:none;stroke:#E02229;stroke-width:7;stroke-linecap:square;stroke-miterlimit:10;}
	.st41{opacity:0.4;fill:#E02229;}
	.st42{opacity:0.6;fill:#E02229;}
</style>
<g id="ÉLÉMENTS">
	<g>
		<path class="st20" d="M328.14,477.48c-5.44,0-10.03,3.62-11.5,8.59c-1.47-4.96-6.06-8.59-11.5-8.59s-10.03,3.62-11.5,8.59
			c-1.47-4.96-6.06-8.59-11.5-8.59c-6.63,0-12,5.37-12,12v121c0,6.63,5.37,12,12,12c5.44,0,10.03-3.62,11.5-8.59
			c1.47,4.96,6.06,8.59,11.5,8.59s10.03-3.62,11.5-8.59c1.47,4.96,6.06,8.59,11.5,8.59c6.63,0,12-5.37,12-12v-121
			C340.14,482.85,334.77,477.48,328.14,477.48z"/>
		<path class="st21" d="M238.32,156.97c9.44,9.72,15.29,23.15,15.29,38c0,29.64-23.28,53.66-52,53.66
			c-17.67,0-33.27-9.1-42.67-23.01c3.23,32.49,29.83,57.84,62.17,57.84c34.52,0,62.5-28.88,62.5-64.5
			C283.61,189.52,264.47,164.69,238.32,156.97z"/>
		<path class="st21" d="M174.56,157.88c13.03,3.72,24.79,12.47,32.18,25.34c14.76,25.7,6.53,58.13-18.38,72.43
			c-15.32,8.8-33.39,8.67-48.46,1.29c18.98,26.57,54.67,35.31,82.72,19.21c29.93-17.19,39.82-56.16,22.09-87.06
			C230.04,163.56,201.08,151.56,174.56,157.88z"/>
		<path class="st21" d="M293.47,185.07c3.9,12.98,2.88,27.6-3.96,40.77c-13.67,26.3-45.41,36.88-70.89,23.63
			c-15.68-8.15-25.32-23.43-27.25-40.1c-12.12,30.32-0.21,65.08,28.48,80c30.63,15.92,68.77,3.21,85.2-28.4
			C318.64,234.84,313.1,203.98,293.47,185.07z"/>
		<path class="st3" d="M272.61,433.8V279.82c0-13.69,6.66-25.82,16.91-33.34c-7.99-3.79-16.64-6.42-25.73-7.67
			c-3.97-0.54-8.02-0.83-12.14-0.83h-35.2c-22.83,0-41.34,18.51-41.34,41.34V433.3c0,41.03,31.41,74.71,71.5,78.33
			c0,0,47-0.16,47-0.19v-24.16C280.58,473.25,272.61,454.46,272.61,433.8z"/>
		<path class="st4" d="M211.61,325.48c3.82,0,7.5,0.6,10.96,1.7c0.03-0.56,0.04-1.13,0.04-1.7c0-19.88-16.12-36-36-36
			s-36,16.12-36,36c0,15.17,9.38,28.13,22.66,33.44c0.86-0.85,1.76-1.65,2.69-2.41C178.38,338.97,193.42,325.48,211.61,325.48z"/>
		<path class="st5" d="M175.96,356.5c6.19-5.01,14.07-8.02,22.65-8.02c4.72,0,9.21,0.92,13.34,2.56
			c6.2-6.15,10.18-14.54,10.62-23.86c-3.46-1.1-7.14-1.7-10.96-1.7C193.42,325.48,178.38,338.97,175.96,356.5z"/>
		<path class="st6" d="M175.96,356.5c6.19-5.01,14.07-8.02,22.65-8.02c4.72,0,9.21,0.92,13.34,2.56
			c6.2-6.15,10.18-14.54,10.62-23.86c-3.46-1.1-7.14-1.7-10.96-1.7C193.42,325.48,178.38,338.97,175.96,356.5z"/>
		<circle class="st7" cx="246.61" cy="301.48" r="11"/>
		<path class="st3" d="M234.61,579.48h-1c-6.6,0-12-5.4-12-12v-79c0-6.6,5.4-12,12-12h1c6.6,0,12,5.4,12,12v79
			C246.61,574.08,241.21,579.48,234.61,579.48z"/>
		<path class="st8" d="M245.61,594.48h-34c-6.6,0-12-5.4-12-12v-1c0-6.6,5.4-12,12-12h34c6.6,0,12,5.4,12,12v1
			C257.61,589.08,252.21,594.48,245.61,594.48z"/>
		<path class="st3" d="M292.61,579.48h-1c-6.6,0-12-5.4-12-12v-73c0-6.6,5.4-12,12-12h1c6.6,0,12,5.4,12,12v73
			C304.61,574.08,299.21,579.48,292.61,579.48z"/>
		<path class="st8" d="M303.61,594.48h-34c-6.6,0-12-5.4-12-12v-1c0-6.6,5.4-12,12-12h34c6.6,0,12,5.4,12,12v1
			C315.61,589.08,310.21,594.48,303.61,594.48z"/>
		<g>
			<defs>
				<path id="SVGID_3_" d="M289.52,246.47c-10.25,7.52-16.91,19.65-16.91,33.34V433.8c0,20.66,7.97,39.45,21,53.49
					c6.52,7.03,14.31,12.86,23,17.14c7.27,3.58,15.18,6.06,23.5,7.24V326.44C340.11,291.13,319.43,260.66,289.52,246.47z"/>
			</defs>
			<use xlink:href="#SVGID_3_"  style="overflow:visible;fill:#F1F1F1;"/>
			<clipPath id="SVGID_2_">
				<use xlink:href="#SVGID_3_"  style="overflow:visible;"/>
			</clipPath>
			<g class="st9">
				<g>
					<path class="st10" d="M319.11,290.48h-12c-0.83,0-1.5-0.67-1.5-1.5l0,0c0-0.82,0.67-1.5,1.5-1.5h12c0.83,0,1.5,0.68,1.5,1.5
						l0,0C320.61,289.8,319.93,290.48,319.11,290.48z"/>
					<path class="st10" d="M319.11,300.48h-12c-0.83,0-1.5-0.67-1.5-1.5l0,0c0-0.82,0.67-1.5,1.5-1.5h12c0.83,0,1.5,0.68,1.5,1.5
						l0,0C320.61,299.8,319.93,300.48,319.11,300.48z"/>
					<path class="st10" d="M319.11,310.48h-12c-0.83,0-1.5-0.67-1.5-1.5l0,0c0-0.82,0.67-1.5,1.5-1.5h12c0.83,0,1.5,0.68,1.5,1.5
						l0,0C320.61,309.8,319.93,310.48,319.11,310.48z"/>
					<path class="st10" d="M319.11,260.48h-12c-0.83,0-1.5-0.67-1.5-1.5l0,0c0-0.82,0.67-1.5,1.5-1.5h12c0.83,0,1.5,0.68,1.5,1.5
						l0,0C320.61,259.8,319.93,260.48,319.11,260.48z"/>
					<path class="st10" d="M319.11,270.48h-12c-0.83,0-1.5-0.67-1.5-1.5l0,0c0-0.82,0.67-1.5,1.5-1.5h12c0.83,0,1.5,0.68,1.5,1.5
						l0,0C320.61,269.8,319.93,270.48,319.11,270.48z"/>
					<path class="st10" d="M319.11,280.48h-12c-0.83,0-1.5-0.67-1.5-1.5l0,0c0-0.82,0.67-1.5,1.5-1.5h12c0.83,0,1.5,0.68,1.5,1.5
						l0,0C320.61,279.8,319.93,280.48,319.11,280.48z"/>
					<path class="st10" d="M319.11,320.48h-12c-0.83,0-1.5-0.67-1.5-1.5l0,0c0-0.82,0.67-1.5,1.5-1.5h12c0.83,0,1.5,0.68,1.5,1.5
						l0,0C320.61,319.8,319.93,320.48,319.11,320.48z"/>
					<path class="st10" d="M319.11,330.48h-12c-0.83,0-1.5-0.67-1.5-1.5l0,0c0-0.82,0.67-1.5,1.5-1.5h12c0.83,0,1.5,0.68,1.5,1.5
						l0,0C320.61,329.8,319.93,330.48,319.11,330.48z"/>
					<path class="st10" d="M319.11,340.48h-12c-0.83,0-1.5-0.67-1.5-1.5l0,0c0-0.82,0.67-1.5,1.5-1.5h12c0.83,0,1.5,0.68,1.5,1.5
						l0,0C320.61,339.8,319.93,340.48,319.11,340.48z"/>
					<path class="st10" d="M319.11,350.48h-12c-0.83,0-1.5-0.67-1.5-1.5l0,0c0-0.82,0.67-1.5,1.5-1.5h12c0.83,0,1.5,0.68,1.5,1.5
						l0,0C320.61,349.8,319.93,350.48,319.11,350.48z"/>
					<path class="st10" d="M319.11,360.48h-12c-0.83,0-1.5-0.67-1.5-1.5l0,0c0-0.82,0.67-1.5,1.5-1.5h12c0.83,0,1.5,0.68,1.5,1.5
						l0,0C320.61,359.8,319.93,360.48,319.11,360.48z"/>
					<path class="st10" d="M319.11,370.48h-12c-0.83,0-1.5-0.67-1.5-1.5l0,0c0-0.82,0.67-1.5,1.5-1.5h12c0.83,0,1.5,0.68,1.5,1.5
						l0,0C320.61,369.8,319.93,370.48,319.11,370.48z"/>
					<path class="st10" d="M319.11,380.48h-12c-0.83,0-1.5-0.67-1.5-1.5l0,0c0-0.82,0.67-1.5,1.5-1.5h12c0.83,0,1.5,0.68,1.5,1.5
						l0,0C320.61,379.8,319.93,380.48,319.11,380.48z"/>
					<path class="st10" d="M319.11,390.48h-12c-0.83,0-1.5-0.67-1.5-1.5l0,0c0-0.82,0.67-1.5,1.5-1.5h12c0.83,0,1.5,0.68,1.5,1.5
						l0,0C320.61,389.8,319.93,390.48,319.11,390.48z"/>
					<path class="st10" d="M319.11,400.48h-12c-0.83,0-1.5-0.67-1.5-1.5l0,0c0-0.82,0.67-1.5,1.5-1.5h12c0.83,0,1.5,0.68,1.5,1.5
						l0,0C320.61,399.8,319.93,400.48,319.11,400.48z"/>
					<path class="st10" d="M319.11,410.48h-12c-0.83,0-1.5-0.67-1.5-1.5l0,0c0-0.82,0.67-1.5,1.5-1.5h12c0.83,0,1.5,0.68,1.5,1.5
						l0,0C320.61,409.8,319.93,410.48,319.11,410.48z"/>
					<path class="st10" d="M319.11,420.48h-12c-0.83,0-1.5-0.67-1.5-1.5l0,0c0-0.82,0.67-1.5,1.5-1.5h12c0.83,0,1.5,0.68,1.5,1.5
						l0,0C320.61,419.8,319.93,420.48,319.11,420.48z"/>
					<path class="st10" d="M319.11,430.48h-12c-0.83,0-1.5-0.67-1.5-1.5l0,0c0-0.82,0.67-1.5,1.5-1.5h12c0.83,0,1.5,0.68,1.5,1.5
						l0,0C320.61,429.8,319.93,430.48,319.11,430.48z"/>
					<path class="st10" d="M319.11,440.48h-12c-0.83,0-1.5-0.67-1.5-1.5l0,0c0-0.82,0.67-1.5,1.5-1.5h12c0.83,0,1.5,0.68,1.5,1.5
						l0,0C320.61,439.8,319.93,440.48,319.11,440.48z"/>
					<path class="st10" d="M319.11,450.48h-12c-0.83,0-1.5-0.67-1.5-1.5l0,0c0-0.82,0.67-1.5,1.5-1.5h12c0.83,0,1.5,0.68,1.5,1.5
						l0,0C320.61,449.8,319.93,450.48,319.11,450.48z"/>
					<path class="st10" d="M319.11,460.48h-12c-0.83,0-1.5-0.67-1.5-1.5l0,0c0-0.82,0.67-1.5,1.5-1.5h12c0.83,0,1.5,0.68,1.5,1.5
						l0,0C320.61,459.8,319.93,460.48,319.11,460.48z"/>
					<path class="st10" d="M319.11,470.48h-12c-0.83,0-1.5-0.67-1.5-1.5l0,0c0-0.82,0.67-1.5,1.5-1.5h12c0.83,0,1.5,0.68,1.5,1.5
						l0,0C320.61,469.8,319.93,470.48,319.11,470.48z"/>
					<path class="st10" d="M319.11,480.48h-12c-0.83,0-1.5-0.67-1.5-1.5l0,0c0-0.82,0.67-1.5,1.5-1.5h12c0.83,0,1.5,0.68,1.5,1.5
						l0,0C320.61,479.8,319.93,480.48,319.11,480.48z"/>
					<path class="st10" d="M319.11,490.48h-12c-0.83,0-1.5-0.67-1.5-1.5l0,0c0-0.82,0.67-1.5,1.5-1.5h12c0.83,0,1.5,0.68,1.5,1.5
						l0,0C320.61,489.8,319.93,490.48,319.11,490.48z"/>
					<path class="st10" d="M319.11,500.48h-12c-0.83,0-1.5-0.67-1.5-1.5l0,0c0-0.82,0.67-1.5,1.5-1.5h12c0.83,0,1.5,0.68,1.5,1.5
						l0,0C320.61,499.8,319.93,500.48,319.11,500.48z"/>
					<path class="st10" d="M319.11,510.48h-12c-0.83,0-1.5-0.67-1.5-1.5l0,0c0-0.82,0.67-1.5,1.5-1.5h12c0.83,0,1.5,0.68,1.5,1.5
						l0,0C320.61,509.8,319.93,510.48,319.11,510.48z"/>
				</g>
				<g>
					<path class="st10" d="M338.11,297.48h-12c-0.83,0-1.5-0.67-1.5-1.5l0,0c0-0.82,0.67-1.5,1.5-1.5h12c0.83,0,1.5,0.68,1.5,1.5
						l0,0C339.61,296.8,338.93,297.48,338.11,297.48z"/>
					<path class="st10" d="M338.11,307.48h-12c-0.83,0-1.5-0.67-1.5-1.5l0,0c0-0.82,0.67-1.5,1.5-1.5h12c0.83,0,1.5,0.68,1.5,1.5
						l0,0C339.61,306.8,338.93,307.48,338.11,307.48z"/>
					<path class="st10" d="M338.11,317.48h-12c-0.83,0-1.5-0.67-1.5-1.5l0,0c0-0.82,0.67-1.5,1.5-1.5h12c0.83,0,1.5,0.68,1.5,1.5
						l0,0C339.61,316.8,338.93,317.48,338.11,317.48z"/>
					<path class="st10" d="M338.11,267.48h-12c-0.83,0-1.5-0.67-1.5-1.5l0,0c0-0.82,0.67-1.5,1.5-1.5h12c0.83,0,1.5,0.68,1.5,1.5
						l0,0C339.61,266.8,338.93,267.48,338.11,267.48z"/>
					<path class="st10" d="M338.11,277.48h-12c-0.83,0-1.5-0.67-1.5-1.5l0,0c0-0.82,0.67-1.5,1.5-1.5h12c0.83,0,1.5,0.68,1.5,1.5
						l0,0C339.61,276.8,338.93,277.48,338.11,277.48z"/>
					<path class="st10" d="M338.11,287.48h-12c-0.83,0-1.5-0.67-1.5-1.5l0,0c0-0.82,0.67-1.5,1.5-1.5h12c0.83,0,1.5,0.68,1.5,1.5
						l0,0C339.61,286.8,338.93,287.48,338.11,287.48z"/>
					<path class="st10" d="M338.11,327.48h-12c-0.83,0-1.5-0.67-1.5-1.5l0,0c0-0.82,0.67-1.5,1.5-1.5h12c0.83,0,1.5,0.68,1.5,1.5
						l0,0C339.61,326.8,338.93,327.48,338.11,327.48z"/>
					<path class="st10" d="M338.11,337.48h-12c-0.83,0-1.5-0.67-1.5-1.5l0,0c0-0.82,0.67-1.5,1.5-1.5h12c0.83,0,1.5,0.68,1.5,1.5
						l0,0C339.61,336.8,338.93,337.48,338.11,337.48z"/>
					<path class="st10" d="M338.11,347.48h-12c-0.83,0-1.5-0.67-1.5-1.5l0,0c0-0.82,0.67-1.5,1.5-1.5h12c0.83,0,1.5,0.68,1.5,1.5
						l0,0C339.61,346.8,338.93,347.48,338.11,347.48z"/>
					<path class="st10" d="M338.11,357.48h-12c-0.83,0-1.5-0.67-1.5-1.5l0,0c0-0.82,0.67-1.5,1.5-1.5h12c0.83,0,1.5,0.68,1.5,1.5
						l0,0C339.61,356.8,338.93,357.48,338.11,357.48z"/>
					<path class="st10" d="M338.11,367.48h-12c-0.83,0-1.5-0.67-1.5-1.5l0,0c0-0.82,0.67-1.5,1.5-1.5h12c0.83,0,1.5,0.68,1.5,1.5
						l0,0C339.61,366.8,338.93,367.48,338.11,367.48z"/>
					<path class="st10" d="M338.11,377.48h-12c-0.83,0-1.5-0.67-1.5-1.5l0,0c0-0.82,0.67-1.5,1.5-1.5h12c0.83,0,1.5,0.68,1.5,1.5
						l0,0C339.61,376.8,338.93,377.48,338.11,377.48z"/>
					<path class="st10" d="M338.11,387.48h-12c-0.83,0-1.5-0.67-1.5-1.5l0,0c0-0.82,0.67-1.5,1.5-1.5h12c0.83,0,1.5,0.68,1.5,1.5
						l0,0C339.61,386.8,338.93,387.48,338.11,387.48z"/>
					<path class="st10" d="M338.11,397.48h-12c-0.83,0-1.5-0.67-1.5-1.5l0,0c0-0.82,0.67-1.5,1.5-1.5h12c0.83,0,1.5,0.68,1.5,1.5
						l0,0C339.61,396.8,338.93,397.48,338.11,397.48z"/>
					<path class="st10" d="M338.11,407.48h-12c-0.83,0-1.5-0.67-1.5-1.5l0,0c0-0.82,0.67-1.5,1.5-1.5h12c0.83,0,1.5,0.68,1.5,1.5
						l0,0C339.61,406.8,338.93,407.48,338.11,407.48z"/>
					<path class="st10" d="M338.11,417.48h-12c-0.83,0-1.5-0.67-1.5-1.5l0,0c0-0.82,0.67-1.5,1.5-1.5h12c0.83,0,1.5,0.68,1.5,1.5
						l0,0C339.61,416.8,338.93,417.48,338.11,417.48z"/>
					<path class="st10" d="M338.11,427.48h-12c-0.83,0-1.5-0.67-1.5-1.5l0,0c0-0.82,0.67-1.5,1.5-1.5h12c0.83,0,1.5,0.68,1.5,1.5
						l0,0C339.61,426.8,338.93,427.48,338.11,427.48z"/>
					<path class="st10" d="M338.11,437.48h-12c-0.83,0-1.5-0.67-1.5-1.5l0,0c0-0.82,0.67-1.5,1.5-1.5h12c0.83,0,1.5,0.68,1.5,1.5
						l0,0C339.61,436.8,338.93,437.48,338.11,437.48z"/>
					<path class="st10" d="M338.11,447.48h-12c-0.83,0-1.5-0.67-1.5-1.5l0,0c0-0.82,0.67-1.5,1.5-1.5h12c0.83,0,1.5,0.68,1.5,1.5
						l0,0C339.61,446.8,338.93,447.48,338.11,447.48z"/>
					<path class="st10" d="M338.11,457.48h-12c-0.83,0-1.5-0.67-1.5-1.5l0,0c0-0.82,0.67-1.5,1.5-1.5h12c0.83,0,1.5,0.68,1.5,1.5
						l0,0C339.61,456.8,338.93,457.48,338.11,457.48z"/>
					<path class="st10" d="M338.11,467.48h-12c-0.83,0-1.5-0.67-1.5-1.5l0,0c0-0.82,0.67-1.5,1.5-1.5h12c0.83,0,1.5,0.68,1.5,1.5
						l0,0C339.61,466.8,338.93,467.48,338.11,467.48z"/>
					<path class="st10" d="M338.11,477.48h-12c-0.83,0-1.5-0.67-1.5-1.5l0,0c0-0.82,0.67-1.5,1.5-1.5h12c0.83,0,1.5,0.68,1.5,1.5
						l0,0C339.61,476.8,338.93,477.48,338.11,477.48z"/>
					<path class="st10" d="M338.11,487.48h-12c-0.83,0-1.5-0.67-1.5-1.5l0,0c0-0.82,0.67-1.5,1.5-1.5h12c0.83,0,1.5,0.68,1.5,1.5
						l0,0C339.61,486.8,338.93,487.48,338.11,487.48z"/>
					<path class="st10" d="M338.11,497.48h-12c-0.83,0-1.5-0.67-1.5-1.5l0,0c0-0.82,0.67-1.5,1.5-1.5h12c0.83,0,1.5,0.68,1.5,1.5
						l0,0C339.61,496.8,338.93,497.48,338.11,497.48z"/>
					<path class="st10" d="M338.11,507.48h-12c-0.83,0-1.5-0.67-1.5-1.5l0,0c0-0.82,0.67-1.5,1.5-1.5h12c0.83,0,1.5,0.68,1.5,1.5
						l0,0C339.61,506.8,338.93,507.48,338.11,507.48z"/>
					<path class="st10" d="M338.11,517.48h-12c-0.83,0-1.5-0.67-1.5-1.5l0,0c0-0.83,0.67-1.5,1.5-1.5h12c0.83,0,1.5,0.67,1.5,1.5
						l0,0C339.61,516.8,338.93,517.48,338.11,517.48z"/>
				</g>
				<g>
					<path class="st10" d="M301.11,285.48h-12c-0.83,0-1.5-0.67-1.5-1.5l0,0c0-0.82,0.67-1.5,1.5-1.5h12c0.83,0,1.5,0.68,1.5,1.5
						l0,0C302.61,284.8,301.93,285.48,301.11,285.48z"/>
					<path class="st10" d="M301.11,295.48h-12c-0.83,0-1.5-0.67-1.5-1.5l0,0c0-0.82,0.67-1.5,1.5-1.5h12c0.83,0,1.5,0.68,1.5,1.5
						l0,0C302.61,294.8,301.93,295.48,301.11,295.48z"/>
					<path class="st10" d="M301.11,305.48h-12c-0.83,0-1.5-0.67-1.5-1.5l0,0c0-0.82,0.67-1.5,1.5-1.5h12c0.83,0,1.5,0.68,1.5,1.5
						l0,0C302.61,304.8,301.93,305.48,301.11,305.48z"/>
					<path class="st10" d="M301.11,255.48h-12c-0.83,0-1.5-0.67-1.5-1.5v0c0-0.82,0.67-1.5,1.5-1.5h12c0.83,0,1.5,0.68,1.5,1.5v0
						C302.61,254.8,301.93,255.48,301.11,255.48z"/>
					<path class="st10" d="M301.11,265.48h-12c-0.83,0-1.5-0.67-1.5-1.5l0,0c0-0.82,0.67-1.5,1.5-1.5h12c0.83,0,1.5,0.68,1.5,1.5
						l0,0C302.61,264.8,301.93,265.48,301.11,265.48z"/>
					<path class="st10" d="M301.11,275.48h-12c-0.83,0-1.5-0.67-1.5-1.5l0,0c0-0.82,0.67-1.5,1.5-1.5h12c0.83,0,1.5,0.68,1.5,1.5
						l0,0C302.61,274.8,301.93,275.48,301.11,275.48z"/>
					<path class="st10" d="M301.11,315.48h-12c-0.83,0-1.5-0.67-1.5-1.5l0,0c0-0.82,0.67-1.5,1.5-1.5h12c0.83,0,1.5,0.68,1.5,1.5
						l0,0C302.61,314.8,301.93,315.48,301.11,315.48z"/>
					<path class="st10" d="M301.11,325.48h-12c-0.83,0-1.5-0.67-1.5-1.5l0,0c0-0.82,0.67-1.5,1.5-1.5h12c0.83,0,1.5,0.68,1.5,1.5
						l0,0C302.61,324.8,301.93,325.48,301.11,325.48z"/>
					<path class="st10" d="M301.11,335.48h-12c-0.83,0-1.5-0.67-1.5-1.5l0,0c0-0.82,0.67-1.5,1.5-1.5h12c0.83,0,1.5,0.68,1.5,1.5
						l0,0C302.61,334.8,301.93,335.48,301.11,335.48z"/>
					<path class="st10" d="M301.11,345.48h-12c-0.83,0-1.5-0.67-1.5-1.5l0,0c0-0.82,0.67-1.5,1.5-1.5h12c0.83,0,1.5,0.68,1.5,1.5
						l0,0C302.61,344.8,301.93,345.48,301.11,345.48z"/>
					<path class="st10" d="M301.11,355.48h-12c-0.83,0-1.5-0.67-1.5-1.5l0,0c0-0.82,0.67-1.5,1.5-1.5h12c0.83,0,1.5,0.68,1.5,1.5
						l0,0C302.61,354.8,301.93,355.48,301.11,355.48z"/>
					<path class="st10" d="M301.11,365.48h-12c-0.83,0-1.5-0.67-1.5-1.5l0,0c0-0.82,0.67-1.5,1.5-1.5h12c0.83,0,1.5,0.68,1.5,1.5
						l0,0C302.61,364.8,301.93,365.48,301.11,365.48z"/>
					<path class="st10" d="M301.11,375.48h-12c-0.83,0-1.5-0.67-1.5-1.5l0,0c0-0.82,0.67-1.5,1.5-1.5h12c0.83,0,1.5,0.68,1.5,1.5
						l0,0C302.61,374.8,301.93,375.48,301.11,375.48z"/>
					<path class="st10" d="M301.11,385.48h-12c-0.83,0-1.5-0.67-1.5-1.5l0,0c0-0.82,0.67-1.5,1.5-1.5h12c0.83,0,1.5,0.68,1.5,1.5
						l0,0C302.61,384.8,301.93,385.48,301.11,385.48z"/>
					<path class="st10" d="M301.11,395.48h-12c-0.83,0-1.5-0.67-1.5-1.5l0,0c0-0.82,0.67-1.5,1.5-1.5h12c0.83,0,1.5,0.68,1.5,1.5
						l0,0C302.61,394.8,301.93,395.48,301.11,395.48z"/>
					<path class="st10" d="M301.11,405.48h-12c-0.83,0-1.5-0.67-1.5-1.5l0,0c0-0.82,0.67-1.5,1.5-1.5h12c0.83,0,1.5,0.68,1.5,1.5
						l0,0C302.61,404.8,301.93,405.48,301.11,405.48z"/>
					<path class="st10" d="M301.11,415.48h-12c-0.83,0-1.5-0.67-1.5-1.5l0,0c0-0.82,0.67-1.5,1.5-1.5h12c0.83,0,1.5,0.68,1.5,1.5
						l0,0C302.61,414.8,301.93,415.48,301.11,415.48z"/>
					<path class="st10" d="M301.11,425.48h-12c-0.83,0-1.5-0.67-1.5-1.5l0,0c0-0.82,0.67-1.5,1.5-1.5h12c0.83,0,1.5,0.68,1.5,1.5
						l0,0C302.61,424.8,301.93,425.48,301.11,425.48z"/>
					<path class="st10" d="M301.11,435.48h-12c-0.83,0-1.5-0.67-1.5-1.5l0,0c0-0.82,0.67-1.5,1.5-1.5h12c0.83,0,1.5,0.68,1.5,1.5
						l0,0C302.61,434.8,301.93,435.48,301.11,435.48z"/>
					<path class="st10" d="M301.11,445.48h-12c-0.83,0-1.5-0.67-1.5-1.5l0,0c0-0.82,0.67-1.5,1.5-1.5h12c0.83,0,1.5,0.68,1.5,1.5
						l0,0C302.61,444.8,301.93,445.48,301.11,445.48z"/>
					<path class="st10" d="M301.11,455.48h-12c-0.83,0-1.5-0.67-1.5-1.5l0,0c0-0.82,0.67-1.5,1.5-1.5h12c0.83,0,1.5,0.68,1.5,1.5
						l0,0C302.61,454.8,301.93,455.48,301.11,455.48z"/>
					<path class="st10" d="M301.11,465.48h-12c-0.83,0-1.5-0.67-1.5-1.5l0,0c0-0.82,0.67-1.5,1.5-1.5h12c0.83,0,1.5,0.68,1.5,1.5
						l0,0C302.61,464.8,301.93,465.48,301.11,465.48z"/>
					<path class="st10" d="M301.11,475.48h-12c-0.83,0-1.5-0.67-1.5-1.5l0,0c0-0.82,0.67-1.5,1.5-1.5h12c0.83,0,1.5,0.68,1.5,1.5
						l0,0C302.61,474.8,301.93,475.48,301.11,475.48z"/>
					<path class="st10" d="M301.11,485.48h-12c-0.83,0-1.5-0.67-1.5-1.5l0,0c0-0.82,0.67-1.5,1.5-1.5h12c0.83,0,1.5,0.68,1.5,1.5
						l0,0C302.61,484.8,301.93,485.48,301.11,485.48z"/>
					<path class="st10" d="M301.11,495.48h-12c-0.83,0-1.5-0.67-1.5-1.5l0,0c0-0.82,0.67-1.5,1.5-1.5h12c0.83,0,1.5,0.68,1.5,1.5
						l0,0C302.61,494.8,301.93,495.48,301.11,495.48z"/>
					<path class="st10" d="M301.11,505.48h-12c-0.83,0-1.5-0.67-1.5-1.5l0,0c0-0.82,0.67-1.5,1.5-1.5h12c0.83,0,1.5,0.68,1.5,1.5
						l0,0C302.61,504.8,301.93,505.48,301.11,505.48z"/>
				</g>
				<g>
					<path class="st10" d="M284.11,270.48h-12c-0.83,0-1.5-0.67-1.5-1.5l0,0c0-0.82,0.67-1.5,1.5-1.5h12c0.83,0,1.5,0.68,1.5,1.5
						l0,0C285.61,269.8,284.93,270.48,284.11,270.48z"/>
					<path class="st10" d="M284.11,280.48h-12c-0.83,0-1.5-0.67-1.5-1.5l0,0c0-0.82,0.67-1.5,1.5-1.5h12c0.83,0,1.5,0.68,1.5,1.5
						l0,0C285.61,279.8,284.93,280.48,284.11,280.48z"/>
					<path class="st10" d="M284.11,290.48h-12c-0.83,0-1.5-0.67-1.5-1.5l0,0c0-0.82,0.67-1.5,1.5-1.5h12c0.83,0,1.5,0.68,1.5,1.5
						l0,0C285.61,289.8,284.93,290.48,284.11,290.48z"/>
					<path class="st10" d="M284.11,240.48h-12c-0.83,0-1.5-0.67-1.5-1.5v0c0-0.82,0.67-1.5,1.5-1.5h12c0.83,0,1.5,0.68,1.5,1.5v0
						C285.61,239.8,284.93,240.48,284.11,240.48z"/>
					<path class="st10" d="M284.11,250.48h-12c-0.83,0-1.5-0.67-1.5-1.5v0c0-0.82,0.67-1.5,1.5-1.5h12c0.83,0,1.5,0.68,1.5,1.5v0
						C285.61,249.8,284.93,250.48,284.11,250.48z"/>
					<path class="st10" d="M284.11,260.48h-12c-0.83,0-1.5-0.67-1.5-1.5l0,0c0-0.82,0.67-1.5,1.5-1.5h12c0.83,0,1.5,0.68,1.5,1.5
						l0,0C285.61,259.8,284.93,260.48,284.11,260.48z"/>
					<path class="st10" d="M284.11,300.48h-12c-0.83,0-1.5-0.67-1.5-1.5l0,0c0-0.82,0.67-1.5,1.5-1.5h12c0.83,0,1.5,0.68,1.5,1.5
						l0,0C285.61,299.8,284.93,300.48,284.11,300.48z"/>
					<path class="st10" d="M284.11,310.48h-12c-0.83,0-1.5-0.67-1.5-1.5l0,0c0-0.82,0.67-1.5,1.5-1.5h12c0.83,0,1.5,0.68,1.5,1.5
						l0,0C285.61,309.8,284.93,310.48,284.11,310.48z"/>
					<path class="st10" d="M284.11,320.48h-12c-0.83,0-1.5-0.67-1.5-1.5l0,0c0-0.82,0.67-1.5,1.5-1.5h12c0.83,0,1.5,0.68,1.5,1.5
						l0,0C285.61,319.8,284.93,320.48,284.11,320.48z"/>
					<path class="st10" d="M284.11,330.48h-12c-0.83,0-1.5-0.67-1.5-1.5l0,0c0-0.82,0.67-1.5,1.5-1.5h12c0.83,0,1.5,0.68,1.5,1.5
						l0,0C285.61,329.8,284.93,330.48,284.11,330.48z"/>
					<path class="st10" d="M284.11,340.48h-12c-0.83,0-1.5-0.67-1.5-1.5l0,0c0-0.82,0.67-1.5,1.5-1.5h12c0.83,0,1.5,0.68,1.5,1.5
						l0,0C285.61,339.8,284.93,340.48,284.11,340.48z"/>
					<path class="st10" d="M284.11,350.48h-12c-0.83,0-1.5-0.67-1.5-1.5l0,0c0-0.82,0.67-1.5,1.5-1.5h12c0.83,0,1.5,0.68,1.5,1.5
						l0,0C285.61,349.8,284.93,350.48,284.11,350.48z"/>
					<path class="st10" d="M284.11,360.48h-12c-0.83,0-1.5-0.67-1.5-1.5l0,0c0-0.82,0.67-1.5,1.5-1.5h12c0.83,0,1.5,0.68,1.5,1.5
						l0,0C285.61,359.8,284.93,360.48,284.11,360.48z"/>
					<path class="st10" d="M284.11,370.48h-12c-0.83,0-1.5-0.67-1.5-1.5l0,0c0-0.82,0.67-1.5,1.5-1.5h12c0.83,0,1.5,0.68,1.5,1.5
						l0,0C285.61,369.8,284.93,370.48,284.11,370.48z"/>
					<path class="st10" d="M284.11,380.48h-12c-0.83,0-1.5-0.67-1.5-1.5l0,0c0-0.82,0.67-1.5,1.5-1.5h12c0.83,0,1.5,0.68,1.5,1.5
						l0,0C285.61,379.8,284.93,380.48,284.11,380.48z"/>
					<path class="st10" d="M284.11,390.48h-12c-0.83,0-1.5-0.67-1.5-1.5l0,0c0-0.82,0.67-1.5,1.5-1.5h12c0.83,0,1.5,0.68,1.5,1.5
						l0,0C285.61,389.8,284.93,390.48,284.11,390.48z"/>
					<path class="st10" d="M284.11,400.48h-12c-0.83,0-1.5-0.67-1.5-1.5l0,0c0-0.82,0.67-1.5,1.5-1.5h12c0.83,0,1.5,0.68,1.5,1.5
						l0,0C285.61,399.8,284.93,400.48,284.11,400.48z"/>
					<path class="st10" d="M284.11,410.48h-12c-0.83,0-1.5-0.67-1.5-1.5l0,0c0-0.82,0.67-1.5,1.5-1.5h12c0.83,0,1.5,0.68,1.5,1.5
						l0,0C285.61,409.8,284.93,410.48,284.11,410.48z"/>
					<path class="st10" d="M284.11,420.48h-12c-0.83,0-1.5-0.67-1.5-1.5l0,0c0-0.82,0.67-1.5,1.5-1.5h12c0.83,0,1.5,0.68,1.5,1.5
						l0,0C285.61,419.8,284.93,420.48,284.11,420.48z"/>
					<path class="st10" d="M284.11,430.48h-12c-0.83,0-1.5-0.67-1.5-1.5l0,0c0-0.82,0.67-1.5,1.5-1.5h12c0.83,0,1.5,0.68,1.5,1.5
						l0,0C285.61,429.8,284.93,430.48,284.11,430.48z"/>
					<path class="st10" d="M284.11,440.48h-12c-0.83,0-1.5-0.67-1.5-1.5l0,0c0-0.82,0.67-1.5,1.5-1.5h12c0.83,0,1.5,0.68,1.5,1.5
						l0,0C285.61,439.8,284.93,440.48,284.11,440.48z"/>
					<path class="st10" d="M284.11,450.48h-12c-0.83,0-1.5-0.67-1.5-1.5l0,0c0-0.82,0.67-1.5,1.5-1.5h12c0.83,0,1.5,0.68,1.5,1.5
						l0,0C285.61,449.8,284.93,450.48,284.11,450.48z"/>
					<path class="st10" d="M284.11,460.48h-12c-0.83,0-1.5-0.67-1.5-1.5l0,0c0-0.82,0.67-1.5,1.5-1.5h12c0.83,0,1.5,0.68,1.5,1.5
						l0,0C285.61,459.8,284.93,460.48,284.11,460.48z"/>
					<path class="st10" d="M284.11,470.48h-12c-0.83,0-1.5-0.67-1.5-1.5l0,0c0-0.82,0.67-1.5,1.5-1.5h12c0.83,0,1.5,0.68,1.5,1.5
						l0,0C285.61,469.8,284.93,470.48,284.11,470.48z"/>
					<path class="st10" d="M284.11,480.48h-12c-0.83,0-1.5-0.67-1.5-1.5l0,0c0-0.82,0.67-1.5,1.5-1.5h12c0.83,0,1.5,0.68,1.5,1.5
						l0,0C285.61,479.8,284.93,480.48,284.11,480.48z"/>
					<path class="st10" d="M284.11,490.48h-12c-0.83,0-1.5-0.67-1.5-1.5l0,0c0-0.82,0.67-1.5,1.5-1.5h12c0.83,0,1.5,0.68,1.5,1.5
						l0,0C285.61,489.8,284.93,490.48,284.11,490.48z"/>
				</g>
			</g>
		</g>
	</g>
</g>
<g id="Calque_1">
</g>
<g id="INSTRUCTION_3">
</g>
<g id="INSTRUCTION_2">
</g>
<g id="INSTRUCTION_1">
</g>
<g id="GAME_OVER">
</g>
<g id="SCORES">
</g>
<g id="JEU_3">
</g>
<g id="JEU_2">
</g>
<g id="JEU_1">
</g>
<g id="DÉCOMPTE_3">
</g>
<g id="DÉCOMPTE_2">
</g>
<g id="DÉCOMPTE_1">
</g>
<g id="CHARGEMENT">
</g>
<g id="MENU">
</g>
<g id="INTRO">
</g>
</svg>
