<?xml version="1.0" encoding="utf-8"?>
<!-- Generator: Adobe Illustrator 23.1.1, SVG Export Plug-In . SVG Version: 6.00 Build 0)  -->
<svg version="1.1" id="Calque_1" xmlns="http://www.w3.org/2000/svg" xmlns:xlink="http://www.w3.org/1999/xlink" x="0px" y="0px"
	 viewBox="0 0 200.2 466.2" style="enable-background:new 0 0 200.2 466.2;" xml:space="preserve">
<style type="text/css">
	.st0{fill:#E6E6E6;}
	.st1{fill:#FFAE00;}
	.st2{fill:#00B2AE;}
	.st3{opacity:0.3;fill:#FFAE00;enable-background:new    ;}
	.st4{fill:#FCBC8B;}
	.st5{fill:#4C4C4C;}
	.st6{fill:#B2B2B2;}
	.st7{fill:#F1F1F1;}
	.st8{fill:#DDDDDD;}
	.st9{clip-path:url(#SVGID_3_);}
	.st10{clip-path:url(#SVGID_5_);}
	.st11{clip-path:url(#SVGID_7_);}
	.st12{clip-path:url(#SVGID_9_);}
	.st13{fill:#FFCDA4;}
</style>
<g id="INSTRUCTION_3">
</g>
<g id="INSTRUCTION_2">
</g>
<g id="INSTRUCTION_1">
</g>
<g id="GAME_OVER">
</g>
<g id="SCORES">
</g>
<g id="JEU_3">
</g>
<g id="JEU_2">
</g>
<g id="JEU_1">
</g>
<g id="DÉCOMPTE_3">
</g>
<g id="DÉCOMPTE_2">
</g>
<g id="DÉCOMPTE_1">
</g>
<g id="CHARGEMENT">
</g>
<g id="MENU">
</g>
<g id="INTRO">
</g>
<g>
	<path class="st0" d="M149.7,326.3L149.7,326.3c-0.2-0.3-0.5-0.6-0.7-0.8C149.3,325.8,149.5,326.1,149.7,326.3z"/>
	<path class="st0" d="M139.9,413.2h-9.6v-57.9c3.2,0,6.5,0,9.5,0v56C139.7,411.9,139.8,412.5,139.9,413.2z"/>
	<path class="st0" d="M200.2,333.2v121c0,6.6-5.4,12-12,12c-5.4,0-10-3.6-11.5-8.6c-1.5,5-6.1,8.6-11.5,8.6s-10-3.6-11.5-8.6
		c-1.5,5-6.1,8.6-11.5,8.6c-6.6,0-12-5.4-12-12v-16h33.5c6.6,0,12-5.4,12-12v-1c0-6.3-5-11.5-11.2-12c0.1-0.7,0.2-1.3,0.2-2v-70.4
		c3.8,2.8,7.8,5.2,12,7.3c7.3,3.6,15.2,6.1,23.5,7.2v-23C200.2,332.7,200.2,332.9,200.2,333.2z"/>
	<path class="st1" d="M69.2,126c-0.3-0.1-0.6-0.1-0.9-0.2c0.2,0,0.3-0.1,0.5-0.1C69,125.8,69.1,125.9,69.2,126z"/>
	<path class="st1" d="M65.4,83.2c-5.6,1.6-10.7,4.3-15.1,7.9c-0.6,0.5-1.2,1-1.8,1.6c-3.3,3-6.1,6.6-8.2,10.5
		c-1,1.9-1.9,3.8-2.6,5.8c-1.6,4.4-2.5,9.1-2.5,14.1v2.5C21.5,121.7,8.9,113.2,0,100.7c10.5,5.2,22.5,6.8,34,4.3
		c-8.2-9.7-13.6-22.1-15-35.6c6.9,10.2,17.1,17.8,29,21.1c-2.5-12.1-1.5-25.1,3.4-37.4C52.8,64.3,57.6,75,65.4,83.2z"/>
	<path class="st1" d="M166.9,101c-5.3-4.2-11.1-7.9-17.3-10.8l0,0c-3.3-1.6-6.7-2.9-10.2-4.1c-0.7-0.2-1.5-0.5-2.2-0.7
		c-4.3-1.3-8.8-2.3-13.4-2.9c-4-0.5-8-0.8-12.1-0.8H76.5c-3.8,0-7.4,0.5-10.9,1.5C76.2,67,77.3,45.3,66.8,27
		C59.4,14.1,47.7,5.4,34.6,1.7c26.5-6.3,55.5,5.7,70.2,31.2c3.5,6.1,5.9,12.5,7.3,19c1-4.2,1.6-8.6,1.6-13.1
		c0-14.9-5.8-28.3-15.3-38c26.1,7.7,45.3,32.5,45.3,62c0,6.7-1,13.2-2.8,19.2c3.4-3.6,6.3-7.7,8.7-12.3c6.8-13.2,7.9-27.8,4-40.8
		C172.3,46.8,178.2,75.7,166.9,101z"/>
	<path class="st2" d="M69.2,126c-0.3-0.1-0.6-0.1-0.9-0.2c0.2,0,0.3-0.1,0.5-0.1C69,125.8,69.1,125.9,69.2,126z"/>
	<path class="st2" d="M65.6,83.1c0,0-0.1,0.1-0.1,0.2l-0.1-0.1C65.5,83.2,65.6,83.2,65.6,83.1z"/>
	<path class="st2" d="M153.7,331c-1.4-1.5-2.7-3-4-4.6l0,0c-0.2-0.3-0.4-0.6-0.7-0.8c-0.9-1.2-1.8-2.3-2.6-3.5
		c-8.7-12.6-13.8-28-13.8-44.5v-154c0-11.5,4.7-22,12.4-29.5c0.4-0.4,0.7-0.7,1.1-1c0.5-0.5,1.1-1,1.7-1.5s1.2-0.9,1.8-1.4
		c-3.3-1.6-6.7-2.9-10.2-4.1c-0.7-0.2-1.5-0.5-2.2-0.7c-4.3-1.3-8.8-2.3-13.4-2.9c-4-0.5-8-0.8-12.1-0.8H76.5
		c-3.8,0-7.4,0.5-10.9,1.5c0,0-0.1,0.1-0.1,0.2l-0.1-0.1c-5.6,1.6-10.7,4.3-15.1,7.9c-0.6,0.5-1.2,1-1.8,1.6
		c-3.3,3-6.1,6.6-8.2,10.5c-1,1.9-1.9,3.8-2.6,5.8c-1.6,4.4-2.5,9.1-2.5,14.1v12c3.6-1.2,7.5-1.9,11.5-1.9c19.9,0,36,16.1,36,36
		c0,0.6,0,1.1,0,1.7c-0.4,9.3-4.4,17.7-10.6,23.9c-4.1-1.6-8.6-2.6-13.3-2.6c-8.6,0-16.5,3-22.6,8l0,0c-0.3,0.2-0.6,0.5-0.9,0.7
		v76.1c0,32,19.1,59.5,46.5,71.8v62.4c0,0.7,0.1,1.4,0.2,2h23.8c0.3,0,0.5,0,0.8,0c0.1-0.7,0.2-1.3,0.2-2v-55.8c0,0,11.8,0,23.5-0.1
		c3.2,0,6.5,0,9.5,0v56c0,0.7,0.1,1.4,0.2,2h23.8c0.3,0,0.5,0,0.8,0c0.1-0.7,0.2-1.3,0.2-2V341C160.7,337.9,157.1,334.6,153.7,331z
		 M68.4,125.8c0.2,0,0.3-0.1,0.5-0.1c0.1,0.1,0.2,0.2,0.4,0.3C68.9,125.9,68.7,125.9,68.4,125.8z M106.7,156.2c-6.1,0-11-4.9-11-11
		c0-2.3,0.7-4.4,1.9-6.1c2-2.9,5.3-4.9,9.1-4.9c4,0,7.4,2.1,9.4,5.2c1,1.7,1.6,3.7,1.6,5.8C117.7,151.3,112.8,156.2,106.7,156.2z"/>
	<path class="st2" d="M82.7,170.9c-0.4,9.3-4.4,17.7-10.6,23.9c-4.1-1.6-8.6-2.6-13.3-2.6c-8.6,0-16.5,3-22.6,8
		c2.4-17.5,17.5-31,35.6-31C75.5,169.2,79.2,169.8,82.7,170.9z"/>
	<path class="st2" d="M149.7,326.3L149.7,326.3c-0.2-0.3-0.5-0.6-0.7-0.8C149.3,325.8,149.5,326.1,149.7,326.3z"/>
	<path class="st3" d="M82.7,170.9c-0.4,9.3-4.4,17.7-10.6,23.9c-4.1-1.6-8.6-2.6-13.3-2.6c-8.6,0-16.5,3-22.6,8
		c2.4-17.5,17.5-31,35.6-31C75.5,169.2,79.2,169.8,82.7,170.9z"/>
	<path class="st4" d="M82.7,170.9c-0.4,9.3-4.4,17.7-10.6,23.9c-4.1-1.6-8.6-2.6-13.3-2.6c-8.6,0-16.5,3-22.6,8
		c2.4-17.5,17.5-31,35.6-31C75.5,169.2,79.2,169.8,82.7,170.9z"/>
	<path class="st5" d="M117.7,145.2c0,6.1-4.9,11-11,11s-11-4.9-11-11c0-2.3,0.7-4.4,1.9-6.1c2-2.9,5.3-4.9,9.1-4.9
		c4,0,7.4,2.1,9.4,5.2C117.1,141.1,117.7,143.1,117.7,145.2z"/>
	<path class="st6" d="M175.7,425.2v1c0,6.6-5.4,12-12,12h-34c-6.6,0-12-5.4-12-12c0,6.6-5.4,12-12,12h-34c-6.6,0-12-5.4-12-12v-1
		c0-6.6,5.4-12,12-12h34c0.3,0,0.5,0,0.8,0c6.2,0.4,11.2,5.6,11.2,12c0-6.6,5.4-12,12-12h34c0.3,0,0.5,0,0.8,0
		C170.8,413.6,175.7,418.8,175.7,425.2z"/>
	<path class="st7" d="M149.7,326.3L149.7,326.3c-0.2-0.3-0.5-0.6-0.7-0.8C149.3,325.8,149.5,326.1,149.7,326.3z"/>
	<g>
		<g>
			<path id="SVGID_1_" class="st8" d="M149.6,90.2c-10.2,7.5-16.9,19.6-16.9,33.3v154c0,20.7,8,39.5,21,53.5
				c6.5,7,14.3,12.9,23,17.1c7.3,3.6,15.2,6.1,23.5,7.2V170.1C200.2,134.8,179.5,104.4,149.6,90.2z"/>
		</g>
		<g>
			<defs>
				<path id="SVGID_2_" d="M149.6,90.2c-10.2,7.5-16.9,19.6-16.9,33.3v154c0,20.7,8,39.5,21,53.5c6.5,7,14.3,12.9,23,17.1
					c7.3,3.6,15.2,6.1,23.5,7.2V170.1C200.2,134.8,179.5,104.4,149.6,90.2z"/>
			</defs>
			<clipPath id="SVGID_3_">
				<use xlink:href="#SVGID_2_"  style="overflow:visible;"/>
			</clipPath>
			<g class="st9">
				<path class="st5" d="M180.2,134.2h-12c-0.8,0-1.5-0.7-1.5-1.5l0,0c0-0.8,0.7-1.5,1.5-1.5h12c0.8,0,1.5,0.7,1.5,1.5l0,0
					C181.7,133.5,181,134.2,180.2,134.2z"/>
				<path class="st5" d="M180.2,144.2h-12c-0.8,0-1.5-0.7-1.5-1.5l0,0c0-0.8,0.7-1.5,1.5-1.5h12c0.8,0,1.5,0.7,1.5,1.5l0,0
					C181.7,143.5,181,144.2,180.2,144.2z"/>
				<path class="st5" d="M180.2,154.2h-12c-0.8,0-1.5-0.7-1.5-1.5l0,0c0-0.8,0.7-1.5,1.5-1.5h12c0.8,0,1.5,0.7,1.5,1.5l0,0
					C181.7,153.5,181,154.2,180.2,154.2z"/>
				<path class="st5" d="M180.2,104.2h-12c-0.8,0-1.5-0.7-1.5-1.5l0,0c0-0.8,0.7-1.5,1.5-1.5h12c0.8,0,1.5,0.7,1.5,1.5l0,0
					C181.7,103.5,181,104.2,180.2,104.2z"/>
				<path class="st5" d="M180.2,114.2h-12c-0.8,0-1.5-0.7-1.5-1.5l0,0c0-0.8,0.7-1.5,1.5-1.5h12c0.8,0,1.5,0.7,1.5,1.5l0,0
					C181.7,113.5,181,114.2,180.2,114.2z"/>
				<path class="st5" d="M180.2,124.2h-12c-0.8,0-1.5-0.7-1.5-1.5l0,0c0-0.8,0.7-1.5,1.5-1.5h12c0.8,0,1.5,0.7,1.5,1.5l0,0
					C181.7,123.5,181,124.2,180.2,124.2z"/>
				<path class="st5" d="M180.2,164.2h-12c-0.8,0-1.5-0.7-1.5-1.5l0,0c0-0.8,0.7-1.5,1.5-1.5h12c0.8,0,1.5,0.7,1.5,1.5l0,0
					C181.7,163.5,181,164.2,180.2,164.2z"/>
				<path class="st5" d="M180.2,174.2h-12c-0.8,0-1.5-0.7-1.5-1.5l0,0c0-0.8,0.7-1.5,1.5-1.5h12c0.8,0,1.5,0.7,1.5,1.5l0,0
					C181.7,173.5,181,174.2,180.2,174.2z"/>
				<path class="st5" d="M180.2,184.2h-12c-0.8,0-1.5-0.7-1.5-1.5l0,0c0-0.8,0.7-1.5,1.5-1.5h12c0.8,0,1.5,0.7,1.5,1.5l0,0
					C181.7,183.5,181,184.2,180.2,184.2z"/>
				<path class="st5" d="M180.2,194.2h-12c-0.8,0-1.5-0.7-1.5-1.5l0,0c0-0.8,0.7-1.5,1.5-1.5h12c0.8,0,1.5,0.7,1.5,1.5l0,0
					C181.7,193.5,181,194.2,180.2,194.2z"/>
				<path class="st5" d="M180.2,204.2h-12c-0.8,0-1.5-0.7-1.5-1.5l0,0c0-0.8,0.7-1.5,1.5-1.5h12c0.8,0,1.5,0.7,1.5,1.5l0,0
					C181.7,203.5,181,204.2,180.2,204.2z"/>
				<path class="st5" d="M180.2,214.2h-12c-0.8,0-1.5-0.7-1.5-1.5l0,0c0-0.8,0.7-1.5,1.5-1.5h12c0.8,0,1.5,0.7,1.5,1.5l0,0
					C181.7,213.5,181,214.2,180.2,214.2z"/>
				<path class="st5" d="M180.2,224.2h-12c-0.8,0-1.5-0.7-1.5-1.5l0,0c0-0.8,0.7-1.5,1.5-1.5h12c0.8,0,1.5,0.7,1.5,1.5l0,0
					C181.7,223.5,181,224.2,180.2,224.2z"/>
				<path class="st5" d="M180.2,234.2h-12c-0.8,0-1.5-0.7-1.5-1.5l0,0c0-0.8,0.7-1.5,1.5-1.5h12c0.8,0,1.5,0.7,1.5,1.5l0,0
					C181.7,233.5,181,234.2,180.2,234.2z"/>
				<path class="st5" d="M180.2,244.2h-12c-0.8,0-1.5-0.7-1.5-1.5l0,0c0-0.8,0.7-1.5,1.5-1.5h12c0.8,0,1.5,0.7,1.5,1.5l0,0
					C181.7,243.5,181,244.2,180.2,244.2z"/>
				<path class="st5" d="M180.2,254.2h-12c-0.8,0-1.5-0.7-1.5-1.5l0,0c0-0.8,0.7-1.5,1.5-1.5h12c0.8,0,1.5,0.7,1.5,1.5l0,0
					C181.7,253.5,181,254.2,180.2,254.2z"/>
				<path class="st5" d="M180.2,264.2h-12c-0.8,0-1.5-0.7-1.5-1.5l0,0c0-0.8,0.7-1.5,1.5-1.5h12c0.8,0,1.5,0.7,1.5,1.5l0,0
					C181.7,263.5,181,264.2,180.2,264.2z"/>
				<path class="st5" d="M180.2,274.2h-12c-0.8,0-1.5-0.7-1.5-1.5l0,0c0-0.8,0.7-1.5,1.5-1.5h12c0.8,0,1.5,0.7,1.5,1.5l0,0
					C181.7,273.5,181,274.2,180.2,274.2z"/>
				<path class="st5" d="M180.2,284.2h-12c-0.8,0-1.5-0.7-1.5-1.5l0,0c0-0.8,0.7-1.5,1.5-1.5h12c0.8,0,1.5,0.7,1.5,1.5l0,0
					C181.7,283.5,181,284.2,180.2,284.2z"/>
				<path class="st5" d="M180.2,294.2h-12c-0.8,0-1.5-0.7-1.5-1.5l0,0c0-0.8,0.7-1.5,1.5-1.5h12c0.8,0,1.5,0.7,1.5,1.5l0,0
					C181.7,293.5,181,294.2,180.2,294.2z"/>
				<path class="st5" d="M180.2,304.2h-12c-0.8,0-1.5-0.7-1.5-1.5l0,0c0-0.8,0.7-1.5,1.5-1.5h12c0.8,0,1.5,0.7,1.5,1.5l0,0
					C181.7,303.5,181,304.2,180.2,304.2z"/>
				<path class="st5" d="M180.2,314.2h-12c-0.8,0-1.5-0.7-1.5-1.5l0,0c0-0.8,0.7-1.5,1.5-1.5h12c0.8,0,1.5,0.7,1.5,1.5l0,0
					C181.7,313.5,181,314.2,180.2,314.2z"/>
				<path class="st5" d="M180.2,324.2h-12c-0.8,0-1.5-0.7-1.5-1.5l0,0c0-0.8,0.7-1.5,1.5-1.5h12c0.8,0,1.5,0.7,1.5,1.5l0,0
					C181.7,323.5,181,324.2,180.2,324.2z"/>
				<path class="st5" d="M180.2,334.2h-12c-0.8,0-1.5-0.7-1.5-1.5l0,0c0-0.8,0.7-1.5,1.5-1.5h12c0.8,0,1.5,0.7,1.5,1.5l0,0
					C181.7,333.5,181,334.2,180.2,334.2z"/>
				<path class="st5" d="M180.2,344.2h-12c-0.8,0-1.5-0.7-1.5-1.5l0,0c0-0.8,0.7-1.5,1.5-1.5h12c0.8,0,1.5,0.7,1.5,1.5l0,0
					C181.7,343.5,181,344.2,180.2,344.2z"/>
				<path class="st5" d="M179.2,354.2h-12c-0.8,0-1.5-0.7-1.5-1.5l0,0c0-0.8,0.7-1.5,1.5-1.5h12c0.8,0,1.5,0.7,1.5,1.5l0,0
					C180.7,353.5,180,354.2,179.2,354.2z"/>
			</g>
		</g>
		<g>
			<defs>
				<path id="SVGID_4_" d="M149.6,90.2c-10.2,7.5-16.9,19.6-16.9,33.3v154c0,20.7,8,39.5,21,53.5c6.5,7,14.3,12.9,23,17.1
					c7.3,3.6,15.2,6.1,23.5,7.2V170.1C200.2,134.8,179.5,104.4,149.6,90.2z"/>
			</defs>
			<clipPath id="SVGID_5_">
				<use xlink:href="#SVGID_4_"  style="overflow:visible;"/>
			</clipPath>
			<g class="st10">
				<path class="st5" d="M200.2,141.2h-12c-0.8,0-1.5-0.7-1.5-1.5l0,0c0-0.8,0.7-1.5,1.5-1.5h12c0.8,0,1.5,0.7,1.5,1.5l0,0
					C201.7,140.5,201,141.2,200.2,141.2z"/>
				<path class="st5" d="M200.2,151.2h-12c-0.8,0-1.5-0.7-1.5-1.5l0,0c0-0.8,0.7-1.5,1.5-1.5h12c0.8,0,1.5,0.7,1.5,1.5l0,0
					C201.7,150.5,201,151.2,200.2,151.2z"/>
				<path class="st5" d="M200.2,161.2h-12c-0.8,0-1.5-0.7-1.5-1.5l0,0c0-0.8,0.7-1.5,1.5-1.5h12c0.8,0,1.5,0.7,1.5,1.5l0,0
					C201.7,160.5,201,161.2,200.2,161.2z"/>
				<path class="st5" d="M198.2,111.2h-12c-0.8,0-1.5-0.7-1.5-1.5l0,0c0-0.8,0.7-1.5,1.5-1.5h12c0.8,0,1.5,0.7,1.5,1.5l0,0
					C199.7,110.5,199,111.2,198.2,111.2z"/>
				<path class="st5" d="M200.2,131.2h-12c-0.8,0-1.5-0.7-1.5-1.5l0,0c0-0.8,0.7-1.5,1.5-1.5h12c0.8,0,1.5,0.7,1.5,1.5l0,0
					C201.7,130.5,201,131.2,200.2,131.2z"/>
				<path class="st5" d="M200.2,171.2h-12c-0.8,0-1.5-0.7-1.5-1.5l0,0c0-0.8,0.7-1.5,1.5-1.5h12c0.8,0,1.5,0.7,1.5,1.5l0,0
					C201.7,170.5,201,171.2,200.2,171.2z"/>
				<path class="st5" d="M200.2,181.2h-12c-0.8,0-1.5-0.7-1.5-1.5l0,0c0-0.8,0.7-1.5,1.5-1.5h12c0.8,0,1.5,0.7,1.5,1.5l0,0
					C201.7,180.5,201,181.2,200.2,181.2z"/>
				<path class="st5" d="M200.2,191.2h-12c-0.8,0-1.5-0.7-1.5-1.5l0,0c0-0.8,0.7-1.5,1.5-1.5h12c0.8,0,1.5,0.7,1.5,1.5l0,0
					C201.7,190.5,201,191.2,200.2,191.2z"/>
				<path class="st5" d="M200.2,201.2h-12c-0.8,0-1.5-0.7-1.5-1.5l0,0c0-0.8,0.7-1.5,1.5-1.5h12c0.8,0,1.5,0.7,1.5,1.5l0,0
					C201.7,200.5,201,201.2,200.2,201.2z"/>
				<path class="st5" d="M200.2,211.2h-12c-0.8,0-1.5-0.7-1.5-1.5l0,0c0-0.8,0.7-1.5,1.5-1.5h12c0.8,0,1.5,0.7,1.5,1.5l0,0
					C201.7,210.5,201,211.2,200.2,211.2z"/>
				<path class="st5" d="M200.2,221.2h-12c-0.8,0-1.5-0.7-1.5-1.5l0,0c0-0.8,0.7-1.5,1.5-1.5h12c0.8,0,1.5,0.7,1.5,1.5l0,0
					C201.7,220.5,201,221.2,200.2,221.2z"/>
				<path class="st5" d="M200.2,231.2h-12c-0.8,0-1.5-0.7-1.5-1.5l0,0c0-0.8,0.7-1.5,1.5-1.5h12c0.8,0,1.5,0.7,1.5,1.5l0,0
					C201.7,230.5,201,231.2,200.2,231.2z"/>
				<path class="st5" d="M200.2,241.2h-12c-0.8,0-1.5-0.7-1.5-1.5l0,0c0-0.8,0.7-1.5,1.5-1.5h12c0.8,0,1.5,0.7,1.5,1.5l0,0
					C201.7,240.5,201,241.2,200.2,241.2z"/>
				<path class="st5" d="M200.2,251.2h-12c-0.8,0-1.5-0.7-1.5-1.5l0,0c0-0.8,0.7-1.5,1.5-1.5h12c0.8,0,1.5,0.7,1.5,1.5l0,0
					C201.7,250.5,201,251.2,200.2,251.2z"/>
				<path class="st5" d="M200.2,261.2h-12c-0.8,0-1.5-0.7-1.5-1.5l0,0c0-0.8,0.7-1.5,1.5-1.5h12c0.8,0,1.5,0.7,1.5,1.5l0,0
					C201.7,260.5,201,261.2,200.2,261.2z"/>
				<path class="st5" d="M200.2,271.2h-12c-0.8,0-1.5-0.7-1.5-1.5l0,0c0-0.8,0.7-1.5,1.5-1.5h12c0.8,0,1.5,0.7,1.5,1.5l0,0
					C201.7,270.5,201,271.2,200.2,271.2z"/>
				<path class="st5" d="M200.2,281.2h-12c-0.8,0-1.5-0.7-1.5-1.5l0,0c0-0.8,0.7-1.5,1.5-1.5h12c0.8,0,1.5,0.7,1.5,1.5l0,0
					C201.7,280.5,201,281.2,200.2,281.2z"/>
				<path class="st5" d="M200.2,291.2h-12c-0.8,0-1.5-0.7-1.5-1.5l0,0c0-0.8,0.7-1.5,1.5-1.5h12c0.8,0,1.5,0.7,1.5,1.5l0,0
					C201.7,290.5,201,291.2,200.2,291.2z"/>
				<path class="st5" d="M200.2,301.2h-12c-0.8,0-1.5-0.7-1.5-1.5l0,0c0-0.8,0.7-1.5,1.5-1.5h12c0.8,0,1.5,0.7,1.5,1.5l0,0
					C201.7,300.5,201,301.2,200.2,301.2z"/>
				<path class="st5" d="M200.2,311.2h-12c-0.8,0-1.5-0.7-1.5-1.5l0,0c0-0.8,0.7-1.5,1.5-1.5h12c0.8,0,1.5,0.7,1.5,1.5l0,0
					C201.7,310.5,201,311.2,200.2,311.2z"/>
				<path class="st5" d="M200.2,321.2h-12c-0.8,0-1.5-0.7-1.5-1.5l0,0c0-0.8,0.7-1.5,1.5-1.5h12c0.8,0,1.5,0.7,1.5,1.5l0,0
					C201.7,320.5,201,321.2,200.2,321.2z"/>
				<path class="st5" d="M200.2,331.2h-12c-0.8,0-1.5-0.7-1.5-1.5l0,0c0-0.8,0.7-1.5,1.5-1.5h12c0.8,0,1.5,0.7,1.5,1.5l0,0
					C201.7,330.5,201,331.2,200.2,331.2z"/>
				<path class="st5" d="M200.2,341.2h-12c-0.8,0-1.5-0.7-1.5-1.5l0,0c0-0.8,0.7-1.5,1.5-1.5h12c0.8,0,1.5,0.7,1.5,1.5l0,0
					C201.7,340.5,201,341.2,200.2,341.2z"/>
				<path class="st5" d="M200.2,351.2h-12c-0.8,0-1.5-0.7-1.5-1.5l0,0c0-0.8,0.7-1.5,1.5-1.5h12c0.8,0,1.5,0.7,1.5,1.5l0,0
					C201.7,350.5,201,351.2,200.2,351.2z"/>
				<path class="st5" d="M198.2,361.2h-12c-0.8,0-1.5-0.7-1.5-1.5l0,0c0-0.8,0.7-1.5,1.5-1.5h12c0.8,0,1.5,0.7,1.5,1.5l0,0
					C199.7,360.5,199,361.2,198.2,361.2z"/>
			</g>
		</g>
		<g>
			<defs>
				<path id="SVGID_6_" d="M149.6,90.2c-10.2,7.5-16.9,19.6-16.9,33.3v154c0,20.7,8,39.5,21,53.5c6.5,7,14.3,12.9,23,17.1
					c7.3,3.6,15.2,6.1,23.5,7.2V170.1C200.2,134.8,179.5,104.4,149.6,90.2z"/>
			</defs>
			<clipPath id="SVGID_7_">
				<use xlink:href="#SVGID_6_"  style="overflow:visible;"/>
			</clipPath>
			<g class="st11">
				<path class="st5" d="M161.2,129.2h-12c-0.8,0-1.5-0.7-1.5-1.5l0,0c0-0.8,0.7-1.5,1.5-1.5h12c0.8,0,1.5,0.7,1.5,1.5l0,0
					C162.7,128.5,162,129.2,161.2,129.2z"/>
				<path class="st5" d="M161.2,139.2h-12c-0.8,0-1.5-0.7-1.5-1.5l0,0c0-0.8,0.7-1.5,1.5-1.5h12c0.8,0,1.5,0.7,1.5,1.5l0,0
					C162.7,138.5,162,139.2,161.2,139.2z"/>
				<path class="st5" d="M161.2,149.2h-12c-0.8,0-1.5-0.7-1.5-1.5l0,0c0-0.8,0.7-1.5,1.5-1.5h12c0.8,0,1.5,0.7,1.5,1.5l0,0
					C162.7,148.5,162,149.2,161.2,149.2z"/>
				<path class="st5" d="M161.2,99.2h-12c-0.8,0-1.5-0.7-1.5-1.5l0,0c0-0.8,0.7-1.5,1.5-1.5h12c0.8,0,1.5,0.7,1.5,1.5l0,0
					C162.7,98.5,162,99.2,161.2,99.2z"/>
				<path class="st5" d="M161.2,109.2h-12c-0.8,0-1.5-0.7-1.5-1.5l0,0c0-0.8,0.7-1.5,1.5-1.5h12c0.8,0,1.5,0.7,1.5,1.5l0,0
					C162.7,108.5,162,109.2,161.2,109.2z"/>
				<path class="st5" d="M161.2,119.2h-12c-0.8,0-1.5-0.7-1.5-1.5l0,0c0-0.8,0.7-1.5,1.5-1.5h12c0.8,0,1.5,0.7,1.5,1.5l0,0
					C162.7,118.5,162,119.2,161.2,119.2z"/>
				<path class="st5" d="M161.2,159.2h-12c-0.8,0-1.5-0.7-1.5-1.5l0,0c0-0.8,0.7-1.5,1.5-1.5h12c0.8,0,1.5,0.7,1.5,1.5l0,0
					C162.7,158.5,162,159.2,161.2,159.2z"/>
				<path class="st5" d="M161.2,169.2h-12c-0.8,0-1.5-0.7-1.5-1.5l0,0c0-0.8,0.7-1.5,1.5-1.5h12c0.8,0,1.5,0.7,1.5,1.5l0,0
					C162.7,168.5,162,169.2,161.2,169.2z"/>
				<path class="st5" d="M161.2,179.2h-12c-0.8,0-1.5-0.7-1.5-1.5l0,0c0-0.8,0.7-1.5,1.5-1.5h12c0.8,0,1.5,0.7,1.5,1.5l0,0
					C162.7,178.5,162,179.2,161.2,179.2z"/>
				<path class="st5" d="M161.2,189.2h-12c-0.8,0-1.5-0.7-1.5-1.5l0,0c0-0.8,0.7-1.5,1.5-1.5h12c0.8,0,1.5,0.7,1.5,1.5l0,0
					C162.7,188.5,162,189.2,161.2,189.2z"/>
				<path class="st5" d="M161.2,199.2h-12c-0.8,0-1.5-0.7-1.5-1.5l0,0c0-0.8,0.7-1.5,1.5-1.5h12c0.8,0,1.5,0.7,1.5,1.5l0,0
					C162.7,198.5,162,199.2,161.2,199.2z"/>
				<path class="st5" d="M161.2,209.2h-12c-0.8,0-1.5-0.7-1.5-1.5l0,0c0-0.8,0.7-1.5,1.5-1.5h12c0.8,0,1.5,0.7,1.5,1.5l0,0
					C162.7,208.5,162,209.2,161.2,209.2z"/>
				<path class="st5" d="M161.2,219.2h-12c-0.8,0-1.5-0.7-1.5-1.5l0,0c0-0.8,0.7-1.5,1.5-1.5h12c0.8,0,1.5,0.7,1.5,1.5l0,0
					C162.7,218.5,162,219.2,161.2,219.2z"/>
				<path class="st5" d="M161.2,229.2h-12c-0.8,0-1.5-0.7-1.5-1.5l0,0c0-0.8,0.7-1.5,1.5-1.5h12c0.8,0,1.5,0.7,1.5,1.5l0,0
					C162.7,228.5,162,229.2,161.2,229.2z"/>
				<path class="st5" d="M161.2,239.2h-12c-0.8,0-1.5-0.7-1.5-1.5l0,0c0-0.8,0.7-1.5,1.5-1.5h12c0.8,0,1.5,0.7,1.5,1.5l0,0
					C162.7,238.5,162,239.2,161.2,239.2z"/>
				<path class="st5" d="M161.2,249.2h-12c-0.8,0-1.5-0.7-1.5-1.5l0,0c0-0.8,0.7-1.5,1.5-1.5h12c0.8,0,1.5,0.7,1.5,1.5l0,0
					C162.7,248.5,162,249.2,161.2,249.2z"/>
				<path class="st5" d="M161.2,259.2h-12c-0.8,0-1.5-0.7-1.5-1.5l0,0c0-0.8,0.7-1.5,1.5-1.5h12c0.8,0,1.5,0.7,1.5,1.5l0,0
					C162.7,258.5,162,259.2,161.2,259.2z"/>
				<path class="st5" d="M161.2,269.2h-12c-0.8,0-1.5-0.7-1.5-1.5l0,0c0-0.8,0.7-1.5,1.5-1.5h12c0.8,0,1.5,0.7,1.5,1.5l0,0
					C162.7,268.5,162,269.2,161.2,269.2z"/>
				<path class="st5" d="M161.2,279.2h-12c-0.8,0-1.5-0.7-1.5-1.5l0,0c0-0.8,0.7-1.5,1.5-1.5h12c0.8,0,1.5,0.7,1.5,1.5l0,0
					C162.7,278.5,162,279.2,161.2,279.2z"/>
				<path class="st5" d="M161.2,289.2h-12c-0.8,0-1.5-0.7-1.5-1.5l0,0c0-0.8,0.7-1.5,1.5-1.5h12c0.8,0,1.5,0.7,1.5,1.5l0,0
					C162.7,288.5,162,289.2,161.2,289.2z"/>
				<path class="st5" d="M161.2,299.2h-12c-0.8,0-1.5-0.7-1.5-1.5l0,0c0-0.8,0.7-1.5,1.5-1.5h12c0.8,0,1.5,0.7,1.5,1.5l0,0
					C162.7,298.5,162,299.2,161.2,299.2z"/>
				<path class="st5" d="M161.2,309.2h-12c-0.8,0-1.5-0.7-1.5-1.5l0,0c0-0.8,0.7-1.5,1.5-1.5h12c0.8,0,1.5,0.7,1.5,1.5l0,0
					C162.7,308.5,162,309.2,161.2,309.2z"/>
				<path class="st5" d="M161.2,319.2h-12c-0.8,0-1.5-0.7-1.5-1.5l0,0c0-0.8,0.7-1.5,1.5-1.5h12c0.8,0,1.5,0.7,1.5,1.5l0,0
					C162.7,318.5,162,319.2,161.2,319.2z"/>
				<path class="st5" d="M161.2,329.2h-12c-0.8,0-1.5-0.7-1.5-1.5l0,0c0-0.8,0.7-1.5,1.5-1.5h12c0.8,0,1.5,0.7,1.5,1.5l0,0
					C162.7,328.5,162,329.2,161.2,329.2z"/>
				<path class="st5" d="M161.2,339.2h-12c-0.8,0-1.5-0.7-1.5-1.5l0,0c0-0.8,0.7-1.5,1.5-1.5h12c0.8,0,1.5,0.7,1.5,1.5l0,0
					C162.7,338.5,162,339.2,161.2,339.2z"/>
				<path class="st5" d="M161.2,349.2h-12c-0.8,0-1.5-0.7-1.5-1.5l0,0c0-0.8,0.7-1.5,1.5-1.5h12c0.8,0,1.5,0.7,1.5,1.5l0,0
					C162.7,348.5,162,349.2,161.2,349.2z"/>
			</g>
		</g>
		<g>
			<defs>
				<path id="SVGID_8_" d="M149.6,90.2c-10.2,7.5-16.9,19.6-16.9,33.3v154c0,20.7,8,39.5,21,53.5c6.5,7,14.3,12.9,23,17.1
					c7.3,3.6,15.2,6.1,23.5,7.2V170.1C200.2,134.8,179.5,104.4,149.6,90.2z"/>
			</defs>
			<clipPath id="SVGID_9_">
				<use xlink:href="#SVGID_8_"  style="overflow:visible;"/>
			</clipPath>
			<g class="st12">
				<path class="st5" d="M142.2,114.2h-12c-0.8,0-1.5-0.7-1.5-1.5l0,0c0-0.8,0.7-1.5,1.5-1.5h12c0.8,0,1.5,0.7,1.5,1.5l0,0
					C143.7,113.5,143,114.2,142.2,114.2z"/>
				<path class="st5" d="M142.2,124.2h-12c-0.8,0-1.5-0.7-1.5-1.5l0,0c0-0.8,0.7-1.5,1.5-1.5h12c0.8,0,1.5,0.7,1.5,1.5l0,0
					C143.7,123.5,143,124.2,142.2,124.2z"/>
				<path class="st5" d="M142.2,134.2h-12c-0.8,0-1.5-0.7-1.5-1.5l0,0c0-0.8,0.7-1.5,1.5-1.5h12c0.8,0,1.5,0.7,1.5,1.5l0,0
					C143.7,133.5,143,134.2,142.2,134.2z"/>
				<path class="st5" d="M144.2,84.2h-12c-0.8,0-1.5-0.7-1.5-1.5l0,0c0-0.8,0.7-1.5,1.5-1.5h12c0.8,0,1.5,0.7,1.5,1.5l0,0
					C145.7,83.5,145,84.2,144.2,84.2z"/>
				<path class="st5" d="M144.2,94.2h-12c-0.8,0-1.5-0.7-1.5-1.5l0,0c0-0.8,0.7-1.5,1.5-1.5h12c0.8,0,1.5,0.7,1.5,1.5l0,0
					C145.7,93.5,145,94.2,144.2,94.2z"/>
				<path class="st5" d="M142.2,104.2h-12c-0.8,0-1.5-0.7-1.5-1.5l0,0c0-0.8,0.7-1.5,1.5-1.5h12c0.8,0,1.5,0.7,1.5,1.5l0,0
					C143.7,103.5,143,104.2,142.2,104.2z"/>
				<path class="st5" d="M142.2,144.2h-12c-0.8,0-1.5-0.7-1.5-1.5l0,0c0-0.8,0.7-1.5,1.5-1.5h12c0.8,0,1.5,0.7,1.5,1.5l0,0
					C143.7,143.5,143,144.2,142.2,144.2z"/>
				<path class="st5" d="M142.2,154.2h-12c-0.8,0-1.5-0.7-1.5-1.5l0,0c0-0.8,0.7-1.5,1.5-1.5h12c0.8,0,1.5,0.7,1.5,1.5l0,0
					C143.7,153.5,143,154.2,142.2,154.2z"/>
				<path class="st5" d="M142.2,164.2h-12c-0.8,0-1.5-0.7-1.5-1.5l0,0c0-0.8,0.7-1.5,1.5-1.5h12c0.8,0,1.5,0.7,1.5,1.5l0,0
					C143.7,163.5,143,164.2,142.2,164.2z"/>
				<path class="st5" d="M142.2,174.2h-12c-0.8,0-1.5-0.7-1.5-1.5l0,0c0-0.8,0.7-1.5,1.5-1.5h12c0.8,0,1.5,0.7,1.5,1.5l0,0
					C143.7,173.5,143,174.2,142.2,174.2z"/>
				<path class="st5" d="M142.2,184.2h-12c-0.8,0-1.5-0.7-1.5-1.5l0,0c0-0.8,0.7-1.5,1.5-1.5h12c0.8,0,1.5,0.7,1.5,1.5l0,0
					C143.7,183.5,143,184.2,142.2,184.2z"/>
				<path class="st5" d="M142.2,194.2h-12c-0.8,0-1.5-0.7-1.5-1.5l0,0c0-0.8,0.7-1.5,1.5-1.5h12c0.8,0,1.5,0.7,1.5,1.5l0,0
					C143.7,193.5,143,194.2,142.2,194.2z"/>
				<path class="st5" d="M142.2,204.2h-12c-0.8,0-1.5-0.7-1.5-1.5l0,0c0-0.8,0.7-1.5,1.5-1.5h12c0.8,0,1.5,0.7,1.5,1.5l0,0
					C143.7,203.5,143,204.2,142.2,204.2z"/>
				<path class="st5" d="M142.2,214.2h-12c-0.8,0-1.5-0.7-1.5-1.5l0,0c0-0.8,0.7-1.5,1.5-1.5h12c0.8,0,1.5,0.7,1.5,1.5l0,0
					C143.7,213.5,143,214.2,142.2,214.2z"/>
				<path class="st5" d="M142.2,224.2h-12c-0.8,0-1.5-0.7-1.5-1.5l0,0c0-0.8,0.7-1.5,1.5-1.5h12c0.8,0,1.5,0.7,1.5,1.5l0,0
					C143.7,223.5,143,224.2,142.2,224.2z"/>
				<path class="st5" d="M142.2,234.2h-12c-0.8,0-1.5-0.7-1.5-1.5l0,0c0-0.8,0.7-1.5,1.5-1.5h12c0.8,0,1.5,0.7,1.5,1.5l0,0
					C143.7,233.5,143,234.2,142.2,234.2z"/>
				<path class="st5" d="M142.2,244.2h-12c-0.8,0-1.5-0.7-1.5-1.5l0,0c0-0.8,0.7-1.5,1.5-1.5h12c0.8,0,1.5,0.7,1.5,1.5l0,0
					C143.7,243.5,143,244.2,142.2,244.2z"/>
				<path class="st5" d="M142.2,254.2h-12c-0.8,0-1.5-0.7-1.5-1.5l0,0c0-0.8,0.7-1.5,1.5-1.5h12c0.8,0,1.5,0.7,1.5,1.5l0,0
					C143.7,253.5,143,254.2,142.2,254.2z"/>
				<path class="st5" d="M142.2,264.2h-12c-0.8,0-1.5-0.7-1.5-1.5l0,0c0-0.8,0.7-1.5,1.5-1.5h12c0.8,0,1.5,0.7,1.5,1.5l0,0
					C143.7,263.5,143,264.2,142.2,264.2z"/>
				<path class="st5" d="M142.2,274.2h-12c-0.8,0-1.5-0.7-1.5-1.5l0,0c0-0.8,0.7-1.5,1.5-1.5h12c0.8,0,1.5,0.7,1.5,1.5l0,0
					C143.7,273.5,143,274.2,142.2,274.2z"/>
				<path class="st5" d="M142.2,284.2h-12c-0.8,0-1.5-0.7-1.5-1.5l0,0c0-0.8,0.7-1.5,1.5-1.5h12c0.8,0,1.5,0.7,1.5,1.5l0,0
					C143.7,283.5,143,284.2,142.2,284.2z"/>
				<path class="st5" d="M142.2,294.2h-12c-0.8,0-1.5-0.7-1.5-1.5l0,0c0-0.8,0.7-1.5,1.5-1.5h12c0.8,0,1.5,0.7,1.5,1.5l0,0
					C143.7,293.5,143,294.2,142.2,294.2z"/>
				<path class="st5" d="M142.2,304.2h-12c-0.8,0-1.5-0.7-1.5-1.5l0,0c0-0.8,0.7-1.5,1.5-1.5h12c0.8,0,1.5,0.7,1.5,1.5l0,0
					C143.7,303.5,143,304.2,142.2,304.2z"/>
				<path class="st5" d="M142.2,314.2h-12c-0.8,0-1.5-0.7-1.5-1.5l0,0c0-0.8,0.7-1.5,1.5-1.5h12c0.8,0,1.5,0.7,1.5,1.5l0,0
					C143.7,313.5,143,314.2,142.2,314.2z"/>
				<path class="st5" d="M144.2,324.2h-12c-0.8,0-1.5-0.7-1.5-1.5l0,0c0-0.8,0.7-1.5,1.5-1.5h12c0.8,0,1.5,0.7,1.5,1.5l0,0
					C145.7,323.5,145,324.2,144.2,324.2z"/>
				<path class="st5" d="M144.2,334.2h-12c-0.8,0-1.5-0.7-1.5-1.5l0,0c0-0.8,0.7-1.5,1.5-1.5h12c0.8,0,1.5,0.7,1.5,1.5l0,0
					C145.7,333.5,145,334.2,144.2,334.2z"/>
			</g>
		</g>
	</g>
	<path class="st13" d="M82.7,169.2c0,0.6,0,1.1,0,1.7c-3.5-1.1-7.1-1.7-11-1.7c-18.2,0-33.2,13.5-35.6,31l0,0
		c-0.3,0.2-0.6,0.5-0.9,0.7c-0.6,0.5-1.2,1.1-1.8,1.7c-13.3-5.3-22.7-18.3-22.7-33.4c0-15.9,10.3-29.3,24.5-34.1
		c3.6-1.2,7.5-1.9,11.5-1.9C66.6,133.2,82.7,149.3,82.7,169.2z"/>
</g>
</svg>
